M48
; DRILL file {KiCad (6.0.2)} date Wed Mar 23 02:53:53 2022
; FORMAT={-:-/ absolute / metric / decimal}
; #@! TF.CreationDate,2022-03-23T02:53:53+09:00
; #@! TF.GenerationSoftware,Kicad,Pcbnew,(6.0.2)
; #@! TF.FileFunction,Plated,1,2,PTH
FMAT,2
METRIC
; #@! TA.AperFunction,Plated,PTH,ViaDrill
T1C0.400
; #@! TA.AperFunction,Plated,PTH,ComponentDrill
T2C0.700
; #@! TA.AperFunction,Plated,PTH,ComponentDrill
T3C0.950
; #@! TA.AperFunction,Plated,PTH,ComponentDrill
T4C1.000
%
G90
G05
T1
X158.457Y-68.215
X158.457Y-69.485
X158.457Y-70.755
X160.997Y-68.215
X160.997Y-69.485
X160.997Y-70.755
X163.537Y-70.755
X164.045Y-76.343
X164.807Y-77.105
X166.077Y-68.215
X166.077Y-69.485
X166.077Y-70.755
X168.617Y-68.215
X168.617Y-69.485
X168.617Y-70.755
X169.125Y-88.535
X169.125Y-91.075
X170.668Y-88.535
X170.668Y-91.075
X171.157Y-68.215
X171.157Y-69.485
X171.157Y-70.755
X172.173Y-88.535
X172.173Y-91.075
X172.935Y-70.552
X172.935Y-68.977
X175.24Y-88.535
X175.24Y-91.075
X175.602Y-68.977
X176.176Y-93.169
X176.695Y-88.535
X176.745Y-91.075
X181.571Y-75.378
T2
X166.617Y-73.825
X166.617Y-86.425
X168.397Y-73.825
X168.397Y-86.425
X170.177Y-73.825
X170.177Y-86.425
X171.957Y-73.825
X171.957Y-86.425
X173.737Y-73.825
X173.737Y-86.425
X175.517Y-73.825
X175.517Y-86.425
X177.297Y-73.825
X177.297Y-86.425
X179.077Y-73.825
X179.077Y-86.425
T3
X147.365Y-69.194
X149.865Y-69.194
X152.365Y-69.194
X154.865Y-69.194
T4
X143.471Y-75.327
X143.471Y-77.867
X143.471Y-80.407
X143.471Y-82.947
X143.471Y-85.487
X143.471Y-88.027
X143.471Y-90.567
X158.712Y-75.327
X158.712Y-77.867
X158.712Y-80.407
X158.712Y-82.947
X158.712Y-85.487
X158.712Y-88.027
X158.712Y-90.567
T0
M30
