%FSLAX45Y45*%
G04 Gerber Fmt 4.5, Leading zero omitted, Abs format (unit mm)*
G04 Created by KiCad (PCBNEW (6.0.2)) date 2022-03-23 02:53:55*
%MOMM*%
%LPD*%
G01*
G04 APERTURE LIST*
%TA.AperFunction,Profile*%
%ADD10C,0.200000*%
%TD*%
%ADD11C,0.200000*%
G04 APERTURE END LIST*
D10*
X18350000Y-6850000D02*
G75*
G03*
X18150000Y-6650000I-200000J0D01*
G01*
X14350000Y-6650000D02*
X18150000Y-6650000D01*
X18150000Y-9380000D02*
X14350000Y-9380000D01*
X16350000Y-9180000D02*
G75*
G03*
X16350000Y-9180000I-100000J0D01*
G01*
X14350000Y-6650000D02*
G75*
G03*
X14150000Y-6850000I0J-200000D01*
G01*
X14150000Y-9180000D02*
X14150000Y-6850000D01*
X18350000Y-6850000D02*
X18350000Y-9180000D01*
X18150000Y-9380000D02*
G75*
G03*
X18350000Y-9180000I0J200000D01*
G01*
X16350000Y-6850000D02*
G75*
G03*
X16350000Y-6850000I-100000J0D01*
G01*
X14150000Y-9180000D02*
G75*
G03*
X14350000Y-9380000I200000J0D01*
G01*
D11*
X14397619Y-9700476D02*
X14397619Y-9500476D01*
X14445238Y-9500476D01*
X14473809Y-9510000D01*
X14492857Y-9529048D01*
X14502381Y-9548095D01*
X14511905Y-9586190D01*
X14511905Y-9614762D01*
X14502381Y-9652857D01*
X14492857Y-9671905D01*
X14473809Y-9690952D01*
X14445238Y-9700476D01*
X14397619Y-9700476D01*
X14597619Y-9700476D02*
X14597619Y-9567143D01*
X14597619Y-9605238D02*
X14607143Y-9586190D01*
X14616667Y-9576667D01*
X14635714Y-9567143D01*
X14654762Y-9567143D01*
X14721428Y-9700476D02*
X14721428Y-9567143D01*
X14721428Y-9500476D02*
X14711905Y-9510000D01*
X14721428Y-9519524D01*
X14730952Y-9510000D01*
X14721428Y-9500476D01*
X14721428Y-9519524D01*
X14845238Y-9700476D02*
X14826190Y-9690952D01*
X14816667Y-9671905D01*
X14816667Y-9500476D01*
X14950000Y-9700476D02*
X14930952Y-9690952D01*
X14921428Y-9671905D01*
X14921428Y-9500476D01*
X15178571Y-9700476D02*
X15178571Y-9500476D01*
X15245238Y-9643333D01*
X15311905Y-9500476D01*
X15311905Y-9700476D01*
X15492857Y-9700476D02*
X15492857Y-9595714D01*
X15483333Y-9576667D01*
X15464286Y-9567143D01*
X15426190Y-9567143D01*
X15407143Y-9576667D01*
X15492857Y-9690952D02*
X15473809Y-9700476D01*
X15426190Y-9700476D01*
X15407143Y-9690952D01*
X15397619Y-9671905D01*
X15397619Y-9652857D01*
X15407143Y-9633810D01*
X15426190Y-9624286D01*
X15473809Y-9624286D01*
X15492857Y-9614762D01*
X15588095Y-9567143D02*
X15588095Y-9767143D01*
X15588095Y-9576667D02*
X15607143Y-9567143D01*
X15645238Y-9567143D01*
X15664286Y-9576667D01*
X15673809Y-9586190D01*
X15683333Y-9605238D01*
X15683333Y-9662381D01*
X15673809Y-9681429D01*
X15664286Y-9690952D01*
X15645238Y-9700476D01*
X15607143Y-9700476D01*
X15588095Y-9690952D01*
X15769048Y-9681429D02*
X15778571Y-9690952D01*
X15769048Y-9700476D01*
X15759524Y-9690952D01*
X15769048Y-9681429D01*
X15769048Y-9700476D01*
X15769048Y-9576667D02*
X15778571Y-9586190D01*
X15769048Y-9595714D01*
X15759524Y-9586190D01*
X15769048Y-9576667D01*
X15769048Y-9595714D01*
M02*
