G04 #@! TF.GenerationSoftware,KiCad,Pcbnew,(6.0.2)*
G04 #@! TF.CreationDate,2022-03-23T02:52:59+09:00*
G04 #@! TF.ProjectId,ADNS-9800,41444e53-2d39-4383-9030-2e6b69636164,rev?*
G04 #@! TF.SameCoordinates,Original*
G04 #@! TF.FileFunction,Copper,L1,Top*
G04 #@! TF.FilePolarity,Positive*
%FSLAX46Y46*%
G04 Gerber Fmt 4.6, Leading zero omitted, Abs format (unit mm)*
G04 Created by KiCad (PCBNEW (6.0.2)) date 2022-03-23 02:52:59*
%MOMM*%
%LPD*%
G01*
G04 APERTURE LIST*
G04 Aperture macros list*
%AMRoundRect*
0 Rectangle with rounded corners*
0 $1 Rounding radius*
0 $2 $3 $4 $5 $6 $7 $8 $9 X,Y pos of 4 corners*
0 Add a 4 corners polygon primitive as box body*
4,1,4,$2,$3,$4,$5,$6,$7,$8,$9,$2,$3,0*
0 Add four circle primitives for the rounded corners*
1,1,$1+$1,$2,$3*
1,1,$1+$1,$4,$5*
1,1,$1+$1,$6,$7*
1,1,$1+$1,$8,$9*
0 Add four rect primitives between the rounded corners*
20,1,$1+$1,$2,$3,$4,$5,0*
20,1,$1+$1,$4,$5,$6,$7,0*
20,1,$1+$1,$6,$7,$8,$9,0*
20,1,$1+$1,$8,$9,$2,$3,0*%
G04 Aperture macros list end*
G04 #@! TA.AperFunction,Profile*
%ADD10C,0.200000*%
G04 #@! TD*
G04 #@! TA.AperFunction,Profile*
%ADD11C,0.127000*%
G04 #@! TD*
G04 #@! TA.AperFunction,SMDPad,CuDef*
%ADD12R,0.965200X0.762000*%
G04 #@! TD*
G04 #@! TA.AperFunction,SMDPad,CuDef*
%ADD13R,0.762000X0.965200*%
G04 #@! TD*
G04 #@! TA.AperFunction,ComponentPad*
%ADD14R,1.300000X1.300000*%
G04 #@! TD*
G04 #@! TA.AperFunction,ComponentPad*
%ADD15C,1.300000*%
G04 #@! TD*
G04 #@! TA.AperFunction,ComponentPad*
%ADD16RoundRect,0.250000X0.600000X0.725000X-0.600000X0.725000X-0.600000X-0.725000X0.600000X-0.725000X0*%
G04 #@! TD*
G04 #@! TA.AperFunction,ComponentPad*
%ADD17O,1.700000X1.950000*%
G04 #@! TD*
G04 #@! TA.AperFunction,SMDPad,CuDef*
%ADD18R,0.900000X0.800000*%
G04 #@! TD*
G04 #@! TA.AperFunction,ComponentPad*
%ADD19C,1.700000*%
G04 #@! TD*
G04 #@! TA.AperFunction,ViaPad*
%ADD20C,0.800000*%
G04 #@! TD*
G04 #@! TA.AperFunction,Conductor*
%ADD21C,0.250000*%
G04 #@! TD*
G04 #@! TA.AperFunction,Conductor*
%ADD22C,0.500000*%
G04 #@! TD*
G04 #@! TA.AperFunction,Conductor*
%ADD23C,1.000000*%
G04 #@! TD*
G04 APERTURE END LIST*
D10*
X183499999Y-68500000D02*
G75*
G03*
X181499999Y-66500000I-1999999J1D01*
G01*
X143500000Y-66500000D02*
X181499999Y-66500000D01*
X181499999Y-93800000D02*
X143500000Y-93800000D01*
X163499998Y-91800000D02*
G75*
G03*
X163499998Y-91800000I-999999J0D01*
G01*
X143500000Y-66500000D02*
G75*
G03*
X141500000Y-68500000I-1J-1999999D01*
G01*
X141500000Y-91800000D02*
X141500000Y-68500000D01*
X183499999Y-68500000D02*
X183499999Y-91800000D01*
X181499999Y-93800000D02*
G75*
G03*
X183499999Y-91800000I1J1999999D01*
G01*
X163499999Y-68500000D02*
G75*
G03*
X163499999Y-68500000I-999999J0D01*
G01*
X141500000Y-91800000D02*
G75*
G03*
X143500000Y-93800000I1999999J-1D01*
G01*
D11*
G04 #@! TO.C,U$1*
X179577500Y-75525000D02*
X166117500Y-75525000D01*
X166077500Y-84725000D02*
X179577500Y-84725000D01*
X179577500Y-84725000D02*
X179577500Y-75525000D01*
X166117500Y-75525000D02*
X166077500Y-84725000D01*
G04 #@! TD*
D12*
G04 #@! TO.P,C3,1,1*
G04 #@! TO.N,Net-(C3-Pad1)*
X181571500Y-75377800D03*
G04 #@! TO.P,C3,2,2*
G04 #@! TO.N,Net-(C3-Pad2)*
X181571500Y-73803000D03*
G04 #@! TD*
D13*
G04 #@! TO.P,C8,1,1*
G04 #@! TO.N,GND*
X176694700Y-91075000D03*
G04 #@! TO.P,C8,2,2*
G04 #@! TO.N,+3V3*
X178269500Y-91075000D03*
G04 #@! TD*
D12*
G04 #@! TO.P,C1,1,1*
G04 #@! TO.N,GND*
X175475500Y-68977000D03*
G04 #@! TO.P,C1,2,2*
G04 #@! TO.N,+3V3*
X175475500Y-70551800D03*
G04 #@! TD*
D13*
G04 #@! TO.P,C4,1,1*
G04 #@! TO.N,GND*
X169125500Y-88535000D03*
G04 #@! TO.P,C4,2,2*
G04 #@! TO.N,+3V3*
X167550700Y-88535000D03*
G04 #@! TD*
G04 #@! TO.P,C7,1,1*
G04 #@! TO.N,GND*
X172173500Y-88535000D03*
G04 #@! TO.P,C7,2,2*
G04 #@! TO.N,/REFA*
X173748300Y-88535000D03*
G04 #@! TD*
D14*
G04 #@! TO.P,U$1,P$1,1*
G04 #@! TO.N,Net-(C3-Pad2)*
X179077500Y-73825000D03*
D15*
G04 #@! TO.P,U$1,P$2,2*
G04 #@! TO.N,/LSR_NEN*
X177297500Y-73825000D03*
G04 #@! TO.P,U$1,P$3,3*
G04 #@! TO.N,/SS*
X175517500Y-73825000D03*
G04 #@! TO.P,U$1,P$4,4*
G04 #@! TO.N,/MISO*
X173737500Y-73825000D03*
G04 #@! TO.P,U$1,P$5,5*
G04 #@! TO.N,/SCLK*
X171957500Y-73825000D03*
G04 #@! TO.P,U$1,P$6,6*
G04 #@! TO.N,/MOSI*
X170177500Y-73825000D03*
G04 #@! TO.P,U$1,P$7,7*
G04 #@! TO.N,/MOTION*
X168397500Y-73825000D03*
G04 #@! TO.P,U$1,P$8,8*
G04 #@! TO.N,Net-(C3-Pad1)*
X166617500Y-73825000D03*
G04 #@! TO.P,U$1,P$9,9*
G04 #@! TO.N,+3V3*
X166617500Y-86425000D03*
G04 #@! TO.P,U$1,P$10,10*
X168397500Y-86425000D03*
G04 #@! TO.P,U$1,P$11,11*
G04 #@! TO.N,GND*
X170177500Y-86425000D03*
G04 #@! TO.P,U$1,P$12,12*
G04 #@! TO.N,+3V3*
X171957500Y-86425000D03*
G04 #@! TO.P,U$1,P$13,13*
G04 #@! TO.N,/REFA*
X173737500Y-86425000D03*
G04 #@! TO.P,U$1,P$14,14*
G04 #@! TO.N,GND*
X175517500Y-86425000D03*
G04 #@! TO.P,U$1,P$15,15*
G04 #@! TO.N,+3V3*
X177297500Y-86425000D03*
G04 #@! TO.P,U$1,P$16,16*
G04 #@! TO.N,Net-(C3-Pad1)*
X179077500Y-86425000D03*
G04 #@! TD*
D12*
G04 #@! TO.P,C2,1,1*
G04 #@! TO.N,GND*
X172935500Y-68977000D03*
G04 #@! TO.P,C2,2,2*
G04 #@! TO.N,+3V3*
X172935500Y-70551800D03*
G04 #@! TD*
D13*
G04 #@! TO.P,C5,1,1*
G04 #@! TO.N,GND*
X169125500Y-91075000D03*
G04 #@! TO.P,C5,2,2*
G04 #@! TO.N,+3V3*
X167550700Y-91075000D03*
G04 #@! TD*
G04 #@! TO.P,C6,1,1*
G04 #@! TO.N,GND*
X176694700Y-88535000D03*
G04 #@! TO.P,C6,2,2*
G04 #@! TO.N,+3V3*
X178269500Y-88535000D03*
G04 #@! TD*
G04 #@! TO.P,C9,1,1*
G04 #@! TO.N,GND*
X172173500Y-91075000D03*
G04 #@! TO.P,C9,2,2*
G04 #@! TO.N,/REFA*
X173748300Y-91075000D03*
G04 #@! TD*
D16*
G04 #@! TO.P,J1,1,Pin_1*
G04 #@! TO.N,+5V*
X154865000Y-69194000D03*
D17*
G04 #@! TO.P,J1,2,Pin_2*
G04 #@! TO.N,TX*
X152365000Y-69194000D03*
G04 #@! TO.P,J1,3,Pin_3*
G04 #@! TO.N,RX*
X149865000Y-69194000D03*
G04 #@! TO.P,J1,4,Pin_4*
G04 #@! TO.N,GND*
X147365000Y-69194000D03*
G04 #@! TD*
D18*
G04 #@! TO.P,Q1,1,G*
G04 #@! TO.N,/LSR_NEN*
X178539500Y-68789000D03*
G04 #@! TO.P,Q1,2,S*
G04 #@! TO.N,+3V3*
X178539500Y-70689000D03*
G04 #@! TO.P,Q1,3,D*
G04 #@! TO.N,Net-(C3-Pad2)*
X180539500Y-69739000D03*
G04 #@! TD*
D19*
G04 #@! TO.P,U1,1,PA02_A0_D0*
G04 #@! TO.N,/MOTION*
X158711500Y-90567000D03*
G04 #@! TO.P,U1,2,PA4_A1_D1*
G04 #@! TO.N,unconnected-(U1-Pad2)*
X158711500Y-88027000D03*
G04 #@! TO.P,U1,3,PA10_A2_D2*
G04 #@! TO.N,unconnected-(U1-Pad3)*
X158711500Y-85487000D03*
G04 #@! TO.P,U1,4,PA11_A3_D3*
G04 #@! TO.N,/SS*
X158711500Y-82947000D03*
G04 #@! TO.P,U1,5,PA8_A4_D4_SDA*
G04 #@! TO.N,unconnected-(U1-Pad5)*
X158711500Y-80407000D03*
G04 #@! TO.P,U1,6,PA9_A5_D5_SCL*
G04 #@! TO.N,unconnected-(U1-Pad6)*
X158711500Y-77867000D03*
G04 #@! TO.P,U1,7,PB08_A6_D6_TX*
G04 #@! TO.N,TX*
X158711500Y-75327000D03*
G04 #@! TO.P,U1,8,PB09_A7_D7_RX*
G04 #@! TO.N,RX*
X143471500Y-75327000D03*
G04 #@! TO.P,U1,9,PA7_A8_D8_SCK*
G04 #@! TO.N,/SCLK*
X143471500Y-77867000D03*
G04 #@! TO.P,U1,10,PA5_A9_D9_MISO*
G04 #@! TO.N,/MISO*
X143471500Y-80407000D03*
G04 #@! TO.P,U1,11,PA6_A10_D10_MOSI*
G04 #@! TO.N,/MOSI*
X143471500Y-82947000D03*
G04 #@! TO.P,U1,12,3V3*
G04 #@! TO.N,+3V3*
X143471500Y-85487000D03*
G04 #@! TO.P,U1,13,GND*
G04 #@! TO.N,GND*
X143471500Y-88027000D03*
G04 #@! TO.P,U1,14,5V*
G04 #@! TO.N,+5V*
X143471500Y-90567000D03*
G04 #@! TD*
D20*
G04 #@! TO.N,/SS*
X164045499Y-76343000D03*
G04 #@! TO.N,/MOTION*
X164807499Y-77105000D03*
G04 #@! TO.N,GND*
X158457499Y-70755000D03*
X168617499Y-68215000D03*
X172173500Y-91075000D03*
X172935500Y-68977000D03*
X171157499Y-70755000D03*
X168617499Y-69485000D03*
X175240500Y-91075000D03*
X158457499Y-68215000D03*
X166077499Y-70755000D03*
X166077499Y-68215000D03*
X163537499Y-70755000D03*
X171157499Y-69485000D03*
X170668500Y-88535000D03*
X175240500Y-88535000D03*
X175602499Y-68977000D03*
X166077499Y-69485000D03*
X169125499Y-88535000D03*
X160997499Y-69485000D03*
X172173499Y-88535000D03*
X170668500Y-91075000D03*
X176694700Y-88535000D03*
X158457499Y-69485000D03*
X169125500Y-91075000D03*
X168617499Y-70755000D03*
X160997499Y-68215000D03*
X171157499Y-68215000D03*
X176745499Y-91075000D03*
X160997499Y-70755000D03*
G04 #@! TO.N,Net-(C3-Pad1)*
X181571000Y-75377800D03*
G04 #@! TO.N,+3V3*
X176176000Y-93168700D03*
X172935000Y-70551800D03*
G04 #@! TD*
D21*
G04 #@! TO.N,/LSR_NEN*
X179314000Y-71808500D02*
X179314000Y-69563500D01*
X178539500Y-68789000D02*
X178539300Y-68789200D01*
X178539300Y-68789200D02*
X178539000Y-68789000D01*
X177297300Y-73824800D02*
X177297300Y-73824700D01*
X177297000Y-73825000D02*
X177297300Y-73824700D01*
X177297300Y-73824700D02*
X179314000Y-71808500D01*
X177297500Y-73825000D02*
X177297300Y-73824800D01*
X179314000Y-69563500D02*
X178539300Y-68789200D01*
D22*
G04 #@! TO.N,/REFA*
X173748000Y-89917500D02*
X173748000Y-88176600D01*
X173748000Y-86435800D02*
X173737300Y-86425200D01*
X173737300Y-86425200D02*
X173737000Y-86425000D01*
X173748000Y-88176600D02*
X173748000Y-86435800D01*
D21*
X173748300Y-89917800D02*
X173748300Y-91075000D01*
X173748000Y-89917500D02*
X173748300Y-89917800D01*
D22*
X173748000Y-91075000D02*
X173748000Y-89917500D01*
D21*
X173748300Y-88176900D02*
X173748300Y-88535000D01*
X173748000Y-88176600D02*
X173748300Y-88176900D01*
X173737500Y-86425000D02*
X173737300Y-86425200D01*
G04 #@! TO.N,/MISO*
X172295800Y-72383300D02*
X173737500Y-73825000D01*
X142251900Y-77349600D02*
X143004500Y-76597000D01*
X144104600Y-76597000D02*
X148318300Y-72383300D01*
X142251900Y-79187400D02*
X142251900Y-77349600D01*
X143471500Y-80407000D02*
X142251900Y-79187400D01*
X148318300Y-72383300D02*
X172295800Y-72383300D01*
X143004500Y-76597000D02*
X144104600Y-76597000D01*
G04 #@! TO.N,/MOSI*
X162465000Y-76597000D02*
X163902700Y-75159300D01*
X168843200Y-75159300D02*
X170177500Y-73825000D01*
X163902700Y-75159300D02*
X168843200Y-75159300D01*
X143471500Y-82947000D02*
X149821500Y-76597000D01*
X149821500Y-76597000D02*
X162465000Y-76597000D01*
G04 #@! TO.N,/SS*
X164045499Y-77613001D02*
X158711500Y-82947000D01*
X164045499Y-76343000D02*
X164045499Y-77613001D01*
G04 #@! TO.N,/SCLK*
X170966200Y-72833700D02*
X171957500Y-73825000D01*
X148504800Y-72833700D02*
X170966200Y-72833700D01*
X143471500Y-77867000D02*
X148504800Y-72833700D01*
G04 #@! TO.N,/MOTION*
X164807499Y-84471001D02*
X158711500Y-90567000D01*
X164807499Y-77105000D02*
X164807499Y-84471001D01*
G04 #@! TO.N,GND*
X172935500Y-68977000D02*
X172935500Y-69330100D01*
X169125500Y-91075000D02*
X169831800Y-91075000D01*
X172173500Y-91075000D02*
X171820400Y-91075000D01*
X176694700Y-88888100D02*
X176341600Y-88535000D01*
X172173499Y-88535000D02*
X171820400Y-88535000D01*
X172173500Y-88535000D02*
X172173499Y-88535000D01*
X176694700Y-88535000D02*
X176341600Y-88535000D01*
G04 #@! TO.N,Net-(C3-Pad1)*
X181571500Y-75377800D02*
X181571000Y-75377800D01*
D23*
G04 #@! TO.N,Net-(C3-Pad2)*
X179077000Y-73825000D02*
X179077500Y-73825000D01*
X180539300Y-69739200D02*
X180539000Y-69739000D01*
X181560000Y-73814000D02*
X181571000Y-73803000D01*
X181571000Y-73803000D02*
X181571000Y-70771000D01*
D21*
X181560000Y-73814000D02*
X181560500Y-73814000D01*
X181560500Y-73814000D02*
X181571500Y-73803000D01*
D23*
X181571000Y-70771000D02*
X180539300Y-69739200D01*
X181549000Y-73825000D02*
X181560000Y-73814000D01*
D21*
X180539500Y-69739000D02*
X180539300Y-69739200D01*
D23*
X179077500Y-73825000D02*
X181549000Y-73825000D01*
D21*
G04 #@! TO.N,RX*
X143471500Y-75327000D02*
X149604500Y-69194000D01*
X149604500Y-69194000D02*
X149865000Y-69194000D01*
D23*
G04 #@! TO.N,+3V3*
X172935500Y-70551800D02*
X175475500Y-70551800D01*
D22*
X167551000Y-91075000D02*
X167551000Y-88986500D01*
D21*
X177297500Y-86425500D02*
X177297500Y-86425000D01*
D22*
X151153000Y-93168700D02*
X165457000Y-93168700D01*
D21*
X178269500Y-91075000D02*
X178269000Y-91075000D01*
D22*
X165457000Y-93168700D02*
X176176000Y-93168700D01*
X177297500Y-86425500D02*
X177297000Y-86425000D01*
D21*
X167550700Y-91075000D02*
X167550800Y-91075100D01*
D22*
X178269000Y-87397000D02*
X177297500Y-86425500D01*
X170858000Y-85325500D02*
X171957000Y-86425000D01*
X167550800Y-91075100D02*
X167551000Y-91075000D01*
X165457000Y-93168700D02*
X167550800Y-91075100D01*
X167551000Y-87271800D02*
X168397000Y-86425000D01*
D21*
X168397500Y-86425000D02*
X168397300Y-86424800D01*
D22*
X167551000Y-87271800D02*
X167464000Y-87271800D01*
D21*
X178539500Y-70689000D02*
X178489000Y-70689000D01*
X167550700Y-88986200D02*
X167550700Y-88535000D01*
D22*
X166617300Y-86425200D02*
X166617000Y-86425000D01*
X167464000Y-87271800D02*
X166617300Y-86425200D01*
D21*
X166617500Y-86425000D02*
X166617300Y-86425200D01*
D23*
X175475500Y-70551800D02*
X178352000Y-70551800D01*
D22*
X167551000Y-88986500D02*
X167551000Y-87271800D01*
D21*
X143471500Y-85487000D02*
X143471300Y-85487200D01*
X171957500Y-86425000D02*
X171957000Y-86425000D01*
D22*
X143471000Y-85487000D02*
X143471300Y-85487200D01*
D23*
X172935000Y-70551800D02*
X172935500Y-70551800D01*
D22*
X178269000Y-91075000D02*
X178269000Y-88535000D01*
X143471300Y-85487200D02*
X151153000Y-93168700D01*
X178269000Y-88535000D02*
X178269000Y-87397000D01*
X176176000Y-93168700D02*
X178269000Y-91075000D01*
X168397000Y-86425000D02*
X168397300Y-86424800D01*
X169497000Y-85325500D02*
X170858000Y-85325500D01*
X168397300Y-86424800D02*
X169497000Y-85325500D01*
D23*
X178352000Y-70551800D02*
X178489000Y-70689000D01*
D21*
X178269500Y-88535000D02*
X178269000Y-88535000D01*
X167551000Y-88986500D02*
X167550700Y-88986200D01*
G04 #@! TD*
G04 #@! TA.AperFunction,Conductor*
G04 #@! TO.N,GND*
G36*
X142216512Y-86043888D02*
G01*
X142250743Y-86091709D01*
X142254766Y-86101616D01*
X142371487Y-86292088D01*
X142517750Y-86460938D01*
X142689626Y-86603632D01*
X142695400Y-86607006D01*
X142763455Y-86646774D01*
X142812179Y-86698412D01*
X142825250Y-86768195D01*
X142798519Y-86833967D01*
X142758062Y-86867327D01*
X142749960Y-86871544D01*
X142741234Y-86877039D01*
X142721177Y-86892099D01*
X142712723Y-86903427D01*
X142719468Y-86915758D01*
X144581974Y-88778264D01*
X144593984Y-88784823D01*
X144605723Y-88775855D01*
X144636504Y-88733019D01*
X144641815Y-88724180D01*
X144736170Y-88533267D01*
X144739969Y-88523672D01*
X144801876Y-88319915D01*
X144804055Y-88309834D01*
X144819247Y-88194440D01*
X144847969Y-88129513D01*
X144907234Y-88090421D01*
X144978226Y-88089576D01*
X145033262Y-88121789D01*
X146834361Y-89922840D01*
X149988505Y-93076903D01*
X150022531Y-93139215D01*
X150017467Y-93210031D01*
X149974921Y-93266867D01*
X149908401Y-93291679D01*
X149899411Y-93292000D01*
X143549328Y-93292000D01*
X143529943Y-93290500D01*
X143529661Y-93290456D01*
X143527117Y-93290060D01*
X143515141Y-93288195D01*
X143515139Y-93288195D01*
X143506270Y-93286814D01*
X143497368Y-93287978D01*
X143497366Y-93287978D01*
X143491041Y-93288805D01*
X143465718Y-93289548D01*
X143296657Y-93277457D01*
X143278863Y-93274899D01*
X143241940Y-93266867D01*
X143088460Y-93233479D01*
X143071212Y-93228414D01*
X142888642Y-93160318D01*
X142872290Y-93152851D01*
X142806980Y-93117190D01*
X142701266Y-93059466D01*
X142686152Y-93049752D01*
X142530159Y-92932977D01*
X142516572Y-92921204D01*
X142378796Y-92783428D01*
X142367023Y-92769842D01*
X142307984Y-92690975D01*
X142250248Y-92613848D01*
X142240531Y-92598729D01*
X142147149Y-92427710D01*
X142139682Y-92411358D01*
X142071586Y-92228788D01*
X142066520Y-92211538D01*
X142025101Y-92021137D01*
X142022543Y-92003342D01*
X142017463Y-91932308D01*
X142010959Y-91841369D01*
X142011703Y-91823467D01*
X142011805Y-91815142D01*
X142013186Y-91806270D01*
X142011888Y-91796338D01*
X142009064Y-91774749D01*
X142008000Y-91758411D01*
X142008000Y-91219112D01*
X142028002Y-91150991D01*
X142081658Y-91104498D01*
X142151932Y-91094394D01*
X142216512Y-91123888D01*
X142250743Y-91171709D01*
X142254766Y-91181616D01*
X142257465Y-91186020D01*
X142356184Y-91347115D01*
X142371487Y-91372088D01*
X142517750Y-91540938D01*
X142689626Y-91683632D01*
X142882500Y-91796338D01*
X142887325Y-91798180D01*
X142887326Y-91798181D01*
X142953544Y-91823467D01*
X143091192Y-91876030D01*
X143096260Y-91877061D01*
X143096263Y-91877062D01*
X143203517Y-91898883D01*
X143310097Y-91920567D01*
X143315272Y-91920757D01*
X143315274Y-91920757D01*
X143528173Y-91928564D01*
X143528177Y-91928564D01*
X143533337Y-91928753D01*
X143538457Y-91928097D01*
X143538459Y-91928097D01*
X143749788Y-91901025D01*
X143749789Y-91901025D01*
X143754916Y-91900368D01*
X143759866Y-91898883D01*
X143963929Y-91837661D01*
X143963934Y-91837659D01*
X143968884Y-91836174D01*
X144169494Y-91737896D01*
X144351360Y-91608173D01*
X144357237Y-91602317D01*
X144505935Y-91454137D01*
X144509596Y-91450489D01*
X144569094Y-91367689D01*
X144636935Y-91273277D01*
X144639953Y-91269077D01*
X144688075Y-91171710D01*
X144736636Y-91073453D01*
X144736637Y-91073451D01*
X144738930Y-91068811D01*
X144803870Y-90855069D01*
X144833029Y-90633590D01*
X144834352Y-90579445D01*
X144834574Y-90570365D01*
X144834574Y-90570361D01*
X144834656Y-90567000D01*
X144816352Y-90344361D01*
X144761931Y-90127702D01*
X144672854Y-89922840D01*
X144551514Y-89735277D01*
X144401170Y-89570051D01*
X144397119Y-89566852D01*
X144397115Y-89566848D01*
X144229914Y-89434800D01*
X144229910Y-89434798D01*
X144225859Y-89431598D01*
X144184069Y-89408529D01*
X144134098Y-89358097D01*
X144119326Y-89288654D01*
X144144442Y-89222248D01*
X144171793Y-89195642D01*
X144220747Y-89160723D01*
X144229148Y-89150023D01*
X144222160Y-89136870D01*
X143484312Y-88399022D01*
X143470368Y-88391408D01*
X143468535Y-88391539D01*
X143461920Y-88395790D01*
X142718237Y-89139473D01*
X142711477Y-89151853D01*
X142716758Y-89158907D01*
X142763469Y-89186203D01*
X142812193Y-89237841D01*
X142825264Y-89307624D01*
X142798533Y-89373396D01*
X142758084Y-89406752D01*
X142745107Y-89413507D01*
X142740974Y-89416610D01*
X142740971Y-89416612D01*
X142587720Y-89531676D01*
X142566465Y-89547635D01*
X142412129Y-89709138D01*
X142286243Y-89893680D01*
X142248288Y-89975448D01*
X142201464Y-90028814D01*
X142133220Y-90048395D01*
X142065225Y-90027971D01*
X142019065Y-89974029D01*
X142008000Y-89922397D01*
X142008000Y-88677783D01*
X142028002Y-88609662D01*
X142081658Y-88563169D01*
X142151932Y-88553065D01*
X142216512Y-88582559D01*
X142250743Y-88630380D01*
X142253268Y-88636600D01*
X142257913Y-88645794D01*
X142337960Y-88776420D01*
X142348416Y-88785880D01*
X142357194Y-88782096D01*
X143099478Y-88039812D01*
X143107092Y-88025868D01*
X143106961Y-88024035D01*
X143102710Y-88017420D01*
X142361349Y-87276059D01*
X142349813Y-87269759D01*
X142337531Y-87279382D01*
X142289589Y-87349662D01*
X142284504Y-87358613D01*
X142248288Y-87436635D01*
X142201464Y-87490002D01*
X142133221Y-87509583D01*
X142065225Y-87489160D01*
X142019065Y-87435217D01*
X142008000Y-87383585D01*
X142008000Y-86139112D01*
X142028002Y-86070991D01*
X142081658Y-86024498D01*
X142151932Y-86014394D01*
X142216512Y-86043888D01*
G37*
G04 #@! TD.AperFunction*
G04 #@! TA.AperFunction,Conductor*
G36*
X161669952Y-67028002D02*
G01*
X161716445Y-67081658D01*
X161726549Y-67151932D01*
X161697055Y-67216512D01*
X161667666Y-67241432D01*
X161610880Y-67276231D01*
X161430386Y-67430386D01*
X161276231Y-67610880D01*
X161152208Y-67813266D01*
X161150315Y-67817836D01*
X161150314Y-67817838D01*
X161077076Y-67994652D01*
X161061373Y-68032562D01*
X161048063Y-68088001D01*
X161007116Y-68258555D01*
X161007115Y-68258561D01*
X161005961Y-68263368D01*
X160987811Y-68493989D01*
X160987338Y-68500000D01*
X161005961Y-68736632D01*
X161007115Y-68741439D01*
X161007116Y-68741445D01*
X161033594Y-68851732D01*
X161061373Y-68967438D01*
X161063266Y-68972009D01*
X161063267Y-68972011D01*
X161069984Y-68988226D01*
X161152208Y-69186734D01*
X161276231Y-69389120D01*
X161430386Y-69569614D01*
X161610880Y-69723769D01*
X161813266Y-69847792D01*
X161817836Y-69849685D01*
X161817838Y-69849686D01*
X162017777Y-69932503D01*
X162032562Y-69938627D01*
X162113661Y-69958097D01*
X162258555Y-69992884D01*
X162258561Y-69992885D01*
X162263368Y-69994039D01*
X162500000Y-70012662D01*
X162736632Y-69994039D01*
X162741439Y-69992885D01*
X162741445Y-69992884D01*
X162886339Y-69958097D01*
X162967438Y-69938627D01*
X162982223Y-69932503D01*
X163182162Y-69849686D01*
X163182164Y-69849685D01*
X163186734Y-69847792D01*
X163389120Y-69723769D01*
X163569614Y-69569614D01*
X163723769Y-69389120D01*
X163847792Y-69186734D01*
X163930017Y-68988226D01*
X163936733Y-68972011D01*
X163936734Y-68972009D01*
X163938627Y-68967438D01*
X163966406Y-68851732D01*
X163992884Y-68741445D01*
X163992885Y-68741439D01*
X163994039Y-68736632D01*
X163996537Y-68704885D01*
X171944900Y-68704885D01*
X171949375Y-68720124D01*
X171950765Y-68721329D01*
X171958448Y-68723000D01*
X172663385Y-68723000D01*
X172678624Y-68718525D01*
X172679829Y-68717135D01*
X172681500Y-68709452D01*
X172681500Y-68704885D01*
X173189500Y-68704885D01*
X173193975Y-68720124D01*
X173195365Y-68721329D01*
X173203048Y-68723000D01*
X173907984Y-68723000D01*
X173923223Y-68718525D01*
X173924428Y-68717135D01*
X173926099Y-68709452D01*
X173926099Y-68704885D01*
X174484900Y-68704885D01*
X174489375Y-68720124D01*
X174490765Y-68721329D01*
X174498448Y-68723000D01*
X175203385Y-68723000D01*
X175218624Y-68718525D01*
X175219829Y-68717135D01*
X175221500Y-68709452D01*
X175221500Y-68704885D01*
X175729500Y-68704885D01*
X175733975Y-68720124D01*
X175735365Y-68721329D01*
X175743048Y-68723000D01*
X176447984Y-68723000D01*
X176463223Y-68718525D01*
X176464428Y-68717135D01*
X176466099Y-68709452D01*
X176466099Y-68551331D01*
X176465729Y-68544510D01*
X176460205Y-68493648D01*
X176456579Y-68478396D01*
X176411424Y-68357946D01*
X176402886Y-68342351D01*
X176326385Y-68240276D01*
X176313824Y-68227715D01*
X176211749Y-68151214D01*
X176196154Y-68142676D01*
X176075706Y-68097522D01*
X176060451Y-68093895D01*
X176009586Y-68088369D01*
X176002772Y-68088000D01*
X175747615Y-68088000D01*
X175732376Y-68092475D01*
X175731171Y-68093865D01*
X175729500Y-68101548D01*
X175729500Y-68704885D01*
X175221500Y-68704885D01*
X175221500Y-68106116D01*
X175217025Y-68090877D01*
X175215635Y-68089672D01*
X175207952Y-68088001D01*
X174948231Y-68088001D01*
X174941410Y-68088371D01*
X174890548Y-68093895D01*
X174875296Y-68097521D01*
X174754846Y-68142676D01*
X174739251Y-68151214D01*
X174637176Y-68227715D01*
X174624615Y-68240276D01*
X174548114Y-68342351D01*
X174539576Y-68357946D01*
X174494422Y-68478394D01*
X174490795Y-68493649D01*
X174485269Y-68544514D01*
X174484900Y-68551328D01*
X174484900Y-68704885D01*
X173926099Y-68704885D01*
X173926099Y-68551331D01*
X173925729Y-68544510D01*
X173920205Y-68493648D01*
X173916579Y-68478396D01*
X173871424Y-68357946D01*
X173862886Y-68342351D01*
X173786385Y-68240276D01*
X173773824Y-68227715D01*
X173671749Y-68151214D01*
X173656154Y-68142676D01*
X173535706Y-68097522D01*
X173520451Y-68093895D01*
X173469586Y-68088369D01*
X173462772Y-68088000D01*
X173207615Y-68088000D01*
X173192376Y-68092475D01*
X173191171Y-68093865D01*
X173189500Y-68101548D01*
X173189500Y-68704885D01*
X172681500Y-68704885D01*
X172681500Y-68106116D01*
X172677025Y-68090877D01*
X172675635Y-68089672D01*
X172667952Y-68088001D01*
X172408231Y-68088001D01*
X172401410Y-68088371D01*
X172350548Y-68093895D01*
X172335296Y-68097521D01*
X172214846Y-68142676D01*
X172199251Y-68151214D01*
X172097176Y-68227715D01*
X172084615Y-68240276D01*
X172008114Y-68342351D01*
X171999576Y-68357946D01*
X171954422Y-68478394D01*
X171950795Y-68493649D01*
X171945269Y-68544514D01*
X171944900Y-68551328D01*
X171944900Y-68704885D01*
X163996537Y-68704885D01*
X164012662Y-68500000D01*
X163994039Y-68263368D01*
X163992885Y-68258561D01*
X163992884Y-68258555D01*
X163951937Y-68088001D01*
X163938627Y-68032562D01*
X163922924Y-67994652D01*
X163849686Y-67817838D01*
X163849685Y-67817836D01*
X163847792Y-67813266D01*
X163723769Y-67610880D01*
X163569614Y-67430386D01*
X163389120Y-67276231D01*
X163332334Y-67241432D01*
X163284702Y-67188784D01*
X163273096Y-67118743D01*
X163301200Y-67053545D01*
X163360090Y-67013892D01*
X163398169Y-67008000D01*
X181450671Y-67008000D01*
X181470055Y-67009500D01*
X181472283Y-67009847D01*
X181484858Y-67011805D01*
X181484860Y-67011805D01*
X181493729Y-67013186D01*
X181502631Y-67012022D01*
X181502633Y-67012022D01*
X181508958Y-67011195D01*
X181534281Y-67010452D01*
X181698125Y-67022170D01*
X181703342Y-67022543D01*
X181721136Y-67025101D01*
X181911539Y-67066521D01*
X181928787Y-67071586D01*
X182111357Y-67139682D01*
X182127709Y-67147149D01*
X182136469Y-67151932D01*
X182298733Y-67240534D01*
X182313847Y-67250248D01*
X182423515Y-67332344D01*
X182469841Y-67367023D01*
X182483427Y-67378796D01*
X182621203Y-67516572D01*
X182632976Y-67530158D01*
X182749751Y-67686152D01*
X182759465Y-67701266D01*
X182800756Y-67776885D01*
X182852850Y-67872290D01*
X182860317Y-67888642D01*
X182928413Y-68071212D01*
X182933478Y-68088460D01*
X182955313Y-68188832D01*
X182974898Y-68278863D01*
X182977456Y-68296658D01*
X182989040Y-68458629D01*
X182988296Y-68476533D01*
X182988194Y-68484858D01*
X182986813Y-68493730D01*
X182987977Y-68502632D01*
X182987977Y-68502635D01*
X182990935Y-68525251D01*
X182991999Y-68541589D01*
X182991999Y-91750672D01*
X182990499Y-91770056D01*
X182986813Y-91793730D01*
X182987977Y-91802632D01*
X182987977Y-91802634D01*
X182988804Y-91808959D01*
X182989547Y-91834282D01*
X182982804Y-91928564D01*
X182977456Y-92003343D01*
X182974898Y-92021137D01*
X182933479Y-92211538D01*
X182928413Y-92228788D01*
X182860317Y-92411358D01*
X182852850Y-92427710D01*
X182759468Y-92598729D01*
X182749751Y-92613848D01*
X182692015Y-92690975D01*
X182632976Y-92769842D01*
X182621203Y-92783428D01*
X182483427Y-92921204D01*
X182469840Y-92932977D01*
X182313847Y-93049752D01*
X182298733Y-93059466D01*
X182193019Y-93117190D01*
X182127709Y-93152851D01*
X182111357Y-93160318D01*
X181928787Y-93228414D01*
X181911539Y-93233479D01*
X181758059Y-93266867D01*
X181721136Y-93274899D01*
X181703341Y-93277457D01*
X181654442Y-93280954D01*
X181541368Y-93289041D01*
X181523466Y-93288297D01*
X181515141Y-93288195D01*
X181506269Y-93286814D01*
X181497367Y-93287978D01*
X181497364Y-93287978D01*
X181474748Y-93290936D01*
X181458410Y-93292000D01*
X177429362Y-93292000D01*
X177361241Y-93271998D01*
X177314748Y-93218342D01*
X177304644Y-93148068D01*
X177334138Y-93083488D01*
X177340252Y-93076919D01*
X177367413Y-93049749D01*
X178313827Y-92103019D01*
X178376132Y-92068984D01*
X178402936Y-92066100D01*
X178698634Y-92066100D01*
X178760816Y-92059345D01*
X178897205Y-92008215D01*
X179013761Y-91920861D01*
X179101115Y-91804305D01*
X179152245Y-91667916D01*
X179159000Y-91605734D01*
X179159000Y-90544266D01*
X179152245Y-90482084D01*
X179101115Y-90345695D01*
X179071336Y-90305961D01*
X179052674Y-90281060D01*
X179027826Y-90214553D01*
X179027500Y-90205495D01*
X179027500Y-89404505D01*
X179047502Y-89336384D01*
X179052674Y-89328940D01*
X179095729Y-89271492D01*
X179095730Y-89271490D01*
X179101115Y-89264305D01*
X179152245Y-89127916D01*
X179159000Y-89065734D01*
X179159000Y-88004266D01*
X179152245Y-87942084D01*
X179101115Y-87805695D01*
X179084107Y-87783001D01*
X179059260Y-87716498D01*
X179074312Y-87647115D01*
X179124486Y-87596885D01*
X179166853Y-87582742D01*
X179208268Y-87576737D01*
X179343390Y-87557145D01*
X179343394Y-87557144D01*
X179349105Y-87556316D01*
X179550723Y-87487876D01*
X179736493Y-87383840D01*
X179900193Y-87247693D01*
X180036340Y-87083993D01*
X180140376Y-86898223D01*
X180208816Y-86696605D01*
X180216042Y-86646774D01*
X180238837Y-86489561D01*
X180238837Y-86489559D01*
X180239369Y-86485891D01*
X180240963Y-86425000D01*
X180221481Y-86212976D01*
X180205098Y-86154885D01*
X180165254Y-86013611D01*
X180165253Y-86013609D01*
X180163686Y-86008052D01*
X180154198Y-85988811D01*
X180072070Y-85822273D01*
X180069515Y-85817092D01*
X180041835Y-85780023D01*
X179945574Y-85651114D01*
X179942122Y-85646491D01*
X179785771Y-85501963D01*
X179780885Y-85498880D01*
X179780880Y-85498876D01*
X179692313Y-85442995D01*
X179645374Y-85389728D01*
X179634685Y-85319541D01*
X179663639Y-85254717D01*
X179720775Y-85217705D01*
X179721545Y-85217595D01*
X179744895Y-85206979D01*
X179762407Y-85200536D01*
X179778437Y-85195954D01*
X179787065Y-85193488D01*
X179812048Y-85177726D01*
X179827114Y-85169596D01*
X179854010Y-85157367D01*
X179873439Y-85140626D01*
X179888447Y-85129521D01*
X179902539Y-85120630D01*
X179910131Y-85115840D01*
X179929682Y-85093703D01*
X179941874Y-85081659D01*
X179957449Y-85068239D01*
X179957450Y-85068237D01*
X179964247Y-85062381D01*
X179969126Y-85054853D01*
X179969129Y-85054850D01*
X179978196Y-85040861D01*
X179989486Y-85025987D01*
X180000512Y-85013502D01*
X180006456Y-85006772D01*
X180019010Y-84980034D01*
X180027324Y-84965065D01*
X180043393Y-84940273D01*
X180050739Y-84915709D01*
X180057401Y-84898264D01*
X180064483Y-84883179D01*
X180068299Y-84875052D01*
X180072843Y-84845870D01*
X180076626Y-84829151D01*
X180082514Y-84809464D01*
X180082515Y-84809461D01*
X180085087Y-84800859D01*
X180085297Y-84766444D01*
X180085330Y-84765672D01*
X180085500Y-84764577D01*
X180085500Y-84733702D01*
X180085502Y-84732932D01*
X180085952Y-84659284D01*
X180085952Y-84659283D01*
X180085976Y-84655348D01*
X180085592Y-84654004D01*
X180085500Y-84652659D01*
X180085500Y-75533702D01*
X180085502Y-75532932D01*
X180085921Y-75464322D01*
X180085976Y-75455348D01*
X180083510Y-75446719D01*
X180083509Y-75446714D01*
X180077861Y-75426952D01*
X180074283Y-75410191D01*
X180071370Y-75389848D01*
X180071367Y-75389838D01*
X180070095Y-75380955D01*
X180059479Y-75357605D01*
X180053036Y-75340093D01*
X180048454Y-75324063D01*
X180045988Y-75315435D01*
X180030226Y-75290452D01*
X180022096Y-75275386D01*
X180009867Y-75248490D01*
X179993126Y-75229061D01*
X179982021Y-75214053D01*
X179973130Y-75199961D01*
X179968340Y-75192369D01*
X179946203Y-75172818D01*
X179934159Y-75160626D01*
X179920740Y-75145052D01*
X179920738Y-75145050D01*
X179919464Y-75143572D01*
X179919463Y-75143570D01*
X179914881Y-75138253D01*
X179915649Y-75137592D01*
X179881807Y-75084546D01*
X179882044Y-75013550D01*
X179920626Y-74953952D01*
X179958588Y-74931470D01*
X179965796Y-74928768D01*
X179965799Y-74928766D01*
X179974205Y-74925615D01*
X180063524Y-74858674D01*
X180130030Y-74833826D01*
X180139089Y-74833500D01*
X180454400Y-74833500D01*
X180522521Y-74853502D01*
X180569014Y-74907158D01*
X180580400Y-74959500D01*
X180580400Y-75806934D01*
X180587155Y-75869116D01*
X180638285Y-76005505D01*
X180725639Y-76122061D01*
X180842195Y-76209415D01*
X180978584Y-76260545D01*
X181040766Y-76267300D01*
X181372881Y-76267300D01*
X181399078Y-76270053D01*
X181469056Y-76284928D01*
X181469061Y-76284928D01*
X181475513Y-76286300D01*
X181666487Y-76286300D01*
X181672939Y-76284928D01*
X181672944Y-76284928D01*
X181742922Y-76270053D01*
X181769119Y-76267300D01*
X182102234Y-76267300D01*
X182164416Y-76260545D01*
X182300805Y-76209415D01*
X182417361Y-76122061D01*
X182504715Y-76005505D01*
X182555845Y-75869116D01*
X182562600Y-75806934D01*
X182562600Y-74948666D01*
X182555845Y-74886484D01*
X182504715Y-74750095D01*
X182441663Y-74665965D01*
X182416815Y-74599459D01*
X182431868Y-74530076D01*
X182441663Y-74514835D01*
X182466292Y-74481973D01*
X182504715Y-74430705D01*
X182555845Y-74294316D01*
X182562600Y-74232134D01*
X182562600Y-74021699D01*
X182564436Y-74003308D01*
X182564387Y-74003303D01*
X182567978Y-73967948D01*
X182573790Y-73910743D01*
X182573911Y-73909607D01*
X182579500Y-73859773D01*
X182579500Y-73856246D01*
X182579555Y-73855261D01*
X182580002Y-73849581D01*
X182584374Y-73806538D01*
X182580059Y-73760891D01*
X182579500Y-73749033D01*
X182579500Y-70832871D01*
X182580238Y-70819257D01*
X182583658Y-70787790D01*
X182583658Y-70787789D01*
X182584324Y-70781661D01*
X182579953Y-70731669D01*
X182579624Y-70726848D01*
X182579500Y-70724314D01*
X182579500Y-70721231D01*
X182575477Y-70680198D01*
X182575312Y-70678511D01*
X182575190Y-70677194D01*
X182567633Y-70590774D01*
X182567633Y-70590772D01*
X182567096Y-70584635D01*
X182565602Y-70579492D01*
X182565080Y-70574167D01*
X182562632Y-70566057D01*
X182538247Y-70485292D01*
X182537870Y-70484021D01*
X182513646Y-70400626D01*
X182513645Y-70400624D01*
X182511927Y-70394709D01*
X182509463Y-70389955D01*
X182507916Y-70384831D01*
X182491608Y-70354158D01*
X182464286Y-70302773D01*
X182463671Y-70301601D01*
X182423757Y-70224590D01*
X182423755Y-70224587D01*
X182420919Y-70219115D01*
X182417580Y-70214931D01*
X182415066Y-70210204D01*
X182356306Y-70138156D01*
X182355483Y-70137137D01*
X182346660Y-70126083D01*
X182324294Y-70098064D01*
X182321795Y-70095565D01*
X182321111Y-70094800D01*
X182317410Y-70090467D01*
X182290065Y-70056938D01*
X182285317Y-70053010D01*
X182285312Y-70053005D01*
X182254754Y-70027724D01*
X182245971Y-70019732D01*
X181526452Y-69300145D01*
X181492970Y-69240202D01*
X181492098Y-69236534D01*
X181491245Y-69228684D01*
X181440115Y-69092295D01*
X181352761Y-68975739D01*
X181236205Y-68888385D01*
X181099816Y-68837255D01*
X181037634Y-68830500D01*
X181010492Y-68830500D01*
X180950947Y-68815542D01*
X180928782Y-68803656D01*
X180927998Y-68803416D01*
X180926641Y-68802692D01*
X180783121Y-68759115D01*
X180739650Y-68745822D01*
X180739186Y-68745775D01*
X180737395Y-68745231D01*
X180554788Y-68727035D01*
X180546866Y-68726230D01*
X180546864Y-68726230D01*
X180542887Y-68725826D01*
X180542766Y-68725837D01*
X180540593Y-68725621D01*
X180534466Y-68726212D01*
X180525686Y-68727059D01*
X180343730Y-68744611D01*
X180337832Y-68746382D01*
X180337830Y-68746382D01*
X180249017Y-68773044D01*
X180154304Y-68801478D01*
X180148860Y-68804362D01*
X180148859Y-68804362D01*
X180127179Y-68815845D01*
X180068202Y-68830500D01*
X180041366Y-68830500D01*
X179979184Y-68837255D01*
X179842795Y-68888385D01*
X179758536Y-68951534D01*
X179754102Y-68954857D01*
X179687596Y-68979705D01*
X179618213Y-68964652D01*
X179589464Y-68943149D01*
X179586314Y-68940000D01*
X179534927Y-68888640D01*
X179500886Y-68826337D01*
X179498000Y-68799522D01*
X179498000Y-68340866D01*
X179491245Y-68278684D01*
X179440115Y-68142295D01*
X179352761Y-68025739D01*
X179236205Y-67938385D01*
X179099816Y-67887255D01*
X179037634Y-67880500D01*
X178041366Y-67880500D01*
X177979184Y-67887255D01*
X177842795Y-67938385D01*
X177726239Y-68025739D01*
X177638885Y-68142295D01*
X177587755Y-68278684D01*
X177581000Y-68340866D01*
X177581000Y-69237134D01*
X177587755Y-69299316D01*
X177590527Y-69306712D01*
X177590529Y-69306718D01*
X177615404Y-69373071D01*
X177620587Y-69443878D01*
X177586666Y-69506247D01*
X177524410Y-69540376D01*
X177497422Y-69543300D01*
X176591493Y-69543300D01*
X176523372Y-69523298D01*
X176476879Y-69469642D01*
X176465677Y-69410488D01*
X176466100Y-69402675D01*
X176466100Y-69249115D01*
X176461625Y-69233876D01*
X176460235Y-69232671D01*
X176452552Y-69231000D01*
X174503016Y-69231000D01*
X174487777Y-69235475D01*
X174486572Y-69236865D01*
X174484901Y-69244548D01*
X174484901Y-69402676D01*
X174485324Y-69410489D01*
X174469034Y-69479591D01*
X174417970Y-69528916D01*
X174359508Y-69543300D01*
X174051493Y-69543300D01*
X173983372Y-69523298D01*
X173936879Y-69469642D01*
X173925677Y-69410488D01*
X173926100Y-69402675D01*
X173926100Y-69249115D01*
X173921625Y-69233876D01*
X173920235Y-69232671D01*
X173912552Y-69231000D01*
X171963016Y-69231000D01*
X171947777Y-69235475D01*
X171946572Y-69236865D01*
X171944901Y-69244548D01*
X171944901Y-69402669D01*
X171945271Y-69409490D01*
X171950795Y-69460352D01*
X171954421Y-69475604D01*
X171999576Y-69596054D01*
X172008111Y-69611644D01*
X172065650Y-69688418D01*
X172090497Y-69754925D01*
X172075444Y-69824307D01*
X172065649Y-69839548D01*
X172007671Y-69916908D01*
X172002285Y-69924095D01*
X171951155Y-70060484D01*
X171944400Y-70122666D01*
X171944400Y-70328081D01*
X171942400Y-70347767D01*
X171942318Y-70348032D01*
X171941674Y-70354157D01*
X171941674Y-70354158D01*
X171924104Y-70521332D01*
X171921645Y-70544725D01*
X171927897Y-70613419D01*
X171933701Y-70677194D01*
X171939570Y-70741688D01*
X171941309Y-70747597D01*
X171942169Y-70752105D01*
X171944400Y-70775711D01*
X171944400Y-70980934D01*
X171951155Y-71043116D01*
X172002285Y-71179505D01*
X172089639Y-71296061D01*
X172206195Y-71383415D01*
X172342584Y-71434545D01*
X172404766Y-71441300D01*
X172427159Y-71441300D01*
X172487860Y-71456885D01*
X172535787Y-71483233D01*
X172541654Y-71485094D01*
X172541656Y-71485095D01*
X172703932Y-71536572D01*
X172724306Y-71543035D01*
X172878227Y-71560300D01*
X177875131Y-71560300D01*
X177919360Y-71568318D01*
X177971789Y-71587973D01*
X177971791Y-71587973D01*
X177979184Y-71590745D01*
X177987032Y-71591598D01*
X177987034Y-71591598D01*
X178026573Y-71595893D01*
X178072588Y-71610155D01*
X178098881Y-71624278D01*
X178104776Y-71626085D01*
X178283778Y-71680955D01*
X178343046Y-71720043D01*
X178371772Y-71784968D01*
X178360837Y-71855118D01*
X178335935Y-71890529D01*
X177942290Y-72284077D01*
X177633448Y-72592842D01*
X177582874Y-72643403D01*
X177520558Y-72677420D01*
X177469209Y-72677875D01*
X177424782Y-72669038D01*
X177424780Y-72669038D01*
X177419115Y-72667911D01*
X177413340Y-72667835D01*
X177413336Y-72667835D01*
X177306661Y-72666439D01*
X177206216Y-72665124D01*
X177200519Y-72666103D01*
X177200518Y-72666103D01*
X177002064Y-72700203D01*
X177002061Y-72700204D01*
X176996374Y-72701181D01*
X176796616Y-72774875D01*
X176613634Y-72883739D01*
X176489776Y-72992360D01*
X176425375Y-73022235D01*
X176355042Y-73012549D01*
X176321176Y-72990154D01*
X176225771Y-72901963D01*
X176045701Y-72788347D01*
X175847941Y-72709449D01*
X175842281Y-72708323D01*
X175842277Y-72708322D01*
X175644782Y-72669038D01*
X175644780Y-72669038D01*
X175639115Y-72667911D01*
X175633340Y-72667835D01*
X175633336Y-72667835D01*
X175526661Y-72666439D01*
X175426216Y-72665124D01*
X175420519Y-72666103D01*
X175420518Y-72666103D01*
X175222064Y-72700203D01*
X175222061Y-72700204D01*
X175216374Y-72701181D01*
X175016616Y-72774875D01*
X174833634Y-72883739D01*
X174709776Y-72992360D01*
X174645375Y-73022235D01*
X174575042Y-73012549D01*
X174541176Y-72990154D01*
X174445771Y-72901963D01*
X174265701Y-72788347D01*
X174067941Y-72709449D01*
X174062281Y-72708323D01*
X174062277Y-72708322D01*
X173864782Y-72669038D01*
X173864780Y-72669038D01*
X173859115Y-72667911D01*
X173853340Y-72667835D01*
X173853336Y-72667835D01*
X173746661Y-72666439D01*
X173646216Y-72665124D01*
X173640519Y-72666103D01*
X173640518Y-72666103D01*
X173563150Y-72679397D01*
X173492625Y-72671220D01*
X173452716Y-72644312D01*
X172799447Y-71991042D01*
X172791913Y-71982763D01*
X172787800Y-71976282D01*
X172738148Y-71929656D01*
X172735307Y-71926902D01*
X172715570Y-71907165D01*
X172712373Y-71904685D01*
X172703351Y-71896980D01*
X172702528Y-71896207D01*
X172671121Y-71866714D01*
X172664175Y-71862895D01*
X172664172Y-71862893D01*
X172653366Y-71856952D01*
X172636847Y-71846101D01*
X172636383Y-71845741D01*
X172620841Y-71833686D01*
X172613572Y-71830541D01*
X172613568Y-71830538D01*
X172580263Y-71816126D01*
X172569613Y-71810909D01*
X172530860Y-71789605D01*
X172511237Y-71784567D01*
X172492534Y-71778163D01*
X172481220Y-71773267D01*
X172481219Y-71773267D01*
X172473945Y-71770119D01*
X172466122Y-71768880D01*
X172466112Y-71768877D01*
X172430276Y-71763201D01*
X172418656Y-71760795D01*
X172383511Y-71751772D01*
X172383510Y-71751772D01*
X172375830Y-71749800D01*
X172355576Y-71749800D01*
X172335865Y-71748249D01*
X172323686Y-71746320D01*
X172315857Y-71745080D01*
X172286586Y-71747847D01*
X172271839Y-71749241D01*
X172259981Y-71749800D01*
X148397068Y-71749800D01*
X148385885Y-71749273D01*
X148378392Y-71747598D01*
X148370466Y-71747847D01*
X148370465Y-71747847D01*
X148310302Y-71749738D01*
X148306344Y-71749800D01*
X148278444Y-71749800D01*
X148274454Y-71750304D01*
X148262611Y-71751237D01*
X148257507Y-71751397D01*
X148250881Y-71751605D01*
X148182166Y-71733750D01*
X148134013Y-71681579D01*
X148121709Y-71611657D01*
X148149162Y-71546182D01*
X148157833Y-71536572D01*
X149128348Y-70566057D01*
X149190660Y-70532031D01*
X149261475Y-70537096D01*
X149274538Y-70542831D01*
X149352051Y-70582240D01*
X149572227Y-70650607D01*
X149577516Y-70651308D01*
X149795489Y-70680198D01*
X149795494Y-70680198D01*
X149800774Y-70680898D01*
X149806103Y-70680698D01*
X149806105Y-70680698D01*
X149915966Y-70676574D01*
X150031158Y-70672249D01*
X150040805Y-70670225D01*
X150228123Y-70630922D01*
X150256791Y-70624907D01*
X150261750Y-70622949D01*
X150261752Y-70622948D01*
X150466256Y-70542185D01*
X150466258Y-70542184D01*
X150471221Y-70540224D01*
X150507343Y-70518305D01*
X150663757Y-70423390D01*
X150663756Y-70423390D01*
X150668317Y-70420623D01*
X150715833Y-70379391D01*
X150838412Y-70273023D01*
X150838414Y-70273021D01*
X150842445Y-70269523D01*
X150891539Y-70209649D01*
X150985240Y-70095373D01*
X150985244Y-70095367D01*
X150988624Y-70091245D01*
X151006552Y-70059750D01*
X151057632Y-70010445D01*
X151127262Y-69996583D01*
X151193333Y-70022566D01*
X151220573Y-70051716D01*
X151302441Y-70173319D01*
X151306120Y-70177176D01*
X151306122Y-70177178D01*
X151367710Y-70241738D01*
X151461576Y-70340135D01*
X151465854Y-70343318D01*
X151514338Y-70379391D01*
X151646542Y-70477754D01*
X151651293Y-70480170D01*
X151651297Y-70480172D01*
X151714481Y-70512296D01*
X151852051Y-70582240D01*
X152072227Y-70650607D01*
X152077516Y-70651308D01*
X152295489Y-70680198D01*
X152295494Y-70680198D01*
X152300774Y-70680898D01*
X152306103Y-70680698D01*
X152306105Y-70680698D01*
X152415966Y-70676574D01*
X152531158Y-70672249D01*
X152540805Y-70670225D01*
X152728123Y-70630922D01*
X152756791Y-70624907D01*
X152761750Y-70622949D01*
X152761752Y-70622948D01*
X152966256Y-70542185D01*
X152966258Y-70542184D01*
X152971221Y-70540224D01*
X153007343Y-70518305D01*
X153163757Y-70423390D01*
X153163756Y-70423390D01*
X153168317Y-70420623D01*
X153215833Y-70379391D01*
X153338412Y-70273023D01*
X153338414Y-70273021D01*
X153342445Y-70269523D01*
X153371670Y-70233880D01*
X153430329Y-70193886D01*
X153501299Y-70191954D01*
X153562048Y-70228698D01*
X153576248Y-70247468D01*
X153587340Y-70265392D01*
X153666522Y-70393348D01*
X153791697Y-70518305D01*
X153797927Y-70522145D01*
X153797928Y-70522146D01*
X153935090Y-70606694D01*
X153942262Y-70611115D01*
X153977938Y-70622948D01*
X154103611Y-70664632D01*
X154103613Y-70664632D01*
X154110139Y-70666797D01*
X154116975Y-70667497D01*
X154116978Y-70667498D01*
X154152663Y-70671154D01*
X154214600Y-70677500D01*
X155515400Y-70677500D01*
X155518646Y-70677163D01*
X155518650Y-70677163D01*
X155614308Y-70667238D01*
X155614312Y-70667237D01*
X155621166Y-70666526D01*
X155627702Y-70664345D01*
X155627704Y-70664345D01*
X155759806Y-70620272D01*
X155788946Y-70610550D01*
X155939348Y-70517478D01*
X156064305Y-70392303D01*
X156068146Y-70386072D01*
X156153275Y-70247968D01*
X156153276Y-70247966D01*
X156157115Y-70241738D01*
X156183564Y-70161995D01*
X156210632Y-70080389D01*
X156210632Y-70080387D01*
X156212797Y-70073861D01*
X156223500Y-69969400D01*
X156223500Y-68418600D01*
X156219292Y-68378041D01*
X156213238Y-68319692D01*
X156213237Y-68319688D01*
X156212526Y-68312834D01*
X156205785Y-68292627D01*
X156158868Y-68152002D01*
X156156550Y-68145054D01*
X156063478Y-67994652D01*
X155938303Y-67869695D01*
X155907965Y-67850994D01*
X155793968Y-67780725D01*
X155793966Y-67780724D01*
X155787738Y-67776885D01*
X155674353Y-67739277D01*
X155626389Y-67723368D01*
X155626387Y-67723368D01*
X155619861Y-67721203D01*
X155613025Y-67720503D01*
X155613022Y-67720502D01*
X155569969Y-67716091D01*
X155515400Y-67710500D01*
X154214600Y-67710500D01*
X154211354Y-67710837D01*
X154211350Y-67710837D01*
X154115692Y-67720762D01*
X154115688Y-67720763D01*
X154108834Y-67721474D01*
X154102298Y-67723655D01*
X154102296Y-67723655D01*
X153970194Y-67767728D01*
X153941054Y-67777450D01*
X153790652Y-67870522D01*
X153665695Y-67995697D01*
X153661855Y-68001927D01*
X153661854Y-68001928D01*
X153650494Y-68020358D01*
X153585792Y-68125324D01*
X153575920Y-68141339D01*
X153523148Y-68188832D01*
X153453076Y-68200256D01*
X153387952Y-68171982D01*
X153377490Y-68162195D01*
X153319635Y-68101548D01*
X153268424Y-68047865D01*
X153083458Y-67910246D01*
X153078707Y-67907830D01*
X153078703Y-67907828D01*
X152960588Y-67847776D01*
X152877949Y-67805760D01*
X152872855Y-67804178D01*
X152872852Y-67804177D01*
X152662871Y-67738976D01*
X152657773Y-67737393D01*
X152652484Y-67736692D01*
X152434511Y-67707802D01*
X152434506Y-67707802D01*
X152429226Y-67707102D01*
X152423897Y-67707302D01*
X152423895Y-67707302D01*
X152314034Y-67711426D01*
X152198842Y-67715751D01*
X152193623Y-67716846D01*
X152171566Y-67721474D01*
X151973209Y-67763093D01*
X151968250Y-67765051D01*
X151968248Y-67765052D01*
X151763744Y-67845815D01*
X151763742Y-67845816D01*
X151758779Y-67847776D01*
X151754220Y-67850543D01*
X151754217Y-67850544D01*
X151659113Y-67908255D01*
X151561683Y-67967377D01*
X151557653Y-67970874D01*
X151401800Y-68106116D01*
X151387555Y-68118477D01*
X151367713Y-68142676D01*
X151244760Y-68292627D01*
X151244756Y-68292633D01*
X151241376Y-68296755D01*
X151223448Y-68328250D01*
X151172368Y-68377555D01*
X151102738Y-68391417D01*
X151036667Y-68365434D01*
X151009427Y-68336284D01*
X150982748Y-68296657D01*
X150927559Y-68214681D01*
X150768424Y-68047865D01*
X150583458Y-67910246D01*
X150578707Y-67907830D01*
X150578703Y-67907828D01*
X150460588Y-67847776D01*
X150377949Y-67805760D01*
X150372855Y-67804178D01*
X150372852Y-67804177D01*
X150162871Y-67738976D01*
X150157773Y-67737393D01*
X150152484Y-67736692D01*
X149934511Y-67707802D01*
X149934506Y-67707802D01*
X149929226Y-67707102D01*
X149923897Y-67707302D01*
X149923895Y-67707302D01*
X149814034Y-67711426D01*
X149698842Y-67715751D01*
X149693623Y-67716846D01*
X149671566Y-67721474D01*
X149473209Y-67763093D01*
X149468250Y-67765051D01*
X149468248Y-67765052D01*
X149263744Y-67845815D01*
X149263742Y-67845816D01*
X149258779Y-67847776D01*
X149254220Y-67850543D01*
X149254217Y-67850544D01*
X149159113Y-67908255D01*
X149061683Y-67967377D01*
X149057653Y-67970874D01*
X148901800Y-68106116D01*
X148887555Y-68118477D01*
X148867713Y-68142676D01*
X148744760Y-68292627D01*
X148744756Y-68292633D01*
X148741376Y-68296755D01*
X148738738Y-68301390D01*
X148738733Y-68301398D01*
X148723171Y-68328735D01*
X148672088Y-68378041D01*
X148602458Y-68391902D01*
X148536387Y-68365918D01*
X148509149Y-68336768D01*
X148430148Y-68219422D01*
X148423481Y-68211130D01*
X148271772Y-68052100D01*
X148263814Y-68045059D01*
X148087475Y-67913859D01*
X148078438Y-67908255D01*
X147882516Y-67808643D01*
X147872665Y-67804643D01*
X147662760Y-67739466D01*
X147652376Y-67737183D01*
X147636957Y-67735139D01*
X147622793Y-67737335D01*
X147619000Y-67750522D01*
X147619000Y-69322000D01*
X147598998Y-69390121D01*
X147545342Y-69436614D01*
X147493000Y-69448000D01*
X146031151Y-69448000D01*
X146016473Y-69452310D01*
X146014410Y-69464193D01*
X146021124Y-69543325D01*
X146022914Y-69553797D01*
X146078130Y-69766535D01*
X146081665Y-69776575D01*
X146171937Y-69976970D01*
X146177106Y-69986256D01*
X146299850Y-70168575D01*
X146306519Y-70176870D01*
X146458228Y-70335900D01*
X146466186Y-70342941D01*
X146642525Y-70474141D01*
X146651562Y-70479745D01*
X146847484Y-70579357D01*
X146857346Y-70583361D01*
X147010515Y-70630922D01*
X147069641Y-70670225D01*
X147098131Y-70735254D01*
X147086941Y-70805363D01*
X147062246Y-70840349D01*
X143928845Y-73973750D01*
X143866533Y-74007776D01*
X143817654Y-74008702D01*
X143604873Y-73970800D01*
X143604867Y-73970799D01*
X143599784Y-73969894D01*
X143525952Y-73968992D01*
X143381581Y-73967228D01*
X143381579Y-73967228D01*
X143376411Y-73967165D01*
X143155591Y-74000955D01*
X142943256Y-74070357D01*
X142745107Y-74173507D01*
X142740974Y-74176610D01*
X142740971Y-74176612D01*
X142570600Y-74304530D01*
X142566465Y-74307635D01*
X142412129Y-74469138D01*
X142409215Y-74473410D01*
X142409214Y-74473411D01*
X142371719Y-74528377D01*
X142286243Y-74653680D01*
X142248288Y-74735448D01*
X142201464Y-74788814D01*
X142133220Y-74808395D01*
X142065225Y-74787971D01*
X142019065Y-74734029D01*
X142008000Y-74682397D01*
X142008000Y-68922174D01*
X146011496Y-68922174D01*
X146012915Y-68935414D01*
X146027550Y-68940000D01*
X147092885Y-68940000D01*
X147108124Y-68935525D01*
X147109329Y-68934135D01*
X147111000Y-68926452D01*
X147111000Y-67752808D01*
X147107027Y-67739277D01*
X147096420Y-67737752D01*
X146978579Y-67762477D01*
X146968383Y-67765537D01*
X146763971Y-67846263D01*
X146754439Y-67850994D01*
X146566538Y-67965016D01*
X146557948Y-67971280D01*
X146391948Y-68115327D01*
X146384528Y-68122958D01*
X146245174Y-68292911D01*
X146239150Y-68301678D01*
X146130424Y-68492682D01*
X146125959Y-68502346D01*
X146050969Y-68708941D01*
X146048198Y-68719208D01*
X146011496Y-68922174D01*
X142008000Y-68922174D01*
X142008000Y-68549328D01*
X142009500Y-68529943D01*
X142011805Y-68515141D01*
X142011805Y-68515139D01*
X142013186Y-68506270D01*
X142011722Y-68495070D01*
X142011195Y-68491041D01*
X142010452Y-68465713D01*
X142016723Y-68378041D01*
X142022543Y-68296657D01*
X142025101Y-68278863D01*
X142044686Y-68188832D01*
X142066521Y-68088460D01*
X142071586Y-68071212D01*
X142139682Y-67888642D01*
X142147149Y-67872290D01*
X142199243Y-67776885D01*
X142240534Y-67701266D01*
X142250248Y-67686152D01*
X142367023Y-67530158D01*
X142378796Y-67516572D01*
X142516572Y-67378796D01*
X142530158Y-67367023D01*
X142576484Y-67332344D01*
X142686152Y-67250248D01*
X142701266Y-67240534D01*
X142863530Y-67151932D01*
X142872290Y-67147149D01*
X142888642Y-67139682D01*
X143071212Y-67071586D01*
X143088460Y-67066521D01*
X143278863Y-67025101D01*
X143296658Y-67022543D01*
X143345557Y-67019046D01*
X143458631Y-67010959D01*
X143476533Y-67011703D01*
X143484858Y-67011805D01*
X143493730Y-67013186D01*
X143502632Y-67012022D01*
X143502635Y-67012022D01*
X143525251Y-67009064D01*
X143541589Y-67008000D01*
X161601831Y-67008000D01*
X161669952Y-67028002D01*
G37*
G04 #@! TD.AperFunction*
G04 #@! TA.AperFunction,Conductor*
G36*
X174881880Y-85253002D02*
G01*
X174928373Y-85306658D01*
X174938477Y-85376932D01*
X174906080Y-85444749D01*
X174903807Y-85447196D01*
X174907293Y-85455583D01*
X175504688Y-86052978D01*
X175518632Y-86060592D01*
X175520465Y-86060461D01*
X175527080Y-86056210D01*
X176124033Y-85459257D01*
X176130793Y-85446878D01*
X176121534Y-85434510D01*
X176096723Y-85367990D01*
X176111814Y-85298615D01*
X176162016Y-85248413D01*
X176222402Y-85233000D01*
X176576867Y-85233000D01*
X176644988Y-85253002D01*
X176691481Y-85306658D01*
X176701585Y-85376932D01*
X176672091Y-85441512D01*
X176641292Y-85467284D01*
X176613634Y-85483739D01*
X176453554Y-85624125D01*
X176321738Y-85791333D01*
X176319049Y-85796444D01*
X176319047Y-85796447D01*
X176270039Y-85889596D01*
X176222600Y-85979762D01*
X176199866Y-86052978D01*
X176187088Y-86094129D01*
X176155851Y-86145859D01*
X175889522Y-86412188D01*
X175881908Y-86426132D01*
X175882039Y-86427965D01*
X175886290Y-86434580D01*
X176154379Y-86702669D01*
X176187407Y-86760748D01*
X176200772Y-86813372D01*
X176203189Y-86818615D01*
X176239889Y-86898223D01*
X176289911Y-87006731D01*
X176412796Y-87180609D01*
X176416930Y-87184636D01*
X176564247Y-87328147D01*
X176599084Y-87390009D01*
X176594947Y-87460885D01*
X176553148Y-87518272D01*
X176486958Y-87543952D01*
X176476325Y-87544401D01*
X176269022Y-87544401D01*
X176265438Y-87544595D01*
X176196335Y-87528304D01*
X176147011Y-87477239D01*
X176133124Y-87407614D01*
X176133281Y-87406544D01*
X176129175Y-87395885D01*
X175530312Y-86797022D01*
X175516368Y-86789408D01*
X175514535Y-86789539D01*
X175507920Y-86793790D01*
X174910712Y-87390998D01*
X174904516Y-87402344D01*
X174914398Y-87414834D01*
X174957779Y-87443820D01*
X174967889Y-87449310D01*
X175152818Y-87528762D01*
X175163761Y-87532317D01*
X175360067Y-87576737D01*
X175371475Y-87578239D01*
X175572596Y-87586140D01*
X175584080Y-87585538D01*
X175781127Y-87556968D01*
X175851413Y-87566988D01*
X175905124Y-87613417D01*
X175925207Y-87681514D01*
X175905286Y-87749659D01*
X175900034Y-87757229D01*
X175868911Y-87798756D01*
X175860376Y-87814346D01*
X175815222Y-87934794D01*
X175811595Y-87950049D01*
X175806069Y-88000914D01*
X175805700Y-88007728D01*
X175805700Y-88262885D01*
X175810175Y-88278124D01*
X175811565Y-88279329D01*
X175819248Y-88281000D01*
X176822700Y-88281000D01*
X176890821Y-88301002D01*
X176937314Y-88354658D01*
X176948700Y-88407000D01*
X176948700Y-89507484D01*
X176953175Y-89522723D01*
X176954565Y-89523928D01*
X176962248Y-89525599D01*
X177120369Y-89525599D01*
X177127190Y-89525229D01*
X177178052Y-89519705D01*
X177193304Y-89516079D01*
X177313758Y-89470923D01*
X177323991Y-89465320D01*
X177393348Y-89450151D01*
X177459896Y-89474887D01*
X177502506Y-89531676D01*
X177510500Y-89575840D01*
X177510500Y-90034160D01*
X177490498Y-90102281D01*
X177436842Y-90148774D01*
X177366568Y-90158878D01*
X177323991Y-90144680D01*
X177313758Y-90139077D01*
X177193306Y-90093922D01*
X177178051Y-90090295D01*
X177127186Y-90084769D01*
X177120372Y-90084400D01*
X176966815Y-90084400D01*
X176951576Y-90088875D01*
X176950371Y-90090265D01*
X176948700Y-90097948D01*
X176948700Y-91203000D01*
X176928698Y-91271121D01*
X176875042Y-91317614D01*
X176822700Y-91329000D01*
X175823816Y-91329000D01*
X175808577Y-91333475D01*
X175807372Y-91334865D01*
X175805701Y-91342548D01*
X175805701Y-91602269D01*
X175806071Y-91609090D01*
X175811595Y-91659952D01*
X175815221Y-91675204D01*
X175860376Y-91795654D01*
X175868914Y-91811249D01*
X175945415Y-91913324D01*
X175957975Y-91925884D01*
X176063471Y-92004948D01*
X176105987Y-92061807D01*
X176111013Y-92132626D01*
X176077017Y-92194856D01*
X176019521Y-92252371D01*
X175956608Y-92286537D01*
X175893712Y-92299906D01*
X175887682Y-92302591D01*
X175887681Y-92302591D01*
X175725278Y-92374897D01*
X175725276Y-92374898D01*
X175719248Y-92377582D01*
X175713909Y-92381461D01*
X175713902Y-92381465D01*
X175707472Y-92386137D01*
X175633413Y-92410200D01*
X167592516Y-92410200D01*
X167524395Y-92390198D01*
X167477902Y-92336542D01*
X167467798Y-92266268D01*
X167497292Y-92201688D01*
X167503425Y-92195100D01*
X167595534Y-92103000D01*
X167657848Y-92068978D01*
X167684625Y-92066100D01*
X167979834Y-92066100D01*
X168042016Y-92059345D01*
X168178405Y-92008215D01*
X168186183Y-92002386D01*
X168262952Y-91944851D01*
X168329459Y-91920003D01*
X168398841Y-91935056D01*
X168414082Y-91944850D01*
X168490856Y-92002389D01*
X168506446Y-92010924D01*
X168626894Y-92056078D01*
X168642149Y-92059705D01*
X168693014Y-92065231D01*
X168699828Y-92065600D01*
X168853385Y-92065600D01*
X168868624Y-92061125D01*
X168869829Y-92059735D01*
X168871500Y-92052052D01*
X168871500Y-92047484D01*
X169379500Y-92047484D01*
X169383975Y-92062723D01*
X169385365Y-92063928D01*
X169393048Y-92065599D01*
X169551169Y-92065599D01*
X169557990Y-92065229D01*
X169608852Y-92059705D01*
X169624104Y-92056079D01*
X169744554Y-92010924D01*
X169760149Y-92002386D01*
X169862224Y-91925885D01*
X169874785Y-91913324D01*
X169951286Y-91811249D01*
X169959824Y-91795654D01*
X170004978Y-91675206D01*
X170008605Y-91659951D01*
X170014131Y-91609086D01*
X170014500Y-91602272D01*
X170014500Y-91602269D01*
X171284501Y-91602269D01*
X171284871Y-91609090D01*
X171290395Y-91659952D01*
X171294021Y-91675204D01*
X171339176Y-91795654D01*
X171347714Y-91811249D01*
X171424215Y-91913324D01*
X171436776Y-91925885D01*
X171538851Y-92002386D01*
X171554446Y-92010924D01*
X171674894Y-92056078D01*
X171690149Y-92059705D01*
X171741014Y-92065231D01*
X171747828Y-92065600D01*
X171901385Y-92065600D01*
X171916624Y-92061125D01*
X171917829Y-92059735D01*
X171919500Y-92052052D01*
X171919500Y-91347115D01*
X171915025Y-91331876D01*
X171913635Y-91330671D01*
X171905952Y-91329000D01*
X171302616Y-91329000D01*
X171287377Y-91333475D01*
X171286172Y-91334865D01*
X171284501Y-91342548D01*
X171284501Y-91602269D01*
X170014500Y-91602269D01*
X170014500Y-91347115D01*
X170010025Y-91331876D01*
X170008635Y-91330671D01*
X170000952Y-91329000D01*
X169397615Y-91329000D01*
X169382376Y-91333475D01*
X169381171Y-91334865D01*
X169379500Y-91342548D01*
X169379500Y-92047484D01*
X168871500Y-92047484D01*
X168871500Y-90802885D01*
X169379500Y-90802885D01*
X169383975Y-90818124D01*
X169385365Y-90819329D01*
X169393048Y-90821000D01*
X169996384Y-90821000D01*
X170011623Y-90816525D01*
X170012828Y-90815135D01*
X170014499Y-90807452D01*
X170014499Y-90802885D01*
X171284500Y-90802885D01*
X171288975Y-90818124D01*
X171290365Y-90819329D01*
X171298048Y-90821000D01*
X171901385Y-90821000D01*
X171916624Y-90816525D01*
X171917829Y-90815135D01*
X171919500Y-90807452D01*
X171919500Y-90102516D01*
X171915025Y-90087277D01*
X171913635Y-90086072D01*
X171905952Y-90084401D01*
X171747831Y-90084401D01*
X171741010Y-90084771D01*
X171690148Y-90090295D01*
X171674896Y-90093921D01*
X171554446Y-90139076D01*
X171538851Y-90147614D01*
X171436776Y-90224115D01*
X171424215Y-90236676D01*
X171347714Y-90338751D01*
X171339176Y-90354346D01*
X171294022Y-90474794D01*
X171290395Y-90490049D01*
X171284869Y-90540914D01*
X171284500Y-90547728D01*
X171284500Y-90802885D01*
X170014499Y-90802885D01*
X170014499Y-90547731D01*
X170014129Y-90540910D01*
X170008605Y-90490048D01*
X170004979Y-90474796D01*
X169959824Y-90354346D01*
X169951286Y-90338751D01*
X169874785Y-90236676D01*
X169862224Y-90224115D01*
X169760149Y-90147614D01*
X169744554Y-90139076D01*
X169624106Y-90093922D01*
X169608851Y-90090295D01*
X169557986Y-90084769D01*
X169551172Y-90084400D01*
X169397615Y-90084400D01*
X169382376Y-90088875D01*
X169381171Y-90090265D01*
X169379500Y-90097948D01*
X169379500Y-90802885D01*
X168871500Y-90802885D01*
X168871500Y-90102516D01*
X168867025Y-90087277D01*
X168865635Y-90086072D01*
X168857952Y-90084401D01*
X168699831Y-90084401D01*
X168693010Y-90084771D01*
X168642148Y-90090295D01*
X168626896Y-90093921D01*
X168506444Y-90139077D01*
X168496011Y-90144789D01*
X168426654Y-90159959D01*
X168360106Y-90135224D01*
X168317495Y-90078437D01*
X168309500Y-90034270D01*
X168309500Y-89575730D01*
X168329502Y-89507609D01*
X168383158Y-89461116D01*
X168453432Y-89451012D01*
X168496011Y-89465211D01*
X168506444Y-89470923D01*
X168626894Y-89516078D01*
X168642149Y-89519705D01*
X168693014Y-89525231D01*
X168699828Y-89525600D01*
X168853385Y-89525600D01*
X168868624Y-89521125D01*
X168869829Y-89519735D01*
X168871500Y-89512052D01*
X168871500Y-89507484D01*
X169379500Y-89507484D01*
X169383975Y-89522723D01*
X169385365Y-89523928D01*
X169393048Y-89525599D01*
X169551169Y-89525599D01*
X169557990Y-89525229D01*
X169608852Y-89519705D01*
X169624104Y-89516079D01*
X169744554Y-89470924D01*
X169760149Y-89462386D01*
X169862224Y-89385885D01*
X169874785Y-89373324D01*
X169951286Y-89271249D01*
X169959824Y-89255654D01*
X170004978Y-89135206D01*
X170008605Y-89119951D01*
X170014131Y-89069086D01*
X170014500Y-89062272D01*
X170014500Y-89062269D01*
X171284501Y-89062269D01*
X171284871Y-89069090D01*
X171290395Y-89119952D01*
X171294021Y-89135204D01*
X171339176Y-89255654D01*
X171347714Y-89271249D01*
X171424215Y-89373324D01*
X171436776Y-89385885D01*
X171538851Y-89462386D01*
X171554446Y-89470924D01*
X171674894Y-89516078D01*
X171690149Y-89519705D01*
X171741014Y-89525231D01*
X171747828Y-89525600D01*
X171901385Y-89525600D01*
X171916624Y-89521125D01*
X171917829Y-89519735D01*
X171919500Y-89512052D01*
X171919500Y-88807115D01*
X171915025Y-88791876D01*
X171913635Y-88790671D01*
X171905952Y-88789000D01*
X171302616Y-88789000D01*
X171287377Y-88793475D01*
X171286172Y-88794865D01*
X171284501Y-88802548D01*
X171284501Y-89062269D01*
X170014500Y-89062269D01*
X170014500Y-88807115D01*
X170010025Y-88791876D01*
X170008635Y-88790671D01*
X170000952Y-88789000D01*
X169397615Y-88789000D01*
X169382376Y-88793475D01*
X169381171Y-88794865D01*
X169379500Y-88802548D01*
X169379500Y-89507484D01*
X168871500Y-89507484D01*
X168871500Y-88262885D01*
X169379500Y-88262885D01*
X169383975Y-88278124D01*
X169385365Y-88279329D01*
X169393048Y-88281000D01*
X169996384Y-88281000D01*
X170011623Y-88276525D01*
X170012828Y-88275135D01*
X170014499Y-88267452D01*
X170014499Y-88007731D01*
X170014129Y-88000910D01*
X170008605Y-87950048D01*
X170004979Y-87934796D01*
X169959824Y-87814346D01*
X169951288Y-87798756D01*
X169937356Y-87780166D01*
X169912508Y-87713659D01*
X169927561Y-87644277D01*
X169977735Y-87594046D01*
X170043128Y-87578697D01*
X170232596Y-87586140D01*
X170244080Y-87585538D01*
X170443274Y-87556657D01*
X170454457Y-87553972D01*
X170645047Y-87489276D01*
X170655560Y-87484595D01*
X170782266Y-87413635D01*
X170792131Y-87403557D01*
X170789175Y-87395885D01*
X170190312Y-86797022D01*
X170176368Y-86789408D01*
X170174535Y-86789539D01*
X170167920Y-86793790D01*
X169570712Y-87390998D01*
X169563097Y-87404942D01*
X169563417Y-87409411D01*
X169548325Y-87478786D01*
X169498123Y-87528988D01*
X169437738Y-87544400D01*
X169397615Y-87544400D01*
X169382376Y-87548875D01*
X169381171Y-87550265D01*
X169379500Y-87557948D01*
X169379500Y-88262885D01*
X168871500Y-88262885D01*
X168871500Y-87561291D01*
X168891502Y-87493170D01*
X168935934Y-87451356D01*
X168938800Y-87449751D01*
X169056493Y-87383840D01*
X169220193Y-87247693D01*
X169356340Y-87083993D01*
X169460376Y-86898223D01*
X169504616Y-86767897D01*
X169510190Y-86751476D01*
X169540408Y-86702882D01*
X170088405Y-86154885D01*
X170150717Y-86120859D01*
X170221532Y-86125924D01*
X170266595Y-86154885D01*
X170814379Y-86702669D01*
X170847407Y-86760748D01*
X170860772Y-86813372D01*
X170863189Y-86818615D01*
X170899889Y-86898223D01*
X170949911Y-87006731D01*
X171072796Y-87180609D01*
X171076930Y-87184636D01*
X171209501Y-87313781D01*
X171225309Y-87329181D01*
X171230105Y-87332386D01*
X171230108Y-87332388D01*
X171345382Y-87409411D01*
X171402343Y-87447471D01*
X171407646Y-87449749D01*
X171407649Y-87449751D01*
X171424818Y-87457127D01*
X171479511Y-87502395D01*
X171501048Y-87570046D01*
X171482591Y-87638602D01*
X171450644Y-87673722D01*
X171436775Y-87684116D01*
X171424215Y-87696676D01*
X171347714Y-87798751D01*
X171339176Y-87814346D01*
X171294022Y-87934794D01*
X171290395Y-87950049D01*
X171284869Y-88000914D01*
X171284500Y-88007728D01*
X171284500Y-88262885D01*
X171288975Y-88278124D01*
X171290365Y-88279329D01*
X171298048Y-88281000D01*
X172301500Y-88281000D01*
X172369621Y-88301002D01*
X172416114Y-88354658D01*
X172427500Y-88407000D01*
X172427500Y-89507484D01*
X172431975Y-89522723D01*
X172433365Y-89523928D01*
X172441048Y-89525599D01*
X172599169Y-89525599D01*
X172605990Y-89525229D01*
X172656852Y-89519705D01*
X172672104Y-89516079D01*
X172792556Y-89470923D01*
X172802989Y-89465211D01*
X172872346Y-89450041D01*
X172938894Y-89474776D01*
X172981505Y-89531563D01*
X172989500Y-89575730D01*
X172989500Y-90034270D01*
X172969498Y-90102391D01*
X172915842Y-90148884D01*
X172845568Y-90158988D01*
X172802989Y-90144789D01*
X172792556Y-90139077D01*
X172672106Y-90093922D01*
X172656851Y-90090295D01*
X172605986Y-90084769D01*
X172599172Y-90084400D01*
X172445615Y-90084400D01*
X172430376Y-90088875D01*
X172429171Y-90090265D01*
X172427500Y-90097948D01*
X172427500Y-92047484D01*
X172431975Y-92062723D01*
X172433365Y-92063928D01*
X172441048Y-92065599D01*
X172599169Y-92065599D01*
X172605990Y-92065229D01*
X172656852Y-92059705D01*
X172672104Y-92056079D01*
X172792554Y-92010924D01*
X172808144Y-92002389D01*
X172884918Y-91944850D01*
X172951425Y-91920003D01*
X173020807Y-91935056D01*
X173036048Y-91944851D01*
X173112817Y-92002386D01*
X173120595Y-92008215D01*
X173256984Y-92059345D01*
X173319166Y-92066100D01*
X174177434Y-92066100D01*
X174239616Y-92059345D01*
X174376005Y-92008215D01*
X174492561Y-91920861D01*
X174579915Y-91804305D01*
X174631045Y-91667916D01*
X174637800Y-91605734D01*
X174637800Y-90802885D01*
X175805700Y-90802885D01*
X175810175Y-90818124D01*
X175811565Y-90819329D01*
X175819248Y-90821000D01*
X176422585Y-90821000D01*
X176437824Y-90816525D01*
X176439029Y-90815135D01*
X176440700Y-90807452D01*
X176440700Y-90102516D01*
X176436225Y-90087277D01*
X176434835Y-90086072D01*
X176427152Y-90084401D01*
X176269031Y-90084401D01*
X176262210Y-90084771D01*
X176211348Y-90090295D01*
X176196096Y-90093921D01*
X176075646Y-90139076D01*
X176060051Y-90147614D01*
X175957976Y-90224115D01*
X175945415Y-90236676D01*
X175868914Y-90338751D01*
X175860376Y-90354346D01*
X175815222Y-90474794D01*
X175811595Y-90490049D01*
X175806069Y-90540914D01*
X175805700Y-90547728D01*
X175805700Y-90802885D01*
X174637800Y-90802885D01*
X174637800Y-90544266D01*
X174631045Y-90482084D01*
X174579915Y-90345695D01*
X174536470Y-90287726D01*
X174531674Y-90281327D01*
X174506826Y-90214820D01*
X174506500Y-90205762D01*
X174506500Y-89404238D01*
X174526502Y-89336117D01*
X174531674Y-89328673D01*
X174574529Y-89271492D01*
X174574530Y-89271490D01*
X174579915Y-89264305D01*
X174631045Y-89127916D01*
X174637800Y-89065734D01*
X174637800Y-89062269D01*
X175805701Y-89062269D01*
X175806071Y-89069090D01*
X175811595Y-89119952D01*
X175815221Y-89135204D01*
X175860376Y-89255654D01*
X175868914Y-89271249D01*
X175945415Y-89373324D01*
X175957976Y-89385885D01*
X176060051Y-89462386D01*
X176075646Y-89470924D01*
X176196094Y-89516078D01*
X176211349Y-89519705D01*
X176262214Y-89525231D01*
X176269028Y-89525600D01*
X176422585Y-89525600D01*
X176437824Y-89521125D01*
X176439029Y-89519735D01*
X176440700Y-89512052D01*
X176440700Y-88807115D01*
X176436225Y-88791876D01*
X176434835Y-88790671D01*
X176427152Y-88789000D01*
X175823816Y-88789000D01*
X175808577Y-88793475D01*
X175807372Y-88794865D01*
X175805701Y-88802548D01*
X175805701Y-89062269D01*
X174637800Y-89062269D01*
X174637800Y-88004266D01*
X174631045Y-87942084D01*
X174579915Y-87805695D01*
X174537919Y-87749659D01*
X174531674Y-87741327D01*
X174506826Y-87674820D01*
X174506500Y-87665762D01*
X174506500Y-87351438D01*
X174526502Y-87283317D01*
X174551931Y-87254565D01*
X174560193Y-87247693D01*
X174696340Y-87083993D01*
X174800376Y-86898223D01*
X174844616Y-86767897D01*
X174850190Y-86751476D01*
X174880408Y-86702882D01*
X175145478Y-86437812D01*
X175153092Y-86423868D01*
X175152961Y-86422035D01*
X175148710Y-86415420D01*
X174879282Y-86145992D01*
X174847108Y-86091099D01*
X174825254Y-86013611D01*
X174825253Y-86013609D01*
X174823686Y-86008052D01*
X174814198Y-85988811D01*
X174732070Y-85822273D01*
X174729515Y-85817092D01*
X174701835Y-85780023D01*
X174605574Y-85651114D01*
X174602122Y-85646491D01*
X174445771Y-85501963D01*
X174440879Y-85498876D01*
X174388079Y-85465562D01*
X174341141Y-85412295D01*
X174330452Y-85342108D01*
X174359407Y-85277284D01*
X174418811Y-85238404D01*
X174455315Y-85233000D01*
X174813759Y-85233000D01*
X174881880Y-85253002D01*
G37*
G04 #@! TD.AperFunction*
G04 #@! TD*
M02*
