G04 #@! TF.GenerationSoftware,KiCad,Pcbnew,(6.0.2)*
G04 #@! TF.CreationDate,2022-03-23T02:52:59+09:00*
G04 #@! TF.ProjectId,ADNS-9800,41444e53-2d39-4383-9030-2e6b69636164,rev?*
G04 #@! TF.SameCoordinates,Original*
G04 #@! TF.FileFunction,Soldermask,Top*
G04 #@! TF.FilePolarity,Negative*
%FSLAX46Y46*%
G04 Gerber Fmt 4.6, Leading zero omitted, Abs format (unit mm)*
G04 Created by KiCad (PCBNEW (6.0.2)) date 2022-03-23 02:52:59*
%MOMM*%
%LPD*%
G01*
G04 APERTURE LIST*
G04 Aperture macros list*
%AMRoundRect*
0 Rectangle with rounded corners*
0 $1 Rounding radius*
0 $2 $3 $4 $5 $6 $7 $8 $9 X,Y pos of 4 corners*
0 Add a 4 corners polygon primitive as box body*
4,1,4,$2,$3,$4,$5,$6,$7,$8,$9,$2,$3,0*
0 Add four circle primitives for the rounded corners*
1,1,$1+$1,$2,$3*
1,1,$1+$1,$4,$5*
1,1,$1+$1,$6,$7*
1,1,$1+$1,$8,$9*
0 Add four rect primitives between the rounded corners*
20,1,$1+$1,$2,$3,$4,$5,0*
20,1,$1+$1,$4,$5,$6,$7,0*
20,1,$1+$1,$6,$7,$8,$9,0*
20,1,$1+$1,$8,$9,$2,$3,0*%
G04 Aperture macros list end*
G04 #@! TA.AperFunction,Profile*
%ADD10C,0.200000*%
G04 #@! TD*
G04 #@! TA.AperFunction,Profile*
%ADD11C,0.127000*%
G04 #@! TD*
%ADD12RoundRect,0.101600X0.482600X-0.381000X0.482600X0.381000X-0.482600X0.381000X-0.482600X-0.381000X0*%
%ADD13RoundRect,0.101600X-0.381000X-0.482600X0.381000X-0.482600X0.381000X0.482600X-0.381000X0.482600X0*%
%ADD14RoundRect,0.101600X-0.482600X0.381000X-0.482600X-0.381000X0.482600X-0.381000X0.482600X0.381000X0*%
%ADD15RoundRect,0.101600X0.381000X0.482600X-0.381000X0.482600X-0.381000X-0.482600X0.381000X-0.482600X0*%
%ADD16RoundRect,0.101600X-0.650000X-0.650000X0.650000X-0.650000X0.650000X0.650000X-0.650000X0.650000X0*%
%ADD17C,1.503200*%
%ADD18RoundRect,0.250000X0.600000X0.725000X-0.600000X0.725000X-0.600000X-0.725000X0.600000X-0.725000X0*%
%ADD19O,1.700000X1.950000*%
%ADD20R,0.900000X0.800000*%
%ADD21C,1.700000*%
G04 APERTURE END LIST*
D10*
X183499999Y-68500000D02*
G75*
G03*
X181499999Y-66500000I-1999999J1D01*
G01*
X143500000Y-66500000D02*
X181499999Y-66500000D01*
X181499999Y-93800000D02*
X143500000Y-93800000D01*
X163499998Y-91800000D02*
G75*
G03*
X163499998Y-91800000I-999999J0D01*
G01*
X143500000Y-66500000D02*
G75*
G03*
X141500000Y-68500000I-1J-1999999D01*
G01*
X141500000Y-91800000D02*
X141500000Y-68500000D01*
X183499999Y-68500000D02*
X183499999Y-91800000D01*
X181499999Y-93800000D02*
G75*
G03*
X183499999Y-91800000I1J1999999D01*
G01*
X163499999Y-68500000D02*
G75*
G03*
X163499999Y-68500000I-999999J0D01*
G01*
X141500000Y-91800000D02*
G75*
G03*
X143500000Y-93800000I1999999J-1D01*
G01*
D11*
G04 #@! TO.C,U$1*
X179577500Y-75525000D02*
X166117500Y-75525000D01*
X166077500Y-84725000D02*
X179577500Y-84725000D01*
X179577500Y-84725000D02*
X179577500Y-75525000D01*
X166117500Y-75525000D02*
X166077500Y-84725000D01*
G04 #@! TD*
D12*
G04 #@! TO.C,C3*
X181571500Y-75377800D03*
X181571500Y-73803000D03*
G04 #@! TD*
D13*
G04 #@! TO.C,C8*
X176694700Y-91075000D03*
X178269500Y-91075000D03*
G04 #@! TD*
D14*
G04 #@! TO.C,C1*
X175475500Y-68977000D03*
X175475500Y-70551800D03*
G04 #@! TD*
D15*
G04 #@! TO.C,C4*
X169125500Y-88535000D03*
X167550700Y-88535000D03*
G04 #@! TD*
D13*
G04 #@! TO.C,C7*
X172173500Y-88535000D03*
X173748300Y-88535000D03*
G04 #@! TD*
D16*
G04 #@! TO.C,U$1*
X179077500Y-73825000D03*
D17*
X177297500Y-73825000D03*
X175517500Y-73825000D03*
X173737500Y-73825000D03*
X171957500Y-73825000D03*
X170177500Y-73825000D03*
X168397500Y-73825000D03*
X166617500Y-73825000D03*
X166617500Y-86425000D03*
X168397500Y-86425000D03*
X170177500Y-86425000D03*
X171957500Y-86425000D03*
X173737500Y-86425000D03*
X175517500Y-86425000D03*
X177297500Y-86425000D03*
X179077500Y-86425000D03*
G04 #@! TD*
D14*
G04 #@! TO.C,C2*
X172935500Y-68977000D03*
X172935500Y-70551800D03*
G04 #@! TD*
D15*
G04 #@! TO.C,C5*
X169125500Y-91075000D03*
X167550700Y-91075000D03*
G04 #@! TD*
D13*
G04 #@! TO.C,C6*
X176694700Y-88535000D03*
X178269500Y-88535000D03*
G04 #@! TD*
G04 #@! TO.C,C9*
X172173500Y-91075000D03*
X173748300Y-91075000D03*
G04 #@! TD*
D18*
G04 #@! TO.C,J1*
X154865000Y-69194000D03*
D19*
X152365000Y-69194000D03*
X149865000Y-69194000D03*
X147365000Y-69194000D03*
G04 #@! TD*
D20*
G04 #@! TO.C,Q1*
X178539500Y-68789000D03*
X178539500Y-70689000D03*
X180539500Y-69739000D03*
G04 #@! TD*
D21*
G04 #@! TO.C,U1*
X158711500Y-90567000D03*
X158711500Y-88027000D03*
X158711500Y-85487000D03*
X158711500Y-82947000D03*
X158711500Y-80407000D03*
X158711500Y-77867000D03*
X158711500Y-75327000D03*
X143471500Y-75327000D03*
X143471500Y-77867000D03*
X143471500Y-80407000D03*
X143471500Y-82947000D03*
X143471500Y-85487000D03*
X143471500Y-88027000D03*
X143471500Y-90567000D03*
G04 #@! TD*
M02*
