G04 #@! TF.GenerationSoftware,KiCad,Pcbnew,(6.0.2)*
G04 #@! TF.CreationDate,2022-03-23T02:52:59+09:00*
G04 #@! TF.ProjectId,ADNS-9800,41444e53-2d39-4383-9030-2e6b69636164,rev?*
G04 #@! TF.SameCoordinates,Original*
G04 #@! TF.FileFunction,Legend,Top*
G04 #@! TF.FilePolarity,Positive*
%FSLAX46Y46*%
G04 Gerber Fmt 4.6, Leading zero omitted, Abs format (unit mm)*
G04 Created by KiCad (PCBNEW (6.0.2)) date 2022-03-23 02:52:59*
%MOMM*%
%LPD*%
G01*
G04 APERTURE LIST*
G04 Aperture macros list*
%AMRoundRect*
0 Rectangle with rounded corners*
0 $1 Rounding radius*
0 $2 $3 $4 $5 $6 $7 $8 $9 X,Y pos of 4 corners*
0 Add a 4 corners polygon primitive as box body*
4,1,4,$2,$3,$4,$5,$6,$7,$8,$9,$2,$3,0*
0 Add four circle primitives for the rounded corners*
1,1,$1+$1,$2,$3*
1,1,$1+$1,$4,$5*
1,1,$1+$1,$6,$7*
1,1,$1+$1,$8,$9*
0 Add four rect primitives between the rounded corners*
20,1,$1+$1,$2,$3,$4,$5,0*
20,1,$1+$1,$4,$5,$6,$7,0*
20,1,$1+$1,$6,$7,$8,$9,0*
20,1,$1+$1,$8,$9,$2,$3,0*%
G04 Aperture macros list end*
G04 #@! TA.AperFunction,Profile*
%ADD10C,0.200000*%
G04 #@! TD*
%ADD11C,0.096520*%
%ADD12C,0.150000*%
%ADD13C,0.127000*%
G04 #@! TA.AperFunction,Profile*
%ADD14C,0.127000*%
G04 #@! TD*
%ADD15C,0.120000*%
%ADD16RoundRect,0.101600X0.482600X-0.381000X0.482600X0.381000X-0.482600X0.381000X-0.482600X-0.381000X0*%
%ADD17RoundRect,0.101600X-0.381000X-0.482600X0.381000X-0.482600X0.381000X0.482600X-0.381000X0.482600X0*%
%ADD18RoundRect,0.101600X-0.482600X0.381000X-0.482600X-0.381000X0.482600X-0.381000X0.482600X0.381000X0*%
%ADD19RoundRect,0.101600X0.381000X0.482600X-0.381000X0.482600X-0.381000X-0.482600X0.381000X-0.482600X0*%
%ADD20RoundRect,0.101600X-0.650000X-0.650000X0.650000X-0.650000X0.650000X0.650000X-0.650000X0.650000X0*%
%ADD21C,1.503200*%
%ADD22RoundRect,0.250000X0.600000X0.725000X-0.600000X0.725000X-0.600000X-0.725000X0.600000X-0.725000X0*%
%ADD23O,1.700000X1.950000*%
%ADD24R,0.900000X0.800000*%
%ADD25C,1.700000*%
G04 APERTURE END LIST*
D10*
X183499999Y-68500000D02*
G75*
G03*
X181499999Y-66500000I-1999999J1D01*
G01*
X143500000Y-66500000D02*
X181499999Y-66500000D01*
X181499999Y-93800000D02*
X143500000Y-93800000D01*
X163499998Y-91800000D02*
G75*
G03*
X163499998Y-91800000I-999999J0D01*
G01*
X143500000Y-66500000D02*
G75*
G03*
X141500000Y-68500000I-1J-1999999D01*
G01*
X141500000Y-91800000D02*
X141500000Y-68500000D01*
X183499999Y-68500000D02*
X183499999Y-91800000D01*
X181499999Y-93800000D02*
G75*
G03*
X183499999Y-91800000I1J1999999D01*
G01*
X163499999Y-68500000D02*
G75*
G03*
X163499999Y-68500000I-999999J0D01*
G01*
X141500000Y-91800000D02*
G75*
G03*
X143500000Y-93800000I1999999J-1D01*
G01*
D11*
G04 #@! TO.C,C3*
X182256714Y-72323909D02*
X182302676Y-72369871D01*
X182348638Y-72507757D01*
X182348638Y-72599681D01*
X182302676Y-72737566D01*
X182210752Y-72829490D01*
X182118828Y-72875452D01*
X181934980Y-72921414D01*
X181797095Y-72921414D01*
X181613247Y-72875452D01*
X181521323Y-72829490D01*
X181429400Y-72737566D01*
X181383438Y-72599681D01*
X181383438Y-72507757D01*
X181429400Y-72369871D01*
X181475361Y-72323909D01*
X181383438Y-72002176D02*
X181383438Y-71404671D01*
X181751133Y-71726404D01*
X181751133Y-71588519D01*
X181797095Y-71496595D01*
X181843057Y-71450633D01*
X181934980Y-71404671D01*
X182164790Y-71404671D01*
X182256714Y-71450633D01*
X182302676Y-71496595D01*
X182348638Y-71588519D01*
X182348638Y-71864290D01*
X182302676Y-71956214D01*
X182256714Y-72002176D01*
G04 #@! TO.C,C8*
X177310190Y-92715114D02*
X177264228Y-92761076D01*
X177126342Y-92807038D01*
X177034418Y-92807038D01*
X176896533Y-92761076D01*
X176804609Y-92669152D01*
X176758647Y-92577228D01*
X176712685Y-92393380D01*
X176712685Y-92255495D01*
X176758647Y-92071647D01*
X176804609Y-91979723D01*
X176896533Y-91887800D01*
X177034418Y-91841838D01*
X177126342Y-91841838D01*
X177264228Y-91887800D01*
X177310190Y-91933761D01*
X177861733Y-92255495D02*
X177769809Y-92209533D01*
X177723847Y-92163571D01*
X177677885Y-92071647D01*
X177677885Y-92025685D01*
X177723847Y-91933761D01*
X177769809Y-91887800D01*
X177861733Y-91841838D01*
X178045580Y-91841838D01*
X178137504Y-91887800D01*
X178183466Y-91933761D01*
X178229428Y-92025685D01*
X178229428Y-92071647D01*
X178183466Y-92163571D01*
X178137504Y-92209533D01*
X178045580Y-92255495D01*
X177861733Y-92255495D01*
X177769809Y-92301457D01*
X177723847Y-92347419D01*
X177677885Y-92439342D01*
X177677885Y-92623190D01*
X177723847Y-92715114D01*
X177769809Y-92761076D01*
X177861733Y-92807038D01*
X178045580Y-92807038D01*
X178137504Y-92761076D01*
X178183466Y-92715114D01*
X178229428Y-92623190D01*
X178229428Y-92439342D01*
X178183466Y-92347419D01*
X178137504Y-92301457D01*
X178045580Y-92255495D01*
G04 #@! TO.C,C1*
X175557590Y-67823114D02*
X175511628Y-67869076D01*
X175373742Y-67915038D01*
X175281818Y-67915038D01*
X175143933Y-67869076D01*
X175052009Y-67777152D01*
X175006047Y-67685228D01*
X174960085Y-67501380D01*
X174960085Y-67363495D01*
X175006047Y-67179647D01*
X175052009Y-67087723D01*
X175143933Y-66995800D01*
X175281818Y-66949838D01*
X175373742Y-66949838D01*
X175511628Y-66995800D01*
X175557590Y-67041761D01*
X176476828Y-67915038D02*
X175925285Y-67915038D01*
X176201057Y-67915038D02*
X176201057Y-66949838D01*
X176109133Y-67087723D01*
X176017209Y-67179647D01*
X175925285Y-67225609D01*
G04 #@! TO.C,C4*
X168191590Y-90175114D02*
X168145628Y-90221076D01*
X168007742Y-90267038D01*
X167915818Y-90267038D01*
X167777933Y-90221076D01*
X167686009Y-90129152D01*
X167640047Y-90037228D01*
X167594085Y-89853380D01*
X167594085Y-89715495D01*
X167640047Y-89531647D01*
X167686009Y-89439723D01*
X167777933Y-89347800D01*
X167915818Y-89301838D01*
X168007742Y-89301838D01*
X168145628Y-89347800D01*
X168191590Y-89393761D01*
X169018904Y-89623571D02*
X169018904Y-90267038D01*
X168789095Y-89255876D02*
X168559285Y-89945304D01*
X169156790Y-89945304D01*
G04 #@! TO.C,C7*
X172531676Y-90175114D02*
X172485714Y-90221076D01*
X172347828Y-90267038D01*
X172255904Y-90267038D01*
X172118019Y-90221076D01*
X172026095Y-90129152D01*
X171980133Y-90037228D01*
X171934171Y-89853380D01*
X171934171Y-89715495D01*
X171980133Y-89531647D01*
X172026095Y-89439723D01*
X172118019Y-89347800D01*
X172255904Y-89301838D01*
X172347828Y-89301838D01*
X172485714Y-89347800D01*
X172531676Y-89393761D01*
X172853409Y-89301838D02*
X173496876Y-89301838D01*
X173083219Y-90267038D01*
G04 #@! TO.C,C2*
X172763590Y-67823114D02*
X172717628Y-67869076D01*
X172579742Y-67915038D01*
X172487818Y-67915038D01*
X172349933Y-67869076D01*
X172258009Y-67777152D01*
X172212047Y-67685228D01*
X172166085Y-67501380D01*
X172166085Y-67363495D01*
X172212047Y-67179647D01*
X172258009Y-67087723D01*
X172349933Y-66995800D01*
X172487818Y-66949838D01*
X172579742Y-66949838D01*
X172717628Y-66995800D01*
X172763590Y-67041761D01*
X173131285Y-67041761D02*
X173177247Y-66995800D01*
X173269171Y-66949838D01*
X173498980Y-66949838D01*
X173590904Y-66995800D01*
X173636866Y-67041761D01*
X173682828Y-67133685D01*
X173682828Y-67225609D01*
X173636866Y-67363495D01*
X173085323Y-67915038D01*
X173682828Y-67915038D01*
G04 #@! TO.C,C5*
X168267790Y-92715114D02*
X168221828Y-92761076D01*
X168083942Y-92807038D01*
X167992018Y-92807038D01*
X167854133Y-92761076D01*
X167762209Y-92669152D01*
X167716247Y-92577228D01*
X167670285Y-92393380D01*
X167670285Y-92255495D01*
X167716247Y-92071647D01*
X167762209Y-91979723D01*
X167854133Y-91887800D01*
X167992018Y-91841838D01*
X168083942Y-91841838D01*
X168221828Y-91887800D01*
X168267790Y-91933761D01*
X169141066Y-91841838D02*
X168681447Y-91841838D01*
X168635485Y-92301457D01*
X168681447Y-92255495D01*
X168773371Y-92209533D01*
X169003180Y-92209533D01*
X169095104Y-92255495D01*
X169141066Y-92301457D01*
X169187028Y-92393380D01*
X169187028Y-92623190D01*
X169141066Y-92715114D01*
X169095104Y-92761076D01*
X169003180Y-92807038D01*
X168773371Y-92807038D01*
X168681447Y-92761076D01*
X168635485Y-92715114D01*
G04 #@! TO.C,C6*
X177310190Y-90175114D02*
X177264228Y-90221076D01*
X177126342Y-90267038D01*
X177034418Y-90267038D01*
X176896533Y-90221076D01*
X176804609Y-90129152D01*
X176758647Y-90037228D01*
X176712685Y-89853380D01*
X176712685Y-89715495D01*
X176758647Y-89531647D01*
X176804609Y-89439723D01*
X176896533Y-89347800D01*
X177034418Y-89301838D01*
X177126342Y-89301838D01*
X177264228Y-89347800D01*
X177310190Y-89393761D01*
X178137504Y-89301838D02*
X177953657Y-89301838D01*
X177861733Y-89347800D01*
X177815771Y-89393761D01*
X177723847Y-89531647D01*
X177677885Y-89715495D01*
X177677885Y-90083190D01*
X177723847Y-90175114D01*
X177769809Y-90221076D01*
X177861733Y-90267038D01*
X178045580Y-90267038D01*
X178137504Y-90221076D01*
X178183466Y-90175114D01*
X178229428Y-90083190D01*
X178229428Y-89853380D01*
X178183466Y-89761457D01*
X178137504Y-89715495D01*
X178045580Y-89669533D01*
X177861733Y-89669533D01*
X177769809Y-89715495D01*
X177723847Y-89761457D01*
X177677885Y-89853380D01*
G04 #@! TO.C,C9*
X172531676Y-92715114D02*
X172485714Y-92761076D01*
X172347828Y-92807038D01*
X172255904Y-92807038D01*
X172118019Y-92761076D01*
X172026095Y-92669152D01*
X171980133Y-92577228D01*
X171934171Y-92393380D01*
X171934171Y-92255495D01*
X171980133Y-92071647D01*
X172026095Y-91979723D01*
X172118019Y-91887800D01*
X172255904Y-91841838D01*
X172347828Y-91841838D01*
X172485714Y-91887800D01*
X172531676Y-91933761D01*
X172991295Y-92807038D02*
X173175142Y-92807038D01*
X173267066Y-92761076D01*
X173313028Y-92715114D01*
X173404952Y-92577228D01*
X173450914Y-92393380D01*
X173450914Y-92025685D01*
X173404952Y-91933761D01*
X173358990Y-91887800D01*
X173267066Y-91841838D01*
X173083219Y-91841838D01*
X172991295Y-91887800D01*
X172945333Y-91933761D01*
X172899371Y-92025685D01*
X172899371Y-92255495D01*
X172945333Y-92347419D01*
X172991295Y-92393380D01*
X173083219Y-92439342D01*
X173267066Y-92439342D01*
X173358990Y-92393380D01*
X173404952Y-92347419D01*
X173450914Y-92255495D01*
D12*
G04 #@! TO.C,J1*
X150781666Y-72146380D02*
X150781666Y-72860666D01*
X150734047Y-73003523D01*
X150638809Y-73098761D01*
X150495952Y-73146380D01*
X150400714Y-73146380D01*
X151781666Y-73146380D02*
X151210238Y-73146380D01*
X151495952Y-73146380D02*
X151495952Y-72146380D01*
X151400714Y-72289238D01*
X151305476Y-72384476D01*
X151210238Y-72432095D01*
G04 #@! TO.C,Q1*
X179444261Y-67786619D02*
X179349023Y-67739000D01*
X179253785Y-67643761D01*
X179110928Y-67500904D01*
X179015690Y-67453285D01*
X178920452Y-67453285D01*
X178968071Y-67691380D02*
X178872833Y-67643761D01*
X178777595Y-67548523D01*
X178729976Y-67358047D01*
X178729976Y-67024714D01*
X178777595Y-66834238D01*
X178872833Y-66739000D01*
X178968071Y-66691380D01*
X179158547Y-66691380D01*
X179253785Y-66739000D01*
X179349023Y-66834238D01*
X179396642Y-67024714D01*
X179396642Y-67358047D01*
X179349023Y-67548523D01*
X179253785Y-67643761D01*
X179158547Y-67691380D01*
X178968071Y-67691380D01*
X180349023Y-67691380D02*
X179777595Y-67691380D01*
X180063309Y-67691380D02*
X180063309Y-66691380D01*
X179968071Y-66834238D01*
X179872833Y-66929476D01*
X179777595Y-66977095D01*
G04 #@! TO.C,U1*
X150329595Y-74779380D02*
X150329595Y-75588904D01*
X150377214Y-75684142D01*
X150424833Y-75731761D01*
X150520071Y-75779380D01*
X150710547Y-75779380D01*
X150805785Y-75731761D01*
X150853404Y-75684142D01*
X150901023Y-75588904D01*
X150901023Y-74779380D01*
X151901023Y-75779380D02*
X151329595Y-75779380D01*
X151615309Y-75779380D02*
X151615309Y-74779380D01*
X151520071Y-74922238D01*
X151424833Y-75017476D01*
X151329595Y-75065095D01*
D13*
G04 #@! TO.C,C3*
X181317500Y-74819000D02*
X181317500Y-74361800D01*
X181317500Y-74819000D02*
X181825500Y-74819000D01*
X181825500Y-74361800D02*
X181825500Y-74819000D01*
X181317500Y-74361800D02*
X181825500Y-74361800D01*
G04 #@! TO.C,C8*
X177253500Y-90821000D02*
X177710700Y-90821000D01*
X177710700Y-90821000D02*
X177710700Y-91329000D01*
X177710700Y-91329000D02*
X177253500Y-91329000D01*
X177253500Y-90821000D02*
X177253500Y-91329000D01*
G04 #@! TO.C,C1*
X175729500Y-69993000D02*
X175221500Y-69993000D01*
X175729500Y-69535800D02*
X175221500Y-69535800D01*
X175221500Y-69993000D02*
X175221500Y-69535800D01*
X175729500Y-69535800D02*
X175729500Y-69993000D01*
G04 #@! TO.C,C4*
X168566700Y-88789000D02*
X168566700Y-88281000D01*
X168109500Y-88281000D02*
X168566700Y-88281000D01*
X168109500Y-88789000D02*
X168109500Y-88281000D01*
X168566700Y-88789000D02*
X168109500Y-88789000D01*
G04 #@! TO.C,C7*
X173189500Y-88789000D02*
X172732300Y-88789000D01*
X172732300Y-88281000D02*
X172732300Y-88789000D01*
X173189500Y-88281000D02*
X173189500Y-88789000D01*
X172732300Y-88281000D02*
X173189500Y-88281000D01*
D14*
G04 #@! TO.C,U$1*
X179577500Y-75525000D02*
X166117500Y-75525000D01*
X166077500Y-84725000D02*
X179577500Y-84725000D01*
X179577500Y-84725000D02*
X179577500Y-75525000D01*
X166117500Y-75525000D02*
X166077500Y-84725000D01*
D13*
G04 #@! TO.C,C2*
X173189500Y-69535800D02*
X172681500Y-69535800D01*
X173189500Y-69993000D02*
X172681500Y-69993000D01*
X173189500Y-69535800D02*
X173189500Y-69993000D01*
X172681500Y-69993000D02*
X172681500Y-69535800D01*
G04 #@! TO.C,C5*
X168109500Y-90821000D02*
X168566700Y-90821000D01*
X168566700Y-91329000D02*
X168566700Y-90821000D01*
X168109500Y-91329000D02*
X168109500Y-90821000D01*
X168566700Y-91329000D02*
X168109500Y-91329000D01*
G04 #@! TO.C,C6*
X177253500Y-88281000D02*
X177253500Y-88789000D01*
X177710700Y-88281000D02*
X177710700Y-88789000D01*
X177710700Y-88789000D02*
X177253500Y-88789000D01*
X177253500Y-88281000D02*
X177710700Y-88281000D01*
G04 #@! TO.C,C9*
X173189500Y-91329000D02*
X172732300Y-91329000D01*
X172732300Y-90821000D02*
X172732300Y-91329000D01*
X173189500Y-90821000D02*
X173189500Y-91329000D01*
X172732300Y-90821000D02*
X173189500Y-90821000D01*
D15*
G04 #@! TO.C,J1*
X154565000Y-71294000D02*
X154865000Y-70694000D01*
X144805000Y-59884000D02*
X144805000Y-71604000D01*
X155115000Y-60494000D02*
X154615000Y-60494000D01*
X152115000Y-60494000D02*
X152115000Y-65994000D01*
X152115000Y-65994000D02*
X152615000Y-65994000D01*
X152615000Y-60494000D02*
X152115000Y-60494000D01*
X151115000Y-59884000D02*
X144805000Y-59884000D01*
X156005000Y-71604000D02*
X156005000Y-67104000D01*
X150115000Y-60494000D02*
X149615000Y-60494000D01*
X154615000Y-65994000D02*
X155115000Y-65994000D01*
X152615000Y-65994000D02*
X152615000Y-60494000D01*
X149615000Y-65994000D02*
X150115000Y-65994000D01*
X157425000Y-59884000D02*
X157425000Y-71604000D01*
X147115000Y-65994000D02*
X147615000Y-65994000D01*
X147115000Y-60494000D02*
X147115000Y-65994000D01*
X144805000Y-71604000D02*
X146225000Y-71604000D01*
X146225000Y-71604000D02*
X146225000Y-67104000D01*
X146225000Y-67104000D02*
X151115000Y-67104000D01*
X150115000Y-65994000D02*
X150115000Y-60494000D01*
X147615000Y-65994000D02*
X147615000Y-60494000D01*
X147615000Y-60494000D02*
X147115000Y-60494000D01*
X149615000Y-60494000D02*
X149615000Y-65994000D01*
X154865000Y-70694000D02*
X155165000Y-71294000D01*
X156005000Y-67104000D02*
X151115000Y-67104000D01*
X155115000Y-65994000D02*
X155115000Y-60494000D01*
X157425000Y-71604000D02*
X156005000Y-71604000D01*
X155165000Y-71294000D02*
X154565000Y-71294000D01*
X151115000Y-59884000D02*
X157425000Y-59884000D01*
X154615000Y-60494000D02*
X154615000Y-65994000D01*
G04 #@! TO.C,Q1*
X180299500Y-68159000D02*
X180299500Y-69089000D01*
X180299500Y-71319000D02*
X180299500Y-70389000D01*
X180299500Y-71319000D02*
X178839500Y-71319000D01*
X180299500Y-68159000D02*
X178139500Y-68159000D01*
G04 #@! TO.C,U1*
X142201500Y-74057000D02*
X159981500Y-74057000D01*
X159981500Y-74057000D02*
X159981500Y-91837000D01*
X142201500Y-91837000D02*
X142201500Y-74057000D01*
X159981500Y-91837000D02*
X142201500Y-91837000D01*
G04 #@! TD*
%LPC*%
D16*
G04 #@! TO.C,C3*
X181571500Y-75377800D03*
X181571500Y-73803000D03*
G04 #@! TD*
D17*
G04 #@! TO.C,C8*
X176694700Y-91075000D03*
X178269500Y-91075000D03*
G04 #@! TD*
D18*
G04 #@! TO.C,C1*
X175475500Y-68977000D03*
X175475500Y-70551800D03*
G04 #@! TD*
D19*
G04 #@! TO.C,C4*
X169125500Y-88535000D03*
X167550700Y-88535000D03*
G04 #@! TD*
D17*
G04 #@! TO.C,C7*
X172173500Y-88535000D03*
X173748300Y-88535000D03*
G04 #@! TD*
D20*
G04 #@! TO.C,U$1*
X179077500Y-73825000D03*
D21*
X177297500Y-73825000D03*
X175517500Y-73825000D03*
X173737500Y-73825000D03*
X171957500Y-73825000D03*
X170177500Y-73825000D03*
X168397500Y-73825000D03*
X166617500Y-73825000D03*
X166617500Y-86425000D03*
X168397500Y-86425000D03*
X170177500Y-86425000D03*
X171957500Y-86425000D03*
X173737500Y-86425000D03*
X175517500Y-86425000D03*
X177297500Y-86425000D03*
X179077500Y-86425000D03*
G04 #@! TD*
D18*
G04 #@! TO.C,C2*
X172935500Y-68977000D03*
X172935500Y-70551800D03*
G04 #@! TD*
D19*
G04 #@! TO.C,C5*
X169125500Y-91075000D03*
X167550700Y-91075000D03*
G04 #@! TD*
D17*
G04 #@! TO.C,C6*
X176694700Y-88535000D03*
X178269500Y-88535000D03*
G04 #@! TD*
G04 #@! TO.C,C9*
X172173500Y-91075000D03*
X173748300Y-91075000D03*
G04 #@! TD*
D22*
G04 #@! TO.C,J1*
X154865000Y-69194000D03*
D23*
X152365000Y-69194000D03*
X149865000Y-69194000D03*
X147365000Y-69194000D03*
G04 #@! TD*
D24*
G04 #@! TO.C,Q1*
X178539500Y-68789000D03*
X178539500Y-70689000D03*
X180539500Y-69739000D03*
G04 #@! TD*
D25*
G04 #@! TO.C,U1*
X158711500Y-90567000D03*
X158711500Y-88027000D03*
X158711500Y-85487000D03*
X158711500Y-82947000D03*
X158711500Y-80407000D03*
X158711500Y-77867000D03*
X158711500Y-75327000D03*
X143471500Y-75327000D03*
X143471500Y-77867000D03*
X143471500Y-80407000D03*
X143471500Y-82947000D03*
X143471500Y-85487000D03*
X143471500Y-88027000D03*
X143471500Y-90567000D03*
G04 #@! TD*
M02*
