G04 #@! TF.GenerationSoftware,KiCad,Pcbnew,(6.0.2)*
G04 #@! TF.CreationDate,2022-03-23T02:52:59+09:00*
G04 #@! TF.ProjectId,ADNS-9800,41444e53-2d39-4383-9030-2e6b69636164,rev?*
G04 #@! TF.SameCoordinates,Original*
G04 #@! TF.FileFunction,Copper,L2,Bot*
G04 #@! TF.FilePolarity,Positive*
%FSLAX46Y46*%
G04 Gerber Fmt 4.6, Leading zero omitted, Abs format (unit mm)*
G04 Created by KiCad (PCBNEW (6.0.2)) date 2022-03-23 02:52:59*
%MOMM*%
%LPD*%
G01*
G04 APERTURE LIST*
G04 Aperture macros list*
%AMRoundRect*
0 Rectangle with rounded corners*
0 $1 Rounding radius*
0 $2 $3 $4 $5 $6 $7 $8 $9 X,Y pos of 4 corners*
0 Add a 4 corners polygon primitive as box body*
4,1,4,$2,$3,$4,$5,$6,$7,$8,$9,$2,$3,0*
0 Add four circle primitives for the rounded corners*
1,1,$1+$1,$2,$3*
1,1,$1+$1,$4,$5*
1,1,$1+$1,$6,$7*
1,1,$1+$1,$8,$9*
0 Add four rect primitives between the rounded corners*
20,1,$1+$1,$2,$3,$4,$5,0*
20,1,$1+$1,$4,$5,$6,$7,0*
20,1,$1+$1,$6,$7,$8,$9,0*
20,1,$1+$1,$8,$9,$2,$3,0*%
G04 Aperture macros list end*
G04 #@! TA.AperFunction,Profile*
%ADD10C,0.200000*%
G04 #@! TD*
G04 #@! TA.AperFunction,Profile*
%ADD11C,0.127000*%
G04 #@! TD*
G04 #@! TA.AperFunction,ComponentPad*
%ADD12R,1.300000X1.300000*%
G04 #@! TD*
G04 #@! TA.AperFunction,ComponentPad*
%ADD13C,1.300000*%
G04 #@! TD*
G04 #@! TA.AperFunction,ComponentPad*
%ADD14RoundRect,0.250000X0.600000X0.725000X-0.600000X0.725000X-0.600000X-0.725000X0.600000X-0.725000X0*%
G04 #@! TD*
G04 #@! TA.AperFunction,ComponentPad*
%ADD15O,1.700000X1.950000*%
G04 #@! TD*
G04 #@! TA.AperFunction,ComponentPad*
%ADD16C,1.700000*%
G04 #@! TD*
G04 #@! TA.AperFunction,ViaPad*
%ADD17C,0.800000*%
G04 #@! TD*
G04 #@! TA.AperFunction,Conductor*
%ADD18C,0.250000*%
G04 #@! TD*
G04 #@! TA.AperFunction,Conductor*
%ADD19C,1.000000*%
G04 #@! TD*
G04 #@! TA.AperFunction,Conductor*
%ADD20C,0.500000*%
G04 #@! TD*
G04 APERTURE END LIST*
D10*
X183499999Y-68500000D02*
G75*
G03*
X181499999Y-66500000I-1999999J1D01*
G01*
X143500000Y-66500000D02*
X181499999Y-66500000D01*
X181499999Y-93800000D02*
X143500000Y-93800000D01*
X163499998Y-91800000D02*
G75*
G03*
X163499998Y-91800000I-999999J0D01*
G01*
X143500000Y-66500000D02*
G75*
G03*
X141500000Y-68500000I-1J-1999999D01*
G01*
X141500000Y-91800000D02*
X141500000Y-68500000D01*
X183499999Y-68500000D02*
X183499999Y-91800000D01*
X181499999Y-93800000D02*
G75*
G03*
X183499999Y-91800000I1J1999999D01*
G01*
X163499999Y-68500000D02*
G75*
G03*
X163499999Y-68500000I-999999J0D01*
G01*
X141500000Y-91800000D02*
G75*
G03*
X143500000Y-93800000I1999999J-1D01*
G01*
D11*
G04 #@! TO.C,U$1*
X179577500Y-75525000D02*
X166117500Y-75525000D01*
X166077500Y-84725000D02*
X179577500Y-84725000D01*
X179577500Y-84725000D02*
X179577500Y-75525000D01*
X166117500Y-75525000D02*
X166077500Y-84725000D01*
G04 #@! TD*
D12*
G04 #@! TO.P,U$1,P$1,1*
G04 #@! TO.N,Net-(C3-Pad2)*
X179077500Y-73825000D03*
D13*
G04 #@! TO.P,U$1,P$2,2*
G04 #@! TO.N,/LSR_NEN*
X177297500Y-73825000D03*
G04 #@! TO.P,U$1,P$3,3*
G04 #@! TO.N,/SS*
X175517500Y-73825000D03*
G04 #@! TO.P,U$1,P$4,4*
G04 #@! TO.N,/MISO*
X173737500Y-73825000D03*
G04 #@! TO.P,U$1,P$5,5*
G04 #@! TO.N,/SCLK*
X171957500Y-73825000D03*
G04 #@! TO.P,U$1,P$6,6*
G04 #@! TO.N,/MOSI*
X170177500Y-73825000D03*
G04 #@! TO.P,U$1,P$7,7*
G04 #@! TO.N,/MOTION*
X168397500Y-73825000D03*
G04 #@! TO.P,U$1,P$8,8*
G04 #@! TO.N,Net-(C3-Pad1)*
X166617500Y-73825000D03*
G04 #@! TO.P,U$1,P$9,9*
G04 #@! TO.N,+3V3*
X166617500Y-86425000D03*
G04 #@! TO.P,U$1,P$10,10*
X168397500Y-86425000D03*
G04 #@! TO.P,U$1,P$11,11*
G04 #@! TO.N,GND*
X170177500Y-86425000D03*
G04 #@! TO.P,U$1,P$12,12*
G04 #@! TO.N,+3V3*
X171957500Y-86425000D03*
G04 #@! TO.P,U$1,P$13,13*
G04 #@! TO.N,/REFA*
X173737500Y-86425000D03*
G04 #@! TO.P,U$1,P$14,14*
G04 #@! TO.N,GND*
X175517500Y-86425000D03*
G04 #@! TO.P,U$1,P$15,15*
G04 #@! TO.N,+3V3*
X177297500Y-86425000D03*
G04 #@! TO.P,U$1,P$16,16*
G04 #@! TO.N,Net-(C3-Pad1)*
X179077500Y-86425000D03*
G04 #@! TD*
D14*
G04 #@! TO.P,J1,1,Pin_1*
G04 #@! TO.N,+5V*
X154865000Y-69194000D03*
D15*
G04 #@! TO.P,J1,2,Pin_2*
G04 #@! TO.N,TX*
X152365000Y-69194000D03*
G04 #@! TO.P,J1,3,Pin_3*
G04 #@! TO.N,RX*
X149865000Y-69194000D03*
G04 #@! TO.P,J1,4,Pin_4*
G04 #@! TO.N,GND*
X147365000Y-69194000D03*
G04 #@! TD*
D16*
G04 #@! TO.P,U1,1,PA02_A0_D0*
G04 #@! TO.N,/MOTION*
X158711500Y-90567000D03*
G04 #@! TO.P,U1,2,PA4_A1_D1*
G04 #@! TO.N,unconnected-(U1-Pad2)*
X158711500Y-88027000D03*
G04 #@! TO.P,U1,3,PA10_A2_D2*
G04 #@! TO.N,unconnected-(U1-Pad3)*
X158711500Y-85487000D03*
G04 #@! TO.P,U1,4,PA11_A3_D3*
G04 #@! TO.N,/SS*
X158711500Y-82947000D03*
G04 #@! TO.P,U1,5,PA8_A4_D4_SDA*
G04 #@! TO.N,unconnected-(U1-Pad5)*
X158711500Y-80407000D03*
G04 #@! TO.P,U1,6,PA9_A5_D5_SCL*
G04 #@! TO.N,unconnected-(U1-Pad6)*
X158711500Y-77867000D03*
G04 #@! TO.P,U1,7,PB08_A6_D6_TX*
G04 #@! TO.N,TX*
X158711500Y-75327000D03*
G04 #@! TO.P,U1,8,PB09_A7_D7_RX*
G04 #@! TO.N,RX*
X143471500Y-75327000D03*
G04 #@! TO.P,U1,9,PA7_A8_D8_SCK*
G04 #@! TO.N,/SCLK*
X143471500Y-77867000D03*
G04 #@! TO.P,U1,10,PA5_A9_D9_MISO*
G04 #@! TO.N,/MISO*
X143471500Y-80407000D03*
G04 #@! TO.P,U1,11,PA6_A10_D10_MOSI*
G04 #@! TO.N,/MOSI*
X143471500Y-82947000D03*
G04 #@! TO.P,U1,12,3V3*
G04 #@! TO.N,+3V3*
X143471500Y-85487000D03*
G04 #@! TO.P,U1,13,GND*
G04 #@! TO.N,GND*
X143471500Y-88027000D03*
G04 #@! TO.P,U1,14,5V*
G04 #@! TO.N,+5V*
X143471500Y-90567000D03*
G04 #@! TD*
D17*
G04 #@! TO.N,/SS*
X164045499Y-76343000D03*
G04 #@! TO.N,/MOTION*
X164807499Y-77105000D03*
G04 #@! TO.N,GND*
X158457499Y-70755000D03*
X168617499Y-68215000D03*
X172173500Y-91075000D03*
X172935500Y-68977000D03*
X171157499Y-70755000D03*
X168617499Y-69485000D03*
X175240500Y-91075000D03*
X158457499Y-68215000D03*
X166077499Y-70755000D03*
X166077499Y-68215000D03*
X163537499Y-70755000D03*
X171157499Y-69485000D03*
X170668500Y-88535000D03*
X175240500Y-88535000D03*
X175602499Y-68977000D03*
X166077499Y-69485000D03*
X169125499Y-88535000D03*
X160997499Y-69485000D03*
X172173499Y-88535000D03*
X170668500Y-91075000D03*
X176694700Y-88535000D03*
X158457499Y-69485000D03*
X169125500Y-91075000D03*
X168617499Y-70755000D03*
X160997499Y-68215000D03*
X171157499Y-68215000D03*
X176745499Y-91075000D03*
X160997499Y-70755000D03*
G04 #@! TO.N,Net-(C3-Pad1)*
X181571000Y-75377800D03*
G04 #@! TO.N,+3V3*
X176176000Y-93168700D03*
X172935000Y-70551800D03*
G04 #@! TD*
D18*
G04 #@! TO.N,/SS*
X164299499Y-74058079D02*
X164298420Y-74058079D01*
X164298420Y-74058079D02*
X164045499Y-74311000D01*
X164045499Y-74311000D02*
X164045499Y-76343000D01*
X165964600Y-72392400D02*
X165964600Y-72392978D01*
X165964600Y-72392978D02*
X164299499Y-74058079D01*
X174084900Y-72392400D02*
X165964600Y-72392400D01*
X175517500Y-73825000D02*
X174084900Y-72392400D01*
G04 #@! TO.N,/MOTION*
X167415300Y-72842800D02*
X168397500Y-73825000D01*
X166151100Y-72842800D02*
X167415300Y-72842800D01*
X164799700Y-74194200D02*
X166151100Y-72842800D01*
X164799700Y-74194200D02*
X164799700Y-77097201D01*
X164799700Y-77097201D02*
X164807499Y-77105000D01*
G04 #@! TO.N,Net-(C3-Pad1)*
X168093000Y-75300500D02*
X181494000Y-75300500D01*
X179077500Y-86425000D02*
X179077300Y-86424800D01*
X181494000Y-75300500D02*
X181571000Y-75377800D01*
D19*
X181571000Y-83931000D02*
X181571000Y-75377800D01*
D18*
X179077300Y-86424800D02*
X179077300Y-86424700D01*
X166617300Y-73825200D02*
X168093000Y-75300500D01*
X166617500Y-73825000D02*
X166617300Y-73825200D01*
X166617000Y-73825000D02*
X166617300Y-73825200D01*
D19*
X179077300Y-86424700D02*
X181571000Y-83931000D01*
X179077000Y-86425000D02*
X179077300Y-86424700D01*
D18*
G04 #@! TO.N,TX*
X152365000Y-69194000D02*
X152578500Y-69194000D01*
X152578500Y-69194000D02*
X158711500Y-75327000D01*
D20*
G04 #@! TO.N,+5V*
X142171989Y-72308510D02*
X142171989Y-89267489D01*
X142171989Y-89267489D02*
X143471500Y-90567000D01*
X146711019Y-67769480D02*
X142171989Y-72308510D01*
X153440480Y-67769480D02*
X146711019Y-67769480D01*
X154865000Y-69194000D02*
X153440480Y-67769480D01*
G04 #@! TO.N,+3V3*
X182521000Y-86823500D02*
X176176000Y-93168700D01*
X182521000Y-74984500D02*
X182521000Y-86823500D01*
X178088000Y-70551800D02*
X182521000Y-74984500D01*
X172935000Y-70551800D02*
X178088000Y-70551800D01*
G04 #@! TD*
G04 #@! TA.AperFunction,Conductor*
G04 #@! TO.N,GND*
G36*
X161669952Y-67028002D02*
G01*
X161716445Y-67081658D01*
X161726549Y-67151932D01*
X161697055Y-67216512D01*
X161667666Y-67241432D01*
X161663600Y-67243924D01*
X161610880Y-67276231D01*
X161430386Y-67430386D01*
X161276231Y-67610880D01*
X161152208Y-67813266D01*
X161150315Y-67817836D01*
X161150314Y-67817838D01*
X161079218Y-67989479D01*
X161061373Y-68032562D01*
X161052094Y-68071212D01*
X161007116Y-68258555D01*
X161007115Y-68258561D01*
X161005961Y-68263368D01*
X160987811Y-68493989D01*
X160987338Y-68500000D01*
X161005961Y-68736632D01*
X161007115Y-68741439D01*
X161007116Y-68741445D01*
X161037205Y-68866773D01*
X161061373Y-68967438D01*
X161063266Y-68972009D01*
X161063267Y-68972011D01*
X161102199Y-69066000D01*
X161152208Y-69186734D01*
X161276231Y-69389120D01*
X161430386Y-69569614D01*
X161610880Y-69723769D01*
X161615102Y-69726356D01*
X161615103Y-69726357D01*
X161697051Y-69776575D01*
X161813266Y-69847792D01*
X161817836Y-69849685D01*
X161817838Y-69849686D01*
X161990506Y-69921207D01*
X162032562Y-69938627D01*
X162113661Y-69958097D01*
X162258555Y-69992884D01*
X162258561Y-69992885D01*
X162263368Y-69994039D01*
X162500000Y-70012662D01*
X162736632Y-69994039D01*
X162741439Y-69992885D01*
X162741445Y-69992884D01*
X162886339Y-69958097D01*
X162967438Y-69938627D01*
X163009494Y-69921207D01*
X163182162Y-69849686D01*
X163182164Y-69849685D01*
X163186734Y-69847792D01*
X163302949Y-69776575D01*
X163384897Y-69726357D01*
X163384898Y-69726356D01*
X163389120Y-69723769D01*
X163569614Y-69569614D01*
X163723769Y-69389120D01*
X163847792Y-69186734D01*
X163897802Y-69066000D01*
X163936733Y-68972011D01*
X163936734Y-68972009D01*
X163938627Y-68967438D01*
X163962795Y-68866773D01*
X163992884Y-68741445D01*
X163992885Y-68741439D01*
X163994039Y-68736632D01*
X164012662Y-68500000D01*
X163994039Y-68263368D01*
X163992885Y-68258561D01*
X163992884Y-68258555D01*
X163947906Y-68071212D01*
X163938627Y-68032562D01*
X163920782Y-67989479D01*
X163849686Y-67817838D01*
X163849685Y-67817836D01*
X163847792Y-67813266D01*
X163723769Y-67610880D01*
X163569614Y-67430386D01*
X163389120Y-67276231D01*
X163336400Y-67243924D01*
X163332334Y-67241432D01*
X163284702Y-67188784D01*
X163273096Y-67118743D01*
X163301200Y-67053545D01*
X163360090Y-67013892D01*
X163398169Y-67008000D01*
X181450671Y-67008000D01*
X181470055Y-67009500D01*
X181472283Y-67009847D01*
X181484858Y-67011805D01*
X181484860Y-67011805D01*
X181493729Y-67013186D01*
X181502631Y-67012022D01*
X181502633Y-67012022D01*
X181508958Y-67011195D01*
X181534281Y-67010452D01*
X181698125Y-67022170D01*
X181703342Y-67022543D01*
X181721136Y-67025101D01*
X181911539Y-67066521D01*
X181928787Y-67071586D01*
X182111357Y-67139682D01*
X182127709Y-67147149D01*
X182170796Y-67170676D01*
X182298733Y-67240534D01*
X182313847Y-67250248D01*
X182354352Y-67280569D01*
X182469841Y-67367023D01*
X182483427Y-67378796D01*
X182621203Y-67516572D01*
X182632976Y-67530158D01*
X182749751Y-67686152D01*
X182759465Y-67701266D01*
X182799498Y-67774581D01*
X182852850Y-67872290D01*
X182860317Y-67888642D01*
X182928413Y-68071212D01*
X182933478Y-68088460D01*
X182945790Y-68145054D01*
X182974898Y-68278863D01*
X182977456Y-68296658D01*
X182989040Y-68458629D01*
X182988296Y-68476533D01*
X182988194Y-68484858D01*
X182986813Y-68493730D01*
X182987977Y-68502632D01*
X182987977Y-68502635D01*
X182990935Y-68525251D01*
X182991999Y-68541589D01*
X182991999Y-74078647D01*
X182971997Y-74146768D01*
X182918341Y-74193261D01*
X182848067Y-74203365D01*
X182783487Y-74173871D01*
X182776907Y-74167745D01*
X182749849Y-74140688D01*
X180602917Y-71993902D01*
X178671763Y-70062879D01*
X178659375Y-70048466D01*
X178650845Y-70036875D01*
X178650844Y-70036874D01*
X178646508Y-70030982D01*
X178606209Y-69996746D01*
X178598693Y-69989815D01*
X178593001Y-69984123D01*
X178570694Y-69966475D01*
X178567352Y-69963734D01*
X178517296Y-69921207D01*
X178517288Y-69921202D01*
X178511715Y-69916467D01*
X178505199Y-69913140D01*
X178500153Y-69909775D01*
X178495003Y-69906594D01*
X178489262Y-69902052D01*
X178482633Y-69898954D01*
X178482628Y-69898951D01*
X178423117Y-69871141D01*
X178419191Y-69869222D01*
X178354192Y-69836031D01*
X178347078Y-69834290D01*
X178341418Y-69832185D01*
X178335655Y-69830268D01*
X178329025Y-69827170D01*
X178321859Y-69825680D01*
X178321857Y-69825679D01*
X178257597Y-69812315D01*
X178253304Y-69811344D01*
X178240244Y-69808148D01*
X178182390Y-69793992D01*
X178176788Y-69793644D01*
X178176785Y-69793644D01*
X178171236Y-69793300D01*
X178171238Y-69793264D01*
X178167255Y-69793025D01*
X178163026Y-69792648D01*
X178155859Y-69791157D01*
X178148546Y-69791355D01*
X178148544Y-69791355D01*
X178078456Y-69793254D01*
X178075044Y-69793300D01*
X173477587Y-69793300D01*
X173403528Y-69769237D01*
X173397098Y-69764565D01*
X173397091Y-69764561D01*
X173391752Y-69760682D01*
X173385724Y-69757998D01*
X173385722Y-69757997D01*
X173223319Y-69685691D01*
X173223318Y-69685691D01*
X173217288Y-69683006D01*
X173117899Y-69661880D01*
X173036944Y-69644672D01*
X173036939Y-69644672D01*
X173030487Y-69643300D01*
X172839513Y-69643300D01*
X172833061Y-69644672D01*
X172833056Y-69644672D01*
X172752101Y-69661880D01*
X172652712Y-69683006D01*
X172646682Y-69685691D01*
X172646681Y-69685691D01*
X172484278Y-69757997D01*
X172484276Y-69757998D01*
X172478248Y-69760682D01*
X172472907Y-69764562D01*
X172472906Y-69764563D01*
X172466473Y-69769237D01*
X172323747Y-69872934D01*
X172319326Y-69877844D01*
X172319325Y-69877845D01*
X172215744Y-69992884D01*
X172195960Y-70014856D01*
X172100473Y-70180244D01*
X172041458Y-70361872D01*
X172040768Y-70368433D01*
X172040768Y-70368435D01*
X172035283Y-70420623D01*
X172021496Y-70551800D01*
X172022186Y-70558365D01*
X172035065Y-70680898D01*
X172041458Y-70741728D01*
X172100473Y-70923356D01*
X172195960Y-71088744D01*
X172323747Y-71230666D01*
X172422843Y-71302664D01*
X172472904Y-71339035D01*
X172478248Y-71342918D01*
X172484276Y-71345602D01*
X172484278Y-71345603D01*
X172606048Y-71399818D01*
X172652712Y-71420594D01*
X172746113Y-71440447D01*
X172833056Y-71458928D01*
X172833061Y-71458928D01*
X172839513Y-71460300D01*
X173030487Y-71460300D01*
X173036939Y-71458928D01*
X173036944Y-71458928D01*
X173123887Y-71440447D01*
X173217288Y-71420594D01*
X173263952Y-71399818D01*
X173385722Y-71345603D01*
X173385724Y-71345602D01*
X173391752Y-71342918D01*
X173397091Y-71339039D01*
X173397098Y-71339035D01*
X173403528Y-71334363D01*
X173477587Y-71310300D01*
X177721647Y-71310300D01*
X177789768Y-71330302D01*
X177810736Y-71347200D01*
X178318772Y-71855201D01*
X178915013Y-72451402D01*
X178949041Y-72513713D01*
X178943978Y-72584529D01*
X178901433Y-72641366D01*
X178834914Y-72666179D01*
X178825921Y-72666500D01*
X178379366Y-72666500D01*
X178317184Y-72673255D01*
X178180795Y-72724385D01*
X178064239Y-72811739D01*
X178058858Y-72818919D01*
X178058591Y-72819186D01*
X177996279Y-72853212D01*
X177925464Y-72848147D01*
X177902260Y-72836652D01*
X177830589Y-72791430D01*
X177830580Y-72791425D01*
X177825701Y-72788347D01*
X177627941Y-72709449D01*
X177622281Y-72708323D01*
X177622277Y-72708322D01*
X177424782Y-72669038D01*
X177424780Y-72669038D01*
X177419115Y-72667911D01*
X177413340Y-72667835D01*
X177413336Y-72667835D01*
X177306661Y-72666439D01*
X177206216Y-72665124D01*
X177200519Y-72666103D01*
X177200518Y-72666103D01*
X177002064Y-72700203D01*
X177002061Y-72700204D01*
X176996374Y-72701181D01*
X176796616Y-72774875D01*
X176613634Y-72883739D01*
X176489776Y-72992360D01*
X176425375Y-73022235D01*
X176355042Y-73012549D01*
X176321176Y-72990154D01*
X176225771Y-72901963D01*
X176045701Y-72788347D01*
X175847941Y-72709449D01*
X175842281Y-72708323D01*
X175842277Y-72708322D01*
X175644782Y-72669038D01*
X175644780Y-72669038D01*
X175639115Y-72667911D01*
X175633340Y-72667835D01*
X175633336Y-72667835D01*
X175526661Y-72666439D01*
X175426216Y-72665124D01*
X175420519Y-72666103D01*
X175420518Y-72666103D01*
X175343150Y-72679397D01*
X175272625Y-72671220D01*
X175232717Y-72644312D01*
X174588552Y-72000147D01*
X174581012Y-71991861D01*
X174576900Y-71985382D01*
X174527248Y-71938756D01*
X174524407Y-71936002D01*
X174504670Y-71916265D01*
X174501473Y-71913785D01*
X174492451Y-71906080D01*
X174460221Y-71875814D01*
X174453275Y-71871995D01*
X174453272Y-71871993D01*
X174442466Y-71866052D01*
X174425947Y-71855201D01*
X174425483Y-71854841D01*
X174409941Y-71842786D01*
X174402672Y-71839641D01*
X174402668Y-71839638D01*
X174369363Y-71825226D01*
X174358713Y-71820009D01*
X174319960Y-71798705D01*
X174300337Y-71793667D01*
X174281634Y-71787263D01*
X174270320Y-71782367D01*
X174270319Y-71782367D01*
X174263045Y-71779219D01*
X174255222Y-71777980D01*
X174255212Y-71777977D01*
X174219376Y-71772301D01*
X174207756Y-71769895D01*
X174172611Y-71760872D01*
X174172610Y-71760872D01*
X174164930Y-71758900D01*
X174144676Y-71758900D01*
X174124965Y-71757349D01*
X174124511Y-71757277D01*
X174104957Y-71754180D01*
X174060950Y-71758340D01*
X174060939Y-71758341D01*
X174049081Y-71758900D01*
X166037250Y-71758900D01*
X166030533Y-71758583D01*
X166024691Y-71757277D01*
X166018677Y-71757466D01*
X166012809Y-71756631D01*
X166012481Y-71756610D01*
X166004694Y-71755125D01*
X165953592Y-71758340D01*
X165948649Y-71758651D01*
X165940738Y-71758900D01*
X165924744Y-71758900D01*
X165920821Y-71759396D01*
X165920815Y-71759396D01*
X165914642Y-71760176D01*
X165902815Y-71761107D01*
X165876734Y-71761927D01*
X165864710Y-71762305D01*
X165858960Y-71763976D01*
X165853217Y-71764610D01*
X165852863Y-71764677D01*
X165844950Y-71765175D01*
X165837411Y-71767624D01*
X165837408Y-71767625D01*
X165837113Y-71767721D01*
X165813969Y-71772894D01*
X165813665Y-71772932D01*
X165813660Y-71772933D01*
X165805803Y-71773926D01*
X165798438Y-71776842D01*
X165798434Y-71776843D01*
X165759207Y-71792374D01*
X165747980Y-71796218D01*
X165711006Y-71806960D01*
X165705779Y-71810051D01*
X165700821Y-71811925D01*
X165700269Y-71812185D01*
X165692725Y-71814636D01*
X165686029Y-71818886D01*
X165686028Y-71818886D01*
X165685769Y-71819050D01*
X165664642Y-71829815D01*
X165664356Y-71829928D01*
X165664350Y-71829931D01*
X165656983Y-71832848D01*
X165626217Y-71855201D01*
X165616944Y-71861938D01*
X165607022Y-71868455D01*
X165601040Y-71871993D01*
X165573237Y-71888436D01*
X165568817Y-71892856D01*
X165565108Y-71895463D01*
X165564273Y-71896153D01*
X165557582Y-71900400D01*
X165552156Y-71906178D01*
X165551941Y-71906407D01*
X165534154Y-71922088D01*
X165533909Y-71922266D01*
X165533907Y-71922268D01*
X165527493Y-71926928D01*
X165496544Y-71964339D01*
X165488554Y-71973119D01*
X163911868Y-73549805D01*
X163908813Y-73552498D01*
X163907057Y-73553537D01*
X163892733Y-73567861D01*
X163877701Y-73580700D01*
X163861313Y-73592607D01*
X163833132Y-73626672D01*
X163825142Y-73635452D01*
X163653246Y-73807348D01*
X163644960Y-73814888D01*
X163638481Y-73819000D01*
X163633056Y-73824777D01*
X163591856Y-73868651D01*
X163589101Y-73871493D01*
X163569364Y-73891230D01*
X163566884Y-73894427D01*
X163559181Y-73903447D01*
X163528913Y-73935679D01*
X163525094Y-73942625D01*
X163525092Y-73942628D01*
X163519151Y-73953434D01*
X163508300Y-73969953D01*
X163495885Y-73985959D01*
X163492740Y-73993228D01*
X163492737Y-73993232D01*
X163478325Y-74026537D01*
X163473108Y-74037187D01*
X163451804Y-74075940D01*
X163449833Y-74083615D01*
X163449833Y-74083616D01*
X163446766Y-74095562D01*
X163440362Y-74114266D01*
X163432318Y-74132855D01*
X163431079Y-74140678D01*
X163431076Y-74140688D01*
X163425400Y-74176524D01*
X163422994Y-74188144D01*
X163419086Y-74203365D01*
X163411999Y-74230970D01*
X163411999Y-74251224D01*
X163410448Y-74270934D01*
X163407279Y-74290943D01*
X163408025Y-74298835D01*
X163411440Y-74334961D01*
X163411999Y-74346819D01*
X163411999Y-75640476D01*
X163391997Y-75708597D01*
X163379641Y-75724779D01*
X163306459Y-75806056D01*
X163248185Y-75906990D01*
X163225651Y-75946020D01*
X163210972Y-75971444D01*
X163151957Y-76153072D01*
X163131995Y-76343000D01*
X163132685Y-76349565D01*
X163150863Y-76522516D01*
X163151957Y-76532928D01*
X163210972Y-76714556D01*
X163306459Y-76879944D01*
X163434246Y-77021866D01*
X163588747Y-77134118D01*
X163594775Y-77136802D01*
X163594777Y-77136803D01*
X163712915Y-77189401D01*
X163763211Y-77211794D01*
X163824970Y-77224921D01*
X163887442Y-77258649D01*
X163918604Y-77309231D01*
X163972972Y-77476556D01*
X164068459Y-77641944D01*
X164196246Y-77783866D01*
X164350747Y-77896118D01*
X164356775Y-77898802D01*
X164356777Y-77898803D01*
X164442363Y-77936908D01*
X164525211Y-77973794D01*
X164618612Y-77993647D01*
X164705555Y-78012128D01*
X164705560Y-78012128D01*
X164712012Y-78013500D01*
X164902986Y-78013500D01*
X164909438Y-78012128D01*
X164909443Y-78012128D01*
X164996386Y-77993647D01*
X165089787Y-77973794D01*
X165172635Y-77936908D01*
X165258221Y-77898803D01*
X165258223Y-77898802D01*
X165264251Y-77896118D01*
X165399108Y-77798138D01*
X165465973Y-77774281D01*
X165535125Y-77790361D01*
X165584605Y-77841274D01*
X165599166Y-77900623D01*
X165575023Y-83453453D01*
X165569607Y-84699198D01*
X165569024Y-84794652D01*
X165576759Y-84821715D01*
X165580413Y-84839017D01*
X165584283Y-84866902D01*
X165587961Y-84875086D01*
X165587963Y-84875092D01*
X165595363Y-84891555D01*
X165601584Y-84908576D01*
X165609012Y-84934565D01*
X165624029Y-84958365D01*
X165632393Y-84973948D01*
X165640254Y-84991438D01*
X165643935Y-84999628D01*
X165649763Y-85006451D01*
X165649764Y-85006453D01*
X165661487Y-85020178D01*
X165672239Y-85034775D01*
X165686660Y-85057631D01*
X165693389Y-85063574D01*
X165707760Y-85076266D01*
X165720160Y-85088873D01*
X165738441Y-85110276D01*
X165745951Y-85115190D01*
X165745954Y-85115193D01*
X165761055Y-85125075D01*
X165775466Y-85136062D01*
X165795728Y-85153956D01*
X165821203Y-85165916D01*
X165836645Y-85174538D01*
X165852685Y-85185035D01*
X165852694Y-85185039D01*
X165860203Y-85189953D01*
X165868794Y-85192563D01*
X165868796Y-85192564D01*
X165886061Y-85197809D01*
X165902983Y-85204312D01*
X165927448Y-85215799D01*
X165936318Y-85217180D01*
X165936321Y-85217181D01*
X165943491Y-85218298D01*
X166007723Y-85248543D01*
X166045406Y-85308714D01*
X166044576Y-85379706D01*
X166005497Y-85438979D01*
X165988525Y-85451082D01*
X165938603Y-85480782D01*
X165938597Y-85480786D01*
X165933634Y-85483739D01*
X165773554Y-85624125D01*
X165641738Y-85791333D01*
X165639049Y-85796444D01*
X165639047Y-85796447D01*
X165590039Y-85889596D01*
X165542600Y-85979762D01*
X165540886Y-85985283D01*
X165540884Y-85985287D01*
X165504763Y-86101616D01*
X165479461Y-86183102D01*
X165454436Y-86394544D01*
X165468361Y-86607006D01*
X165469782Y-86612602D01*
X165469783Y-86612607D01*
X165506953Y-86758961D01*
X165520772Y-86813372D01*
X165523189Y-86818615D01*
X165561420Y-86901544D01*
X165609911Y-87006731D01*
X165732796Y-87180609D01*
X165736930Y-87184636D01*
X165823527Y-87268995D01*
X165885309Y-87329181D01*
X165890105Y-87332386D01*
X165890108Y-87332388D01*
X165977825Y-87390998D01*
X166062343Y-87447471D01*
X166067646Y-87449749D01*
X166067649Y-87449751D01*
X166160708Y-87489732D01*
X166257970Y-87531519D01*
X166333816Y-87548681D01*
X166460001Y-87577234D01*
X166460006Y-87577235D01*
X166465638Y-87578509D01*
X166471409Y-87578736D01*
X166471411Y-87578736D01*
X166532752Y-87581146D01*
X166678391Y-87586869D01*
X166684100Y-87586041D01*
X166684104Y-87586041D01*
X166883390Y-87557145D01*
X166883394Y-87557144D01*
X166889105Y-87556316D01*
X167090723Y-87487876D01*
X167276493Y-87383840D01*
X167429282Y-87256768D01*
X167494446Y-87228588D01*
X167564501Y-87240112D01*
X167597771Y-87263389D01*
X167665309Y-87329181D01*
X167670105Y-87332386D01*
X167670108Y-87332388D01*
X167757825Y-87390998D01*
X167842343Y-87447471D01*
X167847646Y-87449749D01*
X167847649Y-87449751D01*
X167940708Y-87489732D01*
X168037970Y-87531519D01*
X168113816Y-87548681D01*
X168240001Y-87577234D01*
X168240006Y-87577235D01*
X168245638Y-87578509D01*
X168251409Y-87578736D01*
X168251411Y-87578736D01*
X168312752Y-87581146D01*
X168458391Y-87586869D01*
X168464100Y-87586041D01*
X168464104Y-87586041D01*
X168663390Y-87557145D01*
X168663394Y-87557144D01*
X168669105Y-87556316D01*
X168870723Y-87487876D01*
X169023452Y-87402344D01*
X169564516Y-87402344D01*
X169574398Y-87414834D01*
X169617779Y-87443820D01*
X169627889Y-87449310D01*
X169812818Y-87528762D01*
X169823761Y-87532317D01*
X170020067Y-87576737D01*
X170031475Y-87578239D01*
X170232596Y-87586140D01*
X170244080Y-87585538D01*
X170443274Y-87556657D01*
X170454457Y-87553972D01*
X170645047Y-87489276D01*
X170655560Y-87484595D01*
X170782266Y-87413635D01*
X170792131Y-87403557D01*
X170789175Y-87395885D01*
X170190312Y-86797022D01*
X170176368Y-86789408D01*
X170174535Y-86789539D01*
X170167920Y-86793790D01*
X169570712Y-87390998D01*
X169564516Y-87402344D01*
X169023452Y-87402344D01*
X169056493Y-87383840D01*
X169220193Y-87247693D01*
X169356340Y-87083993D01*
X169460376Y-86898223D01*
X169504616Y-86767897D01*
X169510190Y-86751476D01*
X169540408Y-86702882D01*
X169805478Y-86437812D01*
X169813092Y-86423868D01*
X169812961Y-86422035D01*
X169808710Y-86415420D01*
X169539282Y-86145992D01*
X169507108Y-86091099D01*
X169485254Y-86013611D01*
X169485253Y-86013609D01*
X169483686Y-86008052D01*
X169474198Y-85988811D01*
X169392070Y-85822273D01*
X169389515Y-85817092D01*
X169361835Y-85780023D01*
X169265574Y-85651114D01*
X169262122Y-85646491D01*
X169105771Y-85501963D01*
X169048079Y-85465562D01*
X169001141Y-85412295D01*
X168990452Y-85342108D01*
X169019407Y-85277284D01*
X169078811Y-85238404D01*
X169115315Y-85233000D01*
X169473759Y-85233000D01*
X169541880Y-85253002D01*
X169588373Y-85306658D01*
X169598477Y-85376932D01*
X169566080Y-85444749D01*
X169563807Y-85447196D01*
X169567293Y-85455583D01*
X170164688Y-86052978D01*
X170178632Y-86060592D01*
X170180465Y-86060461D01*
X170187080Y-86056210D01*
X170784033Y-85459257D01*
X170790793Y-85446878D01*
X170781534Y-85434510D01*
X170756723Y-85367990D01*
X170771814Y-85298615D01*
X170822016Y-85248413D01*
X170882402Y-85233000D01*
X171236867Y-85233000D01*
X171304988Y-85253002D01*
X171351481Y-85306658D01*
X171361585Y-85376932D01*
X171332091Y-85441512D01*
X171301292Y-85467284D01*
X171273634Y-85483739D01*
X171113554Y-85624125D01*
X170981738Y-85791333D01*
X170979049Y-85796444D01*
X170979047Y-85796447D01*
X170930039Y-85889596D01*
X170882600Y-85979762D01*
X170873816Y-86008052D01*
X170847088Y-86094129D01*
X170815851Y-86145859D01*
X170549522Y-86412188D01*
X170541908Y-86426132D01*
X170542039Y-86427965D01*
X170546290Y-86434580D01*
X170814379Y-86702669D01*
X170847407Y-86760748D01*
X170860772Y-86813372D01*
X170863189Y-86818615D01*
X170901420Y-86901544D01*
X170949911Y-87006731D01*
X171072796Y-87180609D01*
X171076930Y-87184636D01*
X171163527Y-87268995D01*
X171225309Y-87329181D01*
X171230105Y-87332386D01*
X171230108Y-87332388D01*
X171317825Y-87390998D01*
X171402343Y-87447471D01*
X171407646Y-87449749D01*
X171407649Y-87449751D01*
X171500708Y-87489732D01*
X171597970Y-87531519D01*
X171673816Y-87548681D01*
X171800001Y-87577234D01*
X171800006Y-87577235D01*
X171805638Y-87578509D01*
X171811409Y-87578736D01*
X171811411Y-87578736D01*
X171872752Y-87581146D01*
X172018391Y-87586869D01*
X172024100Y-87586041D01*
X172024104Y-87586041D01*
X172223390Y-87557145D01*
X172223394Y-87557144D01*
X172229105Y-87556316D01*
X172430723Y-87487876D01*
X172616493Y-87383840D01*
X172769282Y-87256768D01*
X172834446Y-87228588D01*
X172904501Y-87240112D01*
X172937771Y-87263389D01*
X173005309Y-87329181D01*
X173010105Y-87332386D01*
X173010108Y-87332388D01*
X173097825Y-87390998D01*
X173182343Y-87447471D01*
X173187646Y-87449749D01*
X173187649Y-87449751D01*
X173280708Y-87489732D01*
X173377970Y-87531519D01*
X173453816Y-87548681D01*
X173580001Y-87577234D01*
X173580006Y-87577235D01*
X173585638Y-87578509D01*
X173591409Y-87578736D01*
X173591411Y-87578736D01*
X173652752Y-87581146D01*
X173798391Y-87586869D01*
X173804100Y-87586041D01*
X173804104Y-87586041D01*
X174003390Y-87557145D01*
X174003394Y-87557144D01*
X174009105Y-87556316D01*
X174210723Y-87487876D01*
X174363452Y-87402344D01*
X174904516Y-87402344D01*
X174914398Y-87414834D01*
X174957779Y-87443820D01*
X174967889Y-87449310D01*
X175152818Y-87528762D01*
X175163761Y-87532317D01*
X175360067Y-87576737D01*
X175371475Y-87578239D01*
X175572596Y-87586140D01*
X175584080Y-87585538D01*
X175783274Y-87556657D01*
X175794457Y-87553972D01*
X175985047Y-87489276D01*
X175995560Y-87484595D01*
X176122266Y-87413635D01*
X176132131Y-87403557D01*
X176129175Y-87395885D01*
X175530312Y-86797022D01*
X175516368Y-86789408D01*
X175514535Y-86789539D01*
X175507920Y-86793790D01*
X174910712Y-87390998D01*
X174904516Y-87402344D01*
X174363452Y-87402344D01*
X174396493Y-87383840D01*
X174560193Y-87247693D01*
X174696340Y-87083993D01*
X174800376Y-86898223D01*
X174844616Y-86767897D01*
X174850190Y-86751476D01*
X174880408Y-86702882D01*
X175145478Y-86437812D01*
X175153092Y-86423868D01*
X175152961Y-86422035D01*
X175148710Y-86415420D01*
X174879282Y-86145992D01*
X174847108Y-86091099D01*
X174825254Y-86013611D01*
X174825253Y-86013609D01*
X174823686Y-86008052D01*
X174814198Y-85988811D01*
X174732070Y-85822273D01*
X174729515Y-85817092D01*
X174701835Y-85780023D01*
X174605574Y-85651114D01*
X174602122Y-85646491D01*
X174445771Y-85501963D01*
X174388079Y-85465562D01*
X174341141Y-85412295D01*
X174330452Y-85342108D01*
X174359407Y-85277284D01*
X174418811Y-85238404D01*
X174455315Y-85233000D01*
X174813759Y-85233000D01*
X174881880Y-85253002D01*
X174928373Y-85306658D01*
X174938477Y-85376932D01*
X174906080Y-85444749D01*
X174903807Y-85447196D01*
X174907293Y-85455583D01*
X175504688Y-86052978D01*
X175518632Y-86060592D01*
X175520465Y-86060461D01*
X175527080Y-86056210D01*
X176124033Y-85459257D01*
X176130793Y-85446878D01*
X176121534Y-85434510D01*
X176096723Y-85367990D01*
X176111814Y-85298615D01*
X176162016Y-85248413D01*
X176222402Y-85233000D01*
X176576867Y-85233000D01*
X176644988Y-85253002D01*
X176691481Y-85306658D01*
X176701585Y-85376932D01*
X176672091Y-85441512D01*
X176641292Y-85467284D01*
X176613634Y-85483739D01*
X176453554Y-85624125D01*
X176321738Y-85791333D01*
X176319049Y-85796444D01*
X176319047Y-85796447D01*
X176270039Y-85889596D01*
X176222600Y-85979762D01*
X176213816Y-86008052D01*
X176187088Y-86094129D01*
X176155851Y-86145859D01*
X175889522Y-86412188D01*
X175881908Y-86426132D01*
X175882039Y-86427965D01*
X175886290Y-86434580D01*
X176154379Y-86702669D01*
X176187407Y-86760748D01*
X176200772Y-86813372D01*
X176203189Y-86818615D01*
X176241420Y-86901544D01*
X176289911Y-87006731D01*
X176412796Y-87180609D01*
X176416930Y-87184636D01*
X176503527Y-87268995D01*
X176565309Y-87329181D01*
X176570105Y-87332386D01*
X176570108Y-87332388D01*
X176657825Y-87390998D01*
X176742343Y-87447471D01*
X176747646Y-87449749D01*
X176747649Y-87449751D01*
X176840708Y-87489732D01*
X176937970Y-87531519D01*
X177013816Y-87548681D01*
X177140001Y-87577234D01*
X177140006Y-87577235D01*
X177145638Y-87578509D01*
X177151409Y-87578736D01*
X177151411Y-87578736D01*
X177212752Y-87581146D01*
X177358391Y-87586869D01*
X177364100Y-87586041D01*
X177364104Y-87586041D01*
X177563390Y-87557145D01*
X177563394Y-87557144D01*
X177569105Y-87556316D01*
X177770723Y-87487876D01*
X177956493Y-87383840D01*
X178109282Y-87256768D01*
X178174446Y-87228588D01*
X178244501Y-87240112D01*
X178277771Y-87263389D01*
X178345309Y-87329181D01*
X178350105Y-87332386D01*
X178350108Y-87332388D01*
X178437825Y-87390998D01*
X178522343Y-87447471D01*
X178527646Y-87449749D01*
X178527649Y-87449751D01*
X178620708Y-87489732D01*
X178717970Y-87531519D01*
X178793816Y-87548681D01*
X178920001Y-87577234D01*
X178920006Y-87577235D01*
X178925638Y-87578509D01*
X178931409Y-87578736D01*
X178931411Y-87578736D01*
X178992752Y-87581146D01*
X179138391Y-87586869D01*
X179144100Y-87586041D01*
X179144104Y-87586041D01*
X179343390Y-87557145D01*
X179343394Y-87557144D01*
X179349105Y-87556316D01*
X179550723Y-87487876D01*
X179736493Y-87383840D01*
X179900193Y-87247693D01*
X180036340Y-87083993D01*
X180140376Y-86898223D01*
X180187649Y-86758961D01*
X180217867Y-86710368D01*
X180875257Y-86052978D01*
X181547405Y-85380829D01*
X181609717Y-85346804D01*
X181680532Y-85351868D01*
X181737368Y-85394415D01*
X181762179Y-85460935D01*
X181762500Y-85469924D01*
X181762500Y-86457137D01*
X181742498Y-86525258D01*
X181725597Y-86546231D01*
X176019654Y-92252353D01*
X175956754Y-92286506D01*
X175893712Y-92299906D01*
X175887682Y-92302591D01*
X175887681Y-92302591D01*
X175725278Y-92374897D01*
X175725276Y-92374898D01*
X175719248Y-92377582D01*
X175713907Y-92381462D01*
X175713906Y-92381463D01*
X175663843Y-92417836D01*
X175564747Y-92489834D01*
X175560326Y-92494744D01*
X175560325Y-92494745D01*
X175466698Y-92598729D01*
X175436960Y-92631756D01*
X175433659Y-92637474D01*
X175353073Y-92777053D01*
X175341473Y-92797144D01*
X175282458Y-92978772D01*
X175281768Y-92985333D01*
X175281768Y-92985335D01*
X175272144Y-93076906D01*
X175262496Y-93168700D01*
X175262396Y-93168690D01*
X175243184Y-93234121D01*
X175189528Y-93280614D01*
X175137186Y-93292000D01*
X163398168Y-93292000D01*
X163330047Y-93271998D01*
X163283554Y-93218342D01*
X163273450Y-93148068D01*
X163302944Y-93083488D01*
X163332333Y-93058568D01*
X163352339Y-93046308D01*
X163389119Y-93023769D01*
X163569613Y-92869614D01*
X163723768Y-92689120D01*
X163847791Y-92486734D01*
X163872240Y-92427710D01*
X163936732Y-92272011D01*
X163936733Y-92272009D01*
X163938626Y-92267438D01*
X163962794Y-92166773D01*
X163992883Y-92041445D01*
X163992884Y-92041439D01*
X163994038Y-92036632D01*
X164012661Y-91800000D01*
X163994038Y-91563368D01*
X163992884Y-91558561D01*
X163992883Y-91558555D01*
X163947059Y-91367689D01*
X163938626Y-91332562D01*
X163930338Y-91312553D01*
X163849685Y-91117838D01*
X163849684Y-91117836D01*
X163847791Y-91113266D01*
X163723768Y-90910880D01*
X163569613Y-90730386D01*
X163389119Y-90576231D01*
X163374056Y-90567000D01*
X163190956Y-90454796D01*
X163186733Y-90452208D01*
X163182163Y-90450315D01*
X163182161Y-90450314D01*
X162972010Y-90363267D01*
X162972008Y-90363266D01*
X162967437Y-90361373D01*
X162875672Y-90339342D01*
X162741444Y-90307116D01*
X162741438Y-90307115D01*
X162736631Y-90305961D01*
X162499999Y-90287338D01*
X162263367Y-90305961D01*
X162258560Y-90307115D01*
X162258554Y-90307116D01*
X162124326Y-90339342D01*
X162032561Y-90361373D01*
X162027990Y-90363266D01*
X162027988Y-90363267D01*
X161817837Y-90450314D01*
X161817835Y-90450315D01*
X161813265Y-90452208D01*
X161809042Y-90454796D01*
X161625943Y-90567000D01*
X161610879Y-90576231D01*
X161430385Y-90730386D01*
X161276230Y-90910880D01*
X161152207Y-91113266D01*
X161150314Y-91117836D01*
X161150313Y-91117838D01*
X161069660Y-91312553D01*
X161061372Y-91332562D01*
X161052939Y-91367689D01*
X161007115Y-91558555D01*
X161007114Y-91558561D01*
X161005960Y-91563368D01*
X160987810Y-91793989D01*
X160987337Y-91800000D01*
X161005960Y-92036632D01*
X161007114Y-92041439D01*
X161007115Y-92041445D01*
X161037204Y-92166773D01*
X161061372Y-92267438D01*
X161063265Y-92272009D01*
X161063266Y-92272011D01*
X161127759Y-92427710D01*
X161152207Y-92486734D01*
X161276230Y-92689120D01*
X161430385Y-92869614D01*
X161610879Y-93023769D01*
X161647659Y-93046308D01*
X161667665Y-93058568D01*
X161715297Y-93111216D01*
X161726903Y-93181257D01*
X161698799Y-93246455D01*
X161639909Y-93286108D01*
X161601830Y-93292000D01*
X143549328Y-93292000D01*
X143529943Y-93290500D01*
X143529661Y-93290456D01*
X143527117Y-93290060D01*
X143515141Y-93288195D01*
X143515139Y-93288195D01*
X143506270Y-93286814D01*
X143497368Y-93287978D01*
X143497366Y-93287978D01*
X143491041Y-93288805D01*
X143465718Y-93289548D01*
X143296657Y-93277457D01*
X143278863Y-93274899D01*
X143251978Y-93269051D01*
X143088460Y-93233479D01*
X143071212Y-93228414D01*
X142888642Y-93160318D01*
X142872290Y-93152851D01*
X142796040Y-93111216D01*
X142701266Y-93059466D01*
X142686152Y-93049752D01*
X142530159Y-92932977D01*
X142516572Y-92921204D01*
X142378796Y-92783428D01*
X142367023Y-92769842D01*
X142303434Y-92684897D01*
X142250248Y-92613848D01*
X142240531Y-92598729D01*
X142147149Y-92427710D01*
X142139682Y-92411358D01*
X142071586Y-92228788D01*
X142066520Y-92211538D01*
X142025101Y-92021137D01*
X142022543Y-92003342D01*
X142017463Y-91932308D01*
X142010959Y-91841369D01*
X142011703Y-91823467D01*
X142011805Y-91815142D01*
X142013186Y-91806270D01*
X142011888Y-91796338D01*
X142009064Y-91774749D01*
X142008000Y-91758411D01*
X142008000Y-91219112D01*
X142028002Y-91150991D01*
X142081658Y-91104498D01*
X142151932Y-91094394D01*
X142216512Y-91123888D01*
X142250743Y-91171709D01*
X142254766Y-91181616D01*
X142257465Y-91186020D01*
X142347266Y-91332562D01*
X142371487Y-91372088D01*
X142517750Y-91540938D01*
X142689626Y-91683632D01*
X142882500Y-91796338D01*
X142887325Y-91798180D01*
X142887326Y-91798181D01*
X142953544Y-91823467D01*
X143091192Y-91876030D01*
X143096260Y-91877061D01*
X143096263Y-91877062D01*
X143203517Y-91898883D01*
X143310097Y-91920567D01*
X143315272Y-91920757D01*
X143315274Y-91920757D01*
X143528173Y-91928564D01*
X143528177Y-91928564D01*
X143533337Y-91928753D01*
X143538457Y-91928097D01*
X143538459Y-91928097D01*
X143749788Y-91901025D01*
X143749789Y-91901025D01*
X143754916Y-91900368D01*
X143759866Y-91898883D01*
X143963929Y-91837661D01*
X143963934Y-91837659D01*
X143968884Y-91836174D01*
X144169494Y-91737896D01*
X144351360Y-91608173D01*
X144509596Y-91450489D01*
X144569094Y-91367689D01*
X144636935Y-91273277D01*
X144639953Y-91269077D01*
X144688075Y-91171710D01*
X144736636Y-91073453D01*
X144736637Y-91073451D01*
X144738930Y-91068811D01*
X144803870Y-90855069D01*
X144833029Y-90633590D01*
X144834352Y-90579445D01*
X144834574Y-90570365D01*
X144834574Y-90570361D01*
X144834656Y-90567000D01*
X144816352Y-90344361D01*
X144761931Y-90127702D01*
X144672854Y-89922840D01*
X144551514Y-89735277D01*
X144401170Y-89570051D01*
X144397119Y-89566852D01*
X144397115Y-89566848D01*
X144229914Y-89434800D01*
X144229910Y-89434798D01*
X144225859Y-89431598D01*
X144184069Y-89408529D01*
X144134098Y-89358097D01*
X144119326Y-89288654D01*
X144144442Y-89222248D01*
X144171793Y-89195642D01*
X144220747Y-89160723D01*
X144229148Y-89150023D01*
X144222160Y-89136870D01*
X143201385Y-88116095D01*
X143167359Y-88053783D01*
X143169194Y-88028132D01*
X143835908Y-88028132D01*
X143836039Y-88029965D01*
X143840290Y-88036580D01*
X144581974Y-88778264D01*
X144593984Y-88784823D01*
X144605723Y-88775855D01*
X144636504Y-88733019D01*
X144641815Y-88724180D01*
X144736170Y-88533267D01*
X144739969Y-88523672D01*
X144801876Y-88319915D01*
X144804055Y-88309834D01*
X144832090Y-88096887D01*
X144832609Y-88090212D01*
X144834072Y-88030364D01*
X144833878Y-88023646D01*
X144816281Y-87809604D01*
X144814596Y-87799424D01*
X144762714Y-87592875D01*
X144759394Y-87583124D01*
X144674472Y-87387814D01*
X144669605Y-87378739D01*
X144604563Y-87278197D01*
X144593877Y-87268995D01*
X144584312Y-87273398D01*
X143843522Y-88014188D01*
X143835908Y-88028132D01*
X143169194Y-88028132D01*
X143172424Y-87982968D01*
X143201385Y-87937905D01*
X144224889Y-86914401D01*
X144231910Y-86901544D01*
X144225111Y-86892213D01*
X144221059Y-86889521D01*
X144184102Y-86869120D01*
X144134131Y-86818687D01*
X144119359Y-86749245D01*
X144144475Y-86682839D01*
X144171827Y-86656232D01*
X144232987Y-86612607D01*
X144351360Y-86528173D01*
X144509596Y-86370489D01*
X144569094Y-86287689D01*
X144636935Y-86193277D01*
X144639953Y-86189077D01*
X144688377Y-86091099D01*
X144736636Y-85993453D01*
X144736637Y-85993451D01*
X144738930Y-85988811D01*
X144803870Y-85775069D01*
X144833029Y-85553590D01*
X144834195Y-85505884D01*
X144834574Y-85490365D01*
X144834574Y-85490361D01*
X144834656Y-85487000D01*
X144816352Y-85264361D01*
X144761931Y-85047702D01*
X144672854Y-84842840D01*
X144551514Y-84655277D01*
X144401170Y-84490051D01*
X144397119Y-84486852D01*
X144397115Y-84486848D01*
X144229914Y-84354800D01*
X144229910Y-84354798D01*
X144225859Y-84351598D01*
X144184553Y-84328796D01*
X144134584Y-84278364D01*
X144119812Y-84208921D01*
X144144928Y-84142516D01*
X144172280Y-84115909D01*
X144216103Y-84084650D01*
X144351360Y-83988173D01*
X144509596Y-83830489D01*
X144524897Y-83809196D01*
X144636935Y-83653277D01*
X144639953Y-83649077D01*
X144738930Y-83448811D01*
X144803870Y-83235069D01*
X144833029Y-83013590D01*
X144834656Y-82947000D01*
X144816352Y-82724361D01*
X144761931Y-82507702D01*
X144672854Y-82302840D01*
X144551514Y-82115277D01*
X144401170Y-81950051D01*
X144397119Y-81946852D01*
X144397115Y-81946848D01*
X144229914Y-81814800D01*
X144229910Y-81814798D01*
X144225859Y-81811598D01*
X144184553Y-81788796D01*
X144134584Y-81738364D01*
X144119812Y-81668921D01*
X144144928Y-81602516D01*
X144172280Y-81575909D01*
X144216103Y-81544650D01*
X144351360Y-81448173D01*
X144509596Y-81290489D01*
X144569094Y-81207689D01*
X144636935Y-81113277D01*
X144639953Y-81109077D01*
X144738930Y-80908811D01*
X144803870Y-80695069D01*
X144833029Y-80473590D01*
X144834656Y-80407000D01*
X144816352Y-80184361D01*
X144761931Y-79967702D01*
X144672854Y-79762840D01*
X144551514Y-79575277D01*
X144401170Y-79410051D01*
X144397119Y-79406852D01*
X144397115Y-79406848D01*
X144229914Y-79274800D01*
X144229910Y-79274798D01*
X144225859Y-79271598D01*
X144184553Y-79248796D01*
X144134584Y-79198364D01*
X144119812Y-79128921D01*
X144144928Y-79062516D01*
X144172280Y-79035909D01*
X144216103Y-79004650D01*
X144351360Y-78908173D01*
X144509596Y-78750489D01*
X144569094Y-78667689D01*
X144636935Y-78573277D01*
X144639953Y-78569077D01*
X144738930Y-78368811D01*
X144803870Y-78155069D01*
X144833029Y-77933590D01*
X144833111Y-77930240D01*
X144834574Y-77870365D01*
X144834574Y-77870361D01*
X144834656Y-77867000D01*
X144816352Y-77644361D01*
X144761931Y-77427702D01*
X144672854Y-77222840D01*
X144551514Y-77035277D01*
X144401170Y-76870051D01*
X144397119Y-76866852D01*
X144397115Y-76866848D01*
X144229914Y-76734800D01*
X144229910Y-76734798D01*
X144225859Y-76731598D01*
X144184553Y-76708796D01*
X144134584Y-76658364D01*
X144119812Y-76588921D01*
X144144928Y-76522516D01*
X144172280Y-76495909D01*
X144216103Y-76464650D01*
X144351360Y-76368173D01*
X144509596Y-76210489D01*
X144569094Y-76127689D01*
X144636935Y-76033277D01*
X144639953Y-76029077D01*
X144658338Y-75991879D01*
X144736636Y-75833453D01*
X144736637Y-75833451D01*
X144738930Y-75828811D01*
X144803870Y-75615069D01*
X144833029Y-75393590D01*
X144834656Y-75327000D01*
X144816352Y-75104361D01*
X144761931Y-74887702D01*
X144672854Y-74682840D01*
X144606718Y-74580609D01*
X144554322Y-74499617D01*
X144554320Y-74499614D01*
X144551514Y-74495277D01*
X144401170Y-74330051D01*
X144397119Y-74326852D01*
X144397115Y-74326848D01*
X144229914Y-74194800D01*
X144229910Y-74194798D01*
X144225859Y-74191598D01*
X144198553Y-74176524D01*
X144133635Y-74140688D01*
X144030289Y-74083638D01*
X144025420Y-74081914D01*
X144025416Y-74081912D01*
X143824587Y-74010795D01*
X143824583Y-74010794D01*
X143819712Y-74009069D01*
X143814619Y-74008162D01*
X143814616Y-74008161D01*
X143604873Y-73970800D01*
X143604867Y-73970799D01*
X143599784Y-73969894D01*
X143525952Y-73968992D01*
X143381581Y-73967228D01*
X143381579Y-73967228D01*
X143376411Y-73967165D01*
X143155591Y-74000955D01*
X143125486Y-74010795D01*
X143095634Y-74020552D01*
X143024670Y-74022703D01*
X142963808Y-73986147D01*
X142932372Y-73922490D01*
X142930489Y-73900787D01*
X142930489Y-72674881D01*
X142950491Y-72606760D01*
X142967394Y-72585786D01*
X145862339Y-69690841D01*
X145924651Y-69656815D01*
X145995466Y-69661880D01*
X146052302Y-69704427D01*
X146073394Y-69748285D01*
X146078131Y-69766539D01*
X146081665Y-69776575D01*
X146171937Y-69976970D01*
X146177106Y-69986256D01*
X146299850Y-70168575D01*
X146306519Y-70176870D01*
X146458228Y-70335900D01*
X146466186Y-70342941D01*
X146642525Y-70474141D01*
X146651562Y-70479745D01*
X146847484Y-70579357D01*
X146857335Y-70583357D01*
X147067240Y-70648534D01*
X147077624Y-70650817D01*
X147093043Y-70652861D01*
X147107207Y-70650665D01*
X147111000Y-70637478D01*
X147111000Y-69066000D01*
X147131002Y-68997879D01*
X147184658Y-68951386D01*
X147237000Y-68940000D01*
X147493000Y-68940000D01*
X147561121Y-68960002D01*
X147607614Y-69013658D01*
X147619000Y-69066000D01*
X147619000Y-70635192D01*
X147622973Y-70648723D01*
X147633580Y-70650248D01*
X147751421Y-70625523D01*
X147761617Y-70622463D01*
X147966029Y-70541737D01*
X147975561Y-70537006D01*
X148163462Y-70422984D01*
X148172052Y-70416720D01*
X148338052Y-70272673D01*
X148345472Y-70265042D01*
X148484826Y-70095089D01*
X148490848Y-70086326D01*
X148506238Y-70059289D01*
X148557320Y-70009982D01*
X148626951Y-69996120D01*
X148693022Y-70022103D01*
X148720261Y-70051253D01*
X148749773Y-70095089D01*
X148802441Y-70173319D01*
X148806120Y-70177176D01*
X148806122Y-70177178D01*
X148867710Y-70241738D01*
X148961576Y-70340135D01*
X149146542Y-70477754D01*
X149151293Y-70480170D01*
X149151297Y-70480172D01*
X149214481Y-70512296D01*
X149352051Y-70582240D01*
X149357145Y-70583822D01*
X149357148Y-70583823D01*
X149522583Y-70635192D01*
X149572227Y-70650607D01*
X149577516Y-70651308D01*
X149795489Y-70680198D01*
X149795494Y-70680198D01*
X149800774Y-70680898D01*
X149806103Y-70680698D01*
X149806105Y-70680698D01*
X149915966Y-70676574D01*
X150031158Y-70672249D01*
X150256791Y-70624907D01*
X150261750Y-70622949D01*
X150261752Y-70622948D01*
X150466256Y-70542185D01*
X150466258Y-70542184D01*
X150471221Y-70540224D01*
X150476525Y-70537006D01*
X150663757Y-70423390D01*
X150663756Y-70423390D01*
X150668317Y-70420623D01*
X150743257Y-70355594D01*
X150838412Y-70273023D01*
X150838414Y-70273021D01*
X150842445Y-70269523D01*
X150910496Y-70186529D01*
X150985240Y-70095373D01*
X150985244Y-70095367D01*
X150988624Y-70091245D01*
X151006552Y-70059750D01*
X151057632Y-70010445D01*
X151127262Y-69996583D01*
X151193333Y-70022566D01*
X151220573Y-70051716D01*
X151225983Y-70059752D01*
X151302441Y-70173319D01*
X151306120Y-70177176D01*
X151306122Y-70177178D01*
X151367710Y-70241738D01*
X151461576Y-70340135D01*
X151646542Y-70477754D01*
X151651293Y-70480170D01*
X151651297Y-70480172D01*
X151714481Y-70512296D01*
X151852051Y-70582240D01*
X151857145Y-70583822D01*
X151857148Y-70583823D01*
X152022583Y-70635192D01*
X152072227Y-70650607D01*
X152077516Y-70651308D01*
X152295489Y-70680198D01*
X152295494Y-70680198D01*
X152300774Y-70680898D01*
X152306103Y-70680698D01*
X152306105Y-70680698D01*
X152415966Y-70676574D01*
X152531158Y-70672249D01*
X152756791Y-70624907D01*
X152761750Y-70622949D01*
X152761752Y-70622948D01*
X152810852Y-70603557D01*
X152935607Y-70554289D01*
X153006311Y-70547871D01*
X153070982Y-70582386D01*
X155218366Y-72729771D01*
X157361277Y-74872682D01*
X157395303Y-74934994D01*
X157393600Y-74995446D01*
X157372489Y-75071570D01*
X157348751Y-75293695D01*
X157349048Y-75298848D01*
X157349048Y-75298851D01*
X157357714Y-75449141D01*
X157361610Y-75516715D01*
X157362747Y-75521761D01*
X157362748Y-75521767D01*
X157379174Y-75594652D01*
X157410722Y-75734639D01*
X157494766Y-75941616D01*
X157545519Y-76024438D01*
X157567312Y-76060000D01*
X157611487Y-76132088D01*
X157757750Y-76300938D01*
X157929626Y-76443632D01*
X158000095Y-76484811D01*
X158002945Y-76486476D01*
X158051669Y-76538114D01*
X158064740Y-76607897D01*
X158038009Y-76673669D01*
X157997555Y-76707027D01*
X157985107Y-76713507D01*
X157980974Y-76716610D01*
X157980971Y-76716612D01*
X157956747Y-76734800D01*
X157806465Y-76847635D01*
X157652129Y-77009138D01*
X157649215Y-77013410D01*
X157649214Y-77013411D01*
X157640798Y-77025749D01*
X157526243Y-77193680D01*
X157432188Y-77396305D01*
X157372489Y-77611570D01*
X157348751Y-77833695D01*
X157349048Y-77838848D01*
X157349048Y-77838851D01*
X157354511Y-77933590D01*
X157361610Y-78056715D01*
X157362747Y-78061761D01*
X157362748Y-78061767D01*
X157382619Y-78149939D01*
X157410722Y-78274639D01*
X157494766Y-78481616D01*
X157611487Y-78672088D01*
X157757750Y-78840938D01*
X157929626Y-78983632D01*
X158000095Y-79024811D01*
X158002945Y-79026476D01*
X158051669Y-79078114D01*
X158064740Y-79147897D01*
X158038009Y-79213669D01*
X157997555Y-79247027D01*
X157985107Y-79253507D01*
X157980974Y-79256610D01*
X157980971Y-79256612D01*
X157956747Y-79274800D01*
X157806465Y-79387635D01*
X157652129Y-79549138D01*
X157526243Y-79733680D01*
X157432188Y-79936305D01*
X157372489Y-80151570D01*
X157348751Y-80373695D01*
X157349048Y-80378848D01*
X157349048Y-80378851D01*
X157354511Y-80473590D01*
X157361610Y-80596715D01*
X157362747Y-80601761D01*
X157362748Y-80601767D01*
X157382619Y-80689939D01*
X157410722Y-80814639D01*
X157494766Y-81021616D01*
X157611487Y-81212088D01*
X157757750Y-81380938D01*
X157929626Y-81523632D01*
X158000095Y-81564811D01*
X158002945Y-81566476D01*
X158051669Y-81618114D01*
X158064740Y-81687897D01*
X158038009Y-81753669D01*
X157997555Y-81787027D01*
X157985107Y-81793507D01*
X157980974Y-81796610D01*
X157980971Y-81796612D01*
X157956747Y-81814800D01*
X157806465Y-81927635D01*
X157652129Y-82089138D01*
X157526243Y-82273680D01*
X157432188Y-82476305D01*
X157372489Y-82691570D01*
X157348751Y-82913695D01*
X157349048Y-82918848D01*
X157349048Y-82918851D01*
X157354511Y-83013590D01*
X157361610Y-83136715D01*
X157362747Y-83141761D01*
X157362748Y-83141767D01*
X157382619Y-83229939D01*
X157410722Y-83354639D01*
X157494766Y-83561616D01*
X157611487Y-83752088D01*
X157757750Y-83920938D01*
X157929626Y-84063632D01*
X158000095Y-84104811D01*
X158002945Y-84106476D01*
X158051669Y-84158114D01*
X158064740Y-84227897D01*
X158038009Y-84293669D01*
X157997555Y-84327027D01*
X157985107Y-84333507D01*
X157980974Y-84336610D01*
X157980971Y-84336612D01*
X157956747Y-84354800D01*
X157806465Y-84467635D01*
X157652129Y-84629138D01*
X157526243Y-84813680D01*
X157432188Y-85016305D01*
X157372489Y-85231570D01*
X157348751Y-85453695D01*
X157349048Y-85458848D01*
X157349048Y-85458851D01*
X157354511Y-85553590D01*
X157361610Y-85676715D01*
X157362747Y-85681761D01*
X157362748Y-85681767D01*
X157382619Y-85769939D01*
X157410722Y-85894639D01*
X157447529Y-85985284D01*
X157490496Y-86091099D01*
X157494766Y-86101616D01*
X157611487Y-86292088D01*
X157757750Y-86460938D01*
X157929626Y-86603632D01*
X157935400Y-86607006D01*
X158002945Y-86646476D01*
X158051669Y-86698114D01*
X158064740Y-86767897D01*
X158038009Y-86833669D01*
X157997555Y-86867027D01*
X157985107Y-86873507D01*
X157980974Y-86876610D01*
X157980971Y-86876612D01*
X157810600Y-87004530D01*
X157806465Y-87007635D01*
X157652129Y-87169138D01*
X157526243Y-87353680D01*
X157493052Y-87425184D01*
X157444752Y-87529239D01*
X157432188Y-87556305D01*
X157372489Y-87771570D01*
X157348751Y-87993695D01*
X157349048Y-87998848D01*
X157349048Y-87998851D01*
X157354511Y-88093590D01*
X157361610Y-88216715D01*
X157362747Y-88221761D01*
X157362748Y-88221767D01*
X157382619Y-88309939D01*
X157410722Y-88434639D01*
X157494766Y-88641616D01*
X157611487Y-88832088D01*
X157757750Y-89000938D01*
X157929626Y-89143632D01*
X157940563Y-89150023D01*
X158002945Y-89186476D01*
X158051669Y-89238114D01*
X158064740Y-89307897D01*
X158038009Y-89373669D01*
X157997555Y-89407027D01*
X157985107Y-89413507D01*
X157980974Y-89416610D01*
X157980971Y-89416612D01*
X157956747Y-89434800D01*
X157806465Y-89547635D01*
X157652129Y-89709138D01*
X157526243Y-89893680D01*
X157432188Y-90096305D01*
X157372489Y-90311570D01*
X157348751Y-90533695D01*
X157349048Y-90538848D01*
X157349048Y-90538851D01*
X157354511Y-90633590D01*
X157361610Y-90756715D01*
X157362747Y-90761761D01*
X157362748Y-90761767D01*
X157382619Y-90849939D01*
X157410722Y-90974639D01*
X157448961Y-91068811D01*
X157490744Y-91171710D01*
X157494766Y-91181616D01*
X157497465Y-91186020D01*
X157587266Y-91332562D01*
X157611487Y-91372088D01*
X157757750Y-91540938D01*
X157929626Y-91683632D01*
X158122500Y-91796338D01*
X158127325Y-91798180D01*
X158127326Y-91798181D01*
X158193544Y-91823467D01*
X158331192Y-91876030D01*
X158336260Y-91877061D01*
X158336263Y-91877062D01*
X158443517Y-91898883D01*
X158550097Y-91920567D01*
X158555272Y-91920757D01*
X158555274Y-91920757D01*
X158768173Y-91928564D01*
X158768177Y-91928564D01*
X158773337Y-91928753D01*
X158778457Y-91928097D01*
X158778459Y-91928097D01*
X158989788Y-91901025D01*
X158989789Y-91901025D01*
X158994916Y-91900368D01*
X158999866Y-91898883D01*
X159203929Y-91837661D01*
X159203934Y-91837659D01*
X159208884Y-91836174D01*
X159409494Y-91737896D01*
X159591360Y-91608173D01*
X159749596Y-91450489D01*
X159809094Y-91367689D01*
X159876935Y-91273277D01*
X159879953Y-91269077D01*
X159928075Y-91171710D01*
X159976636Y-91073453D01*
X159976637Y-91073451D01*
X159978930Y-91068811D01*
X160043870Y-90855069D01*
X160073029Y-90633590D01*
X160074352Y-90579445D01*
X160074574Y-90570365D01*
X160074574Y-90570361D01*
X160074656Y-90567000D01*
X160056352Y-90344361D01*
X160001931Y-90127702D01*
X159912854Y-89922840D01*
X159791514Y-89735277D01*
X159641170Y-89570051D01*
X159637119Y-89566852D01*
X159637115Y-89566848D01*
X159469914Y-89434800D01*
X159469910Y-89434798D01*
X159465859Y-89431598D01*
X159424553Y-89408796D01*
X159374584Y-89358364D01*
X159359812Y-89288921D01*
X159384928Y-89222516D01*
X159412280Y-89195909D01*
X159476610Y-89150023D01*
X159591360Y-89068173D01*
X159749596Y-88910489D01*
X159809094Y-88827689D01*
X159876935Y-88733277D01*
X159879953Y-88729077D01*
X159882374Y-88724180D01*
X159976636Y-88533453D01*
X159976637Y-88533451D01*
X159978930Y-88528811D01*
X160043870Y-88315069D01*
X160073029Y-88093590D01*
X160074656Y-88027000D01*
X160056352Y-87804361D01*
X160001931Y-87587702D01*
X159912854Y-87382840D01*
X159835578Y-87263389D01*
X159794322Y-87199617D01*
X159794320Y-87199614D01*
X159791514Y-87195277D01*
X159641170Y-87030051D01*
X159637119Y-87026852D01*
X159637115Y-87026848D01*
X159469914Y-86894800D01*
X159469910Y-86894798D01*
X159465859Y-86891598D01*
X159424553Y-86868796D01*
X159374584Y-86818364D01*
X159359812Y-86748921D01*
X159384928Y-86682516D01*
X159412280Y-86655909D01*
X159472987Y-86612607D01*
X159591360Y-86528173D01*
X159749596Y-86370489D01*
X159809094Y-86287689D01*
X159876935Y-86193277D01*
X159879953Y-86189077D01*
X159928377Y-86091099D01*
X159976636Y-85993453D01*
X159976637Y-85993451D01*
X159978930Y-85988811D01*
X160043870Y-85775069D01*
X160073029Y-85553590D01*
X160074195Y-85505884D01*
X160074574Y-85490365D01*
X160074574Y-85490361D01*
X160074656Y-85487000D01*
X160056352Y-85264361D01*
X160001931Y-85047702D01*
X159912854Y-84842840D01*
X159791514Y-84655277D01*
X159641170Y-84490051D01*
X159637119Y-84486852D01*
X159637115Y-84486848D01*
X159469914Y-84354800D01*
X159469910Y-84354798D01*
X159465859Y-84351598D01*
X159424553Y-84328796D01*
X159374584Y-84278364D01*
X159359812Y-84208921D01*
X159384928Y-84142516D01*
X159412280Y-84115909D01*
X159456103Y-84084650D01*
X159591360Y-83988173D01*
X159749596Y-83830489D01*
X159764897Y-83809196D01*
X159876935Y-83653277D01*
X159879953Y-83649077D01*
X159978930Y-83448811D01*
X160043870Y-83235069D01*
X160073029Y-83013590D01*
X160074656Y-82947000D01*
X160056352Y-82724361D01*
X160001931Y-82507702D01*
X159912854Y-82302840D01*
X159791514Y-82115277D01*
X159641170Y-81950051D01*
X159637119Y-81946852D01*
X159637115Y-81946848D01*
X159469914Y-81814800D01*
X159469910Y-81814798D01*
X159465859Y-81811598D01*
X159424553Y-81788796D01*
X159374584Y-81738364D01*
X159359812Y-81668921D01*
X159384928Y-81602516D01*
X159412280Y-81575909D01*
X159456103Y-81544650D01*
X159591360Y-81448173D01*
X159749596Y-81290489D01*
X159809094Y-81207689D01*
X159876935Y-81113277D01*
X159879953Y-81109077D01*
X159978930Y-80908811D01*
X160043870Y-80695069D01*
X160073029Y-80473590D01*
X160074656Y-80407000D01*
X160056352Y-80184361D01*
X160001931Y-79967702D01*
X159912854Y-79762840D01*
X159791514Y-79575277D01*
X159641170Y-79410051D01*
X159637119Y-79406852D01*
X159637115Y-79406848D01*
X159469914Y-79274800D01*
X159469910Y-79274798D01*
X159465859Y-79271598D01*
X159424553Y-79248796D01*
X159374584Y-79198364D01*
X159359812Y-79128921D01*
X159384928Y-79062516D01*
X159412280Y-79035909D01*
X159456103Y-79004650D01*
X159591360Y-78908173D01*
X159749596Y-78750489D01*
X159809094Y-78667689D01*
X159876935Y-78573277D01*
X159879953Y-78569077D01*
X159978930Y-78368811D01*
X160043870Y-78155069D01*
X160073029Y-77933590D01*
X160073111Y-77930240D01*
X160074574Y-77870365D01*
X160074574Y-77870361D01*
X160074656Y-77867000D01*
X160056352Y-77644361D01*
X160001931Y-77427702D01*
X159912854Y-77222840D01*
X159791514Y-77035277D01*
X159641170Y-76870051D01*
X159637119Y-76866852D01*
X159637115Y-76866848D01*
X159469914Y-76734800D01*
X159469910Y-76734798D01*
X159465859Y-76731598D01*
X159424553Y-76708796D01*
X159374584Y-76658364D01*
X159359812Y-76588921D01*
X159384928Y-76522516D01*
X159412280Y-76495909D01*
X159456103Y-76464650D01*
X159591360Y-76368173D01*
X159749596Y-76210489D01*
X159809094Y-76127689D01*
X159876935Y-76033277D01*
X159879953Y-76029077D01*
X159898338Y-75991879D01*
X159976636Y-75833453D01*
X159976637Y-75833451D01*
X159978930Y-75828811D01*
X160043870Y-75615069D01*
X160073029Y-75393590D01*
X160074656Y-75327000D01*
X160056352Y-75104361D01*
X160001931Y-74887702D01*
X159912854Y-74682840D01*
X159846718Y-74580609D01*
X159794322Y-74499617D01*
X159794320Y-74499614D01*
X159791514Y-74495277D01*
X159641170Y-74330051D01*
X159637119Y-74326852D01*
X159637115Y-74326848D01*
X159469914Y-74194800D01*
X159469910Y-74194798D01*
X159465859Y-74191598D01*
X159438553Y-74176524D01*
X159373635Y-74140688D01*
X159270289Y-74083638D01*
X159265420Y-74081914D01*
X159265416Y-74081912D01*
X159064587Y-74010795D01*
X159064583Y-74010794D01*
X159059712Y-74009069D01*
X159054619Y-74008162D01*
X159054616Y-74008161D01*
X158844873Y-73970800D01*
X158844867Y-73970799D01*
X158839784Y-73969894D01*
X158765952Y-73968992D01*
X158621581Y-73967228D01*
X158621579Y-73967228D01*
X158616411Y-73967165D01*
X158395591Y-74000955D01*
X158383032Y-74005060D01*
X158312068Y-74007210D01*
X158254794Y-73974389D01*
X155173000Y-70892595D01*
X155138974Y-70830283D01*
X155144039Y-70759468D01*
X155186586Y-70702632D01*
X155253106Y-70677821D01*
X155262095Y-70677500D01*
X155515400Y-70677500D01*
X155518646Y-70677163D01*
X155518650Y-70677163D01*
X155614308Y-70667238D01*
X155614312Y-70667237D01*
X155621166Y-70666526D01*
X155627702Y-70664345D01*
X155627704Y-70664345D01*
X155781998Y-70612868D01*
X155788946Y-70610550D01*
X155939348Y-70517478D01*
X156064305Y-70392303D01*
X156096462Y-70340135D01*
X156153275Y-70247968D01*
X156153276Y-70247966D01*
X156157115Y-70241738D01*
X156207031Y-70091245D01*
X156210632Y-70080389D01*
X156210632Y-70080387D01*
X156212797Y-70073861D01*
X156215114Y-70051253D01*
X156219107Y-70012274D01*
X156223500Y-69969400D01*
X156223500Y-68418600D01*
X156223163Y-68415350D01*
X156213238Y-68319692D01*
X156213237Y-68319688D01*
X156212526Y-68312834D01*
X156201193Y-68278863D01*
X156158868Y-68152002D01*
X156156550Y-68145054D01*
X156063478Y-67994652D01*
X155938303Y-67869695D01*
X155787738Y-67776885D01*
X155707995Y-67750436D01*
X155626389Y-67723368D01*
X155626387Y-67723368D01*
X155619861Y-67721203D01*
X155613025Y-67720503D01*
X155613022Y-67720502D01*
X155569969Y-67716091D01*
X155515400Y-67710500D01*
X154506371Y-67710500D01*
X154438250Y-67690498D01*
X154417276Y-67673595D01*
X154024250Y-67280569D01*
X154011864Y-67266157D01*
X154003331Y-67254562D01*
X154003326Y-67254557D01*
X153998988Y-67248662D01*
X153977049Y-67230023D01*
X153938086Y-67170676D01*
X153937393Y-67099683D01*
X153975193Y-67039585D01*
X154039483Y-67009463D01*
X154058630Y-67008000D01*
X161601831Y-67008000D01*
X161669952Y-67028002D01*
G37*
G04 #@! TD.AperFunction*
G04 #@! TD*
M02*
