%TF.GenerationSoftware,KiCad,Pcbnew,(5.1.10)-1*%
%TF.CreationDate,2021-11-13T22:23:51+09:00*%
%TF.ProjectId,herakuresu.line,68657261-6b75-4726-9573-752e6c696e65,rev?*%
%TF.SameCoordinates,Original*%
%TF.FileFunction,Soldermask,Top*%
%TF.FilePolarity,Negative*%
%FSLAX46Y46*%
G04 Gerber Fmt 4.6, Leading zero omitted, Abs format (unit mm)*
G04 Created by KiCad (PCBNEW (5.1.10)-1) date 2021-11-13 22:23:51*
%MOMM*%
%LPD*%
G01*
G04 APERTURE LIST*
%ADD10O,1.700000X1.700000*%
%ADD11R,1.700000X1.700000*%
%ADD12C,1.600000*%
%ADD13R,1.800000X1.800000*%
%ADD14C,1.800000*%
%ADD15C,1.524000*%
%ADD16O,2.000000X1.700000*%
%ADD17C,1.635000*%
%ADD18R,2.000000X1.905000*%
%ADD19O,2.000000X1.905000*%
%ADD20O,1.500000X2.700000*%
%ADD21O,1.700000X2.000000*%
%ADD22C,2.700000*%
%ADD23O,1.700000X1.950000*%
G04 APERTURE END LIST*
D10*
%TO.C,REF\u002A\u002A*%
X186714985Y-78434968D03*
X186714985Y-75894968D03*
X186714985Y-73354968D03*
X186714985Y-70814968D03*
X186714985Y-68274968D03*
X186714985Y-65734968D03*
X186714985Y-63194968D03*
X186714985Y-60654968D03*
D11*
X186714985Y-58114968D03*
%TD*%
%TO.C,REF\u002A\u002A*%
X191794985Y-58114968D03*
D10*
X189254985Y-58114968D03*
X191794985Y-60654968D03*
X189254985Y-60654968D03*
X191794985Y-63194968D03*
X189254985Y-63194968D03*
X191794985Y-65734968D03*
X189254985Y-65734968D03*
X191794985Y-68274968D03*
X189254985Y-68274968D03*
X191794985Y-70814968D03*
X189254985Y-70814968D03*
X191794985Y-73354968D03*
X189254985Y-73354968D03*
X191794985Y-75894968D03*
X189254985Y-75894968D03*
X191794985Y-78434968D03*
X189254985Y-78434968D03*
%TD*%
D11*
%TO.C,REF\u002A\u002A*%
X196874985Y-58114968D03*
D10*
X194334985Y-58114968D03*
X196874985Y-60654968D03*
X194334985Y-60654968D03*
X196874985Y-63194968D03*
X194334985Y-63194968D03*
X196874985Y-65734968D03*
X194334985Y-65734968D03*
X196874985Y-68274968D03*
X194334985Y-68274968D03*
X196874985Y-70814968D03*
X194334985Y-70814968D03*
X196874985Y-73354968D03*
X194334985Y-73354968D03*
X196874985Y-75894968D03*
X194334985Y-75894968D03*
X196874985Y-78434968D03*
X194334985Y-78434968D03*
%TD*%
D11*
%TO.C,REF\u002A\u002A*%
X201954985Y-58114968D03*
D10*
X199414985Y-58114968D03*
X201954985Y-60654968D03*
X199414985Y-60654968D03*
X201954985Y-63194968D03*
X199414985Y-63194968D03*
X201954985Y-65734968D03*
X199414985Y-65734968D03*
X201954985Y-68274968D03*
X199414985Y-68274968D03*
X201954985Y-70814968D03*
X199414985Y-70814968D03*
X201954985Y-73354968D03*
X199414985Y-73354968D03*
X201954985Y-75894968D03*
X199414985Y-75894968D03*
X201954985Y-78434968D03*
X199414985Y-78434968D03*
%TD*%
%TO.C,REF\u002A\u002A*%
X204494985Y-78434968D03*
X207034985Y-78434968D03*
X204494985Y-75894968D03*
X207034985Y-75894968D03*
X204494985Y-73354968D03*
X207034985Y-73354968D03*
X204494985Y-70814968D03*
X207034985Y-70814968D03*
X204494985Y-68274968D03*
X207034985Y-68274968D03*
X204494985Y-65734968D03*
X207034985Y-65734968D03*
X204494985Y-63194968D03*
X207034985Y-63194968D03*
X204494985Y-60654968D03*
X207034985Y-60654968D03*
X204494985Y-58114968D03*
D11*
X207034985Y-58114968D03*
%TD*%
%TO.C,REF\u002A\u002A*%
X146769985Y-80904968D03*
%TD*%
%TO.C,REF\u002A\u002A*%
X141689985Y-75824968D03*
%TD*%
%TO.C,REF\u002A\u002A*%
X139149985Y-73284968D03*
D10*
X139149985Y-75824968D03*
%TD*%
D11*
%TO.C,REF\u002A\u002A*%
X136609985Y-73284968D03*
D10*
X136609985Y-75824968D03*
%TD*%
D11*
%TO.C,REF\u002A\u002A*%
X134069985Y-73284968D03*
D10*
X134069985Y-75824968D03*
%TD*%
D11*
%TO.C,REF\u002A\u002A*%
X144229985Y-78364968D03*
D10*
X144229985Y-80904968D03*
%TD*%
%TO.C,REF\u002A\u002A*%
X141689985Y-80904968D03*
D11*
X141689985Y-78364968D03*
%TD*%
D10*
%TO.C,REF\u002A\u002A*%
X154389985Y-101224968D03*
X154389985Y-98684968D03*
X154389985Y-96144968D03*
X154389985Y-93604968D03*
X154389985Y-91064968D03*
D11*
X154389985Y-88524968D03*
%TD*%
D10*
%TO.C,REF\u002A\u002A*%
X126449985Y-101224968D03*
X126449985Y-98684968D03*
X126449985Y-96144968D03*
X126449985Y-93604968D03*
X126449985Y-91064968D03*
D11*
X126449985Y-88524968D03*
%TD*%
D10*
%TO.C,REF\u002A\u002A*%
X139149985Y-80904968D03*
X139149985Y-78364968D03*
X136609985Y-80904968D03*
X136609985Y-78364968D03*
X134069985Y-80904968D03*
X134069985Y-78364968D03*
X131529985Y-80904968D03*
X131529985Y-78364968D03*
X128989985Y-80904968D03*
X128989985Y-78364968D03*
X126449985Y-80904968D03*
D11*
X126449985Y-78364968D03*
%TD*%
%TO.C,REF\u002A\u002A*%
X149309985Y-85984968D03*
D10*
X149309985Y-83444968D03*
X146769985Y-85984968D03*
X146769985Y-83444968D03*
X144229985Y-85984968D03*
X144229985Y-83444968D03*
X141689985Y-85984968D03*
X141689985Y-83444968D03*
X139149985Y-85984968D03*
X139149985Y-83444968D03*
X136609985Y-85984968D03*
X136609985Y-83444968D03*
X134069985Y-85984968D03*
X134069985Y-83444968D03*
X131529985Y-85984968D03*
X131529985Y-83444968D03*
X128989985Y-85984968D03*
X128989985Y-83444968D03*
X126449985Y-85984968D03*
X126449985Y-83444968D03*
%TD*%
D11*
%TO.C,REF\u002A\u002A*%
X128989985Y-88524968D03*
D10*
X128989985Y-91064968D03*
X131529985Y-88524968D03*
X131529985Y-91064968D03*
X134069985Y-88524968D03*
X134069985Y-91064968D03*
X136609985Y-88524968D03*
X136609985Y-91064968D03*
X139149985Y-88524968D03*
X139149985Y-91064968D03*
X141689985Y-88524968D03*
X141689985Y-91064968D03*
X144229985Y-88524968D03*
X144229985Y-91064968D03*
X146769985Y-88524968D03*
X146769985Y-91064968D03*
X149309985Y-88524968D03*
X149309985Y-91064968D03*
X151849985Y-88524968D03*
X151849985Y-91064968D03*
%TD*%
D11*
%TO.C,REF\u002A\u002A*%
X128989985Y-93604968D03*
D10*
X128989985Y-96144968D03*
X131529985Y-93604968D03*
X131529985Y-96144968D03*
X134069985Y-93604968D03*
X134069985Y-96144968D03*
X136609985Y-93604968D03*
X136609985Y-96144968D03*
X139149985Y-93604968D03*
X139149985Y-96144968D03*
X141689985Y-93604968D03*
X141689985Y-96144968D03*
X144229985Y-93604968D03*
X144229985Y-96144968D03*
X146769985Y-93604968D03*
X146769985Y-96144968D03*
X149309985Y-93604968D03*
X149309985Y-96144968D03*
X151849985Y-93604968D03*
X151849985Y-96144968D03*
%TD*%
D11*
%TO.C,REF\u002A\u002A*%
X128989985Y-98684968D03*
D10*
X128989985Y-101224968D03*
X131529985Y-98684968D03*
X131529985Y-101224968D03*
X134069985Y-98684968D03*
X134069985Y-101224968D03*
X136609985Y-98684968D03*
X136609985Y-101224968D03*
X139149985Y-98684968D03*
X139149985Y-101224968D03*
X141689985Y-98684968D03*
X141689985Y-101224968D03*
X144229985Y-98684968D03*
X144229985Y-101224968D03*
X146769985Y-98684968D03*
X146769985Y-101224968D03*
X149309985Y-98684968D03*
X149309985Y-101224968D03*
X151849985Y-98684968D03*
X151849985Y-101224968D03*
%TD*%
%TO.C,REF\u002A\u002A*%
X151849985Y-106304968D03*
X151849985Y-103764968D03*
X149309985Y-106304968D03*
X149309985Y-103764968D03*
X146769985Y-106304968D03*
X146769985Y-103764968D03*
X144229985Y-106304968D03*
X144229985Y-103764968D03*
X141689985Y-106304968D03*
X141689985Y-103764968D03*
X139149985Y-106304968D03*
X139149985Y-103764968D03*
X136609985Y-106304968D03*
X136609985Y-103764968D03*
X134069985Y-106304968D03*
X134069985Y-103764968D03*
X131529985Y-106304968D03*
X131529985Y-103764968D03*
X128989985Y-106304968D03*
D11*
X128989985Y-103764968D03*
%TD*%
D10*
%TO.C,REF\u002A\u002A*%
X119464985Y-60584968D03*
X116924985Y-60584968D03*
X119464985Y-63124968D03*
X116924985Y-63124968D03*
X119464985Y-65664968D03*
X116924985Y-65664968D03*
X119464985Y-68204968D03*
X116924985Y-68204968D03*
X119464985Y-70744968D03*
X116924985Y-70744968D03*
X119464985Y-73284968D03*
X116924985Y-73284968D03*
X119464985Y-75824968D03*
X116924985Y-75824968D03*
X119464985Y-78364968D03*
X116924985Y-78364968D03*
X119464985Y-80904968D03*
X116924985Y-80904968D03*
X119464985Y-83444968D03*
X116924985Y-83444968D03*
X119464985Y-85984968D03*
X116924985Y-85984968D03*
X119464985Y-88524968D03*
X116924985Y-88524968D03*
X119464985Y-91064968D03*
X116924985Y-91064968D03*
X119464985Y-93604968D03*
X116924985Y-93604968D03*
X119464985Y-96144968D03*
X116924985Y-96144968D03*
X119464985Y-98684968D03*
X116924985Y-98684968D03*
X119464985Y-101224968D03*
X116924985Y-101224968D03*
X119464985Y-103764968D03*
X116924985Y-103764968D03*
X119464985Y-106304968D03*
D11*
X116924985Y-106304968D03*
%TD*%
D10*
%TO.C,REF\u002A\u002A*%
X114384985Y-60584968D03*
X111844985Y-60584968D03*
X114384985Y-63124968D03*
X111844985Y-63124968D03*
X114384985Y-65664968D03*
X111844985Y-65664968D03*
X114384985Y-68204968D03*
X111844985Y-68204968D03*
X114384985Y-70744968D03*
X111844985Y-70744968D03*
X114384985Y-73284968D03*
X111844985Y-73284968D03*
X114384985Y-75824968D03*
X111844985Y-75824968D03*
X114384985Y-78364968D03*
X111844985Y-78364968D03*
X114384985Y-80904968D03*
X111844985Y-80904968D03*
X114384985Y-83444968D03*
X111844985Y-83444968D03*
X114384985Y-85984968D03*
X111844985Y-85984968D03*
X114384985Y-88524968D03*
X111844985Y-88524968D03*
X114384985Y-91064968D03*
X111844985Y-91064968D03*
X114384985Y-93604968D03*
X111844985Y-93604968D03*
X114384985Y-96144968D03*
X111844985Y-96144968D03*
X114384985Y-98684968D03*
X111844985Y-98684968D03*
X114384985Y-101224968D03*
X111844985Y-101224968D03*
X114384985Y-103764968D03*
X111844985Y-103764968D03*
X114384985Y-106304968D03*
D11*
X111844985Y-106304968D03*
%TD*%
D12*
%TO.C,C1*%
X179784986Y-130489664D03*
X177284986Y-130489664D03*
%TD*%
D13*
%TO.C,D1*%
X175094986Y-124494664D03*
D14*
X175094986Y-127034664D03*
%TD*%
D15*
%TO.C,U4*%
X179324986Y-91179664D03*
X181864986Y-91179664D03*
X181864986Y-86099664D03*
X179324986Y-86099664D03*
%TD*%
%TO.C,U2*%
X179324986Y-115179664D03*
X181864986Y-115179664D03*
X181864986Y-110099664D03*
X179324986Y-110099664D03*
%TD*%
%TO.C,U3*%
X179324986Y-103179664D03*
X181864986Y-103179664D03*
X181864986Y-98099664D03*
X179324986Y-98099664D03*
%TD*%
D13*
%TO.C,D2*%
X175094986Y-111429664D03*
D14*
X175094986Y-113969664D03*
%TD*%
D15*
%TO.C,U1*%
X179324986Y-128179664D03*
X181864986Y-128179664D03*
X181864986Y-123099664D03*
X179324986Y-123099664D03*
%TD*%
D13*
%TO.C,D4*%
X175094986Y-87569664D03*
D14*
X175094986Y-90109664D03*
%TD*%
D13*
%TO.C,D3*%
X175094986Y-99364664D03*
D14*
X175094986Y-101904664D03*
%TD*%
D11*
%TO.C,J1*%
X182324986Y-133164664D03*
D10*
X179784986Y-133164664D03*
X177244986Y-133164664D03*
X174704986Y-133164664D03*
%TD*%
D12*
%TO.C,C1*%
X190364985Y-114249968D03*
X192864985Y-114249968D03*
%TD*%
D13*
%TO.C,D1*%
X195054985Y-120244968D03*
D14*
X195054985Y-117704968D03*
%TD*%
D15*
%TO.C,U2*%
X190824985Y-128559968D03*
X188284985Y-128559968D03*
X188284985Y-133639968D03*
X190824985Y-133639968D03*
%TD*%
%TO.C,U3*%
X190824985Y-141559968D03*
X188284985Y-141559968D03*
X188284985Y-146639968D03*
X190824985Y-146639968D03*
%TD*%
D13*
%TO.C,D2*%
X195054985Y-132309968D03*
D14*
X195054985Y-129769968D03*
%TD*%
D15*
%TO.C,U1*%
X190824985Y-116559968D03*
X188284985Y-116559968D03*
X188284985Y-121639968D03*
X190824985Y-121639968D03*
%TD*%
D13*
%TO.C,D3*%
X195054985Y-145374968D03*
D14*
X195054985Y-142834968D03*
%TD*%
D11*
%TO.C,J1*%
X187824985Y-111574968D03*
D10*
X190364985Y-111574968D03*
X192904985Y-111574968D03*
X195444985Y-111574968D03*
%TD*%
D15*
%TO.C,U1*%
X203807493Y-103827484D03*
X201267493Y-103827484D03*
X201267493Y-98747484D03*
X203807493Y-98747484D03*
%TD*%
%TO.C,U2*%
X203807493Y-117827484D03*
X201267493Y-117827484D03*
X201267493Y-112747484D03*
X203807493Y-112747484D03*
%TD*%
%TO.C,U3*%
X203807493Y-131827484D03*
X201267493Y-131827484D03*
X201267493Y-126747484D03*
X203807493Y-126747484D03*
%TD*%
%TO.C,U4*%
X203807493Y-145827484D03*
X201267493Y-145827484D03*
X201267493Y-140747484D03*
X203807493Y-140747484D03*
%TD*%
D10*
%TO.C,J1*%
X208427493Y-93762484D03*
X205887493Y-93762484D03*
X203347493Y-93762484D03*
D11*
X200807493Y-93762484D03*
%TD*%
D14*
%TO.C,D4*%
X208037493Y-141817484D03*
D13*
X208037493Y-144357484D03*
%TD*%
D14*
%TO.C,D3*%
X208037493Y-128022484D03*
D13*
X208037493Y-130562484D03*
%TD*%
D14*
%TO.C,D2*%
X208037493Y-113957484D03*
D13*
X208037493Y-116497484D03*
%TD*%
D14*
%TO.C,D1*%
X208037493Y-99892484D03*
D13*
X208037493Y-102432484D03*
%TD*%
D12*
%TO.C,C1*%
X205847493Y-96437484D03*
X203347493Y-96437484D03*
%TD*%
%TO.C,C2*%
X149692499Y-117045651D03*
X149692499Y-114545651D03*
%TD*%
%TO.C,J8*%
G36*
G01*
X120554498Y-127411651D02*
X122054498Y-127411651D01*
G75*
G02*
X122304498Y-127661651I0J-250000D01*
G01*
X122304498Y-128861651D01*
G75*
G02*
X122054498Y-129111651I-250000J0D01*
G01*
X120554498Y-129111651D01*
G75*
G02*
X120304498Y-128861651I0J250000D01*
G01*
X120304498Y-127661651D01*
G75*
G02*
X120554498Y-127411651I250000J0D01*
G01*
G37*
D16*
X121304498Y-130761651D03*
%TD*%
D17*
%TO.C,SW1*%
X166964499Y-127205651D03*
X166964499Y-124665651D03*
X166964499Y-122125651D03*
%TD*%
%TO.C,J1*%
G36*
G01*
X148410499Y-131611651D02*
X146910499Y-131611651D01*
G75*
G02*
X146660499Y-131361651I0J250000D01*
G01*
X146660499Y-130161651D01*
G75*
G02*
X146910499Y-129911651I250000J0D01*
G01*
X148410499Y-129911651D01*
G75*
G02*
X148660499Y-130161651I0J-250000D01*
G01*
X148660499Y-131361651D01*
G75*
G02*
X148410499Y-131611651I-250000J0D01*
G01*
G37*
D16*
X147660499Y-128261651D03*
%TD*%
D18*
%TO.C,U7*%
X145120499Y-114505651D03*
D19*
X145120499Y-117045651D03*
X145120499Y-119585651D03*
%TD*%
D20*
%TO.C,F2*%
X124046499Y-121109651D03*
X120346499Y-121109651D03*
X116046499Y-121109651D03*
X112346499Y-121109651D03*
%TD*%
D17*
%TO.C,SW2*%
X113116499Y-131777651D03*
X113116499Y-129237651D03*
X113116499Y-126697651D03*
%TD*%
%TO.C,BT1*%
G36*
G01*
X163242499Y-113755651D02*
X163242499Y-115255651D01*
G75*
G02*
X162992499Y-115505651I-250000J0D01*
G01*
X161792499Y-115505651D01*
G75*
G02*
X161542499Y-115255651I0J250000D01*
G01*
X161542499Y-113755651D01*
G75*
G02*
X161792499Y-113505651I250000J0D01*
G01*
X162992499Y-113505651D01*
G75*
G02*
X163242499Y-113755651I0J-250000D01*
G01*
G37*
D21*
X159892499Y-114505651D03*
%TD*%
%TO.C,J11*%
G36*
G01*
X128174498Y-127371651D02*
X129674498Y-127371651D01*
G75*
G02*
X129924498Y-127621651I0J-250000D01*
G01*
X129924498Y-128821651D01*
G75*
G02*
X129674498Y-129071651I-250000J0D01*
G01*
X128174498Y-129071651D01*
G75*
G02*
X127924498Y-128821651I0J250000D01*
G01*
X127924498Y-127621651D01*
G75*
G02*
X128174498Y-127371651I250000J0D01*
G01*
G37*
D16*
X128924498Y-130721651D03*
%TD*%
%TO.C,BT2*%
G36*
G01*
X125134499Y-111881652D02*
X125134499Y-114081650D01*
G75*
G02*
X124884498Y-114331651I-250001J0D01*
G01*
X122684500Y-114331651D01*
G75*
G02*
X122434499Y-114081650I0J250001D01*
G01*
X122434499Y-111881652D01*
G75*
G02*
X122684500Y-111631651I250001J0D01*
G01*
X124884498Y-111631651D01*
G75*
G02*
X125134499Y-111881652I0J-250001D01*
G01*
G37*
D22*
X119824499Y-112981651D03*
%TD*%
%TO.C,J2*%
G36*
G01*
X156538499Y-131611651D02*
X155038499Y-131611651D01*
G75*
G02*
X154788499Y-131361651I0J250000D01*
G01*
X154788499Y-130161651D01*
G75*
G02*
X155038499Y-129911651I250000J0D01*
G01*
X156538499Y-129911651D01*
G75*
G02*
X156788499Y-130161651I0J-250000D01*
G01*
X156788499Y-131361651D01*
G75*
G02*
X156538499Y-131611651I-250000J0D01*
G01*
G37*
D16*
X155788499Y-128261651D03*
%TD*%
D12*
%TO.C,C1*%
X139024499Y-119585651D03*
X139024499Y-117085651D03*
%TD*%
D20*
%TO.C,F1*%
X149938499Y-121617651D03*
X153638499Y-121617651D03*
X157938499Y-121617651D03*
X161638499Y-121617651D03*
%TD*%
D11*
%TO.C,J1*%
X157574985Y-72574967D03*
D10*
X157574985Y-70034967D03*
X157574985Y-67494967D03*
X157574985Y-64954967D03*
%TD*%
D11*
%TO.C,J4*%
X179574985Y-64954967D03*
D10*
X179574985Y-67494967D03*
X179574985Y-70034967D03*
X179574985Y-72574967D03*
%TD*%
%TO.C,J5*%
G36*
G01*
X162724985Y-72799967D02*
X162724985Y-71349967D01*
G75*
G02*
X162974985Y-71099967I250000J0D01*
G01*
X164174985Y-71099967D01*
G75*
G02*
X164424985Y-71349967I0J-250000D01*
G01*
X164424985Y-72799967D01*
G75*
G02*
X164174985Y-73049967I-250000J0D01*
G01*
X162974985Y-73049967D01*
G75*
G02*
X162724985Y-72799967I0J250000D01*
G01*
G37*
D23*
X166074985Y-72074967D03*
X168574985Y-72074967D03*
X171074985Y-72074967D03*
X173574985Y-72074967D03*
%TD*%
D11*
%TO.C,J6*%
X172074985Y-79574967D03*
D10*
X169534985Y-79574967D03*
X166994985Y-79574967D03*
X164454985Y-79574967D03*
%TD*%
%TO.C,J2*%
G36*
G01*
X161224985Y-64799967D02*
X161224985Y-63349967D01*
G75*
G02*
X161474985Y-63099967I250000J0D01*
G01*
X162674985Y-63099967D01*
G75*
G02*
X162924985Y-63349967I0J-250000D01*
G01*
X162924985Y-64799967D01*
G75*
G02*
X162674985Y-65049967I-250000J0D01*
G01*
X161474985Y-65049967D01*
G75*
G02*
X161224985Y-64799967I0J250000D01*
G01*
G37*
D23*
X164574985Y-64074967D03*
X167074985Y-64074967D03*
X169574985Y-64074967D03*
X172074985Y-64074967D03*
X174574985Y-64074967D03*
%TD*%
D11*
%TO.C,J3*%
X165074985Y-57574967D03*
D10*
X167614985Y-57574967D03*
X170154985Y-57574967D03*
X172694985Y-57574967D03*
%TD*%
M02*
