M48
; DRILL file {KiCad (5.1.10)-1} date 11/13/21 22:25:10
; FORMAT={-:-/ absolute / metric / decimal}
; #@! TF.CreationDate,2021-11-13T22:25:10+09:00
; #@! TF.GenerationSoftware,Kicad,Pcbnew,(5.1.10)-1
; #@! TF.FileFunction,Plated,1,2,PTH
FMAT,2
METRIC
T1C0.400
T2C0.500
T3C0.762
T4C0.800
T5C0.900
T6C0.950
T7C1.000
T8C1.090
T9C1.100
T10C1.700
%
G90
G05
T1
X176.558Y-68.51
T3
X179.325Y-86.1
X179.325Y-91.18
X179.325Y-98.1
X179.325Y-103.18
X179.325Y-110.1
X179.325Y-115.18
X179.325Y-123.1
X179.325Y-128.18
X181.865Y-86.1
X181.865Y-91.18
X181.865Y-98.1
X181.865Y-103.18
X181.865Y-110.1
X181.865Y-115.18
X181.865Y-123.1
X181.865Y-128.18
X188.285Y-116.56
X188.285Y-121.64
X188.285Y-128.56
X188.285Y-133.64
X188.285Y-141.56
X188.285Y-146.64
X190.825Y-116.56
X190.825Y-121.64
X190.825Y-128.56
X190.825Y-133.64
X190.825Y-141.56
X190.825Y-146.64
X201.267Y-98.747
X201.267Y-103.827
X201.267Y-112.747
X201.267Y-117.827
X201.267Y-126.747
X201.267Y-131.827
X201.267Y-140.747
X201.267Y-145.827
X203.807Y-98.747
X203.807Y-103.827
X203.807Y-112.747
X203.807Y-117.827
X203.807Y-126.747
X203.807Y-131.827
X203.807Y-140.747
X203.807Y-145.827
T4
X139.024Y-117.086
X139.024Y-119.586
X149.692Y-114.546
X149.692Y-117.046
X177.285Y-130.49
X179.785Y-130.49
X190.365Y-114.25
X192.865Y-114.25
X203.347Y-96.437
X205.847Y-96.437
T5
X175.095Y-87.57
X175.095Y-90.11
X175.095Y-99.365
X175.095Y-101.905
X175.095Y-111.43
X175.095Y-113.97
X175.095Y-124.495
X175.095Y-127.035
X195.055Y-117.705
X195.055Y-120.245
X195.055Y-129.77
X195.055Y-132.31
X195.055Y-142.835
X195.055Y-145.375
X208.037Y-99.892
X208.037Y-102.432
X208.037Y-113.957
X208.037Y-116.497
X208.037Y-128.022
X208.037Y-130.562
X208.037Y-141.817
X208.037Y-144.357
T6
X162.075Y-64.075
X163.575Y-72.075
X164.575Y-64.075
X166.075Y-72.075
X167.075Y-64.075
X168.575Y-72.075
X169.575Y-64.075
X171.075Y-72.075
X172.075Y-64.075
X173.575Y-72.075
X174.575Y-64.075
T7
X111.845Y-60.585
X111.845Y-63.125
X111.845Y-65.665
X111.845Y-68.205
X111.845Y-70.745
X111.845Y-73.285
X111.845Y-75.825
X111.845Y-78.365
X111.845Y-80.905
X111.845Y-83.445
X111.845Y-85.985
X111.845Y-88.525
X111.845Y-91.065
X111.845Y-93.605
X111.845Y-96.145
X111.845Y-98.685
X111.845Y-101.225
X111.845Y-103.765
X111.845Y-106.305
X114.385Y-60.585
X114.385Y-63.125
X114.385Y-65.665
X114.385Y-68.205
X114.385Y-70.745
X114.385Y-73.285
X114.385Y-75.825
X114.385Y-78.365
X114.385Y-80.905
X114.385Y-83.445
X114.385Y-85.985
X114.385Y-88.525
X114.385Y-91.065
X114.385Y-93.605
X114.385Y-96.145
X114.385Y-98.685
X114.385Y-101.225
X114.385Y-103.765
X114.385Y-106.305
X116.925Y-60.585
X116.925Y-63.125
X116.925Y-65.665
X116.925Y-68.205
X116.925Y-70.745
X116.925Y-73.285
X116.925Y-75.825
X116.925Y-78.365
X116.925Y-80.905
X116.925Y-83.445
X116.925Y-85.985
X116.925Y-88.525
X116.925Y-91.065
X116.925Y-93.605
X116.925Y-96.145
X116.925Y-98.685
X116.925Y-101.225
X116.925Y-103.765
X116.925Y-106.305
X119.465Y-60.585
X119.465Y-63.125
X119.465Y-65.665
X119.465Y-68.205
X119.465Y-70.745
X119.465Y-73.285
X119.465Y-75.825
X119.465Y-78.365
X119.465Y-80.905
X119.465Y-83.445
X119.465Y-85.985
X119.465Y-88.525
X119.465Y-91.065
X119.465Y-93.605
X119.465Y-96.145
X119.465Y-98.685
X119.465Y-101.225
X119.465Y-103.765
X119.465Y-106.305
X121.304Y-128.262
X121.304Y-130.762
X126.45Y-78.365
X126.45Y-80.905
X126.45Y-83.445
X126.45Y-85.985
X126.45Y-88.525
X126.45Y-91.065
X126.45Y-93.605
X126.45Y-96.145
X126.45Y-98.685
X126.45Y-101.225
X128.924Y-128.222
X128.924Y-130.722
X128.99Y-78.365
X128.99Y-80.905
X128.99Y-83.445
X128.99Y-85.985
X128.99Y-88.525
X128.99Y-91.065
X128.99Y-93.605
X128.99Y-96.145
X128.99Y-98.685
X128.99Y-101.225
X128.99Y-103.765
X128.99Y-106.305
X131.53Y-78.365
X131.53Y-80.905
X131.53Y-83.445
X131.53Y-85.985
X131.53Y-88.525
X131.53Y-91.065
X131.53Y-93.605
X131.53Y-96.145
X131.53Y-98.685
X131.53Y-101.225
X131.53Y-103.765
X131.53Y-106.305
X134.07Y-73.285
X134.07Y-75.825
X134.07Y-78.365
X134.07Y-80.905
X134.07Y-83.445
X134.07Y-85.985
X134.07Y-88.525
X134.07Y-91.065
X134.07Y-93.605
X134.07Y-96.145
X134.07Y-98.685
X134.07Y-101.225
X134.07Y-103.765
X134.07Y-106.305
X136.61Y-73.285
X136.61Y-75.825
X136.61Y-78.365
X136.61Y-80.905
X136.61Y-83.445
X136.61Y-85.985
X136.61Y-88.525
X136.61Y-91.065
X136.61Y-93.605
X136.61Y-96.145
X136.61Y-98.685
X136.61Y-101.225
X136.61Y-103.765
X136.61Y-106.305
X139.15Y-73.285
X139.15Y-75.825
X139.15Y-78.365
X139.15Y-80.905
X139.15Y-83.445
X139.15Y-85.985
X139.15Y-88.525
X139.15Y-91.065
X139.15Y-93.605
X139.15Y-96.145
X139.15Y-98.685
X139.15Y-101.225
X139.15Y-103.765
X139.15Y-106.305
X141.69Y-75.825
X141.69Y-78.365
X141.69Y-80.905
X141.69Y-83.445
X141.69Y-85.985
X141.69Y-88.525
X141.69Y-91.065
X141.69Y-93.605
X141.69Y-96.145
X141.69Y-98.685
X141.69Y-101.225
X141.69Y-103.765
X141.69Y-106.305
X144.23Y-78.365
X144.23Y-80.905
X144.23Y-83.445
X144.23Y-85.985
X144.23Y-88.525
X144.23Y-91.065
X144.23Y-93.605
X144.23Y-96.145
X144.23Y-98.685
X144.23Y-101.225
X144.23Y-103.765
X144.23Y-106.305
X146.77Y-80.905
X146.77Y-83.445
X146.77Y-85.985
X146.77Y-88.525
X146.77Y-91.065
X146.77Y-93.605
X146.77Y-96.145
X146.77Y-98.685
X146.77Y-101.225
X146.77Y-103.765
X146.77Y-106.305
X147.66Y-128.262
X147.66Y-130.762
X149.31Y-83.445
X149.31Y-85.985
X149.31Y-88.525
X149.31Y-91.065
X149.31Y-93.605
X149.31Y-96.145
X149.31Y-98.685
X149.31Y-101.225
X149.31Y-103.765
X149.31Y-106.305
X151.85Y-88.525
X151.85Y-91.065
X151.85Y-93.605
X151.85Y-96.145
X151.85Y-98.685
X151.85Y-101.225
X151.85Y-103.765
X151.85Y-106.305
X154.39Y-88.525
X154.39Y-91.065
X154.39Y-93.605
X154.39Y-96.145
X154.39Y-98.685
X154.39Y-101.225
X155.788Y-128.262
X155.788Y-130.762
X157.575Y-64.955
X157.575Y-67.495
X157.575Y-70.035
X157.575Y-72.575
X159.892Y-114.506
X162.392Y-114.506
X164.455Y-79.575
X165.075Y-57.575
X166.995Y-79.575
X167.615Y-57.575
X169.535Y-79.575
X170.155Y-57.575
X172.075Y-79.575
X172.695Y-57.575
X174.705Y-133.165
X177.245Y-133.165
X179.575Y-64.955
X179.575Y-67.495
X179.575Y-70.035
X179.575Y-72.575
X179.785Y-133.165
X182.325Y-133.165
X186.715Y-58.115
X186.715Y-60.655
X186.715Y-63.195
X186.715Y-65.735
X186.715Y-68.275
X186.715Y-70.815
X186.715Y-73.355
X186.715Y-75.895
X186.715Y-78.435
X187.825Y-111.575
X189.255Y-58.115
X189.255Y-60.655
X189.255Y-63.195
X189.255Y-65.735
X189.255Y-68.275
X189.255Y-70.815
X189.255Y-73.355
X189.255Y-75.895
X189.255Y-78.435
X190.365Y-111.575
X191.795Y-58.115
X191.795Y-60.655
X191.795Y-63.195
X191.795Y-65.735
X191.795Y-68.275
X191.795Y-70.815
X191.795Y-73.355
X191.795Y-75.895
X191.795Y-78.435
X192.905Y-111.575
X194.335Y-58.115
X194.335Y-60.655
X194.335Y-63.195
X194.335Y-65.735
X194.335Y-68.275
X194.335Y-70.815
X194.335Y-73.355
X194.335Y-75.895
X194.335Y-78.435
X195.445Y-111.575
X196.875Y-58.115
X196.875Y-60.655
X196.875Y-63.195
X196.875Y-65.735
X196.875Y-68.275
X196.875Y-70.815
X196.875Y-73.355
X196.875Y-75.895
X196.875Y-78.435
X199.415Y-58.115
X199.415Y-60.655
X199.415Y-63.195
X199.415Y-65.735
X199.415Y-68.275
X199.415Y-70.815
X199.415Y-73.355
X199.415Y-75.895
X199.415Y-78.435
X200.807Y-93.762
X201.955Y-58.115
X201.955Y-60.655
X201.955Y-63.195
X201.955Y-65.735
X201.955Y-68.275
X201.955Y-70.815
X201.955Y-73.355
X201.955Y-75.895
X201.955Y-78.435
X203.347Y-93.762
X204.495Y-58.115
X204.495Y-60.655
X204.495Y-63.195
X204.495Y-65.735
X204.495Y-68.275
X204.495Y-70.815
X204.495Y-73.355
X204.495Y-75.895
X204.495Y-78.435
X205.887Y-93.762
X207.035Y-58.115
X207.035Y-60.655
X207.035Y-63.195
X207.035Y-65.735
X207.035Y-68.275
X207.035Y-70.815
X207.035Y-73.355
X207.035Y-75.895
X207.035Y-78.435
X208.427Y-93.762
T8
X113.116Y-126.698
X113.116Y-129.238
X113.116Y-131.778
X166.964Y-122.126
X166.964Y-124.666
X166.964Y-127.206
T9
X145.12Y-114.506
X145.12Y-117.046
X145.12Y-119.586
T10
X119.824Y-112.982
X123.784Y-112.982
T2
X112.346Y-120.31G85X112.346Y-121.91
G05
X116.046Y-120.31G85X116.046Y-121.91
G05
X120.346Y-120.31G85X120.346Y-121.91
G05
X124.046Y-120.31G85X124.046Y-121.91
G05
X149.938Y-122.418G85X149.938Y-120.818
G05
X153.638Y-122.418G85X153.638Y-120.818
G05
X157.938Y-122.418G85X157.938Y-120.818
G05
X161.638Y-122.418G85X161.638Y-120.818
G05
T0
M30
