%TF.GenerationSoftware,KiCad,Pcbnew,(5.1.10)-1*%
%TF.CreationDate,2021-11-13T22:23:51+09:00*%
%TF.ProjectId,herakuresu.line,68657261-6b75-4726-9573-752e6c696e65,rev?*%
%TF.SameCoordinates,Original*%
%TF.FileFunction,Copper,L2,Bot*%
%TF.FilePolarity,Positive*%
%FSLAX46Y46*%
G04 Gerber Fmt 4.6, Leading zero omitted, Abs format (unit mm)*
G04 Created by KiCad (PCBNEW (5.1.10)-1) date 2021-11-13 22:23:51*
%MOMM*%
%LPD*%
G01*
G04 APERTURE LIST*
%TA.AperFunction,ComponentPad*%
%ADD10O,1.700000X1.700000*%
%TD*%
%TA.AperFunction,ComponentPad*%
%ADD11R,1.700000X1.700000*%
%TD*%
%TA.AperFunction,ComponentPad*%
%ADD12C,1.600000*%
%TD*%
%TA.AperFunction,ComponentPad*%
%ADD13R,1.800000X1.800000*%
%TD*%
%TA.AperFunction,ComponentPad*%
%ADD14C,1.800000*%
%TD*%
%TA.AperFunction,ComponentPad*%
%ADD15C,1.524000*%
%TD*%
%TA.AperFunction,ComponentPad*%
%ADD16O,2.000000X1.700000*%
%TD*%
%TA.AperFunction,SMDPad,CuDef*%
%ADD17R,2.000000X4.000000*%
%TD*%
%TA.AperFunction,ComponentPad*%
%ADD18C,1.635000*%
%TD*%
%TA.AperFunction,ComponentPad*%
%ADD19R,2.000000X1.905000*%
%TD*%
%TA.AperFunction,ComponentPad*%
%ADD20O,2.000000X1.905000*%
%TD*%
%TA.AperFunction,ComponentPad*%
%ADD21O,1.500000X2.700000*%
%TD*%
%TA.AperFunction,ComponentPad*%
%ADD22O,1.700000X2.000000*%
%TD*%
%TA.AperFunction,ComponentPad*%
%ADD23C,2.700000*%
%TD*%
%TA.AperFunction,ComponentPad*%
%ADD24O,1.700000X1.950000*%
%TD*%
%TA.AperFunction,ViaPad*%
%ADD25C,0.800000*%
%TD*%
%TA.AperFunction,Conductor*%
%ADD26C,0.500000*%
%TD*%
%TA.AperFunction,Conductor*%
%ADD27C,0.250000*%
%TD*%
%TA.AperFunction,Conductor*%
%ADD28C,2.000000*%
%TD*%
G04 APERTURE END LIST*
D10*
%TO.P,REF\u002A\u002A,9*%
%TO.N,N/C*%
X186714985Y-78434968D03*
%TO.P,REF\u002A\u002A,8*%
X186714985Y-75894968D03*
%TO.P,REF\u002A\u002A,7*%
X186714985Y-73354968D03*
%TO.P,REF\u002A\u002A,6*%
X186714985Y-70814968D03*
%TO.P,REF\u002A\u002A,5*%
X186714985Y-68274968D03*
%TO.P,REF\u002A\u002A,4*%
X186714985Y-65734968D03*
%TO.P,REF\u002A\u002A,3*%
X186714985Y-63194968D03*
%TO.P,REF\u002A\u002A,2*%
X186714985Y-60654968D03*
D11*
%TO.P,REF\u002A\u002A,1*%
X186714985Y-58114968D03*
%TD*%
%TO.P,REF\u002A\u002A,1*%
%TO.N,N/C*%
X191794985Y-58114968D03*
D10*
%TO.P,REF\u002A\u002A,2*%
X189254985Y-58114968D03*
%TO.P,REF\u002A\u002A,3*%
X191794985Y-60654968D03*
%TO.P,REF\u002A\u002A,4*%
X189254985Y-60654968D03*
%TO.P,REF\u002A\u002A,5*%
X191794985Y-63194968D03*
%TO.P,REF\u002A\u002A,6*%
X189254985Y-63194968D03*
%TO.P,REF\u002A\u002A,7*%
X191794985Y-65734968D03*
%TO.P,REF\u002A\u002A,8*%
X189254985Y-65734968D03*
%TO.P,REF\u002A\u002A,9*%
X191794985Y-68274968D03*
%TO.P,REF\u002A\u002A,10*%
X189254985Y-68274968D03*
%TO.P,REF\u002A\u002A,11*%
X191794985Y-70814968D03*
%TO.P,REF\u002A\u002A,12*%
X189254985Y-70814968D03*
%TO.P,REF\u002A\u002A,13*%
X191794985Y-73354968D03*
%TO.P,REF\u002A\u002A,14*%
X189254985Y-73354968D03*
%TO.P,REF\u002A\u002A,15*%
X191794985Y-75894968D03*
%TO.P,REF\u002A\u002A,16*%
X189254985Y-75894968D03*
%TO.P,REF\u002A\u002A,17*%
X191794985Y-78434968D03*
%TO.P,REF\u002A\u002A,18*%
X189254985Y-78434968D03*
%TD*%
D11*
%TO.P,REF\u002A\u002A,1*%
%TO.N,N/C*%
X196874985Y-58114968D03*
D10*
%TO.P,REF\u002A\u002A,2*%
X194334985Y-58114968D03*
%TO.P,REF\u002A\u002A,3*%
X196874985Y-60654968D03*
%TO.P,REF\u002A\u002A,4*%
X194334985Y-60654968D03*
%TO.P,REF\u002A\u002A,5*%
X196874985Y-63194968D03*
%TO.P,REF\u002A\u002A,6*%
X194334985Y-63194968D03*
%TO.P,REF\u002A\u002A,7*%
X196874985Y-65734968D03*
%TO.P,REF\u002A\u002A,8*%
X194334985Y-65734968D03*
%TO.P,REF\u002A\u002A,9*%
X196874985Y-68274968D03*
%TO.P,REF\u002A\u002A,10*%
X194334985Y-68274968D03*
%TO.P,REF\u002A\u002A,11*%
X196874985Y-70814968D03*
%TO.P,REF\u002A\u002A,12*%
X194334985Y-70814968D03*
%TO.P,REF\u002A\u002A,13*%
X196874985Y-73354968D03*
%TO.P,REF\u002A\u002A,14*%
X194334985Y-73354968D03*
%TO.P,REF\u002A\u002A,15*%
X196874985Y-75894968D03*
%TO.P,REF\u002A\u002A,16*%
X194334985Y-75894968D03*
%TO.P,REF\u002A\u002A,17*%
X196874985Y-78434968D03*
%TO.P,REF\u002A\u002A,18*%
X194334985Y-78434968D03*
%TD*%
D11*
%TO.P,REF\u002A\u002A,1*%
%TO.N,N/C*%
X201954985Y-58114968D03*
D10*
%TO.P,REF\u002A\u002A,2*%
X199414985Y-58114968D03*
%TO.P,REF\u002A\u002A,3*%
X201954985Y-60654968D03*
%TO.P,REF\u002A\u002A,4*%
X199414985Y-60654968D03*
%TO.P,REF\u002A\u002A,5*%
X201954985Y-63194968D03*
%TO.P,REF\u002A\u002A,6*%
X199414985Y-63194968D03*
%TO.P,REF\u002A\u002A,7*%
X201954985Y-65734968D03*
%TO.P,REF\u002A\u002A,8*%
X199414985Y-65734968D03*
%TO.P,REF\u002A\u002A,9*%
X201954985Y-68274968D03*
%TO.P,REF\u002A\u002A,10*%
X199414985Y-68274968D03*
%TO.P,REF\u002A\u002A,11*%
X201954985Y-70814968D03*
%TO.P,REF\u002A\u002A,12*%
X199414985Y-70814968D03*
%TO.P,REF\u002A\u002A,13*%
X201954985Y-73354968D03*
%TO.P,REF\u002A\u002A,14*%
X199414985Y-73354968D03*
%TO.P,REF\u002A\u002A,15*%
X201954985Y-75894968D03*
%TO.P,REF\u002A\u002A,16*%
X199414985Y-75894968D03*
%TO.P,REF\u002A\u002A,17*%
X201954985Y-78434968D03*
%TO.P,REF\u002A\u002A,18*%
X199414985Y-78434968D03*
%TD*%
%TO.P,REF\u002A\u002A,18*%
%TO.N,N/C*%
X204494985Y-78434968D03*
%TO.P,REF\u002A\u002A,17*%
X207034985Y-78434968D03*
%TO.P,REF\u002A\u002A,16*%
X204494985Y-75894968D03*
%TO.P,REF\u002A\u002A,15*%
X207034985Y-75894968D03*
%TO.P,REF\u002A\u002A,14*%
X204494985Y-73354968D03*
%TO.P,REF\u002A\u002A,13*%
X207034985Y-73354968D03*
%TO.P,REF\u002A\u002A,12*%
X204494985Y-70814968D03*
%TO.P,REF\u002A\u002A,11*%
X207034985Y-70814968D03*
%TO.P,REF\u002A\u002A,10*%
X204494985Y-68274968D03*
%TO.P,REF\u002A\u002A,9*%
X207034985Y-68274968D03*
%TO.P,REF\u002A\u002A,8*%
X204494985Y-65734968D03*
%TO.P,REF\u002A\u002A,7*%
X207034985Y-65734968D03*
%TO.P,REF\u002A\u002A,6*%
X204494985Y-63194968D03*
%TO.P,REF\u002A\u002A,5*%
X207034985Y-63194968D03*
%TO.P,REF\u002A\u002A,4*%
X204494985Y-60654968D03*
%TO.P,REF\u002A\u002A,3*%
X207034985Y-60654968D03*
%TO.P,REF\u002A\u002A,2*%
X204494985Y-58114968D03*
D11*
%TO.P,REF\u002A\u002A,1*%
X207034985Y-58114968D03*
%TD*%
%TO.P,REF\u002A\u002A,1*%
%TO.N,N/C*%
X146769985Y-80904968D03*
%TD*%
%TO.P,REF\u002A\u002A,1*%
%TO.N,N/C*%
X141689985Y-75824968D03*
%TD*%
%TO.P,REF\u002A\u002A,1*%
%TO.N,N/C*%
X139149985Y-73284968D03*
D10*
%TO.P,REF\u002A\u002A,2*%
X139149985Y-75824968D03*
%TD*%
D11*
%TO.P,REF\u002A\u002A,1*%
%TO.N,N/C*%
X136609985Y-73284968D03*
D10*
%TO.P,REF\u002A\u002A,2*%
X136609985Y-75824968D03*
%TD*%
D11*
%TO.P,REF\u002A\u002A,1*%
%TO.N,N/C*%
X134069985Y-73284968D03*
D10*
%TO.P,REF\u002A\u002A,2*%
X134069985Y-75824968D03*
%TD*%
D11*
%TO.P,REF\u002A\u002A,1*%
%TO.N,N/C*%
X144229985Y-78364968D03*
D10*
%TO.P,REF\u002A\u002A,2*%
X144229985Y-80904968D03*
%TD*%
%TO.P,REF\u002A\u002A,2*%
%TO.N,N/C*%
X141689985Y-80904968D03*
D11*
%TO.P,REF\u002A\u002A,1*%
X141689985Y-78364968D03*
%TD*%
D10*
%TO.P,REF\u002A\u002A,6*%
%TO.N,N/C*%
X154389985Y-101224968D03*
%TO.P,REF\u002A\u002A,5*%
X154389985Y-98684968D03*
%TO.P,REF\u002A\u002A,4*%
X154389985Y-96144968D03*
%TO.P,REF\u002A\u002A,3*%
X154389985Y-93604968D03*
%TO.P,REF\u002A\u002A,2*%
X154389985Y-91064968D03*
D11*
%TO.P,REF\u002A\u002A,1*%
X154389985Y-88524968D03*
%TD*%
D10*
%TO.P,REF\u002A\u002A,6*%
%TO.N,N/C*%
X126449985Y-101224968D03*
%TO.P,REF\u002A\u002A,5*%
X126449985Y-98684968D03*
%TO.P,REF\u002A\u002A,4*%
X126449985Y-96144968D03*
%TO.P,REF\u002A\u002A,3*%
X126449985Y-93604968D03*
%TO.P,REF\u002A\u002A,2*%
X126449985Y-91064968D03*
D11*
%TO.P,REF\u002A\u002A,1*%
X126449985Y-88524968D03*
%TD*%
D10*
%TO.P,REF\u002A\u002A,12*%
%TO.N,N/C*%
X139149985Y-80904968D03*
%TO.P,REF\u002A\u002A,11*%
X139149985Y-78364968D03*
%TO.P,REF\u002A\u002A,10*%
X136609985Y-80904968D03*
%TO.P,REF\u002A\u002A,9*%
X136609985Y-78364968D03*
%TO.P,REF\u002A\u002A,8*%
X134069985Y-80904968D03*
%TO.P,REF\u002A\u002A,7*%
X134069985Y-78364968D03*
%TO.P,REF\u002A\u002A,6*%
X131529985Y-80904968D03*
%TO.P,REF\u002A\u002A,5*%
X131529985Y-78364968D03*
%TO.P,REF\u002A\u002A,4*%
X128989985Y-80904968D03*
%TO.P,REF\u002A\u002A,3*%
X128989985Y-78364968D03*
%TO.P,REF\u002A\u002A,2*%
X126449985Y-80904968D03*
D11*
%TO.P,REF\u002A\u002A,1*%
X126449985Y-78364968D03*
%TD*%
%TO.P,REF\u002A\u002A,1*%
%TO.N,N/C*%
X149309985Y-85984968D03*
D10*
%TO.P,REF\u002A\u002A,2*%
X149309985Y-83444968D03*
%TO.P,REF\u002A\u002A,3*%
X146769985Y-85984968D03*
%TO.P,REF\u002A\u002A,4*%
X146769985Y-83444968D03*
%TO.P,REF\u002A\u002A,5*%
X144229985Y-85984968D03*
%TO.P,REF\u002A\u002A,6*%
X144229985Y-83444968D03*
%TO.P,REF\u002A\u002A,7*%
X141689985Y-85984968D03*
%TO.P,REF\u002A\u002A,8*%
X141689985Y-83444968D03*
%TO.P,REF\u002A\u002A,9*%
X139149985Y-85984968D03*
%TO.P,REF\u002A\u002A,10*%
X139149985Y-83444968D03*
%TO.P,REF\u002A\u002A,11*%
X136609985Y-85984968D03*
%TO.P,REF\u002A\u002A,12*%
X136609985Y-83444968D03*
%TO.P,REF\u002A\u002A,13*%
X134069985Y-85984968D03*
%TO.P,REF\u002A\u002A,14*%
X134069985Y-83444968D03*
%TO.P,REF\u002A\u002A,15*%
X131529985Y-85984968D03*
%TO.P,REF\u002A\u002A,16*%
X131529985Y-83444968D03*
%TO.P,REF\u002A\u002A,17*%
X128989985Y-85984968D03*
%TO.P,REF\u002A\u002A,18*%
X128989985Y-83444968D03*
%TO.P,REF\u002A\u002A,19*%
X126449985Y-85984968D03*
%TO.P,REF\u002A\u002A,20*%
X126449985Y-83444968D03*
%TD*%
D11*
%TO.P,REF\u002A\u002A,1*%
%TO.N,N/C*%
X128989985Y-88524968D03*
D10*
%TO.P,REF\u002A\u002A,2*%
X128989985Y-91064968D03*
%TO.P,REF\u002A\u002A,3*%
X131529985Y-88524968D03*
%TO.P,REF\u002A\u002A,4*%
X131529985Y-91064968D03*
%TO.P,REF\u002A\u002A,5*%
X134069985Y-88524968D03*
%TO.P,REF\u002A\u002A,6*%
X134069985Y-91064968D03*
%TO.P,REF\u002A\u002A,7*%
X136609985Y-88524968D03*
%TO.P,REF\u002A\u002A,8*%
X136609985Y-91064968D03*
%TO.P,REF\u002A\u002A,9*%
X139149985Y-88524968D03*
%TO.P,REF\u002A\u002A,10*%
X139149985Y-91064968D03*
%TO.P,REF\u002A\u002A,11*%
X141689985Y-88524968D03*
%TO.P,REF\u002A\u002A,12*%
X141689985Y-91064968D03*
%TO.P,REF\u002A\u002A,13*%
X144229985Y-88524968D03*
%TO.P,REF\u002A\u002A,14*%
X144229985Y-91064968D03*
%TO.P,REF\u002A\u002A,15*%
X146769985Y-88524968D03*
%TO.P,REF\u002A\u002A,16*%
X146769985Y-91064968D03*
%TO.P,REF\u002A\u002A,17*%
X149309985Y-88524968D03*
%TO.P,REF\u002A\u002A,18*%
X149309985Y-91064968D03*
%TO.P,REF\u002A\u002A,19*%
X151849985Y-88524968D03*
%TO.P,REF\u002A\u002A,20*%
X151849985Y-91064968D03*
%TD*%
D11*
%TO.P,REF\u002A\u002A,1*%
%TO.N,N/C*%
X128989985Y-93604968D03*
D10*
%TO.P,REF\u002A\u002A,2*%
X128989985Y-96144968D03*
%TO.P,REF\u002A\u002A,3*%
X131529985Y-93604968D03*
%TO.P,REF\u002A\u002A,4*%
X131529985Y-96144968D03*
%TO.P,REF\u002A\u002A,5*%
X134069985Y-93604968D03*
%TO.P,REF\u002A\u002A,6*%
X134069985Y-96144968D03*
%TO.P,REF\u002A\u002A,7*%
X136609985Y-93604968D03*
%TO.P,REF\u002A\u002A,8*%
X136609985Y-96144968D03*
%TO.P,REF\u002A\u002A,9*%
X139149985Y-93604968D03*
%TO.P,REF\u002A\u002A,10*%
X139149985Y-96144968D03*
%TO.P,REF\u002A\u002A,11*%
X141689985Y-93604968D03*
%TO.P,REF\u002A\u002A,12*%
X141689985Y-96144968D03*
%TO.P,REF\u002A\u002A,13*%
X144229985Y-93604968D03*
%TO.P,REF\u002A\u002A,14*%
X144229985Y-96144968D03*
%TO.P,REF\u002A\u002A,15*%
X146769985Y-93604968D03*
%TO.P,REF\u002A\u002A,16*%
X146769985Y-96144968D03*
%TO.P,REF\u002A\u002A,17*%
X149309985Y-93604968D03*
%TO.P,REF\u002A\u002A,18*%
X149309985Y-96144968D03*
%TO.P,REF\u002A\u002A,19*%
X151849985Y-93604968D03*
%TO.P,REF\u002A\u002A,20*%
X151849985Y-96144968D03*
%TD*%
D11*
%TO.P,REF\u002A\u002A,1*%
%TO.N,N/C*%
X128989985Y-98684968D03*
D10*
%TO.P,REF\u002A\u002A,2*%
X128989985Y-101224968D03*
%TO.P,REF\u002A\u002A,3*%
X131529985Y-98684968D03*
%TO.P,REF\u002A\u002A,4*%
X131529985Y-101224968D03*
%TO.P,REF\u002A\u002A,5*%
X134069985Y-98684968D03*
%TO.P,REF\u002A\u002A,6*%
X134069985Y-101224968D03*
%TO.P,REF\u002A\u002A,7*%
X136609985Y-98684968D03*
%TO.P,REF\u002A\u002A,8*%
X136609985Y-101224968D03*
%TO.P,REF\u002A\u002A,9*%
X139149985Y-98684968D03*
%TO.P,REF\u002A\u002A,10*%
X139149985Y-101224968D03*
%TO.P,REF\u002A\u002A,11*%
X141689985Y-98684968D03*
%TO.P,REF\u002A\u002A,12*%
X141689985Y-101224968D03*
%TO.P,REF\u002A\u002A,13*%
X144229985Y-98684968D03*
%TO.P,REF\u002A\u002A,14*%
X144229985Y-101224968D03*
%TO.P,REF\u002A\u002A,15*%
X146769985Y-98684968D03*
%TO.P,REF\u002A\u002A,16*%
X146769985Y-101224968D03*
%TO.P,REF\u002A\u002A,17*%
X149309985Y-98684968D03*
%TO.P,REF\u002A\u002A,18*%
X149309985Y-101224968D03*
%TO.P,REF\u002A\u002A,19*%
X151849985Y-98684968D03*
%TO.P,REF\u002A\u002A,20*%
X151849985Y-101224968D03*
%TD*%
%TO.P,REF\u002A\u002A,20*%
%TO.N,N/C*%
X151849985Y-106304968D03*
%TO.P,REF\u002A\u002A,19*%
X151849985Y-103764968D03*
%TO.P,REF\u002A\u002A,18*%
X149309985Y-106304968D03*
%TO.P,REF\u002A\u002A,17*%
X149309985Y-103764968D03*
%TO.P,REF\u002A\u002A,16*%
X146769985Y-106304968D03*
%TO.P,REF\u002A\u002A,15*%
X146769985Y-103764968D03*
%TO.P,REF\u002A\u002A,14*%
X144229985Y-106304968D03*
%TO.P,REF\u002A\u002A,13*%
X144229985Y-103764968D03*
%TO.P,REF\u002A\u002A,12*%
X141689985Y-106304968D03*
%TO.P,REF\u002A\u002A,11*%
X141689985Y-103764968D03*
%TO.P,REF\u002A\u002A,10*%
X139149985Y-106304968D03*
%TO.P,REF\u002A\u002A,9*%
X139149985Y-103764968D03*
%TO.P,REF\u002A\u002A,8*%
X136609985Y-106304968D03*
%TO.P,REF\u002A\u002A,7*%
X136609985Y-103764968D03*
%TO.P,REF\u002A\u002A,6*%
X134069985Y-106304968D03*
%TO.P,REF\u002A\u002A,5*%
X134069985Y-103764968D03*
%TO.P,REF\u002A\u002A,4*%
X131529985Y-106304968D03*
%TO.P,REF\u002A\u002A,3*%
X131529985Y-103764968D03*
%TO.P,REF\u002A\u002A,2*%
X128989985Y-106304968D03*
D11*
%TO.P,REF\u002A\u002A,1*%
X128989985Y-103764968D03*
%TD*%
D10*
%TO.P,REF\u002A\u002A,38*%
%TO.N,N/C*%
X119464985Y-60584968D03*
%TO.P,REF\u002A\u002A,37*%
X116924985Y-60584968D03*
%TO.P,REF\u002A\u002A,36*%
X119464985Y-63124968D03*
%TO.P,REF\u002A\u002A,35*%
X116924985Y-63124968D03*
%TO.P,REF\u002A\u002A,34*%
X119464985Y-65664968D03*
%TO.P,REF\u002A\u002A,33*%
X116924985Y-65664968D03*
%TO.P,REF\u002A\u002A,32*%
X119464985Y-68204968D03*
%TO.P,REF\u002A\u002A,31*%
X116924985Y-68204968D03*
%TO.P,REF\u002A\u002A,30*%
X119464985Y-70744968D03*
%TO.P,REF\u002A\u002A,29*%
X116924985Y-70744968D03*
%TO.P,REF\u002A\u002A,28*%
X119464985Y-73284968D03*
%TO.P,REF\u002A\u002A,27*%
X116924985Y-73284968D03*
%TO.P,REF\u002A\u002A,26*%
X119464985Y-75824968D03*
%TO.P,REF\u002A\u002A,25*%
X116924985Y-75824968D03*
%TO.P,REF\u002A\u002A,24*%
X119464985Y-78364968D03*
%TO.P,REF\u002A\u002A,23*%
X116924985Y-78364968D03*
%TO.P,REF\u002A\u002A,22*%
X119464985Y-80904968D03*
%TO.P,REF\u002A\u002A,21*%
X116924985Y-80904968D03*
%TO.P,REF\u002A\u002A,20*%
X119464985Y-83444968D03*
%TO.P,REF\u002A\u002A,19*%
X116924985Y-83444968D03*
%TO.P,REF\u002A\u002A,18*%
X119464985Y-85984968D03*
%TO.P,REF\u002A\u002A,17*%
X116924985Y-85984968D03*
%TO.P,REF\u002A\u002A,16*%
X119464985Y-88524968D03*
%TO.P,REF\u002A\u002A,15*%
X116924985Y-88524968D03*
%TO.P,REF\u002A\u002A,14*%
X119464985Y-91064968D03*
%TO.P,REF\u002A\u002A,13*%
X116924985Y-91064968D03*
%TO.P,REF\u002A\u002A,12*%
X119464985Y-93604968D03*
%TO.P,REF\u002A\u002A,11*%
X116924985Y-93604968D03*
%TO.P,REF\u002A\u002A,10*%
X119464985Y-96144968D03*
%TO.P,REF\u002A\u002A,9*%
X116924985Y-96144968D03*
%TO.P,REF\u002A\u002A,8*%
X119464985Y-98684968D03*
%TO.P,REF\u002A\u002A,7*%
X116924985Y-98684968D03*
%TO.P,REF\u002A\u002A,6*%
X119464985Y-101224968D03*
%TO.P,REF\u002A\u002A,5*%
X116924985Y-101224968D03*
%TO.P,REF\u002A\u002A,4*%
X119464985Y-103764968D03*
%TO.P,REF\u002A\u002A,3*%
X116924985Y-103764968D03*
%TO.P,REF\u002A\u002A,2*%
X119464985Y-106304968D03*
D11*
%TO.P,REF\u002A\u002A,1*%
X116924985Y-106304968D03*
%TD*%
D10*
%TO.P,REF\u002A\u002A,38*%
%TO.N,N/C*%
X114384985Y-60584968D03*
%TO.P,REF\u002A\u002A,37*%
X111844985Y-60584968D03*
%TO.P,REF\u002A\u002A,36*%
X114384985Y-63124968D03*
%TO.P,REF\u002A\u002A,35*%
X111844985Y-63124968D03*
%TO.P,REF\u002A\u002A,34*%
X114384985Y-65664968D03*
%TO.P,REF\u002A\u002A,33*%
X111844985Y-65664968D03*
%TO.P,REF\u002A\u002A,32*%
X114384985Y-68204968D03*
%TO.P,REF\u002A\u002A,31*%
X111844985Y-68204968D03*
%TO.P,REF\u002A\u002A,30*%
X114384985Y-70744968D03*
%TO.P,REF\u002A\u002A,29*%
X111844985Y-70744968D03*
%TO.P,REF\u002A\u002A,28*%
X114384985Y-73284968D03*
%TO.P,REF\u002A\u002A,27*%
X111844985Y-73284968D03*
%TO.P,REF\u002A\u002A,26*%
X114384985Y-75824968D03*
%TO.P,REF\u002A\u002A,25*%
X111844985Y-75824968D03*
%TO.P,REF\u002A\u002A,24*%
X114384985Y-78364968D03*
%TO.P,REF\u002A\u002A,23*%
X111844985Y-78364968D03*
%TO.P,REF\u002A\u002A,22*%
X114384985Y-80904968D03*
%TO.P,REF\u002A\u002A,21*%
X111844985Y-80904968D03*
%TO.P,REF\u002A\u002A,20*%
X114384985Y-83444968D03*
%TO.P,REF\u002A\u002A,19*%
X111844985Y-83444968D03*
%TO.P,REF\u002A\u002A,18*%
X114384985Y-85984968D03*
%TO.P,REF\u002A\u002A,17*%
X111844985Y-85984968D03*
%TO.P,REF\u002A\u002A,16*%
X114384985Y-88524968D03*
%TO.P,REF\u002A\u002A,15*%
X111844985Y-88524968D03*
%TO.P,REF\u002A\u002A,14*%
X114384985Y-91064968D03*
%TO.P,REF\u002A\u002A,13*%
X111844985Y-91064968D03*
%TO.P,REF\u002A\u002A,12*%
X114384985Y-93604968D03*
%TO.P,REF\u002A\u002A,11*%
X111844985Y-93604968D03*
%TO.P,REF\u002A\u002A,10*%
X114384985Y-96144968D03*
%TO.P,REF\u002A\u002A,9*%
X111844985Y-96144968D03*
%TO.P,REF\u002A\u002A,8*%
X114384985Y-98684968D03*
%TO.P,REF\u002A\u002A,7*%
X111844985Y-98684968D03*
%TO.P,REF\u002A\u002A,6*%
X114384985Y-101224968D03*
%TO.P,REF\u002A\u002A,5*%
X111844985Y-101224968D03*
%TO.P,REF\u002A\u002A,4*%
X114384985Y-103764968D03*
%TO.P,REF\u002A\u002A,3*%
X111844985Y-103764968D03*
%TO.P,REF\u002A\u002A,2*%
X114384985Y-106304968D03*
D11*
%TO.P,REF\u002A\u002A,1*%
X111844985Y-106304968D03*
%TD*%
D12*
%TO.P,C1,1*%
%TO.N,N/C*%
X179784986Y-130489664D03*
%TO.P,C1,2*%
X177284986Y-130489664D03*
%TD*%
D13*
%TO.P,D1,1*%
%TO.N,N/C*%
X175094986Y-124494664D03*
D14*
%TO.P,D1,2*%
X175094986Y-127034664D03*
%TD*%
D15*
%TO.P,U4,1*%
%TO.N,N/C*%
X179324986Y-91179664D03*
%TO.P,U4,2*%
X181864986Y-91179664D03*
%TO.P,U4,3*%
X181864986Y-86099664D03*
%TO.P,U4,4*%
X179324986Y-86099664D03*
%TD*%
%TO.P,U2,1*%
%TO.N,N/C*%
X179324986Y-115179664D03*
%TO.P,U2,2*%
X181864986Y-115179664D03*
%TO.P,U2,3*%
X181864986Y-110099664D03*
%TO.P,U2,4*%
X179324986Y-110099664D03*
%TD*%
%TO.P,U3,1*%
%TO.N,N/C*%
X179324986Y-103179664D03*
%TO.P,U3,2*%
X181864986Y-103179664D03*
%TO.P,U3,3*%
X181864986Y-98099664D03*
%TO.P,U3,4*%
X179324986Y-98099664D03*
%TD*%
D13*
%TO.P,D2,1*%
%TO.N,N/C*%
X175094986Y-111429664D03*
D14*
%TO.P,D2,2*%
X175094986Y-113969664D03*
%TD*%
D15*
%TO.P,U1,1*%
%TO.N,N/C*%
X179324986Y-128179664D03*
%TO.P,U1,2*%
X181864986Y-128179664D03*
%TO.P,U1,3*%
X181864986Y-123099664D03*
%TO.P,U1,4*%
X179324986Y-123099664D03*
%TD*%
D13*
%TO.P,D4,1*%
%TO.N,N/C*%
X175094986Y-87569664D03*
D14*
%TO.P,D4,2*%
X175094986Y-90109664D03*
%TD*%
D13*
%TO.P,D3,1*%
%TO.N,N/C*%
X175094986Y-99364664D03*
D14*
%TO.P,D3,2*%
X175094986Y-101904664D03*
%TD*%
D11*
%TO.P,J1,1*%
%TO.N,N/C*%
X182324986Y-133164664D03*
D10*
%TO.P,J1,2*%
X179784986Y-133164664D03*
%TO.P,J1,3*%
X177244986Y-133164664D03*
%TO.P,J1,4*%
X174704986Y-133164664D03*
%TD*%
D12*
%TO.P,C1,1*%
%TO.N,N/C*%
X190364985Y-114249968D03*
%TO.P,C1,2*%
X192864985Y-114249968D03*
%TD*%
D13*
%TO.P,D1,1*%
%TO.N,N/C*%
X195054985Y-120244968D03*
D14*
%TO.P,D1,2*%
X195054985Y-117704968D03*
%TD*%
D15*
%TO.P,U2,1*%
%TO.N,N/C*%
X190824985Y-128559968D03*
%TO.P,U2,2*%
X188284985Y-128559968D03*
%TO.P,U2,3*%
X188284985Y-133639968D03*
%TO.P,U2,4*%
X190824985Y-133639968D03*
%TD*%
%TO.P,U3,1*%
%TO.N,N/C*%
X190824985Y-141559968D03*
%TO.P,U3,2*%
X188284985Y-141559968D03*
%TO.P,U3,3*%
X188284985Y-146639968D03*
%TO.P,U3,4*%
X190824985Y-146639968D03*
%TD*%
D13*
%TO.P,D2,1*%
%TO.N,N/C*%
X195054985Y-132309968D03*
D14*
%TO.P,D2,2*%
X195054985Y-129769968D03*
%TD*%
D15*
%TO.P,U1,1*%
%TO.N,N/C*%
X190824985Y-116559968D03*
%TO.P,U1,2*%
X188284985Y-116559968D03*
%TO.P,U1,3*%
X188284985Y-121639968D03*
%TO.P,U1,4*%
X190824985Y-121639968D03*
%TD*%
D13*
%TO.P,D3,1*%
%TO.N,N/C*%
X195054985Y-145374968D03*
D14*
%TO.P,D3,2*%
X195054985Y-142834968D03*
%TD*%
D11*
%TO.P,J1,1*%
%TO.N,N/C*%
X187824985Y-111574968D03*
D10*
%TO.P,J1,2*%
X190364985Y-111574968D03*
%TO.P,J1,3*%
X192904985Y-111574968D03*
%TO.P,J1,4*%
X195444985Y-111574968D03*
%TD*%
D15*
%TO.P,U1,4*%
%TO.N,GND*%
X203807493Y-103827484D03*
%TO.P,U1,3*%
%TO.N,Vout*%
X201267493Y-103827484D03*
%TO.P,U1,2*%
%TO.N,+5V*%
X201267493Y-98747484D03*
%TO.P,U1,1*%
%TO.N,Net-(D1-Pad1)*%
X203807493Y-98747484D03*
%TD*%
%TO.P,U2,4*%
%TO.N,GND*%
X203807493Y-117827484D03*
%TO.P,U2,3*%
%TO.N,Vout*%
X201267493Y-117827484D03*
%TO.P,U2,2*%
%TO.N,+5V*%
X201267493Y-112747484D03*
%TO.P,U2,1*%
%TO.N,Net-(D2-Pad1)*%
X203807493Y-112747484D03*
%TD*%
%TO.P,U3,4*%
%TO.N,GND*%
X203807493Y-131827484D03*
%TO.P,U3,3*%
%TO.N,Vout*%
X201267493Y-131827484D03*
%TO.P,U3,2*%
%TO.N,+5V*%
X201267493Y-126747484D03*
%TO.P,U3,1*%
%TO.N,Net-(D3-Pad1)*%
X203807493Y-126747484D03*
%TD*%
%TO.P,U4,4*%
%TO.N,GND*%
X203807493Y-145827484D03*
%TO.P,U4,3*%
%TO.N,Vout*%
X201267493Y-145827484D03*
%TO.P,U4,2*%
%TO.N,+5V*%
X201267493Y-140747484D03*
%TO.P,U4,1*%
%TO.N,Net-(D4-Pad1)*%
X203807493Y-140747484D03*
%TD*%
D10*
%TO.P,J1,4*%
%TO.N,LED*%
X208427493Y-93762484D03*
%TO.P,J1,3*%
%TO.N,GND*%
X205887493Y-93762484D03*
%TO.P,J1,2*%
%TO.N,+5V*%
X203347493Y-93762484D03*
D11*
%TO.P,J1,1*%
%TO.N,Vout*%
X200807493Y-93762484D03*
%TD*%
D14*
%TO.P,D4,2*%
%TO.N,LED*%
X208037493Y-141817484D03*
D13*
%TO.P,D4,1*%
%TO.N,Net-(D4-Pad1)*%
X208037493Y-144357484D03*
%TD*%
D14*
%TO.P,D3,2*%
%TO.N,LED*%
X208037493Y-128022484D03*
D13*
%TO.P,D3,1*%
%TO.N,Net-(D3-Pad1)*%
X208037493Y-130562484D03*
%TD*%
D14*
%TO.P,D2,2*%
%TO.N,LED*%
X208037493Y-113957484D03*
D13*
%TO.P,D2,1*%
%TO.N,Net-(D2-Pad1)*%
X208037493Y-116497484D03*
%TD*%
D14*
%TO.P,D1,2*%
%TO.N,LED*%
X208037493Y-99892484D03*
D13*
%TO.P,D1,1*%
%TO.N,Net-(D1-Pad1)*%
X208037493Y-102432484D03*
%TD*%
D12*
%TO.P,C1,2*%
%TO.N,GND*%
X205847493Y-96437484D03*
%TO.P,C1,1*%
%TO.N,+5V*%
X203347493Y-96437484D03*
%TD*%
%TO.P,C2,1*%
%TO.N,GND*%
X149692499Y-117045651D03*
%TO.P,C2,2*%
%TO.N,Net-(C2-Pad2)*%
X149692499Y-114545651D03*
%TD*%
%TO.P,J8,1*%
%TO.N,GND1*%
%TA.AperFunction,ComponentPad*%
G36*
G01*
X120554498Y-127411651D02*
X122054498Y-127411651D01*
G75*
G02*
X122304498Y-127661651I0J-250000D01*
G01*
X122304498Y-128861651D01*
G75*
G02*
X122054498Y-129111651I-250000J0D01*
G01*
X120554498Y-129111651D01*
G75*
G02*
X120304498Y-128861651I0J250000D01*
G01*
X120304498Y-127661651D01*
G75*
G02*
X120554498Y-127411651I250000J0D01*
G01*
G37*
%TD.AperFunction*%
D16*
%TO.P,J8,2*%
%TO.N,+12V*%
X121304498Y-130761651D03*
%TD*%
D17*
%TO.P,MES2,2*%
%TO.N,Net-(F2-Pad2)*%
X133438499Y-131657651D03*
%TO.P,MES2,1*%
%TO.N,GND1*%
X136938499Y-131657651D03*
%TD*%
D18*
%TO.P,SW1,1*%
%TO.N,Net-(F1-Pad2)*%
X166964499Y-127205651D03*
%TO.P,SW1,2*%
%TO.N,Net-(C2-Pad2)*%
X166964499Y-124665651D03*
%TO.P,SW1,3*%
%TO.N,N/C*%
X166964499Y-122125651D03*
%TD*%
%TO.P,J1,1*%
%TO.N,GND*%
%TA.AperFunction,ComponentPad*%
G36*
G01*
X148410499Y-131611651D02*
X146910499Y-131611651D01*
G75*
G02*
X146660499Y-131361651I0J250000D01*
G01*
X146660499Y-130161651D01*
G75*
G02*
X146910499Y-129911651I250000J0D01*
G01*
X148410499Y-129911651D01*
G75*
G02*
X148660499Y-130161651I0J-250000D01*
G01*
X148660499Y-131361651D01*
G75*
G02*
X148410499Y-131611651I-250000J0D01*
G01*
G37*
%TD.AperFunction*%
D16*
%TO.P,J1,2*%
%TO.N,+5V*%
X147660499Y-128261651D03*
%TD*%
D19*
%TO.P,U7,1*%
%TO.N,Net-(C2-Pad2)*%
X145120499Y-114505651D03*
D20*
%TO.P,U7,2*%
%TO.N,GND*%
X145120499Y-117045651D03*
%TO.P,U7,3*%
%TO.N,+5V*%
X145120499Y-119585651D03*
%TD*%
D21*
%TO.P,F2,2*%
%TO.N,Net-(F2-Pad2)*%
X124046499Y-121109651D03*
X120346499Y-121109651D03*
%TO.P,F2,1*%
%TO.N,Net-(BT2-Pad2)*%
X116046499Y-121109651D03*
X112346499Y-121109651D03*
%TD*%
D17*
%TO.P,MES1,2*%
%TO.N,Net-(F1-Pad2)*%
X161578498Y-131657651D03*
%TO.P,MES1,1*%
%TO.N,GND*%
X165078498Y-131657651D03*
%TD*%
D18*
%TO.P,SW2,1*%
%TO.N,Net-(F2-Pad2)*%
X113116499Y-131777651D03*
%TO.P,SW2,2*%
%TO.N,+12V*%
X113116499Y-129237651D03*
%TO.P,SW2,3*%
%TO.N,N/C*%
X113116499Y-126697651D03*
%TD*%
%TO.P,BT1,1*%
%TO.N,GND*%
%TA.AperFunction,ComponentPad*%
G36*
G01*
X163242499Y-113755651D02*
X163242499Y-115255651D01*
G75*
G02*
X162992499Y-115505651I-250000J0D01*
G01*
X161792499Y-115505651D01*
G75*
G02*
X161542499Y-115255651I0J250000D01*
G01*
X161542499Y-113755651D01*
G75*
G02*
X161792499Y-113505651I250000J0D01*
G01*
X162992499Y-113505651D01*
G75*
G02*
X163242499Y-113755651I0J-250000D01*
G01*
G37*
%TD.AperFunction*%
D22*
%TO.P,BT1,2*%
%TO.N,Net-(BT1-Pad2)*%
X159892499Y-114505651D03*
%TD*%
%TO.P,J11,1*%
%TO.N,GND1*%
%TA.AperFunction,ComponentPad*%
G36*
G01*
X128174498Y-127371651D02*
X129674498Y-127371651D01*
G75*
G02*
X129924498Y-127621651I0J-250000D01*
G01*
X129924498Y-128821651D01*
G75*
G02*
X129674498Y-129071651I-250000J0D01*
G01*
X128174498Y-129071651D01*
G75*
G02*
X127924498Y-128821651I0J250000D01*
G01*
X127924498Y-127621651D01*
G75*
G02*
X128174498Y-127371651I250000J0D01*
G01*
G37*
%TD.AperFunction*%
D16*
%TO.P,J11,2*%
%TO.N,+12V*%
X128924498Y-130721651D03*
%TD*%
%TO.P,BT2,1*%
%TO.N,GND1*%
%TA.AperFunction,ComponentPad*%
G36*
G01*
X125134499Y-111881652D02*
X125134499Y-114081650D01*
G75*
G02*
X124884498Y-114331651I-250001J0D01*
G01*
X122684500Y-114331651D01*
G75*
G02*
X122434499Y-114081650I0J250001D01*
G01*
X122434499Y-111881652D01*
G75*
G02*
X122684500Y-111631651I250001J0D01*
G01*
X124884498Y-111631651D01*
G75*
G02*
X125134499Y-111881652I0J-250001D01*
G01*
G37*
%TD.AperFunction*%
D23*
%TO.P,BT2,2*%
%TO.N,Net-(BT2-Pad2)*%
X119824499Y-112981651D03*
%TD*%
%TO.P,J2,1*%
%TO.N,GND*%
%TA.AperFunction,ComponentPad*%
G36*
G01*
X156538499Y-131611651D02*
X155038499Y-131611651D01*
G75*
G02*
X154788499Y-131361651I0J250000D01*
G01*
X154788499Y-130161651D01*
G75*
G02*
X155038499Y-129911651I250000J0D01*
G01*
X156538499Y-129911651D01*
G75*
G02*
X156788499Y-130161651I0J-250000D01*
G01*
X156788499Y-131361651D01*
G75*
G02*
X156538499Y-131611651I-250000J0D01*
G01*
G37*
%TD.AperFunction*%
D16*
%TO.P,J2,2*%
%TO.N,+5V*%
X155788499Y-128261651D03*
%TD*%
D12*
%TO.P,C1,1*%
%TO.N,+5V*%
X139024499Y-119585651D03*
%TO.P,C1,2*%
%TO.N,GND*%
X139024499Y-117085651D03*
%TD*%
D21*
%TO.P,F1,2*%
%TO.N,Net-(F1-Pad2)*%
X149938499Y-121617651D03*
X153638499Y-121617651D03*
%TO.P,F1,1*%
%TO.N,Net-(BT1-Pad2)*%
X157938499Y-121617651D03*
X161638499Y-121617651D03*
%TD*%
D11*
%TO.P,J1,1*%
%TO.N,N/C*%
X157574985Y-72574967D03*
D10*
%TO.P,J1,2*%
X157574985Y-70034967D03*
%TO.P,J1,3*%
X157574985Y-67494967D03*
%TO.P,J1,4*%
X157574985Y-64954967D03*
%TD*%
D11*
%TO.P,J4,1*%
%TO.N,N/C*%
X179574985Y-64954967D03*
D10*
%TO.P,J4,2*%
X179574985Y-67494967D03*
%TO.P,J4,3*%
X179574985Y-70034967D03*
%TO.P,J4,4*%
X179574985Y-72574967D03*
%TD*%
%TO.P,J5,1*%
%TO.N,N/C*%
%TA.AperFunction,ComponentPad*%
G36*
G01*
X162724985Y-72799967D02*
X162724985Y-71349967D01*
G75*
G02*
X162974985Y-71099967I250000J0D01*
G01*
X164174985Y-71099967D01*
G75*
G02*
X164424985Y-71349967I0J-250000D01*
G01*
X164424985Y-72799967D01*
G75*
G02*
X164174985Y-73049967I-250000J0D01*
G01*
X162974985Y-73049967D01*
G75*
G02*
X162724985Y-72799967I0J250000D01*
G01*
G37*
%TD.AperFunction*%
D24*
%TO.P,J5,2*%
X166074985Y-72074967D03*
%TO.P,J5,3*%
X168574985Y-72074967D03*
%TO.P,J5,4*%
X171074985Y-72074967D03*
%TO.P,J5,5*%
X173574985Y-72074967D03*
%TD*%
D11*
%TO.P,J6,1*%
%TO.N,N/C*%
X172074985Y-79574967D03*
D10*
%TO.P,J6,2*%
X169534985Y-79574967D03*
%TO.P,J6,3*%
X166994985Y-79574967D03*
%TO.P,J6,4*%
X164454985Y-79574967D03*
%TD*%
%TO.P,J2,1*%
%TO.N,N/C*%
%TA.AperFunction,ComponentPad*%
G36*
G01*
X161224985Y-64799967D02*
X161224985Y-63349967D01*
G75*
G02*
X161474985Y-63099967I250000J0D01*
G01*
X162674985Y-63099967D01*
G75*
G02*
X162924985Y-63349967I0J-250000D01*
G01*
X162924985Y-64799967D01*
G75*
G02*
X162674985Y-65049967I-250000J0D01*
G01*
X161474985Y-65049967D01*
G75*
G02*
X161224985Y-64799967I0J250000D01*
G01*
G37*
%TD.AperFunction*%
D24*
%TO.P,J2,2*%
X164574985Y-64074967D03*
%TO.P,J2,3*%
X167074985Y-64074967D03*
%TO.P,J2,4*%
X169574985Y-64074967D03*
%TO.P,J2,5*%
X172074985Y-64074967D03*
%TO.P,J2,6*%
X174574985Y-64074967D03*
%TD*%
D11*
%TO.P,J3,1*%
%TO.N,N/C*%
X165074985Y-57574967D03*
D10*
%TO.P,J3,2*%
X167614985Y-57574967D03*
%TO.P,J3,3*%
X170154985Y-57574967D03*
%TO.P,J3,4*%
X172694985Y-57574967D03*
%TD*%
D25*
%TO.N,*%
X176557885Y-68509967D03*
%TD*%
D26*
%TO.N,*%
X165626485Y-62626467D02*
X161203785Y-62626467D01*
X167074985Y-64074967D02*
X165626485Y-62626467D01*
X161203785Y-62626467D02*
X158875285Y-64954967D01*
X157574985Y-64954967D02*
X158875285Y-64954967D01*
X162074985Y-64074967D02*
X158875285Y-67274667D01*
X158875285Y-67274667D02*
X158875285Y-67494967D01*
X157574985Y-67494967D02*
X158875285Y-67494967D01*
X159219485Y-70034967D02*
X159629885Y-70445367D01*
X164574985Y-65500267D02*
X159629885Y-70445367D01*
X165909685Y-76725167D02*
X166685185Y-76725167D01*
X159629885Y-70445367D02*
X165909685Y-76725167D01*
X157574985Y-70034967D02*
X158875285Y-70034967D01*
X166685185Y-76725167D02*
X169534985Y-79574967D01*
X164574985Y-64074967D02*
X164574985Y-65500267D01*
X158875285Y-70034967D02*
X159219485Y-70034967D01*
X174574985Y-64074967D02*
X175875285Y-64074967D01*
X180880985Y-63858767D02*
X180880985Y-73117467D01*
X173116285Y-80882167D02*
X165762185Y-80882167D01*
X165762185Y-80882167D02*
X164454985Y-79574967D01*
X175875285Y-64074967D02*
X176324985Y-63625267D01*
X180647485Y-63625267D02*
X180880985Y-63858767D01*
X176324985Y-63625267D02*
X180647485Y-63625267D01*
X180880985Y-73117467D02*
X173116285Y-80882167D01*
X179574985Y-72574967D02*
X178274685Y-72574967D01*
X178274685Y-71699967D02*
X178274685Y-72574967D01*
X172074985Y-65500267D02*
X178274685Y-71699967D01*
X172074985Y-64074967D02*
X172074985Y-65500267D01*
X169574985Y-64074967D02*
X169574985Y-61995267D01*
X169574985Y-61995267D02*
X172694985Y-58875267D01*
X172694985Y-57574967D02*
X172694985Y-58875267D01*
X176557885Y-67972067D02*
X179574985Y-64954967D01*
X176557885Y-68509967D02*
X176557885Y-67972067D01*
X171074985Y-72074967D02*
X171074985Y-77274667D01*
X172074985Y-79574967D02*
X172074985Y-78274667D01*
X171074985Y-77274667D02*
X172074985Y-78274667D01*
X195054985Y-120244968D02*
X194509985Y-120244968D01*
X194509985Y-120244968D02*
X190824985Y-116559968D01*
X193654985Y-132309968D02*
X190824985Y-129479968D01*
X190824985Y-129479968D02*
X190824985Y-128559968D01*
X195054985Y-132309968D02*
X193654985Y-132309968D01*
X195054985Y-145374968D02*
X194639985Y-145374968D01*
X194639985Y-145374968D02*
X190824985Y-141559968D01*
D27*
X189737984Y-135092967D02*
X188284985Y-133639968D01*
X188284985Y-146639968D02*
X189737984Y-145186969D01*
X189371986Y-122726969D02*
X188284985Y-121639968D01*
D26*
X189496986Y-134851969D02*
X188284985Y-133639968D01*
X188284985Y-133639968D02*
X189496986Y-132427967D01*
D27*
X188284985Y-133639968D02*
X189371986Y-132552967D01*
D26*
X189496986Y-120427967D02*
X189496986Y-116041969D01*
X187824985Y-114369968D02*
X187824985Y-111574968D01*
X188284985Y-146639968D02*
X189496986Y-145427967D01*
X189496986Y-122851969D02*
X188284985Y-121639968D01*
X188284985Y-121639968D02*
X189496986Y-120427967D01*
X189496986Y-116041969D02*
X187824985Y-114369968D01*
X189496986Y-145427967D02*
X189496986Y-134851969D01*
X189496986Y-132427967D02*
X189496986Y-122851969D01*
X175094986Y-124494664D02*
X175639986Y-124494664D01*
X175639986Y-124494664D02*
X179324986Y-128179664D01*
D27*
X180777985Y-122012663D02*
X181864986Y-123099664D01*
D26*
X180652985Y-124311665D02*
X180652985Y-128697663D01*
X182324986Y-130369664D02*
X182324986Y-133164664D01*
X180652985Y-121887663D02*
X181864986Y-123099664D01*
X181864986Y-123099664D02*
X180652985Y-124311665D01*
X180652985Y-128697663D02*
X182324986Y-130369664D01*
X180652985Y-111311665D02*
X181864986Y-110099664D01*
X180652985Y-121887663D02*
X180652985Y-111311665D01*
X181864986Y-110099664D02*
X180574986Y-108809664D01*
X180574986Y-99389664D02*
X181864986Y-98099664D01*
X180574986Y-108809664D02*
X180574986Y-99389664D01*
X181864986Y-98099664D02*
X180574986Y-96809664D01*
X180574986Y-87389664D02*
X181864986Y-86099664D01*
X180574986Y-96809664D02*
X180574986Y-87389664D01*
X175509986Y-99364664D02*
X175094986Y-99364664D01*
X179324986Y-103179664D02*
X175509986Y-99364664D01*
X175714986Y-87569664D02*
X175094986Y-87569664D01*
X179324986Y-91179664D02*
X175714986Y-87569664D01*
X175574986Y-111429664D02*
X175094986Y-111429664D01*
X179324986Y-115179664D02*
X175574986Y-111429664D01*
D28*
%TO.N,GND*%
X155788499Y-130761651D02*
X147660499Y-130761651D01*
X136824489Y-120536924D02*
X136824489Y-118154291D01*
X147049217Y-130761651D02*
X136824489Y-120536924D01*
X139064499Y-117045651D02*
X139024499Y-117085651D01*
X154241217Y-117045651D02*
X158981225Y-112305643D01*
X158981225Y-112305643D02*
X161192491Y-112305643D01*
X137893129Y-117085651D02*
X139024499Y-117085651D01*
X162392499Y-113505651D02*
X162392499Y-114505651D01*
X161192491Y-112305643D02*
X162392499Y-113505651D01*
X136824489Y-118154291D02*
X137893129Y-117085651D01*
X162392499Y-114505651D02*
X169208488Y-121321640D01*
X165078498Y-131657651D02*
X168078498Y-131657651D01*
X149692499Y-117045651D02*
X139064499Y-117045651D01*
X168078498Y-131657651D02*
X169208488Y-130527661D01*
X169208488Y-130527661D02*
X169208488Y-121321640D01*
X149692499Y-117045651D02*
X154241217Y-117045651D01*
X147660499Y-130761651D02*
X147049217Y-130761651D01*
%TO.N,+5V*%
X139024499Y-119585651D02*
X145120499Y-119585651D01*
X139024499Y-119625651D02*
X147660499Y-128261651D01*
X139024499Y-119585651D02*
X139024499Y-119625651D01*
X147660499Y-128261651D02*
X155788499Y-128261651D01*
D26*
%TO.N,Net-(D1-Pad1)*%
X207492493Y-102432484D02*
X203807493Y-98747484D01*
X208037493Y-102432484D02*
X207492493Y-102432484D01*
%TO.N,Net-(D2-Pad1)*%
X206637493Y-116497484D02*
X203807493Y-113667484D01*
X203807493Y-113667484D02*
X203807493Y-112747484D01*
X208037493Y-116497484D02*
X206637493Y-116497484D01*
%TO.N,Net-(D3-Pad1)*%
X207622493Y-130562484D02*
X203807493Y-126747484D01*
X208037493Y-130562484D02*
X207622493Y-130562484D01*
%TO.N,Net-(D4-Pad1)*%
X207417493Y-144357484D02*
X203807493Y-140747484D01*
X208037493Y-144357484D02*
X207417493Y-144357484D01*
D27*
%TO.N,Vout*%
X202720492Y-133280483D02*
X201267493Y-131827484D01*
X202720492Y-144374485D02*
X202720492Y-133280483D01*
X201267493Y-145827484D02*
X202720492Y-144374485D01*
X202720492Y-119280483D02*
X201267493Y-117827484D01*
X202720492Y-130374485D02*
X202720492Y-119280483D01*
X201267493Y-131827484D02*
X202720492Y-130374485D01*
X202354494Y-104914485D02*
X201267493Y-103827484D01*
X202354494Y-116740483D02*
X202354494Y-104914485D01*
X201267493Y-117827484D02*
X202354494Y-116740483D01*
D26*
X202595492Y-133155483D02*
X201267493Y-131827484D01*
X202595492Y-144499485D02*
X202595492Y-133155483D01*
X201267493Y-145827484D02*
X202595492Y-144499485D01*
X202479494Y-119039485D02*
X201267493Y-117827484D01*
X202479494Y-130615483D02*
X202479494Y-119039485D01*
X201267493Y-131827484D02*
X202479494Y-130615483D01*
X202479494Y-105039485D02*
X201267493Y-103827484D01*
X202479494Y-116615483D02*
X202479494Y-105039485D01*
X201267493Y-117827484D02*
X202479494Y-116615483D01*
X202479494Y-98229485D02*
X200807493Y-96557484D01*
X202479494Y-102615483D02*
X202479494Y-98229485D01*
X200807493Y-96557484D02*
X200807493Y-93762484D01*
X201267493Y-103827484D02*
X202479494Y-102615483D01*
D28*
%TO.N,Net-(BT1-Pad2)*%
X157938499Y-121617651D02*
X158146499Y-121617651D01*
X157938499Y-121617651D02*
X161638499Y-121617651D01*
X159892499Y-114505651D02*
X159892499Y-119871651D01*
X159892499Y-119871651D02*
X161638499Y-121617651D01*
X158146499Y-121617651D02*
X159892499Y-119871651D01*
%TO.N,Net-(BT2-Pad2)*%
X119824499Y-112981651D02*
X116418499Y-116387651D01*
X116046499Y-116909651D02*
X116046499Y-121109651D01*
X116418499Y-116537651D02*
X116046499Y-116909651D01*
X116046499Y-121109651D02*
X112346499Y-121109651D01*
X116418499Y-116387651D02*
X116418499Y-116537651D01*
%TO.N,GND1*%
X123784499Y-112981651D02*
X123784499Y-114331651D01*
X136938499Y-128046369D02*
X136938499Y-131657651D01*
X123784499Y-114892369D02*
X136938499Y-128046369D01*
X128884498Y-128261651D02*
X128924498Y-128221651D01*
X123784499Y-112981651D02*
X123784499Y-114892369D01*
X121304498Y-128261651D02*
X128884498Y-128261651D01*
%TO.N,Net-(F1-Pad2)*%
X161578498Y-129997649D02*
X164370496Y-127205651D01*
X164370496Y-127205651D02*
X166964499Y-127205651D01*
X153638499Y-121617651D02*
X161578498Y-129557650D01*
X149938499Y-121617651D02*
X153638499Y-121617651D01*
X164892499Y-127205651D02*
X166964499Y-127205651D01*
X161578498Y-129557650D02*
X161578498Y-131657651D01*
X161578498Y-131657651D02*
X161578498Y-129997649D01*
%TO.N,Net-(F2-Pad2)*%
X126890499Y-121109651D02*
X124046499Y-121109651D01*
X133438499Y-127657651D02*
X126890499Y-121109651D01*
X124046499Y-121109651D02*
X120346499Y-121109651D01*
X133438499Y-131657651D02*
X133438499Y-127657651D01*
%TO.N,+12V*%
X120403872Y-130761651D02*
X121304498Y-130761651D01*
X113116499Y-129237651D02*
X118879872Y-129237651D01*
X128884498Y-130761651D02*
X128924498Y-130721651D01*
X121304498Y-130761651D02*
X128884498Y-130761651D01*
X118879872Y-129237651D02*
X120403872Y-130761651D01*
%TO.N,Net-(C2-Pad2)*%
X145160499Y-114545651D02*
X145120499Y-114505651D01*
X149692499Y-114545651D02*
X145160499Y-114545651D01*
%TD*%
M02*
