%TF.GenerationSoftware,KiCad,Pcbnew,(5.1.10)-1*%
%TF.CreationDate,2021-11-13T22:23:51+09:00*%
%TF.ProjectId,herakuresu.line,68657261-6b75-4726-9573-752e6c696e65,rev?*%
%TF.SameCoordinates,Original*%
%TF.FileFunction,Legend,Top*%
%TF.FilePolarity,Positive*%
%FSLAX46Y46*%
G04 Gerber Fmt 4.6, Leading zero omitted, Abs format (unit mm)*
G04 Created by KiCad (PCBNEW (5.1.10)-1) date 2021-11-13 22:23:51*
%MOMM*%
%LPD*%
G01*
G04 APERTURE LIST*
%ADD10C,0.120000*%
%ADD11C,0.200000*%
%ADD12C,0.100000*%
%ADD13C,0.150000*%
%ADD14C,0.254000*%
%ADD15O,1.700000X1.700000*%
%ADD16R,1.700000X1.700000*%
%ADD17C,1.600000*%
%ADD18R,1.800000X1.800000*%
%ADD19C,1.800000*%
%ADD20C,1.524000*%
%ADD21O,2.000000X1.700000*%
%ADD22C,1.635000*%
%ADD23R,2.000000X1.905000*%
%ADD24O,2.000000X1.905000*%
%ADD25O,1.500000X2.700000*%
%ADD26O,1.700000X2.000000*%
%ADD27C,2.700000*%
%ADD28O,1.700000X1.950000*%
G04 APERTURE END LIST*
D10*
%TO.C,REF\u002A\u002A*%
X185384985Y-59384968D02*
X188044985Y-59384968D01*
X185384985Y-59384968D02*
X185384985Y-79764968D01*
X185384985Y-79764968D02*
X188044985Y-79764968D01*
X188044985Y-59384968D02*
X188044985Y-79764968D01*
X188044985Y-56784968D02*
X188044985Y-58114968D01*
X186714985Y-56784968D02*
X188044985Y-56784968D01*
X187924985Y-56784968D02*
X190524985Y-56784968D01*
X187924985Y-56784968D02*
X187924985Y-79764968D01*
X187924985Y-79764968D02*
X193124985Y-79764968D01*
X193124985Y-59384968D02*
X193124985Y-79764968D01*
X190524985Y-59384968D02*
X193124985Y-59384968D01*
X190524985Y-56784968D02*
X190524985Y-59384968D01*
X193124985Y-56784968D02*
X193124985Y-58114968D01*
X191794985Y-56784968D02*
X193124985Y-56784968D01*
X193004985Y-56784968D02*
X195604985Y-56784968D01*
X193004985Y-56784968D02*
X193004985Y-79764968D01*
X193004985Y-79764968D02*
X198204985Y-79764968D01*
X198204985Y-59384968D02*
X198204985Y-79764968D01*
X195604985Y-59384968D02*
X198204985Y-59384968D01*
X195604985Y-56784968D02*
X195604985Y-59384968D01*
X198204985Y-56784968D02*
X198204985Y-58114968D01*
X196874985Y-56784968D02*
X198204985Y-56784968D01*
X198084985Y-56784968D02*
X200684985Y-56784968D01*
X198084985Y-56784968D02*
X198084985Y-79764968D01*
X198084985Y-79764968D02*
X203284985Y-79764968D01*
X203284985Y-59384968D02*
X203284985Y-79764968D01*
X200684985Y-59384968D02*
X203284985Y-59384968D01*
X200684985Y-56784968D02*
X200684985Y-59384968D01*
X203284985Y-56784968D02*
X203284985Y-58114968D01*
X201954985Y-56784968D02*
X203284985Y-56784968D01*
X203164985Y-56784968D02*
X205764985Y-56784968D01*
X203164985Y-56784968D02*
X203164985Y-79764968D01*
X203164985Y-79764968D02*
X208364985Y-79764968D01*
X208364985Y-59384968D02*
X208364985Y-79764968D01*
X205764985Y-59384968D02*
X208364985Y-59384968D01*
X205764985Y-56784968D02*
X205764985Y-59384968D01*
X208364985Y-56784968D02*
X208364985Y-58114968D01*
X207034985Y-56784968D02*
X208364985Y-56784968D01*
X145439985Y-82234968D02*
X148099985Y-82234968D01*
X145439985Y-82114968D02*
X145439985Y-82234968D01*
X148099985Y-82114968D02*
X148099985Y-82234968D01*
X148099985Y-79574968D02*
X148099985Y-80904968D01*
X146769985Y-79574968D02*
X148099985Y-79574968D01*
X140359985Y-77154968D02*
X143019985Y-77154968D01*
X140359985Y-77034968D02*
X140359985Y-77154968D01*
X143019985Y-77034968D02*
X143019985Y-77154968D01*
X143019985Y-74494968D02*
X143019985Y-75824968D01*
X141689985Y-74494968D02*
X143019985Y-74494968D01*
X137819985Y-74554968D02*
X140479985Y-74554968D01*
X137819985Y-74554968D02*
X137819985Y-77154968D01*
X137819985Y-77154968D02*
X140479985Y-77154968D01*
X140479985Y-74554968D02*
X140479985Y-77154968D01*
X140479985Y-71954968D02*
X140479985Y-73284968D01*
X139149985Y-71954968D02*
X140479985Y-71954968D01*
X135279985Y-74554968D02*
X137939985Y-74554968D01*
X135279985Y-74554968D02*
X135279985Y-77154968D01*
X135279985Y-77154968D02*
X137939985Y-77154968D01*
X137939985Y-74554968D02*
X137939985Y-77154968D01*
X137939985Y-71954968D02*
X137939985Y-73284968D01*
X136609985Y-71954968D02*
X137939985Y-71954968D01*
X132739985Y-74554968D02*
X135399985Y-74554968D01*
X132739985Y-74554968D02*
X132739985Y-77154968D01*
X132739985Y-77154968D02*
X135399985Y-77154968D01*
X135399985Y-74554968D02*
X135399985Y-77154968D01*
X135399985Y-71954968D02*
X135399985Y-73284968D01*
X134069985Y-71954968D02*
X135399985Y-71954968D01*
X142899985Y-79634968D02*
X145559985Y-79634968D01*
X142899985Y-79634968D02*
X142899985Y-82234968D01*
X142899985Y-82234968D02*
X145559985Y-82234968D01*
X145559985Y-79634968D02*
X145559985Y-82234968D01*
X145559985Y-77034968D02*
X145559985Y-78364968D01*
X144229985Y-77034968D02*
X145559985Y-77034968D01*
X140359985Y-79634968D02*
X143019985Y-79634968D01*
X140359985Y-79634968D02*
X140359985Y-82234968D01*
X140359985Y-82234968D02*
X143019985Y-82234968D01*
X143019985Y-79634968D02*
X143019985Y-82234968D01*
X143019985Y-77034968D02*
X143019985Y-78364968D01*
X141689985Y-77034968D02*
X143019985Y-77034968D01*
X153059985Y-89794968D02*
X155719985Y-89794968D01*
X153059985Y-89794968D02*
X153059985Y-102554968D01*
X153059985Y-102554968D02*
X155719985Y-102554968D01*
X155719985Y-89794968D02*
X155719985Y-102554968D01*
X155719985Y-87194968D02*
X155719985Y-88524968D01*
X154389985Y-87194968D02*
X155719985Y-87194968D01*
X125119985Y-89794968D02*
X127779985Y-89794968D01*
X125119985Y-89794968D02*
X125119985Y-102554968D01*
X125119985Y-102554968D02*
X127779985Y-102554968D01*
X127779985Y-89794968D02*
X127779985Y-102554968D01*
X127779985Y-87194968D02*
X127779985Y-88524968D01*
X126449985Y-87194968D02*
X127779985Y-87194968D01*
X125119985Y-82234968D02*
X125119985Y-79634968D01*
X125119985Y-82234968D02*
X140479985Y-82234968D01*
X140479985Y-82234968D02*
X140479985Y-77034968D01*
X127719985Y-77034968D02*
X140479985Y-77034968D01*
X127719985Y-79634968D02*
X127719985Y-77034968D01*
X125119985Y-79634968D02*
X127719985Y-79634968D01*
X125119985Y-77034968D02*
X126449985Y-77034968D01*
X125119985Y-78364968D02*
X125119985Y-77034968D01*
X150639985Y-82114968D02*
X150639985Y-84714968D01*
X150639985Y-82114968D02*
X125119985Y-82114968D01*
X125119985Y-82114968D02*
X125119985Y-87314968D01*
X148039985Y-87314968D02*
X125119985Y-87314968D01*
X148039985Y-84714968D02*
X148039985Y-87314968D01*
X150639985Y-84714968D02*
X148039985Y-84714968D01*
X150639985Y-87314968D02*
X149309985Y-87314968D01*
X150639985Y-85984968D02*
X150639985Y-87314968D01*
X127659985Y-92394968D02*
X127659985Y-89794968D01*
X127659985Y-92394968D02*
X153179985Y-92394968D01*
X153179985Y-92394968D02*
X153179985Y-87194968D01*
X130259985Y-87194968D02*
X153179985Y-87194968D01*
X130259985Y-89794968D02*
X130259985Y-87194968D01*
X127659985Y-89794968D02*
X130259985Y-89794968D01*
X127659985Y-87194968D02*
X128989985Y-87194968D01*
X127659985Y-88524968D02*
X127659985Y-87194968D01*
X127659985Y-97474968D02*
X127659985Y-94874968D01*
X127659985Y-97474968D02*
X153179985Y-97474968D01*
X153179985Y-97474968D02*
X153179985Y-92274968D01*
X130259985Y-92274968D02*
X153179985Y-92274968D01*
X130259985Y-94874968D02*
X130259985Y-92274968D01*
X127659985Y-94874968D02*
X130259985Y-94874968D01*
X127659985Y-92274968D02*
X128989985Y-92274968D01*
X127659985Y-93604968D02*
X127659985Y-92274968D01*
X127659985Y-102554968D02*
X127659985Y-99954968D01*
X127659985Y-102554968D02*
X153179985Y-102554968D01*
X153179985Y-102554968D02*
X153179985Y-97354968D01*
X130259985Y-97354968D02*
X153179985Y-97354968D01*
X130259985Y-99954968D02*
X130259985Y-97354968D01*
X127659985Y-99954968D02*
X130259985Y-99954968D01*
X127659985Y-97354968D02*
X128989985Y-97354968D01*
X127659985Y-98684968D02*
X127659985Y-97354968D01*
X127659985Y-107634968D02*
X127659985Y-105034968D01*
X127659985Y-107634968D02*
X153179985Y-107634968D01*
X153179985Y-107634968D02*
X153179985Y-102434968D01*
X130259985Y-102434968D02*
X153179985Y-102434968D01*
X130259985Y-105034968D02*
X130259985Y-102434968D01*
X127659985Y-105034968D02*
X130259985Y-105034968D01*
X127659985Y-102434968D02*
X128989985Y-102434968D01*
X127659985Y-103764968D02*
X127659985Y-102434968D01*
X120794985Y-107634968D02*
X118194985Y-107634968D01*
X120794985Y-107634968D02*
X120794985Y-59254968D01*
X120794985Y-59254968D02*
X115594985Y-59254968D01*
X115594985Y-105034968D02*
X115594985Y-59254968D01*
X118194985Y-105034968D02*
X115594985Y-105034968D01*
X118194985Y-107634968D02*
X118194985Y-105034968D01*
X115594985Y-107634968D02*
X115594985Y-106304968D01*
X116924985Y-107634968D02*
X115594985Y-107634968D01*
X115714985Y-107634968D02*
X113114985Y-107634968D01*
X115714985Y-107634968D02*
X115714985Y-59254968D01*
X115714985Y-59254968D02*
X110514985Y-59254968D01*
X110514985Y-105034968D02*
X110514985Y-59254968D01*
X113114985Y-105034968D02*
X110514985Y-105034968D01*
X113114985Y-107634968D02*
X113114985Y-105034968D01*
X110514985Y-107634968D02*
X110514985Y-106304968D01*
X111844985Y-107634968D02*
X110514985Y-107634968D01*
%TO.C,C1*%
X179163986Y-131409664D02*
X177905986Y-131409664D01*
X179163986Y-129569664D02*
X177905986Y-129569664D01*
%TO.C,D1*%
X176330986Y-124204664D02*
X176174986Y-124204664D01*
X174014986Y-124204664D02*
X173858986Y-124204664D01*
X176173594Y-127436999D02*
G75*
G03*
X176330502Y-124204664I-1078608J1672335D01*
G01*
X174016378Y-127436999D02*
G75*
G02*
X173859470Y-124204664I1078608J1672335D01*
G01*
X176174823Y-126805794D02*
G75*
G03*
X176174986Y-124723703I-1079837J1041130D01*
G01*
X174015149Y-126805794D02*
G75*
G02*
X174014986Y-124723703I1079837J1041130D01*
G01*
%TO.C,U4*%
X177419986Y-86099664D02*
X177419986Y-87369664D01*
X183769986Y-86099664D02*
X177419986Y-86099664D01*
X183769986Y-87369664D02*
X183769986Y-86099664D01*
X183769986Y-91179664D02*
X183769986Y-87369664D01*
X177419986Y-87369664D02*
X177419986Y-91179664D01*
X177419986Y-91179664D02*
X183769986Y-91179664D01*
%TO.C,U2*%
X177419986Y-110099664D02*
X177419986Y-111369664D01*
X183769986Y-110099664D02*
X177419986Y-110099664D01*
X183769986Y-111369664D02*
X183769986Y-110099664D01*
X183769986Y-115179664D02*
X183769986Y-111369664D01*
X177419986Y-111369664D02*
X177419986Y-115179664D01*
X177419986Y-115179664D02*
X183769986Y-115179664D01*
%TO.C,U3*%
X177419986Y-98099664D02*
X177419986Y-99369664D01*
X183769986Y-98099664D02*
X177419986Y-98099664D01*
X183769986Y-99369664D02*
X183769986Y-98099664D01*
X183769986Y-103179664D02*
X183769986Y-99369664D01*
X177419986Y-99369664D02*
X177419986Y-103179664D01*
X177419986Y-103179664D02*
X183769986Y-103179664D01*
%TO.C,D2*%
X176330986Y-111139664D02*
X176174986Y-111139664D01*
X174014986Y-111139664D02*
X173858986Y-111139664D01*
X176173594Y-114371999D02*
G75*
G03*
X176330502Y-111139664I-1078608J1672335D01*
G01*
X174016378Y-114371999D02*
G75*
G02*
X173859470Y-111139664I1078608J1672335D01*
G01*
X176174823Y-113740794D02*
G75*
G03*
X176174986Y-111658703I-1079837J1041130D01*
G01*
X174015149Y-113740794D02*
G75*
G02*
X174014986Y-111658703I1079837J1041130D01*
G01*
%TO.C,U1*%
X177419986Y-123099664D02*
X177419986Y-124369664D01*
X183769986Y-123099664D02*
X177419986Y-123099664D01*
X183769986Y-124369664D02*
X183769986Y-123099664D01*
X183769986Y-128179664D02*
X183769986Y-124369664D01*
X177419986Y-124369664D02*
X177419986Y-128179664D01*
X177419986Y-128179664D02*
X183769986Y-128179664D01*
%TO.C,D4*%
X176330986Y-87279664D02*
X176174986Y-87279664D01*
X174014986Y-87279664D02*
X173858986Y-87279664D01*
X176173594Y-90511999D02*
G75*
G03*
X176330502Y-87279664I-1078608J1672335D01*
G01*
X174016378Y-90511999D02*
G75*
G02*
X173859470Y-87279664I1078608J1672335D01*
G01*
X176174823Y-89880794D02*
G75*
G03*
X176174986Y-87798703I-1079837J1041130D01*
G01*
X174015149Y-89880794D02*
G75*
G02*
X174014986Y-87798703I1079837J1041130D01*
G01*
%TO.C,D3*%
X176330986Y-99074664D02*
X176174986Y-99074664D01*
X174014986Y-99074664D02*
X173858986Y-99074664D01*
X176173594Y-102306999D02*
G75*
G03*
X176330502Y-99074664I-1078608J1672335D01*
G01*
X174016378Y-102306999D02*
G75*
G02*
X173859470Y-99074664I1078608J1672335D01*
G01*
X176174823Y-101675794D02*
G75*
G03*
X176174986Y-99593703I-1079837J1041130D01*
G01*
X174015149Y-101675794D02*
G75*
G02*
X174014986Y-99593703I1079837J1041130D01*
G01*
%TO.C,J1*%
X183654986Y-134604664D02*
X173374986Y-134604664D01*
X173374986Y-134604664D02*
X173374986Y-137264664D01*
X173374986Y-137264664D02*
X183654986Y-137264664D01*
X183654986Y-137264664D02*
X183654986Y-134604664D01*
X182704986Y-137264664D02*
X182704986Y-143264664D01*
X182704986Y-143264664D02*
X181944986Y-143264664D01*
X181944986Y-143264664D02*
X181944986Y-137264664D01*
X182644986Y-137264664D02*
X182644986Y-143264664D01*
X182524986Y-137264664D02*
X182524986Y-143264664D01*
X182404986Y-137264664D02*
X182404986Y-143264664D01*
X182284986Y-137264664D02*
X182284986Y-143264664D01*
X182164986Y-137264664D02*
X182164986Y-143264664D01*
X182044986Y-137264664D02*
X182044986Y-143264664D01*
X182704986Y-134274664D02*
X182704986Y-134604664D01*
X181944986Y-134274664D02*
X181944986Y-134604664D01*
X181054986Y-134604664D02*
X181054986Y-137264664D01*
X180164986Y-137264664D02*
X180164986Y-143264664D01*
X180164986Y-143264664D02*
X179404986Y-143264664D01*
X179404986Y-143264664D02*
X179404986Y-137264664D01*
X180164986Y-134207593D02*
X180164986Y-134604664D01*
X179404986Y-134207593D02*
X179404986Y-134604664D01*
X178514986Y-134604664D02*
X178514986Y-137264664D01*
X177624986Y-137264664D02*
X177624986Y-143264664D01*
X177624986Y-143264664D02*
X176864986Y-143264664D01*
X176864986Y-143264664D02*
X176864986Y-137264664D01*
X177624986Y-134207593D02*
X177624986Y-134604664D01*
X176864986Y-134207593D02*
X176864986Y-134604664D01*
X175974986Y-134604664D02*
X175974986Y-137264664D01*
X175084986Y-137264664D02*
X175084986Y-143264664D01*
X175084986Y-143264664D02*
X174324986Y-143264664D01*
X174324986Y-143264664D02*
X174324986Y-137264664D01*
X175084986Y-134207593D02*
X175084986Y-134604664D01*
X174324986Y-134207593D02*
X174324986Y-134604664D01*
X182324986Y-131894664D02*
X183594986Y-131894664D01*
X183594986Y-131894664D02*
X183594986Y-133164664D01*
%TO.C,C1*%
X190985985Y-113329968D02*
X192243985Y-113329968D01*
X190985985Y-115169968D02*
X192243985Y-115169968D01*
%TO.C,D1*%
X193818985Y-120534968D02*
X193974985Y-120534968D01*
X196134985Y-120534968D02*
X196290985Y-120534968D01*
X193976377Y-117302633D02*
G75*
G03*
X193819469Y-120534968I1078608J-1672335D01*
G01*
X196133593Y-117302633D02*
G75*
G02*
X196290501Y-120534968I-1078608J-1672335D01*
G01*
X193975148Y-117933838D02*
G75*
G03*
X193974985Y-120015929I1079837J-1041130D01*
G01*
X196134822Y-117933838D02*
G75*
G02*
X196134985Y-120015929I-1079837J-1041130D01*
G01*
%TO.C,U2*%
X192729985Y-133639968D02*
X192729985Y-132369968D01*
X186379985Y-133639968D02*
X192729985Y-133639968D01*
X186379985Y-132369968D02*
X186379985Y-133639968D01*
X186379985Y-128559968D02*
X186379985Y-132369968D01*
X192729985Y-132369968D02*
X192729985Y-128559968D01*
X192729985Y-128559968D02*
X186379985Y-128559968D01*
%TO.C,U3*%
X192729985Y-146639968D02*
X192729985Y-145369968D01*
X186379985Y-146639968D02*
X192729985Y-146639968D01*
X186379985Y-145369968D02*
X186379985Y-146639968D01*
X186379985Y-141559968D02*
X186379985Y-145369968D01*
X192729985Y-145369968D02*
X192729985Y-141559968D01*
X192729985Y-141559968D02*
X186379985Y-141559968D01*
%TO.C,D2*%
X193818985Y-132599968D02*
X193974985Y-132599968D01*
X196134985Y-132599968D02*
X196290985Y-132599968D01*
X193976377Y-129367633D02*
G75*
G03*
X193819469Y-132599968I1078608J-1672335D01*
G01*
X196133593Y-129367633D02*
G75*
G02*
X196290501Y-132599968I-1078608J-1672335D01*
G01*
X193975148Y-129998838D02*
G75*
G03*
X193974985Y-132080929I1079837J-1041130D01*
G01*
X196134822Y-129998838D02*
G75*
G02*
X196134985Y-132080929I-1079837J-1041130D01*
G01*
%TO.C,U1*%
X192729985Y-121639968D02*
X192729985Y-120369968D01*
X186379985Y-121639968D02*
X192729985Y-121639968D01*
X186379985Y-120369968D02*
X186379985Y-121639968D01*
X186379985Y-116559968D02*
X186379985Y-120369968D01*
X192729985Y-120369968D02*
X192729985Y-116559968D01*
X192729985Y-116559968D02*
X186379985Y-116559968D01*
%TO.C,D3*%
X193818985Y-145664968D02*
X193974985Y-145664968D01*
X196134985Y-145664968D02*
X196290985Y-145664968D01*
X193976377Y-142432633D02*
G75*
G03*
X193819469Y-145664968I1078608J-1672335D01*
G01*
X196133593Y-142432633D02*
G75*
G02*
X196290501Y-145664968I-1078608J-1672335D01*
G01*
X193975148Y-143063838D02*
G75*
G03*
X193974985Y-145145929I1079837J-1041130D01*
G01*
X196134822Y-143063838D02*
G75*
G02*
X196134985Y-145145929I-1079837J-1041130D01*
G01*
%TO.C,J1*%
X186494985Y-110134968D02*
X196774985Y-110134968D01*
X196774985Y-110134968D02*
X196774985Y-107474968D01*
X196774985Y-107474968D02*
X186494985Y-107474968D01*
X186494985Y-107474968D02*
X186494985Y-110134968D01*
X187444985Y-107474968D02*
X187444985Y-101474968D01*
X187444985Y-101474968D02*
X188204985Y-101474968D01*
X188204985Y-101474968D02*
X188204985Y-107474968D01*
X187504985Y-107474968D02*
X187504985Y-101474968D01*
X187624985Y-107474968D02*
X187624985Y-101474968D01*
X187744985Y-107474968D02*
X187744985Y-101474968D01*
X187864985Y-107474968D02*
X187864985Y-101474968D01*
X187984985Y-107474968D02*
X187984985Y-101474968D01*
X188104985Y-107474968D02*
X188104985Y-101474968D01*
X187444985Y-110464968D02*
X187444985Y-110134968D01*
X188204985Y-110464968D02*
X188204985Y-110134968D01*
X189094985Y-110134968D02*
X189094985Y-107474968D01*
X189984985Y-107474968D02*
X189984985Y-101474968D01*
X189984985Y-101474968D02*
X190744985Y-101474968D01*
X190744985Y-101474968D02*
X190744985Y-107474968D01*
X189984985Y-110532039D02*
X189984985Y-110134968D01*
X190744985Y-110532039D02*
X190744985Y-110134968D01*
X191634985Y-110134968D02*
X191634985Y-107474968D01*
X192524985Y-107474968D02*
X192524985Y-101474968D01*
X192524985Y-101474968D02*
X193284985Y-101474968D01*
X193284985Y-101474968D02*
X193284985Y-107474968D01*
X192524985Y-110532039D02*
X192524985Y-110134968D01*
X193284985Y-110532039D02*
X193284985Y-110134968D01*
X194174985Y-110134968D02*
X194174985Y-107474968D01*
X195064985Y-107474968D02*
X195064985Y-101474968D01*
X195064985Y-101474968D02*
X195824985Y-101474968D01*
X195824985Y-101474968D02*
X195824985Y-107474968D01*
X195064985Y-110532039D02*
X195064985Y-110134968D01*
X195824985Y-110532039D02*
X195824985Y-110134968D01*
X187824985Y-112844968D02*
X186554985Y-112844968D01*
X186554985Y-112844968D02*
X186554985Y-111574968D01*
%TO.C,U1*%
X205712493Y-103827484D02*
X205712493Y-102557484D01*
X199362493Y-103827484D02*
X205712493Y-103827484D01*
X199362493Y-102557484D02*
X199362493Y-103827484D01*
X199362493Y-98747484D02*
X199362493Y-102557484D01*
X205712493Y-102557484D02*
X205712493Y-98747484D01*
X205712493Y-98747484D02*
X199362493Y-98747484D01*
%TO.C,U2*%
X205712493Y-117827484D02*
X205712493Y-116557484D01*
X199362493Y-117827484D02*
X205712493Y-117827484D01*
X199362493Y-116557484D02*
X199362493Y-117827484D01*
X199362493Y-112747484D02*
X199362493Y-116557484D01*
X205712493Y-116557484D02*
X205712493Y-112747484D01*
X205712493Y-112747484D02*
X199362493Y-112747484D01*
%TO.C,U3*%
X205712493Y-131827484D02*
X205712493Y-130557484D01*
X199362493Y-131827484D02*
X205712493Y-131827484D01*
X199362493Y-130557484D02*
X199362493Y-131827484D01*
X199362493Y-126747484D02*
X199362493Y-130557484D01*
X205712493Y-130557484D02*
X205712493Y-126747484D01*
X205712493Y-126747484D02*
X199362493Y-126747484D01*
%TO.C,U4*%
X205712493Y-145827484D02*
X205712493Y-144557484D01*
X199362493Y-145827484D02*
X205712493Y-145827484D01*
X199362493Y-144557484D02*
X199362493Y-145827484D01*
X199362493Y-140747484D02*
X199362493Y-144557484D01*
X205712493Y-144557484D02*
X205712493Y-140747484D01*
X205712493Y-140747484D02*
X199362493Y-140747484D01*
%TO.C,J1*%
X199477493Y-92322484D02*
X209757493Y-92322484D01*
X209757493Y-92322484D02*
X209757493Y-89662484D01*
X209757493Y-89662484D02*
X199477493Y-89662484D01*
X199477493Y-89662484D02*
X199477493Y-92322484D01*
X200427493Y-89662484D02*
X200427493Y-83662484D01*
X200427493Y-83662484D02*
X201187493Y-83662484D01*
X201187493Y-83662484D02*
X201187493Y-89662484D01*
X200487493Y-89662484D02*
X200487493Y-83662484D01*
X200607493Y-89662484D02*
X200607493Y-83662484D01*
X200727493Y-89662484D02*
X200727493Y-83662484D01*
X200847493Y-89662484D02*
X200847493Y-83662484D01*
X200967493Y-89662484D02*
X200967493Y-83662484D01*
X201087493Y-89662484D02*
X201087493Y-83662484D01*
X200427493Y-92652484D02*
X200427493Y-92322484D01*
X201187493Y-92652484D02*
X201187493Y-92322484D01*
X202077493Y-92322484D02*
X202077493Y-89662484D01*
X202967493Y-89662484D02*
X202967493Y-83662484D01*
X202967493Y-83662484D02*
X203727493Y-83662484D01*
X203727493Y-83662484D02*
X203727493Y-89662484D01*
X202967493Y-92719555D02*
X202967493Y-92322484D01*
X203727493Y-92719555D02*
X203727493Y-92322484D01*
X204617493Y-92322484D02*
X204617493Y-89662484D01*
X205507493Y-89662484D02*
X205507493Y-83662484D01*
X205507493Y-83662484D02*
X206267493Y-83662484D01*
X206267493Y-83662484D02*
X206267493Y-89662484D01*
X205507493Y-92719555D02*
X205507493Y-92322484D01*
X206267493Y-92719555D02*
X206267493Y-92322484D01*
X207157493Y-92322484D02*
X207157493Y-89662484D01*
X208047493Y-89662484D02*
X208047493Y-83662484D01*
X208047493Y-83662484D02*
X208807493Y-83662484D01*
X208807493Y-83662484D02*
X208807493Y-89662484D01*
X208047493Y-92719555D02*
X208047493Y-92322484D01*
X208807493Y-92719555D02*
X208807493Y-92322484D01*
X200807493Y-95032484D02*
X199537493Y-95032484D01*
X199537493Y-95032484D02*
X199537493Y-93762484D01*
%TO.C,D4*%
X206801493Y-144647484D02*
X206957493Y-144647484D01*
X209117493Y-144647484D02*
X209273493Y-144647484D01*
X209117330Y-142046354D02*
G75*
G02*
X209117493Y-144128445I-1079837J-1041130D01*
G01*
X206957656Y-142046354D02*
G75*
G03*
X206957493Y-144128445I1079837J-1041130D01*
G01*
X209116101Y-141415149D02*
G75*
G02*
X209273009Y-144647484I-1078608J-1672335D01*
G01*
X206958885Y-141415149D02*
G75*
G03*
X206801977Y-144647484I1078608J-1672335D01*
G01*
%TO.C,D3*%
X206801493Y-130852484D02*
X206957493Y-130852484D01*
X209117493Y-130852484D02*
X209273493Y-130852484D01*
X209117330Y-128251354D02*
G75*
G02*
X209117493Y-130333445I-1079837J-1041130D01*
G01*
X206957656Y-128251354D02*
G75*
G03*
X206957493Y-130333445I1079837J-1041130D01*
G01*
X209116101Y-127620149D02*
G75*
G02*
X209273009Y-130852484I-1078608J-1672335D01*
G01*
X206958885Y-127620149D02*
G75*
G03*
X206801977Y-130852484I1078608J-1672335D01*
G01*
%TO.C,D2*%
X206801493Y-116787484D02*
X206957493Y-116787484D01*
X209117493Y-116787484D02*
X209273493Y-116787484D01*
X209117330Y-114186354D02*
G75*
G02*
X209117493Y-116268445I-1079837J-1041130D01*
G01*
X206957656Y-114186354D02*
G75*
G03*
X206957493Y-116268445I1079837J-1041130D01*
G01*
X209116101Y-113555149D02*
G75*
G02*
X209273009Y-116787484I-1078608J-1672335D01*
G01*
X206958885Y-113555149D02*
G75*
G03*
X206801977Y-116787484I1078608J-1672335D01*
G01*
%TO.C,D1*%
X206801493Y-102722484D02*
X206957493Y-102722484D01*
X209117493Y-102722484D02*
X209273493Y-102722484D01*
X209117330Y-100121354D02*
G75*
G02*
X209117493Y-102203445I-1079837J-1041130D01*
G01*
X206957656Y-100121354D02*
G75*
G03*
X206957493Y-102203445I1079837J-1041130D01*
G01*
X209116101Y-99490149D02*
G75*
G02*
X209273009Y-102722484I-1078608J-1672335D01*
G01*
X206958885Y-99490149D02*
G75*
G03*
X206801977Y-102722484I1078608J-1672335D01*
G01*
%TO.C,C1*%
X203968493Y-95517484D02*
X205226493Y-95517484D01*
X203968493Y-97357484D02*
X205226493Y-97357484D01*
%TO.C,C2*%
X150747499Y-114175651D02*
X150812499Y-114175651D01*
X148572499Y-114175651D02*
X148637499Y-114175651D01*
X150747499Y-117415651D02*
X150812499Y-117415651D01*
X148572499Y-117415651D02*
X148637499Y-117415651D01*
X150812499Y-117415651D02*
X150812499Y-114175651D01*
X148572499Y-117415651D02*
X148572499Y-114175651D01*
%TO.C,J8*%
X124054498Y-125411651D02*
X122804498Y-125411651D01*
X124054498Y-126661651D02*
X124054498Y-125411651D01*
X118554498Y-132561651D02*
X118554498Y-129511651D01*
X121504498Y-132561651D02*
X118554498Y-132561651D01*
X121504498Y-133311651D02*
X121504498Y-132561651D01*
X118554498Y-126461651D02*
X118554498Y-129511651D01*
X121504498Y-126461651D02*
X118554498Y-126461651D01*
X121504498Y-125711651D02*
X121504498Y-126461651D01*
X123754498Y-133311651D02*
X123754498Y-131511651D01*
X123004498Y-133311651D02*
X123754498Y-133311651D01*
X123004498Y-131511651D02*
X123004498Y-133311651D01*
X123754498Y-131511651D02*
X123004498Y-131511651D01*
X123754498Y-127511651D02*
X123754498Y-125711651D01*
X123004498Y-127511651D02*
X123754498Y-127511651D01*
X123004498Y-125711651D02*
X123004498Y-127511651D01*
X123754498Y-125711651D02*
X123004498Y-125711651D01*
X123754498Y-130011651D02*
X123754498Y-129011651D01*
X123004498Y-130011651D02*
X123754498Y-130011651D01*
X123004498Y-129011651D02*
X123004498Y-130011651D01*
X123754498Y-129011651D02*
X123004498Y-129011651D01*
X123764498Y-133321651D02*
X123764498Y-125701651D01*
X117794498Y-133321651D02*
X123764498Y-133321651D01*
X117794498Y-125701651D02*
X117794498Y-133321651D01*
X123764498Y-125701651D02*
X117794498Y-125701651D01*
%TO.C,MES2*%
X126438499Y-135157651D02*
X137868499Y-135157651D01*
X137868499Y-135157651D02*
X137868499Y-145317651D01*
X137868499Y-145317651D02*
X126438499Y-145317651D01*
X126438499Y-145317651D02*
X115008499Y-145317651D01*
X115008499Y-145317651D02*
X115008499Y-135157651D01*
X115008499Y-135157651D02*
X126438499Y-135157651D01*
D11*
%TO.C,SW1*%
X163864499Y-127205651D02*
X163864499Y-127205651D01*
X163964499Y-127205651D02*
X163964499Y-127205651D01*
X163864499Y-127205651D02*
X163864499Y-127205651D01*
D12*
X164424499Y-120600651D02*
X164424499Y-128730651D01*
X169504499Y-120600651D02*
X164424499Y-120600651D01*
X169504499Y-128730651D02*
X169504499Y-120600651D01*
X164424499Y-128730651D02*
X169504499Y-128730651D01*
D11*
X163964499Y-127205651D02*
G75*
G02*
X163864499Y-127205651I-50000J0D01*
G01*
X163864499Y-127205651D02*
G75*
G02*
X163964499Y-127205651I50000J0D01*
G01*
X163964499Y-127205651D02*
G75*
G02*
X163864499Y-127205651I-50000J0D01*
G01*
D10*
%TO.C,J1*%
X144910499Y-133611651D02*
X146160499Y-133611651D01*
X144910499Y-132361651D02*
X144910499Y-133611651D01*
X150410499Y-126461651D02*
X150410499Y-129511651D01*
X147460499Y-126461651D02*
X150410499Y-126461651D01*
X147460499Y-125711651D02*
X147460499Y-126461651D01*
X150410499Y-132561651D02*
X150410499Y-129511651D01*
X147460499Y-132561651D02*
X150410499Y-132561651D01*
X147460499Y-133311651D02*
X147460499Y-132561651D01*
X145210499Y-125711651D02*
X145210499Y-127511651D01*
X145960499Y-125711651D02*
X145210499Y-125711651D01*
X145960499Y-127511651D02*
X145960499Y-125711651D01*
X145210499Y-127511651D02*
X145960499Y-127511651D01*
X145210499Y-131511651D02*
X145210499Y-133311651D01*
X145960499Y-131511651D02*
X145210499Y-131511651D01*
X145960499Y-133311651D02*
X145960499Y-131511651D01*
X145210499Y-133311651D02*
X145960499Y-133311651D01*
X145210499Y-129011651D02*
X145210499Y-130011651D01*
X145960499Y-129011651D02*
X145210499Y-129011651D01*
X145960499Y-130011651D02*
X145960499Y-129011651D01*
X145210499Y-130011651D02*
X145960499Y-130011651D01*
X145200499Y-125701651D02*
X145200499Y-133321651D01*
X151170499Y-125701651D02*
X145200499Y-125701651D01*
X151170499Y-133321651D02*
X151170499Y-125701651D01*
X145200499Y-133321651D02*
X151170499Y-133321651D01*
%TO.C,U7*%
X146350499Y-111925651D02*
X146350499Y-122165651D01*
X147890499Y-122165651D02*
X143149499Y-122165651D01*
X147890499Y-111925651D02*
X143149499Y-111925651D01*
X143149499Y-111925651D02*
X143149499Y-122165651D01*
X147890499Y-111925651D02*
X147890499Y-122165651D01*
%TO.C,F2*%
X125816499Y-118569651D02*
X118196499Y-118569651D01*
X125816499Y-123649651D02*
X125816499Y-118569651D01*
X118196499Y-123649651D02*
X125816499Y-123649651D01*
X110576499Y-123649651D02*
X118196499Y-123649651D01*
X110576499Y-118569651D02*
X110576499Y-123649651D01*
X118196499Y-118569651D02*
X110576499Y-118569651D01*
%TO.C,MES1*%
X154578498Y-135157651D02*
X166008498Y-135157651D01*
X166008498Y-135157651D02*
X166008498Y-145317651D01*
X166008498Y-145317651D02*
X154578498Y-145317651D01*
X154578498Y-145317651D02*
X143148498Y-145317651D01*
X143148498Y-145317651D02*
X143148498Y-135157651D01*
X143148498Y-135157651D02*
X154578498Y-135157651D01*
D11*
%TO.C,SW2*%
X110016499Y-131777651D02*
X110016499Y-131777651D01*
X110116499Y-131777651D02*
X110116499Y-131777651D01*
X110016499Y-131777651D02*
X110016499Y-131777651D01*
D12*
X110576499Y-125172651D02*
X110576499Y-133302651D01*
X115656499Y-125172651D02*
X110576499Y-125172651D01*
X115656499Y-133302651D02*
X115656499Y-125172651D01*
X110576499Y-133302651D02*
X115656499Y-133302651D01*
D11*
X110116499Y-131777651D02*
G75*
G02*
X110016499Y-131777651I-50000J0D01*
G01*
X110016499Y-131777651D02*
G75*
G02*
X110116499Y-131777651I50000J0D01*
G01*
X110116499Y-131777651D02*
G75*
G02*
X110016499Y-131777651I-50000J0D01*
G01*
D10*
%TO.C,BT1*%
X165242499Y-117255651D02*
X165242499Y-116005651D01*
X163992499Y-117255651D02*
X165242499Y-117255651D01*
X158092499Y-111755651D02*
X161142499Y-111755651D01*
X158092499Y-114705651D02*
X158092499Y-111755651D01*
X157342499Y-114705651D02*
X158092499Y-114705651D01*
X164192499Y-111755651D02*
X161142499Y-111755651D01*
X164192499Y-114705651D02*
X164192499Y-111755651D01*
X164942499Y-114705651D02*
X164192499Y-114705651D01*
X157342499Y-116955651D02*
X159142499Y-116955651D01*
X157342499Y-116205651D02*
X157342499Y-116955651D01*
X159142499Y-116205651D02*
X157342499Y-116205651D01*
X159142499Y-116955651D02*
X159142499Y-116205651D01*
X163142499Y-116955651D02*
X164942499Y-116955651D01*
X163142499Y-116205651D02*
X163142499Y-116955651D01*
X164942499Y-116205651D02*
X163142499Y-116205651D01*
X164942499Y-116955651D02*
X164942499Y-116205651D01*
X160642499Y-116955651D02*
X161642499Y-116955651D01*
X160642499Y-116205651D02*
X160642499Y-116955651D01*
X161642499Y-116205651D02*
X160642499Y-116205651D01*
X161642499Y-116955651D02*
X161642499Y-116205651D01*
X157332499Y-116965651D02*
X164952499Y-116965651D01*
X157332499Y-110995651D02*
X157332499Y-116965651D01*
X164952499Y-110995651D02*
X157332499Y-110995651D01*
X164952499Y-116965651D02*
X164952499Y-110995651D01*
%TO.C,J11*%
X131674498Y-125371651D02*
X130424498Y-125371651D01*
X131674498Y-126621651D02*
X131674498Y-125371651D01*
X126174498Y-132521651D02*
X126174498Y-129471651D01*
X129124498Y-132521651D02*
X126174498Y-132521651D01*
X129124498Y-133271651D02*
X129124498Y-132521651D01*
X126174498Y-126421651D02*
X126174498Y-129471651D01*
X129124498Y-126421651D02*
X126174498Y-126421651D01*
X129124498Y-125671651D02*
X129124498Y-126421651D01*
X131374498Y-133271651D02*
X131374498Y-131471651D01*
X130624498Y-133271651D02*
X131374498Y-133271651D01*
X130624498Y-131471651D02*
X130624498Y-133271651D01*
X131374498Y-131471651D02*
X130624498Y-131471651D01*
X131374498Y-127471651D02*
X131374498Y-125671651D01*
X130624498Y-127471651D02*
X131374498Y-127471651D01*
X130624498Y-125671651D02*
X130624498Y-127471651D01*
X131374498Y-125671651D02*
X130624498Y-125671651D01*
X131374498Y-129971651D02*
X131374498Y-128971651D01*
X130624498Y-129971651D02*
X131374498Y-129971651D01*
X130624498Y-128971651D02*
X130624498Y-129971651D01*
X131374498Y-128971651D02*
X130624498Y-128971651D01*
X131384498Y-133281651D02*
X131384498Y-125661651D01*
X125414498Y-133281651D02*
X131384498Y-133281651D01*
X125414498Y-125661651D02*
X125414498Y-133281651D01*
X131384498Y-125661651D02*
X125414498Y-125661651D01*
%TO.C,BT2*%
X127614499Y-113281651D02*
X127014499Y-112981651D01*
X127614499Y-112681651D02*
X127614499Y-113281651D01*
X127014499Y-112981651D02*
X127614499Y-112681651D01*
X116794499Y-107671651D02*
X126814499Y-107671651D01*
X116794499Y-117591651D02*
X116794499Y-107671651D01*
X119914499Y-117591651D02*
X116794499Y-117591651D01*
X119914499Y-116391651D02*
X119914499Y-117591651D01*
X123694499Y-116391651D02*
X119914499Y-116391651D01*
X123694499Y-117591651D02*
X123694499Y-116391651D01*
X126814499Y-117591651D02*
X123694499Y-117591651D01*
X126814499Y-107671651D02*
X126814499Y-117591651D01*
%TO.C,J2*%
X153038499Y-133611651D02*
X154288499Y-133611651D01*
X153038499Y-132361651D02*
X153038499Y-133611651D01*
X158538499Y-126461651D02*
X158538499Y-129511651D01*
X155588499Y-126461651D02*
X158538499Y-126461651D01*
X155588499Y-125711651D02*
X155588499Y-126461651D01*
X158538499Y-132561651D02*
X158538499Y-129511651D01*
X155588499Y-132561651D02*
X158538499Y-132561651D01*
X155588499Y-133311651D02*
X155588499Y-132561651D01*
X153338499Y-125711651D02*
X153338499Y-127511651D01*
X154088499Y-125711651D02*
X153338499Y-125711651D01*
X154088499Y-127511651D02*
X154088499Y-125711651D01*
X153338499Y-127511651D02*
X154088499Y-127511651D01*
X153338499Y-131511651D02*
X153338499Y-133311651D01*
X154088499Y-131511651D02*
X153338499Y-131511651D01*
X154088499Y-133311651D02*
X154088499Y-131511651D01*
X153338499Y-133311651D02*
X154088499Y-133311651D01*
X153338499Y-129011651D02*
X153338499Y-130011651D01*
X154088499Y-129011651D02*
X153338499Y-129011651D01*
X154088499Y-130011651D02*
X154088499Y-129011651D01*
X153338499Y-130011651D02*
X154088499Y-130011651D01*
X153328499Y-125701651D02*
X153328499Y-133321651D01*
X159298499Y-125701651D02*
X153328499Y-125701651D01*
X159298499Y-133321651D02*
X159298499Y-125701651D01*
X153328499Y-133321651D02*
X159298499Y-133321651D01*
%TO.C,C1*%
X142294499Y-118335651D02*
G75*
G03*
X142294499Y-118335651I-3270000J0D01*
G01*
%TO.C,F1*%
X148168499Y-124157651D02*
X155788499Y-124157651D01*
X148168499Y-119077651D02*
X148168499Y-124157651D01*
X155788499Y-119077651D02*
X148168499Y-119077651D01*
X163408499Y-119077651D02*
X155788499Y-119077651D01*
X163408499Y-124157651D02*
X163408499Y-119077651D01*
X155788499Y-124157651D02*
X163408499Y-124157651D01*
%TO.C,J1*%
X158904985Y-73904967D02*
X157574985Y-73904967D01*
X158904985Y-72574967D02*
X158904985Y-73904967D01*
X158904985Y-71304967D02*
X156244985Y-71304967D01*
X156244985Y-71304967D02*
X156244985Y-63624967D01*
X158904985Y-71304967D02*
X158904985Y-63624967D01*
X158904985Y-63624967D02*
X156244985Y-63624967D01*
%TO.C,J4*%
X178244985Y-63624967D02*
X179574985Y-63624967D01*
X178244985Y-64954967D02*
X178244985Y-63624967D01*
X178244985Y-66224967D02*
X180904985Y-66224967D01*
X180904985Y-66224967D02*
X180904985Y-73904967D01*
X178244985Y-66224967D02*
X178244985Y-73904967D01*
X178244985Y-73904967D02*
X180904985Y-73904967D01*
%TO.C,J6*%
X173404985Y-78244967D02*
X173404985Y-79574967D01*
X172074985Y-78244967D02*
X173404985Y-78244967D01*
X170804985Y-78244967D02*
X170804985Y-80904967D01*
X170804985Y-80904967D02*
X163124985Y-80904967D01*
X170804985Y-78244967D02*
X163124985Y-78244967D01*
X163124985Y-78244967D02*
X163124985Y-80904967D01*
%TO.C,J3*%
X163744985Y-58904967D02*
X163744985Y-57574967D01*
X165074985Y-58904967D02*
X163744985Y-58904967D01*
X166344985Y-58904967D02*
X166344985Y-56244967D01*
X166344985Y-56244967D02*
X174024985Y-56244967D01*
X166344985Y-58904967D02*
X174024985Y-58904967D01*
X174024985Y-58904967D02*
X174024985Y-56244967D01*
%TO.C,REF\u002A\u002A*%
D13*
X185381651Y-55797348D02*
X185048318Y-55321158D01*
X184810223Y-55797348D02*
X184810223Y-54797348D01*
X185191175Y-54797348D01*
X185286413Y-54844968D01*
X185334032Y-54892587D01*
X185381651Y-54987825D01*
X185381651Y-55130682D01*
X185334032Y-55225920D01*
X185286413Y-55273539D01*
X185191175Y-55321158D01*
X184810223Y-55321158D01*
X185810223Y-55273539D02*
X186143556Y-55273539D01*
X186286413Y-55797348D02*
X185810223Y-55797348D01*
X185810223Y-54797348D01*
X186286413Y-54797348D01*
X187048318Y-55273539D02*
X186714985Y-55273539D01*
X186714985Y-55797348D02*
X186714985Y-54797348D01*
X187191175Y-54797348D01*
X187714985Y-54797348D02*
X187714985Y-55035444D01*
X187476889Y-54940206D02*
X187714985Y-55035444D01*
X187953080Y-54940206D01*
X187572127Y-55225920D02*
X187714985Y-55035444D01*
X187857842Y-55225920D01*
X188476889Y-54797348D02*
X188476889Y-55035444D01*
X188238794Y-54940206D02*
X188476889Y-55035444D01*
X188714985Y-54940206D01*
X188334032Y-55225920D02*
X188476889Y-55035444D01*
X188619746Y-55225920D01*
X189191651Y-55797348D02*
X188858318Y-55321158D01*
X188620223Y-55797348D02*
X188620223Y-54797348D01*
X189001175Y-54797348D01*
X189096413Y-54844968D01*
X189144032Y-54892587D01*
X189191651Y-54987825D01*
X189191651Y-55130682D01*
X189144032Y-55225920D01*
X189096413Y-55273539D01*
X189001175Y-55321158D01*
X188620223Y-55321158D01*
X189620223Y-55273539D02*
X189953556Y-55273539D01*
X190096413Y-55797348D02*
X189620223Y-55797348D01*
X189620223Y-54797348D01*
X190096413Y-54797348D01*
X190858318Y-55273539D02*
X190524985Y-55273539D01*
X190524985Y-55797348D02*
X190524985Y-54797348D01*
X191001175Y-54797348D01*
X191524985Y-54797348D02*
X191524985Y-55035444D01*
X191286889Y-54940206D02*
X191524985Y-55035444D01*
X191763080Y-54940206D01*
X191382127Y-55225920D02*
X191524985Y-55035444D01*
X191667842Y-55225920D01*
X192286889Y-54797348D02*
X192286889Y-55035444D01*
X192048794Y-54940206D02*
X192286889Y-55035444D01*
X192524985Y-54940206D01*
X192144032Y-55225920D02*
X192286889Y-55035444D01*
X192429746Y-55225920D01*
X194271651Y-55797348D02*
X193938318Y-55321158D01*
X193700223Y-55797348D02*
X193700223Y-54797348D01*
X194081175Y-54797348D01*
X194176413Y-54844968D01*
X194224032Y-54892587D01*
X194271651Y-54987825D01*
X194271651Y-55130682D01*
X194224032Y-55225920D01*
X194176413Y-55273539D01*
X194081175Y-55321158D01*
X193700223Y-55321158D01*
X194700223Y-55273539D02*
X195033556Y-55273539D01*
X195176413Y-55797348D02*
X194700223Y-55797348D01*
X194700223Y-54797348D01*
X195176413Y-54797348D01*
X195938318Y-55273539D02*
X195604985Y-55273539D01*
X195604985Y-55797348D02*
X195604985Y-54797348D01*
X196081175Y-54797348D01*
X196604985Y-54797348D02*
X196604985Y-55035444D01*
X196366889Y-54940206D02*
X196604985Y-55035444D01*
X196843080Y-54940206D01*
X196462127Y-55225920D02*
X196604985Y-55035444D01*
X196747842Y-55225920D01*
X197366889Y-54797348D02*
X197366889Y-55035444D01*
X197128794Y-54940206D02*
X197366889Y-55035444D01*
X197604985Y-54940206D01*
X197224032Y-55225920D02*
X197366889Y-55035444D01*
X197509746Y-55225920D01*
X199351651Y-55797348D02*
X199018318Y-55321158D01*
X198780223Y-55797348D02*
X198780223Y-54797348D01*
X199161175Y-54797348D01*
X199256413Y-54844968D01*
X199304032Y-54892587D01*
X199351651Y-54987825D01*
X199351651Y-55130682D01*
X199304032Y-55225920D01*
X199256413Y-55273539D01*
X199161175Y-55321158D01*
X198780223Y-55321158D01*
X199780223Y-55273539D02*
X200113556Y-55273539D01*
X200256413Y-55797348D02*
X199780223Y-55797348D01*
X199780223Y-54797348D01*
X200256413Y-54797348D01*
X201018318Y-55273539D02*
X200684985Y-55273539D01*
X200684985Y-55797348D02*
X200684985Y-54797348D01*
X201161175Y-54797348D01*
X201684985Y-54797348D02*
X201684985Y-55035444D01*
X201446889Y-54940206D02*
X201684985Y-55035444D01*
X201923080Y-54940206D01*
X201542127Y-55225920D02*
X201684985Y-55035444D01*
X201827842Y-55225920D01*
X202446889Y-54797348D02*
X202446889Y-55035444D01*
X202208794Y-54940206D02*
X202446889Y-55035444D01*
X202684985Y-54940206D01*
X202304032Y-55225920D02*
X202446889Y-55035444D01*
X202589746Y-55225920D01*
X204431651Y-55797348D02*
X204098318Y-55321158D01*
X203860223Y-55797348D02*
X203860223Y-54797348D01*
X204241175Y-54797348D01*
X204336413Y-54844968D01*
X204384032Y-54892587D01*
X204431651Y-54987825D01*
X204431651Y-55130682D01*
X204384032Y-55225920D01*
X204336413Y-55273539D01*
X204241175Y-55321158D01*
X203860223Y-55321158D01*
X204860223Y-55273539D02*
X205193556Y-55273539D01*
X205336413Y-55797348D02*
X204860223Y-55797348D01*
X204860223Y-54797348D01*
X205336413Y-54797348D01*
X206098318Y-55273539D02*
X205764985Y-55273539D01*
X205764985Y-55797348D02*
X205764985Y-54797348D01*
X206241175Y-54797348D01*
X206764985Y-54797348D02*
X206764985Y-55035444D01*
X206526889Y-54940206D02*
X206764985Y-55035444D01*
X207003080Y-54940206D01*
X206622127Y-55225920D02*
X206764985Y-55035444D01*
X206907842Y-55225920D01*
X207526889Y-54797348D02*
X207526889Y-55035444D01*
X207288794Y-54940206D02*
X207526889Y-55035444D01*
X207764985Y-54940206D01*
X207384032Y-55225920D02*
X207526889Y-55035444D01*
X207669746Y-55225920D01*
X145436651Y-71267348D02*
X145103318Y-70791158D01*
X144865223Y-71267348D02*
X144865223Y-70267348D01*
X145246175Y-70267348D01*
X145341413Y-70314968D01*
X145389032Y-70362587D01*
X145436651Y-70457825D01*
X145436651Y-70600682D01*
X145389032Y-70695920D01*
X145341413Y-70743539D01*
X145246175Y-70791158D01*
X144865223Y-70791158D01*
X145865223Y-70743539D02*
X146198556Y-70743539D01*
X146341413Y-71267348D02*
X145865223Y-71267348D01*
X145865223Y-70267348D01*
X146341413Y-70267348D01*
X147103318Y-70743539D02*
X146769985Y-70743539D01*
X146769985Y-71267348D02*
X146769985Y-70267348D01*
X147246175Y-70267348D01*
X147769985Y-70267348D02*
X147769985Y-70505444D01*
X147531889Y-70410206D02*
X147769985Y-70505444D01*
X148008080Y-70410206D01*
X147627127Y-70695920D02*
X147769985Y-70505444D01*
X147912842Y-70695920D01*
X148531889Y-70267348D02*
X148531889Y-70505444D01*
X148293794Y-70410206D02*
X148531889Y-70505444D01*
X148769985Y-70410206D01*
X148389032Y-70695920D02*
X148531889Y-70505444D01*
X148674746Y-70695920D01*
X140356651Y-68727348D02*
X140023318Y-68251158D01*
X139785223Y-68727348D02*
X139785223Y-67727348D01*
X140166175Y-67727348D01*
X140261413Y-67774968D01*
X140309032Y-67822587D01*
X140356651Y-67917825D01*
X140356651Y-68060682D01*
X140309032Y-68155920D01*
X140261413Y-68203539D01*
X140166175Y-68251158D01*
X139785223Y-68251158D01*
X140785223Y-68203539D02*
X141118556Y-68203539D01*
X141261413Y-68727348D02*
X140785223Y-68727348D01*
X140785223Y-67727348D01*
X141261413Y-67727348D01*
X142023318Y-68203539D02*
X141689985Y-68203539D01*
X141689985Y-68727348D02*
X141689985Y-67727348D01*
X142166175Y-67727348D01*
X142689985Y-67727348D02*
X142689985Y-67965444D01*
X142451889Y-67870206D02*
X142689985Y-67965444D01*
X142928080Y-67870206D01*
X142547127Y-68155920D02*
X142689985Y-67965444D01*
X142832842Y-68155920D01*
X143451889Y-67727348D02*
X143451889Y-67965444D01*
X143213794Y-67870206D02*
X143451889Y-67965444D01*
X143689985Y-67870206D01*
X143309032Y-68155920D02*
X143451889Y-67965444D01*
X143594746Y-68155920D01*
X137816651Y-68727348D02*
X137483318Y-68251158D01*
X137245223Y-68727348D02*
X137245223Y-67727348D01*
X137626175Y-67727348D01*
X137721413Y-67774968D01*
X137769032Y-67822587D01*
X137816651Y-67917825D01*
X137816651Y-68060682D01*
X137769032Y-68155920D01*
X137721413Y-68203539D01*
X137626175Y-68251158D01*
X137245223Y-68251158D01*
X138245223Y-68203539D02*
X138578556Y-68203539D01*
X138721413Y-68727348D02*
X138245223Y-68727348D01*
X138245223Y-67727348D01*
X138721413Y-67727348D01*
X139483318Y-68203539D02*
X139149985Y-68203539D01*
X139149985Y-68727348D02*
X139149985Y-67727348D01*
X139626175Y-67727348D01*
X140149985Y-67727348D02*
X140149985Y-67965444D01*
X139911889Y-67870206D02*
X140149985Y-67965444D01*
X140388080Y-67870206D01*
X140007127Y-68155920D02*
X140149985Y-67965444D01*
X140292842Y-68155920D01*
X140911889Y-67727348D02*
X140911889Y-67965444D01*
X140673794Y-67870206D02*
X140911889Y-67965444D01*
X141149985Y-67870206D01*
X140769032Y-68155920D02*
X140911889Y-67965444D01*
X141054746Y-68155920D01*
X135276651Y-68727348D02*
X134943318Y-68251158D01*
X134705223Y-68727348D02*
X134705223Y-67727348D01*
X135086175Y-67727348D01*
X135181413Y-67774968D01*
X135229032Y-67822587D01*
X135276651Y-67917825D01*
X135276651Y-68060682D01*
X135229032Y-68155920D01*
X135181413Y-68203539D01*
X135086175Y-68251158D01*
X134705223Y-68251158D01*
X135705223Y-68203539D02*
X136038556Y-68203539D01*
X136181413Y-68727348D02*
X135705223Y-68727348D01*
X135705223Y-67727348D01*
X136181413Y-67727348D01*
X136943318Y-68203539D02*
X136609985Y-68203539D01*
X136609985Y-68727348D02*
X136609985Y-67727348D01*
X137086175Y-67727348D01*
X137609985Y-67727348D02*
X137609985Y-67965444D01*
X137371889Y-67870206D02*
X137609985Y-67965444D01*
X137848080Y-67870206D01*
X137467127Y-68155920D02*
X137609985Y-67965444D01*
X137752842Y-68155920D01*
X138371889Y-67727348D02*
X138371889Y-67965444D01*
X138133794Y-67870206D02*
X138371889Y-67965444D01*
X138609985Y-67870206D01*
X138229032Y-68155920D02*
X138371889Y-67965444D01*
X138514746Y-68155920D01*
X132736651Y-68727348D02*
X132403318Y-68251158D01*
X132165223Y-68727348D02*
X132165223Y-67727348D01*
X132546175Y-67727348D01*
X132641413Y-67774968D01*
X132689032Y-67822587D01*
X132736651Y-67917825D01*
X132736651Y-68060682D01*
X132689032Y-68155920D01*
X132641413Y-68203539D01*
X132546175Y-68251158D01*
X132165223Y-68251158D01*
X133165223Y-68203539D02*
X133498556Y-68203539D01*
X133641413Y-68727348D02*
X133165223Y-68727348D01*
X133165223Y-67727348D01*
X133641413Y-67727348D01*
X134403318Y-68203539D02*
X134069985Y-68203539D01*
X134069985Y-68727348D02*
X134069985Y-67727348D01*
X134546175Y-67727348D01*
X135069985Y-67727348D02*
X135069985Y-67965444D01*
X134831889Y-67870206D02*
X135069985Y-67965444D01*
X135308080Y-67870206D01*
X134927127Y-68155920D02*
X135069985Y-67965444D01*
X135212842Y-68155920D01*
X135831889Y-67727348D02*
X135831889Y-67965444D01*
X135593794Y-67870206D02*
X135831889Y-67965444D01*
X136069985Y-67870206D01*
X135689032Y-68155920D02*
X135831889Y-67965444D01*
X135974746Y-68155920D01*
X142896651Y-68727348D02*
X142563318Y-68251158D01*
X142325223Y-68727348D02*
X142325223Y-67727348D01*
X142706175Y-67727348D01*
X142801413Y-67774968D01*
X142849032Y-67822587D01*
X142896651Y-67917825D01*
X142896651Y-68060682D01*
X142849032Y-68155920D01*
X142801413Y-68203539D01*
X142706175Y-68251158D01*
X142325223Y-68251158D01*
X143325223Y-68203539D02*
X143658556Y-68203539D01*
X143801413Y-68727348D02*
X143325223Y-68727348D01*
X143325223Y-67727348D01*
X143801413Y-67727348D01*
X144563318Y-68203539D02*
X144229985Y-68203539D01*
X144229985Y-68727348D02*
X144229985Y-67727348D01*
X144706175Y-67727348D01*
X145229985Y-67727348D02*
X145229985Y-67965444D01*
X144991889Y-67870206D02*
X145229985Y-67965444D01*
X145468080Y-67870206D01*
X145087127Y-68155920D02*
X145229985Y-67965444D01*
X145372842Y-68155920D01*
X145991889Y-67727348D02*
X145991889Y-67965444D01*
X145753794Y-67870206D02*
X145991889Y-67965444D01*
X146229985Y-67870206D01*
X145849032Y-68155920D02*
X145991889Y-67965444D01*
X146134746Y-68155920D01*
X142201651Y-68727348D02*
X141868318Y-68251158D01*
X141630223Y-68727348D02*
X141630223Y-67727348D01*
X142011175Y-67727348D01*
X142106413Y-67774968D01*
X142154032Y-67822587D01*
X142201651Y-67917825D01*
X142201651Y-68060682D01*
X142154032Y-68155920D01*
X142106413Y-68203539D01*
X142011175Y-68251158D01*
X141630223Y-68251158D01*
X142630223Y-68203539D02*
X142963556Y-68203539D01*
X143106413Y-68727348D02*
X142630223Y-68727348D01*
X142630223Y-67727348D01*
X143106413Y-67727348D01*
X143868318Y-68203539D02*
X143534985Y-68203539D01*
X143534985Y-68727348D02*
X143534985Y-67727348D01*
X144011175Y-67727348D01*
X144534985Y-67727348D02*
X144534985Y-67965444D01*
X144296889Y-67870206D02*
X144534985Y-67965444D01*
X144773080Y-67870206D01*
X144392127Y-68155920D02*
X144534985Y-67965444D01*
X144677842Y-68155920D01*
X145296889Y-67727348D02*
X145296889Y-67965444D01*
X145058794Y-67870206D02*
X145296889Y-67965444D01*
X145534985Y-67870206D01*
X145154032Y-68155920D02*
X145296889Y-67965444D01*
X145439746Y-68155920D01*
X149821651Y-71267348D02*
X149488318Y-70791158D01*
X149250223Y-71267348D02*
X149250223Y-70267348D01*
X149631175Y-70267348D01*
X149726413Y-70314968D01*
X149774032Y-70362587D01*
X149821651Y-70457825D01*
X149821651Y-70600682D01*
X149774032Y-70695920D01*
X149726413Y-70743539D01*
X149631175Y-70791158D01*
X149250223Y-70791158D01*
X150250223Y-70743539D02*
X150583556Y-70743539D01*
X150726413Y-71267348D02*
X150250223Y-71267348D01*
X150250223Y-70267348D01*
X150726413Y-70267348D01*
X151488318Y-70743539D02*
X151154985Y-70743539D01*
X151154985Y-71267348D02*
X151154985Y-70267348D01*
X151631175Y-70267348D01*
X152154985Y-70267348D02*
X152154985Y-70505444D01*
X151916889Y-70410206D02*
X152154985Y-70505444D01*
X152393080Y-70410206D01*
X152012127Y-70695920D02*
X152154985Y-70505444D01*
X152297842Y-70695920D01*
X152916889Y-70267348D02*
X152916889Y-70505444D01*
X152678794Y-70410206D02*
X152916889Y-70505444D01*
X153154985Y-70410206D01*
X152774032Y-70695920D02*
X152916889Y-70505444D01*
X153059746Y-70695920D01*
X123032365Y-88023301D02*
X122556175Y-88356634D01*
X123032365Y-88594729D02*
X122032365Y-88594729D01*
X122032365Y-88213777D01*
X122079985Y-88118539D01*
X122127604Y-88070920D01*
X122222842Y-88023301D01*
X122365699Y-88023301D01*
X122460937Y-88070920D01*
X122508556Y-88118539D01*
X122556175Y-88213777D01*
X122556175Y-88594729D01*
X122508556Y-87594729D02*
X122508556Y-87261396D01*
X123032365Y-87118539D02*
X123032365Y-87594729D01*
X122032365Y-87594729D01*
X122032365Y-87118539D01*
X122508556Y-86356634D02*
X122508556Y-86689968D01*
X123032365Y-86689968D02*
X122032365Y-86689968D01*
X122032365Y-86213777D01*
X122032365Y-85689968D02*
X122270461Y-85689968D01*
X122175223Y-85928063D02*
X122270461Y-85689968D01*
X122175223Y-85451872D01*
X122460937Y-85832825D02*
X122270461Y-85689968D01*
X122460937Y-85547110D01*
X122032365Y-84928063D02*
X122270461Y-84928063D01*
X122175223Y-85166158D02*
X122270461Y-84928063D01*
X122175223Y-84689968D01*
X122460937Y-85070920D02*
X122270461Y-84928063D01*
X122460937Y-84785206D01*
X123032365Y-84213301D02*
X122556175Y-84546634D01*
X123032365Y-84784729D02*
X122032365Y-84784729D01*
X122032365Y-84403777D01*
X122079985Y-84308539D01*
X122127604Y-84260920D01*
X122222842Y-84213301D01*
X122365699Y-84213301D01*
X122460937Y-84260920D01*
X122508556Y-84308539D01*
X122556175Y-84403777D01*
X122556175Y-84784729D01*
X122508556Y-83784729D02*
X122508556Y-83451396D01*
X123032365Y-83308539D02*
X123032365Y-83784729D01*
X122032365Y-83784729D01*
X122032365Y-83308539D01*
X122508556Y-82546634D02*
X122508556Y-82879968D01*
X123032365Y-82879968D02*
X122032365Y-82879968D01*
X122032365Y-82403777D01*
X122032365Y-81879968D02*
X122270461Y-81879968D01*
X122175223Y-82118063D02*
X122270461Y-81879968D01*
X122175223Y-81641872D01*
X122460937Y-82022825D02*
X122270461Y-81879968D01*
X122460937Y-81737110D01*
X122032365Y-81118063D02*
X122270461Y-81118063D01*
X122175223Y-81356158D02*
X122270461Y-81118063D01*
X122175223Y-80879968D01*
X122460937Y-81260920D02*
X122270461Y-81118063D01*
X122460937Y-80975206D01*
X152532365Y-72148301D02*
X152056175Y-72481634D01*
X152532365Y-72719729D02*
X151532365Y-72719729D01*
X151532365Y-72338777D01*
X151579985Y-72243539D01*
X151627604Y-72195920D01*
X151722842Y-72148301D01*
X151865699Y-72148301D01*
X151960937Y-72195920D01*
X152008556Y-72243539D01*
X152056175Y-72338777D01*
X152056175Y-72719729D01*
X152008556Y-71719729D02*
X152008556Y-71386396D01*
X152532365Y-71243539D02*
X152532365Y-71719729D01*
X151532365Y-71719729D01*
X151532365Y-71243539D01*
X152008556Y-70481634D02*
X152008556Y-70814968D01*
X152532365Y-70814968D02*
X151532365Y-70814968D01*
X151532365Y-70338777D01*
X151532365Y-69814968D02*
X151770461Y-69814968D01*
X151675223Y-70053063D02*
X151770461Y-69814968D01*
X151675223Y-69576872D01*
X151960937Y-69957825D02*
X151770461Y-69814968D01*
X151960937Y-69672110D01*
X151532365Y-69053063D02*
X151770461Y-69053063D01*
X151675223Y-69291158D02*
X151770461Y-69053063D01*
X151675223Y-68814968D01*
X151960937Y-69195920D02*
X151770461Y-69053063D01*
X151960937Y-68910206D01*
X123032365Y-91198301D02*
X122556175Y-91531634D01*
X123032365Y-91769729D02*
X122032365Y-91769729D01*
X122032365Y-91388777D01*
X122079985Y-91293539D01*
X122127604Y-91245920D01*
X122222842Y-91198301D01*
X122365699Y-91198301D01*
X122460937Y-91245920D01*
X122508556Y-91293539D01*
X122556175Y-91388777D01*
X122556175Y-91769729D01*
X122508556Y-90769729D02*
X122508556Y-90436396D01*
X123032365Y-90293539D02*
X123032365Y-90769729D01*
X122032365Y-90769729D01*
X122032365Y-90293539D01*
X122508556Y-89531634D02*
X122508556Y-89864968D01*
X123032365Y-89864968D02*
X122032365Y-89864968D01*
X122032365Y-89388777D01*
X122032365Y-88864968D02*
X122270461Y-88864968D01*
X122175223Y-89103063D02*
X122270461Y-88864968D01*
X122175223Y-88626872D01*
X122460937Y-89007825D02*
X122270461Y-88864968D01*
X122460937Y-88722110D01*
X122032365Y-88103063D02*
X122270461Y-88103063D01*
X122175223Y-88341158D02*
X122270461Y-88103063D01*
X122175223Y-87864968D01*
X122460937Y-88245920D02*
X122270461Y-88103063D01*
X122460937Y-87960206D01*
X123032365Y-96208301D02*
X122556175Y-96541634D01*
X123032365Y-96779729D02*
X122032365Y-96779729D01*
X122032365Y-96398777D01*
X122079985Y-96303539D01*
X122127604Y-96255920D01*
X122222842Y-96208301D01*
X122365699Y-96208301D01*
X122460937Y-96255920D01*
X122508556Y-96303539D01*
X122556175Y-96398777D01*
X122556175Y-96779729D01*
X122508556Y-95779729D02*
X122508556Y-95446396D01*
X123032365Y-95303539D02*
X123032365Y-95779729D01*
X122032365Y-95779729D01*
X122032365Y-95303539D01*
X122508556Y-94541634D02*
X122508556Y-94874968D01*
X123032365Y-94874968D02*
X122032365Y-94874968D01*
X122032365Y-94398777D01*
X122032365Y-93874968D02*
X122270461Y-93874968D01*
X122175223Y-94113063D02*
X122270461Y-93874968D01*
X122175223Y-93636872D01*
X122460937Y-94017825D02*
X122270461Y-93874968D01*
X122460937Y-93732110D01*
X122032365Y-93113063D02*
X122270461Y-93113063D01*
X122175223Y-93351158D02*
X122270461Y-93113063D01*
X122175223Y-92874968D01*
X122460937Y-93255920D02*
X122270461Y-93113063D01*
X122460937Y-92970206D01*
X123032365Y-101288301D02*
X122556175Y-101621634D01*
X123032365Y-101859729D02*
X122032365Y-101859729D01*
X122032365Y-101478777D01*
X122079985Y-101383539D01*
X122127604Y-101335920D01*
X122222842Y-101288301D01*
X122365699Y-101288301D01*
X122460937Y-101335920D01*
X122508556Y-101383539D01*
X122556175Y-101478777D01*
X122556175Y-101859729D01*
X122508556Y-100859729D02*
X122508556Y-100526396D01*
X123032365Y-100383539D02*
X123032365Y-100859729D01*
X122032365Y-100859729D01*
X122032365Y-100383539D01*
X122508556Y-99621634D02*
X122508556Y-99954968D01*
X123032365Y-99954968D02*
X122032365Y-99954968D01*
X122032365Y-99478777D01*
X122032365Y-98954968D02*
X122270461Y-98954968D01*
X122175223Y-99193063D02*
X122270461Y-98954968D01*
X122175223Y-98716872D01*
X122460937Y-99097825D02*
X122270461Y-98954968D01*
X122460937Y-98812110D01*
X122032365Y-98193063D02*
X122270461Y-98193063D01*
X122175223Y-98431158D02*
X122270461Y-98193063D01*
X122175223Y-97954968D01*
X122460937Y-98335920D02*
X122270461Y-98193063D01*
X122460937Y-98050206D01*
X123667365Y-106368301D02*
X123191175Y-106701634D01*
X123667365Y-106939729D02*
X122667365Y-106939729D01*
X122667365Y-106558777D01*
X122714985Y-106463539D01*
X122762604Y-106415920D01*
X122857842Y-106368301D01*
X123000699Y-106368301D01*
X123095937Y-106415920D01*
X123143556Y-106463539D01*
X123191175Y-106558777D01*
X123191175Y-106939729D01*
X123143556Y-105939729D02*
X123143556Y-105606396D01*
X123667365Y-105463539D02*
X123667365Y-105939729D01*
X122667365Y-105939729D01*
X122667365Y-105463539D01*
X123143556Y-104701634D02*
X123143556Y-105034968D01*
X123667365Y-105034968D02*
X122667365Y-105034968D01*
X122667365Y-104558777D01*
X122667365Y-104034968D02*
X122905461Y-104034968D01*
X122810223Y-104273063D02*
X122905461Y-104034968D01*
X122810223Y-103796872D01*
X123095937Y-104177825D02*
X122905461Y-104034968D01*
X123095937Y-103892110D01*
X122667365Y-103273063D02*
X122905461Y-103273063D01*
X122810223Y-103511158D02*
X122905461Y-103273063D01*
X122810223Y-103034968D01*
X123095937Y-103415920D02*
X122905461Y-103273063D01*
X123095937Y-103130206D01*
X116861651Y-109527348D02*
X116528318Y-109051158D01*
X116290223Y-109527348D02*
X116290223Y-108527348D01*
X116671175Y-108527348D01*
X116766413Y-108574968D01*
X116814032Y-108622587D01*
X116861651Y-108717825D01*
X116861651Y-108860682D01*
X116814032Y-108955920D01*
X116766413Y-109003539D01*
X116671175Y-109051158D01*
X116290223Y-109051158D01*
X117290223Y-109003539D02*
X117623556Y-109003539D01*
X117766413Y-109527348D02*
X117290223Y-109527348D01*
X117290223Y-108527348D01*
X117766413Y-108527348D01*
X118528318Y-109003539D02*
X118194985Y-109003539D01*
X118194985Y-109527348D02*
X118194985Y-108527348D01*
X118671175Y-108527348D01*
X119194985Y-108527348D02*
X119194985Y-108765444D01*
X118956889Y-108670206D02*
X119194985Y-108765444D01*
X119433080Y-108670206D01*
X119052127Y-108955920D02*
X119194985Y-108765444D01*
X119337842Y-108955920D01*
X119956889Y-108527348D02*
X119956889Y-108765444D01*
X119718794Y-108670206D02*
X119956889Y-108765444D01*
X120194985Y-108670206D01*
X119814032Y-108955920D02*
X119956889Y-108765444D01*
X120099746Y-108955920D01*
X111781651Y-109527348D02*
X111448318Y-109051158D01*
X111210223Y-109527348D02*
X111210223Y-108527348D01*
X111591175Y-108527348D01*
X111686413Y-108574968D01*
X111734032Y-108622587D01*
X111781651Y-108717825D01*
X111781651Y-108860682D01*
X111734032Y-108955920D01*
X111686413Y-109003539D01*
X111591175Y-109051158D01*
X111210223Y-109051158D01*
X112210223Y-109003539D02*
X112543556Y-109003539D01*
X112686413Y-109527348D02*
X112210223Y-109527348D01*
X112210223Y-108527348D01*
X112686413Y-108527348D01*
X113448318Y-109003539D02*
X113114985Y-109003539D01*
X113114985Y-109527348D02*
X113114985Y-108527348D01*
X113591175Y-108527348D01*
X114114985Y-108527348D02*
X114114985Y-108765444D01*
X113876889Y-108670206D02*
X114114985Y-108765444D01*
X114353080Y-108670206D01*
X113972127Y-108955920D02*
X114114985Y-108765444D01*
X114257842Y-108955920D01*
X114876889Y-108527348D02*
X114876889Y-108765444D01*
X114638794Y-108670206D02*
X114876889Y-108765444D01*
X115114985Y-108670206D01*
X114734032Y-108955920D02*
X114876889Y-108765444D01*
X115019746Y-108955920D01*
%TO.C,C1*%
X178368319Y-132896806D02*
X178320700Y-132944425D01*
X178177843Y-132992044D01*
X178082605Y-132992044D01*
X177939747Y-132944425D01*
X177844509Y-132849187D01*
X177796890Y-132753949D01*
X177749271Y-132563473D01*
X177749271Y-132420616D01*
X177796890Y-132230140D01*
X177844509Y-132134902D01*
X177939747Y-132039664D01*
X178082605Y-131992044D01*
X178177843Y-131992044D01*
X178320700Y-132039664D01*
X178368319Y-132087283D01*
X179320700Y-132992044D02*
X178749271Y-132992044D01*
X179034986Y-132992044D02*
X179034986Y-131992044D01*
X178939747Y-132134902D01*
X178844509Y-132230140D01*
X178749271Y-132277759D01*
%TO.C,D1*%
X178507366Y-126502759D02*
X177507366Y-126502759D01*
X177507366Y-126264664D01*
X177554986Y-126121806D01*
X177650224Y-126026568D01*
X177745462Y-125978949D01*
X177935938Y-125931330D01*
X178078795Y-125931330D01*
X178269271Y-125978949D01*
X178364509Y-126026568D01*
X178459747Y-126121806D01*
X178507366Y-126264664D01*
X178507366Y-126502759D01*
X178507366Y-124978949D02*
X178507366Y-125550378D01*
X178507366Y-125264664D02*
X177507366Y-125264664D01*
X177650224Y-125359902D01*
X177745462Y-125455140D01*
X177793081Y-125550378D01*
%TO.C,U4*%
X179833081Y-88727044D02*
X179833081Y-89536568D01*
X179880700Y-89631806D01*
X179928319Y-89679425D01*
X180023557Y-89727044D01*
X180214033Y-89727044D01*
X180309271Y-89679425D01*
X180356890Y-89631806D01*
X180404509Y-89536568D01*
X180404509Y-88727044D01*
X181309271Y-89060378D02*
X181309271Y-89727044D01*
X181071176Y-88679425D02*
X180833081Y-89393711D01*
X181452128Y-89393711D01*
%TO.C,U2*%
X179833081Y-112727044D02*
X179833081Y-113536568D01*
X179880700Y-113631806D01*
X179928319Y-113679425D01*
X180023557Y-113727044D01*
X180214033Y-113727044D01*
X180309271Y-113679425D01*
X180356890Y-113631806D01*
X180404509Y-113536568D01*
X180404509Y-112727044D01*
X180833081Y-112822283D02*
X180880700Y-112774664D01*
X180975938Y-112727044D01*
X181214033Y-112727044D01*
X181309271Y-112774664D01*
X181356890Y-112822283D01*
X181404509Y-112917521D01*
X181404509Y-113012759D01*
X181356890Y-113155616D01*
X180785462Y-113727044D01*
X181404509Y-113727044D01*
%TO.C,U3*%
X179833081Y-100727044D02*
X179833081Y-101536568D01*
X179880700Y-101631806D01*
X179928319Y-101679425D01*
X180023557Y-101727044D01*
X180214033Y-101727044D01*
X180309271Y-101679425D01*
X180356890Y-101631806D01*
X180404509Y-101536568D01*
X180404509Y-100727044D01*
X180785462Y-100727044D02*
X181404509Y-100727044D01*
X181071176Y-101107997D01*
X181214033Y-101107997D01*
X181309271Y-101155616D01*
X181356890Y-101203235D01*
X181404509Y-101298473D01*
X181404509Y-101536568D01*
X181356890Y-101631806D01*
X181309271Y-101679425D01*
X181214033Y-101727044D01*
X180928319Y-101727044D01*
X180833081Y-101679425D01*
X180785462Y-101631806D01*
%TO.C,D2*%
X178507366Y-113437759D02*
X177507366Y-113437759D01*
X177507366Y-113199664D01*
X177554986Y-113056806D01*
X177650224Y-112961568D01*
X177745462Y-112913949D01*
X177935938Y-112866330D01*
X178078795Y-112866330D01*
X178269271Y-112913949D01*
X178364509Y-112961568D01*
X178459747Y-113056806D01*
X178507366Y-113199664D01*
X178507366Y-113437759D01*
X177602605Y-112485378D02*
X177554986Y-112437759D01*
X177507366Y-112342521D01*
X177507366Y-112104425D01*
X177554986Y-112009187D01*
X177602605Y-111961568D01*
X177697843Y-111913949D01*
X177793081Y-111913949D01*
X177935938Y-111961568D01*
X178507366Y-112532997D01*
X178507366Y-111913949D01*
%TO.C,U1*%
X179833081Y-125727044D02*
X179833081Y-126536568D01*
X179880700Y-126631806D01*
X179928319Y-126679425D01*
X180023557Y-126727044D01*
X180214033Y-126727044D01*
X180309271Y-126679425D01*
X180356890Y-126631806D01*
X180404509Y-126536568D01*
X180404509Y-125727044D01*
X181404509Y-126727044D02*
X180833081Y-126727044D01*
X181118795Y-126727044D02*
X181118795Y-125727044D01*
X181023557Y-125869902D01*
X180928319Y-125965140D01*
X180833081Y-126012759D01*
%TO.C,D4*%
X178507366Y-89577759D02*
X177507366Y-89577759D01*
X177507366Y-89339664D01*
X177554986Y-89196806D01*
X177650224Y-89101568D01*
X177745462Y-89053949D01*
X177935938Y-89006330D01*
X178078795Y-89006330D01*
X178269271Y-89053949D01*
X178364509Y-89101568D01*
X178459747Y-89196806D01*
X178507366Y-89339664D01*
X178507366Y-89577759D01*
X177840700Y-88149187D02*
X178507366Y-88149187D01*
X177459747Y-88387283D02*
X178174033Y-88625378D01*
X178174033Y-88006330D01*
%TO.C,D3*%
X178507366Y-101372759D02*
X177507366Y-101372759D01*
X177507366Y-101134664D01*
X177554986Y-100991806D01*
X177650224Y-100896568D01*
X177745462Y-100848949D01*
X177935938Y-100801330D01*
X178078795Y-100801330D01*
X178269271Y-100848949D01*
X178364509Y-100896568D01*
X178459747Y-100991806D01*
X178507366Y-101134664D01*
X178507366Y-101372759D01*
X177507366Y-100467997D02*
X177507366Y-99848949D01*
X177888319Y-100182283D01*
X177888319Y-100039425D01*
X177935938Y-99944187D01*
X177983557Y-99896568D01*
X178078795Y-99848949D01*
X178316890Y-99848949D01*
X178412128Y-99896568D01*
X178459747Y-99944187D01*
X178507366Y-100039425D01*
X178507366Y-100325140D01*
X178459747Y-100420378D01*
X178412128Y-100467997D01*
%TO.C,J1*%
X184047366Y-137882997D02*
X184761652Y-137882997D01*
X184904509Y-137930616D01*
X184999747Y-138025854D01*
X185047366Y-138168711D01*
X185047366Y-138263949D01*
X185047366Y-136882997D02*
X185047366Y-137454425D01*
X185047366Y-137168711D02*
X184047366Y-137168711D01*
X184190224Y-137263949D01*
X184285462Y-137359187D01*
X184333081Y-137454425D01*
%TO.C,C1*%
X191448318Y-112557110D02*
X191400699Y-112604729D01*
X191257842Y-112652348D01*
X191162604Y-112652348D01*
X191019746Y-112604729D01*
X190924508Y-112509491D01*
X190876889Y-112414253D01*
X190829270Y-112223777D01*
X190829270Y-112080920D01*
X190876889Y-111890444D01*
X190924508Y-111795206D01*
X191019746Y-111699968D01*
X191162604Y-111652348D01*
X191257842Y-111652348D01*
X191400699Y-111699968D01*
X191448318Y-111747587D01*
X192400699Y-112652348D02*
X191829270Y-112652348D01*
X192114985Y-112652348D02*
X192114985Y-111652348D01*
X192019746Y-111795206D01*
X191924508Y-111890444D01*
X191829270Y-111938063D01*
%TO.C,D1*%
X192547365Y-119713063D02*
X191547365Y-119713063D01*
X191547365Y-119474968D01*
X191594985Y-119332110D01*
X191690223Y-119236872D01*
X191785461Y-119189253D01*
X191975937Y-119141634D01*
X192118794Y-119141634D01*
X192309270Y-119189253D01*
X192404508Y-119236872D01*
X192499746Y-119332110D01*
X192547365Y-119474968D01*
X192547365Y-119713063D01*
X192547365Y-118189253D02*
X192547365Y-118760682D01*
X192547365Y-118474968D02*
X191547365Y-118474968D01*
X191690223Y-118570206D01*
X191785461Y-118665444D01*
X191833080Y-118760682D01*
%TO.C,U2*%
X188793080Y-129917348D02*
X188793080Y-130726872D01*
X188840699Y-130822110D01*
X188888318Y-130869729D01*
X188983556Y-130917348D01*
X189174032Y-130917348D01*
X189269270Y-130869729D01*
X189316889Y-130822110D01*
X189364508Y-130726872D01*
X189364508Y-129917348D01*
X189793080Y-130012587D02*
X189840699Y-129964968D01*
X189935937Y-129917348D01*
X190174032Y-129917348D01*
X190269270Y-129964968D01*
X190316889Y-130012587D01*
X190364508Y-130107825D01*
X190364508Y-130203063D01*
X190316889Y-130345920D01*
X189745461Y-130917348D01*
X190364508Y-130917348D01*
%TO.C,U3*%
X188793080Y-142917348D02*
X188793080Y-143726872D01*
X188840699Y-143822110D01*
X188888318Y-143869729D01*
X188983556Y-143917348D01*
X189174032Y-143917348D01*
X189269270Y-143869729D01*
X189316889Y-143822110D01*
X189364508Y-143726872D01*
X189364508Y-142917348D01*
X189745461Y-142917348D02*
X190364508Y-142917348D01*
X190031175Y-143298301D01*
X190174032Y-143298301D01*
X190269270Y-143345920D01*
X190316889Y-143393539D01*
X190364508Y-143488777D01*
X190364508Y-143726872D01*
X190316889Y-143822110D01*
X190269270Y-143869729D01*
X190174032Y-143917348D01*
X189888318Y-143917348D01*
X189793080Y-143869729D01*
X189745461Y-143822110D01*
%TO.C,D2*%
X192547365Y-131778063D02*
X191547365Y-131778063D01*
X191547365Y-131539968D01*
X191594985Y-131397110D01*
X191690223Y-131301872D01*
X191785461Y-131254253D01*
X191975937Y-131206634D01*
X192118794Y-131206634D01*
X192309270Y-131254253D01*
X192404508Y-131301872D01*
X192499746Y-131397110D01*
X192547365Y-131539968D01*
X192547365Y-131778063D01*
X191642604Y-130825682D02*
X191594985Y-130778063D01*
X191547365Y-130682825D01*
X191547365Y-130444729D01*
X191594985Y-130349491D01*
X191642604Y-130301872D01*
X191737842Y-130254253D01*
X191833080Y-130254253D01*
X191975937Y-130301872D01*
X192547365Y-130873301D01*
X192547365Y-130254253D01*
%TO.C,U1*%
X188793080Y-117917348D02*
X188793080Y-118726872D01*
X188840699Y-118822110D01*
X188888318Y-118869729D01*
X188983556Y-118917348D01*
X189174032Y-118917348D01*
X189269270Y-118869729D01*
X189316889Y-118822110D01*
X189364508Y-118726872D01*
X189364508Y-117917348D01*
X190364508Y-118917348D02*
X189793080Y-118917348D01*
X190078794Y-118917348D02*
X190078794Y-117917348D01*
X189983556Y-118060206D01*
X189888318Y-118155444D01*
X189793080Y-118203063D01*
%TO.C,D3*%
X192547365Y-144843063D02*
X191547365Y-144843063D01*
X191547365Y-144604968D01*
X191594985Y-144462110D01*
X191690223Y-144366872D01*
X191785461Y-144319253D01*
X191975937Y-144271634D01*
X192118794Y-144271634D01*
X192309270Y-144319253D01*
X192404508Y-144366872D01*
X192499746Y-144462110D01*
X192547365Y-144604968D01*
X192547365Y-144843063D01*
X191547365Y-143938301D02*
X191547365Y-143319253D01*
X191928318Y-143652587D01*
X191928318Y-143509729D01*
X191975937Y-143414491D01*
X192023556Y-143366872D01*
X192118794Y-143319253D01*
X192356889Y-143319253D01*
X192452127Y-143366872D01*
X192499746Y-143414491D01*
X192547365Y-143509729D01*
X192547365Y-143795444D01*
X192499746Y-143890682D01*
X192452127Y-143938301D01*
%TO.C,J1*%
X185007365Y-107523301D02*
X185721651Y-107523301D01*
X185864508Y-107570920D01*
X185959746Y-107666158D01*
X186007365Y-107809015D01*
X186007365Y-107904253D01*
X186007365Y-106523301D02*
X186007365Y-107094729D01*
X186007365Y-106809015D02*
X185007365Y-106809015D01*
X185150223Y-106904253D01*
X185245461Y-106999491D01*
X185293080Y-107094729D01*
%TO.C,U1*%
X201775588Y-100104864D02*
X201775588Y-100914388D01*
X201823207Y-101009626D01*
X201870826Y-101057245D01*
X201966064Y-101104864D01*
X202156540Y-101104864D01*
X202251778Y-101057245D01*
X202299397Y-101009626D01*
X202347016Y-100914388D01*
X202347016Y-100104864D01*
X203347016Y-101104864D02*
X202775588Y-101104864D01*
X203061302Y-101104864D02*
X203061302Y-100104864D01*
X202966064Y-100247722D01*
X202870826Y-100342960D01*
X202775588Y-100390579D01*
%TO.C,U2*%
X201775588Y-114104864D02*
X201775588Y-114914388D01*
X201823207Y-115009626D01*
X201870826Y-115057245D01*
X201966064Y-115104864D01*
X202156540Y-115104864D01*
X202251778Y-115057245D01*
X202299397Y-115009626D01*
X202347016Y-114914388D01*
X202347016Y-114104864D01*
X202775588Y-114200103D02*
X202823207Y-114152484D01*
X202918445Y-114104864D01*
X203156540Y-114104864D01*
X203251778Y-114152484D01*
X203299397Y-114200103D01*
X203347016Y-114295341D01*
X203347016Y-114390579D01*
X203299397Y-114533436D01*
X202727969Y-115104864D01*
X203347016Y-115104864D01*
%TO.C,U3*%
X201775588Y-128104864D02*
X201775588Y-128914388D01*
X201823207Y-129009626D01*
X201870826Y-129057245D01*
X201966064Y-129104864D01*
X202156540Y-129104864D01*
X202251778Y-129057245D01*
X202299397Y-129009626D01*
X202347016Y-128914388D01*
X202347016Y-128104864D01*
X202727969Y-128104864D02*
X203347016Y-128104864D01*
X203013683Y-128485817D01*
X203156540Y-128485817D01*
X203251778Y-128533436D01*
X203299397Y-128581055D01*
X203347016Y-128676293D01*
X203347016Y-128914388D01*
X203299397Y-129009626D01*
X203251778Y-129057245D01*
X203156540Y-129104864D01*
X202870826Y-129104864D01*
X202775588Y-129057245D01*
X202727969Y-129009626D01*
%TO.C,U4*%
X201775588Y-142104864D02*
X201775588Y-142914388D01*
X201823207Y-143009626D01*
X201870826Y-143057245D01*
X201966064Y-143104864D01*
X202156540Y-143104864D01*
X202251778Y-143057245D01*
X202299397Y-143009626D01*
X202347016Y-142914388D01*
X202347016Y-142104864D01*
X203251778Y-142438198D02*
X203251778Y-143104864D01*
X203013683Y-142057245D02*
X202775588Y-142771531D01*
X203394635Y-142771531D01*
%TO.C,J1*%
X197989873Y-89710817D02*
X198704159Y-89710817D01*
X198847016Y-89758436D01*
X198942254Y-89853674D01*
X198989873Y-89996531D01*
X198989873Y-90091769D01*
X198989873Y-88710817D02*
X198989873Y-89282245D01*
X198989873Y-88996531D02*
X197989873Y-88996531D01*
X198132731Y-89091769D01*
X198227969Y-89187007D01*
X198275588Y-89282245D01*
%TO.C,D4*%
X205529873Y-143825579D02*
X204529873Y-143825579D01*
X204529873Y-143587484D01*
X204577493Y-143444626D01*
X204672731Y-143349388D01*
X204767969Y-143301769D01*
X204958445Y-143254150D01*
X205101302Y-143254150D01*
X205291778Y-143301769D01*
X205387016Y-143349388D01*
X205482254Y-143444626D01*
X205529873Y-143587484D01*
X205529873Y-143825579D01*
X204863207Y-142397007D02*
X205529873Y-142397007D01*
X204482254Y-142635103D02*
X205196540Y-142873198D01*
X205196540Y-142254150D01*
%TO.C,D3*%
X205529873Y-130030579D02*
X204529873Y-130030579D01*
X204529873Y-129792484D01*
X204577493Y-129649626D01*
X204672731Y-129554388D01*
X204767969Y-129506769D01*
X204958445Y-129459150D01*
X205101302Y-129459150D01*
X205291778Y-129506769D01*
X205387016Y-129554388D01*
X205482254Y-129649626D01*
X205529873Y-129792484D01*
X205529873Y-130030579D01*
X204529873Y-129125817D02*
X204529873Y-128506769D01*
X204910826Y-128840103D01*
X204910826Y-128697245D01*
X204958445Y-128602007D01*
X205006064Y-128554388D01*
X205101302Y-128506769D01*
X205339397Y-128506769D01*
X205434635Y-128554388D01*
X205482254Y-128602007D01*
X205529873Y-128697245D01*
X205529873Y-128982960D01*
X205482254Y-129078198D01*
X205434635Y-129125817D01*
%TO.C,D2*%
X205529873Y-115965579D02*
X204529873Y-115965579D01*
X204529873Y-115727484D01*
X204577493Y-115584626D01*
X204672731Y-115489388D01*
X204767969Y-115441769D01*
X204958445Y-115394150D01*
X205101302Y-115394150D01*
X205291778Y-115441769D01*
X205387016Y-115489388D01*
X205482254Y-115584626D01*
X205529873Y-115727484D01*
X205529873Y-115965579D01*
X204625112Y-115013198D02*
X204577493Y-114965579D01*
X204529873Y-114870341D01*
X204529873Y-114632245D01*
X204577493Y-114537007D01*
X204625112Y-114489388D01*
X204720350Y-114441769D01*
X204815588Y-114441769D01*
X204958445Y-114489388D01*
X205529873Y-115060817D01*
X205529873Y-114441769D01*
%TO.C,D1*%
X205529873Y-101900579D02*
X204529873Y-101900579D01*
X204529873Y-101662484D01*
X204577493Y-101519626D01*
X204672731Y-101424388D01*
X204767969Y-101376769D01*
X204958445Y-101329150D01*
X205101302Y-101329150D01*
X205291778Y-101376769D01*
X205387016Y-101424388D01*
X205482254Y-101519626D01*
X205529873Y-101662484D01*
X205529873Y-101900579D01*
X205529873Y-100376769D02*
X205529873Y-100948198D01*
X205529873Y-100662484D02*
X204529873Y-100662484D01*
X204672731Y-100757722D01*
X204767969Y-100852960D01*
X204815588Y-100948198D01*
%TO.C,C1*%
X204430826Y-94744626D02*
X204383207Y-94792245D01*
X204240350Y-94839864D01*
X204145112Y-94839864D01*
X204002254Y-94792245D01*
X203907016Y-94697007D01*
X203859397Y-94601769D01*
X203811778Y-94411293D01*
X203811778Y-94268436D01*
X203859397Y-94077960D01*
X203907016Y-93982722D01*
X204002254Y-93887484D01*
X204145112Y-93839864D01*
X204240350Y-93839864D01*
X204383207Y-93887484D01*
X204430826Y-93935103D01*
X205383207Y-94839864D02*
X204811778Y-94839864D01*
X205097493Y-94839864D02*
X205097493Y-93839864D01*
X205002254Y-93982722D01*
X204907016Y-94077960D01*
X204811778Y-94125579D01*
%TO.C,C2*%
X147799641Y-115962317D02*
X147847260Y-116009936D01*
X147894879Y-116152793D01*
X147894879Y-116248031D01*
X147847260Y-116390889D01*
X147752022Y-116486127D01*
X147656784Y-116533746D01*
X147466308Y-116581365D01*
X147323451Y-116581365D01*
X147132975Y-116533746D01*
X147037737Y-116486127D01*
X146942499Y-116390889D01*
X146894879Y-116248031D01*
X146894879Y-116152793D01*
X146942499Y-116009936D01*
X146990118Y-115962317D01*
X146990118Y-115581365D02*
X146942499Y-115533746D01*
X146894879Y-115438508D01*
X146894879Y-115200412D01*
X146942499Y-115105174D01*
X146990118Y-115057555D01*
X147085356Y-115009936D01*
X147180594Y-115009936D01*
X147323451Y-115057555D01*
X147894879Y-115628984D01*
X147894879Y-115009936D01*
%TO.C,J8*%
X124306878Y-129844984D02*
X125021164Y-129844984D01*
X125164021Y-129892603D01*
X125259259Y-129987841D01*
X125306878Y-130130698D01*
X125306878Y-130225936D01*
X124735450Y-129225936D02*
X124687831Y-129321174D01*
X124640212Y-129368793D01*
X124544974Y-129416412D01*
X124497355Y-129416412D01*
X124402117Y-129368793D01*
X124354498Y-129321174D01*
X124306878Y-129225936D01*
X124306878Y-129035460D01*
X124354498Y-128940222D01*
X124402117Y-128892603D01*
X124497355Y-128844984D01*
X124544974Y-128844984D01*
X124640212Y-128892603D01*
X124687831Y-128940222D01*
X124735450Y-129035460D01*
X124735450Y-129225936D01*
X124783069Y-129321174D01*
X124830688Y-129368793D01*
X124925926Y-129416412D01*
X125116402Y-129416412D01*
X125211640Y-129368793D01*
X125259259Y-129321174D01*
X125306878Y-129225936D01*
X125306878Y-129035460D01*
X125259259Y-128940222D01*
X125211640Y-128892603D01*
X125116402Y-128844984D01*
X124925926Y-128844984D01*
X124830688Y-128892603D01*
X124783069Y-128940222D01*
X124735450Y-129035460D01*
%TO.C,MES2*%
X124700403Y-136626031D02*
X124700403Y-135626031D01*
X125033737Y-136340317D01*
X125367070Y-135626031D01*
X125367070Y-136626031D01*
X125843260Y-136102222D02*
X126176594Y-136102222D01*
X126319451Y-136626031D02*
X125843260Y-136626031D01*
X125843260Y-135626031D01*
X126319451Y-135626031D01*
X126700403Y-136578412D02*
X126843260Y-136626031D01*
X127081356Y-136626031D01*
X127176594Y-136578412D01*
X127224213Y-136530793D01*
X127271832Y-136435555D01*
X127271832Y-136340317D01*
X127224213Y-136245079D01*
X127176594Y-136197460D01*
X127081356Y-136149841D01*
X126890879Y-136102222D01*
X126795641Y-136054603D01*
X126748022Y-136006984D01*
X126700403Y-135911746D01*
X126700403Y-135816508D01*
X126748022Y-135721270D01*
X126795641Y-135673651D01*
X126890879Y-135626031D01*
X127128975Y-135626031D01*
X127271832Y-135673651D01*
X127652784Y-135721270D02*
X127700403Y-135673651D01*
X127795641Y-135626031D01*
X128033737Y-135626031D01*
X128128975Y-135673651D01*
X128176594Y-135721270D01*
X128224213Y-135816508D01*
X128224213Y-135911746D01*
X128176594Y-136054603D01*
X127605165Y-136626031D01*
X128224213Y-136626031D01*
%TO.C,SW1*%
D14*
X164991165Y-125179698D02*
X165172594Y-125240174D01*
X165474975Y-125240174D01*
X165595927Y-125179698D01*
X165656403Y-125119222D01*
X165716879Y-124998270D01*
X165716879Y-124877317D01*
X165656403Y-124756365D01*
X165595927Y-124695889D01*
X165474975Y-124635412D01*
X165233070Y-124574936D01*
X165112118Y-124514460D01*
X165051641Y-124453984D01*
X164991165Y-124333031D01*
X164991165Y-124212079D01*
X165051641Y-124091127D01*
X165112118Y-124030651D01*
X165233070Y-123970174D01*
X165535451Y-123970174D01*
X165716879Y-124030651D01*
X166140213Y-123970174D02*
X166442594Y-125240174D01*
X166684499Y-124333031D01*
X166926403Y-125240174D01*
X167228784Y-123970174D01*
X168377832Y-125240174D02*
X167652118Y-125240174D01*
X168014975Y-125240174D02*
X168014975Y-123970174D01*
X167894022Y-124151603D01*
X167773070Y-124272555D01*
X167652118Y-124333031D01*
%TO.C,J1*%
D13*
X143562879Y-129844984D02*
X144277165Y-129844984D01*
X144420022Y-129892603D01*
X144515260Y-129987841D01*
X144562879Y-130130698D01*
X144562879Y-130225936D01*
X144562879Y-128844984D02*
X144562879Y-129416412D01*
X144562879Y-129130698D02*
X143562879Y-129130698D01*
X143705737Y-129225936D01*
X143800975Y-129321174D01*
X143848594Y-129416412D01*
%TO.C,U7*%
X148342879Y-117807555D02*
X149152403Y-117807555D01*
X149247641Y-117759936D01*
X149295260Y-117712317D01*
X149342879Y-117617079D01*
X149342879Y-117426603D01*
X149295260Y-117331365D01*
X149247641Y-117283746D01*
X149152403Y-117236127D01*
X148342879Y-117236127D01*
X148342879Y-116855174D02*
X148342879Y-116188508D01*
X149342879Y-116617079D01*
%TO.C,F2*%
X117863165Y-124848222D02*
X117529832Y-124848222D01*
X117529832Y-125372031D02*
X117529832Y-124372031D01*
X118006022Y-124372031D01*
X118339356Y-124467270D02*
X118386975Y-124419651D01*
X118482213Y-124372031D01*
X118720308Y-124372031D01*
X118815546Y-124419651D01*
X118863165Y-124467270D01*
X118910784Y-124562508D01*
X118910784Y-124657746D01*
X118863165Y-124800603D01*
X118291737Y-125372031D01*
X118910784Y-125372031D01*
%TO.C,MES1*%
X152840402Y-136626031D02*
X152840402Y-135626031D01*
X153173736Y-136340317D01*
X153507069Y-135626031D01*
X153507069Y-136626031D01*
X153983259Y-136102222D02*
X154316593Y-136102222D01*
X154459450Y-136626031D02*
X153983259Y-136626031D01*
X153983259Y-135626031D01*
X154459450Y-135626031D01*
X154840402Y-136578412D02*
X154983259Y-136626031D01*
X155221355Y-136626031D01*
X155316593Y-136578412D01*
X155364212Y-136530793D01*
X155411831Y-136435555D01*
X155411831Y-136340317D01*
X155364212Y-136245079D01*
X155316593Y-136197460D01*
X155221355Y-136149841D01*
X155030878Y-136102222D01*
X154935640Y-136054603D01*
X154888021Y-136006984D01*
X154840402Y-135911746D01*
X154840402Y-135816508D01*
X154888021Y-135721270D01*
X154935640Y-135673651D01*
X155030878Y-135626031D01*
X155268974Y-135626031D01*
X155411831Y-135673651D01*
X156364212Y-136626031D02*
X155792783Y-136626031D01*
X156078498Y-136626031D02*
X156078498Y-135626031D01*
X155983259Y-135768889D01*
X155888021Y-135864127D01*
X155792783Y-135911746D01*
%TO.C,SW2*%
D14*
X111143165Y-129751698D02*
X111324594Y-129812174D01*
X111626975Y-129812174D01*
X111747927Y-129751698D01*
X111808403Y-129691222D01*
X111868879Y-129570270D01*
X111868879Y-129449317D01*
X111808403Y-129328365D01*
X111747927Y-129267889D01*
X111626975Y-129207412D01*
X111385070Y-129146936D01*
X111264118Y-129086460D01*
X111203641Y-129025984D01*
X111143165Y-128905031D01*
X111143165Y-128784079D01*
X111203641Y-128663127D01*
X111264118Y-128602651D01*
X111385070Y-128542174D01*
X111687451Y-128542174D01*
X111868879Y-128602651D01*
X112292213Y-128542174D02*
X112594594Y-129812174D01*
X112836499Y-128905031D01*
X113078403Y-129812174D01*
X113380784Y-128542174D01*
X113804118Y-128663127D02*
X113864594Y-128602651D01*
X113985546Y-128542174D01*
X114287927Y-128542174D01*
X114408879Y-128602651D01*
X114469356Y-128663127D01*
X114529832Y-128784079D01*
X114529832Y-128905031D01*
X114469356Y-129086460D01*
X113743641Y-129812174D01*
X114529832Y-129812174D01*
%TO.C,BT1*%
D13*
X160356784Y-117984222D02*
X160499641Y-118031841D01*
X160547260Y-118079460D01*
X160594879Y-118174698D01*
X160594879Y-118317555D01*
X160547260Y-118412793D01*
X160499641Y-118460412D01*
X160404403Y-118508031D01*
X160023451Y-118508031D01*
X160023451Y-117508031D01*
X160356784Y-117508031D01*
X160452022Y-117555651D01*
X160499641Y-117603270D01*
X160547260Y-117698508D01*
X160547260Y-117793746D01*
X160499641Y-117888984D01*
X160452022Y-117936603D01*
X160356784Y-117984222D01*
X160023451Y-117984222D01*
X160880594Y-117508031D02*
X161452022Y-117508031D01*
X161166308Y-118508031D02*
X161166308Y-117508031D01*
X162309165Y-118508031D02*
X161737737Y-118508031D01*
X162023451Y-118508031D02*
X162023451Y-117508031D01*
X161928213Y-117650889D01*
X161832975Y-117746127D01*
X161737737Y-117793746D01*
%TO.C,J11*%
X131926878Y-130281174D02*
X132641164Y-130281174D01*
X132784021Y-130328793D01*
X132879259Y-130424031D01*
X132926878Y-130566889D01*
X132926878Y-130662127D01*
X132926878Y-129281174D02*
X132926878Y-129852603D01*
X132926878Y-129566889D02*
X131926878Y-129566889D01*
X132069736Y-129662127D01*
X132164974Y-129757365D01*
X132212593Y-129852603D01*
X132926878Y-128328793D02*
X132926878Y-128900222D01*
X132926878Y-128614508D02*
X131926878Y-128614508D01*
X132069736Y-128709746D01*
X132164974Y-128804984D01*
X132212593Y-128900222D01*
%TO.C,BT2*%
X121018784Y-118610222D02*
X121161641Y-118657841D01*
X121209260Y-118705460D01*
X121256879Y-118800698D01*
X121256879Y-118943555D01*
X121209260Y-119038793D01*
X121161641Y-119086412D01*
X121066403Y-119134031D01*
X120685451Y-119134031D01*
X120685451Y-118134031D01*
X121018784Y-118134031D01*
X121114022Y-118181651D01*
X121161641Y-118229270D01*
X121209260Y-118324508D01*
X121209260Y-118419746D01*
X121161641Y-118514984D01*
X121114022Y-118562603D01*
X121018784Y-118610222D01*
X120685451Y-118610222D01*
X121542594Y-118134031D02*
X122114022Y-118134031D01*
X121828308Y-119134031D02*
X121828308Y-118134031D01*
X122399737Y-118229270D02*
X122447356Y-118181651D01*
X122542594Y-118134031D01*
X122780689Y-118134031D01*
X122875927Y-118181651D01*
X122923546Y-118229270D01*
X122971165Y-118324508D01*
X122971165Y-118419746D01*
X122923546Y-118562603D01*
X122352118Y-119134031D01*
X122971165Y-119134031D01*
%TO.C,J2*%
X151690879Y-129844984D02*
X152405165Y-129844984D01*
X152548022Y-129892603D01*
X152643260Y-129987841D01*
X152690879Y-130130698D01*
X152690879Y-130225936D01*
X151786118Y-129416412D02*
X151738499Y-129368793D01*
X151690879Y-129273555D01*
X151690879Y-129035460D01*
X151738499Y-128940222D01*
X151786118Y-128892603D01*
X151881356Y-128844984D01*
X151976594Y-128844984D01*
X152119451Y-128892603D01*
X152690879Y-129464031D01*
X152690879Y-128844984D01*
%TO.C,C1*%
X134981641Y-118502317D02*
X135029260Y-118549936D01*
X135076879Y-118692793D01*
X135076879Y-118788031D01*
X135029260Y-118930889D01*
X134934022Y-119026127D01*
X134838784Y-119073746D01*
X134648308Y-119121365D01*
X134505451Y-119121365D01*
X134314975Y-119073746D01*
X134219737Y-119026127D01*
X134124499Y-118930889D01*
X134076879Y-118788031D01*
X134076879Y-118692793D01*
X134124499Y-118549936D01*
X134172118Y-118502317D01*
X135076879Y-117549936D02*
X135076879Y-118121365D01*
X135076879Y-117835651D02*
X134076879Y-117835651D01*
X134219737Y-117930889D01*
X134314975Y-118026127D01*
X134362594Y-118121365D01*
%TO.C,F1*%
X155455165Y-117736222D02*
X155121832Y-117736222D01*
X155121832Y-118260031D02*
X155121832Y-117260031D01*
X155598022Y-117260031D01*
X156502784Y-118260031D02*
X155931356Y-118260031D01*
X156217070Y-118260031D02*
X156217070Y-117260031D01*
X156121832Y-117402889D01*
X156026594Y-117498127D01*
X155931356Y-117545746D01*
%TO.C,J1*%
X157241651Y-74357347D02*
X157241651Y-75071633D01*
X157194032Y-75214490D01*
X157098794Y-75309728D01*
X156955937Y-75357347D01*
X156860699Y-75357347D01*
X158241651Y-75357347D02*
X157670223Y-75357347D01*
X157955937Y-75357347D02*
X157955937Y-74357347D01*
X157860699Y-74500205D01*
X157765461Y-74595443D01*
X157670223Y-74643062D01*
%TO.C,J4*%
X179241651Y-62077347D02*
X179241651Y-62791633D01*
X179194032Y-62934490D01*
X179098794Y-63029728D01*
X178955937Y-63077347D01*
X178860699Y-63077347D01*
X180146413Y-62410681D02*
X180146413Y-63077347D01*
X179908318Y-62029728D02*
X179670223Y-62744014D01*
X180289270Y-62744014D01*
%TO.C,J6*%
X173857365Y-79908300D02*
X174571651Y-79908300D01*
X174714508Y-79955919D01*
X174809746Y-80051157D01*
X174857365Y-80194014D01*
X174857365Y-80289252D01*
X173857365Y-79003538D02*
X173857365Y-79194014D01*
X173904985Y-79289252D01*
X173952604Y-79336871D01*
X174095461Y-79432109D01*
X174285937Y-79479728D01*
X174666889Y-79479728D01*
X174762127Y-79432109D01*
X174809746Y-79384490D01*
X174857365Y-79289252D01*
X174857365Y-79098776D01*
X174809746Y-79003538D01*
X174762127Y-78955919D01*
X174666889Y-78908300D01*
X174428794Y-78908300D01*
X174333556Y-78955919D01*
X174285937Y-79003538D01*
X174238318Y-79098776D01*
X174238318Y-79289252D01*
X174285937Y-79384490D01*
X174333556Y-79432109D01*
X174428794Y-79479728D01*
%TO.C,J3*%
X162197365Y-57908300D02*
X162911651Y-57908300D01*
X163054508Y-57955919D01*
X163149746Y-58051157D01*
X163197365Y-58194014D01*
X163197365Y-58289252D01*
X162197365Y-57527347D02*
X162197365Y-56908300D01*
X162578318Y-57241633D01*
X162578318Y-57098776D01*
X162625937Y-57003538D01*
X162673556Y-56955919D01*
X162768794Y-56908300D01*
X163006889Y-56908300D01*
X163102127Y-56955919D01*
X163149746Y-57003538D01*
X163197365Y-57098776D01*
X163197365Y-57384490D01*
X163149746Y-57479728D01*
X163102127Y-57527347D01*
%TD*%
%LPC*%
D15*
%TO.C,REF\u002A\u002A*%
X186714985Y-78434968D03*
X186714985Y-75894968D03*
X186714985Y-73354968D03*
X186714985Y-70814968D03*
X186714985Y-68274968D03*
X186714985Y-65734968D03*
X186714985Y-63194968D03*
X186714985Y-60654968D03*
D16*
X186714985Y-58114968D03*
%TD*%
%TO.C,REF\u002A\u002A*%
X191794985Y-58114968D03*
D15*
X189254985Y-58114968D03*
X191794985Y-60654968D03*
X189254985Y-60654968D03*
X191794985Y-63194968D03*
X189254985Y-63194968D03*
X191794985Y-65734968D03*
X189254985Y-65734968D03*
X191794985Y-68274968D03*
X189254985Y-68274968D03*
X191794985Y-70814968D03*
X189254985Y-70814968D03*
X191794985Y-73354968D03*
X189254985Y-73354968D03*
X191794985Y-75894968D03*
X189254985Y-75894968D03*
X191794985Y-78434968D03*
X189254985Y-78434968D03*
%TD*%
D16*
%TO.C,REF\u002A\u002A*%
X196874985Y-58114968D03*
D15*
X194334985Y-58114968D03*
X196874985Y-60654968D03*
X194334985Y-60654968D03*
X196874985Y-63194968D03*
X194334985Y-63194968D03*
X196874985Y-65734968D03*
X194334985Y-65734968D03*
X196874985Y-68274968D03*
X194334985Y-68274968D03*
X196874985Y-70814968D03*
X194334985Y-70814968D03*
X196874985Y-73354968D03*
X194334985Y-73354968D03*
X196874985Y-75894968D03*
X194334985Y-75894968D03*
X196874985Y-78434968D03*
X194334985Y-78434968D03*
%TD*%
D16*
%TO.C,REF\u002A\u002A*%
X201954985Y-58114968D03*
D15*
X199414985Y-58114968D03*
X201954985Y-60654968D03*
X199414985Y-60654968D03*
X201954985Y-63194968D03*
X199414985Y-63194968D03*
X201954985Y-65734968D03*
X199414985Y-65734968D03*
X201954985Y-68274968D03*
X199414985Y-68274968D03*
X201954985Y-70814968D03*
X199414985Y-70814968D03*
X201954985Y-73354968D03*
X199414985Y-73354968D03*
X201954985Y-75894968D03*
X199414985Y-75894968D03*
X201954985Y-78434968D03*
X199414985Y-78434968D03*
%TD*%
%TO.C,REF\u002A\u002A*%
X204494985Y-78434968D03*
X207034985Y-78434968D03*
X204494985Y-75894968D03*
X207034985Y-75894968D03*
X204494985Y-73354968D03*
X207034985Y-73354968D03*
X204494985Y-70814968D03*
X207034985Y-70814968D03*
X204494985Y-68274968D03*
X207034985Y-68274968D03*
X204494985Y-65734968D03*
X207034985Y-65734968D03*
X204494985Y-63194968D03*
X207034985Y-63194968D03*
X204494985Y-60654968D03*
X207034985Y-60654968D03*
X204494985Y-58114968D03*
D16*
X207034985Y-58114968D03*
%TD*%
%TO.C,REF\u002A\u002A*%
X146769985Y-80904968D03*
%TD*%
%TO.C,REF\u002A\u002A*%
X141689985Y-75824968D03*
%TD*%
%TO.C,REF\u002A\u002A*%
X139149985Y-73284968D03*
D15*
X139149985Y-75824968D03*
%TD*%
D16*
%TO.C,REF\u002A\u002A*%
X136609985Y-73284968D03*
D15*
X136609985Y-75824968D03*
%TD*%
D16*
%TO.C,REF\u002A\u002A*%
X134069985Y-73284968D03*
D15*
X134069985Y-75824968D03*
%TD*%
D16*
%TO.C,REF\u002A\u002A*%
X144229985Y-78364968D03*
D15*
X144229985Y-80904968D03*
%TD*%
%TO.C,REF\u002A\u002A*%
X141689985Y-80904968D03*
D16*
X141689985Y-78364968D03*
%TD*%
D15*
%TO.C,REF\u002A\u002A*%
X154389985Y-101224968D03*
X154389985Y-98684968D03*
X154389985Y-96144968D03*
X154389985Y-93604968D03*
X154389985Y-91064968D03*
D16*
X154389985Y-88524968D03*
%TD*%
D15*
%TO.C,REF\u002A\u002A*%
X126449985Y-101224968D03*
X126449985Y-98684968D03*
X126449985Y-96144968D03*
X126449985Y-93604968D03*
X126449985Y-91064968D03*
D16*
X126449985Y-88524968D03*
%TD*%
D15*
%TO.C,REF\u002A\u002A*%
X139149985Y-80904968D03*
X139149985Y-78364968D03*
X136609985Y-80904968D03*
X136609985Y-78364968D03*
X134069985Y-80904968D03*
X134069985Y-78364968D03*
X131529985Y-80904968D03*
X131529985Y-78364968D03*
X128989985Y-80904968D03*
X128989985Y-78364968D03*
X126449985Y-80904968D03*
D16*
X126449985Y-78364968D03*
%TD*%
%TO.C,REF\u002A\u002A*%
X149309985Y-85984968D03*
D15*
X149309985Y-83444968D03*
X146769985Y-85984968D03*
X146769985Y-83444968D03*
X144229985Y-85984968D03*
X144229985Y-83444968D03*
X141689985Y-85984968D03*
X141689985Y-83444968D03*
X139149985Y-85984968D03*
X139149985Y-83444968D03*
X136609985Y-85984968D03*
X136609985Y-83444968D03*
X134069985Y-85984968D03*
X134069985Y-83444968D03*
X131529985Y-85984968D03*
X131529985Y-83444968D03*
X128989985Y-85984968D03*
X128989985Y-83444968D03*
X126449985Y-85984968D03*
X126449985Y-83444968D03*
%TD*%
D16*
%TO.C,REF\u002A\u002A*%
X128989985Y-88524968D03*
D15*
X128989985Y-91064968D03*
X131529985Y-88524968D03*
X131529985Y-91064968D03*
X134069985Y-88524968D03*
X134069985Y-91064968D03*
X136609985Y-88524968D03*
X136609985Y-91064968D03*
X139149985Y-88524968D03*
X139149985Y-91064968D03*
X141689985Y-88524968D03*
X141689985Y-91064968D03*
X144229985Y-88524968D03*
X144229985Y-91064968D03*
X146769985Y-88524968D03*
X146769985Y-91064968D03*
X149309985Y-88524968D03*
X149309985Y-91064968D03*
X151849985Y-88524968D03*
X151849985Y-91064968D03*
%TD*%
D16*
%TO.C,REF\u002A\u002A*%
X128989985Y-93604968D03*
D15*
X128989985Y-96144968D03*
X131529985Y-93604968D03*
X131529985Y-96144968D03*
X134069985Y-93604968D03*
X134069985Y-96144968D03*
X136609985Y-93604968D03*
X136609985Y-96144968D03*
X139149985Y-93604968D03*
X139149985Y-96144968D03*
X141689985Y-93604968D03*
X141689985Y-96144968D03*
X144229985Y-93604968D03*
X144229985Y-96144968D03*
X146769985Y-93604968D03*
X146769985Y-96144968D03*
X149309985Y-93604968D03*
X149309985Y-96144968D03*
X151849985Y-93604968D03*
X151849985Y-96144968D03*
%TD*%
D16*
%TO.C,REF\u002A\u002A*%
X128989985Y-98684968D03*
D15*
X128989985Y-101224968D03*
X131529985Y-98684968D03*
X131529985Y-101224968D03*
X134069985Y-98684968D03*
X134069985Y-101224968D03*
X136609985Y-98684968D03*
X136609985Y-101224968D03*
X139149985Y-98684968D03*
X139149985Y-101224968D03*
X141689985Y-98684968D03*
X141689985Y-101224968D03*
X144229985Y-98684968D03*
X144229985Y-101224968D03*
X146769985Y-98684968D03*
X146769985Y-101224968D03*
X149309985Y-98684968D03*
X149309985Y-101224968D03*
X151849985Y-98684968D03*
X151849985Y-101224968D03*
%TD*%
%TO.C,REF\u002A\u002A*%
X151849985Y-106304968D03*
X151849985Y-103764968D03*
X149309985Y-106304968D03*
X149309985Y-103764968D03*
X146769985Y-106304968D03*
X146769985Y-103764968D03*
X144229985Y-106304968D03*
X144229985Y-103764968D03*
X141689985Y-106304968D03*
X141689985Y-103764968D03*
X139149985Y-106304968D03*
X139149985Y-103764968D03*
X136609985Y-106304968D03*
X136609985Y-103764968D03*
X134069985Y-106304968D03*
X134069985Y-103764968D03*
X131529985Y-106304968D03*
X131529985Y-103764968D03*
X128989985Y-106304968D03*
D16*
X128989985Y-103764968D03*
%TD*%
D15*
%TO.C,REF\u002A\u002A*%
X119464985Y-60584968D03*
X116924985Y-60584968D03*
X119464985Y-63124968D03*
X116924985Y-63124968D03*
X119464985Y-65664968D03*
X116924985Y-65664968D03*
X119464985Y-68204968D03*
X116924985Y-68204968D03*
X119464985Y-70744968D03*
X116924985Y-70744968D03*
X119464985Y-73284968D03*
X116924985Y-73284968D03*
X119464985Y-75824968D03*
X116924985Y-75824968D03*
X119464985Y-78364968D03*
X116924985Y-78364968D03*
X119464985Y-80904968D03*
X116924985Y-80904968D03*
X119464985Y-83444968D03*
X116924985Y-83444968D03*
X119464985Y-85984968D03*
X116924985Y-85984968D03*
X119464985Y-88524968D03*
X116924985Y-88524968D03*
X119464985Y-91064968D03*
X116924985Y-91064968D03*
X119464985Y-93604968D03*
X116924985Y-93604968D03*
X119464985Y-96144968D03*
X116924985Y-96144968D03*
X119464985Y-98684968D03*
X116924985Y-98684968D03*
X119464985Y-101224968D03*
X116924985Y-101224968D03*
X119464985Y-103764968D03*
X116924985Y-103764968D03*
X119464985Y-106304968D03*
D16*
X116924985Y-106304968D03*
%TD*%
D15*
%TO.C,REF\u002A\u002A*%
X114384985Y-60584968D03*
X111844985Y-60584968D03*
X114384985Y-63124968D03*
X111844985Y-63124968D03*
X114384985Y-65664968D03*
X111844985Y-65664968D03*
X114384985Y-68204968D03*
X111844985Y-68204968D03*
X114384985Y-70744968D03*
X111844985Y-70744968D03*
X114384985Y-73284968D03*
X111844985Y-73284968D03*
X114384985Y-75824968D03*
X111844985Y-75824968D03*
X114384985Y-78364968D03*
X111844985Y-78364968D03*
X114384985Y-80904968D03*
X111844985Y-80904968D03*
X114384985Y-83444968D03*
X111844985Y-83444968D03*
X114384985Y-85984968D03*
X111844985Y-85984968D03*
X114384985Y-88524968D03*
X111844985Y-88524968D03*
X114384985Y-91064968D03*
X111844985Y-91064968D03*
X114384985Y-93604968D03*
X111844985Y-93604968D03*
X114384985Y-96144968D03*
X111844985Y-96144968D03*
X114384985Y-98684968D03*
X111844985Y-98684968D03*
X114384985Y-101224968D03*
X111844985Y-101224968D03*
X114384985Y-103764968D03*
X111844985Y-103764968D03*
X114384985Y-106304968D03*
D16*
X111844985Y-106304968D03*
%TD*%
D17*
%TO.C,C1*%
X179784986Y-130489664D03*
X177284986Y-130489664D03*
%TD*%
D18*
%TO.C,D1*%
X175094986Y-124494664D03*
D19*
X175094986Y-127034664D03*
%TD*%
D20*
%TO.C,U4*%
X179324986Y-91179664D03*
X181864986Y-91179664D03*
X181864986Y-86099664D03*
X179324986Y-86099664D03*
%TD*%
%TO.C,U2*%
X179324986Y-115179664D03*
X181864986Y-115179664D03*
X181864986Y-110099664D03*
X179324986Y-110099664D03*
%TD*%
%TO.C,U3*%
X179324986Y-103179664D03*
X181864986Y-103179664D03*
X181864986Y-98099664D03*
X179324986Y-98099664D03*
%TD*%
D18*
%TO.C,D2*%
X175094986Y-111429664D03*
D19*
X175094986Y-113969664D03*
%TD*%
D20*
%TO.C,U1*%
X179324986Y-128179664D03*
X181864986Y-128179664D03*
X181864986Y-123099664D03*
X179324986Y-123099664D03*
%TD*%
D18*
%TO.C,D4*%
X175094986Y-87569664D03*
D19*
X175094986Y-90109664D03*
%TD*%
D18*
%TO.C,D3*%
X175094986Y-99364664D03*
D19*
X175094986Y-101904664D03*
%TD*%
D16*
%TO.C,J1*%
X182324986Y-133164664D03*
D15*
X179784986Y-133164664D03*
X177244986Y-133164664D03*
X174704986Y-133164664D03*
%TD*%
D17*
%TO.C,C1*%
X190364985Y-114249968D03*
X192864985Y-114249968D03*
%TD*%
D18*
%TO.C,D1*%
X195054985Y-120244968D03*
D19*
X195054985Y-117704968D03*
%TD*%
D20*
%TO.C,U2*%
X190824985Y-128559968D03*
X188284985Y-128559968D03*
X188284985Y-133639968D03*
X190824985Y-133639968D03*
%TD*%
%TO.C,U3*%
X190824985Y-141559968D03*
X188284985Y-141559968D03*
X188284985Y-146639968D03*
X190824985Y-146639968D03*
%TD*%
D18*
%TO.C,D2*%
X195054985Y-132309968D03*
D19*
X195054985Y-129769968D03*
%TD*%
D20*
%TO.C,U1*%
X190824985Y-116559968D03*
X188284985Y-116559968D03*
X188284985Y-121639968D03*
X190824985Y-121639968D03*
%TD*%
D18*
%TO.C,D3*%
X195054985Y-145374968D03*
D19*
X195054985Y-142834968D03*
%TD*%
D16*
%TO.C,J1*%
X187824985Y-111574968D03*
D15*
X190364985Y-111574968D03*
X192904985Y-111574968D03*
X195444985Y-111574968D03*
%TD*%
D20*
%TO.C,U1*%
X203807493Y-103827484D03*
X201267493Y-103827484D03*
X201267493Y-98747484D03*
X203807493Y-98747484D03*
%TD*%
%TO.C,U2*%
X203807493Y-117827484D03*
X201267493Y-117827484D03*
X201267493Y-112747484D03*
X203807493Y-112747484D03*
%TD*%
%TO.C,U3*%
X203807493Y-131827484D03*
X201267493Y-131827484D03*
X201267493Y-126747484D03*
X203807493Y-126747484D03*
%TD*%
%TO.C,U4*%
X203807493Y-145827484D03*
X201267493Y-145827484D03*
X201267493Y-140747484D03*
X203807493Y-140747484D03*
%TD*%
D15*
%TO.C,J1*%
X208427493Y-93762484D03*
X205887493Y-93762484D03*
X203347493Y-93762484D03*
D16*
X200807493Y-93762484D03*
%TD*%
D19*
%TO.C,D4*%
X208037493Y-141817484D03*
D18*
X208037493Y-144357484D03*
%TD*%
D19*
%TO.C,D3*%
X208037493Y-128022484D03*
D18*
X208037493Y-130562484D03*
%TD*%
D19*
%TO.C,D2*%
X208037493Y-113957484D03*
D18*
X208037493Y-116497484D03*
%TD*%
D19*
%TO.C,D1*%
X208037493Y-99892484D03*
D18*
X208037493Y-102432484D03*
%TD*%
D17*
%TO.C,C1*%
X205847493Y-96437484D03*
X203347493Y-96437484D03*
%TD*%
%TO.C,C2*%
X149692499Y-117045651D03*
X149692499Y-114545651D03*
%TD*%
%TO.C,J8*%
G36*
G01*
X120554498Y-127411651D02*
X122054498Y-127411651D01*
G75*
G02*
X122304498Y-127661651I0J-250000D01*
G01*
X122304498Y-128861651D01*
G75*
G02*
X122054498Y-129111651I-250000J0D01*
G01*
X120554498Y-129111651D01*
G75*
G02*
X120304498Y-128861651I0J250000D01*
G01*
X120304498Y-127661651D01*
G75*
G02*
X120554498Y-127411651I250000J0D01*
G01*
G37*
D21*
X121304498Y-130761651D03*
%TD*%
D22*
%TO.C,SW1*%
X166964499Y-127205651D03*
X166964499Y-124665651D03*
X166964499Y-122125651D03*
%TD*%
%TO.C,J1*%
G36*
G01*
X148410499Y-131611651D02*
X146910499Y-131611651D01*
G75*
G02*
X146660499Y-131361651I0J250000D01*
G01*
X146660499Y-130161651D01*
G75*
G02*
X146910499Y-129911651I250000J0D01*
G01*
X148410499Y-129911651D01*
G75*
G02*
X148660499Y-130161651I0J-250000D01*
G01*
X148660499Y-131361651D01*
G75*
G02*
X148410499Y-131611651I-250000J0D01*
G01*
G37*
D21*
X147660499Y-128261651D03*
%TD*%
D23*
%TO.C,U7*%
X145120499Y-114505651D03*
D24*
X145120499Y-117045651D03*
X145120499Y-119585651D03*
%TD*%
D25*
%TO.C,F2*%
X124046499Y-121109651D03*
X120346499Y-121109651D03*
X116046499Y-121109651D03*
X112346499Y-121109651D03*
%TD*%
D22*
%TO.C,SW2*%
X113116499Y-131777651D03*
X113116499Y-129237651D03*
X113116499Y-126697651D03*
%TD*%
%TO.C,BT1*%
G36*
G01*
X163242499Y-113755651D02*
X163242499Y-115255651D01*
G75*
G02*
X162992499Y-115505651I-250000J0D01*
G01*
X161792499Y-115505651D01*
G75*
G02*
X161542499Y-115255651I0J250000D01*
G01*
X161542499Y-113755651D01*
G75*
G02*
X161792499Y-113505651I250000J0D01*
G01*
X162992499Y-113505651D01*
G75*
G02*
X163242499Y-113755651I0J-250000D01*
G01*
G37*
D26*
X159892499Y-114505651D03*
%TD*%
%TO.C,J11*%
G36*
G01*
X128174498Y-127371651D02*
X129674498Y-127371651D01*
G75*
G02*
X129924498Y-127621651I0J-250000D01*
G01*
X129924498Y-128821651D01*
G75*
G02*
X129674498Y-129071651I-250000J0D01*
G01*
X128174498Y-129071651D01*
G75*
G02*
X127924498Y-128821651I0J250000D01*
G01*
X127924498Y-127621651D01*
G75*
G02*
X128174498Y-127371651I250000J0D01*
G01*
G37*
D21*
X128924498Y-130721651D03*
%TD*%
%TO.C,BT2*%
G36*
G01*
X125134499Y-111881652D02*
X125134499Y-114081650D01*
G75*
G02*
X124884498Y-114331651I-250001J0D01*
G01*
X122684500Y-114331651D01*
G75*
G02*
X122434499Y-114081650I0J250001D01*
G01*
X122434499Y-111881652D01*
G75*
G02*
X122684500Y-111631651I250001J0D01*
G01*
X124884498Y-111631651D01*
G75*
G02*
X125134499Y-111881652I0J-250001D01*
G01*
G37*
D27*
X119824499Y-112981651D03*
%TD*%
%TO.C,J2*%
G36*
G01*
X156538499Y-131611651D02*
X155038499Y-131611651D01*
G75*
G02*
X154788499Y-131361651I0J250000D01*
G01*
X154788499Y-130161651D01*
G75*
G02*
X155038499Y-129911651I250000J0D01*
G01*
X156538499Y-129911651D01*
G75*
G02*
X156788499Y-130161651I0J-250000D01*
G01*
X156788499Y-131361651D01*
G75*
G02*
X156538499Y-131611651I-250000J0D01*
G01*
G37*
D21*
X155788499Y-128261651D03*
%TD*%
D17*
%TO.C,C1*%
X139024499Y-119585651D03*
X139024499Y-117085651D03*
%TD*%
D25*
%TO.C,F1*%
X149938499Y-121617651D03*
X153638499Y-121617651D03*
X157938499Y-121617651D03*
X161638499Y-121617651D03*
%TD*%
D16*
%TO.C,J1*%
X157574985Y-72574967D03*
D15*
X157574985Y-70034967D03*
X157574985Y-67494967D03*
X157574985Y-64954967D03*
%TD*%
D16*
%TO.C,J4*%
X179574985Y-64954967D03*
D15*
X179574985Y-67494967D03*
X179574985Y-70034967D03*
X179574985Y-72574967D03*
%TD*%
%TO.C,J5*%
G36*
G01*
X162724985Y-72799967D02*
X162724985Y-71349967D01*
G75*
G02*
X162974985Y-71099967I250000J0D01*
G01*
X164174985Y-71099967D01*
G75*
G02*
X164424985Y-71349967I0J-250000D01*
G01*
X164424985Y-72799967D01*
G75*
G02*
X164174985Y-73049967I-250000J0D01*
G01*
X162974985Y-73049967D01*
G75*
G02*
X162724985Y-72799967I0J250000D01*
G01*
G37*
D28*
X166074985Y-72074967D03*
X168574985Y-72074967D03*
X171074985Y-72074967D03*
X173574985Y-72074967D03*
%TD*%
D16*
%TO.C,J6*%
X172074985Y-79574967D03*
D15*
X169534985Y-79574967D03*
X166994985Y-79574967D03*
X164454985Y-79574967D03*
%TD*%
%TO.C,J2*%
G36*
G01*
X161224985Y-64799967D02*
X161224985Y-63349967D01*
G75*
G02*
X161474985Y-63099967I250000J0D01*
G01*
X162674985Y-63099967D01*
G75*
G02*
X162924985Y-63349967I0J-250000D01*
G01*
X162924985Y-64799967D01*
G75*
G02*
X162674985Y-65049967I-250000J0D01*
G01*
X161474985Y-65049967D01*
G75*
G02*
X161224985Y-64799967I0J250000D01*
G01*
G37*
D28*
X164574985Y-64074967D03*
X167074985Y-64074967D03*
X169574985Y-64074967D03*
X172074985Y-64074967D03*
X174574985Y-64074967D03*
%TD*%
D16*
%TO.C,J3*%
X165074985Y-57574967D03*
D15*
X167614985Y-57574967D03*
X170154985Y-57574967D03*
X172694985Y-57574967D03*
%TD*%
M02*
