M48
; DRILL file {KiCad (5.1.10)-1} date 11/09/21 22:34:08
; FORMAT={-:-/ absolute / metric / decimal}
; #@! TF.CreationDate,2021-11-09T22:34:08+09:00
; #@! TF.GenerationSoftware,Kicad,Pcbnew,(5.1.10)-1
; #@! TF.FileFunction,Plated,1,2,PTH
FMAT,2
METRIC
T1C0.400
T2C0.700
T3C0.800
T4C0.900
T5C0.950
T6C1.000
T7C1.090
T8C1.100
T9C3.000
%
G90
G05
T1
X98.698Y-97.624
X105.898Y-132.158
X117.666Y-140.347
X121.609Y-102.886
X121.823Y-104.775
X122.882Y-119.66
X125.868Y-109.432
X125.87Y-129.677
X126.04Y-127.921
X143.682Y-121.537
X143.698Y-77.125
X148.111Y-107.92
X166.448Y-126.155
X175.003Y-121.238
X182.411Y-108.741
T2
X94.484Y-112.141
X94.484Y-117.221
X101.85Y-75.819
X106.93Y-75.819
X119.503Y-70.104
X119.503Y-75.184
X121.154Y-118.11
X126.234Y-118.11
X144.014Y-69.215
X144.014Y-74.295
X175.129Y-132.08
X180.209Y-132.08
T3
X97.024Y-88.9
X98.04Y-114.681
X98.04Y-117.181
X99.524Y-88.9
X106.68Y-134.62
X106.68Y-137.12
X113.447Y-70.104
X115.947Y-70.104
X170.089Y-90.805
X171.45Y-104.815
X171.45Y-107.315
X172.589Y-90.805
X176.399Y-127.635
X178.899Y-127.635
X187.234Y-74.295
X189.734Y-74.295
T4
X95.25Y-106.68
X97.79Y-106.68
T5
X128.894Y-64.135
X131.394Y-64.135
X133.419Y-131.445
X133.894Y-64.135
X135.919Y-131.445
X136.394Y-64.135
X138.419Y-131.445
X138.419Y-138.43
X140.919Y-131.445
X140.919Y-138.43
X143.419Y-131.445
X143.419Y-138.43
X145.919Y-131.445
X145.919Y-138.43
X157.984Y-61.341
X157.984Y-69.215
X157.984Y-71.715
X157.984Y-74.215
X157.984Y-76.715
X160.484Y-61.341
X162.984Y-61.341
X165.484Y-61.341
X168.144Y-69.215
X168.144Y-71.715
X168.144Y-74.215
X168.144Y-76.715
T6
X97.024Y-85.725
X97.024Y-100.965
X99.564Y-85.725
X99.564Y-100.965
X101.636Y-61.341
X102.104Y-85.725
X102.104Y-100.965
X103.374Y-104.14
X103.374Y-106.68
X103.374Y-109.22
X103.374Y-111.76
X103.374Y-114.3
X103.374Y-116.84
X103.374Y-119.38
X103.374Y-121.92
X103.374Y-124.46
X103.374Y-127.0
X103.374Y-129.54
X103.374Y-132.08
X103.374Y-134.62
X103.374Y-137.16
X104.136Y-61.341
X104.644Y-85.725
X104.644Y-100.965
X107.184Y-85.725
X107.184Y-100.965
X109.724Y-85.725
X109.724Y-100.965
X112.264Y-85.725
X112.264Y-100.965
X118.614Y-82.55
X118.614Y-85.09
X118.614Y-87.63
X118.614Y-90.17
X118.614Y-92.71
X118.614Y-95.25
X118.614Y-97.79
X118.614Y-100.33
X118.614Y-104.14
X118.614Y-106.68
X118.614Y-109.22
X118.614Y-111.76
X118.614Y-114.3
X118.614Y-116.84
X118.614Y-119.38
X118.614Y-121.92
X118.614Y-124.46
X118.614Y-127.0
X118.614Y-129.54
X118.614Y-132.08
X118.614Y-134.62
X118.614Y-137.16
X127.635Y-104.775
X127.635Y-112.375
X144.054Y-64.135
X146.554Y-64.135
X152.4Y-125.73
X152.4Y-128.27
X152.4Y-130.81
X152.4Y-133.35
X152.4Y-135.89
X159.763Y-82.291
X159.763Y-114.549
X162.303Y-82.291
X162.303Y-114.549
X164.843Y-82.291
X164.843Y-114.549
X167.383Y-82.291
X167.383Y-114.549
X169.923Y-82.291
X169.923Y-114.549
X172.463Y-82.291
X172.463Y-114.549
X174.494Y-61.595
X174.494Y-76.835
X175.003Y-82.291
X175.003Y-114.549
X177.034Y-61.595
X177.034Y-76.835
X177.543Y-82.291
X177.543Y-114.549
X179.574Y-61.595
X179.574Y-76.835
X182.114Y-61.595
X182.114Y-76.835
X184.654Y-61.595
X184.654Y-76.835
X187.194Y-61.595
X187.194Y-76.835
X189.734Y-61.595
X189.734Y-76.835
T7
X96.516Y-123.571
X96.516Y-126.111
X96.516Y-128.651
X124.46Y-131.445
X124.46Y-133.985
X124.46Y-136.525
X186.055Y-102.87
X186.055Y-105.41
X186.055Y-107.95
T8
X94.556Y-72.517
X94.556Y-79.017
X99.056Y-72.517
X99.056Y-79.017
X110.867Y-59.055
X110.867Y-64.135
X113.967Y-59.345
X113.967Y-63.845
X120.467Y-59.345
X120.467Y-63.845
X123.567Y-59.055
X123.567Y-64.135
X132.584Y-118.11
X132.584Y-125.73
X135.759Y-118.11
X135.759Y-125.73
X138.934Y-118.11
X138.934Y-125.73
X142.24Y-118.11
X142.24Y-125.73
X184.0Y-127.58
X184.0Y-132.08
X190.5Y-127.58
X190.5Y-132.08
T9
X131.354Y-83.78
X131.354Y-99.1
X138.046Y-83.942
X138.046Y-112.898
X181.86Y-122.81
X181.86Y-138.81
T0
M30
