%FSLAX45Y45*%
G04 Gerber Fmt 4.5, Leading zero omitted, Abs format (unit mm)*
G04 Created by KiCad (PCBNEW (5.1.10)-1) date 2021-11-09 22:35:24*
%MOMM*%
%LPD*%
G01*
G04 APERTURE LIST*
%TA.AperFunction,Profile*%
%ADD10C,0.200000*%
%TD*%
%ADD11C,0.200000*%
%ADD12C,0.300000*%
G04 APERTURE END LIST*
D10*
X18844400Y-6705440D02*
G75*
G03*
X18844400Y-6705440I-150000J0D01*
G01*
X9694400Y-14205440D02*
G75*
G02*
X9194400Y-13705440I0J500000D01*
G01*
X19194400Y-6096000D02*
X19194400Y-13705440D01*
X18694400Y-14205440D02*
X9694400Y-14205440D01*
X19194400Y-13705440D02*
G75*
G02*
X18694400Y-14205440I-500000J0D01*
G01*
X18844400Y-13705440D02*
G75*
G03*
X18844400Y-13705440I-150000J0D01*
G01*
X9694400Y-5596000D02*
X18694400Y-5596000D01*
X9194400Y-13705440D02*
X9194400Y-6096000D01*
X9194400Y-6096000D02*
G75*
G02*
X9694400Y-5596000I500000J0D01*
G01*
X9844400Y-6705440D02*
G75*
G03*
X9844400Y-6705440I-150000J0D01*
G01*
X9844400Y-13705440D02*
G75*
G03*
X9844400Y-13705440I-150000J0D01*
G01*
X18694400Y-5596000D02*
G75*
G02*
X19194400Y-6096000I0J-500000D01*
G01*
D11*
D12*
X9470829Y-14681154D02*
X9470829Y-14381154D01*
X9542257Y-14381154D01*
X9585114Y-14395440D01*
X9613686Y-14424012D01*
X9627971Y-14452583D01*
X9642257Y-14509726D01*
X9642257Y-14552583D01*
X9627971Y-14609726D01*
X9613686Y-14638297D01*
X9585114Y-14666869D01*
X9542257Y-14681154D01*
X9470829Y-14681154D01*
X9770829Y-14681154D02*
X9770829Y-14481154D01*
X9770829Y-14538297D02*
X9785114Y-14509726D01*
X9799400Y-14495440D01*
X9827971Y-14481154D01*
X9856543Y-14481154D01*
X9956543Y-14681154D02*
X9956543Y-14481154D01*
X9956543Y-14381154D02*
X9942257Y-14395440D01*
X9956543Y-14409726D01*
X9970829Y-14395440D01*
X9956543Y-14381154D01*
X9956543Y-14409726D01*
X10142257Y-14681154D02*
X10113686Y-14666869D01*
X10099400Y-14638297D01*
X10099400Y-14381154D01*
X10299400Y-14681154D02*
X10270829Y-14666869D01*
X10256543Y-14638297D01*
X10256543Y-14381154D01*
X10642257Y-14681154D02*
X10642257Y-14381154D01*
X10742257Y-14595440D01*
X10842257Y-14381154D01*
X10842257Y-14681154D01*
X11113686Y-14681154D02*
X11113686Y-14524012D01*
X11099400Y-14495440D01*
X11070829Y-14481154D01*
X11013686Y-14481154D01*
X10985114Y-14495440D01*
X11113686Y-14666869D02*
X11085114Y-14681154D01*
X11013686Y-14681154D01*
X10985114Y-14666869D01*
X10970829Y-14638297D01*
X10970829Y-14609726D01*
X10985114Y-14581154D01*
X11013686Y-14566869D01*
X11085114Y-14566869D01*
X11113686Y-14552583D01*
X11256543Y-14481154D02*
X11256543Y-14781154D01*
X11256543Y-14495440D02*
X11285114Y-14481154D01*
X11342257Y-14481154D01*
X11370828Y-14495440D01*
X11385114Y-14509726D01*
X11399400Y-14538297D01*
X11399400Y-14624012D01*
X11385114Y-14652583D01*
X11370828Y-14666869D01*
X11342257Y-14681154D01*
X11285114Y-14681154D01*
X11256543Y-14666869D01*
X11527971Y-14652583D02*
X11542257Y-14666869D01*
X11527971Y-14681154D01*
X11513686Y-14666869D01*
X11527971Y-14652583D01*
X11527971Y-14681154D01*
X11527971Y-14495440D02*
X11542257Y-14509726D01*
X11527971Y-14524012D01*
X11513686Y-14509726D01*
X11527971Y-14495440D01*
X11527971Y-14524012D01*
M02*
