G04 #@! TF.GenerationSoftware,KiCad,Pcbnew,(6.0.2)*
G04 #@! TF.CreationDate,2022-03-28T07:24:52+09:00*
G04 #@! TF.ProjectId,Main_Board,4d61696e-5f42-46f6-9172-642e6b696361,rev?*
G04 #@! TF.SameCoordinates,Original*
G04 #@! TF.FileFunction,Legend,Bot*
G04 #@! TF.FilePolarity,Positive*
%FSLAX46Y46*%
G04 Gerber Fmt 4.6, Leading zero omitted, Abs format (unit mm)*
G04 Created by KiCad (PCBNEW (6.0.2)) date 2022-03-28 07:24:52*
%MOMM*%
%LPD*%
G01*
G04 APERTURE LIST*
G04 Aperture macros list*
%AMRoundRect*
0 Rectangle with rounded corners*
0 $1 Rounding radius*
0 $2 $3 $4 $5 $6 $7 $8 $9 X,Y pos of 4 corners*
0 Add a 4 corners polygon primitive as box body*
4,1,4,$2,$3,$4,$5,$6,$7,$8,$9,$2,$3,0*
0 Add four circle primitives for the rounded corners*
1,1,$1+$1,$2,$3*
1,1,$1+$1,$4,$5*
1,1,$1+$1,$6,$7*
1,1,$1+$1,$8,$9*
0 Add four rect primitives between the rounded corners*
20,1,$1+$1,$2,$3,$4,$5,0*
20,1,$1+$1,$4,$5,$6,$7,0*
20,1,$1+$1,$6,$7,$8,$9,0*
20,1,$1+$1,$8,$9,$2,$3,0*%
G04 Aperture macros list end*
G04 #@! TA.AperFunction,Profile*
%ADD10C,0.200000*%
G04 #@! TD*
G04 #@! TA.AperFunction,Profile*
%ADD11C,0.120000*%
G04 #@! TD*
%ADD12C,1.600000*%
%ADD13R,2.200000X2.200000*%
%ADD14O,2.200000X2.200000*%
%ADD15C,1.400000*%
%ADD16O,1.400000X1.400000*%
%ADD17C,1.700000*%
%ADD18C,3.000000*%
%ADD19O,1.700000X2.500000*%
%ADD20RoundRect,0.250000X-0.725000X0.600000X-0.725000X-0.600000X0.725000X-0.600000X0.725000X0.600000X0*%
%ADD21O,1.950000X1.700000*%
%ADD22RoundRect,0.250000X-0.600000X-0.725000X0.600000X-0.725000X0.600000X0.725000X-0.600000X0.725000X0*%
%ADD23O,1.700000X1.950000*%
%ADD24C,1.635000*%
%ADD25R,2.000000X2.000000*%
%ADD26C,2.000000*%
%ADD27R,1.700000X1.700000*%
%ADD28O,1.700000X1.700000*%
%ADD29RoundRect,0.250000X-0.750000X0.600000X-0.750000X-0.600000X0.750000X-0.600000X0.750000X0.600000X0*%
%ADD30O,2.000000X1.700000*%
%ADD31RoundRect,0.250000X0.725000X-0.600000X0.725000X0.600000X-0.725000X0.600000X-0.725000X-0.600000X0*%
%ADD32O,1.400000X1.300000*%
%ADD33R,1.400000X1.300000*%
%ADD34O,1.300000X1.400000*%
%ADD35R,1.300000X1.300000*%
%ADD36R,1.800000X1.800000*%
%ADD37C,1.800000*%
%ADD38C,1.200000*%
%ADD39C,2.950000*%
%ADD40C,3.090000*%
%ADD41C,1.524000*%
%ADD42RoundRect,0.250000X-0.600000X-0.750000X0.600000X-0.750000X0.600000X0.750000X-0.600000X0.750000X0*%
%ADD43O,1.700000X2.000000*%
G04 APERTURE END LIST*
D10*
X135782005Y-91484651D02*
G75*
G03*
X135782005Y-91484651I-1500000J0D01*
G01*
X216282005Y-45992010D02*
G75*
G03*
X216282005Y-45992010I-1000000J0D01*
G01*
X208782005Y-149242010D02*
G75*
G03*
X211782005Y-146242010I-1J3000001D01*
G01*
X237282005Y-64242010D02*
G75*
G03*
X237282005Y-64242010I-1500000J0D01*
G01*
X226660685Y-43620690D02*
X249903325Y-66863330D01*
X157024646Y-42742010D02*
G75*
G03*
X154903325Y-43620690I-3J-2999994D01*
G01*
X160782005Y-56242010D02*
G75*
G03*
X163782005Y-59242010I3000001J1D01*
G01*
X160782005Y-52242010D02*
X160782005Y-56242010D01*
X250782005Y-68984651D02*
G75*
G03*
X249903325Y-66863330I-2999994J3D01*
G01*
X211782005Y-142242010D02*
G75*
G03*
X208782005Y-139242010I-3000001J-1D01*
G01*
X163782005Y-59242010D02*
X217782005Y-59242010D01*
X217782005Y-142242010D02*
G75*
G03*
X217782005Y-142242010I-1500000J0D01*
G01*
X157024646Y-42742010D02*
X224539364Y-42742010D01*
X220782005Y-56242010D02*
X220782005Y-52242010D01*
X147282005Y-64242010D02*
G75*
G03*
X147282005Y-64242010I-1500000J0D01*
G01*
X131660685Y-66863330D02*
X154903325Y-43620690D01*
X131407005Y-130063505D02*
G75*
G03*
X167829319Y-155643510I59375005J45821502D01*
G01*
X250782005Y-68984651D02*
X250782005Y-128230645D01*
X130782005Y-128230645D02*
G75*
G03*
X131407005Y-130063505I3000003J1D01*
G01*
X220782005Y-52242010D02*
G75*
G03*
X217782005Y-49242010I-3000001J-1D01*
G01*
X169782005Y-146242010D02*
G75*
G03*
X172782005Y-149242010I3000001J1D01*
G01*
X172782005Y-139242010D02*
G75*
G03*
X169782005Y-142242010I1J-3000001D01*
G01*
X212816583Y-155787450D02*
X168747427Y-155787450D01*
X211782005Y-142242010D02*
X211782005Y-146242010D01*
X172782005Y-139242010D02*
X208782005Y-139242010D01*
X217782005Y-59242010D02*
G75*
G03*
X220782005Y-56242010I-1J3000001D01*
G01*
X131660685Y-66863330D02*
G75*
G03*
X130782005Y-68984651I2121314J-2121318D01*
G01*
X212816583Y-155787450D02*
G75*
G03*
X213734691Y-155643510I5J2999973D01*
G01*
X213734691Y-155643510D02*
G75*
G03*
X250157005Y-130063505I-22952691J71401507D01*
G01*
X130782005Y-128230645D02*
X130782005Y-68984651D01*
X237282005Y-134242010D02*
G75*
G03*
X237282005Y-134242010I-1500000J0D01*
G01*
X163782005Y-49242010D02*
G75*
G03*
X160782005Y-52242010I1J-3000001D01*
G01*
X226660685Y-43620690D02*
G75*
G03*
X224539364Y-42742010I-2121318J-2121314D01*
G01*
X226039364Y-45742010D02*
G75*
G03*
X226039364Y-45742010I-1500000J0D01*
G01*
X167282005Y-45992010D02*
G75*
G03*
X167282005Y-45992010I-1000000J0D01*
G01*
X158524646Y-45742010D02*
G75*
G03*
X158524646Y-45742010I-1500000J0D01*
G01*
X167829319Y-155643510D02*
G75*
G03*
X168747427Y-155787450I918101J2856020D01*
G01*
X216282005Y-152492010D02*
G75*
G03*
X216282005Y-152492010I-1000000J0D01*
G01*
X250157005Y-130063505D02*
G75*
G03*
X250782005Y-128230645I-2375003J1832861D01*
G01*
X248782005Y-91484651D02*
G75*
G03*
X248782005Y-91484651I-1500000J0D01*
G01*
X167282005Y-152492010D02*
G75*
G03*
X167282005Y-152492010I-1000000J0D01*
G01*
X217782005Y-49242010D02*
X163782005Y-49242010D01*
X208782005Y-149242010D02*
X172782005Y-149242010D01*
X166782005Y-142242010D02*
G75*
G03*
X166782005Y-142242010I-1500000J0D01*
G01*
X147282005Y-134242010D02*
G75*
G03*
X147282005Y-134242010I-1500000J0D01*
G01*
X169782005Y-146242010D02*
X169782005Y-142242010D01*
D11*
X235587000Y-110689700D02*
G75*
G03*
X235587000Y-110689700I-1500000J0D01*
G01*
X235587000Y-128689700D02*
G75*
G03*
X235587000Y-128689700I-1500000J0D01*
G01*
%LPC*%
D12*
X158782000Y-133984700D03*
X158782000Y-131484700D03*
X220627000Y-62654700D03*
X220627000Y-65154700D03*
D13*
X180317000Y-117181000D03*
D14*
X180317000Y-124801000D03*
D15*
X213627000Y-125139700D03*
D16*
X218707000Y-125139700D03*
D12*
X201122000Y-84001000D03*
X198622000Y-84001000D03*
D17*
X157127000Y-89247000D03*
X159667000Y-89247000D03*
X162207000Y-89247000D03*
X164747000Y-89247000D03*
X167287000Y-89247000D03*
X169827000Y-89247000D03*
X169827000Y-99407000D03*
X167287000Y-99407000D03*
X164747000Y-99407000D03*
X162207000Y-99407000D03*
X159667000Y-99407000D03*
X157127000Y-99407000D03*
D13*
X173967000Y-117181000D03*
D14*
X173967000Y-124801000D03*
D18*
X198347000Y-89842000D03*
X183027000Y-89842000D03*
D19*
X199577000Y-102582000D03*
X197037000Y-102582000D03*
X194497000Y-102582000D03*
X191957000Y-102582000D03*
X189417000Y-102582000D03*
X186877000Y-102582000D03*
X184337000Y-102582000D03*
X181797000Y-102582000D03*
D20*
X231932000Y-87734700D03*
D21*
X231932000Y-90234700D03*
X231932000Y-92734700D03*
X231932000Y-95234700D03*
D20*
X150777000Y-70832000D03*
D21*
X150777000Y-73332000D03*
X150777000Y-75832000D03*
D22*
X157187000Y-62052000D03*
D23*
X159687000Y-62052000D03*
X162187000Y-62052000D03*
X164687000Y-62052000D03*
D15*
X201662000Y-69150000D03*
D16*
X196582000Y-69150000D03*
D24*
X170462000Y-60672000D03*
X170462000Y-63212000D03*
X170462000Y-65752000D03*
D12*
X187302000Y-122324700D03*
X189802000Y-122324700D03*
D15*
X146642000Y-121054700D03*
D16*
X146642000Y-115974700D03*
D22*
X188302000Y-135711000D03*
D23*
X190802000Y-135711000D03*
X193302000Y-135711000D03*
X195802000Y-135711000D03*
D25*
X239352000Y-120419700D03*
D26*
X246952000Y-120419700D03*
D12*
X214917000Y-130219700D03*
X217417000Y-130219700D03*
D27*
X158702000Y-114714700D03*
D28*
X161242000Y-114714700D03*
X158702000Y-117254700D03*
X161242000Y-117254700D03*
X158702000Y-119794700D03*
X161242000Y-119794700D03*
X158702000Y-122334700D03*
X161242000Y-122334700D03*
D15*
X186422000Y-117410000D03*
D16*
X191502000Y-117410000D03*
D27*
X195182000Y-78917000D03*
D28*
X195182000Y-81457000D03*
X195182000Y-83997000D03*
D29*
X156782000Y-52596000D03*
D30*
X156782000Y-55096000D03*
D24*
X139302000Y-132484700D03*
X139302000Y-129944700D03*
X139302000Y-127404700D03*
X151412000Y-60672000D03*
X151412000Y-63212000D03*
X151412000Y-65752000D03*
D15*
X230152000Y-60761000D03*
D16*
X230152000Y-65841000D03*
D17*
X152682000Y-134839700D03*
X150142000Y-109439700D03*
X150142000Y-129759700D03*
X150142000Y-127219700D03*
X170462000Y-132299700D03*
X167922000Y-137379700D03*
X167922000Y-134839700D03*
X167922000Y-132299700D03*
X167922000Y-129759700D03*
X167922000Y-127219700D03*
X167922000Y-124679700D03*
X167922000Y-122139700D03*
X167922000Y-119599700D03*
X167922000Y-117059700D03*
X167922000Y-114519700D03*
X167922000Y-111979700D03*
X167922000Y-109439700D03*
X167922000Y-106899700D03*
X167922000Y-104359700D03*
X170462000Y-104359700D03*
X150142000Y-106899700D03*
X150142000Y-104359700D03*
X152682000Y-104359700D03*
X152682000Y-106899700D03*
X152682000Y-109439700D03*
X152682000Y-111979700D03*
X152682000Y-114519700D03*
X152682000Y-117059700D03*
X152682000Y-119599700D03*
X152682000Y-122139700D03*
X152682000Y-124679700D03*
X152682000Y-127219700D03*
X152682000Y-129759700D03*
X152682000Y-132299700D03*
X170462000Y-127219700D03*
X150142000Y-111979700D03*
X152682000Y-137379700D03*
X150142000Y-137379700D03*
X150142000Y-114519700D03*
X150142000Y-122139700D03*
X150142000Y-119599700D03*
X150142000Y-124679700D03*
X150142000Y-117059700D03*
X170462000Y-117059700D03*
X170462000Y-106899700D03*
X170462000Y-114519700D03*
X170462000Y-109439700D03*
X170462000Y-111979700D03*
X170462000Y-137379700D03*
X170462000Y-134839700D03*
X170462000Y-129759700D03*
X170462000Y-124679700D03*
X170462000Y-122139700D03*
X170462000Y-119599700D03*
X150142000Y-134839700D03*
X150142000Y-132299700D03*
D31*
X150267000Y-95234700D03*
D21*
X150267000Y-92734700D03*
X150267000Y-90234700D03*
X150267000Y-87734700D03*
D15*
X225057000Y-125139700D03*
D16*
X230137000Y-125139700D03*
D32*
X210452180Y-85579960D03*
X210452180Y-88119960D03*
X210452180Y-90659960D03*
X210452180Y-93199960D03*
X210452180Y-95739960D03*
X210452180Y-98279960D03*
X210452180Y-100819960D03*
D33*
X210452180Y-103359960D03*
D32*
X210452180Y-105899960D03*
D34*
X214261240Y-105899960D03*
X216803780Y-105899960D03*
X219343780Y-105899960D03*
X221883780Y-105899960D03*
D32*
X225692180Y-105899960D03*
X225692180Y-103359960D03*
X225692180Y-100819960D03*
X225692180Y-98279960D03*
X225692180Y-95739960D03*
D35*
X225692180Y-93199960D03*
D12*
X205062000Y-130219700D03*
X202562000Y-130219700D03*
X199122000Y-78921000D03*
X201622000Y-78921000D03*
X179987000Y-63281000D03*
X179987000Y-60781000D03*
D31*
X176262000Y-112330000D03*
D21*
X176262000Y-109830000D03*
X176262000Y-107330000D03*
D29*
X193886000Y-127424700D03*
D30*
X193886000Y-129924700D03*
D36*
X152687000Y-142041000D03*
D37*
X150147000Y-142041000D03*
D12*
X165472000Y-69582000D03*
X165472000Y-72082000D03*
D17*
X155222000Y-69562000D03*
X155222000Y-72102000D03*
X155222000Y-74642000D03*
X155222000Y-77182000D03*
X155222000Y-79722000D03*
X155222000Y-82262000D03*
X155222000Y-84802000D03*
X170462000Y-84802000D03*
X170462000Y-82262000D03*
X170462000Y-79722000D03*
X170462000Y-77182000D03*
X170462000Y-74642000D03*
X170462000Y-72102000D03*
X170462000Y-69562000D03*
D31*
X183162000Y-112330000D03*
D21*
X183162000Y-109830000D03*
X183162000Y-107330000D03*
D22*
X174967000Y-128801000D03*
D23*
X177467000Y-128801000D03*
X179967000Y-128801000D03*
X182467000Y-128801000D03*
X184967000Y-128801000D03*
X187467000Y-128801000D03*
D17*
X210467000Y-62634700D03*
X210467000Y-65174700D03*
X210467000Y-67714700D03*
X210467000Y-70254700D03*
X210467000Y-72794700D03*
X210467000Y-75334700D03*
X210467000Y-77874700D03*
X225707000Y-77874700D03*
X225707000Y-75334700D03*
X225707000Y-72794700D03*
X225707000Y-70254700D03*
X225707000Y-67714700D03*
X225707000Y-65174700D03*
X225707000Y-62634700D03*
D38*
X140622000Y-118126000D03*
X139422000Y-118926000D03*
X140622000Y-119726000D03*
X139422000Y-120526000D03*
D39*
X139722000Y-116026000D03*
D40*
X134972000Y-123426000D03*
D39*
X139722000Y-123426000D03*
D40*
X134972000Y-116026000D03*
D38*
X140622000Y-121326000D03*
D13*
X177142000Y-117181000D03*
D14*
X177142000Y-124801000D03*
D15*
X163562000Y-131380000D03*
D16*
X163562000Y-136460000D03*
D12*
X192772000Y-107885000D03*
X190272000Y-107885000D03*
X144102000Y-115994700D03*
X144102000Y-118494700D03*
D22*
X186457000Y-62051000D03*
D23*
X188957000Y-62051000D03*
X191457000Y-62051000D03*
X193957000Y-62051000D03*
D12*
X226347000Y-130219700D03*
X228847000Y-130219700D03*
D26*
X223092000Y-52796000D03*
X229592000Y-52796000D03*
X223092000Y-57296000D03*
X229592000Y-57296000D03*
X212620000Y-132716000D03*
X219120000Y-132716000D03*
X219120000Y-137216000D03*
X212620000Y-137216000D03*
D13*
X183492000Y-117181000D03*
D14*
X183492000Y-124801000D03*
D41*
X199127000Y-112069700D03*
X199127000Y-114609700D03*
X199127000Y-117149700D03*
X199127000Y-119689700D03*
X199127000Y-122229700D03*
X199127000Y-124769700D03*
X199127000Y-127309700D03*
D26*
X230862000Y-132716000D03*
X224362000Y-132716000D03*
X224362000Y-137216000D03*
X230862000Y-137216000D03*
D42*
X199732000Y-63521000D03*
D43*
X202232000Y-63521000D03*
D22*
X174967000Y-135801000D03*
D23*
X177467000Y-135801000D03*
X179967000Y-135801000D03*
X182467000Y-135801000D03*
D15*
X201562000Y-125139700D03*
D16*
X206642000Y-125139700D03*
D18*
X205260000Y-100295000D03*
X176304000Y-100295000D03*
D17*
X174782000Y-60798000D03*
X174782000Y-63338000D03*
X174782000Y-65878000D03*
X174782000Y-68418000D03*
X174782000Y-70958000D03*
X174782000Y-73498000D03*
X174782000Y-76038000D03*
X174782000Y-78578000D03*
X206782000Y-78578000D03*
X206782000Y-76038000D03*
X206782000Y-73498000D03*
X206782000Y-70958000D03*
X206782000Y-68418000D03*
X206782000Y-65878000D03*
X206782000Y-63338000D03*
X206782000Y-60798000D03*
D26*
X200620000Y-132716000D03*
X207120000Y-132716000D03*
X207120000Y-137216000D03*
X200620000Y-137216000D03*
D24*
X159032000Y-145524700D03*
X159032000Y-142984700D03*
X159032000Y-140444700D03*
M02*
