G04 #@! TF.GenerationSoftware,KiCad,Pcbnew,(6.0.2)*
G04 #@! TF.CreationDate,2022-03-28T07:24:52+09:00*
G04 #@! TF.ProjectId,Main_Board,4d61696e-5f42-46f6-9172-642e6b696361,rev?*
G04 #@! TF.SameCoordinates,Original*
G04 #@! TF.FileFunction,Profile,NP*
%FSLAX46Y46*%
G04 Gerber Fmt 4.6, Leading zero omitted, Abs format (unit mm)*
G04 Created by KiCad (PCBNEW (6.0.2)) date 2022-03-28 07:24:52*
%MOMM*%
%LPD*%
G01*
G04 APERTURE LIST*
G04 #@! TA.AperFunction,Profile*
%ADD10C,0.200000*%
G04 #@! TD*
G04 #@! TA.AperFunction,Profile*
%ADD11C,0.120000*%
G04 #@! TD*
G04 APERTURE END LIST*
D10*
X135782005Y-91484651D02*
G75*
G03*
X135782005Y-91484651I-1500000J0D01*
G01*
X216282005Y-45992010D02*
G75*
G03*
X216282005Y-45992010I-1000000J0D01*
G01*
X208782005Y-149242010D02*
G75*
G03*
X211782005Y-146242010I-1J3000001D01*
G01*
X237282005Y-64242010D02*
G75*
G03*
X237282005Y-64242010I-1500000J0D01*
G01*
X226660685Y-43620690D02*
X249903325Y-66863330D01*
X157024646Y-42742010D02*
G75*
G03*
X154903325Y-43620690I-3J-2999994D01*
G01*
X160782005Y-56242010D02*
G75*
G03*
X163782005Y-59242010I3000001J1D01*
G01*
X160782005Y-52242010D02*
X160782005Y-56242010D01*
X250782005Y-68984651D02*
G75*
G03*
X249903325Y-66863330I-2999994J3D01*
G01*
X211782005Y-142242010D02*
G75*
G03*
X208782005Y-139242010I-3000001J-1D01*
G01*
X163782005Y-59242010D02*
X217782005Y-59242010D01*
X217782005Y-142242010D02*
G75*
G03*
X217782005Y-142242010I-1500000J0D01*
G01*
X157024646Y-42742010D02*
X224539364Y-42742010D01*
X220782005Y-56242010D02*
X220782005Y-52242010D01*
X147282005Y-64242010D02*
G75*
G03*
X147282005Y-64242010I-1500000J0D01*
G01*
X131660685Y-66863330D02*
X154903325Y-43620690D01*
X131407005Y-130063505D02*
G75*
G03*
X167829319Y-155643510I59375005J45821502D01*
G01*
X250782005Y-68984651D02*
X250782005Y-128230645D01*
X130782005Y-128230645D02*
G75*
G03*
X131407005Y-130063505I3000003J1D01*
G01*
X220782005Y-52242010D02*
G75*
G03*
X217782005Y-49242010I-3000001J-1D01*
G01*
X169782005Y-146242010D02*
G75*
G03*
X172782005Y-149242010I3000001J1D01*
G01*
X172782005Y-139242010D02*
G75*
G03*
X169782005Y-142242010I1J-3000001D01*
G01*
X212816583Y-155787450D02*
X168747427Y-155787450D01*
X211782005Y-142242010D02*
X211782005Y-146242010D01*
X172782005Y-139242010D02*
X208782005Y-139242010D01*
X217782005Y-59242010D02*
G75*
G03*
X220782005Y-56242010I-1J3000001D01*
G01*
X131660685Y-66863330D02*
G75*
G03*
X130782005Y-68984651I2121314J-2121318D01*
G01*
X212816583Y-155787450D02*
G75*
G03*
X213734691Y-155643510I5J2999973D01*
G01*
X213734691Y-155643510D02*
G75*
G03*
X250157005Y-130063505I-22952691J71401507D01*
G01*
X130782005Y-128230645D02*
X130782005Y-68984651D01*
X237282005Y-134242010D02*
G75*
G03*
X237282005Y-134242010I-1500000J0D01*
G01*
X163782005Y-49242010D02*
G75*
G03*
X160782005Y-52242010I1J-3000001D01*
G01*
X226660685Y-43620690D02*
G75*
G03*
X224539364Y-42742010I-2121318J-2121314D01*
G01*
X226039364Y-45742010D02*
G75*
G03*
X226039364Y-45742010I-1500000J0D01*
G01*
X167282005Y-45992010D02*
G75*
G03*
X167282005Y-45992010I-1000000J0D01*
G01*
X158524646Y-45742010D02*
G75*
G03*
X158524646Y-45742010I-1500000J0D01*
G01*
X167829319Y-155643510D02*
G75*
G03*
X168747427Y-155787450I918101J2856020D01*
G01*
X216282005Y-152492010D02*
G75*
G03*
X216282005Y-152492010I-1000000J0D01*
G01*
X250157005Y-130063505D02*
G75*
G03*
X250782005Y-128230645I-2375003J1832861D01*
G01*
X248782005Y-91484651D02*
G75*
G03*
X248782005Y-91484651I-1500000J0D01*
G01*
X167282005Y-152492010D02*
G75*
G03*
X167282005Y-152492010I-1000000J0D01*
G01*
X217782005Y-49242010D02*
X163782005Y-49242010D01*
X208782005Y-149242010D02*
X172782005Y-149242010D01*
X166782005Y-142242010D02*
G75*
G03*
X166782005Y-142242010I-1500000J0D01*
G01*
X147282005Y-134242010D02*
G75*
G03*
X147282005Y-134242010I-1500000J0D01*
G01*
X169782005Y-146242010D02*
X169782005Y-142242010D01*
D11*
X235587000Y-110689700D02*
G75*
G03*
X235587000Y-110689700I-1500000J0D01*
G01*
X235587000Y-128689700D02*
G75*
G03*
X235587000Y-128689700I-1500000J0D01*
G01*
M02*
