M48
; DRILL file {KiCad (6.0.4)} date Mon Mar 28 09:35:42 2022
; FORMAT={-:-/ absolute / inch / decimal}
; #@! TF.CreationDate,2022-03-28T09:35:42+09:00
; #@! TF.GenerationSoftware,Kicad,Pcbnew,(6.0.4)
; #@! TF.FileFunction,Plated,1,2,PTH
FMAT,2
INCH
; #@! TA.AperFunction,Plated,PTH,ViaDrill
T1C0.0157
; #@! TA.AperFunction,Plated,PTH,ComponentDrill
T2C0.0276
; #@! TA.AperFunction,Plated,PTH,ComponentDrill
T3C0.0315
; #@! TA.AperFunction,Plated,PTH,ComponentDrill
T4C0.0335
; #@! TA.AperFunction,Plated,PTH,ComponentDrill
T5C0.0354
; #@! TA.AperFunction,Plated,PTH,ComponentDrill
T6C0.0374
; #@! TA.AperFunction,Plated,PTH,ComponentDrill
T7C0.0394
; #@! TA.AperFunction,Plated,PTH,ComponentDrill
T8C0.0429
; #@! TA.AperFunction,Plated,PTH,ComponentDrill
T9C0.0433
; #@! TA.AperFunction,Plated,PTH,ComponentDrill
T10C0.0811
; #@! TA.AperFunction,Plated,PTH,ComponentDrill
T11C0.1181
%
G90
G05
T1
X6.0602Y-4.574
X6.1997Y-4.9432
X6.3964Y-4.143
X6.4141Y-3.4437
X6.4481Y-4.5327
X6.4495Y-4.8559
X6.5194Y-4.1054
X6.5335Y-3.8557
X6.5483Y-4.9291
X6.7844Y-5.4318
X7.1096Y-3.1101
X7.2021Y-3.0801
X7.2863Y-3.7238
X7.3785Y-3.313
X7.41Y-3.7821
X7.5073Y-3.7524
X7.6671Y-3.8074
X7.7172Y-5.063
X7.9929Y-4.5551
T2
X5.4891Y-4.6821
X5.4891Y-4.7451
X5.5363Y-4.6506
X5.5363Y-4.7136
X5.5363Y-4.7766
X5.7733Y-4.5659
X5.7733Y-4.7659
X6.4394Y-5.1724
X6.4394Y-5.3724
X7.3394Y-4.6224
X7.5394Y-4.6224
X7.7394Y-2.7224
X7.9355Y-4.9268
X7.9394Y-2.7224
X8.1355Y-4.9268
X8.4105Y-4.9268
X8.6105Y-4.9268
X8.8605Y-4.9268
X9.0605Y-4.9268
X9.0611Y-2.3922
X9.0611Y-2.5922
T3
X5.6733Y-4.5667
X5.6733Y-4.6651
X6.2513Y-5.1766
X6.2513Y-5.275
X6.5146Y-2.7394
X6.5146Y-2.8379
X7.0861Y-2.393
X7.0861Y-2.4914
X7.3741Y-4.8159
X7.4725Y-4.8159
X7.491Y-4.2474
X7.5894Y-4.2474
X7.8198Y-3.3071
X7.8394Y-3.1071
X7.8396Y-4.4122
X7.8396Y-4.5122
X7.8396Y-4.6122
X7.8396Y-4.7122
X7.8396Y-4.8122
X7.8396Y-4.9122
X7.8396Y-5.0122
X7.9182Y-3.3071
X7.9379Y-3.1071
X7.9749Y-5.1268
X8.0733Y-5.1268
X8.4613Y-5.1268
X8.5597Y-5.1268
X8.6861Y-2.4667
X8.6861Y-2.5651
X8.9113Y-5.1268
X9.0097Y-5.1268
T4
X8.2855Y-3.3693
X8.2855Y-3.4693
X8.2855Y-3.5693
X8.2855Y-3.6693
X8.2855Y-3.7693
X8.2855Y-3.8693
X8.2855Y-3.9693
X8.2855Y-4.0693
X8.2855Y-4.1693
X8.4355Y-4.1693
X8.5356Y-4.1693
X8.6356Y-4.1693
X8.7356Y-4.1693
X8.8855Y-3.6693
X8.8855Y-3.7693
X8.8855Y-3.8693
X8.8855Y-3.9693
X8.8855Y-4.0693
X8.8855Y-4.1693
T5
X5.9113Y-5.5922
X6.0113Y-5.5922
T6
X5.916Y-3.4541
X5.916Y-3.5525
X5.916Y-3.651
X5.916Y-3.7494
X5.9361Y-2.7887
X5.9361Y-2.8871
X5.9361Y-2.9855
X6.1885Y-2.443
X6.2869Y-2.443
X6.3853Y-2.443
X6.4837Y-2.443
X6.8885Y-5.0709
X6.8885Y-5.3465
X6.9394Y-4.2256
X6.9394Y-4.324
X6.9394Y-4.4224
X6.9869Y-5.0709
X6.9869Y-5.3465
X7.0853Y-5.0709
X7.0853Y-5.3465
X7.1837Y-5.0709
X7.1837Y-5.3465
X7.2111Y-4.2256
X7.2111Y-4.324
X7.2111Y-4.4224
X7.2822Y-5.0709
X7.3408Y-2.443
X7.3806Y-5.0709
X7.4135Y-5.343
X7.4393Y-2.443
X7.5119Y-5.343
X7.5377Y-2.443
X7.6103Y-5.343
X7.6361Y-2.443
X7.7087Y-5.343
X9.1312Y-3.4541
X9.1312Y-3.5525
X9.1312Y-3.651
X9.1312Y-3.7494
T7
X5.9111Y-4.1086
X5.9111Y-4.2086
X5.9111Y-4.3086
X5.9111Y-4.4086
X5.9111Y-4.5086
X5.9111Y-4.6086
X5.9111Y-4.7086
X5.9111Y-4.8086
X5.9111Y-4.9086
X5.9111Y-5.0086
X5.9111Y-5.1086
X5.9111Y-5.2086
X5.9111Y-5.3086
X5.9111Y-5.4086
X6.0111Y-4.1086
X6.0111Y-4.2086
X6.0111Y-4.3086
X6.0111Y-4.4086
X6.0111Y-4.5086
X6.0111Y-4.6086
X6.0111Y-4.7086
X6.0111Y-4.8086
X6.0111Y-4.9086
X6.0111Y-5.0086
X6.0111Y-5.1086
X6.0111Y-5.2086
X6.0111Y-5.3086
X6.0111Y-5.4086
X6.1111Y-2.7387
X6.1111Y-2.8387
X6.1111Y-2.9387
X6.1111Y-3.0387
X6.1111Y-3.1387
X6.1111Y-3.2387
X6.1111Y-3.3387
X6.1725Y-2.0707
X6.1725Y-2.1691
X6.1861Y-3.5137
X6.1861Y-3.9137
X6.2481Y-4.5163
X6.2481Y-4.6163
X6.2481Y-4.7163
X6.2481Y-4.8163
X6.2861Y-3.5137
X6.2861Y-3.9137
X6.3481Y-4.5163
X6.3481Y-4.6163
X6.3481Y-4.7163
X6.3481Y-4.8163
X6.3861Y-3.5137
X6.3861Y-3.9137
X6.4861Y-3.5137
X6.4861Y-3.9137
X6.5861Y-3.5137
X6.5861Y-3.9137
X6.6111Y-4.1086
X6.6111Y-4.2086
X6.6111Y-4.3086
X6.6111Y-4.4086
X6.6111Y-4.5086
X6.6111Y-4.6086
X6.6111Y-4.7086
X6.6111Y-4.8086
X6.6111Y-4.9086
X6.6111Y-5.0086
X6.6111Y-5.1086
X6.6111Y-5.2086
X6.6111Y-5.3086
X6.6111Y-5.4086
X6.6861Y-3.5137
X6.6861Y-3.9137
X6.7111Y-2.7387
X6.7111Y-2.8387
X6.7111Y-2.9387
X6.7111Y-3.0387
X6.7111Y-3.1387
X6.7111Y-3.2387
X6.7111Y-3.3387
X6.7111Y-4.1086
X6.7111Y-4.2086
X6.7111Y-4.3086
X6.7111Y-4.4086
X6.7111Y-4.5086
X6.7111Y-4.6086
X6.7111Y-4.7086
X6.7111Y-4.8086
X6.7111Y-4.9086
X6.7111Y-5.0086
X6.7111Y-5.1086
X6.7111Y-5.2086
X6.7111Y-5.3086
X6.7111Y-5.4086
X6.8812Y-2.3936
X6.8812Y-2.4936
X6.8812Y-2.5936
X6.8812Y-2.6936
X6.8812Y-2.7936
X6.8812Y-2.8936
X6.8812Y-2.9936
X6.8812Y-3.0936
X7.1574Y-4.0387
X7.2574Y-4.0387
X7.3574Y-4.0387
X7.4574Y-4.0387
X7.5574Y-4.0387
X7.6333Y-5.0167
X7.6333Y-5.1151
X7.6574Y-4.0387
X7.6843Y-3.107
X7.6843Y-3.207
X7.6843Y-3.307
X7.7574Y-4.0387
X7.8574Y-4.0387
X7.8635Y-2.5008
X7.9619Y-2.5008
X8.141Y-2.3936
X8.141Y-2.4936
X8.141Y-2.5936
X8.141Y-2.6936
X8.141Y-2.7936
X8.141Y-2.8936
X8.141Y-2.9936
X8.141Y-3.0936
X8.2861Y-2.4659
X8.2861Y-2.5659
X8.2861Y-2.6659
X8.2861Y-2.7659
X8.2861Y-2.8659
X8.2861Y-2.9659
X8.2861Y-3.0659
X8.8861Y-2.4659
X8.8861Y-2.5659
X8.8861Y-2.6659
X8.8861Y-2.7659
X8.8861Y-2.8659
X8.8861Y-2.9659
X8.8861Y-3.0659
X9.4233Y-4.7409
X9.7225Y-4.7409
T8
X5.4843Y-5.0159
X5.4843Y-5.1159
X5.4843Y-5.2159
X5.9611Y-2.3887
X5.9611Y-2.4887
X5.9611Y-2.5887
X6.2611Y-5.5293
X6.2611Y-5.6293
X6.2611Y-5.7293
X6.7111Y-2.3887
X6.7111Y-2.4887
X6.7111Y-2.5887
T9
X6.8491Y-4.6134
X6.8491Y-4.9134
X6.9741Y-4.6134
X6.9741Y-4.9134
X7.0991Y-4.6134
X7.0991Y-4.9134
X7.2241Y-4.6134
X7.2241Y-4.9134
X7.8984Y-5.225
X7.8984Y-5.4022
X8.1543Y-5.225
X8.1543Y-5.4022
X8.3709Y-5.225
X8.3709Y-5.4022
X8.6268Y-5.225
X8.6268Y-5.4022
X8.7831Y-2.0786
X8.7831Y-2.2557
X8.8331Y-5.225
X8.8331Y-5.4022
X9.0391Y-2.0786
X9.0391Y-2.2557
X9.0891Y-5.225
X9.0891Y-5.4022
T10
X5.3139Y-4.568
X5.3139Y-4.8593
X5.5009Y-4.568
X5.5009Y-4.8593
T11
X6.9411Y-3.9486
X7.2058Y-3.5371
X7.8089Y-3.5371
X8.0811Y-3.9486
T0
M30
