%FSLAX45Y45*%
G04 Gerber Fmt 4.5, Leading zero omitted, Abs format (unit mm)*
G04 Created by KiCad (PCBNEW (6.0.2)) date 2022-03-28 07:25:12*
%MOMM*%
%LPD*%
G01*
G04 APERTURE LIST*
%TA.AperFunction,Profile*%
%ADD10C,0.200000*%
%TD*%
%ADD11C,0.200000*%
%ADD12C,0.040000*%
%ADD13C,0.070000*%
%ADD14C,0.080000*%
%ADD15C,0.085000*%
%ADD16C,0.090000*%
%ADD17C,0.095000*%
%ADD18C,0.100000*%
%ADD19C,0.109000*%
%ADD20C,0.110000*%
%ADD21C,0.206000*%
%ADD22C,0.300000*%
G04 APERTURE END LIST*
D10*
X13578200Y-9148465D02*
G75*
G03*
X13578200Y-9148465I-150000J0D01*
G01*
X21628201Y-4599201D02*
G75*
G03*
X21628201Y-4599201I-100000J0D01*
G01*
X20878201Y-14924201D02*
G75*
G03*
X21178201Y-14624201I0J300000D01*
G01*
X23728200Y-6424201D02*
G75*
G03*
X23728200Y-6424201I-150000J0D01*
G01*
X22666068Y-4362069D02*
X24990332Y-6686333D01*
X15702465Y-4274201D02*
G75*
G03*
X15490332Y-4362069I0J-299999D01*
G01*
X16078200Y-5624201D02*
G75*
G03*
X16378200Y-5924201I300000J0D01*
G01*
X16078200Y-5224201D02*
X16078200Y-5624201D01*
X25078200Y-6898465D02*
G75*
G03*
X24990332Y-6686333I-299999J0D01*
G01*
X21178201Y-14224201D02*
G75*
G03*
X20878201Y-13924201I-300000J0D01*
G01*
X16378200Y-5924201D02*
X21778201Y-5924201D01*
X21778201Y-14224201D02*
G75*
G03*
X21778201Y-14224201I-150000J0D01*
G01*
X15702465Y-4274201D02*
X22453936Y-4274201D01*
X22078201Y-5624201D02*
X22078201Y-5224201D01*
X14728200Y-6424201D02*
G75*
G03*
X14728200Y-6424201I-150000J0D01*
G01*
X13166068Y-6686333D02*
X15490332Y-4362069D01*
X13140700Y-13006350D02*
G75*
G03*
X16782932Y-15564351I5937501J4582150D01*
G01*
X25078200Y-6898465D02*
X25078200Y-12823064D01*
X13078200Y-12823064D02*
G75*
G03*
X13140700Y-13006350I300000J0D01*
G01*
X22078201Y-5224201D02*
G75*
G03*
X21778201Y-4924201I-300000J0D01*
G01*
X16978201Y-14624201D02*
G75*
G03*
X17278201Y-14924201I300000J0D01*
G01*
X17278201Y-13924201D02*
G75*
G03*
X16978201Y-14224201I0J-300000D01*
G01*
X21281658Y-15578745D02*
X16874743Y-15578745D01*
X21178201Y-14224201D02*
X21178201Y-14624201D01*
X17278201Y-13924201D02*
X20878201Y-13924201D01*
X21778201Y-5924201D02*
G75*
G03*
X22078201Y-5624201I0J300000D01*
G01*
X13166068Y-6686333D02*
G75*
G03*
X13078200Y-6898465I212131J-212132D01*
G01*
X21281658Y-15578745D02*
G75*
G03*
X21373469Y-15564351I1J299997D01*
G01*
X21373469Y-15564351D02*
G75*
G03*
X25015700Y-13006350I-2295269J7140151D01*
G01*
X13078200Y-12823064D02*
X13078200Y-6898465D01*
X23728200Y-13424201D02*
G75*
G03*
X23728200Y-13424201I-150000J0D01*
G01*
X16378200Y-4924201D02*
G75*
G03*
X16078200Y-5224201I0J-300000D01*
G01*
X22666068Y-4362069D02*
G75*
G03*
X22453936Y-4274201I-212132J-212131D01*
G01*
X22603936Y-4574201D02*
G75*
G03*
X22603936Y-4574201I-150000J0D01*
G01*
X16728200Y-4599201D02*
G75*
G03*
X16728200Y-4599201I-100000J0D01*
G01*
X15852465Y-4574201D02*
G75*
G03*
X15852465Y-4574201I-150000J0D01*
G01*
X16782932Y-15564351D02*
G75*
G03*
X16874743Y-15578745I91810J285602D01*
G01*
X21628201Y-15249201D02*
G75*
G03*
X21628201Y-15249201I-100000J0D01*
G01*
X25015700Y-13006350D02*
G75*
G03*
X25078200Y-12823064I-237500J183286D01*
G01*
X24878200Y-9148465D02*
G75*
G03*
X24878200Y-9148465I-150000J0D01*
G01*
X16728200Y-15249201D02*
G75*
G03*
X16728200Y-15249201I-100000J0D01*
G01*
X21778201Y-4924201D02*
X16378200Y-4924201D01*
X20878201Y-14924201D02*
X17278201Y-14924201D01*
X16678200Y-14224201D02*
G75*
G03*
X16678200Y-14224201I-150000J0D01*
G01*
X14728200Y-13424201D02*
G75*
G03*
X14728200Y-13424201I-150000J0D01*
G01*
X16978201Y-14624201D02*
X16978201Y-14224201D01*
D11*
D12*
X15372850Y-11598000D02*
X15412850Y-11638000D01*
X15412850Y-11598000D02*
X15372850Y-11638000D01*
X15727350Y-12535770D02*
X15767350Y-12575770D01*
X15767350Y-12535770D02*
X15727350Y-12575770D01*
X16226880Y-10503240D02*
X16266880Y-10543240D01*
X16266880Y-10503240D02*
X16226880Y-10543240D01*
X16271940Y-8727070D02*
X16311940Y-8767070D01*
X16311940Y-8727070D02*
X16271940Y-8767070D01*
X16358270Y-11492970D02*
X16398270Y-11532970D01*
X16398270Y-11492970D02*
X16358270Y-11532970D01*
X16361610Y-12313900D02*
X16401610Y-12353900D01*
X16401610Y-12313900D02*
X16361610Y-12353900D01*
X16539390Y-10407810D02*
X16579390Y-10447810D01*
X16579390Y-10407810D02*
X16539390Y-10447810D01*
X16575040Y-9773450D02*
X16615040Y-9813450D01*
X16615040Y-9773450D02*
X16575040Y-9813450D01*
X16612580Y-12499920D02*
X16652580Y-12539920D01*
X16652580Y-12499920D02*
X16612580Y-12539920D01*
X17212330Y-13776740D02*
X17252330Y-13816740D01*
X17252330Y-13776740D02*
X17212330Y-13816740D01*
X18038360Y-7879530D02*
X18078360Y-7919530D01*
X18078360Y-7879530D02*
X18038360Y-7919530D01*
X18273310Y-7803350D02*
X18313310Y-7843350D01*
X18313310Y-7803350D02*
X18273310Y-7843350D01*
X18487110Y-9438550D02*
X18527110Y-9478550D01*
X18527110Y-9438550D02*
X18487110Y-9478550D01*
X18721470Y-8394910D02*
X18761470Y-8434910D01*
X18761470Y-8394910D02*
X18721470Y-8434910D01*
X18801410Y-9586410D02*
X18841410Y-9626410D01*
X18841410Y-9586410D02*
X18801410Y-9626410D01*
X19048560Y-9511080D02*
X19088560Y-9551080D01*
X19088560Y-9511080D02*
X19048560Y-9551080D01*
X19454460Y-9650840D02*
X19494460Y-9690840D01*
X19494460Y-9650840D02*
X19454460Y-9690840D01*
X19581630Y-12840110D02*
X19621630Y-12880110D01*
X19621630Y-12840110D02*
X19581630Y-12880110D01*
X20282080Y-11550080D02*
X20322080Y-11590080D01*
X20322080Y-11550080D02*
X20282080Y-11590080D01*
D13*
X13977200Y-11892600D02*
G75*
G03*
X13977200Y-11892600I-35000J0D01*
G01*
X13977200Y-12052600D02*
G75*
G03*
X13977200Y-12052600I-35000J0D01*
G01*
X14097200Y-11812600D02*
G75*
G03*
X14097200Y-11812600I-35000J0D01*
G01*
X14097200Y-11972600D02*
G75*
G03*
X14097200Y-11972600I-35000J0D01*
G01*
X14097200Y-12132600D02*
G75*
G03*
X14097200Y-12132600I-35000J0D01*
G01*
X14699200Y-11597470D02*
G75*
G03*
X14699200Y-11597470I-35000J0D01*
G01*
X14699200Y-12105470D02*
G75*
G03*
X14699200Y-12105470I-35000J0D01*
G01*
X16391200Y-13138000D02*
G75*
G03*
X16391200Y-13138000I-35000J0D01*
G01*
X16391200Y-13646000D02*
G75*
G03*
X16391200Y-13646000I-35000J0D01*
G01*
X18677200Y-11741000D02*
G75*
G03*
X18677200Y-11741000I-35000J0D01*
G01*
X19185200Y-11741000D02*
G75*
G03*
X19185200Y-11741000I-35000J0D01*
G01*
X19693200Y-6915000D02*
G75*
G03*
X19693200Y-6915000I-35000J0D01*
G01*
X20191200Y-12513970D02*
G75*
G03*
X20191200Y-12513970I-35000J0D01*
G01*
X20201200Y-6915000D02*
G75*
G03*
X20201200Y-6915000I-35000J0D01*
G01*
X20699200Y-12513970D02*
G75*
G03*
X20699200Y-12513970I-35000J0D01*
G01*
X21397700Y-12513970D02*
G75*
G03*
X21397700Y-12513970I-35000J0D01*
G01*
X21905700Y-12513970D02*
G75*
G03*
X21905700Y-12513970I-35000J0D01*
G01*
X22540700Y-12513970D02*
G75*
G03*
X22540700Y-12513970I-35000J0D01*
G01*
X23048700Y-12513970D02*
G75*
G03*
X23048700Y-12513970I-35000J0D01*
G01*
X23050200Y-6076100D02*
G75*
G03*
X23050200Y-6076100I-35000J0D01*
G01*
X23050200Y-6584100D02*
G75*
G03*
X23050200Y-6584100I-35000J0D01*
G01*
D14*
X14410200Y-11559470D02*
X14410200Y-11639470D01*
X14370200Y-11599470D02*
X14450200Y-11599470D01*
X14410200Y-11809470D02*
X14410200Y-11889470D01*
X14370200Y-11849470D02*
X14450200Y-11849470D01*
X15878200Y-13108470D02*
X15878200Y-13188470D01*
X15838200Y-13148470D02*
X15918200Y-13148470D01*
X15878200Y-13358470D02*
X15878200Y-13438470D01*
X15838200Y-13398470D02*
X15918200Y-13398470D01*
X16547200Y-6918200D02*
X16547200Y-6998200D01*
X16507200Y-6958200D02*
X16587200Y-6958200D01*
X16547200Y-7168200D02*
X16547200Y-7248200D01*
X16507200Y-7208200D02*
X16587200Y-7208200D01*
X17998700Y-6038100D02*
X17998700Y-6118100D01*
X17958700Y-6078100D02*
X18038700Y-6078100D01*
X17998700Y-6288100D02*
X17998700Y-6368100D01*
X17958700Y-6328100D02*
X18038700Y-6328100D01*
X18730200Y-12192470D02*
X18730200Y-12272470D01*
X18690200Y-12232470D02*
X18770200Y-12232470D01*
X18980200Y-12192470D02*
X18980200Y-12272470D01*
X18940200Y-12232470D02*
X19020200Y-12232470D01*
X19027200Y-10748500D02*
X19027200Y-10828500D01*
X18987200Y-10788500D02*
X19067200Y-10788500D01*
X19277200Y-10748500D02*
X19277200Y-10828500D01*
X19237200Y-10788500D02*
X19317200Y-10788500D01*
X19862200Y-8360100D02*
X19862200Y-8440100D01*
X19822200Y-8400100D02*
X19902200Y-8400100D01*
X19912200Y-7852100D02*
X19912200Y-7932100D01*
X19872200Y-7892100D02*
X19952200Y-7892100D01*
X19912700Y-11166970D02*
X19912700Y-11246970D01*
X19872700Y-11206970D02*
X19952700Y-11206970D01*
X19912700Y-11420970D02*
X19912700Y-11500970D01*
X19872700Y-11460970D02*
X19952700Y-11460970D01*
X19912700Y-11674970D02*
X19912700Y-11754970D01*
X19872700Y-11714970D02*
X19952700Y-11714970D01*
X19912700Y-11928970D02*
X19912700Y-12008970D01*
X19872700Y-11968970D02*
X19952700Y-11968970D01*
X19912700Y-12182970D02*
X19912700Y-12262970D01*
X19872700Y-12222970D02*
X19952700Y-12222970D01*
X19912700Y-12436970D02*
X19912700Y-12516970D01*
X19872700Y-12476970D02*
X19952700Y-12476970D01*
X19912700Y-12690970D02*
X19912700Y-12770970D01*
X19872700Y-12730970D02*
X19952700Y-12730970D01*
X20112200Y-8360100D02*
X20112200Y-8440100D01*
X20072200Y-8400100D02*
X20152200Y-8400100D01*
X20162200Y-7852100D02*
X20162200Y-7932100D01*
X20122200Y-7892100D02*
X20202200Y-7892100D01*
X20256200Y-12981970D02*
X20256200Y-13061970D01*
X20216200Y-13021970D02*
X20296200Y-13021970D01*
X20506200Y-12981970D02*
X20506200Y-13061970D01*
X20466200Y-13021970D02*
X20546200Y-13021970D01*
X21491700Y-12981970D02*
X21491700Y-13061970D01*
X21451700Y-13021970D02*
X21531700Y-13021970D01*
X21741700Y-12981970D02*
X21741700Y-13061970D01*
X21701700Y-13021970D02*
X21781700Y-13021970D01*
X22062700Y-6225470D02*
X22062700Y-6305470D01*
X22022700Y-6265470D02*
X22102700Y-6265470D01*
X22062700Y-6475470D02*
X22062700Y-6555470D01*
X22022700Y-6515470D02*
X22102700Y-6515470D01*
X22634700Y-12981970D02*
X22634700Y-13061970D01*
X22594700Y-13021970D02*
X22674700Y-13021970D01*
X22884700Y-12981970D02*
X22884700Y-13061970D01*
X22844700Y-13021970D02*
X22924700Y-13021970D01*
D15*
X21075270Y-8588048D02*
X21075270Y-8527944D01*
X21015166Y-8527944D01*
X21015166Y-8588048D01*
X21075270Y-8588048D01*
X21075270Y-8842048D02*
X21075270Y-8781944D01*
X21015166Y-8781944D01*
X21015166Y-8842048D01*
X21075270Y-8842048D01*
X21075270Y-9096048D02*
X21075270Y-9035944D01*
X21015166Y-9035944D01*
X21015166Y-9096048D01*
X21075270Y-9096048D01*
X21075270Y-9350048D02*
X21075270Y-9289944D01*
X21015166Y-9289944D01*
X21015166Y-9350048D01*
X21075270Y-9350048D01*
X21075270Y-9604048D02*
X21075270Y-9543944D01*
X21015166Y-9543944D01*
X21015166Y-9604048D01*
X21075270Y-9604048D01*
X21075270Y-9858048D02*
X21075270Y-9797944D01*
X21015166Y-9797944D01*
X21015166Y-9858048D01*
X21075270Y-9858048D01*
X21075270Y-10112048D02*
X21075270Y-10051944D01*
X21015166Y-10051944D01*
X21015166Y-10112048D01*
X21075270Y-10112048D01*
X21075270Y-10366048D02*
X21075270Y-10305944D01*
X21015166Y-10305944D01*
X21015166Y-10366048D01*
X21075270Y-10366048D01*
X21075270Y-10620048D02*
X21075270Y-10559944D01*
X21015166Y-10559944D01*
X21015166Y-10620048D01*
X21075270Y-10620048D01*
X21456176Y-10620048D02*
X21456176Y-10559944D01*
X21396072Y-10559944D01*
X21396072Y-10620048D01*
X21456176Y-10620048D01*
X21710430Y-10620048D02*
X21710430Y-10559944D01*
X21650326Y-10559944D01*
X21650326Y-10620048D01*
X21710430Y-10620048D01*
X21964430Y-10620048D02*
X21964430Y-10559944D01*
X21904326Y-10559944D01*
X21904326Y-10620048D01*
X21964430Y-10620048D01*
X22218430Y-10620048D02*
X22218430Y-10559944D01*
X22158326Y-10559944D01*
X22158326Y-10620048D01*
X22218430Y-10620048D01*
X22599270Y-9350048D02*
X22599270Y-9289944D01*
X22539166Y-9289944D01*
X22539166Y-9350048D01*
X22599270Y-9350048D01*
X22599270Y-9604048D02*
X22599270Y-9543944D01*
X22539166Y-9543944D01*
X22539166Y-9604048D01*
X22599270Y-9604048D01*
X22599270Y-9858048D02*
X22599270Y-9797944D01*
X22539166Y-9797944D01*
X22539166Y-9858048D01*
X22599270Y-9858048D01*
X22599270Y-10112048D02*
X22599270Y-10051944D01*
X22539166Y-10051944D01*
X22539166Y-10112048D01*
X22599270Y-10112048D01*
X22599270Y-10366048D02*
X22599270Y-10305944D01*
X22539166Y-10305944D01*
X22539166Y-10366048D01*
X22599270Y-10366048D01*
X22599270Y-10620048D02*
X22599270Y-10559944D01*
X22539166Y-10559944D01*
X22539166Y-10620048D01*
X22599270Y-10620048D01*
D16*
X15014700Y-14249100D02*
X15059700Y-14204100D01*
X15014700Y-14159100D01*
X14969700Y-14204100D01*
X15014700Y-14249100D01*
X15268700Y-14249100D02*
X15313700Y-14204100D01*
X15268700Y-14159100D01*
X15223700Y-14204100D01*
X15268700Y-14249100D01*
D17*
X14979200Y-8725970D02*
X15074200Y-8820970D01*
X15074200Y-8725970D02*
X14979200Y-8820970D01*
X15074200Y-8773470D02*
G75*
G03*
X15074200Y-8773470I-47500J0D01*
G01*
X14979200Y-8975970D02*
X15074200Y-9070970D01*
X15074200Y-8975970D02*
X14979200Y-9070970D01*
X15074200Y-9023470D02*
G75*
G03*
X15074200Y-9023470I-47500J0D01*
G01*
X14979200Y-9225970D02*
X15074200Y-9320970D01*
X15074200Y-9225970D02*
X14979200Y-9320970D01*
X15074200Y-9273470D02*
G75*
G03*
X15074200Y-9273470I-47500J0D01*
G01*
X14979200Y-9475970D02*
X15074200Y-9570970D01*
X15074200Y-9475970D02*
X14979200Y-9570970D01*
X15074200Y-9523470D02*
G75*
G03*
X15074200Y-9523470I-47500J0D01*
G01*
X15030200Y-7035700D02*
X15125200Y-7130700D01*
X15125200Y-7035700D02*
X15030200Y-7130700D01*
X15125200Y-7083200D02*
G75*
G03*
X15125200Y-7083200I-47500J0D01*
G01*
X15030200Y-7285700D02*
X15125200Y-7380700D01*
X15125200Y-7285700D02*
X15030200Y-7380700D01*
X15125200Y-7333200D02*
G75*
G03*
X15125200Y-7333200I-47500J0D01*
G01*
X15030200Y-7535700D02*
X15125200Y-7630700D01*
X15125200Y-7535700D02*
X15030200Y-7630700D01*
X15125200Y-7583200D02*
G75*
G03*
X15125200Y-7583200I-47500J0D01*
G01*
X15671200Y-6157700D02*
X15766200Y-6252700D01*
X15766200Y-6157700D02*
X15671200Y-6252700D01*
X15766200Y-6205200D02*
G75*
G03*
X15766200Y-6205200I-47500J0D01*
G01*
X15921200Y-6157700D02*
X16016200Y-6252700D01*
X16016200Y-6157700D02*
X15921200Y-6252700D01*
X16016200Y-6205200D02*
G75*
G03*
X16016200Y-6205200I-47500J0D01*
G01*
X16171200Y-6157700D02*
X16266200Y-6252700D01*
X16266200Y-6157700D02*
X16171200Y-6252700D01*
X16266200Y-6205200D02*
G75*
G03*
X16266200Y-6205200I-47500J0D01*
G01*
X16421200Y-6157700D02*
X16516200Y-6252700D01*
X16516200Y-6157700D02*
X16421200Y-6252700D01*
X16516200Y-6205200D02*
G75*
G03*
X16516200Y-6205200I-47500J0D01*
G01*
X17449200Y-12832600D02*
X17544200Y-12927600D01*
X17544200Y-12832600D02*
X17449200Y-12927600D01*
X17544200Y-12880100D02*
G75*
G03*
X17544200Y-12880100I-47500J0D01*
G01*
X17449200Y-13532600D02*
X17544200Y-13627600D01*
X17544200Y-13532600D02*
X17449200Y-13627600D01*
X17544200Y-13580100D02*
G75*
G03*
X17544200Y-13580100I-47500J0D01*
G01*
X17578700Y-10685500D02*
X17673700Y-10780500D01*
X17673700Y-10685500D02*
X17578700Y-10780500D01*
X17673700Y-10733000D02*
G75*
G03*
X17673700Y-10733000I-47500J0D01*
G01*
X17578700Y-10935500D02*
X17673700Y-11030500D01*
X17673700Y-10935500D02*
X17578700Y-11030500D01*
X17673700Y-10983000D02*
G75*
G03*
X17673700Y-10983000I-47500J0D01*
G01*
X17578700Y-11185500D02*
X17673700Y-11280500D01*
X17673700Y-11185500D02*
X17578700Y-11280500D01*
X17673700Y-11233000D02*
G75*
G03*
X17673700Y-11233000I-47500J0D01*
G01*
X17699200Y-12832600D02*
X17794200Y-12927600D01*
X17794200Y-12832600D02*
X17699200Y-12927600D01*
X17794200Y-12880100D02*
G75*
G03*
X17794200Y-12880100I-47500J0D01*
G01*
X17699200Y-13532600D02*
X17794200Y-13627600D01*
X17794200Y-13532600D02*
X17699200Y-13627600D01*
X17794200Y-13580100D02*
G75*
G03*
X17794200Y-13580100I-47500J0D01*
G01*
X17949200Y-12832600D02*
X18044200Y-12927600D01*
X18044200Y-12832600D02*
X17949200Y-12927600D01*
X18044200Y-12880100D02*
G75*
G03*
X18044200Y-12880100I-47500J0D01*
G01*
X17949200Y-13532600D02*
X18044200Y-13627600D01*
X18044200Y-13532600D02*
X17949200Y-13627600D01*
X18044200Y-13580100D02*
G75*
G03*
X18044200Y-13580100I-47500J0D01*
G01*
X18199200Y-12832600D02*
X18294200Y-12927600D01*
X18294200Y-12832600D02*
X18199200Y-12927600D01*
X18294200Y-12880100D02*
G75*
G03*
X18294200Y-12880100I-47500J0D01*
G01*
X18199200Y-13532600D02*
X18294200Y-13627600D01*
X18294200Y-13532600D02*
X18199200Y-13627600D01*
X18294200Y-13580100D02*
G75*
G03*
X18294200Y-13580100I-47500J0D01*
G01*
X18268700Y-10685500D02*
X18363700Y-10780500D01*
X18363700Y-10685500D02*
X18268700Y-10780500D01*
X18363700Y-10733000D02*
G75*
G03*
X18363700Y-10733000I-47500J0D01*
G01*
X18268700Y-10935500D02*
X18363700Y-11030500D01*
X18363700Y-10935500D02*
X18268700Y-11030500D01*
X18363700Y-10983000D02*
G75*
G03*
X18363700Y-10983000I-47500J0D01*
G01*
X18268700Y-11185500D02*
X18363700Y-11280500D01*
X18363700Y-11185500D02*
X18268700Y-11280500D01*
X18363700Y-11233000D02*
G75*
G03*
X18363700Y-11233000I-47500J0D01*
G01*
X18449200Y-12832600D02*
X18544200Y-12927600D01*
X18544200Y-12832600D02*
X18449200Y-12927600D01*
X18544200Y-12880100D02*
G75*
G03*
X18544200Y-12880100I-47500J0D01*
G01*
X18598200Y-6157600D02*
X18693200Y-6252600D01*
X18693200Y-6157600D02*
X18598200Y-6252600D01*
X18693200Y-6205100D02*
G75*
G03*
X18693200Y-6205100I-47500J0D01*
G01*
X18699200Y-12832600D02*
X18794200Y-12927600D01*
X18794200Y-12832600D02*
X18699200Y-12927600D01*
X18794200Y-12880100D02*
G75*
G03*
X18794200Y-12880100I-47500J0D01*
G01*
X18782700Y-13523600D02*
X18877700Y-13618600D01*
X18877700Y-13523600D02*
X18782700Y-13618600D01*
X18877700Y-13571100D02*
G75*
G03*
X18877700Y-13571100I-47500J0D01*
G01*
X18848200Y-6157600D02*
X18943200Y-6252600D01*
X18943200Y-6157600D02*
X18848200Y-6252600D01*
X18943200Y-6205100D02*
G75*
G03*
X18943200Y-6205100I-47500J0D01*
G01*
X19032700Y-13523600D02*
X19127700Y-13618600D01*
X19127700Y-13523600D02*
X19032700Y-13618600D01*
X19127700Y-13571100D02*
G75*
G03*
X19127700Y-13571100I-47500J0D01*
G01*
X19098200Y-6157600D02*
X19193200Y-6252600D01*
X19193200Y-6157600D02*
X19098200Y-6252600D01*
X19193200Y-6205100D02*
G75*
G03*
X19193200Y-6205100I-47500J0D01*
G01*
X19282700Y-13523600D02*
X19377700Y-13618600D01*
X19377700Y-13523600D02*
X19282700Y-13618600D01*
X19377700Y-13571100D02*
G75*
G03*
X19377700Y-13571100I-47500J0D01*
G01*
X19348200Y-6157600D02*
X19443200Y-6252600D01*
X19443200Y-6157600D02*
X19348200Y-6252600D01*
X19443200Y-6205100D02*
G75*
G03*
X19443200Y-6205100I-47500J0D01*
G01*
X19532700Y-13523600D02*
X19627700Y-13618600D01*
X19627700Y-13523600D02*
X19532700Y-13618600D01*
X19627700Y-13571100D02*
G75*
G03*
X19627700Y-13571100I-47500J0D01*
G01*
X23145700Y-8725970D02*
X23240700Y-8820970D01*
X23240700Y-8725970D02*
X23145700Y-8820970D01*
X23240700Y-8773470D02*
G75*
G03*
X23240700Y-8773470I-47500J0D01*
G01*
X23145700Y-8975970D02*
X23240700Y-9070970D01*
X23240700Y-8975970D02*
X23145700Y-9070970D01*
X23240700Y-9023470D02*
G75*
G03*
X23240700Y-9023470I-47500J0D01*
G01*
X23145700Y-9225970D02*
X23240700Y-9320970D01*
X23240700Y-9225970D02*
X23145700Y-9320970D01*
X23240700Y-9273470D02*
G75*
G03*
X23240700Y-9273470I-47500J0D01*
G01*
X23145700Y-9475970D02*
X23240700Y-9570970D01*
X23240700Y-9475970D02*
X23145700Y-9570970D01*
X23240700Y-9523470D02*
G75*
G03*
X23240700Y-9523470I-47500J0D01*
G01*
D18*
X14964200Y-10385970D02*
X15064200Y-10485970D01*
X15064200Y-10385970D02*
X14964200Y-10485970D01*
X15014200Y-10385970D02*
X15014200Y-10485970D01*
X14964200Y-10435970D02*
X15064200Y-10435970D01*
X14964200Y-10639970D02*
X15064200Y-10739970D01*
X15064200Y-10639970D02*
X14964200Y-10739970D01*
X15014200Y-10639970D02*
X15014200Y-10739970D01*
X14964200Y-10689970D02*
X15064200Y-10689970D01*
X14964200Y-10893970D02*
X15064200Y-10993970D01*
X15064200Y-10893970D02*
X14964200Y-10993970D01*
X15014200Y-10893970D02*
X15014200Y-10993970D01*
X14964200Y-10943970D02*
X15064200Y-10943970D01*
X14964200Y-11147970D02*
X15064200Y-11247970D01*
X15064200Y-11147970D02*
X14964200Y-11247970D01*
X15014200Y-11147970D02*
X15014200Y-11247970D01*
X14964200Y-11197970D02*
X15064200Y-11197970D01*
X14964200Y-11401970D02*
X15064200Y-11501970D01*
X15064200Y-11401970D02*
X14964200Y-11501970D01*
X15014200Y-11401970D02*
X15014200Y-11501970D01*
X14964200Y-11451970D02*
X15064200Y-11451970D01*
X14964200Y-11655970D02*
X15064200Y-11755970D01*
X15064200Y-11655970D02*
X14964200Y-11755970D01*
X15014200Y-11655970D02*
X15014200Y-11755970D01*
X14964200Y-11705970D02*
X15064200Y-11705970D01*
X14964200Y-11909970D02*
X15064200Y-12009970D01*
X15064200Y-11909970D02*
X14964200Y-12009970D01*
X15014200Y-11909970D02*
X15014200Y-12009970D01*
X14964200Y-11959970D02*
X15064200Y-11959970D01*
X14964200Y-12163970D02*
X15064200Y-12263970D01*
X15064200Y-12163970D02*
X14964200Y-12263970D01*
X15014200Y-12163970D02*
X15014200Y-12263970D01*
X14964200Y-12213970D02*
X15064200Y-12213970D01*
X14964200Y-12417970D02*
X15064200Y-12517970D01*
X15064200Y-12417970D02*
X14964200Y-12517970D01*
X15014200Y-12417970D02*
X15014200Y-12517970D01*
X14964200Y-12467970D02*
X15064200Y-12467970D01*
X14964200Y-12671970D02*
X15064200Y-12771970D01*
X15064200Y-12671970D02*
X14964200Y-12771970D01*
X15014200Y-12671970D02*
X15014200Y-12771970D01*
X14964200Y-12721970D02*
X15064200Y-12721970D01*
X14964200Y-12925970D02*
X15064200Y-13025970D01*
X15064200Y-12925970D02*
X14964200Y-13025970D01*
X15014200Y-12925970D02*
X15014200Y-13025970D01*
X14964200Y-12975970D02*
X15064200Y-12975970D01*
X14964200Y-13179970D02*
X15064200Y-13279970D01*
X15064200Y-13179970D02*
X14964200Y-13279970D01*
X15014200Y-13179970D02*
X15014200Y-13279970D01*
X14964200Y-13229970D02*
X15064200Y-13229970D01*
X14964200Y-13433970D02*
X15064200Y-13533970D01*
X15064200Y-13433970D02*
X14964200Y-13533970D01*
X15014200Y-13433970D02*
X15014200Y-13533970D01*
X14964200Y-13483970D02*
X15064200Y-13483970D01*
X14964200Y-13687970D02*
X15064200Y-13787970D01*
X15064200Y-13687970D02*
X14964200Y-13787970D01*
X15014200Y-13687970D02*
X15014200Y-13787970D01*
X14964200Y-13737970D02*
X15064200Y-13737970D01*
X15218200Y-10385970D02*
X15318200Y-10485970D01*
X15318200Y-10385970D02*
X15218200Y-10485970D01*
X15268200Y-10385970D02*
X15268200Y-10485970D01*
X15218200Y-10435970D02*
X15318200Y-10435970D01*
X15218200Y-10639970D02*
X15318200Y-10739970D01*
X15318200Y-10639970D02*
X15218200Y-10739970D01*
X15268200Y-10639970D02*
X15268200Y-10739970D01*
X15218200Y-10689970D02*
X15318200Y-10689970D01*
X15218200Y-10893970D02*
X15318200Y-10993970D01*
X15318200Y-10893970D02*
X15218200Y-10993970D01*
X15268200Y-10893970D02*
X15268200Y-10993970D01*
X15218200Y-10943970D02*
X15318200Y-10943970D01*
X15218200Y-11147970D02*
X15318200Y-11247970D01*
X15318200Y-11147970D02*
X15218200Y-11247970D01*
X15268200Y-11147970D02*
X15268200Y-11247970D01*
X15218200Y-11197970D02*
X15318200Y-11197970D01*
X15218200Y-11401970D02*
X15318200Y-11501970D01*
X15318200Y-11401970D02*
X15218200Y-11501970D01*
X15268200Y-11401970D02*
X15268200Y-11501970D01*
X15218200Y-11451970D02*
X15318200Y-11451970D01*
X15218200Y-11655970D02*
X15318200Y-11755970D01*
X15318200Y-11655970D02*
X15218200Y-11755970D01*
X15268200Y-11655970D02*
X15268200Y-11755970D01*
X15218200Y-11705970D02*
X15318200Y-11705970D01*
X15218200Y-11909970D02*
X15318200Y-12009970D01*
X15318200Y-11909970D02*
X15218200Y-12009970D01*
X15268200Y-11909970D02*
X15268200Y-12009970D01*
X15218200Y-11959970D02*
X15318200Y-11959970D01*
X15218200Y-12163970D02*
X15318200Y-12263970D01*
X15318200Y-12163970D02*
X15218200Y-12263970D01*
X15268200Y-12163970D02*
X15268200Y-12263970D01*
X15218200Y-12213970D02*
X15318200Y-12213970D01*
X15218200Y-12417970D02*
X15318200Y-12517970D01*
X15318200Y-12417970D02*
X15218200Y-12517970D01*
X15268200Y-12417970D02*
X15268200Y-12517970D01*
X15218200Y-12467970D02*
X15318200Y-12467970D01*
X15218200Y-12671970D02*
X15318200Y-12771970D01*
X15318200Y-12671970D02*
X15218200Y-12771970D01*
X15268200Y-12671970D02*
X15268200Y-12771970D01*
X15218200Y-12721970D02*
X15318200Y-12721970D01*
X15218200Y-12925970D02*
X15318200Y-13025970D01*
X15318200Y-12925970D02*
X15218200Y-13025970D01*
X15268200Y-12925970D02*
X15268200Y-13025970D01*
X15218200Y-12975970D02*
X15318200Y-12975970D01*
X15218200Y-13179970D02*
X15318200Y-13279970D01*
X15318200Y-13179970D02*
X15218200Y-13279970D01*
X15268200Y-13179970D02*
X15268200Y-13279970D01*
X15218200Y-13229970D02*
X15318200Y-13229970D01*
X15218200Y-13433970D02*
X15318200Y-13533970D01*
X15318200Y-13433970D02*
X15218200Y-13533970D01*
X15268200Y-13433970D02*
X15268200Y-13533970D01*
X15218200Y-13483970D02*
X15318200Y-13483970D01*
X15218200Y-13687970D02*
X15318200Y-13787970D01*
X15318200Y-13687970D02*
X15218200Y-13787970D01*
X15268200Y-13687970D02*
X15268200Y-13787970D01*
X15218200Y-13737970D02*
X15318200Y-13737970D01*
X15472200Y-6906200D02*
X15572200Y-7006200D01*
X15572200Y-6906200D02*
X15472200Y-7006200D01*
X15522200Y-6906200D02*
X15522200Y-7006200D01*
X15472200Y-6956200D02*
X15572200Y-6956200D01*
X15472200Y-7160200D02*
X15572200Y-7260200D01*
X15572200Y-7160200D02*
X15472200Y-7260200D01*
X15522200Y-7160200D02*
X15522200Y-7260200D01*
X15472200Y-7210200D02*
X15572200Y-7210200D01*
X15472200Y-7414200D02*
X15572200Y-7514200D01*
X15572200Y-7414200D02*
X15472200Y-7514200D01*
X15522200Y-7414200D02*
X15522200Y-7514200D01*
X15472200Y-7464200D02*
X15572200Y-7464200D01*
X15472200Y-7668200D02*
X15572200Y-7768200D01*
X15572200Y-7668200D02*
X15472200Y-7768200D01*
X15522200Y-7668200D02*
X15522200Y-7768200D01*
X15472200Y-7718200D02*
X15572200Y-7718200D01*
X15472200Y-7922200D02*
X15572200Y-8022200D01*
X15572200Y-7922200D02*
X15472200Y-8022200D01*
X15522200Y-7922200D02*
X15522200Y-8022200D01*
X15472200Y-7972200D02*
X15572200Y-7972200D01*
X15472200Y-8176200D02*
X15572200Y-8276200D01*
X15572200Y-8176200D02*
X15472200Y-8276200D01*
X15522200Y-8176200D02*
X15522200Y-8276200D01*
X15472200Y-8226200D02*
X15572200Y-8226200D01*
X15472200Y-8430200D02*
X15572200Y-8530200D01*
X15572200Y-8430200D02*
X15472200Y-8530200D01*
X15522200Y-8430200D02*
X15522200Y-8530200D01*
X15472200Y-8480200D02*
X15572200Y-8480200D01*
X15628200Y-5209600D02*
X15728200Y-5309600D01*
X15728200Y-5209600D02*
X15628200Y-5309600D01*
X15678200Y-5209600D02*
X15678200Y-5309600D01*
X15628200Y-5259600D02*
X15728200Y-5259600D01*
X15628200Y-5459600D02*
X15728200Y-5559600D01*
X15728200Y-5459600D02*
X15628200Y-5559600D01*
X15678200Y-5459600D02*
X15678200Y-5559600D01*
X15628200Y-5509600D02*
X15728200Y-5509600D01*
X15662700Y-8874700D02*
X15762700Y-8974700D01*
X15762700Y-8874700D02*
X15662700Y-8974700D01*
X15712700Y-8874700D02*
X15712700Y-8974700D01*
X15662700Y-8924700D02*
X15762700Y-8924700D01*
X15662700Y-9890700D02*
X15762700Y-9990700D01*
X15762700Y-9890700D02*
X15662700Y-9990700D01*
X15712700Y-9890700D02*
X15712700Y-9990700D01*
X15662700Y-9940700D02*
X15762700Y-9940700D01*
X15820200Y-11421470D02*
X15920200Y-11521470D01*
X15920200Y-11421470D02*
X15820200Y-11521470D01*
X15870200Y-11421470D02*
X15870200Y-11521470D01*
X15820200Y-11471470D02*
X15920200Y-11471470D01*
X15820200Y-11675470D02*
X15920200Y-11775470D01*
X15920200Y-11675470D02*
X15820200Y-11775470D01*
X15870200Y-11675470D02*
X15870200Y-11775470D01*
X15820200Y-11725470D02*
X15920200Y-11725470D01*
X15820200Y-11929470D02*
X15920200Y-12029470D01*
X15920200Y-11929470D02*
X15820200Y-12029470D01*
X15870200Y-11929470D02*
X15870200Y-12029470D01*
X15820200Y-11979470D02*
X15920200Y-11979470D01*
X15820200Y-12183470D02*
X15920200Y-12283470D01*
X15920200Y-12183470D02*
X15820200Y-12283470D01*
X15870200Y-12183470D02*
X15870200Y-12283470D01*
X15820200Y-12233470D02*
X15920200Y-12233470D01*
X15916700Y-8874700D02*
X16016700Y-8974700D01*
X16016700Y-8874700D02*
X15916700Y-8974700D01*
X15966700Y-8874700D02*
X15966700Y-8974700D01*
X15916700Y-8924700D02*
X16016700Y-8924700D01*
X15916700Y-9890700D02*
X16016700Y-9990700D01*
X16016700Y-9890700D02*
X15916700Y-9990700D01*
X15966700Y-9890700D02*
X15966700Y-9990700D01*
X15916700Y-9940700D02*
X16016700Y-9940700D01*
X16074200Y-11421470D02*
X16174200Y-11521470D01*
X16174200Y-11421470D02*
X16074200Y-11521470D01*
X16124200Y-11421470D02*
X16124200Y-11521470D01*
X16074200Y-11471470D02*
X16174200Y-11471470D01*
X16074200Y-11675470D02*
X16174200Y-11775470D01*
X16174200Y-11675470D02*
X16074200Y-11775470D01*
X16124200Y-11675470D02*
X16124200Y-11775470D01*
X16074200Y-11725470D02*
X16174200Y-11725470D01*
X16074200Y-11929470D02*
X16174200Y-12029470D01*
X16174200Y-11929470D02*
X16074200Y-12029470D01*
X16124200Y-11929470D02*
X16124200Y-12029470D01*
X16074200Y-11979470D02*
X16174200Y-11979470D01*
X16074200Y-12183470D02*
X16174200Y-12283470D01*
X16174200Y-12183470D02*
X16074200Y-12283470D01*
X16124200Y-12183470D02*
X16124200Y-12283470D01*
X16074200Y-12233470D02*
X16174200Y-12233470D01*
X16170700Y-8874700D02*
X16270700Y-8974700D01*
X16270700Y-8874700D02*
X16170700Y-8974700D01*
X16220700Y-8874700D02*
X16220700Y-8974700D01*
X16170700Y-8924700D02*
X16270700Y-8924700D01*
X16170700Y-9890700D02*
X16270700Y-9990700D01*
X16270700Y-9890700D02*
X16170700Y-9990700D01*
X16220700Y-9890700D02*
X16220700Y-9990700D01*
X16170700Y-9940700D02*
X16270700Y-9940700D01*
X16424700Y-8874700D02*
X16524700Y-8974700D01*
X16524700Y-8874700D02*
X16424700Y-8974700D01*
X16474700Y-8874700D02*
X16474700Y-8974700D01*
X16424700Y-8924700D02*
X16524700Y-8924700D01*
X16424700Y-9890700D02*
X16524700Y-9990700D01*
X16524700Y-9890700D02*
X16424700Y-9990700D01*
X16474700Y-9890700D02*
X16474700Y-9990700D01*
X16424700Y-9940700D02*
X16524700Y-9940700D01*
X16678700Y-8874700D02*
X16778700Y-8974700D01*
X16778700Y-8874700D02*
X16678700Y-8974700D01*
X16728700Y-8874700D02*
X16728700Y-8974700D01*
X16678700Y-8924700D02*
X16778700Y-8924700D01*
X16678700Y-9890700D02*
X16778700Y-9990700D01*
X16778700Y-9890700D02*
X16678700Y-9990700D01*
X16728700Y-9890700D02*
X16728700Y-9990700D01*
X16678700Y-9940700D02*
X16778700Y-9940700D01*
X16742200Y-10385970D02*
X16842200Y-10485970D01*
X16842200Y-10385970D02*
X16742200Y-10485970D01*
X16792200Y-10385970D02*
X16792200Y-10485970D01*
X16742200Y-10435970D02*
X16842200Y-10435970D01*
X16742200Y-10639970D02*
X16842200Y-10739970D01*
X16842200Y-10639970D02*
X16742200Y-10739970D01*
X16792200Y-10639970D02*
X16792200Y-10739970D01*
X16742200Y-10689970D02*
X16842200Y-10689970D01*
X16742200Y-10893970D02*
X16842200Y-10993970D01*
X16842200Y-10893970D02*
X16742200Y-10993970D01*
X16792200Y-10893970D02*
X16792200Y-10993970D01*
X16742200Y-10943970D02*
X16842200Y-10943970D01*
X16742200Y-11147970D02*
X16842200Y-11247970D01*
X16842200Y-11147970D02*
X16742200Y-11247970D01*
X16792200Y-11147970D02*
X16792200Y-11247970D01*
X16742200Y-11197970D02*
X16842200Y-11197970D01*
X16742200Y-11401970D02*
X16842200Y-11501970D01*
X16842200Y-11401970D02*
X16742200Y-11501970D01*
X16792200Y-11401970D02*
X16792200Y-11501970D01*
X16742200Y-11451970D02*
X16842200Y-11451970D01*
X16742200Y-11655970D02*
X16842200Y-11755970D01*
X16842200Y-11655970D02*
X16742200Y-11755970D01*
X16792200Y-11655970D02*
X16792200Y-11755970D01*
X16742200Y-11705970D02*
X16842200Y-11705970D01*
X16742200Y-11909970D02*
X16842200Y-12009970D01*
X16842200Y-11909970D02*
X16742200Y-12009970D01*
X16792200Y-11909970D02*
X16792200Y-12009970D01*
X16742200Y-11959970D02*
X16842200Y-11959970D01*
X16742200Y-12163970D02*
X16842200Y-12263970D01*
X16842200Y-12163970D02*
X16742200Y-12263970D01*
X16792200Y-12163970D02*
X16792200Y-12263970D01*
X16742200Y-12213970D02*
X16842200Y-12213970D01*
X16742200Y-12417970D02*
X16842200Y-12517970D01*
X16842200Y-12417970D02*
X16742200Y-12517970D01*
X16792200Y-12417970D02*
X16792200Y-12517970D01*
X16742200Y-12467970D02*
X16842200Y-12467970D01*
X16742200Y-12671970D02*
X16842200Y-12771970D01*
X16842200Y-12671970D02*
X16742200Y-12771970D01*
X16792200Y-12671970D02*
X16792200Y-12771970D01*
X16742200Y-12721970D02*
X16842200Y-12721970D01*
X16742200Y-12925970D02*
X16842200Y-13025970D01*
X16842200Y-12925970D02*
X16742200Y-13025970D01*
X16792200Y-12925970D02*
X16792200Y-13025970D01*
X16742200Y-12975970D02*
X16842200Y-12975970D01*
X16742200Y-13179970D02*
X16842200Y-13279970D01*
X16842200Y-13179970D02*
X16742200Y-13279970D01*
X16792200Y-13179970D02*
X16792200Y-13279970D01*
X16742200Y-13229970D02*
X16842200Y-13229970D01*
X16742200Y-13433970D02*
X16842200Y-13533970D01*
X16842200Y-13433970D02*
X16742200Y-13533970D01*
X16792200Y-13433970D02*
X16792200Y-13533970D01*
X16742200Y-13483970D02*
X16842200Y-13483970D01*
X16742200Y-13687970D02*
X16842200Y-13787970D01*
X16842200Y-13687970D02*
X16742200Y-13787970D01*
X16792200Y-13687970D02*
X16792200Y-13787970D01*
X16742200Y-13737970D02*
X16842200Y-13737970D01*
X16932700Y-8874700D02*
X17032700Y-8974700D01*
X17032700Y-8874700D02*
X16932700Y-8974700D01*
X16982700Y-8874700D02*
X16982700Y-8974700D01*
X16932700Y-8924700D02*
X17032700Y-8924700D01*
X16932700Y-9890700D02*
X17032700Y-9990700D01*
X17032700Y-9890700D02*
X16932700Y-9990700D01*
X16982700Y-9890700D02*
X16982700Y-9990700D01*
X16932700Y-9940700D02*
X17032700Y-9940700D01*
X16996200Y-6906200D02*
X17096200Y-7006200D01*
X17096200Y-6906200D02*
X16996200Y-7006200D01*
X17046200Y-6906200D02*
X17046200Y-7006200D01*
X16996200Y-6956200D02*
X17096200Y-6956200D01*
X16996200Y-7160200D02*
X17096200Y-7260200D01*
X17096200Y-7160200D02*
X16996200Y-7260200D01*
X17046200Y-7160200D02*
X17046200Y-7260200D01*
X16996200Y-7210200D02*
X17096200Y-7210200D01*
X16996200Y-7414200D02*
X17096200Y-7514200D01*
X17096200Y-7414200D02*
X16996200Y-7514200D01*
X17046200Y-7414200D02*
X17046200Y-7514200D01*
X16996200Y-7464200D02*
X17096200Y-7464200D01*
X16996200Y-7668200D02*
X17096200Y-7768200D01*
X17096200Y-7668200D02*
X16996200Y-7768200D01*
X17046200Y-7668200D02*
X17046200Y-7768200D01*
X16996200Y-7718200D02*
X17096200Y-7718200D01*
X16996200Y-7922200D02*
X17096200Y-8022200D01*
X17096200Y-7922200D02*
X16996200Y-8022200D01*
X17046200Y-7922200D02*
X17046200Y-8022200D01*
X16996200Y-7972200D02*
X17096200Y-7972200D01*
X16996200Y-8176200D02*
X17096200Y-8276200D01*
X17096200Y-8176200D02*
X16996200Y-8276200D01*
X17046200Y-8176200D02*
X17046200Y-8276200D01*
X16996200Y-8226200D02*
X17096200Y-8226200D01*
X16996200Y-8430200D02*
X17096200Y-8530200D01*
X17096200Y-8430200D02*
X16996200Y-8530200D01*
X17046200Y-8430200D02*
X17046200Y-8530200D01*
X16996200Y-8480200D02*
X17096200Y-8480200D01*
X16996200Y-10385970D02*
X17096200Y-10485970D01*
X17096200Y-10385970D02*
X16996200Y-10485970D01*
X17046200Y-10385970D02*
X17046200Y-10485970D01*
X16996200Y-10435970D02*
X17096200Y-10435970D01*
X16996200Y-10639970D02*
X17096200Y-10739970D01*
X17096200Y-10639970D02*
X16996200Y-10739970D01*
X17046200Y-10639970D02*
X17046200Y-10739970D01*
X16996200Y-10689970D02*
X17096200Y-10689970D01*
X16996200Y-10893970D02*
X17096200Y-10993970D01*
X17096200Y-10893970D02*
X16996200Y-10993970D01*
X17046200Y-10893970D02*
X17046200Y-10993970D01*
X16996200Y-10943970D02*
X17096200Y-10943970D01*
X16996200Y-11147970D02*
X17096200Y-11247970D01*
X17096200Y-11147970D02*
X16996200Y-11247970D01*
X17046200Y-11147970D02*
X17046200Y-11247970D01*
X16996200Y-11197970D02*
X17096200Y-11197970D01*
X16996200Y-11401970D02*
X17096200Y-11501970D01*
X17096200Y-11401970D02*
X16996200Y-11501970D01*
X17046200Y-11401970D02*
X17046200Y-11501970D01*
X16996200Y-11451970D02*
X17096200Y-11451970D01*
X16996200Y-11655970D02*
X17096200Y-11755970D01*
X17096200Y-11655970D02*
X16996200Y-11755970D01*
X17046200Y-11655970D02*
X17046200Y-11755970D01*
X16996200Y-11705970D02*
X17096200Y-11705970D01*
X16996200Y-11909970D02*
X17096200Y-12009970D01*
X17096200Y-11909970D02*
X16996200Y-12009970D01*
X17046200Y-11909970D02*
X17046200Y-12009970D01*
X16996200Y-11959970D02*
X17096200Y-11959970D01*
X16996200Y-12163970D02*
X17096200Y-12263970D01*
X17096200Y-12163970D02*
X16996200Y-12263970D01*
X17046200Y-12163970D02*
X17046200Y-12263970D01*
X16996200Y-12213970D02*
X17096200Y-12213970D01*
X16996200Y-12417970D02*
X17096200Y-12517970D01*
X17096200Y-12417970D02*
X16996200Y-12517970D01*
X17046200Y-12417970D02*
X17046200Y-12517970D01*
X16996200Y-12467970D02*
X17096200Y-12467970D01*
X16996200Y-12671970D02*
X17096200Y-12771970D01*
X17096200Y-12671970D02*
X16996200Y-12771970D01*
X17046200Y-12671970D02*
X17046200Y-12771970D01*
X16996200Y-12721970D02*
X17096200Y-12721970D01*
X16996200Y-12925970D02*
X17096200Y-13025970D01*
X17096200Y-12925970D02*
X16996200Y-13025970D01*
X17046200Y-12925970D02*
X17046200Y-13025970D01*
X16996200Y-12975970D02*
X17096200Y-12975970D01*
X16996200Y-13179970D02*
X17096200Y-13279970D01*
X17096200Y-13179970D02*
X16996200Y-13279970D01*
X17046200Y-13179970D02*
X17046200Y-13279970D01*
X16996200Y-13229970D02*
X17096200Y-13229970D01*
X16996200Y-13433970D02*
X17096200Y-13533970D01*
X17096200Y-13433970D02*
X16996200Y-13533970D01*
X17046200Y-13433970D02*
X17046200Y-13533970D01*
X16996200Y-13483970D02*
X17096200Y-13483970D01*
X16996200Y-13687970D02*
X17096200Y-13787970D01*
X17096200Y-13687970D02*
X16996200Y-13787970D01*
X17046200Y-13687970D02*
X17046200Y-13787970D01*
X16996200Y-13737970D02*
X17096200Y-13737970D01*
X17428200Y-6029800D02*
X17528200Y-6129800D01*
X17528200Y-6029800D02*
X17428200Y-6129800D01*
X17478200Y-6029800D02*
X17478200Y-6129800D01*
X17428200Y-6079800D02*
X17528200Y-6079800D01*
X17428200Y-6283800D02*
X17528200Y-6383800D01*
X17528200Y-6283800D02*
X17428200Y-6383800D01*
X17478200Y-6283800D02*
X17478200Y-6383800D01*
X17428200Y-6333800D02*
X17528200Y-6333800D01*
X17428200Y-6537800D02*
X17528200Y-6637800D01*
X17528200Y-6537800D02*
X17428200Y-6637800D01*
X17478200Y-6537800D02*
X17478200Y-6637800D01*
X17428200Y-6587800D02*
X17528200Y-6587800D01*
X17428200Y-6791800D02*
X17528200Y-6891800D01*
X17528200Y-6791800D02*
X17428200Y-6891800D01*
X17478200Y-6791800D02*
X17478200Y-6891800D01*
X17428200Y-6841800D02*
X17528200Y-6841800D01*
X17428200Y-7045800D02*
X17528200Y-7145800D01*
X17528200Y-7045800D02*
X17428200Y-7145800D01*
X17478200Y-7045800D02*
X17478200Y-7145800D01*
X17428200Y-7095800D02*
X17528200Y-7095800D01*
X17428200Y-7299800D02*
X17528200Y-7399800D01*
X17528200Y-7299800D02*
X17428200Y-7399800D01*
X17478200Y-7299800D02*
X17478200Y-7399800D01*
X17428200Y-7349800D02*
X17528200Y-7349800D01*
X17428200Y-7553800D02*
X17528200Y-7653800D01*
X17528200Y-7553800D02*
X17428200Y-7653800D01*
X17478200Y-7553800D02*
X17478200Y-7653800D01*
X17428200Y-7603800D02*
X17528200Y-7603800D01*
X17428200Y-7807800D02*
X17528200Y-7907800D01*
X17528200Y-7807800D02*
X17428200Y-7907800D01*
X17478200Y-7807800D02*
X17478200Y-7907800D01*
X17428200Y-7857800D02*
X17528200Y-7857800D01*
X18129700Y-10208200D02*
X18229700Y-10308200D01*
X18229700Y-10208200D02*
X18129700Y-10308200D01*
X18179700Y-10208200D02*
X18179700Y-10308200D01*
X18129700Y-10258200D02*
X18229700Y-10258200D01*
X18383700Y-10208200D02*
X18483700Y-10308200D01*
X18483700Y-10208200D02*
X18383700Y-10308200D01*
X18433700Y-10208200D02*
X18433700Y-10308200D01*
X18383700Y-10258200D02*
X18483700Y-10258200D01*
X18637700Y-10208200D02*
X18737700Y-10308200D01*
X18737700Y-10208200D02*
X18637700Y-10308200D01*
X18687700Y-10208200D02*
X18687700Y-10308200D01*
X18637700Y-10258200D02*
X18737700Y-10258200D01*
X18891700Y-10208200D02*
X18991700Y-10308200D01*
X18991700Y-10208200D02*
X18891700Y-10308200D01*
X18941700Y-10208200D02*
X18941700Y-10308200D01*
X18891700Y-10258200D02*
X18991700Y-10258200D01*
X19145700Y-10208200D02*
X19245700Y-10308200D01*
X19245700Y-10208200D02*
X19145700Y-10308200D01*
X19195700Y-10208200D02*
X19195700Y-10308200D01*
X19145700Y-10258200D02*
X19245700Y-10258200D01*
X19338600Y-12692470D02*
X19438600Y-12792470D01*
X19438600Y-12692470D02*
X19338600Y-12792470D01*
X19388600Y-12692470D02*
X19388600Y-12792470D01*
X19338600Y-12742470D02*
X19438600Y-12742470D01*
X19338600Y-12942470D02*
X19438600Y-13042470D01*
X19438600Y-12942470D02*
X19338600Y-13042470D01*
X19388600Y-12942470D02*
X19388600Y-13042470D01*
X19338600Y-12992470D02*
X19438600Y-12992470D01*
X19399700Y-10208200D02*
X19499700Y-10308200D01*
X19499700Y-10208200D02*
X19399700Y-10308200D01*
X19449700Y-10208200D02*
X19449700Y-10308200D01*
X19399700Y-10258200D02*
X19499700Y-10258200D01*
X19468200Y-7841700D02*
X19568200Y-7941700D01*
X19568200Y-7841700D02*
X19468200Y-7941700D01*
X19518200Y-7841700D02*
X19518200Y-7941700D01*
X19468200Y-7891700D02*
X19568200Y-7891700D01*
X19468200Y-8095700D02*
X19568200Y-8195700D01*
X19568200Y-8095700D02*
X19468200Y-8195700D01*
X19518200Y-8095700D02*
X19518200Y-8195700D01*
X19468200Y-8145700D02*
X19568200Y-8145700D01*
X19468200Y-8349700D02*
X19568200Y-8449700D01*
X19568200Y-8349700D02*
X19468200Y-8449700D01*
X19518200Y-8349700D02*
X19518200Y-8449700D01*
X19468200Y-8399700D02*
X19568200Y-8399700D01*
X19653700Y-10208200D02*
X19753700Y-10308200D01*
X19753700Y-10208200D02*
X19653700Y-10308200D01*
X19703700Y-10208200D02*
X19703700Y-10308200D01*
X19653700Y-10258200D02*
X19753700Y-10258200D01*
X19907700Y-10208200D02*
X20007700Y-10308200D01*
X20007700Y-10208200D02*
X19907700Y-10308200D01*
X19957700Y-10208200D02*
X19957700Y-10308200D01*
X19907700Y-10258200D02*
X20007700Y-10258200D01*
X19923200Y-6302100D02*
X20023200Y-6402100D01*
X20023200Y-6302100D02*
X19923200Y-6402100D01*
X19973200Y-6302100D02*
X19973200Y-6402100D01*
X19923200Y-6352100D02*
X20023200Y-6352100D01*
X20173200Y-6302100D02*
X20273200Y-6402100D01*
X20273200Y-6302100D02*
X20173200Y-6402100D01*
X20223200Y-6302100D02*
X20223200Y-6402100D01*
X20173200Y-6352100D02*
X20273200Y-6352100D01*
X20628200Y-6029800D02*
X20728200Y-6129800D01*
X20728200Y-6029800D02*
X20628200Y-6129800D01*
X20678200Y-6029800D02*
X20678200Y-6129800D01*
X20628200Y-6079800D02*
X20728200Y-6079800D01*
X20628200Y-6283800D02*
X20728200Y-6383800D01*
X20728200Y-6283800D02*
X20628200Y-6383800D01*
X20678200Y-6283800D02*
X20678200Y-6383800D01*
X20628200Y-6333800D02*
X20728200Y-6333800D01*
X20628200Y-6537800D02*
X20728200Y-6637800D01*
X20728200Y-6537800D02*
X20628200Y-6637800D01*
X20678200Y-6537800D02*
X20678200Y-6637800D01*
X20628200Y-6587800D02*
X20728200Y-6587800D01*
X20628200Y-6791800D02*
X20728200Y-6891800D01*
X20728200Y-6791800D02*
X20628200Y-6891800D01*
X20678200Y-6791800D02*
X20678200Y-6891800D01*
X20628200Y-6841800D02*
X20728200Y-6841800D01*
X20628200Y-7045800D02*
X20728200Y-7145800D01*
X20728200Y-7045800D02*
X20628200Y-7145800D01*
X20678200Y-7045800D02*
X20678200Y-7145800D01*
X20628200Y-7095800D02*
X20728200Y-7095800D01*
X20628200Y-7299800D02*
X20728200Y-7399800D01*
X20728200Y-7299800D02*
X20628200Y-7399800D01*
X20678200Y-7299800D02*
X20678200Y-7399800D01*
X20628200Y-7349800D02*
X20728200Y-7349800D01*
X20628200Y-7553800D02*
X20728200Y-7653800D01*
X20728200Y-7553800D02*
X20628200Y-7653800D01*
X20678200Y-7553800D02*
X20678200Y-7653800D01*
X20628200Y-7603800D02*
X20728200Y-7603800D01*
X20628200Y-7807800D02*
X20728200Y-7907800D01*
X20728200Y-7807800D02*
X20628200Y-7907800D01*
X20678200Y-7807800D02*
X20678200Y-7907800D01*
X20628200Y-7857800D02*
X20728200Y-7857800D01*
X20996700Y-6213470D02*
X21096700Y-6313470D01*
X21096700Y-6213470D02*
X20996700Y-6313470D01*
X21046700Y-6213470D02*
X21046700Y-6313470D01*
X20996700Y-6263470D02*
X21096700Y-6263470D01*
X20996700Y-6467470D02*
X21096700Y-6567470D01*
X21096700Y-6467470D02*
X20996700Y-6567470D01*
X21046700Y-6467470D02*
X21046700Y-6567470D01*
X20996700Y-6517470D02*
X21096700Y-6517470D01*
X20996700Y-6721470D02*
X21096700Y-6821470D01*
X21096700Y-6721470D02*
X20996700Y-6821470D01*
X21046700Y-6721470D02*
X21046700Y-6821470D01*
X20996700Y-6771470D02*
X21096700Y-6771470D01*
X20996700Y-6975470D02*
X21096700Y-7075470D01*
X21096700Y-6975470D02*
X20996700Y-7075470D01*
X21046700Y-6975470D02*
X21046700Y-7075470D01*
X20996700Y-7025470D02*
X21096700Y-7025470D01*
X20996700Y-7229470D02*
X21096700Y-7329470D01*
X21096700Y-7229470D02*
X20996700Y-7329470D01*
X21046700Y-7229470D02*
X21046700Y-7329470D01*
X20996700Y-7279470D02*
X21096700Y-7279470D01*
X20996700Y-7483470D02*
X21096700Y-7583470D01*
X21096700Y-7483470D02*
X20996700Y-7583470D01*
X21046700Y-7483470D02*
X21046700Y-7583470D01*
X20996700Y-7533470D02*
X21096700Y-7533470D01*
X20996700Y-7737470D02*
X21096700Y-7837470D01*
X21096700Y-7737470D02*
X20996700Y-7837470D01*
X21046700Y-7737470D02*
X21046700Y-7837470D01*
X20996700Y-7787470D02*
X21096700Y-7787470D01*
X22520700Y-6213470D02*
X22620700Y-6313470D01*
X22620700Y-6213470D02*
X22520700Y-6313470D01*
X22570700Y-6213470D02*
X22570700Y-6313470D01*
X22520700Y-6263470D02*
X22620700Y-6263470D01*
X22520700Y-6467470D02*
X22620700Y-6567470D01*
X22620700Y-6467470D02*
X22520700Y-6567470D01*
X22570700Y-6467470D02*
X22570700Y-6567470D01*
X22520700Y-6517470D02*
X22620700Y-6517470D01*
X22520700Y-6721470D02*
X22620700Y-6821470D01*
X22620700Y-6721470D02*
X22520700Y-6821470D01*
X22570700Y-6721470D02*
X22570700Y-6821470D01*
X22520700Y-6771470D02*
X22620700Y-6771470D01*
X22520700Y-6975470D02*
X22620700Y-7075470D01*
X22620700Y-6975470D02*
X22520700Y-7075470D01*
X22570700Y-6975470D02*
X22570700Y-7075470D01*
X22520700Y-7025470D02*
X22620700Y-7025470D01*
X22520700Y-7229470D02*
X22620700Y-7329470D01*
X22620700Y-7229470D02*
X22520700Y-7329470D01*
X22570700Y-7229470D02*
X22570700Y-7329470D01*
X22520700Y-7279470D02*
X22620700Y-7279470D01*
X22520700Y-7483470D02*
X22620700Y-7583470D01*
X22620700Y-7483470D02*
X22520700Y-7583470D01*
X22570700Y-7483470D02*
X22570700Y-7583470D01*
X22520700Y-7533470D02*
X22620700Y-7533470D01*
X22520700Y-7737470D02*
X22620700Y-7837470D01*
X22620700Y-7737470D02*
X22520700Y-7837470D01*
X22570700Y-7737470D02*
X22570700Y-7837470D01*
X22520700Y-7787470D02*
X22620700Y-7787470D01*
X23885200Y-11991970D02*
X23985200Y-12091970D01*
X23985200Y-11991970D02*
X23885200Y-12091970D01*
X23935200Y-11991970D02*
X23935200Y-12091970D01*
X23885200Y-12041970D02*
X23985200Y-12041970D01*
X24645200Y-11991970D02*
X24745200Y-12091970D01*
X24745200Y-11991970D02*
X24645200Y-12091970D01*
X24695200Y-11991970D02*
X24695200Y-12091970D01*
X24645200Y-12041970D02*
X24745200Y-12041970D01*
D19*
X13875700Y-12685970D02*
X13984700Y-12794970D01*
X13984700Y-12685970D02*
X13875700Y-12794970D01*
X13968738Y-12779008D02*
X13968738Y-12701932D01*
X13891662Y-12701932D01*
X13891662Y-12779008D01*
X13968738Y-12779008D01*
X13875700Y-12939970D02*
X13984700Y-13048970D01*
X13984700Y-12939970D02*
X13875700Y-13048970D01*
X13968738Y-13033008D02*
X13968738Y-12955932D01*
X13891662Y-12955932D01*
X13891662Y-13033008D01*
X13968738Y-13033008D01*
X13875700Y-13193970D02*
X13984700Y-13302970D01*
X13984700Y-13193970D02*
X13875700Y-13302970D01*
X13968738Y-13287008D02*
X13968738Y-13209932D01*
X13891662Y-13209932D01*
X13891662Y-13287008D01*
X13968738Y-13287008D01*
X15086700Y-6012700D02*
X15195700Y-6121700D01*
X15195700Y-6012700D02*
X15086700Y-6121700D01*
X15179738Y-6105738D02*
X15179738Y-6028662D01*
X15102662Y-6028662D01*
X15102662Y-6105738D01*
X15179738Y-6105738D01*
X15086700Y-6266700D02*
X15195700Y-6375700D01*
X15195700Y-6266700D02*
X15086700Y-6375700D01*
X15179738Y-6359738D02*
X15179738Y-6282662D01*
X15102662Y-6282662D01*
X15102662Y-6359738D01*
X15179738Y-6359738D01*
X15086700Y-6520700D02*
X15195700Y-6629700D01*
X15195700Y-6520700D02*
X15086700Y-6629700D01*
X15179738Y-6613738D02*
X15179738Y-6536662D01*
X15102662Y-6536662D01*
X15102662Y-6613738D01*
X15179738Y-6613738D01*
X15848700Y-13989970D02*
X15957700Y-14098970D01*
X15957700Y-13989970D02*
X15848700Y-14098970D01*
X15941738Y-14083008D02*
X15941738Y-14005932D01*
X15864662Y-14005932D01*
X15864662Y-14083008D01*
X15941738Y-14083008D01*
X15848700Y-14243970D02*
X15957700Y-14352970D01*
X15957700Y-14243970D02*
X15848700Y-14352970D01*
X15941738Y-14337008D02*
X15941738Y-14259932D01*
X15864662Y-14259932D01*
X15864662Y-14337008D01*
X15941738Y-14337008D01*
X15848700Y-14497970D02*
X15957700Y-14606970D01*
X15957700Y-14497970D02*
X15848700Y-14606970D01*
X15941738Y-14591008D02*
X15941738Y-14513932D01*
X15864662Y-14513932D01*
X15864662Y-14591008D01*
X15941738Y-14591008D01*
X16991700Y-6012700D02*
X17100700Y-6121700D01*
X17100700Y-6012700D02*
X16991700Y-6121700D01*
X17084738Y-6105738D02*
X17084738Y-6028662D01*
X17007662Y-6028662D01*
X17007662Y-6105738D01*
X17084738Y-6105738D01*
X16991700Y-6266700D02*
X17100700Y-6375700D01*
X17100700Y-6266700D02*
X16991700Y-6375700D01*
X17084738Y-6359738D02*
X17084738Y-6282662D01*
X17007662Y-6282662D01*
X17007662Y-6359738D01*
X17084738Y-6359738D01*
X16991700Y-6520700D02*
X17100700Y-6629700D01*
X17100700Y-6520700D02*
X16991700Y-6629700D01*
X17084738Y-6613738D02*
X17084738Y-6536662D01*
X17007662Y-6536662D01*
X17007662Y-6613738D01*
X17084738Y-6613738D01*
D20*
X17341700Y-11663100D02*
X17451700Y-11773100D01*
X17451700Y-11663100D02*
X17341700Y-11773100D01*
X17396700Y-11773100D02*
X17451700Y-11718100D01*
X17396700Y-11663100D01*
X17341700Y-11718100D01*
X17396700Y-11773100D01*
X17341700Y-12425100D02*
X17451700Y-12535100D01*
X17451700Y-12425100D02*
X17341700Y-12535100D01*
X17396700Y-12535100D02*
X17451700Y-12480100D01*
X17396700Y-12425100D01*
X17341700Y-12480100D01*
X17396700Y-12535100D01*
X17659200Y-11663100D02*
X17769200Y-11773100D01*
X17769200Y-11663100D02*
X17659200Y-11773100D01*
X17714200Y-11773100D02*
X17769200Y-11718100D01*
X17714200Y-11663100D01*
X17659200Y-11718100D01*
X17714200Y-11773100D01*
X17659200Y-12425100D02*
X17769200Y-12535100D01*
X17769200Y-12425100D02*
X17659200Y-12535100D01*
X17714200Y-12535100D02*
X17769200Y-12480100D01*
X17714200Y-12425100D01*
X17659200Y-12480100D01*
X17714200Y-12535100D01*
X17976700Y-11663100D02*
X18086700Y-11773100D01*
X18086700Y-11663100D02*
X17976700Y-11773100D01*
X18031700Y-11773100D02*
X18086700Y-11718100D01*
X18031700Y-11663100D01*
X17976700Y-11718100D01*
X18031700Y-11773100D01*
X17976700Y-12425100D02*
X18086700Y-12535100D01*
X18086700Y-12425100D02*
X17976700Y-12535100D01*
X18031700Y-12535100D02*
X18086700Y-12480100D01*
X18031700Y-12425100D01*
X17976700Y-12480100D01*
X18031700Y-12535100D01*
X18294200Y-11663100D02*
X18404200Y-11773100D01*
X18404200Y-11663100D02*
X18294200Y-11773100D01*
X18349200Y-11773100D02*
X18404200Y-11718100D01*
X18349200Y-11663100D01*
X18294200Y-11718100D01*
X18349200Y-11773100D01*
X18294200Y-12425100D02*
X18404200Y-12535100D01*
X18404200Y-12425100D02*
X18294200Y-12535100D01*
X18349200Y-12535100D02*
X18404200Y-12480100D01*
X18349200Y-12425100D01*
X18294200Y-12480100D01*
X18349200Y-12535100D01*
X20007000Y-13216600D02*
X20117000Y-13326600D01*
X20117000Y-13216600D02*
X20007000Y-13326600D01*
X20062000Y-13326600D02*
X20117000Y-13271600D01*
X20062000Y-13216600D01*
X20007000Y-13271600D01*
X20062000Y-13326600D01*
X20007000Y-13666600D02*
X20117000Y-13776600D01*
X20117000Y-13666600D02*
X20007000Y-13776600D01*
X20062000Y-13776600D02*
X20117000Y-13721600D01*
X20062000Y-13666600D01*
X20007000Y-13721600D01*
X20062000Y-13776600D01*
X20657000Y-13216600D02*
X20767000Y-13326600D01*
X20767000Y-13216600D02*
X20657000Y-13326600D01*
X20712000Y-13326600D02*
X20767000Y-13271600D01*
X20712000Y-13216600D01*
X20657000Y-13271600D01*
X20712000Y-13326600D01*
X20657000Y-13666600D02*
X20767000Y-13776600D01*
X20767000Y-13666600D02*
X20657000Y-13776600D01*
X20712000Y-13776600D02*
X20767000Y-13721600D01*
X20712000Y-13666600D01*
X20657000Y-13721600D01*
X20712000Y-13776600D01*
X21207000Y-13216600D02*
X21317000Y-13326600D01*
X21317000Y-13216600D02*
X21207000Y-13326600D01*
X21262000Y-13326600D02*
X21317000Y-13271600D01*
X21262000Y-13216600D01*
X21207000Y-13271600D01*
X21262000Y-13326600D01*
X21207000Y-13666600D02*
X21317000Y-13776600D01*
X21317000Y-13666600D02*
X21207000Y-13776600D01*
X21262000Y-13776600D02*
X21317000Y-13721600D01*
X21262000Y-13666600D01*
X21207000Y-13721600D01*
X21262000Y-13776600D01*
X21857000Y-13216600D02*
X21967000Y-13326600D01*
X21967000Y-13216600D02*
X21857000Y-13326600D01*
X21912000Y-13326600D02*
X21967000Y-13271600D01*
X21912000Y-13216600D01*
X21857000Y-13271600D01*
X21912000Y-13326600D01*
X21857000Y-13666600D02*
X21967000Y-13776600D01*
X21967000Y-13666600D02*
X21857000Y-13776600D01*
X21912000Y-13776600D02*
X21967000Y-13721600D01*
X21912000Y-13666600D01*
X21857000Y-13721600D01*
X21912000Y-13776600D01*
X22254200Y-5224600D02*
X22364200Y-5334600D01*
X22364200Y-5224600D02*
X22254200Y-5334600D01*
X22309200Y-5334600D02*
X22364200Y-5279600D01*
X22309200Y-5224600D01*
X22254200Y-5279600D01*
X22309200Y-5334600D01*
X22254200Y-5674600D02*
X22364200Y-5784600D01*
X22364200Y-5674600D02*
X22254200Y-5784600D01*
X22309200Y-5784600D02*
X22364200Y-5729600D01*
X22309200Y-5674600D01*
X22254200Y-5729600D01*
X22309200Y-5784600D01*
X22381200Y-13216600D02*
X22491200Y-13326600D01*
X22491200Y-13216600D02*
X22381200Y-13326600D01*
X22436200Y-13326600D02*
X22491200Y-13271600D01*
X22436200Y-13216600D01*
X22381200Y-13271600D01*
X22436200Y-13326600D01*
X22381200Y-13666600D02*
X22491200Y-13776600D01*
X22491200Y-13666600D02*
X22381200Y-13776600D01*
X22436200Y-13776600D02*
X22491200Y-13721600D01*
X22436200Y-13666600D01*
X22381200Y-13721600D01*
X22436200Y-13776600D01*
X22904200Y-5224600D02*
X23014200Y-5334600D01*
X23014200Y-5224600D02*
X22904200Y-5334600D01*
X22959200Y-5334600D02*
X23014200Y-5279600D01*
X22959200Y-5224600D01*
X22904200Y-5279600D01*
X22959200Y-5334600D01*
X22904200Y-5674600D02*
X23014200Y-5784600D01*
X23014200Y-5674600D02*
X22904200Y-5784600D01*
X22959200Y-5784600D02*
X23014200Y-5729600D01*
X22959200Y-5674600D01*
X22904200Y-5729600D01*
X22959200Y-5784600D01*
X23031200Y-13216600D02*
X23141200Y-13326600D01*
X23141200Y-13216600D02*
X23031200Y-13326600D01*
X23086200Y-13326600D02*
X23141200Y-13271600D01*
X23086200Y-13216600D01*
X23031200Y-13271600D01*
X23086200Y-13326600D01*
X23031200Y-13666600D02*
X23141200Y-13776600D01*
X23141200Y-13666600D02*
X23031200Y-13776600D01*
X23086200Y-13776600D02*
X23141200Y-13721600D01*
X23086200Y-13666600D01*
X23031200Y-13721600D01*
X23086200Y-13776600D01*
D21*
X13497200Y-11499600D02*
X13497200Y-11705600D01*
X13394200Y-11602600D02*
X13600200Y-11602600D01*
X13600200Y-11602600D02*
G75*
G03*
X13600200Y-11602600I-103000J0D01*
G01*
X13497200Y-12239600D02*
X13497200Y-12445600D01*
X13394200Y-12342600D02*
X13600200Y-12342600D01*
X13600200Y-12342600D02*
G75*
G03*
X13600200Y-12342600I-103000J0D01*
G01*
X13972200Y-11499600D02*
X13972200Y-11705600D01*
X13869200Y-11602600D02*
X14075200Y-11602600D01*
X14075200Y-11602600D02*
G75*
G03*
X14075200Y-11602600I-103000J0D01*
G01*
X13972200Y-12239600D02*
X13972200Y-12445600D01*
X13869200Y-12342600D02*
X14075200Y-12342600D01*
X14075200Y-12342600D02*
G75*
G03*
X14075200Y-12342600I-103000J0D01*
G01*
D22*
X17736467Y-10135567D02*
X17736467Y-9923433D01*
X17524333Y-9923433D01*
X17524333Y-10135567D01*
X17736467Y-10135567D01*
X17780400Y-10029500D02*
G75*
G03*
X17780400Y-10029500I-150000J0D01*
G01*
X18408767Y-9090267D02*
X18408767Y-8878133D01*
X18196633Y-8878133D01*
X18196633Y-9090267D01*
X18408767Y-9090267D01*
X18452700Y-8984200D02*
G75*
G03*
X18452700Y-8984200I-150000J0D01*
G01*
X19940767Y-9090267D02*
X19940767Y-8878133D01*
X19728633Y-8878133D01*
X19728633Y-9090267D01*
X19940767Y-9090267D01*
X19984700Y-8984200D02*
G75*
G03*
X19984700Y-8984200I-150000J0D01*
G01*
X20632067Y-10135567D02*
X20632067Y-9923433D01*
X20419933Y-9923433D01*
X20419933Y-10135567D01*
X20632067Y-10135567D01*
X20676000Y-10029500D02*
G75*
G03*
X20676000Y-10029500I-150000J0D01*
G01*
D11*
X13325819Y-15899221D02*
X13325819Y-15699221D01*
X13373438Y-15699221D01*
X13402010Y-15708745D01*
X13421058Y-15727793D01*
X13430581Y-15746840D01*
X13440105Y-15784935D01*
X13440105Y-15813507D01*
X13430581Y-15851602D01*
X13421058Y-15870650D01*
X13402010Y-15889697D01*
X13373438Y-15899221D01*
X13325819Y-15899221D01*
X13525819Y-15899221D02*
X13525819Y-15765888D01*
X13525819Y-15803983D02*
X13535343Y-15784935D01*
X13544867Y-15775412D01*
X13563915Y-15765888D01*
X13582962Y-15765888D01*
X13649629Y-15899221D02*
X13649629Y-15765888D01*
X13649629Y-15699221D02*
X13640105Y-15708745D01*
X13649629Y-15718269D01*
X13659153Y-15708745D01*
X13649629Y-15699221D01*
X13649629Y-15718269D01*
X13773438Y-15899221D02*
X13754391Y-15889697D01*
X13744867Y-15870650D01*
X13744867Y-15699221D01*
X13878200Y-15899221D02*
X13859153Y-15889697D01*
X13849629Y-15870650D01*
X13849629Y-15699221D01*
X14106772Y-15899221D02*
X14106772Y-15699221D01*
X14173438Y-15842078D01*
X14240105Y-15699221D01*
X14240105Y-15899221D01*
X14421058Y-15899221D02*
X14421058Y-15794459D01*
X14411534Y-15775412D01*
X14392486Y-15765888D01*
X14354391Y-15765888D01*
X14335343Y-15775412D01*
X14421058Y-15889697D02*
X14402010Y-15899221D01*
X14354391Y-15899221D01*
X14335343Y-15889697D01*
X14325819Y-15870650D01*
X14325819Y-15851602D01*
X14335343Y-15832554D01*
X14354391Y-15823031D01*
X14402010Y-15823031D01*
X14421058Y-15813507D01*
X14516296Y-15765888D02*
X14516296Y-15965888D01*
X14516296Y-15775412D02*
X14535343Y-15765888D01*
X14573438Y-15765888D01*
X14592486Y-15775412D01*
X14602010Y-15784935D01*
X14611534Y-15803983D01*
X14611534Y-15861126D01*
X14602010Y-15880173D01*
X14592486Y-15889697D01*
X14573438Y-15899221D01*
X14535343Y-15899221D01*
X14516296Y-15889697D01*
X14697248Y-15880173D02*
X14706772Y-15889697D01*
X14697248Y-15899221D01*
X14687724Y-15889697D01*
X14697248Y-15880173D01*
X14697248Y-15899221D01*
X14697248Y-15775412D02*
X14706772Y-15784935D01*
X14697248Y-15794459D01*
X14687724Y-15784935D01*
X14697248Y-15775412D01*
X14697248Y-15794459D01*
D12*
X13028200Y-16208745D02*
X13068200Y-16248745D01*
X13068200Y-16208745D02*
X13028200Y-16248745D01*
D11*
X13363915Y-16119221D02*
X13382962Y-16119221D01*
X13402010Y-16128745D01*
X13411534Y-16138269D01*
X13421058Y-16157316D01*
X13430581Y-16195412D01*
X13430581Y-16243031D01*
X13421058Y-16281126D01*
X13411534Y-16300173D01*
X13402010Y-16309697D01*
X13382962Y-16319221D01*
X13363915Y-16319221D01*
X13344867Y-16309697D01*
X13335343Y-16300173D01*
X13325819Y-16281126D01*
X13316296Y-16243031D01*
X13316296Y-16195412D01*
X13325819Y-16157316D01*
X13335343Y-16138269D01*
X13344867Y-16128745D01*
X13363915Y-16119221D01*
X13516296Y-16300173D02*
X13525819Y-16309697D01*
X13516296Y-16319221D01*
X13506772Y-16309697D01*
X13516296Y-16300173D01*
X13516296Y-16319221D01*
X13697248Y-16185888D02*
X13697248Y-16319221D01*
X13649629Y-16109697D02*
X13602010Y-16252554D01*
X13725819Y-16252554D01*
X13840105Y-16119221D02*
X13859153Y-16119221D01*
X13878200Y-16128745D01*
X13887724Y-16138269D01*
X13897248Y-16157316D01*
X13906772Y-16195412D01*
X13906772Y-16243031D01*
X13897248Y-16281126D01*
X13887724Y-16300173D01*
X13878200Y-16309697D01*
X13859153Y-16319221D01*
X13840105Y-16319221D01*
X13821058Y-16309697D01*
X13811534Y-16300173D01*
X13802010Y-16281126D01*
X13792486Y-16243031D01*
X13792486Y-16195412D01*
X13802010Y-16157316D01*
X13811534Y-16138269D01*
X13821058Y-16128745D01*
X13840105Y-16119221D01*
X14030581Y-16119221D02*
X14049629Y-16119221D01*
X14068677Y-16128745D01*
X14078200Y-16138269D01*
X14087724Y-16157316D01*
X14097248Y-16195412D01*
X14097248Y-16243031D01*
X14087724Y-16281126D01*
X14078200Y-16300173D01*
X14068677Y-16309697D01*
X14049629Y-16319221D01*
X14030581Y-16319221D01*
X14011534Y-16309697D01*
X14002010Y-16300173D01*
X13992486Y-16281126D01*
X13982962Y-16243031D01*
X13982962Y-16195412D01*
X13992486Y-16157316D01*
X14002010Y-16138269D01*
X14011534Y-16128745D01*
X14030581Y-16119221D01*
X14182962Y-16319221D02*
X14182962Y-16185888D01*
X14182962Y-16204935D02*
X14192486Y-16195412D01*
X14211534Y-16185888D01*
X14240105Y-16185888D01*
X14259153Y-16195412D01*
X14268677Y-16214459D01*
X14268677Y-16319221D01*
X14268677Y-16214459D02*
X14278200Y-16195412D01*
X14297248Y-16185888D01*
X14325819Y-16185888D01*
X14344867Y-16195412D01*
X14354391Y-16214459D01*
X14354391Y-16319221D01*
X14449629Y-16319221D02*
X14449629Y-16185888D01*
X14449629Y-16204935D02*
X14459153Y-16195412D01*
X14478200Y-16185888D01*
X14506772Y-16185888D01*
X14525819Y-16195412D01*
X14535343Y-16214459D01*
X14535343Y-16319221D01*
X14535343Y-16214459D02*
X14544867Y-16195412D01*
X14563915Y-16185888D01*
X14592486Y-16185888D01*
X14611534Y-16195412D01*
X14621058Y-16214459D01*
X14621058Y-16319221D01*
X15011534Y-16109697D02*
X14840105Y-16366840D01*
X15268677Y-16119221D02*
X15287724Y-16119221D01*
X15306772Y-16128745D01*
X15316296Y-16138269D01*
X15325819Y-16157316D01*
X15335343Y-16195412D01*
X15335343Y-16243031D01*
X15325819Y-16281126D01*
X15316296Y-16300173D01*
X15306772Y-16309697D01*
X15287724Y-16319221D01*
X15268677Y-16319221D01*
X15249629Y-16309697D01*
X15240105Y-16300173D01*
X15230581Y-16281126D01*
X15221058Y-16243031D01*
X15221058Y-16195412D01*
X15230581Y-16157316D01*
X15240105Y-16138269D01*
X15249629Y-16128745D01*
X15268677Y-16119221D01*
X15421058Y-16300173D02*
X15430581Y-16309697D01*
X15421058Y-16319221D01*
X15411534Y-16309697D01*
X15421058Y-16300173D01*
X15421058Y-16319221D01*
X15554391Y-16119221D02*
X15573438Y-16119221D01*
X15592486Y-16128745D01*
X15602010Y-16138269D01*
X15611534Y-16157316D01*
X15621058Y-16195412D01*
X15621058Y-16243031D01*
X15611534Y-16281126D01*
X15602010Y-16300173D01*
X15592486Y-16309697D01*
X15573438Y-16319221D01*
X15554391Y-16319221D01*
X15535343Y-16309697D01*
X15525819Y-16300173D01*
X15516296Y-16281126D01*
X15506772Y-16243031D01*
X15506772Y-16195412D01*
X15516296Y-16157316D01*
X15525819Y-16138269D01*
X15535343Y-16128745D01*
X15554391Y-16119221D01*
X15811534Y-16319221D02*
X15697248Y-16319221D01*
X15754391Y-16319221D02*
X15754391Y-16119221D01*
X15735343Y-16147793D01*
X15716296Y-16166840D01*
X15697248Y-16176364D01*
X15992486Y-16119221D02*
X15897248Y-16119221D01*
X15887724Y-16214459D01*
X15897248Y-16204935D01*
X15916296Y-16195412D01*
X15963915Y-16195412D01*
X15982962Y-16204935D01*
X15992486Y-16214459D01*
X16002010Y-16233507D01*
X16002010Y-16281126D01*
X15992486Y-16300173D01*
X15982962Y-16309697D01*
X15963915Y-16319221D01*
X15916296Y-16319221D01*
X15897248Y-16309697D01*
X15887724Y-16300173D01*
X16068677Y-16119221D02*
X16202010Y-16119221D01*
X16116296Y-16319221D01*
X16268677Y-16119221D02*
X16268677Y-16157316D01*
X16344867Y-16119221D02*
X16344867Y-16157316D01*
X16640105Y-16395412D02*
X16630581Y-16385888D01*
X16611534Y-16357316D01*
X16602010Y-16338269D01*
X16592486Y-16309697D01*
X16582962Y-16262078D01*
X16582962Y-16223983D01*
X16592486Y-16176364D01*
X16602010Y-16147793D01*
X16611534Y-16128745D01*
X16630581Y-16100173D01*
X16640105Y-16090650D01*
X16821058Y-16319221D02*
X16706772Y-16319221D01*
X16763915Y-16319221D02*
X16763915Y-16119221D01*
X16744867Y-16147793D01*
X16725819Y-16166840D01*
X16706772Y-16176364D01*
X16916296Y-16319221D02*
X16954391Y-16319221D01*
X16973439Y-16309697D01*
X16982962Y-16300173D01*
X17002010Y-16271602D01*
X17011534Y-16233507D01*
X17011534Y-16157316D01*
X17002010Y-16138269D01*
X16992486Y-16128745D01*
X16973439Y-16119221D01*
X16935343Y-16119221D01*
X16916296Y-16128745D01*
X16906772Y-16138269D01*
X16897248Y-16157316D01*
X16897248Y-16204935D01*
X16906772Y-16223983D01*
X16916296Y-16233507D01*
X16935343Y-16243031D01*
X16973439Y-16243031D01*
X16992486Y-16233507D01*
X17002010Y-16223983D01*
X17011534Y-16204935D01*
X17249629Y-16319221D02*
X17249629Y-16119221D01*
X17335343Y-16319221D02*
X17335343Y-16214459D01*
X17325820Y-16195412D01*
X17306772Y-16185888D01*
X17278200Y-16185888D01*
X17259153Y-16195412D01*
X17249629Y-16204935D01*
X17459153Y-16319221D02*
X17440105Y-16309697D01*
X17430581Y-16300173D01*
X17421058Y-16281126D01*
X17421058Y-16223983D01*
X17430581Y-16204935D01*
X17440105Y-16195412D01*
X17459153Y-16185888D01*
X17487724Y-16185888D01*
X17506772Y-16195412D01*
X17516296Y-16204935D01*
X17525820Y-16223983D01*
X17525820Y-16281126D01*
X17516296Y-16300173D01*
X17506772Y-16309697D01*
X17487724Y-16319221D01*
X17459153Y-16319221D01*
X17640105Y-16319221D02*
X17621058Y-16309697D01*
X17611534Y-16290650D01*
X17611534Y-16119221D01*
X17792486Y-16309697D02*
X17773439Y-16319221D01*
X17735343Y-16319221D01*
X17716296Y-16309697D01*
X17706772Y-16290650D01*
X17706772Y-16214459D01*
X17716296Y-16195412D01*
X17735343Y-16185888D01*
X17773439Y-16185888D01*
X17792486Y-16195412D01*
X17802010Y-16214459D01*
X17802010Y-16233507D01*
X17706772Y-16252554D01*
X17878200Y-16309697D02*
X17897248Y-16319221D01*
X17935343Y-16319221D01*
X17954391Y-16309697D01*
X17963915Y-16290650D01*
X17963915Y-16281126D01*
X17954391Y-16262078D01*
X17935343Y-16252554D01*
X17906772Y-16252554D01*
X17887724Y-16243031D01*
X17878200Y-16223983D01*
X17878200Y-16214459D01*
X17887724Y-16195412D01*
X17906772Y-16185888D01*
X17935343Y-16185888D01*
X17954391Y-16195412D01*
X18030581Y-16395412D02*
X18040105Y-16385888D01*
X18059153Y-16357316D01*
X18068677Y-16338269D01*
X18078200Y-16309697D01*
X18087724Y-16262078D01*
X18087724Y-16223983D01*
X18078200Y-16176364D01*
X18068677Y-16147793D01*
X18059153Y-16128745D01*
X18040105Y-16100173D01*
X18030581Y-16090650D01*
D13*
X13068200Y-16492745D02*
G75*
G03*
X13068200Y-16492745I-35000J0D01*
G01*
D11*
X13363915Y-16383221D02*
X13382962Y-16383221D01*
X13402010Y-16392745D01*
X13411534Y-16402269D01*
X13421058Y-16421316D01*
X13430581Y-16459412D01*
X13430581Y-16507031D01*
X13421058Y-16545126D01*
X13411534Y-16564173D01*
X13402010Y-16573697D01*
X13382962Y-16583221D01*
X13363915Y-16583221D01*
X13344867Y-16573697D01*
X13335343Y-16564173D01*
X13325819Y-16545126D01*
X13316296Y-16507031D01*
X13316296Y-16459412D01*
X13325819Y-16421316D01*
X13335343Y-16402269D01*
X13344867Y-16392745D01*
X13363915Y-16383221D01*
X13516296Y-16564173D02*
X13525819Y-16573697D01*
X13516296Y-16583221D01*
X13506772Y-16573697D01*
X13516296Y-16564173D01*
X13516296Y-16583221D01*
X13592486Y-16383221D02*
X13725819Y-16383221D01*
X13640105Y-16583221D01*
X13840105Y-16383221D02*
X13859153Y-16383221D01*
X13878200Y-16392745D01*
X13887724Y-16402269D01*
X13897248Y-16421316D01*
X13906772Y-16459412D01*
X13906772Y-16507031D01*
X13897248Y-16545126D01*
X13887724Y-16564173D01*
X13878200Y-16573697D01*
X13859153Y-16583221D01*
X13840105Y-16583221D01*
X13821058Y-16573697D01*
X13811534Y-16564173D01*
X13802010Y-16545126D01*
X13792486Y-16507031D01*
X13792486Y-16459412D01*
X13802010Y-16421316D01*
X13811534Y-16402269D01*
X13821058Y-16392745D01*
X13840105Y-16383221D01*
X14030581Y-16383221D02*
X14049629Y-16383221D01*
X14068677Y-16392745D01*
X14078200Y-16402269D01*
X14087724Y-16421316D01*
X14097248Y-16459412D01*
X14097248Y-16507031D01*
X14087724Y-16545126D01*
X14078200Y-16564173D01*
X14068677Y-16573697D01*
X14049629Y-16583221D01*
X14030581Y-16583221D01*
X14011534Y-16573697D01*
X14002010Y-16564173D01*
X13992486Y-16545126D01*
X13982962Y-16507031D01*
X13982962Y-16459412D01*
X13992486Y-16421316D01*
X14002010Y-16402269D01*
X14011534Y-16392745D01*
X14030581Y-16383221D01*
X14182962Y-16583221D02*
X14182962Y-16449888D01*
X14182962Y-16468935D02*
X14192486Y-16459412D01*
X14211534Y-16449888D01*
X14240105Y-16449888D01*
X14259153Y-16459412D01*
X14268677Y-16478459D01*
X14268677Y-16583221D01*
X14268677Y-16478459D02*
X14278200Y-16459412D01*
X14297248Y-16449888D01*
X14325819Y-16449888D01*
X14344867Y-16459412D01*
X14354391Y-16478459D01*
X14354391Y-16583221D01*
X14449629Y-16583221D02*
X14449629Y-16449888D01*
X14449629Y-16468935D02*
X14459153Y-16459412D01*
X14478200Y-16449888D01*
X14506772Y-16449888D01*
X14525819Y-16459412D01*
X14535343Y-16478459D01*
X14535343Y-16583221D01*
X14535343Y-16478459D02*
X14544867Y-16459412D01*
X14563915Y-16449888D01*
X14592486Y-16449888D01*
X14611534Y-16459412D01*
X14621058Y-16478459D01*
X14621058Y-16583221D01*
X15011534Y-16373697D02*
X14840105Y-16630840D01*
X15268677Y-16383221D02*
X15287724Y-16383221D01*
X15306772Y-16392745D01*
X15316296Y-16402269D01*
X15325819Y-16421316D01*
X15335343Y-16459412D01*
X15335343Y-16507031D01*
X15325819Y-16545126D01*
X15316296Y-16564173D01*
X15306772Y-16573697D01*
X15287724Y-16583221D01*
X15268677Y-16583221D01*
X15249629Y-16573697D01*
X15240105Y-16564173D01*
X15230581Y-16545126D01*
X15221058Y-16507031D01*
X15221058Y-16459412D01*
X15230581Y-16421316D01*
X15240105Y-16402269D01*
X15249629Y-16392745D01*
X15268677Y-16383221D01*
X15421058Y-16564173D02*
X15430581Y-16573697D01*
X15421058Y-16583221D01*
X15411534Y-16573697D01*
X15421058Y-16564173D01*
X15421058Y-16583221D01*
X15554391Y-16383221D02*
X15573438Y-16383221D01*
X15592486Y-16392745D01*
X15602010Y-16402269D01*
X15611534Y-16421316D01*
X15621058Y-16459412D01*
X15621058Y-16507031D01*
X15611534Y-16545126D01*
X15602010Y-16564173D01*
X15592486Y-16573697D01*
X15573438Y-16583221D01*
X15554391Y-16583221D01*
X15535343Y-16573697D01*
X15525819Y-16564173D01*
X15516296Y-16545126D01*
X15506772Y-16507031D01*
X15506772Y-16459412D01*
X15516296Y-16421316D01*
X15525819Y-16402269D01*
X15535343Y-16392745D01*
X15554391Y-16383221D01*
X15697248Y-16402269D02*
X15706772Y-16392745D01*
X15725819Y-16383221D01*
X15773438Y-16383221D01*
X15792486Y-16392745D01*
X15802010Y-16402269D01*
X15811534Y-16421316D01*
X15811534Y-16440364D01*
X15802010Y-16468935D01*
X15687724Y-16583221D01*
X15811534Y-16583221D01*
X15878200Y-16383221D02*
X16011534Y-16383221D01*
X15925819Y-16583221D01*
X16173438Y-16383221D02*
X16135343Y-16383221D01*
X16116296Y-16392745D01*
X16106772Y-16402269D01*
X16087724Y-16430840D01*
X16078200Y-16468935D01*
X16078200Y-16545126D01*
X16087724Y-16564173D01*
X16097248Y-16573697D01*
X16116296Y-16583221D01*
X16154391Y-16583221D01*
X16173438Y-16573697D01*
X16182962Y-16564173D01*
X16192486Y-16545126D01*
X16192486Y-16497507D01*
X16182962Y-16478459D01*
X16173438Y-16468935D01*
X16154391Y-16459412D01*
X16116296Y-16459412D01*
X16097248Y-16468935D01*
X16087724Y-16478459D01*
X16078200Y-16497507D01*
X16268677Y-16383221D02*
X16268677Y-16421316D01*
X16344867Y-16383221D02*
X16344867Y-16421316D01*
X16640105Y-16659412D02*
X16630581Y-16649888D01*
X16611534Y-16621316D01*
X16602010Y-16602269D01*
X16592486Y-16573697D01*
X16582962Y-16526078D01*
X16582962Y-16487983D01*
X16592486Y-16440364D01*
X16602010Y-16411793D01*
X16611534Y-16392745D01*
X16630581Y-16364173D01*
X16640105Y-16354650D01*
X16706772Y-16402269D02*
X16716296Y-16392745D01*
X16735343Y-16383221D01*
X16782962Y-16383221D01*
X16802010Y-16392745D01*
X16811534Y-16402269D01*
X16821058Y-16421316D01*
X16821058Y-16440364D01*
X16811534Y-16468935D01*
X16697248Y-16583221D01*
X16821058Y-16583221D01*
X17011534Y-16583221D02*
X16897248Y-16583221D01*
X16954391Y-16583221D02*
X16954391Y-16383221D01*
X16935343Y-16411793D01*
X16916296Y-16430840D01*
X16897248Y-16440364D01*
X17249629Y-16583221D02*
X17249629Y-16383221D01*
X17335343Y-16583221D02*
X17335343Y-16478459D01*
X17325820Y-16459412D01*
X17306772Y-16449888D01*
X17278200Y-16449888D01*
X17259153Y-16459412D01*
X17249629Y-16468935D01*
X17459153Y-16583221D02*
X17440105Y-16573697D01*
X17430581Y-16564173D01*
X17421058Y-16545126D01*
X17421058Y-16487983D01*
X17430581Y-16468935D01*
X17440105Y-16459412D01*
X17459153Y-16449888D01*
X17487724Y-16449888D01*
X17506772Y-16459412D01*
X17516296Y-16468935D01*
X17525820Y-16487983D01*
X17525820Y-16545126D01*
X17516296Y-16564173D01*
X17506772Y-16573697D01*
X17487724Y-16583221D01*
X17459153Y-16583221D01*
X17640105Y-16583221D02*
X17621058Y-16573697D01*
X17611534Y-16554650D01*
X17611534Y-16383221D01*
X17792486Y-16573697D02*
X17773439Y-16583221D01*
X17735343Y-16583221D01*
X17716296Y-16573697D01*
X17706772Y-16554650D01*
X17706772Y-16478459D01*
X17716296Y-16459412D01*
X17735343Y-16449888D01*
X17773439Y-16449888D01*
X17792486Y-16459412D01*
X17802010Y-16478459D01*
X17802010Y-16497507D01*
X17706772Y-16516554D01*
X17878200Y-16573697D02*
X17897248Y-16583221D01*
X17935343Y-16583221D01*
X17954391Y-16573697D01*
X17963915Y-16554650D01*
X17963915Y-16545126D01*
X17954391Y-16526078D01*
X17935343Y-16516554D01*
X17906772Y-16516554D01*
X17887724Y-16507031D01*
X17878200Y-16487983D01*
X17878200Y-16478459D01*
X17887724Y-16459412D01*
X17906772Y-16449888D01*
X17935343Y-16449888D01*
X17954391Y-16459412D01*
X18030581Y-16659412D02*
X18040105Y-16649888D01*
X18059153Y-16621316D01*
X18068677Y-16602269D01*
X18078200Y-16573697D01*
X18087724Y-16526078D01*
X18087724Y-16487983D01*
X18078200Y-16440364D01*
X18068677Y-16411793D01*
X18059153Y-16392745D01*
X18040105Y-16364173D01*
X18030581Y-16354650D01*
D14*
X13028200Y-16716745D02*
X13028200Y-16796745D01*
X12988200Y-16756745D02*
X13068200Y-16756745D01*
D11*
X13363915Y-16647221D02*
X13382962Y-16647221D01*
X13402010Y-16656745D01*
X13411534Y-16666269D01*
X13421058Y-16685316D01*
X13430581Y-16723412D01*
X13430581Y-16771031D01*
X13421058Y-16809126D01*
X13411534Y-16828174D01*
X13402010Y-16837697D01*
X13382962Y-16847221D01*
X13363915Y-16847221D01*
X13344867Y-16837697D01*
X13335343Y-16828174D01*
X13325819Y-16809126D01*
X13316296Y-16771031D01*
X13316296Y-16723412D01*
X13325819Y-16685316D01*
X13335343Y-16666269D01*
X13344867Y-16656745D01*
X13363915Y-16647221D01*
X13516296Y-16828174D02*
X13525819Y-16837697D01*
X13516296Y-16847221D01*
X13506772Y-16837697D01*
X13516296Y-16828174D01*
X13516296Y-16847221D01*
X13640105Y-16732935D02*
X13621058Y-16723412D01*
X13611534Y-16713888D01*
X13602010Y-16694840D01*
X13602010Y-16685316D01*
X13611534Y-16666269D01*
X13621058Y-16656745D01*
X13640105Y-16647221D01*
X13678200Y-16647221D01*
X13697248Y-16656745D01*
X13706772Y-16666269D01*
X13716296Y-16685316D01*
X13716296Y-16694840D01*
X13706772Y-16713888D01*
X13697248Y-16723412D01*
X13678200Y-16732935D01*
X13640105Y-16732935D01*
X13621058Y-16742459D01*
X13611534Y-16751983D01*
X13602010Y-16771031D01*
X13602010Y-16809126D01*
X13611534Y-16828174D01*
X13621058Y-16837697D01*
X13640105Y-16847221D01*
X13678200Y-16847221D01*
X13697248Y-16837697D01*
X13706772Y-16828174D01*
X13716296Y-16809126D01*
X13716296Y-16771031D01*
X13706772Y-16751983D01*
X13697248Y-16742459D01*
X13678200Y-16732935D01*
X13840105Y-16647221D02*
X13859153Y-16647221D01*
X13878200Y-16656745D01*
X13887724Y-16666269D01*
X13897248Y-16685316D01*
X13906772Y-16723412D01*
X13906772Y-16771031D01*
X13897248Y-16809126D01*
X13887724Y-16828174D01*
X13878200Y-16837697D01*
X13859153Y-16847221D01*
X13840105Y-16847221D01*
X13821058Y-16837697D01*
X13811534Y-16828174D01*
X13802010Y-16809126D01*
X13792486Y-16771031D01*
X13792486Y-16723412D01*
X13802010Y-16685316D01*
X13811534Y-16666269D01*
X13821058Y-16656745D01*
X13840105Y-16647221D01*
X14030581Y-16647221D02*
X14049629Y-16647221D01*
X14068677Y-16656745D01*
X14078200Y-16666269D01*
X14087724Y-16685316D01*
X14097248Y-16723412D01*
X14097248Y-16771031D01*
X14087724Y-16809126D01*
X14078200Y-16828174D01*
X14068677Y-16837697D01*
X14049629Y-16847221D01*
X14030581Y-16847221D01*
X14011534Y-16837697D01*
X14002010Y-16828174D01*
X13992486Y-16809126D01*
X13982962Y-16771031D01*
X13982962Y-16723412D01*
X13992486Y-16685316D01*
X14002010Y-16666269D01*
X14011534Y-16656745D01*
X14030581Y-16647221D01*
X14182962Y-16847221D02*
X14182962Y-16713888D01*
X14182962Y-16732935D02*
X14192486Y-16723412D01*
X14211534Y-16713888D01*
X14240105Y-16713888D01*
X14259153Y-16723412D01*
X14268677Y-16742459D01*
X14268677Y-16847221D01*
X14268677Y-16742459D02*
X14278200Y-16723412D01*
X14297248Y-16713888D01*
X14325819Y-16713888D01*
X14344867Y-16723412D01*
X14354391Y-16742459D01*
X14354391Y-16847221D01*
X14449629Y-16847221D02*
X14449629Y-16713888D01*
X14449629Y-16732935D02*
X14459153Y-16723412D01*
X14478200Y-16713888D01*
X14506772Y-16713888D01*
X14525819Y-16723412D01*
X14535343Y-16742459D01*
X14535343Y-16847221D01*
X14535343Y-16742459D02*
X14544867Y-16723412D01*
X14563915Y-16713888D01*
X14592486Y-16713888D01*
X14611534Y-16723412D01*
X14621058Y-16742459D01*
X14621058Y-16847221D01*
X15011534Y-16637697D02*
X14840105Y-16894840D01*
X15268677Y-16647221D02*
X15287724Y-16647221D01*
X15306772Y-16656745D01*
X15316296Y-16666269D01*
X15325819Y-16685316D01*
X15335343Y-16723412D01*
X15335343Y-16771031D01*
X15325819Y-16809126D01*
X15316296Y-16828174D01*
X15306772Y-16837697D01*
X15287724Y-16847221D01*
X15268677Y-16847221D01*
X15249629Y-16837697D01*
X15240105Y-16828174D01*
X15230581Y-16809126D01*
X15221058Y-16771031D01*
X15221058Y-16723412D01*
X15230581Y-16685316D01*
X15240105Y-16666269D01*
X15249629Y-16656745D01*
X15268677Y-16647221D01*
X15421058Y-16828174D02*
X15430581Y-16837697D01*
X15421058Y-16847221D01*
X15411534Y-16837697D01*
X15421058Y-16828174D01*
X15421058Y-16847221D01*
X15554391Y-16647221D02*
X15573438Y-16647221D01*
X15592486Y-16656745D01*
X15602010Y-16666269D01*
X15611534Y-16685316D01*
X15621058Y-16723412D01*
X15621058Y-16771031D01*
X15611534Y-16809126D01*
X15602010Y-16828174D01*
X15592486Y-16837697D01*
X15573438Y-16847221D01*
X15554391Y-16847221D01*
X15535343Y-16837697D01*
X15525819Y-16828174D01*
X15516296Y-16809126D01*
X15506772Y-16771031D01*
X15506772Y-16723412D01*
X15516296Y-16685316D01*
X15525819Y-16666269D01*
X15535343Y-16656745D01*
X15554391Y-16647221D01*
X15687724Y-16647221D02*
X15811534Y-16647221D01*
X15744867Y-16723412D01*
X15773438Y-16723412D01*
X15792486Y-16732935D01*
X15802010Y-16742459D01*
X15811534Y-16761507D01*
X15811534Y-16809126D01*
X15802010Y-16828174D01*
X15792486Y-16837697D01*
X15773438Y-16847221D01*
X15716296Y-16847221D01*
X15697248Y-16837697D01*
X15687724Y-16828174D01*
X16002010Y-16847221D02*
X15887724Y-16847221D01*
X15944867Y-16847221D02*
X15944867Y-16647221D01*
X15925819Y-16675793D01*
X15906772Y-16694840D01*
X15887724Y-16704364D01*
X16182962Y-16647221D02*
X16087724Y-16647221D01*
X16078200Y-16742459D01*
X16087724Y-16732935D01*
X16106772Y-16723412D01*
X16154391Y-16723412D01*
X16173438Y-16732935D01*
X16182962Y-16742459D01*
X16192486Y-16761507D01*
X16192486Y-16809126D01*
X16182962Y-16828174D01*
X16173438Y-16837697D01*
X16154391Y-16847221D01*
X16106772Y-16847221D01*
X16087724Y-16837697D01*
X16078200Y-16828174D01*
X16268677Y-16647221D02*
X16268677Y-16685316D01*
X16344867Y-16647221D02*
X16344867Y-16685316D01*
X16640105Y-16923412D02*
X16630581Y-16913888D01*
X16611534Y-16885316D01*
X16602010Y-16866269D01*
X16592486Y-16837697D01*
X16582962Y-16790078D01*
X16582962Y-16751983D01*
X16592486Y-16704364D01*
X16602010Y-16675793D01*
X16611534Y-16656745D01*
X16630581Y-16628173D01*
X16640105Y-16618650D01*
X16697248Y-16647221D02*
X16821058Y-16647221D01*
X16754391Y-16723412D01*
X16782962Y-16723412D01*
X16802010Y-16732935D01*
X16811534Y-16742459D01*
X16821058Y-16761507D01*
X16821058Y-16809126D01*
X16811534Y-16828174D01*
X16802010Y-16837697D01*
X16782962Y-16847221D01*
X16725819Y-16847221D01*
X16706772Y-16837697D01*
X16697248Y-16828174D01*
X17011534Y-16847221D02*
X16897248Y-16847221D01*
X16954391Y-16847221D02*
X16954391Y-16647221D01*
X16935343Y-16675793D01*
X16916296Y-16694840D01*
X16897248Y-16704364D01*
X17249629Y-16847221D02*
X17249629Y-16647221D01*
X17335343Y-16847221D02*
X17335343Y-16742459D01*
X17325820Y-16723412D01*
X17306772Y-16713888D01*
X17278200Y-16713888D01*
X17259153Y-16723412D01*
X17249629Y-16732935D01*
X17459153Y-16847221D02*
X17440105Y-16837697D01*
X17430581Y-16828174D01*
X17421058Y-16809126D01*
X17421058Y-16751983D01*
X17430581Y-16732935D01*
X17440105Y-16723412D01*
X17459153Y-16713888D01*
X17487724Y-16713888D01*
X17506772Y-16723412D01*
X17516296Y-16732935D01*
X17525820Y-16751983D01*
X17525820Y-16809126D01*
X17516296Y-16828174D01*
X17506772Y-16837697D01*
X17487724Y-16847221D01*
X17459153Y-16847221D01*
X17640105Y-16847221D02*
X17621058Y-16837697D01*
X17611534Y-16818650D01*
X17611534Y-16647221D01*
X17792486Y-16837697D02*
X17773439Y-16847221D01*
X17735343Y-16847221D01*
X17716296Y-16837697D01*
X17706772Y-16818650D01*
X17706772Y-16742459D01*
X17716296Y-16723412D01*
X17735343Y-16713888D01*
X17773439Y-16713888D01*
X17792486Y-16723412D01*
X17802010Y-16742459D01*
X17802010Y-16761507D01*
X17706772Y-16780555D01*
X17878200Y-16837697D02*
X17897248Y-16847221D01*
X17935343Y-16847221D01*
X17954391Y-16837697D01*
X17963915Y-16818650D01*
X17963915Y-16809126D01*
X17954391Y-16790078D01*
X17935343Y-16780555D01*
X17906772Y-16780555D01*
X17887724Y-16771031D01*
X17878200Y-16751983D01*
X17878200Y-16742459D01*
X17887724Y-16723412D01*
X17906772Y-16713888D01*
X17935343Y-16713888D01*
X17954391Y-16723412D01*
X18030581Y-16923412D02*
X18040105Y-16913888D01*
X18059153Y-16885316D01*
X18068677Y-16866269D01*
X18078200Y-16837697D01*
X18087724Y-16790078D01*
X18087724Y-16751983D01*
X18078200Y-16704364D01*
X18068677Y-16675793D01*
X18059153Y-16656745D01*
X18040105Y-16628173D01*
X18030581Y-16618650D01*
D15*
X13055753Y-17050797D02*
X13055753Y-16990693D01*
X12995648Y-16990693D01*
X12995648Y-17050797D01*
X13055753Y-17050797D01*
D11*
X13363915Y-16911221D02*
X13382962Y-16911221D01*
X13402010Y-16920745D01*
X13411534Y-16930269D01*
X13421058Y-16949316D01*
X13430581Y-16987412D01*
X13430581Y-17035031D01*
X13421058Y-17073126D01*
X13411534Y-17092174D01*
X13402010Y-17101697D01*
X13382962Y-17111221D01*
X13363915Y-17111221D01*
X13344867Y-17101697D01*
X13335343Y-17092174D01*
X13325819Y-17073126D01*
X13316296Y-17035031D01*
X13316296Y-16987412D01*
X13325819Y-16949316D01*
X13335343Y-16930269D01*
X13344867Y-16920745D01*
X13363915Y-16911221D01*
X13516296Y-17092174D02*
X13525819Y-17101697D01*
X13516296Y-17111221D01*
X13506772Y-17101697D01*
X13516296Y-17092174D01*
X13516296Y-17111221D01*
X13640105Y-16996935D02*
X13621058Y-16987412D01*
X13611534Y-16977888D01*
X13602010Y-16958840D01*
X13602010Y-16949316D01*
X13611534Y-16930269D01*
X13621058Y-16920745D01*
X13640105Y-16911221D01*
X13678200Y-16911221D01*
X13697248Y-16920745D01*
X13706772Y-16930269D01*
X13716296Y-16949316D01*
X13716296Y-16958840D01*
X13706772Y-16977888D01*
X13697248Y-16987412D01*
X13678200Y-16996935D01*
X13640105Y-16996935D01*
X13621058Y-17006459D01*
X13611534Y-17015983D01*
X13602010Y-17035031D01*
X13602010Y-17073126D01*
X13611534Y-17092174D01*
X13621058Y-17101697D01*
X13640105Y-17111221D01*
X13678200Y-17111221D01*
X13697248Y-17101697D01*
X13706772Y-17092174D01*
X13716296Y-17073126D01*
X13716296Y-17035031D01*
X13706772Y-17015983D01*
X13697248Y-17006459D01*
X13678200Y-16996935D01*
X13897248Y-16911221D02*
X13802010Y-16911221D01*
X13792486Y-17006459D01*
X13802010Y-16996935D01*
X13821058Y-16987412D01*
X13868677Y-16987412D01*
X13887724Y-16996935D01*
X13897248Y-17006459D01*
X13906772Y-17025507D01*
X13906772Y-17073126D01*
X13897248Y-17092174D01*
X13887724Y-17101697D01*
X13868677Y-17111221D01*
X13821058Y-17111221D01*
X13802010Y-17101697D01*
X13792486Y-17092174D01*
X14030581Y-16911221D02*
X14049629Y-16911221D01*
X14068677Y-16920745D01*
X14078200Y-16930269D01*
X14087724Y-16949316D01*
X14097248Y-16987412D01*
X14097248Y-17035031D01*
X14087724Y-17073126D01*
X14078200Y-17092174D01*
X14068677Y-17101697D01*
X14049629Y-17111221D01*
X14030581Y-17111221D01*
X14011534Y-17101697D01*
X14002010Y-17092174D01*
X13992486Y-17073126D01*
X13982962Y-17035031D01*
X13982962Y-16987412D01*
X13992486Y-16949316D01*
X14002010Y-16930269D01*
X14011534Y-16920745D01*
X14030581Y-16911221D01*
X14182962Y-17111221D02*
X14182962Y-16977888D01*
X14182962Y-16996935D02*
X14192486Y-16987412D01*
X14211534Y-16977888D01*
X14240105Y-16977888D01*
X14259153Y-16987412D01*
X14268677Y-17006459D01*
X14268677Y-17111221D01*
X14268677Y-17006459D02*
X14278200Y-16987412D01*
X14297248Y-16977888D01*
X14325819Y-16977888D01*
X14344867Y-16987412D01*
X14354391Y-17006459D01*
X14354391Y-17111221D01*
X14449629Y-17111221D02*
X14449629Y-16977888D01*
X14449629Y-16996935D02*
X14459153Y-16987412D01*
X14478200Y-16977888D01*
X14506772Y-16977888D01*
X14525819Y-16987412D01*
X14535343Y-17006459D01*
X14535343Y-17111221D01*
X14535343Y-17006459D02*
X14544867Y-16987412D01*
X14563915Y-16977888D01*
X14592486Y-16977888D01*
X14611534Y-16987412D01*
X14621058Y-17006459D01*
X14621058Y-17111221D01*
X15011534Y-16901697D02*
X14840105Y-17158840D01*
X15268677Y-16911221D02*
X15287724Y-16911221D01*
X15306772Y-16920745D01*
X15316296Y-16930269D01*
X15325819Y-16949316D01*
X15335343Y-16987412D01*
X15335343Y-17035031D01*
X15325819Y-17073126D01*
X15316296Y-17092174D01*
X15306772Y-17101697D01*
X15287724Y-17111221D01*
X15268677Y-17111221D01*
X15249629Y-17101697D01*
X15240105Y-17092174D01*
X15230581Y-17073126D01*
X15221058Y-17035031D01*
X15221058Y-16987412D01*
X15230581Y-16949316D01*
X15240105Y-16930269D01*
X15249629Y-16920745D01*
X15268677Y-16911221D01*
X15421058Y-17092174D02*
X15430581Y-17101697D01*
X15421058Y-17111221D01*
X15411534Y-17101697D01*
X15421058Y-17092174D01*
X15421058Y-17111221D01*
X15554391Y-16911221D02*
X15573438Y-16911221D01*
X15592486Y-16920745D01*
X15602010Y-16930269D01*
X15611534Y-16949316D01*
X15621058Y-16987412D01*
X15621058Y-17035031D01*
X15611534Y-17073126D01*
X15602010Y-17092174D01*
X15592486Y-17101697D01*
X15573438Y-17111221D01*
X15554391Y-17111221D01*
X15535343Y-17101697D01*
X15525819Y-17092174D01*
X15516296Y-17073126D01*
X15506772Y-17035031D01*
X15506772Y-16987412D01*
X15516296Y-16949316D01*
X15525819Y-16930269D01*
X15535343Y-16920745D01*
X15554391Y-16911221D01*
X15687724Y-16911221D02*
X15811534Y-16911221D01*
X15744867Y-16987412D01*
X15773438Y-16987412D01*
X15792486Y-16996935D01*
X15802010Y-17006459D01*
X15811534Y-17025507D01*
X15811534Y-17073126D01*
X15802010Y-17092174D01*
X15792486Y-17101697D01*
X15773438Y-17111221D01*
X15716296Y-17111221D01*
X15697248Y-17101697D01*
X15687724Y-17092174D01*
X15878200Y-16911221D02*
X16002010Y-16911221D01*
X15935343Y-16987412D01*
X15963915Y-16987412D01*
X15982962Y-16996935D01*
X15992486Y-17006459D01*
X16002010Y-17025507D01*
X16002010Y-17073126D01*
X15992486Y-17092174D01*
X15982962Y-17101697D01*
X15963915Y-17111221D01*
X15906772Y-17111221D01*
X15887724Y-17101697D01*
X15878200Y-17092174D01*
X16182962Y-16911221D02*
X16087724Y-16911221D01*
X16078200Y-17006459D01*
X16087724Y-16996935D01*
X16106772Y-16987412D01*
X16154391Y-16987412D01*
X16173438Y-16996935D01*
X16182962Y-17006459D01*
X16192486Y-17025507D01*
X16192486Y-17073126D01*
X16182962Y-17092174D01*
X16173438Y-17101697D01*
X16154391Y-17111221D01*
X16106772Y-17111221D01*
X16087724Y-17101697D01*
X16078200Y-17092174D01*
X16268677Y-16911221D02*
X16268677Y-16949316D01*
X16344867Y-16911221D02*
X16344867Y-16949316D01*
X16640105Y-17187412D02*
X16630581Y-17177888D01*
X16611534Y-17149316D01*
X16602010Y-17130269D01*
X16592486Y-17101697D01*
X16582962Y-17054078D01*
X16582962Y-17015983D01*
X16592486Y-16968364D01*
X16602010Y-16939793D01*
X16611534Y-16920745D01*
X16630581Y-16892174D01*
X16640105Y-16882650D01*
X16821058Y-17111221D02*
X16706772Y-17111221D01*
X16763915Y-17111221D02*
X16763915Y-16911221D01*
X16744867Y-16939793D01*
X16725819Y-16958840D01*
X16706772Y-16968364D01*
X16916296Y-17111221D02*
X16954391Y-17111221D01*
X16973439Y-17101697D01*
X16982962Y-17092174D01*
X17002010Y-17063602D01*
X17011534Y-17025507D01*
X17011534Y-16949316D01*
X17002010Y-16930269D01*
X16992486Y-16920745D01*
X16973439Y-16911221D01*
X16935343Y-16911221D01*
X16916296Y-16920745D01*
X16906772Y-16930269D01*
X16897248Y-16949316D01*
X16897248Y-16996935D01*
X16906772Y-17015983D01*
X16916296Y-17025507D01*
X16935343Y-17035031D01*
X16973439Y-17035031D01*
X16992486Y-17025507D01*
X17002010Y-17015983D01*
X17011534Y-16996935D01*
X17249629Y-17111221D02*
X17249629Y-16911221D01*
X17335343Y-17111221D02*
X17335343Y-17006459D01*
X17325820Y-16987412D01*
X17306772Y-16977888D01*
X17278200Y-16977888D01*
X17259153Y-16987412D01*
X17249629Y-16996935D01*
X17459153Y-17111221D02*
X17440105Y-17101697D01*
X17430581Y-17092174D01*
X17421058Y-17073126D01*
X17421058Y-17015983D01*
X17430581Y-16996935D01*
X17440105Y-16987412D01*
X17459153Y-16977888D01*
X17487724Y-16977888D01*
X17506772Y-16987412D01*
X17516296Y-16996935D01*
X17525820Y-17015983D01*
X17525820Y-17073126D01*
X17516296Y-17092174D01*
X17506772Y-17101697D01*
X17487724Y-17111221D01*
X17459153Y-17111221D01*
X17640105Y-17111221D02*
X17621058Y-17101697D01*
X17611534Y-17082650D01*
X17611534Y-16911221D01*
X17792486Y-17101697D02*
X17773439Y-17111221D01*
X17735343Y-17111221D01*
X17716296Y-17101697D01*
X17706772Y-17082650D01*
X17706772Y-17006459D01*
X17716296Y-16987412D01*
X17735343Y-16977888D01*
X17773439Y-16977888D01*
X17792486Y-16987412D01*
X17802010Y-17006459D01*
X17802010Y-17025507D01*
X17706772Y-17044555D01*
X17878200Y-17101697D02*
X17897248Y-17111221D01*
X17935343Y-17111221D01*
X17954391Y-17101697D01*
X17963915Y-17082650D01*
X17963915Y-17073126D01*
X17954391Y-17054078D01*
X17935343Y-17044555D01*
X17906772Y-17044555D01*
X17887724Y-17035031D01*
X17878200Y-17015983D01*
X17878200Y-17006459D01*
X17887724Y-16987412D01*
X17906772Y-16977888D01*
X17935343Y-16977888D01*
X17954391Y-16987412D01*
X18030581Y-17187412D02*
X18040105Y-17177888D01*
X18059153Y-17149316D01*
X18068677Y-17130269D01*
X18078200Y-17101697D01*
X18087724Y-17054078D01*
X18087724Y-17015983D01*
X18078200Y-16968364D01*
X18068677Y-16939793D01*
X18059153Y-16920745D01*
X18040105Y-16892174D01*
X18030581Y-16882650D01*
D16*
X13023200Y-17329745D02*
X13068200Y-17284745D01*
X13023200Y-17239745D01*
X12978200Y-17284745D01*
X13023200Y-17329745D01*
D11*
X13363915Y-17175221D02*
X13382962Y-17175221D01*
X13402010Y-17184745D01*
X13411534Y-17194269D01*
X13421058Y-17213316D01*
X13430581Y-17251412D01*
X13430581Y-17299031D01*
X13421058Y-17337126D01*
X13411534Y-17356174D01*
X13402010Y-17365697D01*
X13382962Y-17375221D01*
X13363915Y-17375221D01*
X13344867Y-17365697D01*
X13335343Y-17356174D01*
X13325819Y-17337126D01*
X13316296Y-17299031D01*
X13316296Y-17251412D01*
X13325819Y-17213316D01*
X13335343Y-17194269D01*
X13344867Y-17184745D01*
X13363915Y-17175221D01*
X13516296Y-17356174D02*
X13525819Y-17365697D01*
X13516296Y-17375221D01*
X13506772Y-17365697D01*
X13516296Y-17356174D01*
X13516296Y-17375221D01*
X13621058Y-17375221D02*
X13659153Y-17375221D01*
X13678200Y-17365697D01*
X13687724Y-17356174D01*
X13706772Y-17327602D01*
X13716296Y-17289507D01*
X13716296Y-17213316D01*
X13706772Y-17194269D01*
X13697248Y-17184745D01*
X13678200Y-17175221D01*
X13640105Y-17175221D01*
X13621058Y-17184745D01*
X13611534Y-17194269D01*
X13602010Y-17213316D01*
X13602010Y-17260935D01*
X13611534Y-17279983D01*
X13621058Y-17289507D01*
X13640105Y-17299031D01*
X13678200Y-17299031D01*
X13697248Y-17289507D01*
X13706772Y-17279983D01*
X13716296Y-17260935D01*
X13840105Y-17175221D02*
X13859153Y-17175221D01*
X13878200Y-17184745D01*
X13887724Y-17194269D01*
X13897248Y-17213316D01*
X13906772Y-17251412D01*
X13906772Y-17299031D01*
X13897248Y-17337126D01*
X13887724Y-17356174D01*
X13878200Y-17365697D01*
X13859153Y-17375221D01*
X13840105Y-17375221D01*
X13821058Y-17365697D01*
X13811534Y-17356174D01*
X13802010Y-17337126D01*
X13792486Y-17299031D01*
X13792486Y-17251412D01*
X13802010Y-17213316D01*
X13811534Y-17194269D01*
X13821058Y-17184745D01*
X13840105Y-17175221D01*
X14030581Y-17175221D02*
X14049629Y-17175221D01*
X14068677Y-17184745D01*
X14078200Y-17194269D01*
X14087724Y-17213316D01*
X14097248Y-17251412D01*
X14097248Y-17299031D01*
X14087724Y-17337126D01*
X14078200Y-17356174D01*
X14068677Y-17365697D01*
X14049629Y-17375221D01*
X14030581Y-17375221D01*
X14011534Y-17365697D01*
X14002010Y-17356174D01*
X13992486Y-17337126D01*
X13982962Y-17299031D01*
X13982962Y-17251412D01*
X13992486Y-17213316D01*
X14002010Y-17194269D01*
X14011534Y-17184745D01*
X14030581Y-17175221D01*
X14182962Y-17375221D02*
X14182962Y-17241888D01*
X14182962Y-17260935D02*
X14192486Y-17251412D01*
X14211534Y-17241888D01*
X14240105Y-17241888D01*
X14259153Y-17251412D01*
X14268677Y-17270459D01*
X14268677Y-17375221D01*
X14268677Y-17270459D02*
X14278200Y-17251412D01*
X14297248Y-17241888D01*
X14325819Y-17241888D01*
X14344867Y-17251412D01*
X14354391Y-17270459D01*
X14354391Y-17375221D01*
X14449629Y-17375221D02*
X14449629Y-17241888D01*
X14449629Y-17260935D02*
X14459153Y-17251412D01*
X14478200Y-17241888D01*
X14506772Y-17241888D01*
X14525819Y-17251412D01*
X14535343Y-17270459D01*
X14535343Y-17375221D01*
X14535343Y-17270459D02*
X14544867Y-17251412D01*
X14563915Y-17241888D01*
X14592486Y-17241888D01*
X14611534Y-17251412D01*
X14621058Y-17270459D01*
X14621058Y-17375221D01*
X15011534Y-17165697D02*
X14840105Y-17422840D01*
X15268677Y-17175221D02*
X15287724Y-17175221D01*
X15306772Y-17184745D01*
X15316296Y-17194269D01*
X15325819Y-17213316D01*
X15335343Y-17251412D01*
X15335343Y-17299031D01*
X15325819Y-17337126D01*
X15316296Y-17356174D01*
X15306772Y-17365697D01*
X15287724Y-17375221D01*
X15268677Y-17375221D01*
X15249629Y-17365697D01*
X15240105Y-17356174D01*
X15230581Y-17337126D01*
X15221058Y-17299031D01*
X15221058Y-17251412D01*
X15230581Y-17213316D01*
X15240105Y-17194269D01*
X15249629Y-17184745D01*
X15268677Y-17175221D01*
X15421058Y-17356174D02*
X15430581Y-17365697D01*
X15421058Y-17375221D01*
X15411534Y-17365697D01*
X15421058Y-17356174D01*
X15421058Y-17375221D01*
X15554391Y-17175221D02*
X15573438Y-17175221D01*
X15592486Y-17184745D01*
X15602010Y-17194269D01*
X15611534Y-17213316D01*
X15621058Y-17251412D01*
X15621058Y-17299031D01*
X15611534Y-17337126D01*
X15602010Y-17356174D01*
X15592486Y-17365697D01*
X15573438Y-17375221D01*
X15554391Y-17375221D01*
X15535343Y-17365697D01*
X15525819Y-17356174D01*
X15516296Y-17337126D01*
X15506772Y-17299031D01*
X15506772Y-17251412D01*
X15516296Y-17213316D01*
X15525819Y-17194269D01*
X15535343Y-17184745D01*
X15554391Y-17175221D01*
X15687724Y-17175221D02*
X15811534Y-17175221D01*
X15744867Y-17251412D01*
X15773438Y-17251412D01*
X15792486Y-17260935D01*
X15802010Y-17270459D01*
X15811534Y-17289507D01*
X15811534Y-17337126D01*
X15802010Y-17356174D01*
X15792486Y-17365697D01*
X15773438Y-17375221D01*
X15716296Y-17375221D01*
X15697248Y-17365697D01*
X15687724Y-17356174D01*
X15992486Y-17175221D02*
X15897248Y-17175221D01*
X15887724Y-17270459D01*
X15897248Y-17260935D01*
X15916296Y-17251412D01*
X15963915Y-17251412D01*
X15982962Y-17260935D01*
X15992486Y-17270459D01*
X16002010Y-17289507D01*
X16002010Y-17337126D01*
X15992486Y-17356174D01*
X15982962Y-17365697D01*
X15963915Y-17375221D01*
X15916296Y-17375221D01*
X15897248Y-17365697D01*
X15887724Y-17356174D01*
X16173438Y-17241888D02*
X16173438Y-17375221D01*
X16125819Y-17165697D02*
X16078200Y-17308555D01*
X16202010Y-17308555D01*
X16268677Y-17175221D02*
X16268677Y-17213316D01*
X16344867Y-17175221D02*
X16344867Y-17213316D01*
X16640105Y-17451412D02*
X16630581Y-17441888D01*
X16611534Y-17413316D01*
X16602010Y-17394269D01*
X16592486Y-17365697D01*
X16582962Y-17318078D01*
X16582962Y-17279983D01*
X16592486Y-17232364D01*
X16602010Y-17203793D01*
X16611534Y-17184745D01*
X16630581Y-17156174D01*
X16640105Y-17146650D01*
X16706772Y-17194269D02*
X16716296Y-17184745D01*
X16735343Y-17175221D01*
X16782962Y-17175221D01*
X16802010Y-17184745D01*
X16811534Y-17194269D01*
X16821058Y-17213316D01*
X16821058Y-17232364D01*
X16811534Y-17260935D01*
X16697248Y-17375221D01*
X16821058Y-17375221D01*
X17059153Y-17375221D02*
X17059153Y-17175221D01*
X17144867Y-17375221D02*
X17144867Y-17270459D01*
X17135343Y-17251412D01*
X17116296Y-17241888D01*
X17087724Y-17241888D01*
X17068677Y-17251412D01*
X17059153Y-17260935D01*
X17268677Y-17375221D02*
X17249629Y-17365697D01*
X17240105Y-17356174D01*
X17230581Y-17337126D01*
X17230581Y-17279983D01*
X17240105Y-17260935D01*
X17249629Y-17251412D01*
X17268677Y-17241888D01*
X17297248Y-17241888D01*
X17316296Y-17251412D01*
X17325820Y-17260935D01*
X17335343Y-17279983D01*
X17335343Y-17337126D01*
X17325820Y-17356174D01*
X17316296Y-17365697D01*
X17297248Y-17375221D01*
X17268677Y-17375221D01*
X17449629Y-17375221D02*
X17430581Y-17365697D01*
X17421058Y-17346650D01*
X17421058Y-17175221D01*
X17602010Y-17365697D02*
X17582962Y-17375221D01*
X17544867Y-17375221D01*
X17525820Y-17365697D01*
X17516296Y-17346650D01*
X17516296Y-17270459D01*
X17525820Y-17251412D01*
X17544867Y-17241888D01*
X17582962Y-17241888D01*
X17602010Y-17251412D01*
X17611534Y-17270459D01*
X17611534Y-17289507D01*
X17516296Y-17308555D01*
X17687724Y-17365697D02*
X17706772Y-17375221D01*
X17744867Y-17375221D01*
X17763915Y-17365697D01*
X17773439Y-17346650D01*
X17773439Y-17337126D01*
X17763915Y-17318078D01*
X17744867Y-17308555D01*
X17716296Y-17308555D01*
X17697248Y-17299031D01*
X17687724Y-17279983D01*
X17687724Y-17270459D01*
X17697248Y-17251412D01*
X17716296Y-17241888D01*
X17744867Y-17241888D01*
X17763915Y-17251412D01*
X17840105Y-17451412D02*
X17849629Y-17441888D01*
X17868677Y-17413316D01*
X17878200Y-17394269D01*
X17887724Y-17365697D01*
X17897248Y-17318078D01*
X17897248Y-17279983D01*
X17887724Y-17232364D01*
X17878200Y-17203793D01*
X17868677Y-17184745D01*
X17849629Y-17156174D01*
X17840105Y-17146650D01*
D17*
X12973200Y-17501245D02*
X13068200Y-17596245D01*
X13068200Y-17501245D02*
X12973200Y-17596245D01*
X13068200Y-17548745D02*
G75*
G03*
X13068200Y-17548745I-47500J0D01*
G01*
D11*
X13363915Y-17439221D02*
X13382962Y-17439221D01*
X13402010Y-17448745D01*
X13411534Y-17458269D01*
X13421058Y-17477316D01*
X13430581Y-17515412D01*
X13430581Y-17563031D01*
X13421058Y-17601126D01*
X13411534Y-17620174D01*
X13402010Y-17629697D01*
X13382962Y-17639221D01*
X13363915Y-17639221D01*
X13344867Y-17629697D01*
X13335343Y-17620174D01*
X13325819Y-17601126D01*
X13316296Y-17563031D01*
X13316296Y-17515412D01*
X13325819Y-17477316D01*
X13335343Y-17458269D01*
X13344867Y-17448745D01*
X13363915Y-17439221D01*
X13516296Y-17620174D02*
X13525819Y-17629697D01*
X13516296Y-17639221D01*
X13506772Y-17629697D01*
X13516296Y-17620174D01*
X13516296Y-17639221D01*
X13621058Y-17639221D02*
X13659153Y-17639221D01*
X13678200Y-17629697D01*
X13687724Y-17620174D01*
X13706772Y-17591602D01*
X13716296Y-17553507D01*
X13716296Y-17477316D01*
X13706772Y-17458269D01*
X13697248Y-17448745D01*
X13678200Y-17439221D01*
X13640105Y-17439221D01*
X13621058Y-17448745D01*
X13611534Y-17458269D01*
X13602010Y-17477316D01*
X13602010Y-17524935D01*
X13611534Y-17543983D01*
X13621058Y-17553507D01*
X13640105Y-17563031D01*
X13678200Y-17563031D01*
X13697248Y-17553507D01*
X13706772Y-17543983D01*
X13716296Y-17524935D01*
X13897248Y-17439221D02*
X13802010Y-17439221D01*
X13792486Y-17534459D01*
X13802010Y-17524935D01*
X13821058Y-17515412D01*
X13868677Y-17515412D01*
X13887724Y-17524935D01*
X13897248Y-17534459D01*
X13906772Y-17553507D01*
X13906772Y-17601126D01*
X13897248Y-17620174D01*
X13887724Y-17629697D01*
X13868677Y-17639221D01*
X13821058Y-17639221D01*
X13802010Y-17629697D01*
X13792486Y-17620174D01*
X14030581Y-17439221D02*
X14049629Y-17439221D01*
X14068677Y-17448745D01*
X14078200Y-17458269D01*
X14087724Y-17477316D01*
X14097248Y-17515412D01*
X14097248Y-17563031D01*
X14087724Y-17601126D01*
X14078200Y-17620174D01*
X14068677Y-17629697D01*
X14049629Y-17639221D01*
X14030581Y-17639221D01*
X14011534Y-17629697D01*
X14002010Y-17620174D01*
X13992486Y-17601126D01*
X13982962Y-17563031D01*
X13982962Y-17515412D01*
X13992486Y-17477316D01*
X14002010Y-17458269D01*
X14011534Y-17448745D01*
X14030581Y-17439221D01*
X14182962Y-17639221D02*
X14182962Y-17505888D01*
X14182962Y-17524935D02*
X14192486Y-17515412D01*
X14211534Y-17505888D01*
X14240105Y-17505888D01*
X14259153Y-17515412D01*
X14268677Y-17534459D01*
X14268677Y-17639221D01*
X14268677Y-17534459D02*
X14278200Y-17515412D01*
X14297248Y-17505888D01*
X14325819Y-17505888D01*
X14344867Y-17515412D01*
X14354391Y-17534459D01*
X14354391Y-17639221D01*
X14449629Y-17639221D02*
X14449629Y-17505888D01*
X14449629Y-17524935D02*
X14459153Y-17515412D01*
X14478200Y-17505888D01*
X14506772Y-17505888D01*
X14525819Y-17515412D01*
X14535343Y-17534459D01*
X14535343Y-17639221D01*
X14535343Y-17534459D02*
X14544867Y-17515412D01*
X14563915Y-17505888D01*
X14592486Y-17505888D01*
X14611534Y-17515412D01*
X14621058Y-17534459D01*
X14621058Y-17639221D01*
X15011534Y-17429697D02*
X14840105Y-17686840D01*
X15268677Y-17439221D02*
X15287724Y-17439221D01*
X15306772Y-17448745D01*
X15316296Y-17458269D01*
X15325819Y-17477316D01*
X15335343Y-17515412D01*
X15335343Y-17563031D01*
X15325819Y-17601126D01*
X15316296Y-17620174D01*
X15306772Y-17629697D01*
X15287724Y-17639221D01*
X15268677Y-17639221D01*
X15249629Y-17629697D01*
X15240105Y-17620174D01*
X15230581Y-17601126D01*
X15221058Y-17563031D01*
X15221058Y-17515412D01*
X15230581Y-17477316D01*
X15240105Y-17458269D01*
X15249629Y-17448745D01*
X15268677Y-17439221D01*
X15421058Y-17620174D02*
X15430581Y-17629697D01*
X15421058Y-17639221D01*
X15411534Y-17629697D01*
X15421058Y-17620174D01*
X15421058Y-17639221D01*
X15554391Y-17439221D02*
X15573438Y-17439221D01*
X15592486Y-17448745D01*
X15602010Y-17458269D01*
X15611534Y-17477316D01*
X15621058Y-17515412D01*
X15621058Y-17563031D01*
X15611534Y-17601126D01*
X15602010Y-17620174D01*
X15592486Y-17629697D01*
X15573438Y-17639221D01*
X15554391Y-17639221D01*
X15535343Y-17629697D01*
X15525819Y-17620174D01*
X15516296Y-17601126D01*
X15506772Y-17563031D01*
X15506772Y-17515412D01*
X15516296Y-17477316D01*
X15525819Y-17458269D01*
X15535343Y-17448745D01*
X15554391Y-17439221D01*
X15687724Y-17439221D02*
X15811534Y-17439221D01*
X15744867Y-17515412D01*
X15773438Y-17515412D01*
X15792486Y-17524935D01*
X15802010Y-17534459D01*
X15811534Y-17553507D01*
X15811534Y-17601126D01*
X15802010Y-17620174D01*
X15792486Y-17629697D01*
X15773438Y-17639221D01*
X15716296Y-17639221D01*
X15697248Y-17629697D01*
X15687724Y-17620174D01*
X15878200Y-17439221D02*
X16011534Y-17439221D01*
X15925819Y-17639221D01*
X16173438Y-17505888D02*
X16173438Y-17639221D01*
X16125819Y-17429697D02*
X16078200Y-17572555D01*
X16202010Y-17572555D01*
X16268677Y-17439221D02*
X16268677Y-17477316D01*
X16344867Y-17439221D02*
X16344867Y-17477316D01*
X16640105Y-17715412D02*
X16630581Y-17705888D01*
X16611534Y-17677316D01*
X16602010Y-17658269D01*
X16592486Y-17629697D01*
X16582962Y-17582078D01*
X16582962Y-17543983D01*
X16592486Y-17496364D01*
X16602010Y-17467793D01*
X16611534Y-17448745D01*
X16630581Y-17420174D01*
X16640105Y-17410650D01*
X16697248Y-17439221D02*
X16821058Y-17439221D01*
X16754391Y-17515412D01*
X16782962Y-17515412D01*
X16802010Y-17524935D01*
X16811534Y-17534459D01*
X16821058Y-17553507D01*
X16821058Y-17601126D01*
X16811534Y-17620174D01*
X16802010Y-17629697D01*
X16782962Y-17639221D01*
X16725819Y-17639221D01*
X16706772Y-17629697D01*
X16697248Y-17620174D01*
X16916296Y-17639221D02*
X16954391Y-17639221D01*
X16973439Y-17629697D01*
X16982962Y-17620174D01*
X17002010Y-17591602D01*
X17011534Y-17553507D01*
X17011534Y-17477316D01*
X17002010Y-17458269D01*
X16992486Y-17448745D01*
X16973439Y-17439221D01*
X16935343Y-17439221D01*
X16916296Y-17448745D01*
X16906772Y-17458269D01*
X16897248Y-17477316D01*
X16897248Y-17524935D01*
X16906772Y-17543983D01*
X16916296Y-17553507D01*
X16935343Y-17563031D01*
X16973439Y-17563031D01*
X16992486Y-17553507D01*
X17002010Y-17543983D01*
X17011534Y-17524935D01*
X17249629Y-17639221D02*
X17249629Y-17439221D01*
X17335343Y-17639221D02*
X17335343Y-17534459D01*
X17325820Y-17515412D01*
X17306772Y-17505888D01*
X17278200Y-17505888D01*
X17259153Y-17515412D01*
X17249629Y-17524935D01*
X17459153Y-17639221D02*
X17440105Y-17629697D01*
X17430581Y-17620174D01*
X17421058Y-17601126D01*
X17421058Y-17543983D01*
X17430581Y-17524935D01*
X17440105Y-17515412D01*
X17459153Y-17505888D01*
X17487724Y-17505888D01*
X17506772Y-17515412D01*
X17516296Y-17524935D01*
X17525820Y-17543983D01*
X17525820Y-17601126D01*
X17516296Y-17620174D01*
X17506772Y-17629697D01*
X17487724Y-17639221D01*
X17459153Y-17639221D01*
X17640105Y-17639221D02*
X17621058Y-17629697D01*
X17611534Y-17610650D01*
X17611534Y-17439221D01*
X17792486Y-17629697D02*
X17773439Y-17639221D01*
X17735343Y-17639221D01*
X17716296Y-17629697D01*
X17706772Y-17610650D01*
X17706772Y-17534459D01*
X17716296Y-17515412D01*
X17735343Y-17505888D01*
X17773439Y-17505888D01*
X17792486Y-17515412D01*
X17802010Y-17534459D01*
X17802010Y-17553507D01*
X17706772Y-17572555D01*
X17878200Y-17629697D02*
X17897248Y-17639221D01*
X17935343Y-17639221D01*
X17954391Y-17629697D01*
X17963915Y-17610650D01*
X17963915Y-17601126D01*
X17954391Y-17582078D01*
X17935343Y-17572555D01*
X17906772Y-17572555D01*
X17887724Y-17563031D01*
X17878200Y-17543983D01*
X17878200Y-17534459D01*
X17887724Y-17515412D01*
X17906772Y-17505888D01*
X17935343Y-17505888D01*
X17954391Y-17515412D01*
X18030581Y-17715412D02*
X18040105Y-17705888D01*
X18059153Y-17677316D01*
X18068677Y-17658269D01*
X18078200Y-17629697D01*
X18087724Y-17582078D01*
X18087724Y-17543983D01*
X18078200Y-17496364D01*
X18068677Y-17467793D01*
X18059153Y-17448745D01*
X18040105Y-17420174D01*
X18030581Y-17410650D01*
D18*
X12968200Y-17762745D02*
X13068200Y-17862745D01*
X13068200Y-17762745D02*
X12968200Y-17862745D01*
X13018200Y-17762745D02*
X13018200Y-17862745D01*
X12968200Y-17812745D02*
X13068200Y-17812745D01*
D11*
X13430581Y-17903221D02*
X13316296Y-17903221D01*
X13373438Y-17903221D02*
X13373438Y-17703221D01*
X13354391Y-17731793D01*
X13335343Y-17750840D01*
X13316296Y-17760364D01*
X13516296Y-17884174D02*
X13525819Y-17893697D01*
X13516296Y-17903221D01*
X13506772Y-17893697D01*
X13516296Y-17884174D01*
X13516296Y-17903221D01*
X13649629Y-17703221D02*
X13668677Y-17703221D01*
X13687724Y-17712745D01*
X13697248Y-17722269D01*
X13706772Y-17741316D01*
X13716296Y-17779412D01*
X13716296Y-17827031D01*
X13706772Y-17865126D01*
X13697248Y-17884174D01*
X13687724Y-17893697D01*
X13668677Y-17903221D01*
X13649629Y-17903221D01*
X13630581Y-17893697D01*
X13621058Y-17884174D01*
X13611534Y-17865126D01*
X13602010Y-17827031D01*
X13602010Y-17779412D01*
X13611534Y-17741316D01*
X13621058Y-17722269D01*
X13630581Y-17712745D01*
X13649629Y-17703221D01*
X13840105Y-17703221D02*
X13859153Y-17703221D01*
X13878200Y-17712745D01*
X13887724Y-17722269D01*
X13897248Y-17741316D01*
X13906772Y-17779412D01*
X13906772Y-17827031D01*
X13897248Y-17865126D01*
X13887724Y-17884174D01*
X13878200Y-17893697D01*
X13859153Y-17903221D01*
X13840105Y-17903221D01*
X13821058Y-17893697D01*
X13811534Y-17884174D01*
X13802010Y-17865126D01*
X13792486Y-17827031D01*
X13792486Y-17779412D01*
X13802010Y-17741316D01*
X13811534Y-17722269D01*
X13821058Y-17712745D01*
X13840105Y-17703221D01*
X14030581Y-17703221D02*
X14049629Y-17703221D01*
X14068677Y-17712745D01*
X14078200Y-17722269D01*
X14087724Y-17741316D01*
X14097248Y-17779412D01*
X14097248Y-17827031D01*
X14087724Y-17865126D01*
X14078200Y-17884174D01*
X14068677Y-17893697D01*
X14049629Y-17903221D01*
X14030581Y-17903221D01*
X14011534Y-17893697D01*
X14002010Y-17884174D01*
X13992486Y-17865126D01*
X13982962Y-17827031D01*
X13982962Y-17779412D01*
X13992486Y-17741316D01*
X14002010Y-17722269D01*
X14011534Y-17712745D01*
X14030581Y-17703221D01*
X14182962Y-17903221D02*
X14182962Y-17769888D01*
X14182962Y-17788935D02*
X14192486Y-17779412D01*
X14211534Y-17769888D01*
X14240105Y-17769888D01*
X14259153Y-17779412D01*
X14268677Y-17798459D01*
X14268677Y-17903221D01*
X14268677Y-17798459D02*
X14278200Y-17779412D01*
X14297248Y-17769888D01*
X14325819Y-17769888D01*
X14344867Y-17779412D01*
X14354391Y-17798459D01*
X14354391Y-17903221D01*
X14449629Y-17903221D02*
X14449629Y-17769888D01*
X14449629Y-17788935D02*
X14459153Y-17779412D01*
X14478200Y-17769888D01*
X14506772Y-17769888D01*
X14525819Y-17779412D01*
X14535343Y-17798459D01*
X14535343Y-17903221D01*
X14535343Y-17798459D02*
X14544867Y-17779412D01*
X14563915Y-17769888D01*
X14592486Y-17769888D01*
X14611534Y-17779412D01*
X14621058Y-17798459D01*
X14621058Y-17903221D01*
X15011534Y-17693697D02*
X14840105Y-17950840D01*
X15268677Y-17703221D02*
X15287724Y-17703221D01*
X15306772Y-17712745D01*
X15316296Y-17722269D01*
X15325819Y-17741316D01*
X15335343Y-17779412D01*
X15335343Y-17827031D01*
X15325819Y-17865126D01*
X15316296Y-17884174D01*
X15306772Y-17893697D01*
X15287724Y-17903221D01*
X15268677Y-17903221D01*
X15249629Y-17893697D01*
X15240105Y-17884174D01*
X15230581Y-17865126D01*
X15221058Y-17827031D01*
X15221058Y-17779412D01*
X15230581Y-17741316D01*
X15240105Y-17722269D01*
X15249629Y-17712745D01*
X15268677Y-17703221D01*
X15421058Y-17884174D02*
X15430581Y-17893697D01*
X15421058Y-17903221D01*
X15411534Y-17893697D01*
X15421058Y-17884174D01*
X15421058Y-17903221D01*
X15554391Y-17703221D02*
X15573438Y-17703221D01*
X15592486Y-17712745D01*
X15602010Y-17722269D01*
X15611534Y-17741316D01*
X15621058Y-17779412D01*
X15621058Y-17827031D01*
X15611534Y-17865126D01*
X15602010Y-17884174D01*
X15592486Y-17893697D01*
X15573438Y-17903221D01*
X15554391Y-17903221D01*
X15535343Y-17893697D01*
X15525819Y-17884174D01*
X15516296Y-17865126D01*
X15506772Y-17827031D01*
X15506772Y-17779412D01*
X15516296Y-17741316D01*
X15525819Y-17722269D01*
X15535343Y-17712745D01*
X15554391Y-17703221D01*
X15687724Y-17703221D02*
X15811534Y-17703221D01*
X15744867Y-17779412D01*
X15773438Y-17779412D01*
X15792486Y-17788935D01*
X15802010Y-17798459D01*
X15811534Y-17817507D01*
X15811534Y-17865126D01*
X15802010Y-17884174D01*
X15792486Y-17893697D01*
X15773438Y-17903221D01*
X15716296Y-17903221D01*
X15697248Y-17893697D01*
X15687724Y-17884174D01*
X15906772Y-17903221D02*
X15944867Y-17903221D01*
X15963915Y-17893697D01*
X15973438Y-17884174D01*
X15992486Y-17855602D01*
X16002010Y-17817507D01*
X16002010Y-17741316D01*
X15992486Y-17722269D01*
X15982962Y-17712745D01*
X15963915Y-17703221D01*
X15925819Y-17703221D01*
X15906772Y-17712745D01*
X15897248Y-17722269D01*
X15887724Y-17741316D01*
X15887724Y-17788935D01*
X15897248Y-17807983D01*
X15906772Y-17817507D01*
X15925819Y-17827031D01*
X15963915Y-17827031D01*
X15982962Y-17817507D01*
X15992486Y-17807983D01*
X16002010Y-17788935D01*
X16173438Y-17769888D02*
X16173438Y-17903221D01*
X16125819Y-17693697D02*
X16078200Y-17836555D01*
X16202010Y-17836555D01*
X16268677Y-17703221D02*
X16268677Y-17741316D01*
X16344867Y-17703221D02*
X16344867Y-17741316D01*
X16640105Y-17979412D02*
X16630581Y-17969888D01*
X16611534Y-17941316D01*
X16602010Y-17922269D01*
X16592486Y-17893697D01*
X16582962Y-17846078D01*
X16582962Y-17807983D01*
X16592486Y-17760364D01*
X16602010Y-17731793D01*
X16611534Y-17712745D01*
X16630581Y-17684174D01*
X16640105Y-17674650D01*
X16821058Y-17903221D02*
X16706772Y-17903221D01*
X16763915Y-17903221D02*
X16763915Y-17703221D01*
X16744867Y-17731793D01*
X16725819Y-17750840D01*
X16706772Y-17760364D01*
X16887724Y-17703221D02*
X17011534Y-17703221D01*
X16944867Y-17779412D01*
X16973439Y-17779412D01*
X16992486Y-17788935D01*
X17002010Y-17798459D01*
X17011534Y-17817507D01*
X17011534Y-17865126D01*
X17002010Y-17884174D01*
X16992486Y-17893697D01*
X16973439Y-17903221D01*
X16916296Y-17903221D01*
X16897248Y-17893697D01*
X16887724Y-17884174D01*
X17106772Y-17903221D02*
X17144867Y-17903221D01*
X17163915Y-17893697D01*
X17173439Y-17884174D01*
X17192486Y-17855602D01*
X17202010Y-17817507D01*
X17202010Y-17741316D01*
X17192486Y-17722269D01*
X17182962Y-17712745D01*
X17163915Y-17703221D01*
X17125820Y-17703221D01*
X17106772Y-17712745D01*
X17097248Y-17722269D01*
X17087724Y-17741316D01*
X17087724Y-17788935D01*
X17097248Y-17807983D01*
X17106772Y-17817507D01*
X17125820Y-17827031D01*
X17163915Y-17827031D01*
X17182962Y-17817507D01*
X17192486Y-17807983D01*
X17202010Y-17788935D01*
X17440105Y-17903221D02*
X17440105Y-17703221D01*
X17525820Y-17903221D02*
X17525820Y-17798459D01*
X17516296Y-17779412D01*
X17497248Y-17769888D01*
X17468677Y-17769888D01*
X17449629Y-17779412D01*
X17440105Y-17788935D01*
X17649629Y-17903221D02*
X17630581Y-17893697D01*
X17621058Y-17884174D01*
X17611534Y-17865126D01*
X17611534Y-17807983D01*
X17621058Y-17788935D01*
X17630581Y-17779412D01*
X17649629Y-17769888D01*
X17678200Y-17769888D01*
X17697248Y-17779412D01*
X17706772Y-17788935D01*
X17716296Y-17807983D01*
X17716296Y-17865126D01*
X17706772Y-17884174D01*
X17697248Y-17893697D01*
X17678200Y-17903221D01*
X17649629Y-17903221D01*
X17830581Y-17903221D02*
X17811534Y-17893697D01*
X17802010Y-17874650D01*
X17802010Y-17703221D01*
X17982962Y-17893697D02*
X17963915Y-17903221D01*
X17925820Y-17903221D01*
X17906772Y-17893697D01*
X17897248Y-17874650D01*
X17897248Y-17798459D01*
X17906772Y-17779412D01*
X17925820Y-17769888D01*
X17963915Y-17769888D01*
X17982962Y-17779412D01*
X17992486Y-17798459D01*
X17992486Y-17817507D01*
X17897248Y-17836555D01*
X18068677Y-17893697D02*
X18087724Y-17903221D01*
X18125820Y-17903221D01*
X18144867Y-17893697D01*
X18154391Y-17874650D01*
X18154391Y-17865126D01*
X18144867Y-17846078D01*
X18125820Y-17836555D01*
X18097248Y-17836555D01*
X18078200Y-17827031D01*
X18068677Y-17807983D01*
X18068677Y-17798459D01*
X18078200Y-17779412D01*
X18097248Y-17769888D01*
X18125820Y-17769888D01*
X18144867Y-17779412D01*
X18221058Y-17979412D02*
X18230581Y-17969888D01*
X18249629Y-17941316D01*
X18259153Y-17922269D01*
X18268677Y-17893697D01*
X18278200Y-17846078D01*
X18278200Y-17807983D01*
X18268677Y-17760364D01*
X18259153Y-17731793D01*
X18249629Y-17712745D01*
X18230581Y-17684174D01*
X18221058Y-17674650D01*
D19*
X12959200Y-18022245D02*
X13068200Y-18131245D01*
X13068200Y-18022245D02*
X12959200Y-18131245D01*
X13052238Y-18115283D02*
X13052238Y-18038207D01*
X12975163Y-18038207D01*
X12975163Y-18115283D01*
X13052238Y-18115283D01*
D11*
X13430581Y-18167221D02*
X13316296Y-18167221D01*
X13373438Y-18167221D02*
X13373438Y-17967221D01*
X13354391Y-17995793D01*
X13335343Y-18014840D01*
X13316296Y-18024364D01*
X13516296Y-18148174D02*
X13525819Y-18157697D01*
X13516296Y-18167221D01*
X13506772Y-18157697D01*
X13516296Y-18148174D01*
X13516296Y-18167221D01*
X13649629Y-17967221D02*
X13668677Y-17967221D01*
X13687724Y-17976745D01*
X13697248Y-17986269D01*
X13706772Y-18005316D01*
X13716296Y-18043412D01*
X13716296Y-18091031D01*
X13706772Y-18129126D01*
X13697248Y-18148174D01*
X13687724Y-18157697D01*
X13668677Y-18167221D01*
X13649629Y-18167221D01*
X13630581Y-18157697D01*
X13621058Y-18148174D01*
X13611534Y-18129126D01*
X13602010Y-18091031D01*
X13602010Y-18043412D01*
X13611534Y-18005316D01*
X13621058Y-17986269D01*
X13630581Y-17976745D01*
X13649629Y-17967221D01*
X13811534Y-18167221D02*
X13849629Y-18167221D01*
X13868677Y-18157697D01*
X13878200Y-18148174D01*
X13897248Y-18119602D01*
X13906772Y-18081507D01*
X13906772Y-18005316D01*
X13897248Y-17986269D01*
X13887724Y-17976745D01*
X13868677Y-17967221D01*
X13830581Y-17967221D01*
X13811534Y-17976745D01*
X13802010Y-17986269D01*
X13792486Y-18005316D01*
X13792486Y-18052935D01*
X13802010Y-18071983D01*
X13811534Y-18081507D01*
X13830581Y-18091031D01*
X13868677Y-18091031D01*
X13887724Y-18081507D01*
X13897248Y-18071983D01*
X13906772Y-18052935D01*
X14030581Y-17967221D02*
X14049629Y-17967221D01*
X14068677Y-17976745D01*
X14078200Y-17986269D01*
X14087724Y-18005316D01*
X14097248Y-18043412D01*
X14097248Y-18091031D01*
X14087724Y-18129126D01*
X14078200Y-18148174D01*
X14068677Y-18157697D01*
X14049629Y-18167221D01*
X14030581Y-18167221D01*
X14011534Y-18157697D01*
X14002010Y-18148174D01*
X13992486Y-18129126D01*
X13982962Y-18091031D01*
X13982962Y-18043412D01*
X13992486Y-18005316D01*
X14002010Y-17986269D01*
X14011534Y-17976745D01*
X14030581Y-17967221D01*
X14182962Y-18167221D02*
X14182962Y-18033888D01*
X14182962Y-18052935D02*
X14192486Y-18043412D01*
X14211534Y-18033888D01*
X14240105Y-18033888D01*
X14259153Y-18043412D01*
X14268677Y-18062459D01*
X14268677Y-18167221D01*
X14268677Y-18062459D02*
X14278200Y-18043412D01*
X14297248Y-18033888D01*
X14325819Y-18033888D01*
X14344867Y-18043412D01*
X14354391Y-18062459D01*
X14354391Y-18167221D01*
X14449629Y-18167221D02*
X14449629Y-18033888D01*
X14449629Y-18052935D02*
X14459153Y-18043412D01*
X14478200Y-18033888D01*
X14506772Y-18033888D01*
X14525819Y-18043412D01*
X14535343Y-18062459D01*
X14535343Y-18167221D01*
X14535343Y-18062459D02*
X14544867Y-18043412D01*
X14563915Y-18033888D01*
X14592486Y-18033888D01*
X14611534Y-18043412D01*
X14621058Y-18062459D01*
X14621058Y-18167221D01*
X15011534Y-17957697D02*
X14840105Y-18214840D01*
X15268677Y-17967221D02*
X15287724Y-17967221D01*
X15306772Y-17976745D01*
X15316296Y-17986269D01*
X15325819Y-18005316D01*
X15335343Y-18043412D01*
X15335343Y-18091031D01*
X15325819Y-18129126D01*
X15316296Y-18148174D01*
X15306772Y-18157697D01*
X15287724Y-18167221D01*
X15268677Y-18167221D01*
X15249629Y-18157697D01*
X15240105Y-18148174D01*
X15230581Y-18129126D01*
X15221058Y-18091031D01*
X15221058Y-18043412D01*
X15230581Y-18005316D01*
X15240105Y-17986269D01*
X15249629Y-17976745D01*
X15268677Y-17967221D01*
X15421058Y-18148174D02*
X15430581Y-18157697D01*
X15421058Y-18167221D01*
X15411534Y-18157697D01*
X15421058Y-18148174D01*
X15421058Y-18167221D01*
X15554391Y-17967221D02*
X15573438Y-17967221D01*
X15592486Y-17976745D01*
X15602010Y-17986269D01*
X15611534Y-18005316D01*
X15621058Y-18043412D01*
X15621058Y-18091031D01*
X15611534Y-18129126D01*
X15602010Y-18148174D01*
X15592486Y-18157697D01*
X15573438Y-18167221D01*
X15554391Y-18167221D01*
X15535343Y-18157697D01*
X15525819Y-18148174D01*
X15516296Y-18129126D01*
X15506772Y-18091031D01*
X15506772Y-18043412D01*
X15516296Y-18005316D01*
X15525819Y-17986269D01*
X15535343Y-17976745D01*
X15554391Y-17967221D01*
X15792486Y-18033888D02*
X15792486Y-18167221D01*
X15744867Y-17957697D02*
X15697248Y-18100555D01*
X15821058Y-18100555D01*
X15887724Y-17986269D02*
X15897248Y-17976745D01*
X15916296Y-17967221D01*
X15963915Y-17967221D01*
X15982962Y-17976745D01*
X15992486Y-17986269D01*
X16002010Y-18005316D01*
X16002010Y-18024364D01*
X15992486Y-18052935D01*
X15878200Y-18167221D01*
X16002010Y-18167221D01*
X16097248Y-18167221D02*
X16135343Y-18167221D01*
X16154391Y-18157697D01*
X16163915Y-18148174D01*
X16182962Y-18119602D01*
X16192486Y-18081507D01*
X16192486Y-18005316D01*
X16182962Y-17986269D01*
X16173438Y-17976745D01*
X16154391Y-17967221D01*
X16116296Y-17967221D01*
X16097248Y-17976745D01*
X16087724Y-17986269D01*
X16078200Y-18005316D01*
X16078200Y-18052935D01*
X16087724Y-18071983D01*
X16097248Y-18081507D01*
X16116296Y-18091031D01*
X16154391Y-18091031D01*
X16173438Y-18081507D01*
X16182962Y-18071983D01*
X16192486Y-18052935D01*
X16268677Y-17967221D02*
X16268677Y-18005316D01*
X16344867Y-17967221D02*
X16344867Y-18005316D01*
X16640105Y-18243412D02*
X16630581Y-18233888D01*
X16611534Y-18205316D01*
X16602010Y-18186269D01*
X16592486Y-18157697D01*
X16582962Y-18110078D01*
X16582962Y-18071983D01*
X16592486Y-18024364D01*
X16602010Y-17995793D01*
X16611534Y-17976745D01*
X16630581Y-17948174D01*
X16640105Y-17938650D01*
X16821058Y-18167221D02*
X16706772Y-18167221D01*
X16763915Y-18167221D02*
X16763915Y-17967221D01*
X16744867Y-17995793D01*
X16725819Y-18014840D01*
X16706772Y-18024364D01*
X16897248Y-17986269D02*
X16906772Y-17976745D01*
X16925820Y-17967221D01*
X16973439Y-17967221D01*
X16992486Y-17976745D01*
X17002010Y-17986269D01*
X17011534Y-18005316D01*
X17011534Y-18024364D01*
X17002010Y-18052935D01*
X16887724Y-18167221D01*
X17011534Y-18167221D01*
X17249629Y-18167221D02*
X17249629Y-17967221D01*
X17335343Y-18167221D02*
X17335343Y-18062459D01*
X17325820Y-18043412D01*
X17306772Y-18033888D01*
X17278200Y-18033888D01*
X17259153Y-18043412D01*
X17249629Y-18052935D01*
X17459153Y-18167221D02*
X17440105Y-18157697D01*
X17430581Y-18148174D01*
X17421058Y-18129126D01*
X17421058Y-18071983D01*
X17430581Y-18052935D01*
X17440105Y-18043412D01*
X17459153Y-18033888D01*
X17487724Y-18033888D01*
X17506772Y-18043412D01*
X17516296Y-18052935D01*
X17525820Y-18071983D01*
X17525820Y-18129126D01*
X17516296Y-18148174D01*
X17506772Y-18157697D01*
X17487724Y-18167221D01*
X17459153Y-18167221D01*
X17640105Y-18167221D02*
X17621058Y-18157697D01*
X17611534Y-18138650D01*
X17611534Y-17967221D01*
X17792486Y-18157697D02*
X17773439Y-18167221D01*
X17735343Y-18167221D01*
X17716296Y-18157697D01*
X17706772Y-18138650D01*
X17706772Y-18062459D01*
X17716296Y-18043412D01*
X17735343Y-18033888D01*
X17773439Y-18033888D01*
X17792486Y-18043412D01*
X17802010Y-18062459D01*
X17802010Y-18081507D01*
X17706772Y-18100555D01*
X17878200Y-18157697D02*
X17897248Y-18167221D01*
X17935343Y-18167221D01*
X17954391Y-18157697D01*
X17963915Y-18138650D01*
X17963915Y-18129126D01*
X17954391Y-18110078D01*
X17935343Y-18100555D01*
X17906772Y-18100555D01*
X17887724Y-18091031D01*
X17878200Y-18071983D01*
X17878200Y-18062459D01*
X17887724Y-18043412D01*
X17906772Y-18033888D01*
X17935343Y-18033888D01*
X17954391Y-18043412D01*
X18030581Y-18243412D02*
X18040105Y-18233888D01*
X18059153Y-18205316D01*
X18068677Y-18186269D01*
X18078200Y-18157697D01*
X18087724Y-18110078D01*
X18087724Y-18071983D01*
X18078200Y-18024364D01*
X18068677Y-17995793D01*
X18059153Y-17976745D01*
X18040105Y-17948174D01*
X18030581Y-17938650D01*
D20*
X12958200Y-18285745D02*
X13068200Y-18395745D01*
X13068200Y-18285745D02*
X12958200Y-18395745D01*
X13013200Y-18395745D02*
X13068200Y-18340745D01*
X13013200Y-18285745D01*
X12958200Y-18340745D01*
X13013200Y-18395745D01*
D11*
X13430581Y-18431221D02*
X13316296Y-18431221D01*
X13373438Y-18431221D02*
X13373438Y-18231221D01*
X13354391Y-18259793D01*
X13335343Y-18278840D01*
X13316296Y-18288364D01*
X13516296Y-18412174D02*
X13525819Y-18421697D01*
X13516296Y-18431221D01*
X13506772Y-18421697D01*
X13516296Y-18412174D01*
X13516296Y-18431221D01*
X13716296Y-18431221D02*
X13602010Y-18431221D01*
X13659153Y-18431221D02*
X13659153Y-18231221D01*
X13640105Y-18259793D01*
X13621058Y-18278840D01*
X13602010Y-18288364D01*
X13840105Y-18231221D02*
X13859153Y-18231221D01*
X13878200Y-18240745D01*
X13887724Y-18250269D01*
X13897248Y-18269316D01*
X13906772Y-18307412D01*
X13906772Y-18355031D01*
X13897248Y-18393126D01*
X13887724Y-18412174D01*
X13878200Y-18421697D01*
X13859153Y-18431221D01*
X13840105Y-18431221D01*
X13821058Y-18421697D01*
X13811534Y-18412174D01*
X13802010Y-18393126D01*
X13792486Y-18355031D01*
X13792486Y-18307412D01*
X13802010Y-18269316D01*
X13811534Y-18250269D01*
X13821058Y-18240745D01*
X13840105Y-18231221D01*
X14030581Y-18231221D02*
X14049629Y-18231221D01*
X14068677Y-18240745D01*
X14078200Y-18250269D01*
X14087724Y-18269316D01*
X14097248Y-18307412D01*
X14097248Y-18355031D01*
X14087724Y-18393126D01*
X14078200Y-18412174D01*
X14068677Y-18421697D01*
X14049629Y-18431221D01*
X14030581Y-18431221D01*
X14011534Y-18421697D01*
X14002010Y-18412174D01*
X13992486Y-18393126D01*
X13982962Y-18355031D01*
X13982962Y-18307412D01*
X13992486Y-18269316D01*
X14002010Y-18250269D01*
X14011534Y-18240745D01*
X14030581Y-18231221D01*
X14182962Y-18431221D02*
X14182962Y-18297888D01*
X14182962Y-18316935D02*
X14192486Y-18307412D01*
X14211534Y-18297888D01*
X14240105Y-18297888D01*
X14259153Y-18307412D01*
X14268677Y-18326459D01*
X14268677Y-18431221D01*
X14268677Y-18326459D02*
X14278200Y-18307412D01*
X14297248Y-18297888D01*
X14325819Y-18297888D01*
X14344867Y-18307412D01*
X14354391Y-18326459D01*
X14354391Y-18431221D01*
X14449629Y-18431221D02*
X14449629Y-18297888D01*
X14449629Y-18316935D02*
X14459153Y-18307412D01*
X14478200Y-18297888D01*
X14506772Y-18297888D01*
X14525819Y-18307412D01*
X14535343Y-18326459D01*
X14535343Y-18431221D01*
X14535343Y-18326459D02*
X14544867Y-18307412D01*
X14563915Y-18297888D01*
X14592486Y-18297888D01*
X14611534Y-18307412D01*
X14621058Y-18326459D01*
X14621058Y-18431221D01*
X15011534Y-18221697D02*
X14840105Y-18478840D01*
X15268677Y-18231221D02*
X15287724Y-18231221D01*
X15306772Y-18240745D01*
X15316296Y-18250269D01*
X15325819Y-18269316D01*
X15335343Y-18307412D01*
X15335343Y-18355031D01*
X15325819Y-18393126D01*
X15316296Y-18412174D01*
X15306772Y-18421697D01*
X15287724Y-18431221D01*
X15268677Y-18431221D01*
X15249629Y-18421697D01*
X15240105Y-18412174D01*
X15230581Y-18393126D01*
X15221058Y-18355031D01*
X15221058Y-18307412D01*
X15230581Y-18269316D01*
X15240105Y-18250269D01*
X15249629Y-18240745D01*
X15268677Y-18231221D01*
X15421058Y-18412174D02*
X15430581Y-18421697D01*
X15421058Y-18431221D01*
X15411534Y-18421697D01*
X15421058Y-18412174D01*
X15421058Y-18431221D01*
X15554391Y-18231221D02*
X15573438Y-18231221D01*
X15592486Y-18240745D01*
X15602010Y-18250269D01*
X15611534Y-18269316D01*
X15621058Y-18307412D01*
X15621058Y-18355031D01*
X15611534Y-18393126D01*
X15602010Y-18412174D01*
X15592486Y-18421697D01*
X15573438Y-18431221D01*
X15554391Y-18431221D01*
X15535343Y-18421697D01*
X15525819Y-18412174D01*
X15516296Y-18393126D01*
X15506772Y-18355031D01*
X15506772Y-18307412D01*
X15516296Y-18269316D01*
X15525819Y-18250269D01*
X15535343Y-18240745D01*
X15554391Y-18231221D01*
X15792486Y-18297888D02*
X15792486Y-18431221D01*
X15744867Y-18221697D02*
X15697248Y-18364555D01*
X15821058Y-18364555D01*
X15878200Y-18231221D02*
X16002010Y-18231221D01*
X15935343Y-18307412D01*
X15963915Y-18307412D01*
X15982962Y-18316935D01*
X15992486Y-18326459D01*
X16002010Y-18345507D01*
X16002010Y-18393126D01*
X15992486Y-18412174D01*
X15982962Y-18421697D01*
X15963915Y-18431221D01*
X15906772Y-18431221D01*
X15887724Y-18421697D01*
X15878200Y-18412174D01*
X16068677Y-18231221D02*
X16192486Y-18231221D01*
X16125819Y-18307412D01*
X16154391Y-18307412D01*
X16173438Y-18316935D01*
X16182962Y-18326459D01*
X16192486Y-18345507D01*
X16192486Y-18393126D01*
X16182962Y-18412174D01*
X16173438Y-18421697D01*
X16154391Y-18431221D01*
X16097248Y-18431221D01*
X16078200Y-18421697D01*
X16068677Y-18412174D01*
X16268677Y-18231221D02*
X16268677Y-18269316D01*
X16344867Y-18231221D02*
X16344867Y-18269316D01*
X16640105Y-18507412D02*
X16630581Y-18497888D01*
X16611534Y-18469316D01*
X16602010Y-18450269D01*
X16592486Y-18421697D01*
X16582962Y-18374078D01*
X16582962Y-18335983D01*
X16592486Y-18288364D01*
X16602010Y-18259793D01*
X16611534Y-18240745D01*
X16630581Y-18212174D01*
X16640105Y-18202650D01*
X16706772Y-18250269D02*
X16716296Y-18240745D01*
X16735343Y-18231221D01*
X16782962Y-18231221D01*
X16802010Y-18240745D01*
X16811534Y-18250269D01*
X16821058Y-18269316D01*
X16821058Y-18288364D01*
X16811534Y-18316935D01*
X16697248Y-18431221D01*
X16821058Y-18431221D01*
X16992486Y-18297888D02*
X16992486Y-18431221D01*
X16944867Y-18221697D02*
X16897248Y-18364555D01*
X17021058Y-18364555D01*
X17249629Y-18431221D02*
X17249629Y-18231221D01*
X17335343Y-18431221D02*
X17335343Y-18326459D01*
X17325820Y-18307412D01*
X17306772Y-18297888D01*
X17278200Y-18297888D01*
X17259153Y-18307412D01*
X17249629Y-18316935D01*
X17459153Y-18431221D02*
X17440105Y-18421697D01*
X17430581Y-18412174D01*
X17421058Y-18393126D01*
X17421058Y-18335983D01*
X17430581Y-18316935D01*
X17440105Y-18307412D01*
X17459153Y-18297888D01*
X17487724Y-18297888D01*
X17506772Y-18307412D01*
X17516296Y-18316935D01*
X17525820Y-18335983D01*
X17525820Y-18393126D01*
X17516296Y-18412174D01*
X17506772Y-18421697D01*
X17487724Y-18431221D01*
X17459153Y-18431221D01*
X17640105Y-18431221D02*
X17621058Y-18421697D01*
X17611534Y-18402650D01*
X17611534Y-18231221D01*
X17792486Y-18421697D02*
X17773439Y-18431221D01*
X17735343Y-18431221D01*
X17716296Y-18421697D01*
X17706772Y-18402650D01*
X17706772Y-18326459D01*
X17716296Y-18307412D01*
X17735343Y-18297888D01*
X17773439Y-18297888D01*
X17792486Y-18307412D01*
X17802010Y-18326459D01*
X17802010Y-18345507D01*
X17706772Y-18364555D01*
X17878200Y-18421697D02*
X17897248Y-18431221D01*
X17935343Y-18431221D01*
X17954391Y-18421697D01*
X17963915Y-18402650D01*
X17963915Y-18393126D01*
X17954391Y-18374078D01*
X17935343Y-18364555D01*
X17906772Y-18364555D01*
X17887724Y-18355031D01*
X17878200Y-18335983D01*
X17878200Y-18326459D01*
X17887724Y-18307412D01*
X17906772Y-18297888D01*
X17935343Y-18297888D01*
X17954391Y-18307412D01*
X18030581Y-18507412D02*
X18040105Y-18497888D01*
X18059153Y-18469316D01*
X18068677Y-18450269D01*
X18078200Y-18421697D01*
X18087724Y-18374078D01*
X18087724Y-18335983D01*
X18078200Y-18288364D01*
X18068677Y-18259793D01*
X18059153Y-18240745D01*
X18040105Y-18212174D01*
X18030581Y-18202650D01*
X12968200Y-18504745D02*
X12968200Y-18704745D01*
X12868200Y-18604745D02*
X13068200Y-18604745D01*
X13068200Y-18604745D02*
G75*
G03*
X13068200Y-18604745I-100000J0D01*
G01*
X13316296Y-18514269D02*
X13325819Y-18504745D01*
X13344867Y-18495221D01*
X13392486Y-18495221D01*
X13411534Y-18504745D01*
X13421058Y-18514269D01*
X13430581Y-18533316D01*
X13430581Y-18552364D01*
X13421058Y-18580935D01*
X13306772Y-18695221D01*
X13430581Y-18695221D01*
X13516296Y-18676174D02*
X13525819Y-18685697D01*
X13516296Y-18695221D01*
X13506772Y-18685697D01*
X13516296Y-18676174D01*
X13516296Y-18695221D01*
X13649629Y-18495221D02*
X13668677Y-18495221D01*
X13687724Y-18504745D01*
X13697248Y-18514269D01*
X13706772Y-18533316D01*
X13716296Y-18571412D01*
X13716296Y-18619031D01*
X13706772Y-18657126D01*
X13697248Y-18676174D01*
X13687724Y-18685697D01*
X13668677Y-18695221D01*
X13649629Y-18695221D01*
X13630581Y-18685697D01*
X13621058Y-18676174D01*
X13611534Y-18657126D01*
X13602010Y-18619031D01*
X13602010Y-18571412D01*
X13611534Y-18533316D01*
X13621058Y-18514269D01*
X13630581Y-18504745D01*
X13649629Y-18495221D01*
X13887724Y-18495221D02*
X13849629Y-18495221D01*
X13830581Y-18504745D01*
X13821058Y-18514269D01*
X13802010Y-18542840D01*
X13792486Y-18580935D01*
X13792486Y-18657126D01*
X13802010Y-18676174D01*
X13811534Y-18685697D01*
X13830581Y-18695221D01*
X13868677Y-18695221D01*
X13887724Y-18685697D01*
X13897248Y-18676174D01*
X13906772Y-18657126D01*
X13906772Y-18609507D01*
X13897248Y-18590459D01*
X13887724Y-18580935D01*
X13868677Y-18571412D01*
X13830581Y-18571412D01*
X13811534Y-18580935D01*
X13802010Y-18590459D01*
X13792486Y-18609507D01*
X14030581Y-18495221D02*
X14049629Y-18495221D01*
X14068677Y-18504745D01*
X14078200Y-18514269D01*
X14087724Y-18533316D01*
X14097248Y-18571412D01*
X14097248Y-18619031D01*
X14087724Y-18657126D01*
X14078200Y-18676174D01*
X14068677Y-18685697D01*
X14049629Y-18695221D01*
X14030581Y-18695221D01*
X14011534Y-18685697D01*
X14002010Y-18676174D01*
X13992486Y-18657126D01*
X13982962Y-18619031D01*
X13982962Y-18571412D01*
X13992486Y-18533316D01*
X14002010Y-18514269D01*
X14011534Y-18504745D01*
X14030581Y-18495221D01*
X14182962Y-18695221D02*
X14182962Y-18561888D01*
X14182962Y-18580935D02*
X14192486Y-18571412D01*
X14211534Y-18561888D01*
X14240105Y-18561888D01*
X14259153Y-18571412D01*
X14268677Y-18590459D01*
X14268677Y-18695221D01*
X14268677Y-18590459D02*
X14278200Y-18571412D01*
X14297248Y-18561888D01*
X14325819Y-18561888D01*
X14344867Y-18571412D01*
X14354391Y-18590459D01*
X14354391Y-18695221D01*
X14449629Y-18695221D02*
X14449629Y-18561888D01*
X14449629Y-18580935D02*
X14459153Y-18571412D01*
X14478200Y-18561888D01*
X14506772Y-18561888D01*
X14525819Y-18571412D01*
X14535343Y-18590459D01*
X14535343Y-18695221D01*
X14535343Y-18590459D02*
X14544867Y-18571412D01*
X14563915Y-18561888D01*
X14592486Y-18561888D01*
X14611534Y-18571412D01*
X14621058Y-18590459D01*
X14621058Y-18695221D01*
X15011534Y-18485697D02*
X14840105Y-18742840D01*
X15268677Y-18495221D02*
X15287724Y-18495221D01*
X15306772Y-18504745D01*
X15316296Y-18514269D01*
X15325819Y-18533316D01*
X15335343Y-18571412D01*
X15335343Y-18619031D01*
X15325819Y-18657126D01*
X15316296Y-18676174D01*
X15306772Y-18685697D01*
X15287724Y-18695221D01*
X15268677Y-18695221D01*
X15249629Y-18685697D01*
X15240105Y-18676174D01*
X15230581Y-18657126D01*
X15221058Y-18619031D01*
X15221058Y-18571412D01*
X15230581Y-18533316D01*
X15240105Y-18514269D01*
X15249629Y-18504745D01*
X15268677Y-18495221D01*
X15421058Y-18676174D02*
X15430581Y-18685697D01*
X15421058Y-18695221D01*
X15411534Y-18685697D01*
X15421058Y-18676174D01*
X15421058Y-18695221D01*
X15554391Y-18495221D02*
X15573438Y-18495221D01*
X15592486Y-18504745D01*
X15602010Y-18514269D01*
X15611534Y-18533316D01*
X15621058Y-18571412D01*
X15621058Y-18619031D01*
X15611534Y-18657126D01*
X15602010Y-18676174D01*
X15592486Y-18685697D01*
X15573438Y-18695221D01*
X15554391Y-18695221D01*
X15535343Y-18685697D01*
X15525819Y-18676174D01*
X15516296Y-18657126D01*
X15506772Y-18619031D01*
X15506772Y-18571412D01*
X15516296Y-18533316D01*
X15525819Y-18514269D01*
X15535343Y-18504745D01*
X15554391Y-18495221D01*
X15735343Y-18580935D02*
X15716296Y-18571412D01*
X15706772Y-18561888D01*
X15697248Y-18542840D01*
X15697248Y-18533316D01*
X15706772Y-18514269D01*
X15716296Y-18504745D01*
X15735343Y-18495221D01*
X15773438Y-18495221D01*
X15792486Y-18504745D01*
X15802010Y-18514269D01*
X15811534Y-18533316D01*
X15811534Y-18542840D01*
X15802010Y-18561888D01*
X15792486Y-18571412D01*
X15773438Y-18580935D01*
X15735343Y-18580935D01*
X15716296Y-18590459D01*
X15706772Y-18599983D01*
X15697248Y-18619031D01*
X15697248Y-18657126D01*
X15706772Y-18676174D01*
X15716296Y-18685697D01*
X15735343Y-18695221D01*
X15773438Y-18695221D01*
X15792486Y-18685697D01*
X15802010Y-18676174D01*
X15811534Y-18657126D01*
X15811534Y-18619031D01*
X15802010Y-18599983D01*
X15792486Y-18590459D01*
X15773438Y-18580935D01*
X16002010Y-18695221D02*
X15887724Y-18695221D01*
X15944867Y-18695221D02*
X15944867Y-18495221D01*
X15925819Y-18523793D01*
X15906772Y-18542840D01*
X15887724Y-18552364D01*
X16192486Y-18695221D02*
X16078200Y-18695221D01*
X16135343Y-18695221D02*
X16135343Y-18495221D01*
X16116296Y-18523793D01*
X16097248Y-18542840D01*
X16078200Y-18552364D01*
X16268677Y-18495221D02*
X16268677Y-18533316D01*
X16344867Y-18495221D02*
X16344867Y-18533316D01*
X16640105Y-18771412D02*
X16630581Y-18761888D01*
X16611534Y-18733316D01*
X16602010Y-18714269D01*
X16592486Y-18685697D01*
X16582962Y-18638078D01*
X16582962Y-18599983D01*
X16592486Y-18552364D01*
X16602010Y-18523793D01*
X16611534Y-18504745D01*
X16630581Y-18476174D01*
X16640105Y-18466650D01*
X16802010Y-18561888D02*
X16802010Y-18695221D01*
X16754391Y-18485697D02*
X16706772Y-18628555D01*
X16830581Y-18628555D01*
X17059153Y-18695221D02*
X17059153Y-18495221D01*
X17144867Y-18695221D02*
X17144867Y-18590459D01*
X17135343Y-18571412D01*
X17116296Y-18561888D01*
X17087724Y-18561888D01*
X17068677Y-18571412D01*
X17059153Y-18580935D01*
X17268677Y-18695221D02*
X17249629Y-18685697D01*
X17240105Y-18676174D01*
X17230581Y-18657126D01*
X17230581Y-18599983D01*
X17240105Y-18580935D01*
X17249629Y-18571412D01*
X17268677Y-18561888D01*
X17297248Y-18561888D01*
X17316296Y-18571412D01*
X17325820Y-18580935D01*
X17335343Y-18599983D01*
X17335343Y-18657126D01*
X17325820Y-18676174D01*
X17316296Y-18685697D01*
X17297248Y-18695221D01*
X17268677Y-18695221D01*
X17449629Y-18695221D02*
X17430581Y-18685697D01*
X17421058Y-18666650D01*
X17421058Y-18495221D01*
X17602010Y-18685697D02*
X17582962Y-18695221D01*
X17544867Y-18695221D01*
X17525820Y-18685697D01*
X17516296Y-18666650D01*
X17516296Y-18590459D01*
X17525820Y-18571412D01*
X17544867Y-18561888D01*
X17582962Y-18561888D01*
X17602010Y-18571412D01*
X17611534Y-18590459D01*
X17611534Y-18609507D01*
X17516296Y-18628555D01*
X17687724Y-18685697D02*
X17706772Y-18695221D01*
X17744867Y-18695221D01*
X17763915Y-18685697D01*
X17773439Y-18666650D01*
X17773439Y-18657126D01*
X17763915Y-18638078D01*
X17744867Y-18628555D01*
X17716296Y-18628555D01*
X17697248Y-18619031D01*
X17687724Y-18599983D01*
X17687724Y-18590459D01*
X17697248Y-18571412D01*
X17716296Y-18561888D01*
X17744867Y-18561888D01*
X17763915Y-18571412D01*
X17840105Y-18771412D02*
X17849629Y-18761888D01*
X17868677Y-18733316D01*
X17878200Y-18714269D01*
X17887724Y-18685697D01*
X17897248Y-18638078D01*
X17897248Y-18599983D01*
X17887724Y-18552364D01*
X17878200Y-18523793D01*
X17868677Y-18504745D01*
X17849629Y-18476174D01*
X17840105Y-18466650D01*
X13038912Y-18995456D02*
X13038912Y-18854034D01*
X12897489Y-18854034D01*
X12897489Y-18995456D01*
X13038912Y-18995456D01*
X13068200Y-18924745D02*
G75*
G03*
X13068200Y-18924745I-100000J0D01*
G01*
X13306772Y-18815221D02*
X13430581Y-18815221D01*
X13363915Y-18891412D01*
X13392486Y-18891412D01*
X13411534Y-18900935D01*
X13421058Y-18910459D01*
X13430581Y-18929507D01*
X13430581Y-18977126D01*
X13421058Y-18996174D01*
X13411534Y-19005697D01*
X13392486Y-19015221D01*
X13335343Y-19015221D01*
X13316296Y-19005697D01*
X13306772Y-18996174D01*
X13516296Y-18996174D02*
X13525819Y-19005697D01*
X13516296Y-19015221D01*
X13506772Y-19005697D01*
X13516296Y-18996174D01*
X13516296Y-19015221D01*
X13649629Y-18815221D02*
X13668677Y-18815221D01*
X13687724Y-18824745D01*
X13697248Y-18834269D01*
X13706772Y-18853316D01*
X13716296Y-18891412D01*
X13716296Y-18939031D01*
X13706772Y-18977126D01*
X13697248Y-18996174D01*
X13687724Y-19005697D01*
X13668677Y-19015221D01*
X13649629Y-19015221D01*
X13630581Y-19005697D01*
X13621058Y-18996174D01*
X13611534Y-18977126D01*
X13602010Y-18939031D01*
X13602010Y-18891412D01*
X13611534Y-18853316D01*
X13621058Y-18834269D01*
X13630581Y-18824745D01*
X13649629Y-18815221D01*
X13840105Y-18815221D02*
X13859153Y-18815221D01*
X13878200Y-18824745D01*
X13887724Y-18834269D01*
X13897248Y-18853316D01*
X13906772Y-18891412D01*
X13906772Y-18939031D01*
X13897248Y-18977126D01*
X13887724Y-18996174D01*
X13878200Y-19005697D01*
X13859153Y-19015221D01*
X13840105Y-19015221D01*
X13821058Y-19005697D01*
X13811534Y-18996174D01*
X13802010Y-18977126D01*
X13792486Y-18939031D01*
X13792486Y-18891412D01*
X13802010Y-18853316D01*
X13811534Y-18834269D01*
X13821058Y-18824745D01*
X13840105Y-18815221D01*
X14030581Y-18815221D02*
X14049629Y-18815221D01*
X14068677Y-18824745D01*
X14078200Y-18834269D01*
X14087724Y-18853316D01*
X14097248Y-18891412D01*
X14097248Y-18939031D01*
X14087724Y-18977126D01*
X14078200Y-18996174D01*
X14068677Y-19005697D01*
X14049629Y-19015221D01*
X14030581Y-19015221D01*
X14011534Y-19005697D01*
X14002010Y-18996174D01*
X13992486Y-18977126D01*
X13982962Y-18939031D01*
X13982962Y-18891412D01*
X13992486Y-18853316D01*
X14002010Y-18834269D01*
X14011534Y-18824745D01*
X14030581Y-18815221D01*
X14182962Y-19015221D02*
X14182962Y-18881888D01*
X14182962Y-18900935D02*
X14192486Y-18891412D01*
X14211534Y-18881888D01*
X14240105Y-18881888D01*
X14259153Y-18891412D01*
X14268677Y-18910459D01*
X14268677Y-19015221D01*
X14268677Y-18910459D02*
X14278200Y-18891412D01*
X14297248Y-18881888D01*
X14325819Y-18881888D01*
X14344867Y-18891412D01*
X14354391Y-18910459D01*
X14354391Y-19015221D01*
X14449629Y-19015221D02*
X14449629Y-18881888D01*
X14449629Y-18900935D02*
X14459153Y-18891412D01*
X14478200Y-18881888D01*
X14506772Y-18881888D01*
X14525819Y-18891412D01*
X14535343Y-18910459D01*
X14535343Y-19015221D01*
X14535343Y-18910459D02*
X14544867Y-18891412D01*
X14563915Y-18881888D01*
X14592486Y-18881888D01*
X14611534Y-18891412D01*
X14621058Y-18910459D01*
X14621058Y-19015221D01*
X15011534Y-18805697D02*
X14840105Y-19062840D01*
X15268677Y-18815221D02*
X15287724Y-18815221D01*
X15306772Y-18824745D01*
X15316296Y-18834269D01*
X15325819Y-18853316D01*
X15335343Y-18891412D01*
X15335343Y-18939031D01*
X15325819Y-18977126D01*
X15316296Y-18996174D01*
X15306772Y-19005697D01*
X15287724Y-19015221D01*
X15268677Y-19015221D01*
X15249629Y-19005697D01*
X15240105Y-18996174D01*
X15230581Y-18977126D01*
X15221058Y-18939031D01*
X15221058Y-18891412D01*
X15230581Y-18853316D01*
X15240105Y-18834269D01*
X15249629Y-18824745D01*
X15268677Y-18815221D01*
X15421058Y-18996174D02*
X15430581Y-19005697D01*
X15421058Y-19015221D01*
X15411534Y-19005697D01*
X15421058Y-18996174D01*
X15421058Y-19015221D01*
X15621058Y-19015221D02*
X15506772Y-19015221D01*
X15563915Y-19015221D02*
X15563915Y-18815221D01*
X15544867Y-18843793D01*
X15525819Y-18862840D01*
X15506772Y-18872364D01*
X15811534Y-19015221D02*
X15697248Y-19015221D01*
X15754391Y-19015221D02*
X15754391Y-18815221D01*
X15735343Y-18843793D01*
X15716296Y-18862840D01*
X15697248Y-18872364D01*
X15925819Y-18900935D02*
X15906772Y-18891412D01*
X15897248Y-18881888D01*
X15887724Y-18862840D01*
X15887724Y-18853316D01*
X15897248Y-18834269D01*
X15906772Y-18824745D01*
X15925819Y-18815221D01*
X15963915Y-18815221D01*
X15982962Y-18824745D01*
X15992486Y-18834269D01*
X16002010Y-18853316D01*
X16002010Y-18862840D01*
X15992486Y-18881888D01*
X15982962Y-18891412D01*
X15963915Y-18900935D01*
X15925819Y-18900935D01*
X15906772Y-18910459D01*
X15897248Y-18919983D01*
X15887724Y-18939031D01*
X15887724Y-18977126D01*
X15897248Y-18996174D01*
X15906772Y-19005697D01*
X15925819Y-19015221D01*
X15963915Y-19015221D01*
X15982962Y-19005697D01*
X15992486Y-18996174D01*
X16002010Y-18977126D01*
X16002010Y-18939031D01*
X15992486Y-18919983D01*
X15982962Y-18910459D01*
X15963915Y-18900935D01*
X16192486Y-19015221D02*
X16078200Y-19015221D01*
X16135343Y-19015221D02*
X16135343Y-18815221D01*
X16116296Y-18843793D01*
X16097248Y-18862840D01*
X16078200Y-18872364D01*
X16268677Y-18815221D02*
X16268677Y-18853316D01*
X16344867Y-18815221D02*
X16344867Y-18853316D01*
X16640105Y-19091412D02*
X16630581Y-19081888D01*
X16611534Y-19053316D01*
X16602010Y-19034269D01*
X16592486Y-19005697D01*
X16582962Y-18958078D01*
X16582962Y-18919983D01*
X16592486Y-18872364D01*
X16602010Y-18843793D01*
X16611534Y-18824745D01*
X16630581Y-18796174D01*
X16640105Y-18786650D01*
X16802010Y-18881888D02*
X16802010Y-19015221D01*
X16754391Y-18805697D02*
X16706772Y-18948555D01*
X16830581Y-18948555D01*
X17059153Y-19015221D02*
X17059153Y-18815221D01*
X17144867Y-19015221D02*
X17144867Y-18910459D01*
X17135343Y-18891412D01*
X17116296Y-18881888D01*
X17087724Y-18881888D01*
X17068677Y-18891412D01*
X17059153Y-18900935D01*
X17268677Y-19015221D02*
X17249629Y-19005697D01*
X17240105Y-18996174D01*
X17230581Y-18977126D01*
X17230581Y-18919983D01*
X17240105Y-18900935D01*
X17249629Y-18891412D01*
X17268677Y-18881888D01*
X17297248Y-18881888D01*
X17316296Y-18891412D01*
X17325820Y-18900935D01*
X17335343Y-18919983D01*
X17335343Y-18977126D01*
X17325820Y-18996174D01*
X17316296Y-19005697D01*
X17297248Y-19015221D01*
X17268677Y-19015221D01*
X17449629Y-19015221D02*
X17430581Y-19005697D01*
X17421058Y-18986650D01*
X17421058Y-18815221D01*
X17602010Y-19005697D02*
X17582962Y-19015221D01*
X17544867Y-19015221D01*
X17525820Y-19005697D01*
X17516296Y-18986650D01*
X17516296Y-18910459D01*
X17525820Y-18891412D01*
X17544867Y-18881888D01*
X17582962Y-18881888D01*
X17602010Y-18891412D01*
X17611534Y-18910459D01*
X17611534Y-18929507D01*
X17516296Y-18948555D01*
X17687724Y-19005697D02*
X17706772Y-19015221D01*
X17744867Y-19015221D01*
X17763915Y-19005697D01*
X17773439Y-18986650D01*
X17773439Y-18977126D01*
X17763915Y-18958078D01*
X17744867Y-18948555D01*
X17716296Y-18948555D01*
X17697248Y-18939031D01*
X17687724Y-18919983D01*
X17687724Y-18910459D01*
X17697248Y-18891412D01*
X17716296Y-18881888D01*
X17744867Y-18881888D01*
X17763915Y-18891412D01*
X17840105Y-19091412D02*
X17849629Y-19081888D01*
X17868677Y-19053316D01*
X17878200Y-19034269D01*
X17887724Y-19005697D01*
X17897248Y-18958078D01*
X17897248Y-18919983D01*
X17887724Y-18872364D01*
X17878200Y-18843793D01*
X17868677Y-18824745D01*
X17849629Y-18796174D01*
X17840105Y-18786650D01*
M02*
