M48
; DRILL file {KiCad (6.0.2)} date Mon Mar 28 07:25:11 2022
; FORMAT={-:-/ absolute / metric / decimal}
; #@! TF.CreationDate,2022-03-28T07:25:11+09:00
; #@! TF.GenerationSoftware,Kicad,Pcbnew,(6.0.2)
; #@! TF.FileFunction,Plated,1,2,PTH
FMAT,2
METRIC
; #@! TA.AperFunction,Plated,PTH,ViaDrill
T1C0.400
; #@! TA.AperFunction,Plated,PTH,ComponentDrill
T2C0.700
; #@! TA.AperFunction,Plated,PTH,ComponentDrill
T3C0.800
; #@! TA.AperFunction,Plated,PTH,ComponentDrill
T4C0.850
; #@! TA.AperFunction,Plated,PTH,ComponentDrill
T5C0.900
; #@! TA.AperFunction,Plated,PTH,ComponentDrill
T6C0.950
; #@! TA.AperFunction,Plated,PTH,ComponentDrill
T7C1.000
; #@! TA.AperFunction,Plated,PTH,ComponentDrill
T8C1.090
; #@! TA.AperFunction,Plated,PTH,ComponentDrill
T9C1.100
; #@! TA.AperFunction,Plated,PTH,ComponentDrill
T10C2.060
; #@! TA.AperFunction,Plated,PTH,ComponentDrill
T11C3.000
%
G90
G05
T1
X153.928Y-116.18
X157.474Y-125.558
X162.469Y-105.232
X162.919Y-87.471
X163.783Y-115.13
X163.816Y-123.339
X165.594Y-104.278
X165.95Y-97.934
X166.326Y-125.199
X172.323Y-137.967
X180.584Y-78.995
X182.933Y-78.233
X185.071Y-94.585
X187.415Y-84.149
X188.214Y-96.064
X190.686Y-95.311
X194.745Y-96.708
X196.016Y-128.601
X203.021Y-115.701
T2
X139.422Y-118.926
X139.422Y-120.526
X140.622Y-118.126
X140.622Y-119.726
X140.622Y-121.326
X146.642Y-115.975
X146.642Y-121.055
X163.562Y-131.38
X163.562Y-136.46
X186.422Y-117.41
X191.502Y-117.41
X196.582Y-69.15
X201.562Y-125.14
X201.662Y-69.15
X206.642Y-125.14
X213.627Y-125.14
X218.707Y-125.14
X225.057Y-125.14
X230.137Y-125.14
X230.152Y-60.761
X230.152Y-65.841
T3
X144.102Y-115.995
X144.102Y-118.495
X158.782Y-131.485
X158.782Y-133.985
X165.472Y-69.582
X165.472Y-72.082
X179.987Y-60.781
X179.987Y-63.281
X187.302Y-122.325
X189.802Y-122.325
X190.272Y-107.885
X192.772Y-107.885
X198.622Y-84.001
X199.122Y-78.921
X199.127Y-112.07
X199.127Y-114.61
X199.127Y-117.15
X199.127Y-119.69
X199.127Y-122.23
X199.127Y-124.77
X199.127Y-127.31
X201.122Y-84.001
X201.622Y-78.921
X202.562Y-130.22
X205.062Y-130.22
X214.917Y-130.22
X217.417Y-130.22
X220.627Y-62.655
X220.627Y-65.155
X226.347Y-130.22
X228.847Y-130.22
T4
X210.452Y-85.58
X210.452Y-88.12
X210.452Y-90.66
X210.452Y-93.2
X210.452Y-95.74
X210.452Y-98.28
X210.452Y-100.82
X210.452Y-103.36
X210.452Y-105.9
X214.261Y-105.9
X216.804Y-105.9
X219.344Y-105.9
X221.884Y-105.9
X225.692Y-93.2
X225.692Y-95.74
X225.692Y-98.28
X225.692Y-100.82
X225.692Y-103.36
X225.692Y-105.9
T5
X150.147Y-142.041
X152.687Y-142.041
T6
X150.267Y-87.735
X150.267Y-90.235
X150.267Y-92.735
X150.267Y-95.235
X150.777Y-70.832
X150.777Y-73.332
X150.777Y-75.832
X157.187Y-62.052
X159.687Y-62.052
X162.187Y-62.052
X164.687Y-62.052
X174.967Y-128.801
X174.967Y-135.801
X176.262Y-107.33
X176.262Y-109.83
X176.262Y-112.33
X177.467Y-128.801
X177.467Y-135.801
X179.967Y-128.801
X179.967Y-135.801
X182.467Y-128.801
X182.467Y-135.801
X183.162Y-107.33
X183.162Y-109.83
X183.162Y-112.33
X184.967Y-128.801
X186.457Y-62.051
X187.467Y-128.801
X188.302Y-135.711
X188.957Y-62.051
X190.802Y-135.711
X191.457Y-62.051
X193.302Y-135.711
X193.957Y-62.051
X195.802Y-135.711
X231.932Y-87.735
X231.932Y-90.235
X231.932Y-92.735
X231.932Y-95.235
T7
X150.142Y-104.36
X150.142Y-106.9
X150.142Y-109.44
X150.142Y-111.98
X150.142Y-114.52
X150.142Y-117.06
X150.142Y-119.6
X150.142Y-122.14
X150.142Y-124.68
X150.142Y-127.22
X150.142Y-129.76
X150.142Y-132.3
X150.142Y-134.84
X150.142Y-137.38
X152.682Y-104.36
X152.682Y-106.9
X152.682Y-109.44
X152.682Y-111.98
X152.682Y-114.52
X152.682Y-117.06
X152.682Y-119.6
X152.682Y-122.14
X152.682Y-124.68
X152.682Y-127.22
X152.682Y-129.76
X152.682Y-132.3
X152.682Y-134.84
X152.682Y-137.38
X155.222Y-69.562
X155.222Y-72.102
X155.222Y-74.642
X155.222Y-77.182
X155.222Y-79.722
X155.222Y-82.262
X155.222Y-84.802
X156.782Y-52.596
X156.782Y-55.096
X157.127Y-89.247
X157.127Y-99.407
X158.702Y-114.715
X158.702Y-117.255
X158.702Y-119.795
X158.702Y-122.335
X159.667Y-89.247
X159.667Y-99.407
X161.242Y-114.715
X161.242Y-117.255
X161.242Y-119.795
X161.242Y-122.335
X162.207Y-89.247
X162.207Y-99.407
X164.747Y-89.247
X164.747Y-99.407
X167.287Y-89.247
X167.287Y-99.407
X167.922Y-104.36
X167.922Y-106.9
X167.922Y-109.44
X167.922Y-111.98
X167.922Y-114.52
X167.922Y-117.06
X167.922Y-119.6
X167.922Y-122.14
X167.922Y-124.68
X167.922Y-127.22
X167.922Y-129.76
X167.922Y-132.3
X167.922Y-134.84
X167.922Y-137.38
X169.827Y-89.247
X169.827Y-99.407
X170.462Y-69.562
X170.462Y-72.102
X170.462Y-74.642
X170.462Y-77.182
X170.462Y-79.722
X170.462Y-82.262
X170.462Y-84.802
X170.462Y-104.36
X170.462Y-106.9
X170.462Y-109.44
X170.462Y-111.98
X170.462Y-114.52
X170.462Y-117.06
X170.462Y-119.6
X170.462Y-122.14
X170.462Y-124.68
X170.462Y-127.22
X170.462Y-129.76
X170.462Y-132.3
X170.462Y-134.84
X170.462Y-137.38
X174.782Y-60.798
X174.782Y-63.338
X174.782Y-65.878
X174.782Y-68.418
X174.782Y-70.958
X174.782Y-73.498
X174.782Y-76.038
X174.782Y-78.578
X181.797Y-102.582
X184.337Y-102.582
X186.877Y-102.582
X189.417Y-102.582
X191.957Y-102.582
X193.886Y-127.425
X193.886Y-129.925
X194.497Y-102.582
X195.182Y-78.917
X195.182Y-81.457
X195.182Y-83.997
X197.037Y-102.582
X199.577Y-102.582
X199.732Y-63.521
X202.232Y-63.521
X206.782Y-60.798
X206.782Y-63.338
X206.782Y-65.878
X206.782Y-68.418
X206.782Y-70.958
X206.782Y-73.498
X206.782Y-76.038
X206.782Y-78.578
X210.467Y-62.635
X210.467Y-65.175
X210.467Y-67.715
X210.467Y-70.255
X210.467Y-72.795
X210.467Y-75.335
X210.467Y-77.875
X225.707Y-62.635
X225.707Y-65.175
X225.707Y-67.715
X225.707Y-70.255
X225.707Y-72.795
X225.707Y-75.335
X225.707Y-77.875
X239.352Y-120.42
X246.952Y-120.42
T8
X139.302Y-127.405
X139.302Y-129.945
X139.302Y-132.485
X151.412Y-60.672
X151.412Y-63.212
X151.412Y-65.752
X159.032Y-140.445
X159.032Y-142.985
X159.032Y-145.525
X170.462Y-60.672
X170.462Y-63.212
X170.462Y-65.752
T9
X173.967Y-117.181
X173.967Y-124.801
X177.142Y-117.181
X177.142Y-124.801
X180.317Y-117.181
X180.317Y-124.801
X183.492Y-117.181
X183.492Y-124.801
X200.62Y-132.716
X200.62Y-137.216
X207.12Y-132.716
X207.12Y-137.216
X212.62Y-132.716
X212.62Y-137.216
X219.12Y-132.716
X219.12Y-137.216
X223.092Y-52.796
X223.092Y-57.296
X224.362Y-132.716
X224.362Y-137.216
X229.592Y-52.796
X229.592Y-57.296
X230.862Y-132.716
X230.862Y-137.216
T10
X134.972Y-116.026
X134.972Y-123.426
X139.722Y-116.026
X139.722Y-123.426
T11
X176.304Y-100.295
X183.027Y-89.842
X198.347Y-89.842
X205.26Y-100.295
T0
M30
