G04 #@! TF.GenerationSoftware,KiCad,Pcbnew,(6.0.4)*
G04 #@! TF.CreationDate,2022-03-28T09:35:34+09:00*
G04 #@! TF.ProjectId,Main_Board,4d61696e-5f42-46f6-9172-642e6b696361,rev?*
G04 #@! TF.SameCoordinates,Original*
G04 #@! TF.FileFunction,Legend,Top*
G04 #@! TF.FilePolarity,Positive*
%FSLAX46Y46*%
G04 Gerber Fmt 4.6, Leading zero omitted, Abs format (unit mm)*
G04 Created by KiCad (PCBNEW (6.0.4)) date 2022-03-28 09:35:34*
%MOMM*%
%LPD*%
G01*
G04 APERTURE LIST*
G04 Aperture macros list*
%AMRoundRect*
0 Rectangle with rounded corners*
0 $1 Rounding radius*
0 $2 $3 $4 $5 $6 $7 $8 $9 X,Y pos of 4 corners*
0 Add a 4 corners polygon primitive as box body*
4,1,4,$2,$3,$4,$5,$6,$7,$8,$9,$2,$3,0*
0 Add four circle primitives for the rounded corners*
1,1,$1+$1,$2,$3*
1,1,$1+$1,$4,$5*
1,1,$1+$1,$6,$7*
1,1,$1+$1,$8,$9*
0 Add four rect primitives between the rounded corners*
20,1,$1+$1,$2,$3,$4,$5,0*
20,1,$1+$1,$4,$5,$6,$7,0*
20,1,$1+$1,$6,$7,$8,$9,0*
20,1,$1+$1,$8,$9,$2,$3,0*%
G04 Aperture macros list end*
G04 #@! TA.AperFunction,Profile*
%ADD10C,0.200000*%
G04 #@! TD*
%ADD11C,0.150000*%
%ADD12C,0.254000*%
%ADD13C,0.100000*%
%ADD14C,0.120000*%
%ADD15C,0.200000*%
G04 #@! TA.AperFunction,Profile*
%ADD16C,0.120000*%
G04 #@! TD*
%ADD17C,1.635000*%
%ADD18C,0.300000*%
%ADD19C,1.600000*%
%ADD20R,2.200000X2.200000*%
%ADD21O,2.200000X2.200000*%
%ADD22C,1.400000*%
%ADD23O,1.400000X1.400000*%
%ADD24C,1.700000*%
%ADD25C,3.000000*%
%ADD26O,1.700000X2.500000*%
%ADD27RoundRect,0.250000X-0.725000X0.600000X-0.725000X-0.600000X0.725000X-0.600000X0.725000X0.600000X0*%
%ADD28O,1.950000X1.700000*%
%ADD29RoundRect,0.250000X-0.600000X-0.725000X0.600000X-0.725000X0.600000X0.725000X-0.600000X0.725000X0*%
%ADD30O,1.700000X1.950000*%
%ADD31R,2.000000X2.000000*%
%ADD32C,2.000000*%
%ADD33R,1.700000X1.700000*%
%ADD34O,1.700000X1.700000*%
%ADD35RoundRect,0.250000X-0.750000X0.600000X-0.750000X-0.600000X0.750000X-0.600000X0.750000X0.600000X0*%
%ADD36O,2.000000X1.700000*%
%ADD37RoundRect,0.250000X0.725000X-0.600000X0.725000X0.600000X-0.725000X0.600000X-0.725000X-0.600000X0*%
%ADD38R,2.000000X1.200000*%
%ADD39O,1.400000X1.300000*%
%ADD40R,1.400000X1.300000*%
%ADD41O,1.300000X1.400000*%
%ADD42R,1.200000X2.000000*%
%ADD43R,1.300000X1.300000*%
%ADD44R,1.800000X1.800000*%
%ADD45C,1.800000*%
%ADD46C,1.200000*%
%ADD47C,2.950000*%
%ADD48C,3.090000*%
%ADD49C,1.524000*%
%ADD50RoundRect,0.250000X-0.600000X-0.750000X0.600000X-0.750000X0.600000X0.750000X-0.600000X0.750000X0*%
%ADD51O,1.700000X2.000000*%
G04 APERTURE END LIST*
D10*
X135782005Y-91484651D02*
G75*
G03*
X135782005Y-91484651I-1500000J0D01*
G01*
X216282005Y-45992010D02*
G75*
G03*
X216282005Y-45992010I-1000000J0D01*
G01*
X208782005Y-149242005D02*
G75*
G03*
X211782005Y-146242010I-5J3000005D01*
G01*
X237282005Y-64242010D02*
G75*
G03*
X237282005Y-64242010I-1500000J0D01*
G01*
X226660685Y-43620690D02*
X249903325Y-66863330D01*
X157024646Y-42742039D02*
G75*
G03*
X154903325Y-43620690I-46J-2999961D01*
G01*
X160781990Y-56242010D02*
G75*
G03*
X163782005Y-59242010I3000010J10D01*
G01*
X160782005Y-52242010D02*
X160782005Y-56242010D01*
X250781968Y-68984651D02*
G75*
G03*
X249903325Y-66863330I-2999968J51D01*
G01*
X211781990Y-142242010D02*
G75*
G03*
X208782005Y-139242010I-2999990J10D01*
G01*
X163782005Y-59242010D02*
X217782005Y-59242010D01*
X217782005Y-142242010D02*
G75*
G03*
X217782005Y-142242010I-1500000J0D01*
G01*
X157024646Y-42742010D02*
X224539364Y-42742010D01*
X220782005Y-56242010D02*
X220782005Y-52242010D01*
X147282005Y-64242010D02*
G75*
G03*
X147282005Y-64242010I-1500000J0D01*
G01*
X131660685Y-66863330D02*
X154903325Y-43620690D01*
X131407001Y-130063508D02*
G75*
G03*
X167829319Y-155643510I59374999J45821508D01*
G01*
X250782005Y-68984651D02*
X250782005Y-128230645D01*
X130781976Y-128230645D02*
G75*
G03*
X131407005Y-130063505I3000024J45D01*
G01*
X220781990Y-52242010D02*
G75*
G03*
X217782005Y-49242010I-2999990J10D01*
G01*
X169781990Y-146242010D02*
G75*
G03*
X172782005Y-149242010I3000010J10D01*
G01*
X172782005Y-139242005D02*
G75*
G03*
X169782005Y-142242010I-5J-2999995D01*
G01*
X212816583Y-155787450D02*
X168747427Y-155787450D01*
X211782005Y-142242010D02*
X211782005Y-146242010D01*
X172782005Y-139242010D02*
X208782005Y-139242010D01*
X217782005Y-59242005D02*
G75*
G03*
X220782005Y-56242010I-5J3000005D01*
G01*
X131660661Y-66863306D02*
G75*
G03*
X130782005Y-68984651I2121339J-2121294D01*
G01*
X212816583Y-155787447D02*
G75*
G03*
X213734691Y-155643510I17J2999947D01*
G01*
X213734691Y-155643509D02*
G75*
G03*
X250157005Y-130063505I-22952691J71401509D01*
G01*
X130782005Y-128230645D02*
X130782005Y-68984651D01*
X237282005Y-134242010D02*
G75*
G03*
X237282005Y-134242010I-1500000J0D01*
G01*
X163782005Y-49242005D02*
G75*
G03*
X160782005Y-52242010I-5J-2999995D01*
G01*
X226660701Y-43620674D02*
G75*
G03*
X224539364Y-42742010I-2121301J-2121326D01*
G01*
X226039364Y-45742010D02*
G75*
G03*
X226039364Y-45742010I-1500000J0D01*
G01*
X167282005Y-45992010D02*
G75*
G03*
X167282005Y-45992010I-1000000J0D01*
G01*
X158524646Y-45742010D02*
G75*
G03*
X158524646Y-45742010I-1500000J0D01*
G01*
X167829317Y-155643515D02*
G75*
G03*
X168747427Y-155787450I918083J2856015D01*
G01*
X216282005Y-152492010D02*
G75*
G03*
X216282005Y-152492010I-1000000J0D01*
G01*
X250156984Y-130063489D02*
G75*
G03*
X250782005Y-128230645I-2374984J1832889D01*
G01*
X248782005Y-91484651D02*
G75*
G03*
X248782005Y-91484651I-1500000J0D01*
G01*
X167282005Y-152492010D02*
G75*
G03*
X167282005Y-152492010I-1000000J0D01*
G01*
X217782005Y-49242010D02*
X163782005Y-49242010D01*
X208782005Y-149242010D02*
X172782005Y-149242010D01*
X166782005Y-142242010D02*
G75*
G03*
X166782005Y-142242010I-1500000J0D01*
G01*
X147282005Y-134242010D02*
G75*
G03*
X147282005Y-134242010I-1500000J0D01*
G01*
X169782005Y-146242010D02*
X169782005Y-142242010D01*
D11*
X154739142Y-132901366D02*
X154786761Y-132948985D01*
X154834380Y-133091842D01*
X154834380Y-133187080D01*
X154786761Y-133329938D01*
X154691523Y-133425176D01*
X154596285Y-133472795D01*
X154405809Y-133520414D01*
X154262952Y-133520414D01*
X154072476Y-133472795D01*
X153977238Y-133425176D01*
X153882000Y-133329938D01*
X153834380Y-133187080D01*
X153834380Y-133091842D01*
X153882000Y-132948985D01*
X153929619Y-132901366D01*
X154834380Y-131948985D02*
X154834380Y-132520414D01*
X154834380Y-132234700D02*
X153834380Y-132234700D01*
X153977238Y-132329938D01*
X154072476Y-132425176D01*
X154120095Y-132520414D01*
X225384142Y-64071366D02*
X225431761Y-64118985D01*
X225479380Y-64261842D01*
X225479380Y-64357080D01*
X225431761Y-64499938D01*
X225336523Y-64595176D01*
X225241285Y-64642795D01*
X225050809Y-64690414D01*
X224907952Y-64690414D01*
X224717476Y-64642795D01*
X224622238Y-64595176D01*
X224527000Y-64499938D01*
X224479380Y-64357080D01*
X224479380Y-64261842D01*
X224527000Y-64118985D01*
X224574619Y-64071366D01*
X224479380Y-63738033D02*
X224479380Y-63118985D01*
X224860333Y-63452319D01*
X224860333Y-63309461D01*
X224907952Y-63214223D01*
X224955571Y-63166604D01*
X225050809Y-63118985D01*
X225288904Y-63118985D01*
X225384142Y-63166604D01*
X225431761Y-63214223D01*
X225479380Y-63309461D01*
X225479380Y-63595176D01*
X225431761Y-63690414D01*
X225384142Y-63738033D01*
X183239380Y-121729095D02*
X182239380Y-121729095D01*
X182239380Y-121491000D01*
X182287000Y-121348142D01*
X182382238Y-121252904D01*
X182477476Y-121205285D01*
X182667952Y-121157666D01*
X182810809Y-121157666D01*
X183001285Y-121205285D01*
X183096523Y-121252904D01*
X183191761Y-121348142D01*
X183239380Y-121491000D01*
X183239380Y-121729095D01*
X182239380Y-120824333D02*
X182239380Y-120205285D01*
X182620333Y-120538619D01*
X182620333Y-120395761D01*
X182667952Y-120300523D01*
X182715571Y-120252904D01*
X182810809Y-120205285D01*
X183048904Y-120205285D01*
X183144142Y-120252904D01*
X183191761Y-120300523D01*
X183239380Y-120395761D01*
X183239380Y-120681476D01*
X183191761Y-120776714D01*
X183144142Y-120824333D01*
X182869380Y-117442904D02*
X181869380Y-117442904D01*
X182869380Y-116871476D02*
X182297952Y-117300047D01*
X181869380Y-116871476D02*
X182440809Y-117442904D01*
X216000333Y-123672080D02*
X215667000Y-123195890D01*
X215428904Y-123672080D02*
X215428904Y-122672080D01*
X215809857Y-122672080D01*
X215905095Y-122719700D01*
X215952714Y-122767319D01*
X216000333Y-122862557D01*
X216000333Y-123005414D01*
X215952714Y-123100652D01*
X215905095Y-123148271D01*
X215809857Y-123195890D01*
X215428904Y-123195890D01*
X216333666Y-122672080D02*
X217000333Y-122672080D01*
X216571761Y-123672080D01*
X199705333Y-86608142D02*
X199657714Y-86655761D01*
X199514857Y-86703380D01*
X199419619Y-86703380D01*
X199276761Y-86655761D01*
X199181523Y-86560523D01*
X199133904Y-86465285D01*
X199086285Y-86274809D01*
X199086285Y-86131952D01*
X199133904Y-85941476D01*
X199181523Y-85846238D01*
X199276761Y-85751000D01*
X199419619Y-85703380D01*
X199514857Y-85703380D01*
X199657714Y-85751000D01*
X199705333Y-85798619D01*
X200181523Y-86703380D02*
X200372000Y-86703380D01*
X200467238Y-86655761D01*
X200514857Y-86608142D01*
X200610095Y-86465285D01*
X200657714Y-86274809D01*
X200657714Y-85893857D01*
X200610095Y-85798619D01*
X200562476Y-85751000D01*
X200467238Y-85703380D01*
X200276761Y-85703380D01*
X200181523Y-85751000D01*
X200133904Y-85798619D01*
X200086285Y-85893857D01*
X200086285Y-86131952D01*
X200133904Y-86227190D01*
X200181523Y-86274809D01*
X200276761Y-86322428D01*
X200467238Y-86322428D01*
X200562476Y-86274809D01*
X200610095Y-86227190D01*
X200657714Y-86131952D01*
X152769380Y-95088904D02*
X153578904Y-95088904D01*
X153674142Y-95041285D01*
X153721761Y-94993666D01*
X153769380Y-94898428D01*
X153769380Y-94707952D01*
X153721761Y-94612714D01*
X153674142Y-94565095D01*
X153578904Y-94517476D01*
X152769380Y-94517476D01*
X153197952Y-93898428D02*
X153150333Y-93993666D01*
X153102714Y-94041285D01*
X153007476Y-94088904D01*
X152959857Y-94088904D01*
X152864619Y-94041285D01*
X152817000Y-93993666D01*
X152769380Y-93898428D01*
X152769380Y-93707952D01*
X152817000Y-93612714D01*
X152864619Y-93565095D01*
X152959857Y-93517476D01*
X153007476Y-93517476D01*
X153102714Y-93565095D01*
X153150333Y-93612714D01*
X153197952Y-93707952D01*
X153197952Y-93898428D01*
X153245571Y-93993666D01*
X153293190Y-94041285D01*
X153388428Y-94088904D01*
X153578904Y-94088904D01*
X153674142Y-94041285D01*
X153721761Y-93993666D01*
X153769380Y-93898428D01*
X153769380Y-93707952D01*
X153721761Y-93612714D01*
X153674142Y-93565095D01*
X153578904Y-93517476D01*
X153388428Y-93517476D01*
X153293190Y-93565095D01*
X153245571Y-93612714D01*
X153197952Y-93707952D01*
X176889380Y-121729095D02*
X175889380Y-121729095D01*
X175889380Y-121491000D01*
X175937000Y-121348142D01*
X176032238Y-121252904D01*
X176127476Y-121205285D01*
X176317952Y-121157666D01*
X176460809Y-121157666D01*
X176651285Y-121205285D01*
X176746523Y-121252904D01*
X176841761Y-121348142D01*
X176889380Y-121491000D01*
X176889380Y-121729095D01*
X175889380Y-120252904D02*
X175889380Y-120729095D01*
X176365571Y-120776714D01*
X176317952Y-120729095D01*
X176270333Y-120633857D01*
X176270333Y-120395761D01*
X176317952Y-120300523D01*
X176365571Y-120252904D01*
X176460809Y-120205285D01*
X176698904Y-120205285D01*
X176794142Y-120252904D01*
X176841761Y-120300523D01*
X176889380Y-120395761D01*
X176889380Y-120633857D01*
X176841761Y-120729095D01*
X176794142Y-120776714D01*
X176519380Y-117442904D02*
X175519380Y-117442904D01*
X176519380Y-116871476D02*
X175947952Y-117300047D01*
X175519380Y-116871476D02*
X176090809Y-117442904D01*
X190085095Y-90794380D02*
X190085095Y-91603904D01*
X190132714Y-91699142D01*
X190180333Y-91746761D01*
X190275571Y-91794380D01*
X190466047Y-91794380D01*
X190561285Y-91746761D01*
X190608904Y-91699142D01*
X190656523Y-91603904D01*
X190656523Y-90794380D01*
X191037476Y-90794380D02*
X191704142Y-90794380D01*
X191275571Y-91794380D01*
X234934380Y-91818033D02*
X235648666Y-91818033D01*
X235791523Y-91865652D01*
X235886761Y-91960890D01*
X235934380Y-92103747D01*
X235934380Y-92198985D01*
X235934380Y-91294223D02*
X235934380Y-91103747D01*
X235886761Y-91008509D01*
X235839142Y-90960890D01*
X235696285Y-90865652D01*
X235505809Y-90818033D01*
X235124857Y-90818033D01*
X235029619Y-90865652D01*
X234982000Y-90913271D01*
X234934380Y-91008509D01*
X234934380Y-91198985D01*
X234982000Y-91294223D01*
X235029619Y-91341842D01*
X235124857Y-91389461D01*
X235362952Y-91389461D01*
X235458190Y-91341842D01*
X235505809Y-91294223D01*
X235553428Y-91198985D01*
X235553428Y-91008509D01*
X235505809Y-90913271D01*
X235458190Y-90865652D01*
X235362952Y-90818033D01*
X153779380Y-74141523D02*
X154493666Y-74141523D01*
X154636523Y-74189142D01*
X154731761Y-74284380D01*
X154779380Y-74427238D01*
X154779380Y-74522476D01*
X154779380Y-73141523D02*
X154779380Y-73712952D01*
X154779380Y-73427238D02*
X153779380Y-73427238D01*
X153922238Y-73522476D01*
X154017476Y-73617714D01*
X154065095Y-73712952D01*
X153779380Y-72236761D02*
X153779380Y-72712952D01*
X154255571Y-72760571D01*
X154207952Y-72712952D01*
X154160333Y-72617714D01*
X154160333Y-72379619D01*
X154207952Y-72284380D01*
X154255571Y-72236761D01*
X154350809Y-72189142D01*
X154588904Y-72189142D01*
X154684142Y-72236761D01*
X154731761Y-72284380D01*
X154779380Y-72379619D01*
X154779380Y-72617714D01*
X154731761Y-72712952D01*
X154684142Y-72760571D01*
X160127476Y-57954380D02*
X160127476Y-58668666D01*
X160079857Y-58811523D01*
X159984619Y-58906761D01*
X159841761Y-58954380D01*
X159746523Y-58954380D01*
X161127476Y-58954380D02*
X160556047Y-58954380D01*
X160841761Y-58954380D02*
X160841761Y-57954380D01*
X160746523Y-58097238D01*
X160651285Y-58192476D01*
X160556047Y-58240095D01*
X161746523Y-57954380D02*
X161841761Y-57954380D01*
X161937000Y-58002000D01*
X161984619Y-58049619D01*
X162032238Y-58144857D01*
X162079857Y-58335333D01*
X162079857Y-58573428D01*
X162032238Y-58763904D01*
X161984619Y-58859142D01*
X161937000Y-58906761D01*
X161841761Y-58954380D01*
X161746523Y-58954380D01*
X161651285Y-58906761D01*
X161603666Y-58859142D01*
X161556047Y-58763904D01*
X161508428Y-58573428D01*
X161508428Y-58335333D01*
X161556047Y-58144857D01*
X161603666Y-58049619D01*
X161651285Y-58002000D01*
X161746523Y-57954380D01*
X198955333Y-71522380D02*
X198622000Y-71046190D01*
X198383904Y-71522380D02*
X198383904Y-70522380D01*
X198764857Y-70522380D01*
X198860095Y-70570000D01*
X198907714Y-70617619D01*
X198955333Y-70712857D01*
X198955333Y-70855714D01*
X198907714Y-70950952D01*
X198860095Y-70998571D01*
X198764857Y-71046190D01*
X198383904Y-71046190D01*
X199288666Y-70522380D02*
X199907714Y-70522380D01*
X199574380Y-70903333D01*
X199717238Y-70903333D01*
X199812476Y-70950952D01*
X199860095Y-70998571D01*
X199907714Y-71093809D01*
X199907714Y-71331904D01*
X199860095Y-71427142D01*
X199812476Y-71474761D01*
X199717238Y-71522380D01*
X199431523Y-71522380D01*
X199336285Y-71474761D01*
X199288666Y-71427142D01*
D12*
X168768666Y-68686047D02*
X168950095Y-68746523D01*
X169252476Y-68746523D01*
X169373428Y-68686047D01*
X169433904Y-68625571D01*
X169494380Y-68504619D01*
X169494380Y-68383666D01*
X169433904Y-68262714D01*
X169373428Y-68202238D01*
X169252476Y-68141761D01*
X169010571Y-68081285D01*
X168889619Y-68020809D01*
X168829142Y-67960333D01*
X168768666Y-67839380D01*
X168768666Y-67718428D01*
X168829142Y-67597476D01*
X168889619Y-67537000D01*
X169010571Y-67476523D01*
X169312952Y-67476523D01*
X169494380Y-67537000D01*
X169917714Y-67476523D02*
X170220095Y-68746523D01*
X170462000Y-67839380D01*
X170703904Y-68746523D01*
X171006285Y-67476523D01*
X172094857Y-67476523D02*
X171490095Y-67476523D01*
X171429619Y-68081285D01*
X171490095Y-68020809D01*
X171611047Y-67960333D01*
X171913428Y-67960333D01*
X172034380Y-68020809D01*
X172094857Y-68081285D01*
X172155333Y-68202238D01*
X172155333Y-68504619D01*
X172094857Y-68625571D01*
X172034380Y-68686047D01*
X171913428Y-68746523D01*
X171611047Y-68746523D01*
X171490095Y-68686047D01*
X171429619Y-68625571D01*
D11*
X187909142Y-118281842D02*
X187861523Y-118329461D01*
X187718666Y-118377080D01*
X187623428Y-118377080D01*
X187480571Y-118329461D01*
X187385333Y-118234223D01*
X187337714Y-118138985D01*
X187290095Y-117948509D01*
X187290095Y-117805652D01*
X187337714Y-117615176D01*
X187385333Y-117519938D01*
X187480571Y-117424700D01*
X187623428Y-117377080D01*
X187718666Y-117377080D01*
X187861523Y-117424700D01*
X187909142Y-117472319D01*
X188861523Y-118377080D02*
X188290095Y-118377080D01*
X188575809Y-118377080D02*
X188575809Y-117377080D01*
X188480571Y-117519938D01*
X188385333Y-117615176D01*
X188290095Y-117662795D01*
X189813904Y-118377080D02*
X189242476Y-118377080D01*
X189528190Y-118377080D02*
X189528190Y-117377080D01*
X189432952Y-117519938D01*
X189337714Y-117615176D01*
X189242476Y-117662795D01*
X145174380Y-118681366D02*
X144698190Y-119014700D01*
X145174380Y-119252795D02*
X144174380Y-119252795D01*
X144174380Y-118871842D01*
X144222000Y-118776604D01*
X144269619Y-118728985D01*
X144364857Y-118681366D01*
X144507714Y-118681366D01*
X144602952Y-118728985D01*
X144650571Y-118776604D01*
X144698190Y-118871842D01*
X144698190Y-119252795D01*
X144174380Y-117776604D02*
X144174380Y-118252795D01*
X144650571Y-118300414D01*
X144602952Y-118252795D01*
X144555333Y-118157557D01*
X144555333Y-117919461D01*
X144602952Y-117824223D01*
X144650571Y-117776604D01*
X144745809Y-117728985D01*
X144983904Y-117728985D01*
X145079142Y-117776604D01*
X145126761Y-117824223D01*
X145174380Y-117919461D01*
X145174380Y-118157557D01*
X145126761Y-118252795D01*
X145079142Y-118300414D01*
X191718666Y-131613380D02*
X191718666Y-132327666D01*
X191671047Y-132470523D01*
X191575809Y-132565761D01*
X191432952Y-132613380D01*
X191337714Y-132613380D01*
X192623428Y-131613380D02*
X192432952Y-131613380D01*
X192337714Y-131661000D01*
X192290095Y-131708619D01*
X192194857Y-131851476D01*
X192147238Y-132041952D01*
X192147238Y-132422904D01*
X192194857Y-132518142D01*
X192242476Y-132565761D01*
X192337714Y-132613380D01*
X192528190Y-132613380D01*
X192623428Y-132565761D01*
X192671047Y-132518142D01*
X192718666Y-132422904D01*
X192718666Y-132184809D01*
X192671047Y-132089571D01*
X192623428Y-132041952D01*
X192528190Y-131994333D01*
X192337714Y-131994333D01*
X192242476Y-132041952D01*
X192194857Y-132089571D01*
X192147238Y-132184809D01*
X242271047Y-113148271D02*
X242413904Y-113195890D01*
X242461523Y-113243509D01*
X242509142Y-113338747D01*
X242509142Y-113481604D01*
X242461523Y-113576842D01*
X242413904Y-113624461D01*
X242318666Y-113672080D01*
X241937714Y-113672080D01*
X241937714Y-112672080D01*
X242271047Y-112672080D01*
X242366285Y-112719700D01*
X242413904Y-112767319D01*
X242461523Y-112862557D01*
X242461523Y-112957795D01*
X242413904Y-113053033D01*
X242366285Y-113100652D01*
X242271047Y-113148271D01*
X241937714Y-113148271D01*
X242842476Y-112672080D02*
X243509142Y-112672080D01*
X242842476Y-113672080D01*
X243509142Y-113672080D01*
X244413904Y-113672080D02*
X243842476Y-113672080D01*
X244128190Y-113672080D02*
X244128190Y-112672080D01*
X244032952Y-112814938D01*
X243937714Y-112910176D01*
X243842476Y-112957795D01*
X238961047Y-117951128D02*
X239722952Y-117951128D01*
X239342000Y-118332080D02*
X239342000Y-117570176D01*
X216000333Y-128326842D02*
X215952714Y-128374461D01*
X215809857Y-128422080D01*
X215714619Y-128422080D01*
X215571761Y-128374461D01*
X215476523Y-128279223D01*
X215428904Y-128183985D01*
X215381285Y-127993509D01*
X215381285Y-127850652D01*
X215428904Y-127660176D01*
X215476523Y-127564938D01*
X215571761Y-127469700D01*
X215714619Y-127422080D01*
X215809857Y-127422080D01*
X215952714Y-127469700D01*
X216000333Y-127517319D01*
X216571761Y-127850652D02*
X216476523Y-127803033D01*
X216428904Y-127755414D01*
X216381285Y-127660176D01*
X216381285Y-127612557D01*
X216428904Y-127517319D01*
X216476523Y-127469700D01*
X216571761Y-127422080D01*
X216762238Y-127422080D01*
X216857476Y-127469700D01*
X216905095Y-127517319D01*
X216952714Y-127612557D01*
X216952714Y-127660176D01*
X216905095Y-127755414D01*
X216857476Y-127803033D01*
X216762238Y-127850652D01*
X216571761Y-127850652D01*
X216476523Y-127898271D01*
X216428904Y-127945890D01*
X216381285Y-128041128D01*
X216381285Y-128231604D01*
X216428904Y-128326842D01*
X216476523Y-128374461D01*
X216571761Y-128422080D01*
X216762238Y-128422080D01*
X216857476Y-128374461D01*
X216905095Y-128326842D01*
X216952714Y-128231604D01*
X216952714Y-128041128D01*
X216905095Y-127945890D01*
X216857476Y-127898271D01*
X216762238Y-127850652D01*
X159638666Y-111837080D02*
X159638666Y-112551366D01*
X159591047Y-112694223D01*
X159495809Y-112789461D01*
X159352952Y-112837080D01*
X159257714Y-112837080D01*
X160019619Y-111837080D02*
X160638666Y-111837080D01*
X160305333Y-112218033D01*
X160448190Y-112218033D01*
X160543428Y-112265652D01*
X160591047Y-112313271D01*
X160638666Y-112408509D01*
X160638666Y-112646604D01*
X160591047Y-112741842D01*
X160543428Y-112789461D01*
X160448190Y-112837080D01*
X160162476Y-112837080D01*
X160067238Y-112789461D01*
X160019619Y-112741842D01*
X188795333Y-115942380D02*
X188462000Y-115466190D01*
X188223904Y-115942380D02*
X188223904Y-114942380D01*
X188604857Y-114942380D01*
X188700095Y-114990000D01*
X188747714Y-115037619D01*
X188795333Y-115132857D01*
X188795333Y-115275714D01*
X188747714Y-115370952D01*
X188700095Y-115418571D01*
X188604857Y-115466190D01*
X188223904Y-115466190D01*
X189652476Y-115275714D02*
X189652476Y-115942380D01*
X189414380Y-114894761D02*
X189176285Y-115609047D01*
X189795333Y-115609047D01*
X190040095Y-75599380D02*
X190040095Y-76408904D01*
X190087714Y-76504142D01*
X190135333Y-76551761D01*
X190230571Y-76599380D01*
X190421047Y-76599380D01*
X190516285Y-76551761D01*
X190563904Y-76504142D01*
X190611523Y-76408904D01*
X190611523Y-75599380D01*
X191516285Y-75599380D02*
X191325809Y-75599380D01*
X191230571Y-75647000D01*
X191182952Y-75694619D01*
X191087714Y-75837476D01*
X191040095Y-76027952D01*
X191040095Y-76408904D01*
X191087714Y-76504142D01*
X191135333Y-76551761D01*
X191230571Y-76599380D01*
X191421047Y-76599380D01*
X191516285Y-76551761D01*
X191563904Y-76504142D01*
X191611523Y-76408904D01*
X191611523Y-76170809D01*
X191563904Y-76075571D01*
X191516285Y-76027952D01*
X191421047Y-75980333D01*
X191230571Y-75980333D01*
X191135333Y-76027952D01*
X191087714Y-76075571D01*
X191040095Y-76170809D01*
X159784380Y-54179333D02*
X160498666Y-54179333D01*
X160641523Y-54226952D01*
X160736761Y-54322190D01*
X160784380Y-54465047D01*
X160784380Y-54560285D01*
X160784380Y-53179333D02*
X160784380Y-53750761D01*
X160784380Y-53465047D02*
X159784380Y-53465047D01*
X159927238Y-53560285D01*
X160022476Y-53655523D01*
X160070095Y-53750761D01*
D12*
X137608666Y-125498747D02*
X137790095Y-125559223D01*
X138092476Y-125559223D01*
X138213428Y-125498747D01*
X138273904Y-125438271D01*
X138334380Y-125317319D01*
X138334380Y-125196366D01*
X138273904Y-125075414D01*
X138213428Y-125014938D01*
X138092476Y-124954461D01*
X137850571Y-124893985D01*
X137729619Y-124833509D01*
X137669142Y-124773033D01*
X137608666Y-124652080D01*
X137608666Y-124531128D01*
X137669142Y-124410176D01*
X137729619Y-124349700D01*
X137850571Y-124289223D01*
X138152952Y-124289223D01*
X138334380Y-124349700D01*
X138757714Y-124289223D02*
X139060095Y-125559223D01*
X139302000Y-124652080D01*
X139543904Y-125559223D01*
X139846285Y-124289223D01*
X140874380Y-124289223D02*
X140632476Y-124289223D01*
X140511523Y-124349700D01*
X140451047Y-124410176D01*
X140330095Y-124591604D01*
X140269619Y-124833509D01*
X140269619Y-125317319D01*
X140330095Y-125438271D01*
X140390571Y-125498747D01*
X140511523Y-125559223D01*
X140753428Y-125559223D01*
X140874380Y-125498747D01*
X140934857Y-125438271D01*
X140995333Y-125317319D01*
X140995333Y-125014938D01*
X140934857Y-124893985D01*
X140874380Y-124833509D01*
X140753428Y-124773033D01*
X140511523Y-124773033D01*
X140390571Y-124833509D01*
X140330095Y-124893985D01*
X140269619Y-125014938D01*
X149113904Y-68686047D02*
X149295333Y-68746523D01*
X149597714Y-68746523D01*
X149718666Y-68686047D01*
X149779142Y-68625571D01*
X149839619Y-68504619D01*
X149839619Y-68383666D01*
X149779142Y-68262714D01*
X149718666Y-68202238D01*
X149597714Y-68141761D01*
X149355809Y-68081285D01*
X149234857Y-68020809D01*
X149174380Y-67960333D01*
X149113904Y-67839380D01*
X149113904Y-67718428D01*
X149174380Y-67597476D01*
X149234857Y-67537000D01*
X149355809Y-67476523D01*
X149658190Y-67476523D01*
X149839619Y-67537000D01*
X150262952Y-67476523D02*
X150565333Y-68746523D01*
X150807238Y-67839380D01*
X151049142Y-68746523D01*
X151351523Y-67476523D01*
X152500571Y-68746523D02*
X151774857Y-68746523D01*
X152137714Y-68746523D02*
X152137714Y-67476523D01*
X152016761Y-67657952D01*
X151895809Y-67778904D01*
X151774857Y-67839380D01*
X153710095Y-68746523D02*
X152984380Y-68746523D01*
X153347238Y-68746523D02*
X153347238Y-67476523D01*
X153226285Y-67657952D01*
X153105333Y-67778904D01*
X152984380Y-67839380D01*
D11*
X232524380Y-63467666D02*
X232048190Y-63801000D01*
X232524380Y-64039095D02*
X231524380Y-64039095D01*
X231524380Y-63658142D01*
X231572000Y-63562904D01*
X231619619Y-63515285D01*
X231714857Y-63467666D01*
X231857714Y-63467666D01*
X231952952Y-63515285D01*
X232000571Y-63562904D01*
X232048190Y-63658142D01*
X232048190Y-64039095D01*
X232524380Y-62515285D02*
X232524380Y-63086714D01*
X232524380Y-62801000D02*
X231524380Y-62801000D01*
X231667238Y-62896238D01*
X231762476Y-62991476D01*
X231810095Y-63086714D01*
X159540095Y-101772080D02*
X159540095Y-102581604D01*
X159587714Y-102676842D01*
X159635333Y-102724461D01*
X159730571Y-102772080D01*
X159921047Y-102772080D01*
X160016285Y-102724461D01*
X160063904Y-102676842D01*
X160111523Y-102581604D01*
X160111523Y-101772080D01*
X160492476Y-101772080D02*
X161111523Y-101772080D01*
X160778190Y-102153033D01*
X160921047Y-102153033D01*
X161016285Y-102200652D01*
X161063904Y-102248271D01*
X161111523Y-102343509D01*
X161111523Y-102581604D01*
X161063904Y-102676842D01*
X161016285Y-102724461D01*
X160921047Y-102772080D01*
X160635333Y-102772080D01*
X160540095Y-102724461D01*
X160492476Y-102676842D01*
X146169380Y-91818033D02*
X146883666Y-91818033D01*
X147026523Y-91865652D01*
X147121761Y-91960890D01*
X147169380Y-92103747D01*
X147169380Y-92198985D01*
X146597952Y-91198985D02*
X146550333Y-91294223D01*
X146502714Y-91341842D01*
X146407476Y-91389461D01*
X146359857Y-91389461D01*
X146264619Y-91341842D01*
X146217000Y-91294223D01*
X146169380Y-91198985D01*
X146169380Y-91008509D01*
X146217000Y-90913271D01*
X146264619Y-90865652D01*
X146359857Y-90818033D01*
X146407476Y-90818033D01*
X146502714Y-90865652D01*
X146550333Y-90913271D01*
X146597952Y-91008509D01*
X146597952Y-91198985D01*
X146645571Y-91294223D01*
X146693190Y-91341842D01*
X146788428Y-91389461D01*
X146978904Y-91389461D01*
X147074142Y-91341842D01*
X147121761Y-91294223D01*
X147169380Y-91198985D01*
X147169380Y-91008509D01*
X147121761Y-90913271D01*
X147074142Y-90865652D01*
X146978904Y-90818033D01*
X146788428Y-90818033D01*
X146693190Y-90865652D01*
X146645571Y-90913271D01*
X146597952Y-91008509D01*
X227430333Y-123672080D02*
X227097000Y-123195890D01*
X226858904Y-123672080D02*
X226858904Y-122672080D01*
X227239857Y-122672080D01*
X227335095Y-122719700D01*
X227382714Y-122767319D01*
X227430333Y-122862557D01*
X227430333Y-123005414D01*
X227382714Y-123100652D01*
X227335095Y-123148271D01*
X227239857Y-123195890D01*
X226858904Y-123195890D01*
X228287476Y-122672080D02*
X228097000Y-122672080D01*
X228001761Y-122719700D01*
X227954142Y-122767319D01*
X227858904Y-122910176D01*
X227811285Y-123100652D01*
X227811285Y-123481604D01*
X227858904Y-123576842D01*
X227906523Y-123624461D01*
X228001761Y-123672080D01*
X228192238Y-123672080D01*
X228287476Y-123624461D01*
X228335095Y-123576842D01*
X228382714Y-123481604D01*
X228382714Y-123243509D01*
X228335095Y-123148271D01*
X228287476Y-123100652D01*
X228192238Y-123053033D01*
X228001761Y-123053033D01*
X227906523Y-123100652D01*
X227858904Y-123148271D01*
X227811285Y-123243509D01*
X211468095Y-82174080D02*
X211468095Y-82983604D01*
X211515714Y-83078842D01*
X211563333Y-83126461D01*
X211658571Y-83174080D01*
X211849047Y-83174080D01*
X211944285Y-83126461D01*
X211991904Y-83078842D01*
X212039523Y-82983604D01*
X212039523Y-82174080D01*
X213039523Y-83174080D02*
X212468095Y-83174080D01*
X212753809Y-83174080D02*
X212753809Y-82174080D01*
X212658571Y-82316938D01*
X212563333Y-82412176D01*
X212468095Y-82459795D01*
D13*
X211708608Y-87534817D02*
X212451465Y-87534817D01*
X212051465Y-87991960D01*
X212222894Y-87991960D01*
X212337180Y-88049102D01*
X212394322Y-88106245D01*
X212451465Y-88220531D01*
X212451465Y-88506245D01*
X212394322Y-88620531D01*
X212337180Y-88677674D01*
X212222894Y-88734817D01*
X211880037Y-88734817D01*
X211765751Y-88677674D01*
X211708608Y-88620531D01*
X213480037Y-87534817D02*
X213251465Y-87534817D01*
X213137180Y-87591960D01*
X213080037Y-87649102D01*
X212965751Y-87820531D01*
X212908608Y-88049102D01*
X212908608Y-88506245D01*
X212965751Y-88620531D01*
X213022894Y-88677674D01*
X213137180Y-88734817D01*
X213365751Y-88734817D01*
X213480037Y-88677674D01*
X213537180Y-88620531D01*
X213594322Y-88506245D01*
X213594322Y-88220531D01*
X213537180Y-88106245D01*
X213480037Y-88049102D01*
X213365751Y-87991960D01*
X213137180Y-87991960D01*
X213022894Y-88049102D01*
X212965751Y-88106245D01*
X212908608Y-88220531D01*
X218807037Y-103567271D02*
X218807037Y-102824414D01*
X219264180Y-103224414D01*
X219264180Y-103052985D01*
X219321322Y-102938700D01*
X219378465Y-102881557D01*
X219492751Y-102824414D01*
X219778465Y-102824414D01*
X219892751Y-102881557D01*
X219949894Y-102938700D01*
X220007037Y-103052985D01*
X220007037Y-103395842D01*
X219949894Y-103510128D01*
X219892751Y-103567271D01*
X218921322Y-102367271D02*
X218864180Y-102310128D01*
X218807037Y-102195842D01*
X218807037Y-101910128D01*
X218864180Y-101795842D01*
X218921322Y-101738700D01*
X219035608Y-101681557D01*
X219149894Y-101681557D01*
X219321322Y-101738700D01*
X220007037Y-102424414D01*
X220007037Y-101681557D01*
X224385285Y-105331960D02*
X224271000Y-105274817D01*
X224099571Y-105274817D01*
X223928142Y-105331960D01*
X223813857Y-105446245D01*
X223756714Y-105560531D01*
X223699571Y-105789102D01*
X223699571Y-105960531D01*
X223756714Y-106189102D01*
X223813857Y-106303388D01*
X223928142Y-106417674D01*
X224099571Y-106474817D01*
X224213857Y-106474817D01*
X224385285Y-106417674D01*
X224442428Y-106360531D01*
X224442428Y-105960531D01*
X224213857Y-105960531D01*
X212451465Y-91274817D02*
X211765751Y-91274817D01*
X212108608Y-91274817D02*
X212108608Y-90074817D01*
X211994322Y-90246245D01*
X211880037Y-90360531D01*
X211765751Y-90417674D01*
X213137180Y-90589102D02*
X213022894Y-90531960D01*
X212965751Y-90474817D01*
X212908608Y-90360531D01*
X212908608Y-90303388D01*
X212965751Y-90189102D01*
X213022894Y-90131960D01*
X213137180Y-90074817D01*
X213365751Y-90074817D01*
X213480037Y-90131960D01*
X213537180Y-90189102D01*
X213594322Y-90303388D01*
X213594322Y-90360531D01*
X213537180Y-90474817D01*
X213480037Y-90531960D01*
X213365751Y-90589102D01*
X213137180Y-90589102D01*
X213022894Y-90646245D01*
X212965751Y-90703388D01*
X212908608Y-90817674D01*
X212908608Y-91046245D01*
X212965751Y-91160531D01*
X213022894Y-91217674D01*
X213137180Y-91274817D01*
X213365751Y-91274817D01*
X213480037Y-91217674D01*
X213537180Y-91160531D01*
X213594322Y-91046245D01*
X213594322Y-90817674D01*
X213537180Y-90703388D01*
X213480037Y-90646245D01*
X213365751Y-90589102D01*
X222768894Y-100719245D02*
X223168894Y-100719245D01*
X223340322Y-101347817D02*
X222768894Y-101347817D01*
X222768894Y-100147817D01*
X223340322Y-100147817D01*
X223854608Y-101347817D02*
X223854608Y-100147817D01*
X224540322Y-101347817D01*
X224540322Y-100147817D01*
X211765751Y-100349102D02*
X211822894Y-100291960D01*
X211937180Y-100234817D01*
X212222894Y-100234817D01*
X212337180Y-100291960D01*
X212394322Y-100349102D01*
X212451465Y-100463388D01*
X212451465Y-100577674D01*
X212394322Y-100749102D01*
X211708608Y-101434817D01*
X212451465Y-101434817D01*
X213537180Y-100234817D02*
X212965751Y-100234817D01*
X212908608Y-100806245D01*
X212965751Y-100749102D01*
X213080037Y-100691960D01*
X213365751Y-100691960D01*
X213480037Y-100749102D01*
X213537180Y-100806245D01*
X213594322Y-100920531D01*
X213594322Y-101206245D01*
X213537180Y-101320531D01*
X213480037Y-101377674D01*
X213365751Y-101434817D01*
X213080037Y-101434817D01*
X212965751Y-101377674D01*
X212908608Y-101320531D01*
X221307037Y-103567271D02*
X221307037Y-102824414D01*
X221764180Y-103224414D01*
X221764180Y-103052985D01*
X221821322Y-102938700D01*
X221878465Y-102881557D01*
X221992751Y-102824414D01*
X222278465Y-102824414D01*
X222392751Y-102881557D01*
X222449894Y-102938700D01*
X222507037Y-103052985D01*
X222507037Y-103395842D01*
X222449894Y-103510128D01*
X222392751Y-103567271D01*
X221307037Y-102424414D02*
X221307037Y-101681557D01*
X221764180Y-102081557D01*
X221764180Y-101910128D01*
X221821322Y-101795842D01*
X221878465Y-101738700D01*
X221992751Y-101681557D01*
X222278465Y-101681557D01*
X222392751Y-101738700D01*
X222449894Y-101795842D01*
X222507037Y-101910128D01*
X222507037Y-102252985D01*
X222449894Y-102367271D01*
X222392751Y-102424414D01*
X212451465Y-105431960D02*
X212337180Y-105374817D01*
X212165751Y-105374817D01*
X211994322Y-105431960D01*
X211880037Y-105546245D01*
X211822894Y-105660531D01*
X211765751Y-105889102D01*
X211765751Y-106060531D01*
X211822894Y-106289102D01*
X211880037Y-106403388D01*
X211994322Y-106517674D01*
X212165751Y-106574817D01*
X212280037Y-106574817D01*
X212451465Y-106517674D01*
X212508608Y-106460531D01*
X212508608Y-106060531D01*
X212280037Y-106060531D01*
X224097465Y-102747817D02*
X224211751Y-102747817D01*
X224326037Y-102804960D01*
X224383180Y-102862102D01*
X224440322Y-102976388D01*
X224497465Y-103204960D01*
X224497465Y-103490674D01*
X224440322Y-103719245D01*
X224383180Y-103833531D01*
X224326037Y-103890674D01*
X224211751Y-103947817D01*
X224097465Y-103947817D01*
X223983180Y-103890674D01*
X223926037Y-103833531D01*
X223868894Y-103719245D01*
X223811751Y-103490674D01*
X223811751Y-103204960D01*
X223868894Y-102976388D01*
X223926037Y-102862102D01*
X223983180Y-102804960D01*
X224097465Y-102747817D01*
X216307037Y-102881557D02*
X216307037Y-103452985D01*
X216878465Y-103510128D01*
X216821322Y-103452985D01*
X216764180Y-103338700D01*
X216764180Y-103052985D01*
X216821322Y-102938700D01*
X216878465Y-102881557D01*
X216992751Y-102824414D01*
X217278465Y-102824414D01*
X217392751Y-102881557D01*
X217449894Y-102938700D01*
X217507037Y-103052985D01*
X217507037Y-103338700D01*
X217449894Y-103452985D01*
X217392751Y-103510128D01*
X216307037Y-102481557D02*
X217507037Y-102081557D01*
X216307037Y-101681557D01*
X213864180Y-102824414D02*
X213807037Y-102938700D01*
X213807037Y-103110128D01*
X213864180Y-103281557D01*
X213978465Y-103395842D01*
X214092751Y-103452985D01*
X214321322Y-103510128D01*
X214492751Y-103510128D01*
X214721322Y-103452985D01*
X214835608Y-103395842D01*
X214949894Y-103281557D01*
X215007037Y-103110128D01*
X215007037Y-102995842D01*
X214949894Y-102824414D01*
X214892751Y-102767271D01*
X214492751Y-102767271D01*
X214492751Y-102995842D01*
X223754608Y-97647817D02*
X224497465Y-97647817D01*
X224097465Y-98104960D01*
X224268894Y-98104960D01*
X224383180Y-98162102D01*
X224440322Y-98219245D01*
X224497465Y-98333531D01*
X224497465Y-98619245D01*
X224440322Y-98733531D01*
X224383180Y-98790674D01*
X224268894Y-98847817D01*
X223926037Y-98847817D01*
X223811751Y-98790674D01*
X223754608Y-98733531D01*
X211765751Y-95269102D02*
X211822894Y-95211960D01*
X211937180Y-95154817D01*
X212222894Y-95154817D01*
X212337180Y-95211960D01*
X212394322Y-95269102D01*
X212451465Y-95383388D01*
X212451465Y-95497674D01*
X212394322Y-95669102D01*
X211708608Y-96354817D01*
X212451465Y-96354817D01*
X213594322Y-96354817D02*
X212908608Y-96354817D01*
X213251465Y-96354817D02*
X213251465Y-95154817D01*
X213137180Y-95326245D01*
X213022894Y-95440531D01*
X212908608Y-95497674D01*
X211765751Y-85109102D02*
X211822894Y-85051960D01*
X211937180Y-84994817D01*
X212222894Y-84994817D01*
X212337180Y-85051960D01*
X212394322Y-85109102D01*
X212451465Y-85223388D01*
X212451465Y-85337674D01*
X212394322Y-85509102D01*
X211708608Y-86194817D01*
X212451465Y-86194817D01*
X213480037Y-84994817D02*
X213251465Y-84994817D01*
X213137180Y-85051960D01*
X213080037Y-85109102D01*
X212965751Y-85280531D01*
X212908608Y-85509102D01*
X212908608Y-85966245D01*
X212965751Y-86080531D01*
X213022894Y-86137674D01*
X213137180Y-86194817D01*
X213365751Y-86194817D01*
X213480037Y-86137674D01*
X213537180Y-86080531D01*
X213594322Y-85966245D01*
X213594322Y-85680531D01*
X213537180Y-85566245D01*
X213480037Y-85509102D01*
X213365751Y-85451960D01*
X213137180Y-85451960D01*
X213022894Y-85509102D01*
X212965751Y-85566245D01*
X212908608Y-85680531D01*
X211765751Y-97809102D02*
X211822894Y-97751960D01*
X211937180Y-97694817D01*
X212222894Y-97694817D01*
X212337180Y-97751960D01*
X212394322Y-97809102D01*
X212451465Y-97923388D01*
X212451465Y-98037674D01*
X212394322Y-98209102D01*
X211708608Y-98894817D01*
X212451465Y-98894817D01*
X212908608Y-97809102D02*
X212965751Y-97751960D01*
X213080037Y-97694817D01*
X213365751Y-97694817D01*
X213480037Y-97751960D01*
X213537180Y-97809102D01*
X213594322Y-97923388D01*
X213594322Y-98037674D01*
X213537180Y-98209102D01*
X212851465Y-98894817D01*
X213594322Y-98894817D01*
X212451465Y-93814817D02*
X211765751Y-93814817D01*
X212108608Y-93814817D02*
X212108608Y-92614817D01*
X211994322Y-92786245D01*
X211880037Y-92900531D01*
X211765751Y-92957674D01*
X213022894Y-93814817D02*
X213251465Y-93814817D01*
X213365751Y-93757674D01*
X213422894Y-93700531D01*
X213537180Y-93529102D01*
X213594322Y-93300531D01*
X213594322Y-92843388D01*
X213537180Y-92729102D01*
X213480037Y-92671960D01*
X213365751Y-92614817D01*
X213137180Y-92614817D01*
X213022894Y-92671960D01*
X212965751Y-92729102D01*
X212908608Y-92843388D01*
X212908608Y-93129102D01*
X212965751Y-93243388D01*
X213022894Y-93300531D01*
X213137180Y-93357674D01*
X213365751Y-93357674D01*
X213480037Y-93300531D01*
X213537180Y-93243388D01*
X213594322Y-93129102D01*
X212394322Y-102774817D02*
X211822894Y-102774817D01*
X211765751Y-103346245D01*
X211822894Y-103289102D01*
X211937180Y-103231960D01*
X212222894Y-103231960D01*
X212337180Y-103289102D01*
X212394322Y-103346245D01*
X212451465Y-103460531D01*
X212451465Y-103746245D01*
X212394322Y-103860531D01*
X212337180Y-103917674D01*
X212222894Y-103974817D01*
X211937180Y-103974817D01*
X211822894Y-103917674D01*
X211765751Y-103860531D01*
X212794322Y-102774817D02*
X213194322Y-103974817D01*
X213594322Y-102774817D01*
X224512285Y-96345557D02*
X223826571Y-96345557D01*
X224169428Y-96345557D02*
X224169428Y-95145557D01*
X224055142Y-95316985D01*
X223940857Y-95431271D01*
X223826571Y-95488414D01*
X221610428Y-92605557D02*
X222353285Y-92605557D01*
X221953285Y-93062700D01*
X222124714Y-93062700D01*
X222239000Y-93119842D01*
X222296142Y-93176985D01*
X222353285Y-93291271D01*
X222353285Y-93576985D01*
X222296142Y-93691271D01*
X222239000Y-93748414D01*
X222124714Y-93805557D01*
X221781857Y-93805557D01*
X221667571Y-93748414D01*
X221610428Y-93691271D01*
X222696142Y-92605557D02*
X223096142Y-93805557D01*
X223496142Y-92605557D01*
X223781857Y-92605557D02*
X224524714Y-92605557D01*
X224124714Y-93062700D01*
X224296142Y-93062700D01*
X224410428Y-93119842D01*
X224467571Y-93176985D01*
X224524714Y-93291271D01*
X224524714Y-93576985D01*
X224467571Y-93691271D01*
X224410428Y-93748414D01*
X224296142Y-93805557D01*
X223953285Y-93805557D01*
X223839000Y-93748414D01*
X223781857Y-93691271D01*
D11*
X203645333Y-132826842D02*
X203597714Y-132874461D01*
X203454857Y-132922080D01*
X203359619Y-132922080D01*
X203216761Y-132874461D01*
X203121523Y-132779223D01*
X203073904Y-132683985D01*
X203026285Y-132493509D01*
X203026285Y-132350652D01*
X203073904Y-132160176D01*
X203121523Y-132064938D01*
X203216761Y-131969700D01*
X203359619Y-131922080D01*
X203454857Y-131922080D01*
X203597714Y-131969700D01*
X203645333Y-132017319D01*
X204550095Y-131922080D02*
X204073904Y-131922080D01*
X204026285Y-132398271D01*
X204073904Y-132350652D01*
X204169142Y-132303033D01*
X204407238Y-132303033D01*
X204502476Y-132350652D01*
X204550095Y-132398271D01*
X204597714Y-132493509D01*
X204597714Y-132731604D01*
X204550095Y-132826842D01*
X204502476Y-132874461D01*
X204407238Y-132922080D01*
X204169142Y-132922080D01*
X204073904Y-132874461D01*
X204026285Y-132826842D01*
X199729142Y-74878142D02*
X199681523Y-74925761D01*
X199538666Y-74973380D01*
X199443428Y-74973380D01*
X199300571Y-74925761D01*
X199205333Y-74830523D01*
X199157714Y-74735285D01*
X199110095Y-74544809D01*
X199110095Y-74401952D01*
X199157714Y-74211476D01*
X199205333Y-74116238D01*
X199300571Y-74021000D01*
X199443428Y-73973380D01*
X199538666Y-73973380D01*
X199681523Y-74021000D01*
X199729142Y-74068619D01*
X200681523Y-74973380D02*
X200110095Y-74973380D01*
X200395809Y-74973380D02*
X200395809Y-73973380D01*
X200300571Y-74116238D01*
X200205333Y-74211476D01*
X200110095Y-74259095D01*
X201014857Y-73973380D02*
X201633904Y-73973380D01*
X201300571Y-74354333D01*
X201443428Y-74354333D01*
X201538666Y-74401952D01*
X201586285Y-74449571D01*
X201633904Y-74544809D01*
X201633904Y-74782904D01*
X201586285Y-74878142D01*
X201538666Y-74925761D01*
X201443428Y-74973380D01*
X201157714Y-74973380D01*
X201062476Y-74925761D01*
X201014857Y-74878142D01*
X175944142Y-62673857D02*
X175991761Y-62721476D01*
X176039380Y-62864333D01*
X176039380Y-62959571D01*
X175991761Y-63102428D01*
X175896523Y-63197666D01*
X175801285Y-63245285D01*
X175610809Y-63292904D01*
X175467952Y-63292904D01*
X175277476Y-63245285D01*
X175182238Y-63197666D01*
X175087000Y-63102428D01*
X175039380Y-62959571D01*
X175039380Y-62864333D01*
X175087000Y-62721476D01*
X175134619Y-62673857D01*
X176039380Y-61721476D02*
X176039380Y-62292904D01*
X176039380Y-62007190D02*
X175039380Y-62007190D01*
X175182238Y-62102428D01*
X175277476Y-62197666D01*
X175325095Y-62292904D01*
X175372714Y-60864333D02*
X176039380Y-60864333D01*
X174991761Y-61102428D02*
X175706047Y-61340523D01*
X175706047Y-60721476D01*
X172164380Y-110163333D02*
X172878666Y-110163333D01*
X173021523Y-110210952D01*
X173116761Y-110306190D01*
X173164380Y-110449047D01*
X173164380Y-110544285D01*
X172497714Y-109258571D02*
X173164380Y-109258571D01*
X172116761Y-109496666D02*
X172831047Y-109734761D01*
X172831047Y-109115714D01*
X196888380Y-129484223D02*
X197602666Y-129484223D01*
X197745523Y-129531842D01*
X197840761Y-129627080D01*
X197888380Y-129769938D01*
X197888380Y-129865176D01*
X197888380Y-128484223D02*
X197888380Y-129055652D01*
X197888380Y-128769938D02*
X196888380Y-128769938D01*
X197031238Y-128865176D01*
X197126476Y-128960414D01*
X197174095Y-129055652D01*
X197221714Y-127627080D02*
X197888380Y-127627080D01*
X196840761Y-127865176D02*
X197555047Y-128103271D01*
X197555047Y-127484223D01*
X150678904Y-145453380D02*
X150678904Y-144453380D01*
X150917000Y-144453380D01*
X151059857Y-144501000D01*
X151155095Y-144596238D01*
X151202714Y-144691476D01*
X151250333Y-144881952D01*
X151250333Y-145024809D01*
X151202714Y-145215285D01*
X151155095Y-145310523D01*
X151059857Y-145405761D01*
X150917000Y-145453380D01*
X150678904Y-145453380D01*
X152202714Y-145453380D02*
X151631285Y-145453380D01*
X151917000Y-145453380D02*
X151917000Y-144453380D01*
X151821761Y-144596238D01*
X151726523Y-144691476D01*
X151631285Y-144739095D01*
X170229142Y-70998666D02*
X170276761Y-71046285D01*
X170324380Y-71189142D01*
X170324380Y-71284380D01*
X170276761Y-71427238D01*
X170181523Y-71522476D01*
X170086285Y-71570095D01*
X169895809Y-71617714D01*
X169752952Y-71617714D01*
X169562476Y-71570095D01*
X169467238Y-71522476D01*
X169372000Y-71427238D01*
X169324380Y-71284380D01*
X169324380Y-71189142D01*
X169372000Y-71046285D01*
X169419619Y-70998666D01*
X169657714Y-70141523D02*
X170324380Y-70141523D01*
X169276761Y-70379619D02*
X169991047Y-70617714D01*
X169991047Y-69998666D01*
X162080095Y-84254380D02*
X162080095Y-85063904D01*
X162127714Y-85159142D01*
X162175333Y-85206761D01*
X162270571Y-85254380D01*
X162461047Y-85254380D01*
X162556285Y-85206761D01*
X162603904Y-85159142D01*
X162651523Y-85063904D01*
X162651523Y-84254380D01*
X163556285Y-84587714D02*
X163556285Y-85254380D01*
X163318190Y-84206761D02*
X163080095Y-84921047D01*
X163699142Y-84921047D01*
X179064380Y-110163333D02*
X179778666Y-110163333D01*
X179921523Y-110210952D01*
X180016761Y-110306190D01*
X180064380Y-110449047D01*
X180064380Y-110544285D01*
X179159619Y-109734761D02*
X179112000Y-109687142D01*
X179064380Y-109591904D01*
X179064380Y-109353809D01*
X179112000Y-109258571D01*
X179159619Y-109210952D01*
X179254857Y-109163333D01*
X179350095Y-109163333D01*
X179492952Y-109210952D01*
X180064380Y-109782380D01*
X180064380Y-109163333D01*
X175962476Y-124703380D02*
X175962476Y-125417666D01*
X175914857Y-125560523D01*
X175819619Y-125655761D01*
X175676761Y-125703380D01*
X175581523Y-125703380D01*
X176962476Y-125703380D02*
X176391047Y-125703380D01*
X176676761Y-125703380D02*
X176676761Y-124703380D01*
X176581523Y-124846238D01*
X176486285Y-124941476D01*
X176391047Y-124989095D01*
X177914857Y-125703380D02*
X177343428Y-125703380D01*
X177629142Y-125703380D02*
X177629142Y-124703380D01*
X177533904Y-124846238D01*
X177438666Y-124941476D01*
X177343428Y-124989095D01*
X217325095Y-77327080D02*
X217325095Y-78136604D01*
X217372714Y-78231842D01*
X217420333Y-78279461D01*
X217515571Y-78327080D01*
X217706047Y-78327080D01*
X217801285Y-78279461D01*
X217848904Y-78231842D01*
X217896523Y-78136604D01*
X217896523Y-77327080D01*
X218325095Y-77422319D02*
X218372714Y-77374700D01*
X218467952Y-77327080D01*
X218706047Y-77327080D01*
X218801285Y-77374700D01*
X218848904Y-77422319D01*
X218896523Y-77517557D01*
X218896523Y-77612795D01*
X218848904Y-77755652D01*
X218277476Y-78327080D01*
X218896523Y-78327080D01*
D12*
X135476523Y-120149333D02*
X136383666Y-120149333D01*
X136565095Y-120209809D01*
X136686047Y-120330761D01*
X136746523Y-120512190D01*
X136746523Y-120633142D01*
X135476523Y-118939809D02*
X135476523Y-119544571D01*
X136081285Y-119605047D01*
X136020809Y-119544571D01*
X135960333Y-119423619D01*
X135960333Y-119121238D01*
X136020809Y-119000285D01*
X136081285Y-118939809D01*
X136202238Y-118879333D01*
X136504619Y-118879333D01*
X136625571Y-118939809D01*
X136686047Y-119000285D01*
X136746523Y-119121238D01*
X136746523Y-119423619D01*
X136686047Y-119544571D01*
X136625571Y-119605047D01*
D11*
X180064380Y-121729095D02*
X179064380Y-121729095D01*
X179064380Y-121491000D01*
X179112000Y-121348142D01*
X179207238Y-121252904D01*
X179302476Y-121205285D01*
X179492952Y-121157666D01*
X179635809Y-121157666D01*
X179826285Y-121205285D01*
X179921523Y-121252904D01*
X180016761Y-121348142D01*
X180064380Y-121491000D01*
X180064380Y-121729095D01*
X179397714Y-120300523D02*
X180064380Y-120300523D01*
X179016761Y-120538619D02*
X179731047Y-120776714D01*
X179731047Y-120157666D01*
X179694380Y-117442904D02*
X178694380Y-117442904D01*
X179694380Y-116871476D02*
X179122952Y-117300047D01*
X178694380Y-116871476D02*
X179265809Y-117442904D01*
X165934380Y-134086666D02*
X165458190Y-134420000D01*
X165934380Y-134658095D02*
X164934380Y-134658095D01*
X164934380Y-134277142D01*
X164982000Y-134181904D01*
X165029619Y-134134285D01*
X165124857Y-134086666D01*
X165267714Y-134086666D01*
X165362952Y-134134285D01*
X165410571Y-134181904D01*
X165458190Y-134277142D01*
X165458190Y-134658095D01*
X165029619Y-133705714D02*
X164982000Y-133658095D01*
X164934380Y-133562857D01*
X164934380Y-133324761D01*
X164982000Y-133229523D01*
X165029619Y-133181904D01*
X165124857Y-133134285D01*
X165220095Y-133134285D01*
X165362952Y-133181904D01*
X165934380Y-133753333D01*
X165934380Y-133134285D01*
X191355333Y-112642142D02*
X191307714Y-112689761D01*
X191164857Y-112737380D01*
X191069619Y-112737380D01*
X190926761Y-112689761D01*
X190831523Y-112594523D01*
X190783904Y-112499285D01*
X190736285Y-112308809D01*
X190736285Y-112165952D01*
X190783904Y-111975476D01*
X190831523Y-111880238D01*
X190926761Y-111785000D01*
X191069619Y-111737380D01*
X191164857Y-111737380D01*
X191307714Y-111785000D01*
X191355333Y-111832619D01*
X191736285Y-111832619D02*
X191783904Y-111785000D01*
X191879142Y-111737380D01*
X192117238Y-111737380D01*
X192212476Y-111785000D01*
X192260095Y-111832619D01*
X192307714Y-111927857D01*
X192307714Y-112023095D01*
X192260095Y-112165952D01*
X191688666Y-112737380D01*
X192307714Y-112737380D01*
X146909141Y-117431366D02*
X146956760Y-117478985D01*
X147004379Y-117621842D01*
X147004379Y-117717080D01*
X146956760Y-117859938D01*
X146861522Y-117955176D01*
X146766284Y-118002795D01*
X146575808Y-118050414D01*
X146432951Y-118050414D01*
X146242475Y-118002795D01*
X146147237Y-117955176D01*
X146051999Y-117859938D01*
X146004379Y-117717080D01*
X146004379Y-117621842D01*
X146051999Y-117478985D01*
X146099618Y-117431366D01*
X146004379Y-116574223D02*
X146004379Y-116764700D01*
X146051999Y-116859938D01*
X146099618Y-116907557D01*
X146242475Y-117002795D01*
X146432951Y-117050414D01*
X146813903Y-117050414D01*
X146909141Y-117002795D01*
X146956760Y-116955176D01*
X147004379Y-116859938D01*
X147004379Y-116669461D01*
X146956760Y-116574223D01*
X146909141Y-116526604D01*
X146813903Y-116478985D01*
X146575808Y-116478985D01*
X146480570Y-116526604D01*
X146432951Y-116574223D01*
X146385332Y-116669461D01*
X146385332Y-116859938D01*
X146432951Y-116955176D01*
X146480570Y-117002795D01*
X146575808Y-117050414D01*
X189873666Y-57953380D02*
X189873666Y-58667666D01*
X189826047Y-58810523D01*
X189730809Y-58905761D01*
X189587952Y-58953380D01*
X189492714Y-58953380D01*
X190254619Y-57953380D02*
X190921285Y-57953380D01*
X190492714Y-58953380D01*
X227430333Y-128326842D02*
X227382714Y-128374461D01*
X227239857Y-128422080D01*
X227144619Y-128422080D01*
X227001761Y-128374461D01*
X226906523Y-128279223D01*
X226858904Y-128183985D01*
X226811285Y-127993509D01*
X226811285Y-127850652D01*
X226858904Y-127660176D01*
X226906523Y-127564938D01*
X227001761Y-127469700D01*
X227144619Y-127422080D01*
X227239857Y-127422080D01*
X227382714Y-127469700D01*
X227430333Y-127517319D01*
X227763666Y-127422080D02*
X228430333Y-127422080D01*
X228001761Y-128422080D01*
X225008666Y-51200761D02*
X225151523Y-51248380D01*
X225389619Y-51248380D01*
X225484857Y-51200761D01*
X225532476Y-51153142D01*
X225580095Y-51057904D01*
X225580095Y-50962666D01*
X225532476Y-50867428D01*
X225484857Y-50819809D01*
X225389619Y-50772190D01*
X225199142Y-50724571D01*
X225103904Y-50676952D01*
X225056285Y-50629333D01*
X225008666Y-50534095D01*
X225008666Y-50438857D01*
X225056285Y-50343619D01*
X225103904Y-50296000D01*
X225199142Y-50248380D01*
X225437238Y-50248380D01*
X225580095Y-50296000D01*
X225913428Y-50248380D02*
X226151523Y-51248380D01*
X226342000Y-50534095D01*
X226532476Y-51248380D01*
X226770571Y-50248380D01*
X227675333Y-51248380D02*
X227103904Y-51248380D01*
X227389619Y-51248380D02*
X227389619Y-50248380D01*
X227294380Y-50391238D01*
X227199142Y-50486476D01*
X227103904Y-50534095D01*
X214536666Y-131120761D02*
X214679523Y-131168380D01*
X214917619Y-131168380D01*
X215012857Y-131120761D01*
X215060476Y-131073142D01*
X215108095Y-130977904D01*
X215108095Y-130882666D01*
X215060476Y-130787428D01*
X215012857Y-130739809D01*
X214917619Y-130692190D01*
X214727142Y-130644571D01*
X214631904Y-130596952D01*
X214584285Y-130549333D01*
X214536666Y-130454095D01*
X214536666Y-130358857D01*
X214584285Y-130263619D01*
X214631904Y-130216000D01*
X214727142Y-130168380D01*
X214965238Y-130168380D01*
X215108095Y-130216000D01*
X215441428Y-130168380D02*
X215679523Y-131168380D01*
X215870000Y-130454095D01*
X216060476Y-131168380D01*
X216298571Y-130168380D01*
X216822380Y-130596952D02*
X216727142Y-130549333D01*
X216679523Y-130501714D01*
X216631904Y-130406476D01*
X216631904Y-130358857D01*
X216679523Y-130263619D01*
X216727142Y-130216000D01*
X216822380Y-130168380D01*
X217012857Y-130168380D01*
X217108095Y-130216000D01*
X217155714Y-130263619D01*
X217203333Y-130358857D01*
X217203333Y-130406476D01*
X217155714Y-130501714D01*
X217108095Y-130549333D01*
X217012857Y-130596952D01*
X216822380Y-130596952D01*
X216727142Y-130644571D01*
X216679523Y-130692190D01*
X216631904Y-130787428D01*
X216631904Y-130977904D01*
X216679523Y-131073142D01*
X216727142Y-131120761D01*
X216822380Y-131168380D01*
X217012857Y-131168380D01*
X217108095Y-131120761D01*
X217155714Y-131073142D01*
X217203333Y-130977904D01*
X217203333Y-130787428D01*
X217155714Y-130692190D01*
X217108095Y-130644571D01*
X217012857Y-130596952D01*
X186414380Y-121729095D02*
X185414380Y-121729095D01*
X185414380Y-121491000D01*
X185462000Y-121348142D01*
X185557238Y-121252904D01*
X185652476Y-121205285D01*
X185842952Y-121157666D01*
X185985809Y-121157666D01*
X186176285Y-121205285D01*
X186271523Y-121252904D01*
X186366761Y-121348142D01*
X186414380Y-121491000D01*
X186414380Y-121729095D01*
X185509619Y-120776714D02*
X185462000Y-120729095D01*
X185414380Y-120633857D01*
X185414380Y-120395761D01*
X185462000Y-120300523D01*
X185509619Y-120252904D01*
X185604857Y-120205285D01*
X185700095Y-120205285D01*
X185842952Y-120252904D01*
X186414380Y-120824333D01*
X186414380Y-120205285D01*
X186044380Y-117442904D02*
X185044380Y-117442904D01*
X186044380Y-116871476D02*
X185472952Y-117300047D01*
X185044380Y-116871476D02*
X185615809Y-117442904D01*
X216277476Y-109142080D02*
X216277476Y-109856366D01*
X216229857Y-109999223D01*
X216134619Y-110094461D01*
X215991761Y-110142080D01*
X215896523Y-110142080D01*
X217277476Y-110142080D02*
X216706047Y-110142080D01*
X216991761Y-110142080D02*
X216991761Y-109142080D01*
X216896523Y-109284938D01*
X216801285Y-109380176D01*
X216706047Y-109427795D01*
X218134619Y-109142080D02*
X217944142Y-109142080D01*
X217848904Y-109189700D01*
X217801285Y-109237319D01*
X217706047Y-109380176D01*
X217658428Y-109570652D01*
X217658428Y-109951604D01*
X217706047Y-110046842D01*
X217753666Y-110094461D01*
X217848904Y-110142080D01*
X218039380Y-110142080D01*
X218134619Y-110094461D01*
X218182238Y-110046842D01*
X218229857Y-109951604D01*
X218229857Y-109713509D01*
X218182238Y-109618271D01*
X218134619Y-109570652D01*
X218039380Y-109523033D01*
X217848904Y-109523033D01*
X217753666Y-109570652D01*
X217706047Y-109618271D01*
X217658428Y-109713509D01*
X226278666Y-131120761D02*
X226421523Y-131168380D01*
X226659619Y-131168380D01*
X226754857Y-131120761D01*
X226802476Y-131073142D01*
X226850095Y-130977904D01*
X226850095Y-130882666D01*
X226802476Y-130787428D01*
X226754857Y-130739809D01*
X226659619Y-130692190D01*
X226469142Y-130644571D01*
X226373904Y-130596952D01*
X226326285Y-130549333D01*
X226278666Y-130454095D01*
X226278666Y-130358857D01*
X226326285Y-130263619D01*
X226373904Y-130216000D01*
X226469142Y-130168380D01*
X226707238Y-130168380D01*
X226850095Y-130216000D01*
X227183428Y-130168380D02*
X227421523Y-131168380D01*
X227612000Y-130454095D01*
X227802476Y-131168380D01*
X228040571Y-130168380D01*
X228326285Y-130168380D02*
X228992952Y-130168380D01*
X228564380Y-131168380D01*
X200172476Y-59423380D02*
X200172476Y-60137666D01*
X200124857Y-60280523D01*
X200029619Y-60375761D01*
X199886761Y-60423380D01*
X199791523Y-60423380D01*
X201172476Y-60423380D02*
X200601047Y-60423380D01*
X200886761Y-60423380D02*
X200886761Y-59423380D01*
X200791523Y-59566238D01*
X200696285Y-59661476D01*
X200601047Y-59709095D01*
X201553428Y-59518619D02*
X201601047Y-59471000D01*
X201696285Y-59423380D01*
X201934380Y-59423380D01*
X202029619Y-59471000D01*
X202077238Y-59518619D01*
X202124857Y-59613857D01*
X202124857Y-59709095D01*
X202077238Y-59851952D01*
X201505809Y-60423380D01*
X202124857Y-60423380D01*
X177907476Y-131703380D02*
X177907476Y-132417666D01*
X177859857Y-132560523D01*
X177764619Y-132655761D01*
X177621761Y-132703380D01*
X177526523Y-132703380D01*
X178907476Y-132703380D02*
X178336047Y-132703380D01*
X178621761Y-132703380D02*
X178621761Y-131703380D01*
X178526523Y-131846238D01*
X178431285Y-131941476D01*
X178336047Y-131989095D01*
X179240809Y-131703380D02*
X179859857Y-131703380D01*
X179526523Y-132084333D01*
X179669380Y-132084333D01*
X179764619Y-132131952D01*
X179812238Y-132179571D01*
X179859857Y-132274809D01*
X179859857Y-132512904D01*
X179812238Y-132608142D01*
X179764619Y-132655761D01*
X179669380Y-132703380D01*
X179383666Y-132703380D01*
X179288428Y-132655761D01*
X179240809Y-132608142D01*
X203935333Y-123672080D02*
X203602000Y-123195890D01*
X203363904Y-123672080D02*
X203363904Y-122672080D01*
X203744857Y-122672080D01*
X203840095Y-122719700D01*
X203887714Y-122767319D01*
X203935333Y-122862557D01*
X203935333Y-123005414D01*
X203887714Y-123100652D01*
X203840095Y-123148271D01*
X203744857Y-123195890D01*
X203363904Y-123195890D01*
X204506761Y-123100652D02*
X204411523Y-123053033D01*
X204363904Y-123005414D01*
X204316285Y-122910176D01*
X204316285Y-122862557D01*
X204363904Y-122767319D01*
X204411523Y-122719700D01*
X204506761Y-122672080D01*
X204697238Y-122672080D01*
X204792476Y-122719700D01*
X204840095Y-122767319D01*
X204887714Y-122862557D01*
X204887714Y-122910176D01*
X204840095Y-123005414D01*
X204792476Y-123053033D01*
X204697238Y-123100652D01*
X204506761Y-123100652D01*
X204411523Y-123148271D01*
X204363904Y-123195890D01*
X204316285Y-123291128D01*
X204316285Y-123481604D01*
X204363904Y-123576842D01*
X204411523Y-123624461D01*
X204506761Y-123672080D01*
X204697238Y-123672080D01*
X204792476Y-123624461D01*
X204840095Y-123576842D01*
X204887714Y-123481604D01*
X204887714Y-123291128D01*
X204840095Y-123195890D01*
X204792476Y-123148271D01*
X204697238Y-123100652D01*
X189800095Y-100549380D02*
X189800095Y-101358904D01*
X189847714Y-101454142D01*
X189895333Y-101501761D01*
X189990571Y-101549380D01*
X190181047Y-101549380D01*
X190276285Y-101501761D01*
X190323904Y-101454142D01*
X190371523Y-101358904D01*
X190371523Y-100549380D01*
X191323904Y-100549380D02*
X190847714Y-100549380D01*
X190800095Y-101025571D01*
X190847714Y-100977952D01*
X190942952Y-100930333D01*
X191181047Y-100930333D01*
X191276285Y-100977952D01*
X191323904Y-101025571D01*
X191371523Y-101120809D01*
X191371523Y-101358904D01*
X191323904Y-101454142D01*
X191276285Y-101501761D01*
X191181047Y-101549380D01*
X190942952Y-101549380D01*
X190847714Y-101501761D01*
X190800095Y-101454142D01*
X202536666Y-131120761D02*
X202679523Y-131168380D01*
X202917619Y-131168380D01*
X203012857Y-131120761D01*
X203060476Y-131073142D01*
X203108095Y-130977904D01*
X203108095Y-130882666D01*
X203060476Y-130787428D01*
X203012857Y-130739809D01*
X202917619Y-130692190D01*
X202727142Y-130644571D01*
X202631904Y-130596952D01*
X202584285Y-130549333D01*
X202536666Y-130454095D01*
X202536666Y-130358857D01*
X202584285Y-130263619D01*
X202631904Y-130216000D01*
X202727142Y-130168380D01*
X202965238Y-130168380D01*
X203108095Y-130216000D01*
X203441428Y-130168380D02*
X203679523Y-131168380D01*
X203870000Y-130454095D01*
X204060476Y-131168380D01*
X204298571Y-130168380D01*
X204727142Y-131168380D02*
X204917619Y-131168380D01*
X205012857Y-131120761D01*
X205060476Y-131073142D01*
X205155714Y-130930285D01*
X205203333Y-130739809D01*
X205203333Y-130358857D01*
X205155714Y-130263619D01*
X205108095Y-130216000D01*
X205012857Y-130168380D01*
X204822380Y-130168380D01*
X204727142Y-130216000D01*
X204679523Y-130263619D01*
X204631904Y-130358857D01*
X204631904Y-130596952D01*
X204679523Y-130692190D01*
X204727142Y-130739809D01*
X204822380Y-130787428D01*
X205012857Y-130787428D01*
X205108095Y-130739809D01*
X205155714Y-130692190D01*
X205203333Y-130596952D01*
D12*
X157338666Y-138538747D02*
X157520095Y-138599223D01*
X157822476Y-138599223D01*
X157943428Y-138538747D01*
X158003904Y-138478271D01*
X158064380Y-138357319D01*
X158064380Y-138236366D01*
X158003904Y-138115414D01*
X157943428Y-138054938D01*
X157822476Y-137994461D01*
X157580571Y-137933985D01*
X157459619Y-137873509D01*
X157399142Y-137813033D01*
X157338666Y-137692080D01*
X157338666Y-137571128D01*
X157399142Y-137450176D01*
X157459619Y-137389700D01*
X157580571Y-137329223D01*
X157882952Y-137329223D01*
X158064380Y-137389700D01*
X158487714Y-137329223D02*
X158790095Y-138599223D01*
X159032000Y-137692080D01*
X159273904Y-138599223D01*
X159576285Y-137329223D01*
X159999619Y-137450176D02*
X160060095Y-137389700D01*
X160181047Y-137329223D01*
X160483428Y-137329223D01*
X160604380Y-137389700D01*
X160664857Y-137450176D01*
X160725333Y-137571128D01*
X160725333Y-137692080D01*
X160664857Y-137873509D01*
X159939142Y-138599223D01*
X160725333Y-138599223D01*
D14*
X162052000Y-132734700D02*
G75*
G03*
X162052000Y-132734700I-3270000J0D01*
G01*
X223897000Y-63904700D02*
G75*
G03*
X223897000Y-63904700I-3270000J0D01*
G01*
X181787000Y-118271000D02*
X181787000Y-123711000D01*
X178847000Y-123711000D02*
X178977000Y-123711000D01*
X181787000Y-119171000D02*
X178847000Y-119171000D01*
X181787000Y-119291000D02*
X178847000Y-119291000D01*
X181787000Y-123711000D02*
X181657000Y-123711000D01*
X181787000Y-119051000D02*
X178847000Y-119051000D01*
X178977000Y-118271000D02*
X178847000Y-118271000D01*
X181657000Y-118271000D02*
X181787000Y-118271000D01*
X178847000Y-118271000D02*
X178847000Y-123711000D01*
X214247000Y-124219700D02*
X218087000Y-124219700D01*
X214247000Y-126059700D02*
X218087000Y-126059700D01*
X201492000Y-82946000D02*
X201492000Y-82881000D01*
X201492000Y-82881000D02*
X198252000Y-82881000D01*
X201492000Y-85121000D02*
X201492000Y-85056000D01*
X198252000Y-82946000D02*
X198252000Y-82881000D01*
X198252000Y-85121000D02*
X198252000Y-85056000D01*
X201492000Y-85121000D02*
X198252000Y-85121000D01*
X172367000Y-86707000D02*
X154587000Y-86707000D01*
X154587000Y-86707000D02*
X154587000Y-101947000D01*
X154587000Y-101947000D02*
X172367000Y-101947000D01*
X172367000Y-101947000D02*
X172367000Y-86707000D01*
X172497000Y-118271000D02*
X172497000Y-123711000D01*
X175437000Y-119291000D02*
X172497000Y-119291000D01*
X175307000Y-118271000D02*
X175437000Y-118271000D01*
X175437000Y-119171000D02*
X172497000Y-119171000D01*
X175437000Y-118271000D02*
X175437000Y-123711000D01*
X172497000Y-123711000D02*
X172627000Y-123711000D01*
X175437000Y-119051000D02*
X172497000Y-119051000D01*
X175437000Y-123711000D02*
X175307000Y-123711000D01*
X172627000Y-118271000D02*
X172497000Y-118271000D01*
X180527000Y-87342000D02*
X180527000Y-103852000D01*
X200847000Y-103852000D02*
X200847000Y-87342000D01*
X180527000Y-103852000D02*
X200847000Y-103852000D01*
X200847000Y-87342000D02*
X180527000Y-87342000D01*
X184527000Y-89842000D02*
G75*
G03*
X184527000Y-89842000I-1500000J0D01*
G01*
X199847000Y-89842000D02*
G75*
G03*
X199847000Y-89842000I-1500000J0D01*
G01*
X228422000Y-97794700D02*
X234392000Y-97794700D01*
X234392000Y-85174700D02*
X228422000Y-85174700D01*
X234382000Y-85184700D02*
X233632000Y-85184700D01*
X233632000Y-85184700D02*
X233632000Y-86984700D01*
X233632000Y-86984700D02*
X234382000Y-86984700D01*
X234382000Y-86984700D02*
X234382000Y-85184700D01*
X233632000Y-95984700D02*
X233632000Y-97784700D01*
X232132000Y-85184700D02*
X232132000Y-85934700D01*
X233632000Y-94484700D02*
X234382000Y-94484700D01*
X232132000Y-97034700D02*
X229182000Y-97034700D01*
X234382000Y-88484700D02*
X233632000Y-88484700D01*
X234382000Y-97784700D02*
X234382000Y-95984700D01*
X234682000Y-86134700D02*
X234682000Y-84884700D01*
X234382000Y-95984700D02*
X233632000Y-95984700D01*
X232132000Y-85934700D02*
X229182000Y-85934700D01*
X234392000Y-97794700D02*
X234392000Y-85174700D01*
X232132000Y-97784700D02*
X232132000Y-97034700D01*
X229182000Y-85934700D02*
X229182000Y-91484700D01*
X234382000Y-94484700D02*
X234382000Y-88484700D01*
X233632000Y-88484700D02*
X233632000Y-94484700D01*
X228422000Y-85174700D02*
X228422000Y-97794700D01*
X233632000Y-97784700D02*
X234382000Y-97784700D01*
X229182000Y-97034700D02*
X229182000Y-91484700D01*
X234682000Y-84884700D02*
X233432000Y-84884700D01*
X150977000Y-77632000D02*
X148027000Y-77632000D01*
X147267000Y-78392000D02*
X153237000Y-78392000D01*
X148027000Y-77632000D02*
X148027000Y-73332000D01*
X152477000Y-71582000D02*
X152477000Y-75082000D01*
X153237000Y-68272000D02*
X147267000Y-68272000D01*
X152477000Y-70082000D02*
X153227000Y-70082000D01*
X153227000Y-76582000D02*
X152477000Y-76582000D01*
X150977000Y-78382000D02*
X150977000Y-77632000D01*
X150977000Y-69032000D02*
X148027000Y-69032000D01*
X153227000Y-71582000D02*
X152477000Y-71582000D01*
X152477000Y-68282000D02*
X152477000Y-70082000D01*
X148027000Y-69032000D02*
X148027000Y-73332000D01*
X147267000Y-68272000D02*
X147267000Y-78392000D01*
X153227000Y-68282000D02*
X152477000Y-68282000D01*
X152477000Y-75082000D02*
X153227000Y-75082000D01*
X152477000Y-76582000D02*
X152477000Y-78382000D01*
X150977000Y-68282000D02*
X150977000Y-69032000D01*
X153227000Y-75082000D02*
X153227000Y-71582000D01*
X153227000Y-70082000D02*
X153227000Y-68282000D01*
X152477000Y-78382000D02*
X153227000Y-78382000D01*
X153227000Y-78382000D02*
X153227000Y-76582000D01*
X153527000Y-69232000D02*
X153527000Y-67982000D01*
X153527000Y-67982000D02*
X152277000Y-67982000D01*
X153237000Y-78392000D02*
X153237000Y-68272000D01*
X156437000Y-60352000D02*
X156437000Y-59602000D01*
X167237000Y-60352000D02*
X167237000Y-59602000D01*
X155387000Y-61852000D02*
X155387000Y-64802000D01*
X163937000Y-59602000D02*
X157937000Y-59602000D01*
X157937000Y-59602000D02*
X157937000Y-60352000D01*
X165437000Y-59602000D02*
X165437000Y-60352000D01*
X167247000Y-59592000D02*
X154627000Y-59592000D01*
X154637000Y-61852000D02*
X155387000Y-61852000D01*
X167247000Y-65562000D02*
X167247000Y-59592000D01*
X163937000Y-60352000D02*
X163937000Y-59602000D01*
X167237000Y-59602000D02*
X165437000Y-59602000D01*
X155587000Y-59302000D02*
X154337000Y-59302000D01*
X154627000Y-59592000D02*
X154627000Y-65562000D01*
X156437000Y-59602000D02*
X154637000Y-59602000D01*
X154637000Y-60352000D02*
X156437000Y-60352000D01*
X154337000Y-59302000D02*
X154337000Y-60552000D01*
X165437000Y-60352000D02*
X167237000Y-60352000D01*
X166487000Y-64802000D02*
X160937000Y-64802000D01*
X154637000Y-59602000D02*
X154637000Y-60352000D01*
X155387000Y-64802000D02*
X160937000Y-64802000D01*
X157937000Y-60352000D02*
X163937000Y-60352000D01*
X167237000Y-61852000D02*
X166487000Y-61852000D01*
X154627000Y-65562000D02*
X167247000Y-65562000D01*
X166487000Y-61852000D02*
X166487000Y-64802000D01*
X201042000Y-68230000D02*
X197202000Y-68230000D01*
X201042000Y-70070000D02*
X197202000Y-70070000D01*
D15*
X173562000Y-60672000D02*
X173562000Y-60672000D01*
X173462000Y-60672000D02*
X173462000Y-60672000D01*
D13*
X173002000Y-59147000D02*
X167922000Y-59147000D01*
D15*
X173562000Y-60672000D02*
X173562000Y-60672000D01*
D13*
X167922000Y-67277000D02*
X173002000Y-67277000D01*
X173002000Y-67277000D02*
X173002000Y-59147000D01*
X167922000Y-59147000D02*
X167922000Y-67277000D01*
D15*
X173562000Y-60672000D02*
G75*
G03*
X173462000Y-60672000I-50000J0D01*
G01*
X173462000Y-60672000D02*
G75*
G03*
X173562000Y-60672000I50000J0D01*
G01*
X173562000Y-60672000D02*
G75*
G03*
X173462000Y-60672000I-50000J0D01*
G01*
D14*
X191822000Y-122324700D02*
G75*
G03*
X191822000Y-122324700I-3270000J0D01*
G01*
X145722000Y-120434700D02*
X145722000Y-116594700D01*
X147562000Y-120434700D02*
X147562000Y-116594700D01*
X187552000Y-134011000D02*
X187552000Y-133261000D01*
X185742000Y-133251000D02*
X185742000Y-139221000D01*
X189052000Y-134011000D02*
X195052000Y-134011000D01*
X185742000Y-139221000D02*
X198362000Y-139221000D01*
X196552000Y-133261000D02*
X196552000Y-134011000D01*
X186502000Y-138461000D02*
X192052000Y-138461000D01*
X185452000Y-132961000D02*
X185452000Y-134211000D01*
X198362000Y-133251000D02*
X185742000Y-133251000D01*
X186702000Y-132961000D02*
X185452000Y-132961000D01*
X186502000Y-135511000D02*
X186502000Y-138461000D01*
X187552000Y-133261000D02*
X185752000Y-133261000D01*
X185752000Y-134011000D02*
X187552000Y-134011000D01*
X195052000Y-134011000D02*
X195052000Y-133261000D01*
X197602000Y-135511000D02*
X197602000Y-138461000D01*
X189052000Y-133261000D02*
X189052000Y-134011000D01*
X197602000Y-138461000D02*
X192052000Y-138461000D01*
X185752000Y-135511000D02*
X186502000Y-135511000D01*
X198362000Y-139221000D02*
X198362000Y-133251000D01*
X195052000Y-133261000D02*
X189052000Y-133261000D01*
X198352000Y-133261000D02*
X196552000Y-133261000D01*
X185752000Y-133261000D02*
X185752000Y-134011000D01*
X198352000Y-135511000D02*
X197602000Y-135511000D01*
X196552000Y-134011000D02*
X198352000Y-134011000D01*
X198352000Y-134011000D02*
X198352000Y-133261000D01*
X249252000Y-120419700D02*
G75*
G03*
X249252000Y-120419700I-6100000J0D01*
G01*
X217787000Y-131274700D02*
X217787000Y-131339700D01*
X214547000Y-129099700D02*
X217787000Y-129099700D01*
X217787000Y-129099700D02*
X217787000Y-129164700D01*
X214547000Y-131274700D02*
X214547000Y-131339700D01*
X214547000Y-131339700D02*
X217787000Y-131339700D01*
X214547000Y-129099700D02*
X214547000Y-129164700D01*
X157372000Y-123664700D02*
X162572000Y-123664700D01*
X157372000Y-113384700D02*
X158702000Y-113384700D01*
X157372000Y-115984700D02*
X157372000Y-123664700D01*
X157372000Y-115984700D02*
X159972000Y-115984700D01*
X157372000Y-114714700D02*
X157372000Y-113384700D01*
X162572000Y-113384700D02*
X162572000Y-123664700D01*
X159972000Y-113384700D02*
X162572000Y-113384700D01*
X159972000Y-115984700D02*
X159972000Y-113384700D01*
X187042000Y-118330000D02*
X190882000Y-118330000D01*
X187042000Y-116490000D02*
X190882000Y-116490000D01*
X185092000Y-78769855D02*
X193722000Y-78769855D01*
X185092000Y-78061285D02*
X193722000Y-78061285D01*
X193722000Y-81817000D02*
X194132000Y-81817000D01*
X185092000Y-78533665D02*
X193722000Y-78533665D01*
X195182000Y-77587000D02*
X196292000Y-77587000D01*
X185092000Y-77587000D02*
X185092000Y-85327000D01*
X193722000Y-84357000D02*
X194132000Y-84357000D01*
X185092000Y-79242235D02*
X193722000Y-79242235D01*
X196292000Y-77587000D02*
X196292000Y-78917000D01*
X193722000Y-81097000D02*
X194132000Y-81097000D01*
X185092000Y-79360330D02*
X193722000Y-79360330D01*
X185092000Y-78887950D02*
X193722000Y-78887950D01*
X185092000Y-79714615D02*
X193722000Y-79714615D01*
X185092000Y-79478425D02*
X193722000Y-79478425D01*
X185092000Y-78415570D02*
X193722000Y-78415570D01*
X185092000Y-79596520D02*
X193722000Y-79596520D01*
X185092000Y-85327000D02*
X193722000Y-85327000D01*
X185092000Y-79124140D02*
X193722000Y-79124140D01*
X185092000Y-77825095D02*
X193722000Y-77825095D01*
X193722000Y-79277000D02*
X194072000Y-79277000D01*
X185092000Y-82727000D02*
X193722000Y-82727000D01*
X185092000Y-78651760D02*
X193722000Y-78651760D01*
X185092000Y-80068900D02*
X193722000Y-80068900D01*
X185092000Y-77943190D02*
X193722000Y-77943190D01*
X185092000Y-79832710D02*
X193722000Y-79832710D01*
X193722000Y-78557000D02*
X194072000Y-78557000D01*
X185092000Y-79006045D02*
X193722000Y-79006045D01*
X185092000Y-78297475D02*
X193722000Y-78297475D01*
X193722000Y-77587000D02*
X193722000Y-85327000D01*
X185092000Y-77587000D02*
X193722000Y-77587000D01*
X185092000Y-77707000D02*
X193722000Y-77707000D01*
X185092000Y-78179380D02*
X193722000Y-78179380D01*
X185092000Y-80187000D02*
X193722000Y-80187000D01*
X185092000Y-79950805D02*
X193722000Y-79950805D01*
X193722000Y-83637000D02*
X194132000Y-83637000D01*
X156982000Y-50796000D02*
X154032000Y-50796000D01*
X158482000Y-51846000D02*
X159232000Y-51846000D01*
X158482000Y-53346000D02*
X158482000Y-54346000D01*
X158482000Y-54346000D02*
X159232000Y-54346000D01*
X159232000Y-50046000D02*
X158482000Y-50046000D01*
X159232000Y-54346000D02*
X159232000Y-53346000D01*
X156982000Y-50046000D02*
X156982000Y-50796000D01*
X158482000Y-55846000D02*
X158482000Y-57646000D01*
X158482000Y-57646000D02*
X159232000Y-57646000D01*
X159232000Y-53346000D02*
X158482000Y-53346000D01*
X156982000Y-56896000D02*
X154032000Y-56896000D01*
X156982000Y-57646000D02*
X156982000Y-56896000D01*
X153272000Y-57656000D02*
X159242000Y-57656000D01*
X154032000Y-56896000D02*
X154032000Y-53846000D01*
X153272000Y-50036000D02*
X153272000Y-57656000D01*
X159242000Y-57656000D02*
X159242000Y-50036000D01*
X159232000Y-51846000D02*
X159232000Y-50046000D01*
X154032000Y-50796000D02*
X154032000Y-53846000D01*
X159232000Y-57646000D02*
X159232000Y-55846000D01*
X159232000Y-55846000D02*
X158482000Y-55846000D01*
X159532000Y-49746000D02*
X158282000Y-49746000D01*
X159242000Y-50036000D02*
X153272000Y-50036000D01*
X159532000Y-50996000D02*
X159532000Y-49746000D01*
X158482000Y-50046000D02*
X158482000Y-51846000D01*
D13*
X136762000Y-134009700D02*
X141842000Y-134009700D01*
X136762000Y-125879700D02*
X136762000Y-134009700D01*
D15*
X136302000Y-132484700D02*
X136302000Y-132484700D01*
X136202000Y-132484700D02*
X136202000Y-132484700D01*
D13*
X141842000Y-125879700D02*
X136762000Y-125879700D01*
D15*
X136202000Y-132484700D02*
X136202000Y-132484700D01*
D13*
X141842000Y-134009700D02*
X141842000Y-125879700D01*
D15*
X136302000Y-132484700D02*
G75*
G03*
X136202000Y-132484700I-50000J0D01*
G01*
X136202000Y-132484700D02*
G75*
G03*
X136302000Y-132484700I50000J0D01*
G01*
X136202000Y-132484700D02*
G75*
G03*
X136302000Y-132484700I50000J0D01*
G01*
D13*
X153952000Y-67277000D02*
X153952000Y-59147000D01*
D15*
X154512000Y-60672000D02*
X154512000Y-60672000D01*
D13*
X148872000Y-67277000D02*
X153952000Y-67277000D01*
X153952000Y-59147000D02*
X148872000Y-59147000D01*
D15*
X154412000Y-60672000D02*
X154412000Y-60672000D01*
X154512000Y-60672000D02*
X154512000Y-60672000D01*
D13*
X148872000Y-59147000D02*
X148872000Y-67277000D01*
D15*
X154412000Y-60672000D02*
G75*
G03*
X154512000Y-60672000I50000J0D01*
G01*
X154512000Y-60672000D02*
G75*
G03*
X154412000Y-60672000I-50000J0D01*
G01*
X154512000Y-60672000D02*
G75*
G03*
X154412000Y-60672000I-50000J0D01*
G01*
D14*
X231072000Y-61381000D02*
X231072000Y-65221000D01*
X229232000Y-61381000D02*
X229232000Y-65221000D01*
X171732000Y-103089700D02*
X148872000Y-103089700D01*
X148872000Y-138649700D02*
X171732000Y-138649700D01*
X148872000Y-103089700D02*
X148872000Y-138649700D01*
X171732000Y-138649700D02*
X171732000Y-103089700D01*
X150067000Y-97034700D02*
X153017000Y-97034700D01*
X148567000Y-95984700D02*
X147817000Y-95984700D01*
X153017000Y-85934700D02*
X153017000Y-91484700D01*
X153777000Y-85174700D02*
X147807000Y-85174700D01*
X147817000Y-97784700D02*
X148567000Y-97784700D01*
X153777000Y-97794700D02*
X153777000Y-85174700D01*
X147817000Y-94484700D02*
X148567000Y-94484700D01*
X148567000Y-94484700D02*
X148567000Y-88484700D01*
X147817000Y-86984700D02*
X148567000Y-86984700D01*
X150067000Y-85184700D02*
X150067000Y-85934700D01*
X153017000Y-97034700D02*
X153017000Y-91484700D01*
X148567000Y-97784700D02*
X148567000Y-95984700D01*
X150067000Y-85934700D02*
X153017000Y-85934700D01*
X147817000Y-88484700D02*
X147817000Y-94484700D01*
X147817000Y-85184700D02*
X147817000Y-86984700D01*
X148567000Y-85184700D02*
X147817000Y-85184700D01*
X147517000Y-98084700D02*
X148767000Y-98084700D01*
X148567000Y-86984700D02*
X148567000Y-85184700D01*
X147817000Y-95984700D02*
X147817000Y-97784700D01*
X150067000Y-97784700D02*
X150067000Y-97034700D01*
X147807000Y-85174700D02*
X147807000Y-97794700D01*
X147517000Y-96834700D02*
X147517000Y-98084700D01*
X148567000Y-88484700D02*
X147817000Y-88484700D01*
X147807000Y-97794700D02*
X153777000Y-97794700D01*
X225677000Y-126059700D02*
X229517000Y-126059700D01*
X225677000Y-124219700D02*
X229517000Y-124219700D01*
D15*
X209072180Y-106739960D02*
X210072180Y-107739960D01*
X226072180Y-107739960D02*
X227072180Y-106739960D01*
X210072180Y-83739960D02*
X210072180Y-83739960D01*
X210072180Y-83739960D02*
X226072180Y-83739960D01*
X210072180Y-107739960D02*
X226072180Y-107739960D01*
X209072180Y-84739960D02*
X210072180Y-83739960D01*
X226072180Y-83739960D02*
X227072180Y-84739960D01*
X227072180Y-106739960D02*
X227072180Y-84739960D01*
X227072180Y-84739960D02*
X227072180Y-84739960D01*
X209072180Y-106739960D02*
X209072180Y-84739960D01*
D14*
X205432000Y-129099700D02*
X202192000Y-129099700D01*
X205432000Y-129164700D02*
X205432000Y-129099700D01*
X205432000Y-131339700D02*
X205432000Y-131274700D01*
X202192000Y-129164700D02*
X202192000Y-129099700D01*
X202192000Y-131339700D02*
X202192000Y-131274700D01*
X205432000Y-131339700D02*
X202192000Y-131339700D01*
X203642000Y-78921000D02*
G75*
G03*
X203642000Y-78921000I-3270000J0D01*
G01*
X183257000Y-62031000D02*
G75*
G03*
X183257000Y-62031000I-3270000J0D01*
G01*
X174562000Y-111580000D02*
X174562000Y-108080000D01*
X176062000Y-114880000D02*
X176062000Y-114130000D01*
X176062000Y-104780000D02*
X176062000Y-105530000D01*
X176062000Y-105530000D02*
X179012000Y-105530000D01*
X174562000Y-114880000D02*
X174562000Y-113080000D01*
X173812000Y-111580000D02*
X174562000Y-111580000D01*
X174562000Y-104780000D02*
X173812000Y-104780000D01*
X173512000Y-113930000D02*
X173512000Y-115180000D01*
X173512000Y-115180000D02*
X174762000Y-115180000D01*
X179012000Y-114130000D02*
X179012000Y-109830000D01*
X173812000Y-106580000D02*
X174562000Y-106580000D01*
X174562000Y-108080000D02*
X173812000Y-108080000D01*
X174562000Y-106580000D02*
X174562000Y-104780000D01*
X176062000Y-114130000D02*
X179012000Y-114130000D01*
X173812000Y-113080000D02*
X173812000Y-114880000D01*
X173812000Y-114880000D02*
X174562000Y-114880000D01*
X179772000Y-104770000D02*
X173802000Y-104770000D01*
X173812000Y-108080000D02*
X173812000Y-111580000D01*
X179772000Y-114890000D02*
X179772000Y-104770000D01*
X174562000Y-113080000D02*
X173812000Y-113080000D01*
X173812000Y-104780000D02*
X173812000Y-106580000D01*
X179012000Y-105530000D02*
X179012000Y-109830000D01*
X173802000Y-114890000D02*
X179772000Y-114890000D01*
X173802000Y-104770000D02*
X173802000Y-114890000D01*
X196336000Y-126674700D02*
X196336000Y-124874700D01*
X191136000Y-125624700D02*
X191136000Y-128674700D01*
X194086000Y-124874700D02*
X194086000Y-125624700D01*
X196346000Y-132484700D02*
X196346000Y-124864700D01*
X195586000Y-128174700D02*
X195586000Y-129174700D01*
X194086000Y-125624700D02*
X191136000Y-125624700D01*
X196336000Y-124874700D02*
X195586000Y-124874700D01*
X194086000Y-132474700D02*
X194086000Y-131724700D01*
X195586000Y-129174700D02*
X196336000Y-129174700D01*
X195586000Y-130674700D02*
X195586000Y-132474700D01*
X196336000Y-129174700D02*
X196336000Y-128174700D01*
X196346000Y-124864700D02*
X190376000Y-124864700D01*
X196636000Y-125824700D02*
X196636000Y-124574700D01*
X191136000Y-131724700D02*
X191136000Y-128674700D01*
X190376000Y-124864700D02*
X190376000Y-132484700D01*
X195586000Y-126674700D02*
X196336000Y-126674700D01*
X190376000Y-132484700D02*
X196346000Y-132484700D01*
X196336000Y-132474700D02*
X196336000Y-130674700D01*
X194086000Y-131724700D02*
X191136000Y-131724700D01*
X196636000Y-124574700D02*
X195386000Y-124574700D01*
X195586000Y-132474700D02*
X196336000Y-132474700D01*
X196336000Y-130674700D02*
X195586000Y-130674700D01*
X195586000Y-124874700D02*
X195586000Y-126674700D01*
X196336000Y-128174700D02*
X195586000Y-128174700D01*
X152977000Y-143277000D02*
X152977000Y-143121000D01*
X152977000Y-140961000D02*
X152977000Y-140805000D01*
X152457961Y-140961000D02*
G75*
G03*
X150375870Y-140961163I-1040961J-1080000D01*
G01*
X150375870Y-143120837D02*
G75*
G03*
X152457961Y-143121000I1041130J1079837D01*
G01*
X149744665Y-143119608D02*
G75*
G03*
X152977000Y-143276516I1672335J1078608D01*
G01*
X152977000Y-140805484D02*
G75*
G03*
X149744665Y-140962392I-1560000J-1235516D01*
G01*
X168742000Y-70832000D02*
G75*
G03*
X168742000Y-70832000I-3270000J0D01*
G01*
X171732000Y-68292000D02*
X171732000Y-86072000D01*
X153952000Y-68292000D02*
X171732000Y-68292000D01*
X171732000Y-86072000D02*
X153952000Y-86072000D01*
X153952000Y-86072000D02*
X153952000Y-68292000D01*
X182962000Y-104780000D02*
X182962000Y-105530000D01*
X180712000Y-106580000D02*
X181462000Y-106580000D01*
X181462000Y-106580000D02*
X181462000Y-104780000D01*
X180712000Y-104780000D02*
X180712000Y-106580000D01*
X181462000Y-113080000D02*
X180712000Y-113080000D01*
X180702000Y-104770000D02*
X180702000Y-114890000D01*
X181462000Y-114880000D02*
X181462000Y-113080000D01*
X182962000Y-114130000D02*
X185912000Y-114130000D01*
X181462000Y-108080000D02*
X180712000Y-108080000D01*
X180712000Y-108080000D02*
X180712000Y-111580000D01*
X180712000Y-111580000D02*
X181462000Y-111580000D01*
X186672000Y-114890000D02*
X186672000Y-104770000D01*
X186672000Y-104770000D02*
X180702000Y-104770000D01*
X185912000Y-114130000D02*
X185912000Y-109830000D01*
X185912000Y-105530000D02*
X185912000Y-109830000D01*
X181462000Y-104780000D02*
X180712000Y-104780000D01*
X181462000Y-111580000D02*
X181462000Y-108080000D01*
X182962000Y-105530000D02*
X185912000Y-105530000D01*
X182962000Y-114880000D02*
X182962000Y-114130000D01*
X180412000Y-115180000D02*
X181662000Y-115180000D01*
X180412000Y-113930000D02*
X180412000Y-115180000D01*
X180712000Y-113080000D02*
X180712000Y-114880000D01*
X180702000Y-114890000D02*
X186672000Y-114890000D01*
X180712000Y-114880000D02*
X181462000Y-114880000D01*
X188217000Y-127101000D02*
X190017000Y-127101000D01*
X189267000Y-128601000D02*
X189267000Y-131551000D01*
X190017000Y-128601000D02*
X189267000Y-128601000D01*
X186717000Y-127101000D02*
X186717000Y-126351000D01*
X174217000Y-127101000D02*
X174217000Y-126351000D01*
X173167000Y-131551000D02*
X181217000Y-131551000D01*
X172417000Y-128601000D02*
X173167000Y-128601000D01*
X190027000Y-126341000D02*
X172407000Y-126341000D01*
X175717000Y-126351000D02*
X175717000Y-127101000D01*
X172417000Y-127101000D02*
X174217000Y-127101000D01*
X173367000Y-126051000D02*
X172117000Y-126051000D01*
X188217000Y-126351000D02*
X188217000Y-127101000D01*
X190027000Y-132311000D02*
X190027000Y-126341000D01*
X172117000Y-126051000D02*
X172117000Y-127301000D01*
X189267000Y-131551000D02*
X181217000Y-131551000D01*
X186717000Y-126351000D02*
X175717000Y-126351000D01*
X174217000Y-126351000D02*
X172417000Y-126351000D01*
X173167000Y-128601000D02*
X173167000Y-131551000D01*
X172407000Y-132311000D02*
X190027000Y-132311000D01*
X190017000Y-127101000D02*
X190017000Y-126351000D01*
X172407000Y-126341000D02*
X172407000Y-132311000D01*
X175717000Y-127101000D02*
X186717000Y-127101000D01*
X172417000Y-126351000D02*
X172417000Y-127101000D01*
X190017000Y-126351000D02*
X188217000Y-126351000D01*
X209197000Y-61364700D02*
X226977000Y-61364700D01*
X226977000Y-61364700D02*
X226977000Y-79144700D01*
X226977000Y-79144700D02*
X209197000Y-79144700D01*
X209197000Y-79144700D02*
X209197000Y-61364700D01*
D15*
X136872000Y-123576000D02*
X136872000Y-123576000D01*
X133072000Y-115876000D02*
X133072000Y-115876000D01*
X131122000Y-115876000D02*
X133072000Y-115876000D01*
X141922000Y-118126000D02*
X141922000Y-118126000D01*
X137872000Y-115876000D02*
X137872000Y-115876000D01*
X137872000Y-123576000D02*
X136872000Y-123576000D01*
X131122000Y-115876000D02*
X131122000Y-123576000D01*
X131122000Y-115876000D02*
X131122000Y-115876000D01*
X131122000Y-123576000D02*
X131122000Y-123576000D01*
X131122000Y-123576000D02*
X131122000Y-115876000D01*
X131122000Y-123576000D02*
X133072000Y-123576000D01*
X136872000Y-115876000D02*
X136872000Y-115876000D01*
X131122000Y-115876000D02*
X131122000Y-115876000D01*
X136872000Y-115876000D02*
X137872000Y-115876000D01*
X141822000Y-118126000D02*
X141822000Y-118126000D01*
X136872000Y-123576000D02*
X137872000Y-123576000D01*
X137872000Y-115876000D02*
X136872000Y-115876000D01*
X141922000Y-118126000D02*
X141922000Y-118126000D01*
X137872000Y-123576000D02*
X137872000Y-123576000D01*
X133072000Y-115876000D02*
X131122000Y-115876000D01*
X133072000Y-123576000D02*
X131122000Y-123576000D01*
X133072000Y-123576000D02*
X133072000Y-123576000D01*
X131122000Y-123576000D02*
X131122000Y-123576000D01*
X141922000Y-118126000D02*
G75*
G03*
X141822000Y-118126000I-50000J0D01*
G01*
X141922000Y-118126000D02*
G75*
G03*
X141822000Y-118126000I-50000J0D01*
G01*
X141822000Y-118126000D02*
G75*
G03*
X141922000Y-118126000I50000J0D01*
G01*
D14*
X175672000Y-123711000D02*
X175802000Y-123711000D01*
X178612000Y-118271000D02*
X178612000Y-123711000D01*
X175672000Y-118271000D02*
X175672000Y-123711000D01*
X178612000Y-119171000D02*
X175672000Y-119171000D01*
X178612000Y-119291000D02*
X175672000Y-119291000D01*
X178482000Y-118271000D02*
X178612000Y-118271000D01*
X178612000Y-123711000D02*
X178482000Y-123711000D01*
X175802000Y-118271000D02*
X175672000Y-118271000D01*
X178612000Y-119051000D02*
X175672000Y-119051000D01*
X162642000Y-132000000D02*
X162642000Y-135840000D01*
X164482000Y-132000000D02*
X164482000Y-135840000D01*
X194792000Y-107885000D02*
G75*
G03*
X194792000Y-107885000I-3270000J0D01*
G01*
X145222000Y-115624700D02*
X145222000Y-118864700D01*
X145222000Y-115624700D02*
X145157000Y-115624700D01*
X143047000Y-118864700D02*
X142982000Y-118864700D01*
X145222000Y-118864700D02*
X145157000Y-118864700D01*
X142982000Y-115624700D02*
X142982000Y-118864700D01*
X143047000Y-115624700D02*
X142982000Y-115624700D01*
X196507000Y-60351000D02*
X196507000Y-59601000D01*
X185707000Y-60351000D02*
X185707000Y-59601000D01*
X195757000Y-64801000D02*
X190207000Y-64801000D01*
X196507000Y-59601000D02*
X194707000Y-59601000D01*
X184657000Y-64801000D02*
X190207000Y-64801000D01*
X185707000Y-59601000D02*
X183907000Y-59601000D01*
X183907000Y-60351000D02*
X185707000Y-60351000D01*
X196507000Y-61851000D02*
X195757000Y-61851000D01*
X193207000Y-59601000D02*
X187207000Y-59601000D01*
X194707000Y-60351000D02*
X196507000Y-60351000D01*
X194707000Y-59601000D02*
X194707000Y-60351000D01*
X196517000Y-59591000D02*
X183897000Y-59591000D01*
X184657000Y-61851000D02*
X184657000Y-64801000D01*
X193207000Y-60351000D02*
X193207000Y-59601000D01*
X183607000Y-59301000D02*
X183607000Y-60551000D01*
X187207000Y-60351000D02*
X193207000Y-60351000D01*
X184857000Y-59301000D02*
X183607000Y-59301000D01*
X196517000Y-65561000D02*
X196517000Y-59591000D01*
X183907000Y-61851000D02*
X184657000Y-61851000D01*
X195757000Y-61851000D02*
X195757000Y-64801000D01*
X187207000Y-59601000D02*
X187207000Y-60351000D01*
X183897000Y-65561000D02*
X196517000Y-65561000D01*
X183907000Y-59601000D02*
X183907000Y-60351000D01*
X183897000Y-59591000D02*
X183897000Y-65561000D01*
X229217000Y-129099700D02*
X229217000Y-129164700D01*
X225977000Y-131274700D02*
X225977000Y-131339700D01*
X229217000Y-131274700D02*
X229217000Y-131339700D01*
X225977000Y-131339700D02*
X229217000Y-131339700D01*
X225977000Y-129099700D02*
X225977000Y-129164700D01*
X225977000Y-129099700D02*
X229217000Y-129099700D01*
X224092000Y-58296000D02*
X228592000Y-58296000D01*
X229842000Y-55796000D02*
X229842000Y-54296000D01*
X222842000Y-54296000D02*
X222842000Y-55796000D01*
X228592000Y-51796000D02*
X224092000Y-51796000D01*
X212370000Y-134216000D02*
X212370000Y-135716000D01*
X218120000Y-131716000D02*
X213620000Y-131716000D01*
X219370000Y-135716000D02*
X219370000Y-134216000D01*
X213620000Y-138216000D02*
X218120000Y-138216000D01*
X184962000Y-119291000D02*
X182022000Y-119291000D01*
X182022000Y-118271000D02*
X182022000Y-123711000D01*
X184962000Y-119171000D02*
X182022000Y-119171000D01*
X184962000Y-119051000D02*
X182022000Y-119051000D01*
X182152000Y-118271000D02*
X182022000Y-118271000D01*
X184832000Y-118271000D02*
X184962000Y-118271000D01*
X184962000Y-123711000D02*
X184832000Y-123711000D01*
X184962000Y-118271000D02*
X184962000Y-123711000D01*
X182022000Y-123711000D02*
X182152000Y-123711000D01*
X196587000Y-131189700D02*
X236587000Y-131189700D01*
X236587000Y-131189700D02*
X236587000Y-108189700D01*
X236587000Y-108189700D02*
X196587000Y-108189700D01*
X196587000Y-108189700D02*
X196587000Y-131189700D01*
D16*
X235587000Y-110689700D02*
G75*
G03*
X235587000Y-110689700I-1500000J0D01*
G01*
X235587000Y-128689700D02*
G75*
G03*
X235587000Y-128689700I-1500000J0D01*
G01*
D14*
X224112000Y-134216000D02*
X224112000Y-135716000D01*
X229862000Y-131716000D02*
X225362000Y-131716000D01*
X225362000Y-138216000D02*
X229862000Y-138216000D01*
X231112000Y-135716000D02*
X231112000Y-134216000D01*
X204782000Y-61821000D02*
X204782000Y-61071000D01*
X197172000Y-61061000D02*
X197172000Y-67031000D01*
X198982000Y-61071000D02*
X197182000Y-61071000D01*
X200482000Y-61821000D02*
X201482000Y-61821000D01*
X198132000Y-60771000D02*
X196882000Y-60771000D01*
X198982000Y-61821000D02*
X198982000Y-61071000D01*
X200482000Y-61071000D02*
X200482000Y-61821000D01*
X197182000Y-61821000D02*
X198982000Y-61821000D01*
X196882000Y-60771000D02*
X196882000Y-62021000D01*
X204782000Y-63321000D02*
X204032000Y-63321000D01*
X204792000Y-61061000D02*
X197172000Y-61061000D01*
X204032000Y-63321000D02*
X204032000Y-66271000D01*
X204792000Y-67031000D02*
X204792000Y-61061000D01*
X204782000Y-61071000D02*
X202982000Y-61071000D01*
X201482000Y-61071000D02*
X200482000Y-61071000D01*
X204032000Y-66271000D02*
X200982000Y-66271000D01*
X201482000Y-61821000D02*
X201482000Y-61071000D01*
X202982000Y-61821000D02*
X204782000Y-61821000D01*
X197932000Y-66271000D02*
X200982000Y-66271000D01*
X197932000Y-63321000D02*
X197932000Y-66271000D01*
X202982000Y-61071000D02*
X202982000Y-61821000D01*
X197182000Y-61071000D02*
X197182000Y-61821000D01*
X197172000Y-67031000D02*
X204792000Y-67031000D01*
X197182000Y-63321000D02*
X197932000Y-63321000D01*
X184267000Y-135601000D02*
X184267000Y-138551000D01*
X172407000Y-133341000D02*
X172407000Y-139311000D01*
X185017000Y-134101000D02*
X185017000Y-133351000D01*
X175717000Y-133351000D02*
X175717000Y-134101000D01*
X172407000Y-139311000D02*
X185027000Y-139311000D01*
X173167000Y-138551000D02*
X178717000Y-138551000D01*
X184267000Y-138551000D02*
X178717000Y-138551000D01*
X181717000Y-134101000D02*
X181717000Y-133351000D01*
X185017000Y-133351000D02*
X183217000Y-133351000D01*
X173367000Y-133051000D02*
X172117000Y-133051000D01*
X172117000Y-133051000D02*
X172117000Y-134301000D01*
X174217000Y-134101000D02*
X174217000Y-133351000D01*
X181717000Y-133351000D02*
X175717000Y-133351000D01*
X175717000Y-134101000D02*
X181717000Y-134101000D01*
X172417000Y-135601000D02*
X173167000Y-135601000D01*
X185027000Y-133341000D02*
X172407000Y-133341000D01*
X172417000Y-134101000D02*
X174217000Y-134101000D01*
X183217000Y-134101000D02*
X185017000Y-134101000D01*
X172417000Y-133351000D02*
X172417000Y-134101000D01*
X185017000Y-135601000D02*
X184267000Y-135601000D01*
X173167000Y-135601000D02*
X173167000Y-138551000D01*
X183217000Y-133351000D02*
X183217000Y-134101000D01*
X174217000Y-133351000D02*
X172417000Y-133351000D01*
X185027000Y-139311000D02*
X185027000Y-133341000D01*
X202182000Y-126059700D02*
X206022000Y-126059700D01*
X202182000Y-124219700D02*
X206022000Y-124219700D01*
X173002000Y-59147000D02*
X208562000Y-59147000D01*
X173002000Y-103597000D02*
X173002000Y-59147000D01*
X190782000Y-103597000D02*
X173002000Y-103597000D01*
X190782000Y-103597000D02*
X190782000Y-59097000D01*
X208782000Y-95597000D02*
X172782000Y-95597000D01*
X208562000Y-59147000D02*
X208562000Y-103597000D01*
X208562000Y-103597000D02*
X190782000Y-103597000D01*
X177804000Y-100295000D02*
G75*
G03*
X177804000Y-100295000I-1500000J0D01*
G01*
X198282000Y-95597000D02*
G75*
G03*
X198282000Y-95597000I-7500000J0D01*
G01*
X206760000Y-100295000D02*
G75*
G03*
X206760000Y-100295000I-1500000J0D01*
G01*
X201620000Y-138216000D02*
X206120000Y-138216000D01*
X200370000Y-134216000D02*
X200370000Y-135716000D01*
X207370000Y-135716000D02*
X207370000Y-134216000D01*
X206120000Y-131716000D02*
X201620000Y-131716000D01*
D15*
X155932000Y-145524700D02*
X155932000Y-145524700D01*
D13*
X161572000Y-147049700D02*
X161572000Y-138919700D01*
X156492000Y-147049700D02*
X161572000Y-147049700D01*
X161572000Y-138919700D02*
X156492000Y-138919700D01*
D15*
X156032000Y-145524700D02*
X156032000Y-145524700D01*
D13*
X156492000Y-138919700D02*
X156492000Y-147049700D01*
D15*
X155932000Y-145524700D02*
X155932000Y-145524700D01*
X155932000Y-145524700D02*
G75*
G03*
X156032000Y-145524700I50000J0D01*
G01*
X155932000Y-145524700D02*
G75*
G03*
X156032000Y-145524700I50000J0D01*
G01*
X156032000Y-145524700D02*
G75*
G03*
X155932000Y-145524700I-50000J0D01*
G01*
D17*
X170462000Y-60672000D03*
X170462000Y-63212000D03*
X170462000Y-65752000D03*
X139302000Y-132484700D03*
X139302000Y-129944700D03*
X139302000Y-127404700D03*
X151412000Y-60672000D03*
X151412000Y-63212000D03*
X151412000Y-65752000D03*
X159032000Y-145524700D03*
X159032000Y-142984700D03*
X159032000Y-140444700D03*
%LPC*%
D18*
X242260576Y-113504867D02*
X240760576Y-113504867D01*
X242260576Y-112862010D02*
X241474862Y-112862010D01*
X241332005Y-112933438D01*
X241260576Y-113076295D01*
X241260576Y-113290581D01*
X241332005Y-113433438D01*
X241403433Y-113504867D01*
X241260576Y-112362010D02*
X241260576Y-111790581D01*
X240760576Y-112147724D02*
X242046290Y-112147724D01*
X242189147Y-112076295D01*
X242260576Y-111933438D01*
X242260576Y-111790581D01*
X241260576Y-111504867D02*
X241260576Y-110933438D01*
X240760576Y-111290581D02*
X242046290Y-111290581D01*
X242189147Y-111219152D01*
X242260576Y-111076295D01*
X242260576Y-110933438D01*
X241260576Y-110433438D02*
X242760576Y-110433438D01*
X241332005Y-110433438D02*
X241260576Y-110290581D01*
X241260576Y-110004867D01*
X241332005Y-109862010D01*
X241403433Y-109790581D01*
X241546290Y-109719152D01*
X241974862Y-109719152D01*
X242117719Y-109790581D01*
X242189147Y-109862010D01*
X242260576Y-110004867D01*
X242260576Y-110290581D01*
X242189147Y-110433438D01*
X242189147Y-109147724D02*
X242260576Y-109004867D01*
X242260576Y-108719152D01*
X242189147Y-108576295D01*
X242046290Y-108504867D01*
X241974862Y-108504867D01*
X241832005Y-108576295D01*
X241760576Y-108719152D01*
X241760576Y-108933438D01*
X241689147Y-109076295D01*
X241546290Y-109147724D01*
X241474862Y-109147724D01*
X241332005Y-109076295D01*
X241260576Y-108933438D01*
X241260576Y-108719152D01*
X241332005Y-108576295D01*
X242117719Y-107862010D02*
X242189147Y-107790581D01*
X242260576Y-107862010D01*
X242189147Y-107933438D01*
X242117719Y-107862010D01*
X242260576Y-107862010D01*
X241332005Y-107862010D02*
X241403433Y-107790581D01*
X241474862Y-107862010D01*
X241403433Y-107933438D01*
X241332005Y-107862010D01*
X241474862Y-107862010D01*
X240689147Y-106076295D02*
X242617719Y-107362010D01*
X240689147Y-104504867D02*
X242617719Y-105790581D01*
X241260576Y-103362010D02*
X242474862Y-103362010D01*
X242617719Y-103433438D01*
X242689147Y-103504867D01*
X242760576Y-103647724D01*
X242760576Y-103862010D01*
X242689147Y-104004867D01*
X242189147Y-103362010D02*
X242260576Y-103504867D01*
X242260576Y-103790581D01*
X242189147Y-103933438D01*
X242117719Y-104004867D01*
X241974862Y-104076295D01*
X241546290Y-104076295D01*
X241403433Y-104004867D01*
X241332005Y-103933438D01*
X241260576Y-103790581D01*
X241260576Y-103504867D01*
X241332005Y-103362010D01*
X242260576Y-102647724D02*
X241260576Y-102647724D01*
X240760576Y-102647724D02*
X240832005Y-102719152D01*
X240903433Y-102647724D01*
X240832005Y-102576295D01*
X240760576Y-102647724D01*
X240903433Y-102647724D01*
X241260576Y-102147724D02*
X241260576Y-101576295D01*
X240760576Y-101933438D02*
X242046290Y-101933438D01*
X242189147Y-101862010D01*
X242260576Y-101719152D01*
X242260576Y-101576295D01*
X242260576Y-101076295D02*
X240760576Y-101076295D01*
X242260576Y-100433438D02*
X241474862Y-100433438D01*
X241332005Y-100504867D01*
X241260576Y-100647724D01*
X241260576Y-100862010D01*
X241332005Y-101004867D01*
X241403433Y-101076295D01*
X241260576Y-99076295D02*
X242260576Y-99076295D01*
X241260576Y-99719152D02*
X242046290Y-99719152D01*
X242189147Y-99647724D01*
X242260576Y-99504867D01*
X242260576Y-99290581D01*
X242189147Y-99147724D01*
X242117719Y-99076295D01*
X242260576Y-98362010D02*
X240760576Y-98362010D01*
X241332005Y-98362010D02*
X241260576Y-98219152D01*
X241260576Y-97933438D01*
X241332005Y-97790581D01*
X241403433Y-97719152D01*
X241546290Y-97647724D01*
X241974862Y-97647724D01*
X242117719Y-97719152D01*
X242189147Y-97790581D01*
X242260576Y-97933438D01*
X242260576Y-98219152D01*
X242189147Y-98362010D01*
X242117719Y-97004867D02*
X242189147Y-96933438D01*
X242260576Y-97004867D01*
X242189147Y-97076295D01*
X242117719Y-97004867D01*
X242260576Y-97004867D01*
X242189147Y-95647724D02*
X242260576Y-95790581D01*
X242260576Y-96076295D01*
X242189147Y-96219152D01*
X242117719Y-96290581D01*
X241974862Y-96362010D01*
X241546290Y-96362010D01*
X241403433Y-96290581D01*
X241332005Y-96219152D01*
X241260576Y-96076295D01*
X241260576Y-95790581D01*
X241332005Y-95647724D01*
X242260576Y-94790581D02*
X242189147Y-94933438D01*
X242117719Y-95004867D01*
X241974862Y-95076295D01*
X241546290Y-95076295D01*
X241403433Y-95004867D01*
X241332005Y-94933438D01*
X241260576Y-94790581D01*
X241260576Y-94576295D01*
X241332005Y-94433438D01*
X241403433Y-94362010D01*
X241546290Y-94290581D01*
X241974862Y-94290581D01*
X242117719Y-94362010D01*
X242189147Y-94433438D01*
X242260576Y-94576295D01*
X242260576Y-94790581D01*
X242260576Y-93647724D02*
X241260576Y-93647724D01*
X241403433Y-93647724D02*
X241332005Y-93576295D01*
X241260576Y-93433438D01*
X241260576Y-93219152D01*
X241332005Y-93076295D01*
X241474862Y-93004867D01*
X242260576Y-93004867D01*
X241474862Y-93004867D02*
X241332005Y-92933438D01*
X241260576Y-92790581D01*
X241260576Y-92576295D01*
X241332005Y-92433438D01*
X241474862Y-92362010D01*
X242260576Y-92362010D01*
X240689147Y-90576295D02*
X242617719Y-91862010D01*
X242260576Y-90076295D02*
X240760576Y-90076295D01*
X241832005Y-89576295D01*
X240760576Y-89076295D01*
X242260576Y-89076295D01*
X240760576Y-88362010D02*
X241974862Y-88362010D01*
X242117719Y-88290581D01*
X242189147Y-88219152D01*
X242260576Y-88076295D01*
X242260576Y-87790581D01*
X242189147Y-87647724D01*
X242117719Y-87576295D01*
X241974862Y-87504867D01*
X240760576Y-87504867D01*
X242260576Y-86790581D02*
X240760576Y-86790581D01*
X242260576Y-85933438D01*
X240760576Y-85933438D01*
X241832005Y-85290581D02*
X241832005Y-84576295D01*
X242260576Y-85433438D02*
X240760576Y-84933438D01*
X242260576Y-84433438D01*
X242260576Y-83933438D02*
X240760576Y-83933438D01*
X242260576Y-83076295D02*
X241403433Y-83719152D01*
X240760576Y-83076295D02*
X241617719Y-83933438D01*
X241832005Y-82504867D02*
X241832005Y-81790581D01*
X242260576Y-82647724D02*
X240760576Y-82147724D01*
X242260576Y-81647724D01*
X240760576Y-81362010D02*
X240760576Y-80504867D01*
X242260576Y-80933438D02*
X240760576Y-80933438D01*
X241832005Y-80076295D02*
X241832005Y-79362010D01*
X242260576Y-80219152D02*
X240760576Y-79719152D01*
X242260576Y-79219152D01*
X241689147Y-78719152D02*
X241689147Y-77576295D01*
X241474862Y-76862010D02*
X241474862Y-76362010D01*
X242260576Y-76147724D02*
X242260576Y-76862010D01*
X240760576Y-76862010D01*
X240760576Y-76147724D01*
X242260576Y-75504867D02*
X240760576Y-75504867D01*
X240760576Y-74933438D01*
X240832005Y-74790581D01*
X240903433Y-74719152D01*
X241046290Y-74647724D01*
X241260576Y-74647724D01*
X241403433Y-74719152D01*
X241474862Y-74790581D01*
X241546290Y-74933438D01*
X241546290Y-75504867D01*
X242117719Y-73147724D02*
X242189147Y-73219152D01*
X242260576Y-73433438D01*
X242260576Y-73576295D01*
X242189147Y-73790581D01*
X242046290Y-73933438D01*
X241903433Y-74004867D01*
X241617719Y-74076295D01*
X241403433Y-74076295D01*
X241117719Y-74004867D01*
X240974862Y-73933438D01*
X240832005Y-73790581D01*
X240760576Y-73576295D01*
X240760576Y-73433438D01*
X240832005Y-73219152D01*
X240903433Y-73147724D01*
X144258433Y-74626295D02*
X145758433Y-74626295D01*
X144687005Y-75126295D01*
X145758433Y-75626295D01*
X144258433Y-75626295D01*
X144258433Y-76983438D02*
X145044147Y-76983438D01*
X145187005Y-76912010D01*
X145258433Y-76769152D01*
X145258433Y-76483438D01*
X145187005Y-76340581D01*
X144329862Y-76983438D02*
X144258433Y-76840581D01*
X144258433Y-76483438D01*
X144329862Y-76340581D01*
X144472719Y-76269152D01*
X144615576Y-76269152D01*
X144758433Y-76340581D01*
X144829862Y-76483438D01*
X144829862Y-76840581D01*
X144901290Y-76983438D01*
X144258433Y-77697724D02*
X145258433Y-77697724D01*
X145758433Y-77697724D02*
X145687005Y-77626295D01*
X145615576Y-77697724D01*
X145687005Y-77769152D01*
X145758433Y-77697724D01*
X145615576Y-77697724D01*
X145258433Y-78412010D02*
X144258433Y-78412010D01*
X145115576Y-78412010D02*
X145187005Y-78483438D01*
X145258433Y-78626295D01*
X145258433Y-78840581D01*
X145187005Y-78983438D01*
X145044147Y-79054867D01*
X144258433Y-79054867D01*
X144115576Y-79412010D02*
X144115576Y-80554867D01*
X145044147Y-81412010D02*
X144972719Y-81626295D01*
X144901290Y-81697724D01*
X144758433Y-81769152D01*
X144544147Y-81769152D01*
X144401290Y-81697724D01*
X144329862Y-81626295D01*
X144258433Y-81483438D01*
X144258433Y-80912010D01*
X145758433Y-80912010D01*
X145758433Y-81412010D01*
X145687005Y-81554867D01*
X145615576Y-81626295D01*
X145472719Y-81697724D01*
X145329862Y-81697724D01*
X145187005Y-81626295D01*
X145115576Y-81554867D01*
X145044147Y-81412010D01*
X145044147Y-80912010D01*
X144258433Y-82626295D02*
X144329862Y-82483438D01*
X144401290Y-82412010D01*
X144544147Y-82340581D01*
X144972719Y-82340581D01*
X145115576Y-82412010D01*
X145187005Y-82483438D01*
X145258433Y-82626295D01*
X145258433Y-82840581D01*
X145187005Y-82983438D01*
X145115576Y-83054867D01*
X144972719Y-83126295D01*
X144544147Y-83126295D01*
X144401290Y-83054867D01*
X144329862Y-82983438D01*
X144258433Y-82840581D01*
X144258433Y-82626295D01*
X144258433Y-84412010D02*
X145044147Y-84412010D01*
X145187005Y-84340581D01*
X145258433Y-84197724D01*
X145258433Y-83912010D01*
X145187005Y-83769152D01*
X144329862Y-84412010D02*
X144258433Y-84269152D01*
X144258433Y-83912010D01*
X144329862Y-83769152D01*
X144472719Y-83697724D01*
X144615576Y-83697724D01*
X144758433Y-83769152D01*
X144829862Y-83912010D01*
X144829862Y-84269152D01*
X144901290Y-84412010D01*
X144258433Y-85126295D02*
X145258433Y-85126295D01*
X144972719Y-85126295D02*
X145115576Y-85197724D01*
X145187005Y-85269152D01*
X145258433Y-85412010D01*
X145258433Y-85554867D01*
X144258433Y-86697724D02*
X145758433Y-86697724D01*
X144329862Y-86697724D02*
X144258433Y-86554867D01*
X144258433Y-86269152D01*
X144329862Y-86126295D01*
X144401290Y-86054867D01*
X144544147Y-85983438D01*
X144972719Y-85983438D01*
X145115576Y-86054867D01*
X145187005Y-86126295D01*
X145258433Y-86269152D01*
X145258433Y-86554867D01*
X145187005Y-86697724D01*
X143343433Y-75840581D02*
X141843433Y-76340581D01*
X143343433Y-76840581D01*
X141914862Y-77912010D02*
X141843433Y-77769152D01*
X141843433Y-77483438D01*
X141914862Y-77340581D01*
X142057719Y-77269152D01*
X142629147Y-77269152D01*
X142772005Y-77340581D01*
X142843433Y-77483438D01*
X142843433Y-77769152D01*
X142772005Y-77912010D01*
X142629147Y-77983438D01*
X142486290Y-77983438D01*
X142343433Y-77269152D01*
X141843433Y-78626295D02*
X142843433Y-78626295D01*
X142557719Y-78626295D02*
X142700576Y-78697724D01*
X142772005Y-78769152D01*
X142843433Y-78912010D01*
X142843433Y-79054867D01*
X141986290Y-79554867D02*
X141914862Y-79626295D01*
X141843433Y-79554867D01*
X141914862Y-79483438D01*
X141986290Y-79554867D01*
X141843433Y-79554867D01*
X143200576Y-80197724D02*
X143272005Y-80269152D01*
X143343433Y-80412010D01*
X143343433Y-80769152D01*
X143272005Y-80912010D01*
X143200576Y-80983438D01*
X143057719Y-81054867D01*
X142914862Y-81054867D01*
X142700576Y-80983438D01*
X141843433Y-80126295D01*
X141843433Y-81054867D01*
X143343433Y-81983438D02*
X143343433Y-82126295D01*
X143272005Y-82269152D01*
X143200576Y-82340581D01*
X143057719Y-82412010D01*
X142772005Y-82483438D01*
X142414862Y-82483438D01*
X142129147Y-82412010D01*
X141986290Y-82340581D01*
X141914862Y-82269152D01*
X141843433Y-82126295D01*
X141843433Y-81983438D01*
X141914862Y-81840581D01*
X141986290Y-81769152D01*
X142129147Y-81697724D01*
X142414862Y-81626295D01*
X142772005Y-81626295D01*
X143057719Y-81697724D01*
X143200576Y-81769152D01*
X143272005Y-81840581D01*
X143343433Y-81983438D01*
X143200576Y-83054867D02*
X143272005Y-83126295D01*
X143343433Y-83269152D01*
X143343433Y-83626295D01*
X143272005Y-83769152D01*
X143200576Y-83840581D01*
X143057719Y-83912010D01*
X142914862Y-83912010D01*
X142700576Y-83840581D01*
X141843433Y-82983438D01*
X141843433Y-83912010D01*
X143200576Y-84483438D02*
X143272005Y-84554867D01*
X143343433Y-84697724D01*
X143343433Y-85054867D01*
X143272005Y-85197724D01*
X143200576Y-85269152D01*
X143057719Y-85340581D01*
X142914862Y-85340581D01*
X142700576Y-85269152D01*
X141843433Y-84412010D01*
X141843433Y-85340581D01*
X139428433Y-71233438D02*
X140928433Y-71233438D01*
X140928433Y-71590581D01*
X140857005Y-71804867D01*
X140714147Y-71947724D01*
X140571290Y-72019152D01*
X140285576Y-72090581D01*
X140071290Y-72090581D01*
X139785576Y-72019152D01*
X139642719Y-71947724D01*
X139499862Y-71804867D01*
X139428433Y-71590581D01*
X139428433Y-71233438D01*
X139499862Y-73304867D02*
X139428433Y-73162010D01*
X139428433Y-72876295D01*
X139499862Y-72733438D01*
X139642719Y-72662010D01*
X140214147Y-72662010D01*
X140357005Y-72733438D01*
X140428433Y-72876295D01*
X140428433Y-73162010D01*
X140357005Y-73304867D01*
X140214147Y-73376295D01*
X140071290Y-73376295D01*
X139928433Y-72662010D01*
X139499862Y-73947724D02*
X139428433Y-74090581D01*
X139428433Y-74376295D01*
X139499862Y-74519152D01*
X139642719Y-74590581D01*
X139714147Y-74590581D01*
X139857005Y-74519152D01*
X139928433Y-74376295D01*
X139928433Y-74162010D01*
X139999862Y-74019152D01*
X140142719Y-73947724D01*
X140214147Y-73947724D01*
X140357005Y-74019152D01*
X140428433Y-74162010D01*
X140428433Y-74376295D01*
X140357005Y-74519152D01*
X139428433Y-75233438D02*
X140428433Y-75233438D01*
X140928433Y-75233438D02*
X140857005Y-75162010D01*
X140785576Y-75233438D01*
X140857005Y-75304867D01*
X140928433Y-75233438D01*
X140785576Y-75233438D01*
X140428433Y-76590581D02*
X139214147Y-76590581D01*
X139071290Y-76519152D01*
X138999862Y-76447724D01*
X138928433Y-76304867D01*
X138928433Y-76090581D01*
X138999862Y-75947724D01*
X139499862Y-76590581D02*
X139428433Y-76447724D01*
X139428433Y-76162010D01*
X139499862Y-76019152D01*
X139571290Y-75947724D01*
X139714147Y-75876295D01*
X140142719Y-75876295D01*
X140285576Y-75947724D01*
X140357005Y-76019152D01*
X140428433Y-76162010D01*
X140428433Y-76447724D01*
X140357005Y-76590581D01*
X140428433Y-77304867D02*
X139428433Y-77304867D01*
X140285576Y-77304867D02*
X140357005Y-77376295D01*
X140428433Y-77519152D01*
X140428433Y-77733438D01*
X140357005Y-77876295D01*
X140214147Y-77947724D01*
X139428433Y-77947724D01*
X139499862Y-79233438D02*
X139428433Y-79090581D01*
X139428433Y-78804867D01*
X139499862Y-78662010D01*
X139642719Y-78590581D01*
X140214147Y-78590581D01*
X140357005Y-78662010D01*
X140428433Y-78804867D01*
X140428433Y-79090581D01*
X140357005Y-79233438D01*
X140214147Y-79304867D01*
X140071290Y-79304867D01*
X139928433Y-78590581D01*
X139428433Y-80590581D02*
X140928433Y-80590581D01*
X139499862Y-80590581D02*
X139428433Y-80447724D01*
X139428433Y-80162010D01*
X139499862Y-80019152D01*
X139571290Y-79947724D01*
X139714147Y-79876295D01*
X140142719Y-79876295D01*
X140285576Y-79947724D01*
X140357005Y-80019152D01*
X140428433Y-80162010D01*
X140428433Y-80447724D01*
X140357005Y-80590581D01*
X139428433Y-82447724D02*
X140928433Y-82447724D01*
X140357005Y-82447724D02*
X140428433Y-82590581D01*
X140428433Y-82876295D01*
X140357005Y-83019152D01*
X140285576Y-83090581D01*
X140142719Y-83162010D01*
X139714147Y-83162010D01*
X139571290Y-83090581D01*
X139499862Y-83019152D01*
X139428433Y-82876295D01*
X139428433Y-82590581D01*
X139499862Y-82447724D01*
X140428433Y-83662010D02*
X139428433Y-84019152D01*
X140428433Y-84376295D02*
X139428433Y-84019152D01*
X139071290Y-83876295D01*
X138999862Y-83804867D01*
X138928433Y-83662010D01*
X139428433Y-86090581D02*
X140928433Y-86090581D01*
X139428433Y-86947724D02*
X140285576Y-86304867D01*
X140928433Y-86947724D02*
X140071290Y-86090581D01*
X139428433Y-87590581D02*
X140428433Y-87590581D01*
X140928433Y-87590581D02*
X140857005Y-87519152D01*
X140785576Y-87590581D01*
X140857005Y-87662010D01*
X140928433Y-87590581D01*
X140785576Y-87590581D01*
X140428433Y-88162010D02*
X139428433Y-88519152D01*
X140428433Y-88876295D02*
X139428433Y-88519152D01*
X139071290Y-88376295D01*
X138999862Y-88304867D01*
X138928433Y-88162010D01*
X139428433Y-89662010D02*
X139499862Y-89519152D01*
X139571290Y-89447724D01*
X139714147Y-89376295D01*
X140142719Y-89376295D01*
X140285576Y-89447724D01*
X140357005Y-89519152D01*
X140428433Y-89662010D01*
X140428433Y-89876295D01*
X140357005Y-90019152D01*
X140285576Y-90090581D01*
X140142719Y-90162010D01*
X139714147Y-90162010D01*
X139571290Y-90090581D01*
X139499862Y-90019152D01*
X139428433Y-89876295D01*
X139428433Y-89662010D01*
X177877243Y-153404612D02*
X177877243Y-151404612D01*
X178543909Y-152833184D01*
X179210576Y-151404612D01*
X179210576Y-153404612D01*
X180162957Y-151404612D02*
X180162957Y-153023660D01*
X180258195Y-153214136D01*
X180353433Y-153309374D01*
X180543909Y-153404612D01*
X180924862Y-153404612D01*
X181115338Y-153309374D01*
X181210576Y-153214136D01*
X181305814Y-153023660D01*
X181305814Y-151404612D01*
X182258195Y-153404612D02*
X182258195Y-151404612D01*
X183401052Y-153404612D01*
X183401052Y-151404612D01*
X184258195Y-152833184D02*
X185210576Y-152833184D01*
X184067719Y-153404612D02*
X184734385Y-151404612D01*
X185401052Y-153404612D01*
X186067719Y-153404612D02*
X186067719Y-151404612D01*
X187210576Y-153404612D02*
X186353433Y-152261755D01*
X187210576Y-151404612D02*
X186067719Y-152547470D01*
X188448671Y-151404612D02*
X188829624Y-151404612D01*
X189020100Y-151499851D01*
X189210576Y-151690327D01*
X189305814Y-152071279D01*
X189305814Y-152737946D01*
X189210576Y-153118898D01*
X189020100Y-153309374D01*
X188829624Y-153404612D01*
X188448671Y-153404612D01*
X188258195Y-153309374D01*
X188067719Y-153118898D01*
X187972481Y-152737946D01*
X187972481Y-152071279D01*
X188067719Y-151690327D01*
X188258195Y-151499851D01*
X188448671Y-151404612D01*
X189686766Y-153595089D02*
X191210576Y-153595089D01*
X191686766Y-153404612D02*
X191686766Y-151404612D01*
X191686766Y-152356993D02*
X192829624Y-152356993D01*
X192829624Y-153404612D02*
X192829624Y-151404612D01*
X194543909Y-153309374D02*
X194353433Y-153404612D01*
X193972481Y-153404612D01*
X193782005Y-153309374D01*
X193686766Y-153118898D01*
X193686766Y-152356993D01*
X193782005Y-152166517D01*
X193972481Y-152071279D01*
X194353433Y-152071279D01*
X194543909Y-152166517D01*
X194639147Y-152356993D01*
X194639147Y-152547470D01*
X193686766Y-152737946D01*
X195496290Y-153404612D02*
X195496290Y-152071279D01*
X195496290Y-152452231D02*
X195591528Y-152261755D01*
X195686766Y-152166517D01*
X195877243Y-152071279D01*
X196067719Y-152071279D01*
X197591528Y-153309374D02*
X197401052Y-153404612D01*
X197020100Y-153404612D01*
X196829624Y-153309374D01*
X196734385Y-153214136D01*
X196639147Y-153023660D01*
X196639147Y-152452231D01*
X196734385Y-152261755D01*
X196829624Y-152166517D01*
X197020100Y-152071279D01*
X197401052Y-152071279D01*
X197591528Y-152166517D01*
X199305814Y-152071279D02*
X199305814Y-153404612D01*
X198448671Y-152071279D02*
X198448671Y-153118898D01*
X198543909Y-153309374D01*
X198734385Y-153404612D01*
X199020100Y-153404612D01*
X199210576Y-153309374D01*
X199305814Y-153214136D01*
X200543909Y-153404612D02*
X200353433Y-153309374D01*
X200258195Y-153118898D01*
X200258195Y-151404612D01*
X202067719Y-153309374D02*
X201877243Y-153404612D01*
X201496290Y-153404612D01*
X201305814Y-153309374D01*
X201210576Y-153118898D01*
X201210576Y-152356993D01*
X201305814Y-152166517D01*
X201496290Y-152071279D01*
X201877243Y-152071279D01*
X202067719Y-152166517D01*
X202162957Y-152356993D01*
X202162957Y-152547470D01*
X201210576Y-152737946D01*
X202924862Y-153309374D02*
X203115338Y-153404612D01*
X203496290Y-153404612D01*
X203686766Y-153309374D01*
X203782005Y-153118898D01*
X203782005Y-153023660D01*
X203686766Y-152833184D01*
X203496290Y-152737946D01*
X203210576Y-152737946D01*
X203020100Y-152642708D01*
X202924862Y-152452231D01*
X202924862Y-152356993D01*
X203020100Y-152166517D01*
X203210576Y-152071279D01*
X203496290Y-152071279D01*
X203686766Y-152166517D01*
D19*
X158782000Y-133984700D03*
X158782000Y-131484700D03*
X220627000Y-62654700D03*
X220627000Y-65154700D03*
D20*
X180317000Y-117181000D03*
D21*
X180317000Y-124801000D03*
D22*
X213627000Y-125139700D03*
D23*
X218707000Y-125139700D03*
D19*
X201122000Y-84001000D03*
X198622000Y-84001000D03*
D24*
X157127000Y-89247000D03*
X159667000Y-89247000D03*
X162207000Y-89247000D03*
X164747000Y-89247000D03*
X167287000Y-89247000D03*
X169827000Y-89247000D03*
X169827000Y-99407000D03*
X167287000Y-99407000D03*
X164747000Y-99407000D03*
X162207000Y-99407000D03*
X159667000Y-99407000D03*
X157127000Y-99407000D03*
D20*
X173967000Y-117181000D03*
D21*
X173967000Y-124801000D03*
D25*
X198347000Y-89842000D03*
X183027000Y-89842000D03*
D26*
X199577000Y-102582000D03*
X197037000Y-102582000D03*
X194497000Y-102582000D03*
X191957000Y-102582000D03*
X189417000Y-102582000D03*
X186877000Y-102582000D03*
X184337000Y-102582000D03*
X181797000Y-102582000D03*
D27*
X231932000Y-87734700D03*
D28*
X231932000Y-90234700D03*
X231932000Y-92734700D03*
X231932000Y-95234700D03*
D27*
X150777000Y-70832000D03*
D28*
X150777000Y-73332000D03*
X150777000Y-75832000D03*
D29*
X157187000Y-62052000D03*
D30*
X159687000Y-62052000D03*
X162187000Y-62052000D03*
X164687000Y-62052000D03*
D22*
X201662000Y-69150000D03*
D23*
X196582000Y-69150000D03*
D17*
X170462000Y-60672000D03*
X170462000Y-63212000D03*
X170462000Y-65752000D03*
D19*
X187302000Y-122324700D03*
X189802000Y-122324700D03*
D22*
X146642000Y-121054700D03*
D23*
X146642000Y-115974700D03*
D29*
X188302000Y-135711000D03*
D30*
X190802000Y-135711000D03*
X193302000Y-135711000D03*
X195802000Y-135711000D03*
D31*
X239352000Y-120419700D03*
D32*
X246952000Y-120419700D03*
D19*
X214917000Y-130219700D03*
X217417000Y-130219700D03*
D33*
X158702000Y-114714700D03*
D34*
X161242000Y-114714700D03*
X158702000Y-117254700D03*
X161242000Y-117254700D03*
X158702000Y-119794700D03*
X161242000Y-119794700D03*
X158702000Y-122334700D03*
X161242000Y-122334700D03*
D22*
X186422000Y-117410000D03*
D23*
X191502000Y-117410000D03*
D33*
X195182000Y-78917000D03*
D34*
X195182000Y-81457000D03*
X195182000Y-83997000D03*
D35*
X156782000Y-52596000D03*
D36*
X156782000Y-55096000D03*
D17*
X139302000Y-132484700D03*
X139302000Y-129944700D03*
X139302000Y-127404700D03*
X151412000Y-60672000D03*
X151412000Y-63212000D03*
X151412000Y-65752000D03*
D22*
X230152000Y-60761000D03*
D23*
X230152000Y-65841000D03*
D24*
X152682000Y-134839700D03*
X150142000Y-109439700D03*
X150142000Y-129759700D03*
X150142000Y-127219700D03*
X170462000Y-132299700D03*
X167922000Y-137379700D03*
X167922000Y-134839700D03*
X167922000Y-132299700D03*
X167922000Y-129759700D03*
X167922000Y-127219700D03*
X167922000Y-124679700D03*
X167922000Y-122139700D03*
X167922000Y-119599700D03*
X167922000Y-117059700D03*
X167922000Y-114519700D03*
X167922000Y-111979700D03*
X167922000Y-109439700D03*
X167922000Y-106899700D03*
X167922000Y-104359700D03*
X170462000Y-104359700D03*
X150142000Y-106899700D03*
X150142000Y-104359700D03*
X152682000Y-104359700D03*
X152682000Y-106899700D03*
X152682000Y-109439700D03*
X152682000Y-111979700D03*
X152682000Y-114519700D03*
X152682000Y-117059700D03*
X152682000Y-119599700D03*
X152682000Y-122139700D03*
X152682000Y-124679700D03*
X152682000Y-127219700D03*
X152682000Y-129759700D03*
X152682000Y-132299700D03*
X170462000Y-127219700D03*
X150142000Y-111979700D03*
X152682000Y-137379700D03*
X150142000Y-137379700D03*
X150142000Y-114519700D03*
X150142000Y-122139700D03*
X150142000Y-119599700D03*
X150142000Y-124679700D03*
X150142000Y-117059700D03*
X170462000Y-117059700D03*
X170462000Y-106899700D03*
X170462000Y-114519700D03*
X170462000Y-109439700D03*
X170462000Y-111979700D03*
X170462000Y-137379700D03*
X170462000Y-134839700D03*
X170462000Y-129759700D03*
X170462000Y-124679700D03*
X170462000Y-122139700D03*
X170462000Y-119599700D03*
X150142000Y-134839700D03*
X150142000Y-132299700D03*
D37*
X150267000Y-95234700D03*
D28*
X150267000Y-92734700D03*
X150267000Y-90234700D03*
X150267000Y-87734700D03*
D22*
X225057000Y-125139700D03*
D23*
X230137000Y-125139700D03*
D38*
X209072180Y-85579960D03*
D39*
X210452180Y-85579960D03*
X210452180Y-88119960D03*
D38*
X209072180Y-88119960D03*
X209072180Y-90659960D03*
D39*
X210452180Y-90659960D03*
X210452180Y-93199960D03*
D38*
X209072180Y-93199960D03*
X209072180Y-95739960D03*
D39*
X210452180Y-95739960D03*
X210452180Y-98279960D03*
D38*
X209072180Y-98279960D03*
X209072180Y-100819960D03*
D39*
X210452180Y-100819960D03*
D38*
X209072180Y-103359960D03*
D40*
X210452180Y-103359960D03*
D38*
X209072180Y-105899960D03*
D39*
X210452180Y-105899960D03*
D41*
X214261240Y-105899960D03*
D42*
X214262180Y-107279960D03*
X216802180Y-107279960D03*
D41*
X216803780Y-105899960D03*
D42*
X219342180Y-107279960D03*
D41*
X219343780Y-105899960D03*
D42*
X221882180Y-107279960D03*
D41*
X221883780Y-105899960D03*
D39*
X225692180Y-105899960D03*
D38*
X227072180Y-105899960D03*
D39*
X225692180Y-103359960D03*
D38*
X227072180Y-103359960D03*
D39*
X225692180Y-100819960D03*
D38*
X227072180Y-100819960D03*
D39*
X225692180Y-98279960D03*
D38*
X227072180Y-98279960D03*
D39*
X225692180Y-95739960D03*
D38*
X227072180Y-95739960D03*
X227072180Y-93199960D03*
D43*
X225692180Y-93199960D03*
D19*
X205062000Y-130219700D03*
X202562000Y-130219700D03*
X199122000Y-78921000D03*
X201622000Y-78921000D03*
X179987000Y-63281000D03*
X179987000Y-60781000D03*
D37*
X176262000Y-112330000D03*
D28*
X176262000Y-109830000D03*
X176262000Y-107330000D03*
D35*
X193886000Y-127424700D03*
D36*
X193886000Y-129924700D03*
D44*
X152687000Y-142041000D03*
D45*
X150147000Y-142041000D03*
D19*
X165472000Y-69582000D03*
X165472000Y-72082000D03*
D24*
X155222000Y-69562000D03*
X155222000Y-72102000D03*
X155222000Y-74642000D03*
X155222000Y-77182000D03*
X155222000Y-79722000D03*
X155222000Y-82262000D03*
X155222000Y-84802000D03*
X170462000Y-84802000D03*
X170462000Y-82262000D03*
X170462000Y-79722000D03*
X170462000Y-77182000D03*
X170462000Y-74642000D03*
X170462000Y-72102000D03*
X170462000Y-69562000D03*
D37*
X183162000Y-112330000D03*
D28*
X183162000Y-109830000D03*
X183162000Y-107330000D03*
D29*
X174967000Y-128801000D03*
D30*
X177467000Y-128801000D03*
X179967000Y-128801000D03*
X182467000Y-128801000D03*
X184967000Y-128801000D03*
X187467000Y-128801000D03*
D24*
X210467000Y-62634700D03*
X210467000Y-65174700D03*
X210467000Y-67714700D03*
X210467000Y-70254700D03*
X210467000Y-72794700D03*
X210467000Y-75334700D03*
X210467000Y-77874700D03*
X225707000Y-77874700D03*
X225707000Y-75334700D03*
X225707000Y-72794700D03*
X225707000Y-70254700D03*
X225707000Y-67714700D03*
X225707000Y-65174700D03*
X225707000Y-62634700D03*
D46*
X140622000Y-118126000D03*
X139422000Y-118926000D03*
X140622000Y-119726000D03*
X139422000Y-120526000D03*
D47*
X139722000Y-116026000D03*
D48*
X134972000Y-123426000D03*
D47*
X139722000Y-123426000D03*
D48*
X134972000Y-116026000D03*
D46*
X140622000Y-121326000D03*
D20*
X177142000Y-117181000D03*
D21*
X177142000Y-124801000D03*
D22*
X163562000Y-131380000D03*
D23*
X163562000Y-136460000D03*
D19*
X192772000Y-107885000D03*
X190272000Y-107885000D03*
X144102000Y-115994700D03*
X144102000Y-118494700D03*
D29*
X186457000Y-62051000D03*
D30*
X188957000Y-62051000D03*
X191457000Y-62051000D03*
X193957000Y-62051000D03*
D19*
X226347000Y-130219700D03*
X228847000Y-130219700D03*
D32*
X223092000Y-52796000D03*
X229592000Y-52796000D03*
X223092000Y-57296000D03*
X229592000Y-57296000D03*
X212620000Y-132716000D03*
X219120000Y-132716000D03*
X219120000Y-137216000D03*
X212620000Y-137216000D03*
D20*
X183492000Y-117181000D03*
D21*
X183492000Y-124801000D03*
D49*
X199127000Y-112069700D03*
X199127000Y-114609700D03*
X199127000Y-117149700D03*
X199127000Y-119689700D03*
X199127000Y-122229700D03*
X199127000Y-124769700D03*
X199127000Y-127309700D03*
D32*
X230862000Y-132716000D03*
X224362000Y-132716000D03*
X224362000Y-137216000D03*
X230862000Y-137216000D03*
D50*
X199732000Y-63521000D03*
D51*
X202232000Y-63521000D03*
D29*
X174967000Y-135801000D03*
D30*
X177467000Y-135801000D03*
X179967000Y-135801000D03*
X182467000Y-135801000D03*
D22*
X201562000Y-125139700D03*
D23*
X206642000Y-125139700D03*
D25*
X205260000Y-100295000D03*
X176304000Y-100295000D03*
D24*
X174782000Y-60798000D03*
X174782000Y-63338000D03*
X174782000Y-65878000D03*
X174782000Y-68418000D03*
X174782000Y-70958000D03*
X174782000Y-73498000D03*
X174782000Y-76038000D03*
X174782000Y-78578000D03*
X206782000Y-78578000D03*
X206782000Y-76038000D03*
X206782000Y-73498000D03*
X206782000Y-70958000D03*
X206782000Y-68418000D03*
X206782000Y-65878000D03*
X206782000Y-63338000D03*
X206782000Y-60798000D03*
D32*
X200620000Y-132716000D03*
X207120000Y-132716000D03*
X207120000Y-137216000D03*
X200620000Y-137216000D03*
D17*
X159032000Y-145524700D03*
X159032000Y-142984700D03*
X159032000Y-140444700D03*
M02*
