0
SECTION
2
HEADER
9
$INSUNITS
70
4
9
$ACADVER
1
AC1014
9
$HANDSEED
5
FFFF
0
ENDSEC
0
SECTION
2
TABLES
0
TABLE
2
VPORT
5
8
100
AcDbSymbolTable
0
ENDTAB
0
TABLE
2
LTYPE
5
5
100
AcDbSymbolTable
0
LTYPE
5
14
100
AcDbSymbolTableRecord
100
AcDbLinetypeTableRecord
2
BYBLOCK
70
0
0
LTYPE
5
15
100
AcDbSymbolTableRecord
100
AcDbLinetypeTableRecord
2
BYLAYER
70
0
0
ENDTAB
0
TABLE
2
LAYER
5
2
100
AcDbSymbolTable
70
2
0
LAYER
5
50
100
AcDbSymbolTableRecord
100
AcDbLayerTableRecord
2
0
70
0
6
CONTINUOUS
0
ENDTAB
0
TABLE
2
STYLE
5
3
100
AcDbSymbolTable
70
1
0
STYLE
5
11
100
AcDbSymbolTableRecord
100
AcDbTextStyleTableRecord
2
STANDARD
70
0
0
ENDTAB
0
TABLE
2
VIEW
5
6
100
AcDbSymbolTable
70
0
0
ENDTAB
0
TABLE
2
UCS
5
7
100
AcDbSymbolTable
70
0
0
ENDTAB
0
TABLE
2
APPID
5
9
100
AcDbSymbolTable
70
2
0
APPID
5
12
100
AcDbSymbolTableRecord
100
AcDbRegAppTableRecord
2
ACAD
70
0
0
ENDTAB
0
TABLE
2
DIMSTYLE
5
A
100
AcDbSymbolTable
70
1
0
ENDTAB
0
TABLE
2
BLOCK_RECORD
5
1
100
AcDbSymbolTable
70
1
0
BLOCK_RECORD
5
1F
100
AcDbSymbolTableRecord
100
AcDbBlockTableRecord
2
*MODEL_SPACE
0
BLOCK_RECORD
5
1B
100
AcDbSymbolTableRecord
100
AcDbBlockTableRecord
2
*PAPER_SPACE
0
ENDTAB
0
ENDSEC
0
SECTION
2
BLOCKS
0
BLOCK
5
20
100
AcDbEntity
100
AcDbBlockBegin
2
*MODEL_SPACE
0
ENDBLK
5
21
100
AcDbEntity
100
AcDbBlockEnd
0
BLOCK
5
1C
100
AcDbEntity
100
AcDbBlockBegin
2
*PAPER_SPACE
0
ENDBLK
5
1D
100
AcDbEntity
100
AcDbBlockEnd
0
ENDSEC
0
SECTION
2
ENTITIES
0
LWPOLYLINE
5
100
100
AcDbEntity
8
0
100
AcDbPolyline
90
4
70
1
43
0.0
10
-41.254341509877328
20
-39.066486358642479
10
-13.859059690672773
20
-39.066486358642479
10
-13.859059690672773
20
-35.999999999999702
10
-41.254341509877328
20
-35.999999999999702
0
LWPOLYLINE
5
101
100
AcDbEntity
8
0
100
AcDbPolyline
90
32
70
1
43
0.0
10
-12.859059690672776
20
-35.999999999999702
10
-12.859059690672776
20
-39.066486358642479
42
-0.1556130699454123
10
-11.12206441342714
20
-39.62050038018176
10
-4.7631084225492035
20
-44.136256652553655
42
-0.16820057480615697
10
-3.6225852918672152
20
-45.733780603556696
42
-0.14435718760374316
10
-3.622585291867193
20
-92.399192113728205
42
-0.16820057480616848
10
-4.7631084225492115
20
-93.996716064731274
10
-11.122064413427154
20
-98.512472337103191
42
-0.15561306994540433
10
-12.859059690672785
20
-99.066486358642493
10
-42.254341509877342
20
-99.066486358642464
42
-0.41421356237310114
10
-45.254341509877342
20
-96.066486358642464
10
-48.000000000000007
20
-96.066486358642464
10
-48.000000000000007
20
-99.000000000000057
10
-98
20
-99.000000000000043
10
-98
20
-89.000000000000028
10
-75.999999999999787
20
-89.000000000000043
10
-75.999999999999787
20
-86.162744394712604
10
-83.67766952966349
20
-78.485074865048915
10
-83.67766952966349
20
-69.677669529663689
10
-65.999999999999787
20
-52.000000000000014
10
-60.999999999999972
20
-52.000000000000014
10
-60.999999999999972
20
-49
10
-62.999999999999972
20
-49
10
-71.399999999999977
20
-35.999999999999687
10
-74
20
-35.999999999999687
10
-74
20
-54.000000000000014
10
-100
20
-54.000000000000014
10
-100
20
0
10
0
20
0
10
-1.7763568394002505e-14
20
-23.000000000000014
10
-11.410304651714194
20
-23.000000000000011
10
-11.410304651714194
20
-35.999999999999702
0
LWPOLYLINE
5
102
100
AcDbEntity
8
0
100
AcDbPolyline
90
4
70
1
43
0.0
10
-12.410304651714196
20
-25.999999999999659
10
-12.410304651714199
20
-23.000000000000011
10
-52.999999999999986
20
-23.000000000000011
10
-52.999999999999986
20
-25.999999999999652
0
LWPOLYLINE
5
103
100
AcDbEntity
8
0
100
AcDbPolyline
90
6
70
1
43
0.0
10
-55.000000000000014
20
-23.000000000000007
10
-55.000000000000014
20
-14.000000000000007
10
-56.999999999999972
20
-14.000000000000007
10
-56.999999999999972
20
-22.999999999999694
10
-53.999999999999986
20
-25.999999999999652
10
-53.999999999999986
20
-23.000000000000011
0
LWPOLYLINE
5
104
100
AcDbEntity
8
0
100
AcDbPolyline
90
4
70
1
43
0.0
10
-61.999999999999972
20
-13.000000000000011
10
-55.000000000000014
20
-13.000000000000007
10
-55.000000000000014
20
-10.000000000000142
10
-61.999999999999972
20
-10.000000000000142
0
LWPOLYLINE
5
105
100
AcDbEntity
8
0
100
AcDbPolyline
90
4
70
1
43
0.0
10
-1.0000000000000142
20
-13.000000000000021
10
-1.0000000000000142
20
-10.000000000000142
10
-54.000000000000021
20
-10.000000000000142
10
-54.000000000000021
20
-13.000000000000007
0
LWPOLYLINE
5
106
100
AcDbEntity
8
0
100
AcDbPolyline
90
11
70
1
43
0.0
10
-62.999999999999972
20
-13.000000000000011
10
-62.999999999999972
20
-10.000000000000142
10
-72.999999999999986
20
-10.000000000000142
10
-72.999999999999986
20
-1.0000000000000009
10
-75
20
-1.0000000000000009
10
-75
20
-28.000000000000011
10
-74
20
-28.000000000000011
10
-74
20
-34.999999999999687
10
-71.410304651714227
20
-34.999999999999687
10
-71.410304651714227
20
-25.999999999999641
10
-71.399999999999977
20
-25.999999999999641
0
LWPOLYLINE
5
107
100
AcDbEntity
8
0
100
AcDbPolyline
90
4
70
1
43
0.0
10
-10.257317136587387
20
-43.566486358642464
10
-21.257317136587357
20
-43.566486358642472
10
-21.257317136587357
20
-66.566486358642464
10
-10.257317136587369
20
-66.566486358642464
0
LWPOLYLINE
5
108
100
AcDbEntity
8
0
100
AcDbPolyline
90
4
70
1
43
0.0
10
-21.257317136587368
20
-94.566486358642464
10
-10.257317136587378
20
-94.566486358642464
10
-10.257317136587369
20
-71.566486358642464
10
-21.257317136587357
20
-71.566486358642464
0
LWPOLYLINE
5
109
100
AcDbEntity
8
0
100
AcDbPolyline
90
7
70
1
43
0.0
10
-45.254341509877335
20
-83.16274439471259
10
-47.999999999999773
20
-83.16274439471259
10
-50.999999999999829
20
-86.162744394712576
10
-50.999999999999829
20
-89.000000000000043
10
-48.000000000000007
20
-89.000000000000057
10
-48.000000000000007
20
-95.066486358642464
10
-45.254341509877342
20
-95.066486358642464
0
LWPOLYLINE
5
110
100
AcDbEntity
8
0
100
AcDbPolyline
90
4
70
1
43
0.0
10
-74.999999999999787
20
-86.162744394712604
10
-74.999999999999787
20
-89.000000000000043
10
-51.999999999999822
20
-89.000000000000043
10
-51.999999999999822
20
-86.162744394712576
0
LWPOLYLINE
5
111
100
AcDbEntity
8
0
100
AcDbPolyline
90
4
70
1
43
0.0
10
-45.254341509877335
20
-56
10
-47.999999999999773
20
-56
10
-47.999999999999773
20
-82.162744394712604
10
-45.254341509877335
20
-82.162744394712604
0
LWPOLYLINE
5
112
100
AcDbEntity
8
0
100
AcDbPolyline
90
11
70
1
43
0.0
10
-45.254341509877335
20
-42.066486358642464
42
-0.41421356237309159
10
-42.254341509877321
20
-39.066486358642479
10
-42.254341509877321
20
-35.999999999999702
10
-53.999999999999972
20
-35.999999999999694
10
-56.999999999999972
20
-38.999999999999687
10
-56.999999999999972
20
-49
10
-59.999999999999972
20
-49
10
-59.999999999999972
20
-52.000000000000014
10
-50.999999999999829
20
-52
10
-47.999999999999773
20
-55
10
-45.254341509877335
20
-55
0
LWPOLYLINE
5
113
100
AcDbEntity
8
0
100
AcDbPolyline
90
4
70
1
43
0.0
10
-99
20
-25
10
-99
20
-28.000000000000011
10
-76
20
-28.000000000000011
10
-76
20
-25
0
CIRCLE
5
114
100
AcDbEntity
8
0
100
AcDbCircle
10
-3.4569354226066551
20
-5.0000000000001403
30
0
40
1.5000000000000036
210
0
220
0
230
1
0
CIRCLE
5
115
100
AcDbEntity
8
0
100
AcDbCircle
10
-77
20
-31.000000000000014
30
0
40
1.5000000000000036
210
0
220
0
230
1
0
CIRCLE
5
116
100
AcDbEntity
8
0
100
AcDbCircle
10
-77
20
-51.000000000000014
30
0
40
1.5000000000000036
210
0
220
0
230
1
0
CIRCLE
5
117
100
AcDbEntity
8
0
100
AcDbCircle
10
-97
20
-50.999999999999972
30
0
40
1.5000000000000036
210
0
220
0
230
1
0
CIRCLE
5
118
100
AcDbEntity
8
0
100
AcDbCircle
10
-96.999999999999957
20
-30.999999999999972
30
0
40
1.5000000000000036
210
0
220
0
230
1
0
CIRCLE
5
119
100
AcDbEntity
8
0
100
AcDbCircle
10
-41.919022294956427
20
-42.066486358642479
30
0
40
1.5000000000000036
210
0
220
0
230
1
0
CIRCLE
5
120
100
AcDbEntity
8
0
100
AcDbCircle
10
-41.919022294956463
20
-96.066486358642464
30
0
40
1.5000000000000036
210
0
220
0
230
1
0
CIRCLE
5
121
100
AcDbEntity
8
0
100
AcDbCircle
10
-6.7992586283268697
20
-49.49082505348877
30
0
40
1.4999999999999991
210
0
220
0
230
1
0
CIRCLE
5
122
100
AcDbEntity
8
0
100
AcDbCircle
10
-6.7992586283269585
20
-88.459312508744887
30
0
40
1.5000000000000036
210
0
220
0
230
1
0
CIRCLE
5
123
100
AcDbEntity
8
0
100
AcDbCircle
10
-79.83883476483166
20
-78.485074865048887
30
0
40
1.4999999999999947
210
0
220
0
230
1
0
CIRCLE
5
124
100
AcDbEntity
8
0
100
AcDbCircle
10
-50.999999999999872
20
-55.000000000000007
30
0
40
1.5000000000000036
210
0
220
0
230
1
0
CIRCLE
5
125
100
AcDbEntity
8
0
100
AcDbCircle
10
-50.999999999999872
20
-83.162744394712576
30
0
40
1.5000000000000036
210
0
220
0
230
1
0
CIRCLE
5
126
100
AcDbEntity
8
0
100
AcDbCircle
10
-59.999999999999986
20
-46.000000000000014
30
0
40
1.5000000000000036
210
0
220
0
230
1
0
CIRCLE
5
127
100
AcDbEntity
8
0
100
AcDbCircle
10
-59.999999999999929
20
-15.999999999999371
30
0
40
1.5000000000000036
210
0
220
0
230
1
0
CIRCLE
5
128
100
AcDbEntity
8
0
100
AcDbCircle
10
-2.5000000000000178
20
-18.000000000000014
30
0
40
1.5000000000000002
210
0
220
0
230
1
0
ENDSEC
0
SECTION
2
OBJECTS
0
DICTIONARY
5
C
100
AcDbDictionary
3
ACAD_GROUP
350
D
3
ACAD_MLINESTYLE
350
17
0
DICTIONARY
5
D
100
AcDbDictionary
0
DICTIONARY
5
1A
330
C
100
AcDbDictionary
0
DICTIONARY
5
17
100
AcDbDictionary
0
ENDSEC
0
EOF
