G04 #@! TF.GenerationSoftware,KiCad,Pcbnew,(5.1.10)-1*
G04 #@! TF.CreationDate,2022-03-14T22:22:12+09:00*
G04 #@! TF.ProjectId,teensy4_header_breakout,7465656e-7379-4345-9f68-65616465725f,rev?*
G04 #@! TF.SameCoordinates,Original*
G04 #@! TF.FileFunction,Profile,NP*
%FSLAX46Y46*%
G04 Gerber Fmt 4.6, Leading zero omitted, Abs format (unit mm)*
G04 Created by KiCad (PCBNEW (5.1.10)-1) date 2022-03-14 22:22:12*
%MOMM*%
%LPD*%
G01*
G04 APERTURE LIST*
G04 #@! TA.AperFunction,Profile*
%ADD10C,0.050000*%
G04 #@! TD*
G04 APERTURE END LIST*
D10*
X153670000Y-115570000D02*
X148590000Y-115570000D01*
X153670000Y-114300000D02*
X153670000Y-115570000D01*
X166370000Y-114300000D02*
X153670000Y-114300000D01*
X166370000Y-115570000D02*
X166370000Y-114300000D01*
X171450000Y-115570000D02*
X166370000Y-115570000D01*
X166370000Y-109220000D02*
X166370000Y-106680000D01*
X153670000Y-109220000D02*
X166370000Y-109220000D01*
X153670000Y-106680000D02*
X153670000Y-109220000D01*
X154305000Y-104775000D02*
X154305000Y-88417400D01*
X165735000Y-104775000D02*
X154305000Y-104775000D01*
X165735000Y-88417400D02*
X165735000Y-104775000D01*
X154305000Y-88417400D02*
X165735000Y-88417400D01*
X166370000Y-106680000D02*
X153670000Y-106680000D01*
X156845000Y-80010000D02*
X148590000Y-80010000D01*
X156845000Y-81915000D02*
X156845000Y-80010000D01*
X163195000Y-81915000D02*
X156845000Y-81915000D01*
X163195000Y-80010000D02*
X163195000Y-81915000D01*
X171450000Y-80010000D02*
X163195000Y-80010000D01*
X148590000Y-115570000D02*
X148590000Y-80010000D01*
X171450000Y-80010000D02*
X171450000Y-115570000D01*
M02*
