%FSLAX45Y45*%
G04 Gerber Fmt 4.5, Leading zero omitted, Abs format (unit mm)*
G04 Created by KiCad (PCBNEW (5.1.10)-1) date 2022-03-14 22:22:43*
%MOMM*%
%LPD*%
G01*
G04 APERTURE LIST*
%TA.AperFunction,Profile*%
%ADD10C,0.050000*%
%TD*%
%ADD11C,0.200000*%
%ADD12C,0.300000*%
G04 APERTURE END LIST*
D10*
X15367000Y-11557000D02*
X14859000Y-11557000D01*
X15367000Y-11430000D02*
X15367000Y-11557000D01*
X16637000Y-11430000D02*
X15367000Y-11430000D01*
X16637000Y-11557000D02*
X16637000Y-11430000D01*
X17145000Y-11557000D02*
X16637000Y-11557000D01*
X16637000Y-10922000D02*
X16637000Y-10668000D01*
X15367000Y-10922000D02*
X16637000Y-10922000D01*
X15367000Y-10668000D02*
X15367000Y-10922000D01*
X15430500Y-10477500D02*
X15430500Y-8841740D01*
X16573500Y-10477500D02*
X15430500Y-10477500D01*
X16573500Y-8841740D02*
X16573500Y-10477500D01*
X15430500Y-8841740D02*
X16573500Y-8841740D01*
X16637000Y-10668000D02*
X15367000Y-10668000D01*
X15684500Y-8001000D02*
X14859000Y-8001000D01*
X15684500Y-8191500D02*
X15684500Y-8001000D01*
X16319500Y-8191500D02*
X15684500Y-8191500D01*
X16319500Y-8001000D02*
X16319500Y-8191500D01*
X17145000Y-8001000D02*
X16319500Y-8001000D01*
X14859000Y-11557000D02*
X14859000Y-8001000D01*
X17145000Y-8001000D02*
X17145000Y-11557000D01*
D11*
X15071090Y-10765790D02*
X15104110Y-10798810D01*
X15104110Y-10765790D02*
X15071090Y-10798810D01*
X15286990Y-10765790D02*
X15320010Y-10798810D01*
X15320010Y-10765790D02*
X15286990Y-10798810D01*
X15288228Y-9026771D02*
X15321248Y-9059791D01*
X15321248Y-9026771D02*
X15288228Y-9059791D01*
X15325090Y-9775190D02*
X15358110Y-9808210D01*
X15358110Y-9775190D02*
X15325090Y-9808210D01*
X15325090Y-10270490D02*
X15358110Y-10303510D01*
X15358110Y-10270490D02*
X15325090Y-10303510D01*
X15337790Y-10016490D02*
X15370810Y-10049510D01*
X15370810Y-10016490D02*
X15337790Y-10049510D01*
X15361959Y-8986024D02*
X15394979Y-9019044D01*
X15394979Y-8986024D02*
X15361959Y-9019044D01*
X15388590Y-8606790D02*
X15421610Y-8639810D01*
X15421610Y-8606790D02*
X15388590Y-8639810D01*
X15439390Y-11197590D02*
X15472410Y-11230610D01*
X15472410Y-11197590D02*
X15439390Y-11230610D01*
X15477490Y-8136890D02*
X15510510Y-8169910D01*
X15510510Y-8136890D02*
X15477490Y-8169910D01*
X15490190Y-8327390D02*
X15523210Y-8360410D01*
X15523210Y-8327390D02*
X15490190Y-8360410D01*
X15579090Y-8606790D02*
X15612110Y-8639810D01*
X15612110Y-8606790D02*
X15579090Y-8639810D01*
X15706090Y-8314690D02*
X15739110Y-8347710D01*
X15739110Y-8314690D02*
X15706090Y-8347710D01*
X15731490Y-11197590D02*
X15764510Y-11230610D01*
X15764510Y-11197590D02*
X15731490Y-11230610D01*
X15756890Y-8606790D02*
X15789910Y-8639810D01*
X15789910Y-8606790D02*
X15756890Y-8639810D01*
X15858490Y-11045190D02*
X15891510Y-11078210D01*
X15891510Y-11045190D02*
X15858490Y-11078210D01*
X15921990Y-8555990D02*
X15955010Y-8589010D01*
X15955010Y-8555990D02*
X15921990Y-8589010D01*
X15972790Y-8352790D02*
X16005810Y-8385810D01*
X16005810Y-8352790D02*
X15972790Y-8385810D01*
X15985490Y-11184890D02*
X16018510Y-11217910D01*
X16018510Y-11184890D02*
X15985490Y-11217910D01*
X16036290Y-8670290D02*
X16069310Y-8703310D01*
X16069310Y-8670290D02*
X16036290Y-8703310D01*
X16112490Y-10549890D02*
X16145510Y-10582910D01*
X16145510Y-10549890D02*
X16112490Y-10582910D01*
X16239490Y-8365490D02*
X16272510Y-8398510D01*
X16272510Y-8365490D02*
X16239490Y-8398510D01*
X16239490Y-11184890D02*
X16272510Y-11217910D01*
X16272510Y-11184890D02*
X16239490Y-11217910D01*
X16328390Y-8555990D02*
X16361410Y-8589010D01*
X16361410Y-8555990D02*
X16328390Y-8589010D01*
X16404590Y-8086090D02*
X16437610Y-8119110D01*
X16437610Y-8086090D02*
X16404590Y-8119110D01*
X16493490Y-11184890D02*
X16526510Y-11217910D01*
X16526510Y-11184890D02*
X16493490Y-11217910D01*
X16556990Y-8619490D02*
X16590010Y-8652510D01*
X16590010Y-8619490D02*
X16556990Y-8652510D01*
X16569690Y-8098790D02*
X16602710Y-8131810D01*
X16602710Y-8098790D02*
X16569690Y-8131810D01*
X16615105Y-11105495D02*
X16648125Y-11138515D01*
X16648125Y-11105495D02*
X16615105Y-11138515D01*
X16633190Y-9000490D02*
X16666210Y-9033510D01*
X16666210Y-9000490D02*
X16633190Y-9033510D01*
X16633190Y-9254490D02*
X16666210Y-9287510D01*
X16666210Y-9254490D02*
X16633190Y-9287510D01*
X16633190Y-9508490D02*
X16666210Y-9541510D01*
X16666210Y-9508490D02*
X16633190Y-9541510D01*
X16635730Y-11022330D02*
X16668750Y-11055350D01*
X16668750Y-11022330D02*
X16635730Y-11055350D01*
X16704310Y-10270490D02*
X16737330Y-10303510D01*
X16737330Y-10270490D02*
X16704310Y-10303510D01*
X16704310Y-10527030D02*
X16737330Y-10560050D01*
X16737330Y-10527030D02*
X16704310Y-10560050D01*
X16706850Y-10021570D02*
X16739870Y-10054590D01*
X16739870Y-10021570D02*
X16706850Y-10054590D01*
X15677000Y-8841840D02*
G75*
G03*
X15677000Y-8841840I-25000J0D01*
G01*
X15777000Y-8841840D02*
G75*
G03*
X15777000Y-8841840I-25000J0D01*
G01*
X15877000Y-8841840D02*
G75*
G03*
X15877000Y-8841840I-25000J0D01*
G01*
X15977000Y-8841840D02*
G75*
G03*
X15977000Y-8841840I-25000J0D01*
G01*
X16077000Y-8841840D02*
G75*
G03*
X16077000Y-8841840I-25000J0D01*
G01*
X16177000Y-8841840D02*
G75*
G03*
X16177000Y-8841840I-25000J0D01*
G01*
X16277000Y-8841840D02*
G75*
G03*
X16277000Y-8841840I-25000J0D01*
G01*
X16377000Y-8841840D02*
G75*
G03*
X16377000Y-8841840I-25000J0D01*
G01*
X14986000Y-8078000D02*
X14986000Y-8178000D01*
X14936000Y-8128000D02*
X15036000Y-8128000D01*
X14986000Y-8332000D02*
X14986000Y-8432000D01*
X14936000Y-8382000D02*
X15036000Y-8382000D01*
X14986000Y-8586000D02*
X14986000Y-8686000D01*
X14936000Y-8636000D02*
X15036000Y-8636000D01*
X14986000Y-8840000D02*
X14986000Y-8940000D01*
X14936000Y-8890000D02*
X15036000Y-8890000D01*
X14986000Y-9094000D02*
X14986000Y-9194000D01*
X14936000Y-9144000D02*
X15036000Y-9144000D01*
X14986000Y-9348000D02*
X14986000Y-9448000D01*
X14936000Y-9398000D02*
X15036000Y-9398000D01*
X14986000Y-9602000D02*
X14986000Y-9702000D01*
X14936000Y-9652000D02*
X15036000Y-9652000D01*
X14986000Y-9856000D02*
X14986000Y-9956000D01*
X14936000Y-9906000D02*
X15036000Y-9906000D01*
X14986000Y-10110000D02*
X14986000Y-10210000D01*
X14936000Y-10160000D02*
X15036000Y-10160000D01*
X14986000Y-10364000D02*
X14986000Y-10464000D01*
X14936000Y-10414000D02*
X15036000Y-10414000D01*
X14986000Y-10618000D02*
X14986000Y-10718000D01*
X14936000Y-10668000D02*
X15036000Y-10668000D01*
X14986000Y-10872000D02*
X14986000Y-10972000D01*
X14936000Y-10922000D02*
X15036000Y-10922000D01*
X14986000Y-11126000D02*
X14986000Y-11226000D01*
X14936000Y-11176000D02*
X15036000Y-11176000D01*
X14986000Y-11380000D02*
X14986000Y-11480000D01*
X14936000Y-11430000D02*
X15036000Y-11430000D01*
X15494000Y-10618000D02*
X15494000Y-10718000D01*
X15444000Y-10668000D02*
X15544000Y-10668000D01*
X15494000Y-10872000D02*
X15494000Y-10972000D01*
X15444000Y-10922000D02*
X15544000Y-10922000D01*
X15748000Y-10618000D02*
X15748000Y-10718000D01*
X15698000Y-10668000D02*
X15798000Y-10668000D01*
X15748000Y-10872000D02*
X15748000Y-10972000D01*
X15698000Y-10922000D02*
X15798000Y-10922000D01*
X15875000Y-8141500D02*
X15875000Y-8241500D01*
X15825000Y-8191500D02*
X15925000Y-8191500D01*
X16002000Y-10618000D02*
X16002000Y-10718000D01*
X15952000Y-10668000D02*
X16052000Y-10668000D01*
X16002000Y-10872000D02*
X16002000Y-10972000D01*
X15952000Y-10922000D02*
X16052000Y-10922000D01*
X16129000Y-8141500D02*
X16129000Y-8241500D01*
X16079000Y-8191500D02*
X16179000Y-8191500D01*
X16256000Y-10618000D02*
X16256000Y-10718000D01*
X16206000Y-10668000D02*
X16306000Y-10668000D01*
X16256000Y-10872000D02*
X16256000Y-10972000D01*
X16206000Y-10922000D02*
X16306000Y-10922000D01*
X16510000Y-10618000D02*
X16510000Y-10718000D01*
X16460000Y-10668000D02*
X16560000Y-10668000D01*
X16510000Y-10872000D02*
X16510000Y-10972000D01*
X16460000Y-10922000D02*
X16560000Y-10922000D01*
X17018000Y-8078000D02*
X17018000Y-8178000D01*
X16968000Y-8128000D02*
X17068000Y-8128000D01*
X17018000Y-8332000D02*
X17018000Y-8432000D01*
X16968000Y-8382000D02*
X17068000Y-8382000D01*
X17018000Y-8586000D02*
X17018000Y-8686000D01*
X16968000Y-8636000D02*
X17068000Y-8636000D01*
X17018000Y-8840000D02*
X17018000Y-8940000D01*
X16968000Y-8890000D02*
X17068000Y-8890000D01*
X17018000Y-9094000D02*
X17018000Y-9194000D01*
X16968000Y-9144000D02*
X17068000Y-9144000D01*
X17018000Y-9348000D02*
X17018000Y-9448000D01*
X16968000Y-9398000D02*
X17068000Y-9398000D01*
X17018000Y-9602000D02*
X17018000Y-9702000D01*
X16968000Y-9652000D02*
X17068000Y-9652000D01*
X17018000Y-9856000D02*
X17018000Y-9956000D01*
X16968000Y-9906000D02*
X17068000Y-9906000D01*
X17018000Y-10110000D02*
X17018000Y-10210000D01*
X16968000Y-10160000D02*
X17068000Y-10160000D01*
X17018000Y-10364000D02*
X17018000Y-10464000D01*
X16968000Y-10414000D02*
X17068000Y-10414000D01*
X17018000Y-10618000D02*
X17018000Y-10718000D01*
X16968000Y-10668000D02*
X17068000Y-10668000D01*
X17018000Y-10872000D02*
X17018000Y-10972000D01*
X16968000Y-10922000D02*
X17068000Y-10922000D01*
X17018000Y-11126000D02*
X17018000Y-11226000D01*
X16968000Y-11176000D02*
X17068000Y-11176000D01*
X17018000Y-11380000D02*
X17018000Y-11480000D01*
X16968000Y-11430000D02*
X17068000Y-11430000D01*
X15278891Y-8166891D02*
X15278891Y-8089109D01*
X15201109Y-8089109D01*
X15201109Y-8166891D01*
X15278891Y-8166891D01*
X15278891Y-8420891D02*
X15278891Y-8343109D01*
X15201109Y-8343109D01*
X15201109Y-8420891D01*
X15278891Y-8420891D01*
X15278891Y-8674891D02*
X15278891Y-8597109D01*
X15201109Y-8597109D01*
X15201109Y-8674891D01*
X15278891Y-8674891D01*
X15278891Y-8928891D02*
X15278891Y-8851109D01*
X15201109Y-8851109D01*
X15201109Y-8928891D01*
X15278891Y-8928891D01*
X15278891Y-9182891D02*
X15278891Y-9105109D01*
X15201109Y-9105109D01*
X15201109Y-9182891D01*
X15278891Y-9182891D01*
X15278891Y-9436891D02*
X15278891Y-9359109D01*
X15201109Y-9359109D01*
X15201109Y-9436891D01*
X15278891Y-9436891D01*
X15278891Y-9690891D02*
X15278891Y-9613109D01*
X15201109Y-9613109D01*
X15201109Y-9690891D01*
X15278891Y-9690891D01*
X15278891Y-9944891D02*
X15278891Y-9867109D01*
X15201109Y-9867109D01*
X15201109Y-9944891D01*
X15278891Y-9944891D01*
X15278891Y-10198891D02*
X15278891Y-10121109D01*
X15201109Y-10121109D01*
X15201109Y-10198891D01*
X15278891Y-10198891D01*
X15278891Y-10452891D02*
X15278891Y-10375109D01*
X15201109Y-10375109D01*
X15201109Y-10452891D01*
X15278891Y-10452891D01*
X15278891Y-10706891D02*
X15278891Y-10629109D01*
X15201109Y-10629109D01*
X15201109Y-10706891D01*
X15278891Y-10706891D01*
X15278891Y-10960891D02*
X15278891Y-10883109D01*
X15201109Y-10883109D01*
X15201109Y-10960891D01*
X15278891Y-10960891D01*
X15278891Y-11214891D02*
X15278891Y-11137109D01*
X15201109Y-11137109D01*
X15201109Y-11214891D01*
X15278891Y-11214891D01*
X15278891Y-11468891D02*
X15278891Y-11391109D01*
X15201109Y-11391109D01*
X15201109Y-11468891D01*
X15278891Y-11468891D01*
X15532891Y-11468891D02*
X15532891Y-11391109D01*
X15455109Y-11391109D01*
X15455109Y-11468891D01*
X15532891Y-11468891D01*
X15786891Y-11468891D02*
X15786891Y-11391109D01*
X15709109Y-11391109D01*
X15709109Y-11468891D01*
X15786891Y-11468891D01*
X16040891Y-11468891D02*
X16040891Y-11391109D01*
X15963109Y-11391109D01*
X15963109Y-11468891D01*
X16040891Y-11468891D01*
X16294891Y-11468891D02*
X16294891Y-11391109D01*
X16217109Y-11391109D01*
X16217109Y-11468891D01*
X16294891Y-11468891D01*
X16548891Y-8420891D02*
X16548891Y-8343109D01*
X16471109Y-8343109D01*
X16471109Y-8420891D01*
X16548891Y-8420891D01*
X16548891Y-11468891D02*
X16548891Y-11391109D01*
X16471109Y-11391109D01*
X16471109Y-11468891D01*
X16548891Y-11468891D01*
X16802891Y-8166891D02*
X16802891Y-8089109D01*
X16725109Y-8089109D01*
X16725109Y-8166891D01*
X16802891Y-8166891D01*
X16802891Y-8420891D02*
X16802891Y-8343109D01*
X16725109Y-8343109D01*
X16725109Y-8420891D01*
X16802891Y-8420891D01*
X16802891Y-8674891D02*
X16802891Y-8597109D01*
X16725109Y-8597109D01*
X16725109Y-8674891D01*
X16802891Y-8674891D01*
X16802891Y-8928891D02*
X16802891Y-8851109D01*
X16725109Y-8851109D01*
X16725109Y-8928891D01*
X16802891Y-8928891D01*
X16802891Y-9182891D02*
X16802891Y-9105109D01*
X16725109Y-9105109D01*
X16725109Y-9182891D01*
X16802891Y-9182891D01*
X16802891Y-9436891D02*
X16802891Y-9359109D01*
X16725109Y-9359109D01*
X16725109Y-9436891D01*
X16802891Y-9436891D01*
X16802891Y-9690891D02*
X16802891Y-9613109D01*
X16725109Y-9613109D01*
X16725109Y-9690891D01*
X16802891Y-9690891D01*
X16802891Y-9944891D02*
X16802891Y-9867109D01*
X16725109Y-9867109D01*
X16725109Y-9944891D01*
X16802891Y-9944891D01*
X16802891Y-10198891D02*
X16802891Y-10121109D01*
X16725109Y-10121109D01*
X16725109Y-10198891D01*
X16802891Y-10198891D01*
X16802891Y-10452891D02*
X16802891Y-10375109D01*
X16725109Y-10375109D01*
X16725109Y-10452891D01*
X16802891Y-10452891D01*
X16802891Y-10706891D02*
X16802891Y-10629109D01*
X16725109Y-10629109D01*
X16725109Y-10706891D01*
X16802891Y-10706891D01*
X16802891Y-10960891D02*
X16802891Y-10883109D01*
X16725109Y-10883109D01*
X16725109Y-10960891D01*
X16802891Y-10960891D01*
X16802891Y-11214891D02*
X16802891Y-11137109D01*
X16725109Y-11137109D01*
X16725109Y-11214891D01*
X16802891Y-11214891D01*
X16802891Y-11468891D02*
X16802891Y-11391109D01*
X16725109Y-11391109D01*
X16725109Y-11468891D01*
X16802891Y-11468891D01*
D12*
X15142928Y-12025214D02*
X15142928Y-11725214D01*
X15214357Y-11725214D01*
X15257214Y-11739500D01*
X15285786Y-11768071D01*
X15300071Y-11796643D01*
X15314357Y-11853786D01*
X15314357Y-11896643D01*
X15300071Y-11953786D01*
X15285786Y-11982357D01*
X15257214Y-12010929D01*
X15214357Y-12025214D01*
X15142928Y-12025214D01*
X15442928Y-12025214D02*
X15442928Y-11825214D01*
X15442928Y-11882357D02*
X15457214Y-11853786D01*
X15471500Y-11839500D01*
X15500071Y-11825214D01*
X15528643Y-11825214D01*
X15628643Y-12025214D02*
X15628643Y-11825214D01*
X15628643Y-11725214D02*
X15614357Y-11739500D01*
X15628643Y-11753786D01*
X15642928Y-11739500D01*
X15628643Y-11725214D01*
X15628643Y-11753786D01*
X15814357Y-12025214D02*
X15785786Y-12010929D01*
X15771500Y-11982357D01*
X15771500Y-11725214D01*
X15971500Y-12025214D02*
X15942928Y-12010929D01*
X15928643Y-11982357D01*
X15928643Y-11725214D01*
X16314357Y-12025214D02*
X16314357Y-11725214D01*
X16414357Y-11939500D01*
X16514357Y-11725214D01*
X16514357Y-12025214D01*
X16785786Y-12025214D02*
X16785786Y-11868071D01*
X16771500Y-11839500D01*
X16742928Y-11825214D01*
X16685786Y-11825214D01*
X16657214Y-11839500D01*
X16785786Y-12010929D02*
X16757214Y-12025214D01*
X16685786Y-12025214D01*
X16657214Y-12010929D01*
X16642928Y-11982357D01*
X16642928Y-11953786D01*
X16657214Y-11925214D01*
X16685786Y-11910929D01*
X16757214Y-11910929D01*
X16785786Y-11896643D01*
X16928643Y-11825214D02*
X16928643Y-12125214D01*
X16928643Y-11839500D02*
X16957214Y-11825214D01*
X17014357Y-11825214D01*
X17042928Y-11839500D01*
X17057214Y-11853786D01*
X17071500Y-11882357D01*
X17071500Y-11968071D01*
X17057214Y-11996643D01*
X17042928Y-12010929D01*
X17014357Y-12025214D01*
X16957214Y-12025214D01*
X16928643Y-12010929D01*
X17200071Y-11996643D02*
X17214357Y-12010929D01*
X17200071Y-12025214D01*
X17185786Y-12010929D01*
X17200071Y-11996643D01*
X17200071Y-12025214D01*
X17200071Y-11839500D02*
X17214357Y-11853786D01*
X17200071Y-11868071D01*
X17185786Y-11853786D01*
X17200071Y-11839500D01*
X17200071Y-11868071D01*
X14823480Y-12502990D02*
X14856500Y-12536010D01*
X14856500Y-12502990D02*
X14823480Y-12536010D01*
X15200071Y-12355214D02*
X15228643Y-12355214D01*
X15257214Y-12369500D01*
X15271500Y-12383786D01*
X15285786Y-12412357D01*
X15300071Y-12469500D01*
X15300071Y-12540929D01*
X15285786Y-12598071D01*
X15271500Y-12626643D01*
X15257214Y-12640929D01*
X15228643Y-12655214D01*
X15200071Y-12655214D01*
X15171500Y-12640929D01*
X15157214Y-12626643D01*
X15142928Y-12598071D01*
X15128643Y-12540929D01*
X15128643Y-12469500D01*
X15142928Y-12412357D01*
X15157214Y-12383786D01*
X15171500Y-12369500D01*
X15200071Y-12355214D01*
X15428643Y-12626643D02*
X15442928Y-12640929D01*
X15428643Y-12655214D01*
X15414357Y-12640929D01*
X15428643Y-12626643D01*
X15428643Y-12655214D01*
X15542928Y-12355214D02*
X15728643Y-12355214D01*
X15628643Y-12469500D01*
X15671500Y-12469500D01*
X15700071Y-12483786D01*
X15714357Y-12498071D01*
X15728643Y-12526643D01*
X15728643Y-12598071D01*
X15714357Y-12626643D01*
X15700071Y-12640929D01*
X15671500Y-12655214D01*
X15585786Y-12655214D01*
X15557214Y-12640929D01*
X15542928Y-12626643D01*
X15828643Y-12355214D02*
X16014357Y-12355214D01*
X15914357Y-12469500D01*
X15957214Y-12469500D01*
X15985786Y-12483786D01*
X16000071Y-12498071D01*
X16014357Y-12526643D01*
X16014357Y-12598071D01*
X16000071Y-12626643D01*
X15985786Y-12640929D01*
X15957214Y-12655214D01*
X15871500Y-12655214D01*
X15842928Y-12640929D01*
X15828643Y-12626643D01*
X16200071Y-12355214D02*
X16228643Y-12355214D01*
X16257214Y-12369500D01*
X16271500Y-12383786D01*
X16285786Y-12412357D01*
X16300071Y-12469500D01*
X16300071Y-12540929D01*
X16285786Y-12598071D01*
X16271500Y-12626643D01*
X16257214Y-12640929D01*
X16228643Y-12655214D01*
X16200071Y-12655214D01*
X16171500Y-12640929D01*
X16157214Y-12626643D01*
X16142928Y-12598071D01*
X16128643Y-12540929D01*
X16128643Y-12469500D01*
X16142928Y-12412357D01*
X16157214Y-12383786D01*
X16171500Y-12369500D01*
X16200071Y-12355214D01*
X16428643Y-12655214D02*
X16428643Y-12455214D01*
X16428643Y-12483786D02*
X16442928Y-12469500D01*
X16471500Y-12455214D01*
X16514357Y-12455214D01*
X16542928Y-12469500D01*
X16557214Y-12498071D01*
X16557214Y-12655214D01*
X16557214Y-12498071D02*
X16571500Y-12469500D01*
X16600071Y-12455214D01*
X16642928Y-12455214D01*
X16671500Y-12469500D01*
X16685786Y-12498071D01*
X16685786Y-12655214D01*
X16828643Y-12655214D02*
X16828643Y-12455214D01*
X16828643Y-12483786D02*
X16842928Y-12469500D01*
X16871500Y-12455214D01*
X16914357Y-12455214D01*
X16942928Y-12469500D01*
X16957214Y-12498071D01*
X16957214Y-12655214D01*
X16957214Y-12498071D02*
X16971500Y-12469500D01*
X17000071Y-12455214D01*
X17042928Y-12455214D01*
X17071500Y-12469500D01*
X17085786Y-12498071D01*
X17085786Y-12655214D01*
X17671500Y-12340929D02*
X17414357Y-12726643D01*
X18057214Y-12355214D02*
X18085786Y-12355214D01*
X18114357Y-12369500D01*
X18128643Y-12383786D01*
X18142928Y-12412357D01*
X18157214Y-12469500D01*
X18157214Y-12540929D01*
X18142928Y-12598071D01*
X18128643Y-12626643D01*
X18114357Y-12640929D01*
X18085786Y-12655214D01*
X18057214Y-12655214D01*
X18028643Y-12640929D01*
X18014357Y-12626643D01*
X18000071Y-12598071D01*
X17985786Y-12540929D01*
X17985786Y-12469500D01*
X18000071Y-12412357D01*
X18014357Y-12383786D01*
X18028643Y-12369500D01*
X18057214Y-12355214D01*
X18285786Y-12626643D02*
X18300071Y-12640929D01*
X18285786Y-12655214D01*
X18271500Y-12640929D01*
X18285786Y-12626643D01*
X18285786Y-12655214D01*
X18485786Y-12355214D02*
X18514357Y-12355214D01*
X18542928Y-12369500D01*
X18557214Y-12383786D01*
X18571500Y-12412357D01*
X18585786Y-12469500D01*
X18585786Y-12540929D01*
X18571500Y-12598071D01*
X18557214Y-12626643D01*
X18542928Y-12640929D01*
X18514357Y-12655214D01*
X18485786Y-12655214D01*
X18457214Y-12640929D01*
X18442928Y-12626643D01*
X18428643Y-12598071D01*
X18414357Y-12540929D01*
X18414357Y-12469500D01*
X18428643Y-12412357D01*
X18442928Y-12383786D01*
X18457214Y-12369500D01*
X18485786Y-12355214D01*
X18871500Y-12655214D02*
X18700071Y-12655214D01*
X18785786Y-12655214D02*
X18785786Y-12355214D01*
X18757214Y-12398071D01*
X18728643Y-12426643D01*
X18700071Y-12440929D01*
X18971500Y-12355214D02*
X19157214Y-12355214D01*
X19057214Y-12469500D01*
X19100071Y-12469500D01*
X19128643Y-12483786D01*
X19142928Y-12498071D01*
X19157214Y-12526643D01*
X19157214Y-12598071D01*
X19142928Y-12626643D01*
X19128643Y-12640929D01*
X19100071Y-12655214D01*
X19014357Y-12655214D01*
X18985786Y-12640929D01*
X18971500Y-12626643D01*
X19342928Y-12355214D02*
X19371500Y-12355214D01*
X19400071Y-12369500D01*
X19414357Y-12383786D01*
X19428643Y-12412357D01*
X19442928Y-12469500D01*
X19442928Y-12540929D01*
X19428643Y-12598071D01*
X19414357Y-12626643D01*
X19400071Y-12640929D01*
X19371500Y-12655214D01*
X19342928Y-12655214D01*
X19314357Y-12640929D01*
X19300071Y-12626643D01*
X19285786Y-12598071D01*
X19271500Y-12540929D01*
X19271500Y-12469500D01*
X19285786Y-12412357D01*
X19300071Y-12383786D01*
X19314357Y-12369500D01*
X19342928Y-12355214D01*
X19557214Y-12355214D02*
X19557214Y-12412357D01*
X19671500Y-12355214D02*
X19671500Y-12412357D01*
X20114357Y-12769500D02*
X20100071Y-12755214D01*
X20071500Y-12712357D01*
X20057214Y-12683786D01*
X20042928Y-12640929D01*
X20028643Y-12569500D01*
X20028643Y-12512357D01*
X20042928Y-12440929D01*
X20057214Y-12398071D01*
X20071500Y-12369500D01*
X20100071Y-12326643D01*
X20114357Y-12312357D01*
X20200071Y-12355214D02*
X20385786Y-12355214D01*
X20285786Y-12469500D01*
X20328643Y-12469500D01*
X20357214Y-12483786D01*
X20371500Y-12498071D01*
X20385786Y-12526643D01*
X20385786Y-12598071D01*
X20371500Y-12626643D01*
X20357214Y-12640929D01*
X20328643Y-12655214D01*
X20242928Y-12655214D01*
X20214357Y-12640929D01*
X20200071Y-12626643D01*
X20642928Y-12355214D02*
X20585786Y-12355214D01*
X20557214Y-12369500D01*
X20542928Y-12383786D01*
X20514357Y-12426643D01*
X20500071Y-12483786D01*
X20500071Y-12598071D01*
X20514357Y-12626643D01*
X20528643Y-12640929D01*
X20557214Y-12655214D01*
X20614357Y-12655214D01*
X20642928Y-12640929D01*
X20657214Y-12626643D01*
X20671500Y-12598071D01*
X20671500Y-12526643D01*
X20657214Y-12498071D01*
X20642928Y-12483786D01*
X20614357Y-12469500D01*
X20557214Y-12469500D01*
X20528643Y-12483786D01*
X20514357Y-12498071D01*
X20500071Y-12526643D01*
X21028643Y-12655214D02*
X21028643Y-12355214D01*
X21157214Y-12655214D02*
X21157214Y-12498071D01*
X21142928Y-12469500D01*
X21114357Y-12455214D01*
X21071500Y-12455214D01*
X21042928Y-12469500D01*
X21028643Y-12483786D01*
X21342928Y-12655214D02*
X21314357Y-12640929D01*
X21300071Y-12626643D01*
X21285786Y-12598071D01*
X21285786Y-12512357D01*
X21300071Y-12483786D01*
X21314357Y-12469500D01*
X21342928Y-12455214D01*
X21385786Y-12455214D01*
X21414357Y-12469500D01*
X21428643Y-12483786D01*
X21442928Y-12512357D01*
X21442928Y-12598071D01*
X21428643Y-12626643D01*
X21414357Y-12640929D01*
X21385786Y-12655214D01*
X21342928Y-12655214D01*
X21614357Y-12655214D02*
X21585786Y-12640929D01*
X21571500Y-12612357D01*
X21571500Y-12355214D01*
X21842928Y-12640929D02*
X21814357Y-12655214D01*
X21757214Y-12655214D01*
X21728643Y-12640929D01*
X21714357Y-12612357D01*
X21714357Y-12498071D01*
X21728643Y-12469500D01*
X21757214Y-12455214D01*
X21814357Y-12455214D01*
X21842928Y-12469500D01*
X21857214Y-12498071D01*
X21857214Y-12526643D01*
X21714357Y-12555214D01*
X21971500Y-12640929D02*
X22000071Y-12655214D01*
X22057214Y-12655214D01*
X22085786Y-12640929D01*
X22100071Y-12612357D01*
X22100071Y-12598071D01*
X22085786Y-12569500D01*
X22057214Y-12555214D01*
X22014357Y-12555214D01*
X21985786Y-12540929D01*
X21971500Y-12512357D01*
X21971500Y-12498071D01*
X21985786Y-12469500D01*
X22014357Y-12455214D01*
X22057214Y-12455214D01*
X22085786Y-12469500D01*
X22200071Y-12769500D02*
X22214357Y-12755214D01*
X22242928Y-12712357D01*
X22257214Y-12683786D01*
X22271500Y-12640929D01*
X22285786Y-12569500D01*
X22285786Y-12512357D01*
X22271500Y-12440929D01*
X22257214Y-12398071D01*
X22242928Y-12369500D01*
X22214357Y-12326643D01*
X22200071Y-12312357D01*
X14856500Y-12915500D02*
G75*
G03*
X14856500Y-12915500I-25000J0D01*
G01*
X15200071Y-12751214D02*
X15228643Y-12751214D01*
X15257214Y-12765500D01*
X15271500Y-12779786D01*
X15285786Y-12808357D01*
X15300071Y-12865500D01*
X15300071Y-12936929D01*
X15285786Y-12994071D01*
X15271500Y-13022643D01*
X15257214Y-13036929D01*
X15228643Y-13051214D01*
X15200071Y-13051214D01*
X15171500Y-13036929D01*
X15157214Y-13022643D01*
X15142928Y-12994071D01*
X15128643Y-12936929D01*
X15128643Y-12865500D01*
X15142928Y-12808357D01*
X15157214Y-12779786D01*
X15171500Y-12765500D01*
X15200071Y-12751214D01*
X15428643Y-13022643D02*
X15442928Y-13036929D01*
X15428643Y-13051214D01*
X15414357Y-13036929D01*
X15428643Y-13022643D01*
X15428643Y-13051214D01*
X15714357Y-12751214D02*
X15571500Y-12751214D01*
X15557214Y-12894071D01*
X15571500Y-12879786D01*
X15600071Y-12865500D01*
X15671500Y-12865500D01*
X15700071Y-12879786D01*
X15714357Y-12894071D01*
X15728643Y-12922643D01*
X15728643Y-12994071D01*
X15714357Y-13022643D01*
X15700071Y-13036929D01*
X15671500Y-13051214D01*
X15600071Y-13051214D01*
X15571500Y-13036929D01*
X15557214Y-13022643D01*
X15914357Y-12751214D02*
X15942928Y-12751214D01*
X15971500Y-12765500D01*
X15985786Y-12779786D01*
X16000071Y-12808357D01*
X16014357Y-12865500D01*
X16014357Y-12936929D01*
X16000071Y-12994071D01*
X15985786Y-13022643D01*
X15971500Y-13036929D01*
X15942928Y-13051214D01*
X15914357Y-13051214D01*
X15885786Y-13036929D01*
X15871500Y-13022643D01*
X15857214Y-12994071D01*
X15842928Y-12936929D01*
X15842928Y-12865500D01*
X15857214Y-12808357D01*
X15871500Y-12779786D01*
X15885786Y-12765500D01*
X15914357Y-12751214D01*
X16200071Y-12751214D02*
X16228643Y-12751214D01*
X16257214Y-12765500D01*
X16271500Y-12779786D01*
X16285786Y-12808357D01*
X16300071Y-12865500D01*
X16300071Y-12936929D01*
X16285786Y-12994071D01*
X16271500Y-13022643D01*
X16257214Y-13036929D01*
X16228643Y-13051214D01*
X16200071Y-13051214D01*
X16171500Y-13036929D01*
X16157214Y-13022643D01*
X16142928Y-12994071D01*
X16128643Y-12936929D01*
X16128643Y-12865500D01*
X16142928Y-12808357D01*
X16157214Y-12779786D01*
X16171500Y-12765500D01*
X16200071Y-12751214D01*
X16428643Y-13051214D02*
X16428643Y-12851214D01*
X16428643Y-12879786D02*
X16442928Y-12865500D01*
X16471500Y-12851214D01*
X16514357Y-12851214D01*
X16542928Y-12865500D01*
X16557214Y-12894071D01*
X16557214Y-13051214D01*
X16557214Y-12894071D02*
X16571500Y-12865500D01*
X16600071Y-12851214D01*
X16642928Y-12851214D01*
X16671500Y-12865500D01*
X16685786Y-12894071D01*
X16685786Y-13051214D01*
X16828643Y-13051214D02*
X16828643Y-12851214D01*
X16828643Y-12879786D02*
X16842928Y-12865500D01*
X16871500Y-12851214D01*
X16914357Y-12851214D01*
X16942928Y-12865500D01*
X16957214Y-12894071D01*
X16957214Y-13051214D01*
X16957214Y-12894071D02*
X16971500Y-12865500D01*
X17000071Y-12851214D01*
X17042928Y-12851214D01*
X17071500Y-12865500D01*
X17085786Y-12894071D01*
X17085786Y-13051214D01*
X17671500Y-12736929D02*
X17414357Y-13122643D01*
X18057214Y-12751214D02*
X18085786Y-12751214D01*
X18114357Y-12765500D01*
X18128643Y-12779786D01*
X18142928Y-12808357D01*
X18157214Y-12865500D01*
X18157214Y-12936929D01*
X18142928Y-12994071D01*
X18128643Y-13022643D01*
X18114357Y-13036929D01*
X18085786Y-13051214D01*
X18057214Y-13051214D01*
X18028643Y-13036929D01*
X18014357Y-13022643D01*
X18000071Y-12994071D01*
X17985786Y-12936929D01*
X17985786Y-12865500D01*
X18000071Y-12808357D01*
X18014357Y-12779786D01*
X18028643Y-12765500D01*
X18057214Y-12751214D01*
X18285786Y-13022643D02*
X18300071Y-13036929D01*
X18285786Y-13051214D01*
X18271500Y-13036929D01*
X18285786Y-13022643D01*
X18285786Y-13051214D01*
X18485786Y-12751214D02*
X18514357Y-12751214D01*
X18542928Y-12765500D01*
X18557214Y-12779786D01*
X18571500Y-12808357D01*
X18585786Y-12865500D01*
X18585786Y-12936929D01*
X18571500Y-12994071D01*
X18557214Y-13022643D01*
X18542928Y-13036929D01*
X18514357Y-13051214D01*
X18485786Y-13051214D01*
X18457214Y-13036929D01*
X18442928Y-13022643D01*
X18428643Y-12994071D01*
X18414357Y-12936929D01*
X18414357Y-12865500D01*
X18428643Y-12808357D01*
X18442928Y-12779786D01*
X18457214Y-12765500D01*
X18485786Y-12751214D01*
X18871500Y-13051214D02*
X18700071Y-13051214D01*
X18785786Y-13051214D02*
X18785786Y-12751214D01*
X18757214Y-12794071D01*
X18728643Y-12822643D01*
X18700071Y-12836929D01*
X19014357Y-13051214D02*
X19071500Y-13051214D01*
X19100071Y-13036929D01*
X19114357Y-13022643D01*
X19142928Y-12979786D01*
X19157214Y-12922643D01*
X19157214Y-12808357D01*
X19142928Y-12779786D01*
X19128643Y-12765500D01*
X19100071Y-12751214D01*
X19042928Y-12751214D01*
X19014357Y-12765500D01*
X19000071Y-12779786D01*
X18985786Y-12808357D01*
X18985786Y-12879786D01*
X19000071Y-12908357D01*
X19014357Y-12922643D01*
X19042928Y-12936929D01*
X19100071Y-12936929D01*
X19128643Y-12922643D01*
X19142928Y-12908357D01*
X19157214Y-12879786D01*
X19257214Y-12751214D02*
X19457214Y-12751214D01*
X19328643Y-13051214D01*
X19557214Y-12751214D02*
X19557214Y-12808357D01*
X19671500Y-12751214D02*
X19671500Y-12808357D01*
X20114357Y-13165500D02*
X20100071Y-13151214D01*
X20071500Y-13108357D01*
X20057214Y-13079786D01*
X20042928Y-13036929D01*
X20028643Y-12965500D01*
X20028643Y-12908357D01*
X20042928Y-12836929D01*
X20057214Y-12794071D01*
X20071500Y-12765500D01*
X20100071Y-12722643D01*
X20114357Y-12708357D01*
X20271500Y-12879786D02*
X20242928Y-12865500D01*
X20228643Y-12851214D01*
X20214357Y-12822643D01*
X20214357Y-12808357D01*
X20228643Y-12779786D01*
X20242928Y-12765500D01*
X20271500Y-12751214D01*
X20328643Y-12751214D01*
X20357214Y-12765500D01*
X20371500Y-12779786D01*
X20385786Y-12808357D01*
X20385786Y-12822643D01*
X20371500Y-12851214D01*
X20357214Y-12865500D01*
X20328643Y-12879786D01*
X20271500Y-12879786D01*
X20242928Y-12894071D01*
X20228643Y-12908357D01*
X20214357Y-12936929D01*
X20214357Y-12994071D01*
X20228643Y-13022643D01*
X20242928Y-13036929D01*
X20271500Y-13051214D01*
X20328643Y-13051214D01*
X20357214Y-13036929D01*
X20371500Y-13022643D01*
X20385786Y-12994071D01*
X20385786Y-12936929D01*
X20371500Y-12908357D01*
X20357214Y-12894071D01*
X20328643Y-12879786D01*
X20742928Y-13051214D02*
X20742928Y-12751214D01*
X20871500Y-13051214D02*
X20871500Y-12894071D01*
X20857214Y-12865500D01*
X20828643Y-12851214D01*
X20785786Y-12851214D01*
X20757214Y-12865500D01*
X20742928Y-12879786D01*
X21057214Y-13051214D02*
X21028643Y-13036929D01*
X21014357Y-13022643D01*
X21000071Y-12994071D01*
X21000071Y-12908357D01*
X21014357Y-12879786D01*
X21028643Y-12865500D01*
X21057214Y-12851214D01*
X21100071Y-12851214D01*
X21128643Y-12865500D01*
X21142928Y-12879786D01*
X21157214Y-12908357D01*
X21157214Y-12994071D01*
X21142928Y-13022643D01*
X21128643Y-13036929D01*
X21100071Y-13051214D01*
X21057214Y-13051214D01*
X21328643Y-13051214D02*
X21300071Y-13036929D01*
X21285786Y-13008357D01*
X21285786Y-12751214D01*
X21557214Y-13036929D02*
X21528643Y-13051214D01*
X21471500Y-13051214D01*
X21442928Y-13036929D01*
X21428643Y-13008357D01*
X21428643Y-12894071D01*
X21442928Y-12865500D01*
X21471500Y-12851214D01*
X21528643Y-12851214D01*
X21557214Y-12865500D01*
X21571500Y-12894071D01*
X21571500Y-12922643D01*
X21428643Y-12951214D01*
X21685786Y-13036929D02*
X21714357Y-13051214D01*
X21771500Y-13051214D01*
X21800071Y-13036929D01*
X21814357Y-13008357D01*
X21814357Y-12994071D01*
X21800071Y-12965500D01*
X21771500Y-12951214D01*
X21728643Y-12951214D01*
X21700071Y-12936929D01*
X21685786Y-12908357D01*
X21685786Y-12894071D01*
X21700071Y-12865500D01*
X21728643Y-12851214D01*
X21771500Y-12851214D01*
X21800071Y-12865500D01*
X21914357Y-13165500D02*
X21928643Y-13151214D01*
X21957214Y-13108357D01*
X21971500Y-13079786D01*
X21985786Y-13036929D01*
X22000071Y-12965500D01*
X22000071Y-12908357D01*
X21985786Y-12836929D01*
X21971500Y-12794071D01*
X21957214Y-12765500D01*
X21928643Y-12722643D01*
X21914357Y-12708357D01*
X14806500Y-13261500D02*
X14806500Y-13361500D01*
X14756500Y-13311500D02*
X14856500Y-13311500D01*
X15300071Y-13447214D02*
X15128643Y-13447214D01*
X15214357Y-13447214D02*
X15214357Y-13147214D01*
X15185786Y-13190071D01*
X15157214Y-13218643D01*
X15128643Y-13232929D01*
X15428643Y-13418643D02*
X15442928Y-13432929D01*
X15428643Y-13447214D01*
X15414357Y-13432929D01*
X15428643Y-13418643D01*
X15428643Y-13447214D01*
X15628643Y-13147214D02*
X15657214Y-13147214D01*
X15685786Y-13161500D01*
X15700071Y-13175786D01*
X15714357Y-13204357D01*
X15728643Y-13261500D01*
X15728643Y-13332929D01*
X15714357Y-13390071D01*
X15700071Y-13418643D01*
X15685786Y-13432929D01*
X15657214Y-13447214D01*
X15628643Y-13447214D01*
X15600071Y-13432929D01*
X15585786Y-13418643D01*
X15571500Y-13390071D01*
X15557214Y-13332929D01*
X15557214Y-13261500D01*
X15571500Y-13204357D01*
X15585786Y-13175786D01*
X15600071Y-13161500D01*
X15628643Y-13147214D01*
X15914357Y-13147214D02*
X15942928Y-13147214D01*
X15971500Y-13161500D01*
X15985786Y-13175786D01*
X16000071Y-13204357D01*
X16014357Y-13261500D01*
X16014357Y-13332929D01*
X16000071Y-13390071D01*
X15985786Y-13418643D01*
X15971500Y-13432929D01*
X15942928Y-13447214D01*
X15914357Y-13447214D01*
X15885786Y-13432929D01*
X15871500Y-13418643D01*
X15857214Y-13390071D01*
X15842928Y-13332929D01*
X15842928Y-13261500D01*
X15857214Y-13204357D01*
X15871500Y-13175786D01*
X15885786Y-13161500D01*
X15914357Y-13147214D01*
X16200071Y-13147214D02*
X16228643Y-13147214D01*
X16257214Y-13161500D01*
X16271500Y-13175786D01*
X16285786Y-13204357D01*
X16300071Y-13261500D01*
X16300071Y-13332929D01*
X16285786Y-13390071D01*
X16271500Y-13418643D01*
X16257214Y-13432929D01*
X16228643Y-13447214D01*
X16200071Y-13447214D01*
X16171500Y-13432929D01*
X16157214Y-13418643D01*
X16142928Y-13390071D01*
X16128643Y-13332929D01*
X16128643Y-13261500D01*
X16142928Y-13204357D01*
X16157214Y-13175786D01*
X16171500Y-13161500D01*
X16200071Y-13147214D01*
X16428643Y-13447214D02*
X16428643Y-13247214D01*
X16428643Y-13275786D02*
X16442928Y-13261500D01*
X16471500Y-13247214D01*
X16514357Y-13247214D01*
X16542928Y-13261500D01*
X16557214Y-13290071D01*
X16557214Y-13447214D01*
X16557214Y-13290071D02*
X16571500Y-13261500D01*
X16600071Y-13247214D01*
X16642928Y-13247214D01*
X16671500Y-13261500D01*
X16685786Y-13290071D01*
X16685786Y-13447214D01*
X16828643Y-13447214D02*
X16828643Y-13247214D01*
X16828643Y-13275786D02*
X16842928Y-13261500D01*
X16871500Y-13247214D01*
X16914357Y-13247214D01*
X16942928Y-13261500D01*
X16957214Y-13290071D01*
X16957214Y-13447214D01*
X16957214Y-13290071D02*
X16971500Y-13261500D01*
X17000071Y-13247214D01*
X17042928Y-13247214D01*
X17071500Y-13261500D01*
X17085786Y-13290071D01*
X17085786Y-13447214D01*
X17671500Y-13132929D02*
X17414357Y-13518643D01*
X18057214Y-13147214D02*
X18085786Y-13147214D01*
X18114357Y-13161500D01*
X18128643Y-13175786D01*
X18142928Y-13204357D01*
X18157214Y-13261500D01*
X18157214Y-13332929D01*
X18142928Y-13390071D01*
X18128643Y-13418643D01*
X18114357Y-13432929D01*
X18085786Y-13447214D01*
X18057214Y-13447214D01*
X18028643Y-13432929D01*
X18014357Y-13418643D01*
X18000071Y-13390071D01*
X17985786Y-13332929D01*
X17985786Y-13261500D01*
X18000071Y-13204357D01*
X18014357Y-13175786D01*
X18028643Y-13161500D01*
X18057214Y-13147214D01*
X18285786Y-13418643D02*
X18300071Y-13432929D01*
X18285786Y-13447214D01*
X18271500Y-13432929D01*
X18285786Y-13418643D01*
X18285786Y-13447214D01*
X18485786Y-13147214D02*
X18514357Y-13147214D01*
X18542928Y-13161500D01*
X18557214Y-13175786D01*
X18571500Y-13204357D01*
X18585786Y-13261500D01*
X18585786Y-13332929D01*
X18571500Y-13390071D01*
X18557214Y-13418643D01*
X18542928Y-13432929D01*
X18514357Y-13447214D01*
X18485786Y-13447214D01*
X18457214Y-13432929D01*
X18442928Y-13418643D01*
X18428643Y-13390071D01*
X18414357Y-13332929D01*
X18414357Y-13261500D01*
X18428643Y-13204357D01*
X18442928Y-13175786D01*
X18457214Y-13161500D01*
X18485786Y-13147214D01*
X18685786Y-13147214D02*
X18871500Y-13147214D01*
X18771500Y-13261500D01*
X18814357Y-13261500D01*
X18842928Y-13275786D01*
X18857214Y-13290071D01*
X18871500Y-13318643D01*
X18871500Y-13390071D01*
X18857214Y-13418643D01*
X18842928Y-13432929D01*
X18814357Y-13447214D01*
X18728643Y-13447214D01*
X18700071Y-13432929D01*
X18685786Y-13418643D01*
X19014357Y-13447214D02*
X19071500Y-13447214D01*
X19100071Y-13432929D01*
X19114357Y-13418643D01*
X19142928Y-13375786D01*
X19157214Y-13318643D01*
X19157214Y-13204357D01*
X19142928Y-13175786D01*
X19128643Y-13161500D01*
X19100071Y-13147214D01*
X19042928Y-13147214D01*
X19014357Y-13161500D01*
X19000071Y-13175786D01*
X18985786Y-13204357D01*
X18985786Y-13275786D01*
X19000071Y-13304357D01*
X19014357Y-13318643D01*
X19042928Y-13332929D01*
X19100071Y-13332929D01*
X19128643Y-13318643D01*
X19142928Y-13304357D01*
X19157214Y-13275786D01*
X19414357Y-13247214D02*
X19414357Y-13447214D01*
X19342928Y-13132929D02*
X19271500Y-13347214D01*
X19457214Y-13347214D01*
X19557214Y-13147214D02*
X19557214Y-13204357D01*
X19671500Y-13147214D02*
X19671500Y-13204357D01*
X20114357Y-13561500D02*
X20100071Y-13547214D01*
X20071500Y-13504357D01*
X20057214Y-13475786D01*
X20042928Y-13432929D01*
X20028643Y-13361500D01*
X20028643Y-13304357D01*
X20042928Y-13232929D01*
X20057214Y-13190071D01*
X20071500Y-13161500D01*
X20100071Y-13118643D01*
X20114357Y-13104357D01*
X20357214Y-13247214D02*
X20357214Y-13447214D01*
X20285786Y-13132929D02*
X20214357Y-13347214D01*
X20400071Y-13347214D01*
X20571500Y-13147214D02*
X20600071Y-13147214D01*
X20628643Y-13161500D01*
X20642928Y-13175786D01*
X20657214Y-13204357D01*
X20671500Y-13261500D01*
X20671500Y-13332929D01*
X20657214Y-13390071D01*
X20642928Y-13418643D01*
X20628643Y-13432929D01*
X20600071Y-13447214D01*
X20571500Y-13447214D01*
X20542928Y-13432929D01*
X20528643Y-13418643D01*
X20514357Y-13390071D01*
X20500071Y-13332929D01*
X20500071Y-13261500D01*
X20514357Y-13204357D01*
X20528643Y-13175786D01*
X20542928Y-13161500D01*
X20571500Y-13147214D01*
X21028643Y-13447214D02*
X21028643Y-13147214D01*
X21157214Y-13447214D02*
X21157214Y-13290071D01*
X21142928Y-13261500D01*
X21114357Y-13247214D01*
X21071500Y-13247214D01*
X21042928Y-13261500D01*
X21028643Y-13275786D01*
X21342928Y-13447214D02*
X21314357Y-13432929D01*
X21300071Y-13418643D01*
X21285786Y-13390071D01*
X21285786Y-13304357D01*
X21300071Y-13275786D01*
X21314357Y-13261500D01*
X21342928Y-13247214D01*
X21385786Y-13247214D01*
X21414357Y-13261500D01*
X21428643Y-13275786D01*
X21442928Y-13304357D01*
X21442928Y-13390071D01*
X21428643Y-13418643D01*
X21414357Y-13432929D01*
X21385786Y-13447214D01*
X21342928Y-13447214D01*
X21614357Y-13447214D02*
X21585786Y-13432929D01*
X21571500Y-13404357D01*
X21571500Y-13147214D01*
X21842928Y-13432929D02*
X21814357Y-13447214D01*
X21757214Y-13447214D01*
X21728643Y-13432929D01*
X21714357Y-13404357D01*
X21714357Y-13290071D01*
X21728643Y-13261500D01*
X21757214Y-13247214D01*
X21814357Y-13247214D01*
X21842928Y-13261500D01*
X21857214Y-13290071D01*
X21857214Y-13318643D01*
X21714357Y-13347214D01*
X21971500Y-13432929D02*
X22000071Y-13447214D01*
X22057214Y-13447214D01*
X22085786Y-13432929D01*
X22100071Y-13404357D01*
X22100071Y-13390071D01*
X22085786Y-13361500D01*
X22057214Y-13347214D01*
X22014357Y-13347214D01*
X21985786Y-13332929D01*
X21971500Y-13304357D01*
X21971500Y-13290071D01*
X21985786Y-13261500D01*
X22014357Y-13247214D01*
X22057214Y-13247214D01*
X22085786Y-13261500D01*
X22200071Y-13561500D02*
X22214357Y-13547214D01*
X22242928Y-13504357D01*
X22257214Y-13475786D01*
X22271500Y-13432929D01*
X22285786Y-13361500D01*
X22285786Y-13304357D01*
X22271500Y-13232929D01*
X22257214Y-13190071D01*
X22242928Y-13161500D01*
X22214357Y-13118643D01*
X22200071Y-13104357D01*
X14840391Y-13746391D02*
X14840391Y-13668609D01*
X14762609Y-13668609D01*
X14762609Y-13746391D01*
X14840391Y-13746391D01*
X15300071Y-13843214D02*
X15128643Y-13843214D01*
X15214357Y-13843214D02*
X15214357Y-13543214D01*
X15185786Y-13586071D01*
X15157214Y-13614643D01*
X15128643Y-13628929D01*
X15428643Y-13814643D02*
X15442928Y-13828929D01*
X15428643Y-13843214D01*
X15414357Y-13828929D01*
X15428643Y-13814643D01*
X15428643Y-13843214D01*
X15728643Y-13843214D02*
X15557214Y-13843214D01*
X15642928Y-13843214D02*
X15642928Y-13543214D01*
X15614357Y-13586071D01*
X15585786Y-13614643D01*
X15557214Y-13628929D01*
X15914357Y-13543214D02*
X15942928Y-13543214D01*
X15971500Y-13557500D01*
X15985786Y-13571786D01*
X16000071Y-13600357D01*
X16014357Y-13657500D01*
X16014357Y-13728929D01*
X16000071Y-13786071D01*
X15985786Y-13814643D01*
X15971500Y-13828929D01*
X15942928Y-13843214D01*
X15914357Y-13843214D01*
X15885786Y-13828929D01*
X15871500Y-13814643D01*
X15857214Y-13786071D01*
X15842928Y-13728929D01*
X15842928Y-13657500D01*
X15857214Y-13600357D01*
X15871500Y-13571786D01*
X15885786Y-13557500D01*
X15914357Y-13543214D01*
X16200071Y-13543214D02*
X16228643Y-13543214D01*
X16257214Y-13557500D01*
X16271500Y-13571786D01*
X16285786Y-13600357D01*
X16300071Y-13657500D01*
X16300071Y-13728929D01*
X16285786Y-13786071D01*
X16271500Y-13814643D01*
X16257214Y-13828929D01*
X16228643Y-13843214D01*
X16200071Y-13843214D01*
X16171500Y-13828929D01*
X16157214Y-13814643D01*
X16142928Y-13786071D01*
X16128643Y-13728929D01*
X16128643Y-13657500D01*
X16142928Y-13600357D01*
X16157214Y-13571786D01*
X16171500Y-13557500D01*
X16200071Y-13543214D01*
X16428643Y-13843214D02*
X16428643Y-13643214D01*
X16428643Y-13671786D02*
X16442928Y-13657500D01*
X16471500Y-13643214D01*
X16514357Y-13643214D01*
X16542928Y-13657500D01*
X16557214Y-13686071D01*
X16557214Y-13843214D01*
X16557214Y-13686071D02*
X16571500Y-13657500D01*
X16600071Y-13643214D01*
X16642928Y-13643214D01*
X16671500Y-13657500D01*
X16685786Y-13686071D01*
X16685786Y-13843214D01*
X16828643Y-13843214D02*
X16828643Y-13643214D01*
X16828643Y-13671786D02*
X16842928Y-13657500D01*
X16871500Y-13643214D01*
X16914357Y-13643214D01*
X16942928Y-13657500D01*
X16957214Y-13686071D01*
X16957214Y-13843214D01*
X16957214Y-13686071D02*
X16971500Y-13657500D01*
X17000071Y-13643214D01*
X17042928Y-13643214D01*
X17071500Y-13657500D01*
X17085786Y-13686071D01*
X17085786Y-13843214D01*
X17671500Y-13528929D02*
X17414357Y-13914643D01*
X18057214Y-13543214D02*
X18085786Y-13543214D01*
X18114357Y-13557500D01*
X18128643Y-13571786D01*
X18142928Y-13600357D01*
X18157214Y-13657500D01*
X18157214Y-13728929D01*
X18142928Y-13786071D01*
X18128643Y-13814643D01*
X18114357Y-13828929D01*
X18085786Y-13843214D01*
X18057214Y-13843214D01*
X18028643Y-13828929D01*
X18014357Y-13814643D01*
X18000071Y-13786071D01*
X17985786Y-13728929D01*
X17985786Y-13657500D01*
X18000071Y-13600357D01*
X18014357Y-13571786D01*
X18028643Y-13557500D01*
X18057214Y-13543214D01*
X18285786Y-13814643D02*
X18300071Y-13828929D01*
X18285786Y-13843214D01*
X18271500Y-13828929D01*
X18285786Y-13814643D01*
X18285786Y-13843214D01*
X18485786Y-13543214D02*
X18514357Y-13543214D01*
X18542928Y-13557500D01*
X18557214Y-13571786D01*
X18571500Y-13600357D01*
X18585786Y-13657500D01*
X18585786Y-13728929D01*
X18571500Y-13786071D01*
X18557214Y-13814643D01*
X18542928Y-13828929D01*
X18514357Y-13843214D01*
X18485786Y-13843214D01*
X18457214Y-13828929D01*
X18442928Y-13814643D01*
X18428643Y-13786071D01*
X18414357Y-13728929D01*
X18414357Y-13657500D01*
X18428643Y-13600357D01*
X18442928Y-13571786D01*
X18457214Y-13557500D01*
X18485786Y-13543214D01*
X18842928Y-13643214D02*
X18842928Y-13843214D01*
X18771500Y-13528929D02*
X18700071Y-13743214D01*
X18885786Y-13743214D01*
X18971500Y-13543214D02*
X19157214Y-13543214D01*
X19057214Y-13657500D01*
X19100071Y-13657500D01*
X19128643Y-13671786D01*
X19142928Y-13686071D01*
X19157214Y-13714643D01*
X19157214Y-13786071D01*
X19142928Y-13814643D01*
X19128643Y-13828929D01*
X19100071Y-13843214D01*
X19014357Y-13843214D01*
X18985786Y-13828929D01*
X18971500Y-13814643D01*
X19257214Y-13543214D02*
X19442928Y-13543214D01*
X19342928Y-13657500D01*
X19385786Y-13657500D01*
X19414357Y-13671786D01*
X19428643Y-13686071D01*
X19442928Y-13714643D01*
X19442928Y-13786071D01*
X19428643Y-13814643D01*
X19414357Y-13828929D01*
X19385786Y-13843214D01*
X19300071Y-13843214D01*
X19271500Y-13828929D01*
X19257214Y-13814643D01*
X19557214Y-13543214D02*
X19557214Y-13600357D01*
X19671500Y-13543214D02*
X19671500Y-13600357D01*
X20114357Y-13957500D02*
X20100071Y-13943214D01*
X20071500Y-13900357D01*
X20057214Y-13871786D01*
X20042928Y-13828929D01*
X20028643Y-13757500D01*
X20028643Y-13700357D01*
X20042928Y-13628929D01*
X20057214Y-13586071D01*
X20071500Y-13557500D01*
X20100071Y-13514643D01*
X20114357Y-13500357D01*
X20200071Y-13543214D02*
X20385786Y-13543214D01*
X20285786Y-13657500D01*
X20328643Y-13657500D01*
X20357214Y-13671786D01*
X20371500Y-13686071D01*
X20385786Y-13714643D01*
X20385786Y-13786071D01*
X20371500Y-13814643D01*
X20357214Y-13828929D01*
X20328643Y-13843214D01*
X20242928Y-13843214D01*
X20214357Y-13828929D01*
X20200071Y-13814643D01*
X20642928Y-13643214D02*
X20642928Y-13843214D01*
X20571500Y-13528929D02*
X20500071Y-13743214D01*
X20685786Y-13743214D01*
X21028643Y-13843214D02*
X21028643Y-13543214D01*
X21157214Y-13843214D02*
X21157214Y-13686071D01*
X21142928Y-13657500D01*
X21114357Y-13643214D01*
X21071500Y-13643214D01*
X21042928Y-13657500D01*
X21028643Y-13671786D01*
X21342928Y-13843214D02*
X21314357Y-13828929D01*
X21300071Y-13814643D01*
X21285786Y-13786071D01*
X21285786Y-13700357D01*
X21300071Y-13671786D01*
X21314357Y-13657500D01*
X21342928Y-13643214D01*
X21385786Y-13643214D01*
X21414357Y-13657500D01*
X21428643Y-13671786D01*
X21442928Y-13700357D01*
X21442928Y-13786071D01*
X21428643Y-13814643D01*
X21414357Y-13828929D01*
X21385786Y-13843214D01*
X21342928Y-13843214D01*
X21614357Y-13843214D02*
X21585786Y-13828929D01*
X21571500Y-13800357D01*
X21571500Y-13543214D01*
X21842928Y-13828929D02*
X21814357Y-13843214D01*
X21757214Y-13843214D01*
X21728643Y-13828929D01*
X21714357Y-13800357D01*
X21714357Y-13686071D01*
X21728643Y-13657500D01*
X21757214Y-13643214D01*
X21814357Y-13643214D01*
X21842928Y-13657500D01*
X21857214Y-13686071D01*
X21857214Y-13714643D01*
X21714357Y-13743214D01*
X21971500Y-13828929D02*
X22000071Y-13843214D01*
X22057214Y-13843214D01*
X22085786Y-13828929D01*
X22100071Y-13800357D01*
X22100071Y-13786071D01*
X22085786Y-13757500D01*
X22057214Y-13743214D01*
X22014357Y-13743214D01*
X21985786Y-13728929D01*
X21971500Y-13700357D01*
X21971500Y-13686071D01*
X21985786Y-13657500D01*
X22014357Y-13643214D01*
X22057214Y-13643214D01*
X22085786Y-13657500D01*
X22200071Y-13957500D02*
X22214357Y-13943214D01*
X22242928Y-13900357D01*
X22257214Y-13871786D01*
X22271500Y-13828929D01*
X22285786Y-13757500D01*
X22285786Y-13700357D01*
X22271500Y-13628929D01*
X22257214Y-13586071D01*
X22242928Y-13557500D01*
X22214357Y-13514643D01*
X22200071Y-13500357D01*
M02*
