G04 #@! TF.GenerationSoftware,KiCad,Pcbnew,(5.1.10)-1*
G04 #@! TF.CreationDate,2022-03-14T22:22:12+09:00*
G04 #@! TF.ProjectId,teensy4_header_breakout,7465656e-7379-4345-9f68-65616465725f,rev?*
G04 #@! TF.SameCoordinates,Original*
G04 #@! TF.FileFunction,Legend,Bot*
G04 #@! TF.FilePolarity,Positive*
%FSLAX46Y46*%
G04 Gerber Fmt 4.6, Leading zero omitted, Abs format (unit mm)*
G04 Created by KiCad (PCBNEW (5.1.10)-1) date 2022-03-14 22:22:12*
%MOMM*%
%LPD*%
G01*
G04 APERTURE LIST*
%ADD10C,0.120000*%
%ADD11C,0.076200*%
%ADD12C,0.127000*%
%ADD13C,0.150000*%
%ADD14C,0.203200*%
%ADD15C,0.300000*%
%ADD16C,1.505600*%
%ADD17C,1.405600*%
%ADD18C,0.905600*%
%ADD19O,1.801600X1.801600*%
%ADD20C,1.801600*%
G04 APERTURE END LIST*
D10*
X149809200Y-88061800D02*
X148793200Y-88061800D01*
X149860000Y-93116400D02*
X148793200Y-93116400D01*
X149834600Y-95656400D02*
X148742400Y-95631000D01*
X149885400Y-98221800D02*
X148767800Y-98221800D01*
X149860000Y-100761800D02*
X148793200Y-100761800D01*
X149860000Y-103276400D02*
X148767800Y-103276400D01*
X148717000Y-108331000D02*
X149860000Y-108331000D01*
X148793200Y-110871000D02*
X149860000Y-110896400D01*
X148767800Y-113385600D02*
X149910800Y-113385600D01*
D11*
X150331714Y-112895742D02*
X150210761Y-113234409D01*
X150089809Y-112895742D01*
X149896285Y-113234409D02*
X149896285Y-112726409D01*
X149896285Y-112919933D02*
X149847904Y-112895742D01*
X149751142Y-112895742D01*
X149702761Y-112919933D01*
X149678571Y-112944123D01*
X149654380Y-112992504D01*
X149654380Y-113137647D01*
X149678571Y-113186028D01*
X149702761Y-113210219D01*
X149751142Y-113234409D01*
X149847904Y-113234409D01*
X149896285Y-113210219D01*
X149218952Y-113234409D02*
X149218952Y-112968314D01*
X149243142Y-112919933D01*
X149291523Y-112895742D01*
X149388285Y-112895742D01*
X149436666Y-112919933D01*
X149218952Y-113210219D02*
X149267333Y-113234409D01*
X149388285Y-113234409D01*
X149436666Y-113210219D01*
X149460857Y-113161838D01*
X149460857Y-113113457D01*
X149436666Y-113065076D01*
X149388285Y-113040885D01*
X149267333Y-113040885D01*
X149218952Y-113016695D01*
X149049619Y-112895742D02*
X148856095Y-112895742D01*
X148977047Y-112726409D02*
X148977047Y-113161838D01*
X148952857Y-113210219D01*
X148904476Y-113234409D01*
X148856095Y-113234409D01*
X149585438Y-110262609D02*
X149270961Y-110262609D01*
X149440295Y-110456133D01*
X149367723Y-110456133D01*
X149319342Y-110480323D01*
X149295152Y-110504514D01*
X149270961Y-110552895D01*
X149270961Y-110673847D01*
X149295152Y-110722228D01*
X149319342Y-110746419D01*
X149367723Y-110770609D01*
X149512866Y-110770609D01*
X149561247Y-110746419D01*
X149585438Y-110722228D01*
X148956485Y-110262609D02*
X148908104Y-110262609D01*
X148859723Y-110286800D01*
X148835533Y-110310990D01*
X148811342Y-110359371D01*
X148787152Y-110456133D01*
X148787152Y-110577085D01*
X148811342Y-110673847D01*
X148835533Y-110722228D01*
X148859723Y-110746419D01*
X148908104Y-110770609D01*
X148956485Y-110770609D01*
X149004866Y-110746419D01*
X149029057Y-110722228D01*
X149053247Y-110673847D01*
X149077438Y-110577085D01*
X149077438Y-110456133D01*
X149053247Y-110359371D01*
X149029057Y-110310990D01*
X149004866Y-110286800D01*
X148956485Y-110262609D01*
X149534638Y-107671809D02*
X149220161Y-107671809D01*
X149389495Y-107865333D01*
X149316923Y-107865333D01*
X149268542Y-107889523D01*
X149244352Y-107913714D01*
X149220161Y-107962095D01*
X149220161Y-108083047D01*
X149244352Y-108131428D01*
X149268542Y-108155619D01*
X149316923Y-108179809D01*
X149462066Y-108179809D01*
X149510447Y-108155619D01*
X149534638Y-108131428D01*
X149026638Y-107720190D02*
X149002447Y-107696000D01*
X148954066Y-107671809D01*
X148833114Y-107671809D01*
X148784733Y-107696000D01*
X148760542Y-107720190D01*
X148736352Y-107768571D01*
X148736352Y-107816952D01*
X148760542Y-107889523D01*
X149050828Y-108179809D01*
X148736352Y-108179809D01*
X149585438Y-105131809D02*
X149270961Y-105131809D01*
X149440295Y-105325333D01*
X149367723Y-105325333D01*
X149319342Y-105349523D01*
X149295152Y-105373714D01*
X149270961Y-105422095D01*
X149270961Y-105543047D01*
X149295152Y-105591428D01*
X149319342Y-105615619D01*
X149367723Y-105639809D01*
X149512866Y-105639809D01*
X149561247Y-105615619D01*
X149585438Y-105591428D01*
X149101628Y-105131809D02*
X148787152Y-105131809D01*
X148956485Y-105325333D01*
X148883914Y-105325333D01*
X148835533Y-105349523D01*
X148811342Y-105373714D01*
X148787152Y-105422095D01*
X148787152Y-105543047D01*
X148811342Y-105591428D01*
X148835533Y-105615619D01*
X148883914Y-105639809D01*
X149029057Y-105639809D01*
X149077438Y-105615619D01*
X149101628Y-105591428D01*
X149585438Y-102617209D02*
X149270961Y-102617209D01*
X149440295Y-102810733D01*
X149367723Y-102810733D01*
X149319342Y-102834923D01*
X149295152Y-102859114D01*
X149270961Y-102907495D01*
X149270961Y-103028447D01*
X149295152Y-103076828D01*
X149319342Y-103101019D01*
X149367723Y-103125209D01*
X149512866Y-103125209D01*
X149561247Y-103101019D01*
X149585438Y-103076828D01*
X148787152Y-103125209D02*
X149077438Y-103125209D01*
X148932295Y-103125209D02*
X148932295Y-102617209D01*
X148980676Y-102689780D01*
X149029057Y-102738161D01*
X149077438Y-102762352D01*
X149586647Y-100100190D02*
X149562457Y-100076000D01*
X149514076Y-100051809D01*
X149393123Y-100051809D01*
X149344742Y-100076000D01*
X149320552Y-100100190D01*
X149296361Y-100148571D01*
X149296361Y-100196952D01*
X149320552Y-100269523D01*
X149610838Y-100559809D01*
X149296361Y-100559809D01*
X149054457Y-100559809D02*
X148957695Y-100559809D01*
X148909314Y-100535619D01*
X148885123Y-100511428D01*
X148836742Y-100438857D01*
X148812552Y-100342095D01*
X148812552Y-100148571D01*
X148836742Y-100100190D01*
X148860933Y-100076000D01*
X148909314Y-100051809D01*
X149006076Y-100051809D01*
X149054457Y-100076000D01*
X149078647Y-100100190D01*
X149102838Y-100148571D01*
X149102838Y-100269523D01*
X149078647Y-100317904D01*
X149054457Y-100342095D01*
X149006076Y-100366285D01*
X148909314Y-100366285D01*
X148860933Y-100342095D01*
X148836742Y-100317904D01*
X148812552Y-100269523D01*
X149534638Y-97562609D02*
X149220161Y-97562609D01*
X149389495Y-97756133D01*
X149316923Y-97756133D01*
X149268542Y-97780323D01*
X149244352Y-97804514D01*
X149220161Y-97852895D01*
X149220161Y-97973847D01*
X149244352Y-98022228D01*
X149268542Y-98046419D01*
X149316923Y-98070609D01*
X149462066Y-98070609D01*
X149510447Y-98046419D01*
X149534638Y-98022228D01*
X148978257Y-98070609D02*
X148881495Y-98070609D01*
X148833114Y-98046419D01*
X148808923Y-98022228D01*
X148760542Y-97949657D01*
X148736352Y-97852895D01*
X148736352Y-97659371D01*
X148760542Y-97610990D01*
X148784733Y-97586800D01*
X148833114Y-97562609D01*
X148929876Y-97562609D01*
X148978257Y-97586800D01*
X149002447Y-97610990D01*
X149026638Y-97659371D01*
X149026638Y-97780323D01*
X149002447Y-97828704D01*
X148978257Y-97852895D01*
X148929876Y-97877085D01*
X148833114Y-97877085D01*
X148784733Y-97852895D01*
X148760542Y-97828704D01*
X148736352Y-97780323D01*
X149560038Y-94997209D02*
X149245561Y-94997209D01*
X149414895Y-95190733D01*
X149342323Y-95190733D01*
X149293942Y-95214923D01*
X149269752Y-95239114D01*
X149245561Y-95287495D01*
X149245561Y-95408447D01*
X149269752Y-95456828D01*
X149293942Y-95481019D01*
X149342323Y-95505209D01*
X149487466Y-95505209D01*
X149535847Y-95481019D01*
X149560038Y-95456828D01*
X148955276Y-95214923D02*
X149003657Y-95190733D01*
X149027847Y-95166542D01*
X149052038Y-95118161D01*
X149052038Y-95093971D01*
X149027847Y-95045590D01*
X149003657Y-95021400D01*
X148955276Y-94997209D01*
X148858514Y-94997209D01*
X148810133Y-95021400D01*
X148785942Y-95045590D01*
X148761752Y-95093971D01*
X148761752Y-95118161D01*
X148785942Y-95166542D01*
X148810133Y-95190733D01*
X148858514Y-95214923D01*
X148955276Y-95214923D01*
X149003657Y-95239114D01*
X149027847Y-95263304D01*
X149052038Y-95311685D01*
X149052038Y-95408447D01*
X149027847Y-95456828D01*
X149003657Y-95481019D01*
X148955276Y-95505209D01*
X148858514Y-95505209D01*
X148810133Y-95481019D01*
X148785942Y-95456828D01*
X148761752Y-95408447D01*
X148761752Y-95311685D01*
X148785942Y-95263304D01*
X148810133Y-95239114D01*
X148858514Y-95214923D01*
X149610838Y-92457209D02*
X149296361Y-92457209D01*
X149465695Y-92650733D01*
X149393123Y-92650733D01*
X149344742Y-92674923D01*
X149320552Y-92699114D01*
X149296361Y-92747495D01*
X149296361Y-92868447D01*
X149320552Y-92916828D01*
X149344742Y-92941019D01*
X149393123Y-92965209D01*
X149538266Y-92965209D01*
X149586647Y-92941019D01*
X149610838Y-92916828D01*
X149127028Y-92457209D02*
X148788361Y-92457209D01*
X149006076Y-92965209D01*
D10*
X149860000Y-90627200D02*
X148844000Y-90627200D01*
D11*
X150007561Y-89942609D02*
X149693085Y-89942609D01*
X149862419Y-90136133D01*
X149789847Y-90136133D01*
X149741466Y-90160323D01*
X149717276Y-90184514D01*
X149693085Y-90232895D01*
X149693085Y-90353847D01*
X149717276Y-90402228D01*
X149741466Y-90426419D01*
X149789847Y-90450609D01*
X149934990Y-90450609D01*
X149983371Y-90426419D01*
X150007561Y-90402228D01*
X149523752Y-90111942D02*
X149402800Y-90450609D01*
X149281847Y-90111942D01*
X149136704Y-89942609D02*
X148822228Y-89942609D01*
X148991561Y-90136133D01*
X148918990Y-90136133D01*
X148870609Y-90160323D01*
X148846419Y-90184514D01*
X148822228Y-90232895D01*
X148822228Y-90353847D01*
X148846419Y-90402228D01*
X148870609Y-90426419D01*
X148918990Y-90450609D01*
X149064133Y-90450609D01*
X149112514Y-90426419D01*
X149136704Y-90402228D01*
X149610838Y-87402609D02*
X149296361Y-87402609D01*
X149465695Y-87596133D01*
X149393123Y-87596133D01*
X149344742Y-87620323D01*
X149320552Y-87644514D01*
X149296361Y-87692895D01*
X149296361Y-87813847D01*
X149320552Y-87862228D01*
X149344742Y-87886419D01*
X149393123Y-87910609D01*
X149538266Y-87910609D01*
X149586647Y-87886419D01*
X149610838Y-87862228D01*
X148860933Y-87402609D02*
X148957695Y-87402609D01*
X149006076Y-87426800D01*
X149030266Y-87450990D01*
X149078647Y-87523561D01*
X149102838Y-87620323D01*
X149102838Y-87813847D01*
X149078647Y-87862228D01*
X149054457Y-87886419D01*
X149006076Y-87910609D01*
X148909314Y-87910609D01*
X148860933Y-87886419D01*
X148836742Y-87862228D01*
X148812552Y-87813847D01*
X148812552Y-87692895D01*
X148836742Y-87644514D01*
X148860933Y-87620323D01*
X148909314Y-87596133D01*
X149006076Y-87596133D01*
X149054457Y-87620323D01*
X149078647Y-87644514D01*
X149102838Y-87692895D01*
D10*
X148844000Y-85598000D02*
X149860000Y-85598000D01*
X150114000Y-82550000D02*
X150114000Y-81788000D01*
X148844000Y-83058000D02*
X149860000Y-83058000D01*
D11*
X151033238Y-82271809D02*
X150718761Y-82271809D01*
X150888095Y-82465333D01*
X150815523Y-82465333D01*
X150767142Y-82489523D01*
X150742952Y-82513714D01*
X150718761Y-82562095D01*
X150718761Y-82683047D01*
X150742952Y-82731428D01*
X150767142Y-82755619D01*
X150815523Y-82779809D01*
X150960666Y-82779809D01*
X151009047Y-82755619D01*
X151033238Y-82731428D01*
X150283333Y-82441142D02*
X150283333Y-82779809D01*
X150404285Y-82247619D02*
X150525238Y-82610476D01*
X150210761Y-82610476D01*
X149509238Y-82271809D02*
X149194761Y-82271809D01*
X149364095Y-82465333D01*
X149291523Y-82465333D01*
X149243142Y-82489523D01*
X149218952Y-82513714D01*
X149194761Y-82562095D01*
X149194761Y-82683047D01*
X149218952Y-82731428D01*
X149243142Y-82755619D01*
X149291523Y-82779809D01*
X149436666Y-82779809D01*
X149485047Y-82755619D01*
X149509238Y-82731428D01*
X148735142Y-82271809D02*
X148977047Y-82271809D01*
X149001238Y-82513714D01*
X148977047Y-82489523D01*
X148928666Y-82465333D01*
X148807714Y-82465333D01*
X148759333Y-82489523D01*
X148735142Y-82513714D01*
X148710952Y-82562095D01*
X148710952Y-82683047D01*
X148735142Y-82731428D01*
X148759333Y-82755619D01*
X148807714Y-82779809D01*
X148928666Y-82779809D01*
X148977047Y-82755619D01*
X149001238Y-82731428D01*
X149702761Y-84981142D02*
X149702761Y-85392380D01*
X149726952Y-85440761D01*
X149751142Y-85464952D01*
X149799523Y-85489142D01*
X149872095Y-85489142D01*
X149920476Y-85464952D01*
X149702761Y-85295619D02*
X149751142Y-85319809D01*
X149847904Y-85319809D01*
X149896285Y-85295619D01*
X149920476Y-85271428D01*
X149944666Y-85223047D01*
X149944666Y-85077904D01*
X149920476Y-85029523D01*
X149896285Y-85005333D01*
X149847904Y-84981142D01*
X149751142Y-84981142D01*
X149702761Y-85005333D01*
X149460857Y-84981142D02*
X149460857Y-85319809D01*
X149460857Y-85029523D02*
X149436666Y-85005333D01*
X149388285Y-84981142D01*
X149315714Y-84981142D01*
X149267333Y-85005333D01*
X149243142Y-85053714D01*
X149243142Y-85319809D01*
X148783523Y-85319809D02*
X148783523Y-84811809D01*
X148783523Y-85295619D02*
X148831904Y-85319809D01*
X148928666Y-85319809D01*
X148977047Y-85295619D01*
X149001238Y-85271428D01*
X149025428Y-85223047D01*
X149025428Y-85077904D01*
X149001238Y-85029523D01*
X148977047Y-85005333D01*
X148928666Y-84981142D01*
X148831904Y-84981142D01*
X148783523Y-85005333D01*
D10*
X169164000Y-80264000D02*
X169672000Y-80772000D01*
X166497000Y-80264000D02*
X169164000Y-80264000D01*
X171196000Y-108458000D02*
X170180000Y-108458000D01*
X171450000Y-113538000D02*
X170688000Y-113538000D01*
X171196000Y-110998000D02*
X170180000Y-110998000D01*
X171196000Y-105918000D02*
X170180000Y-105918000D01*
X171196000Y-103378000D02*
X170180000Y-103378000D01*
X171196000Y-100838000D02*
X170180000Y-100838000D01*
X171196000Y-98298000D02*
X170180000Y-98298000D01*
X171196000Y-95758000D02*
X170180000Y-95758000D01*
X171196000Y-93218000D02*
X170180000Y-93218000D01*
X171196000Y-90678000D02*
X170180000Y-90678000D01*
X171196000Y-88138000D02*
X170180000Y-88138000D01*
X171196000Y-85598000D02*
X170180000Y-85598000D01*
X171196000Y-83058000D02*
X170180000Y-83058000D01*
D11*
X166190990Y-80409142D02*
X166070038Y-80747809D01*
X165949085Y-80409142D01*
X165537847Y-80409142D02*
X165537847Y-80747809D01*
X165755561Y-80409142D02*
X165755561Y-80675238D01*
X165731371Y-80723619D01*
X165682990Y-80747809D01*
X165610419Y-80747809D01*
X165562038Y-80723619D01*
X165537847Y-80699428D01*
X165320133Y-80723619D02*
X165271752Y-80747809D01*
X165174990Y-80747809D01*
X165126609Y-80723619D01*
X165102419Y-80675238D01*
X165102419Y-80651047D01*
X165126609Y-80602666D01*
X165174990Y-80578476D01*
X165247561Y-80578476D01*
X165295942Y-80554285D01*
X165320133Y-80505904D01*
X165320133Y-80481714D01*
X165295942Y-80433333D01*
X165247561Y-80409142D01*
X165174990Y-80409142D01*
X165126609Y-80433333D01*
X164884704Y-80747809D02*
X164884704Y-80239809D01*
X164884704Y-80433333D02*
X164836323Y-80409142D01*
X164739561Y-80409142D01*
X164691180Y-80433333D01*
X164666990Y-80457523D01*
X164642800Y-80505904D01*
X164642800Y-80651047D01*
X164666990Y-80699428D01*
X164691180Y-80723619D01*
X164739561Y-80747809D01*
X164836323Y-80747809D01*
X164884704Y-80723619D01*
X171135523Y-82779809D02*
X171135523Y-82271809D01*
X171014571Y-82271809D01*
X170942000Y-82296000D01*
X170893619Y-82344380D01*
X170869428Y-82392761D01*
X170845238Y-82489523D01*
X170845238Y-82562095D01*
X170869428Y-82658857D01*
X170893619Y-82707238D01*
X170942000Y-82755619D01*
X171014571Y-82779809D01*
X171135523Y-82779809D01*
X170627523Y-82586285D02*
X170240476Y-82586285D01*
X171135523Y-85319809D02*
X171135523Y-84811809D01*
X171014571Y-84811809D01*
X170942000Y-84836000D01*
X170893619Y-84884380D01*
X170869428Y-84932761D01*
X170845238Y-85029523D01*
X170845238Y-85102095D01*
X170869428Y-85198857D01*
X170893619Y-85247238D01*
X170942000Y-85295619D01*
X171014571Y-85319809D01*
X171135523Y-85319809D01*
X170627523Y-85126285D02*
X170240476Y-85126285D01*
X170434000Y-85319809D02*
X170434000Y-84932761D01*
X171064161Y-90061142D02*
X171064161Y-90472380D01*
X171088352Y-90520761D01*
X171112542Y-90544952D01*
X171160923Y-90569142D01*
X171233495Y-90569142D01*
X171281876Y-90544952D01*
X171064161Y-90375619D02*
X171112542Y-90399809D01*
X171209304Y-90399809D01*
X171257685Y-90375619D01*
X171281876Y-90351428D01*
X171306066Y-90303047D01*
X171306066Y-90157904D01*
X171281876Y-90109523D01*
X171257685Y-90085333D01*
X171209304Y-90061142D01*
X171112542Y-90061142D01*
X171064161Y-90085333D01*
X170822257Y-90061142D02*
X170822257Y-90399809D01*
X170822257Y-90109523D02*
X170798066Y-90085333D01*
X170749685Y-90061142D01*
X170677114Y-90061142D01*
X170628733Y-90085333D01*
X170604542Y-90133714D01*
X170604542Y-90399809D01*
X170144923Y-90399809D02*
X170144923Y-89891809D01*
X170144923Y-90375619D02*
X170193304Y-90399809D01*
X170290066Y-90399809D01*
X170338447Y-90375619D01*
X170362638Y-90351428D01*
X170386828Y-90303047D01*
X170386828Y-90157904D01*
X170362638Y-90109523D01*
X170338447Y-90085333D01*
X170290066Y-90061142D01*
X170193304Y-90061142D01*
X170144923Y-90085333D01*
X171064161Y-87521142D02*
X171064161Y-87932380D01*
X171088352Y-87980761D01*
X171112542Y-88004952D01*
X171160923Y-88029142D01*
X171233495Y-88029142D01*
X171281876Y-88004952D01*
X171064161Y-87835619D02*
X171112542Y-87859809D01*
X171209304Y-87859809D01*
X171257685Y-87835619D01*
X171281876Y-87811428D01*
X171306066Y-87763047D01*
X171306066Y-87617904D01*
X171281876Y-87569523D01*
X171257685Y-87545333D01*
X171209304Y-87521142D01*
X171112542Y-87521142D01*
X171064161Y-87545333D01*
X170822257Y-87521142D02*
X170822257Y-87859809D01*
X170822257Y-87569523D02*
X170798066Y-87545333D01*
X170749685Y-87521142D01*
X170677114Y-87521142D01*
X170628733Y-87545333D01*
X170604542Y-87593714D01*
X170604542Y-87859809D01*
X170144923Y-87859809D02*
X170144923Y-87351809D01*
X170144923Y-87835619D02*
X170193304Y-87859809D01*
X170290066Y-87859809D01*
X170338447Y-87835619D01*
X170362638Y-87811428D01*
X170386828Y-87763047D01*
X170386828Y-87617904D01*
X170362638Y-87569523D01*
X170338447Y-87545333D01*
X170290066Y-87521142D01*
X170193304Y-87521142D01*
X170144923Y-87545333D01*
X171280666Y-113259809D02*
X171329047Y-113235619D01*
X171353238Y-113211428D01*
X171377428Y-113163047D01*
X171377428Y-113017904D01*
X171353238Y-112969523D01*
X171329047Y-112945333D01*
X171280666Y-112921142D01*
X171208095Y-112921142D01*
X171159714Y-112945333D01*
X171135523Y-112969523D01*
X171111333Y-113017904D01*
X171111333Y-113163047D01*
X171135523Y-113211428D01*
X171159714Y-113235619D01*
X171208095Y-113259809D01*
X171280666Y-113259809D01*
X170893619Y-112921142D02*
X170893619Y-113259809D01*
X170893619Y-112969523D02*
X170869428Y-112945333D01*
X170821047Y-112921142D01*
X170748476Y-112921142D01*
X170700095Y-112945333D01*
X170675904Y-112993714D01*
X170675904Y-113259809D01*
X170434000Y-113066285D02*
X170046952Y-113066285D01*
X169732476Y-113259809D02*
X169780857Y-113235619D01*
X169805047Y-113211428D01*
X169829238Y-113163047D01*
X169829238Y-113017904D01*
X169805047Y-112969523D01*
X169780857Y-112945333D01*
X169732476Y-112921142D01*
X169659904Y-112921142D01*
X169611523Y-112945333D01*
X169587333Y-112969523D01*
X169563142Y-113017904D01*
X169563142Y-113163047D01*
X169587333Y-113211428D01*
X169611523Y-113235619D01*
X169659904Y-113259809D01*
X169732476Y-113259809D01*
X169418000Y-112921142D02*
X169224476Y-112921142D01*
X169345428Y-113259809D02*
X169345428Y-112824380D01*
X169321238Y-112776000D01*
X169272857Y-112751809D01*
X169224476Y-112751809D01*
X169127714Y-112921142D02*
X168934190Y-112921142D01*
X169055142Y-113259809D02*
X169055142Y-112824380D01*
X169030952Y-112776000D01*
X168982571Y-112751809D01*
X168934190Y-112751809D01*
X171289133Y-110304942D02*
X171289133Y-110812942D01*
X171289133Y-110329133D02*
X171240752Y-110304942D01*
X171143990Y-110304942D01*
X171095609Y-110329133D01*
X171071419Y-110353323D01*
X171047228Y-110401704D01*
X171047228Y-110546847D01*
X171071419Y-110595228D01*
X171095609Y-110619419D01*
X171143990Y-110643609D01*
X171240752Y-110643609D01*
X171289133Y-110619419D01*
X170611800Y-110304942D02*
X170611800Y-110716180D01*
X170635990Y-110764561D01*
X170660180Y-110788752D01*
X170708561Y-110812942D01*
X170781133Y-110812942D01*
X170829514Y-110788752D01*
X170611800Y-110619419D02*
X170660180Y-110643609D01*
X170756942Y-110643609D01*
X170805323Y-110619419D01*
X170829514Y-110595228D01*
X170853704Y-110546847D01*
X170853704Y-110401704D01*
X170829514Y-110353323D01*
X170805323Y-110329133D01*
X170756942Y-110304942D01*
X170660180Y-110304942D01*
X170611800Y-110329133D01*
X170369895Y-110643609D02*
X170369895Y-110304942D01*
X170369895Y-110353323D02*
X170345704Y-110329133D01*
X170297323Y-110304942D01*
X170224752Y-110304942D01*
X170176371Y-110329133D01*
X170152180Y-110377514D01*
X170152180Y-110643609D01*
X170152180Y-110377514D02*
X170127990Y-110329133D01*
X170079609Y-110304942D01*
X170007038Y-110304942D01*
X169958657Y-110329133D01*
X169934466Y-110377514D01*
X169934466Y-110643609D01*
X171064161Y-107891942D02*
X171064161Y-108303180D01*
X171088352Y-108351561D01*
X171112542Y-108375752D01*
X171160923Y-108399942D01*
X171233495Y-108399942D01*
X171281876Y-108375752D01*
X171064161Y-108206419D02*
X171112542Y-108230609D01*
X171209304Y-108230609D01*
X171257685Y-108206419D01*
X171281876Y-108182228D01*
X171306066Y-108133847D01*
X171306066Y-107988704D01*
X171281876Y-107940323D01*
X171257685Y-107916133D01*
X171209304Y-107891942D01*
X171112542Y-107891942D01*
X171064161Y-107916133D01*
X170822257Y-107891942D02*
X170822257Y-108230609D01*
X170822257Y-107940323D02*
X170798066Y-107916133D01*
X170749685Y-107891942D01*
X170677114Y-107891942D01*
X170628733Y-107916133D01*
X170604542Y-107964514D01*
X170604542Y-108230609D01*
X170144923Y-108230609D02*
X170144923Y-107722609D01*
X170144923Y-108206419D02*
X170193304Y-108230609D01*
X170290066Y-108230609D01*
X170338447Y-108206419D01*
X170362638Y-108182228D01*
X170386828Y-108133847D01*
X170386828Y-107988704D01*
X170362638Y-107940323D01*
X170338447Y-107916133D01*
X170290066Y-107891942D01*
X170193304Y-107891942D01*
X170144923Y-107916133D01*
X171343561Y-105157209D02*
X171029085Y-105157209D01*
X171198419Y-105350733D01*
X171125847Y-105350733D01*
X171077466Y-105374923D01*
X171053276Y-105399114D01*
X171029085Y-105447495D01*
X171029085Y-105568447D01*
X171053276Y-105616828D01*
X171077466Y-105641019D01*
X171125847Y-105665209D01*
X171270990Y-105665209D01*
X171319371Y-105641019D01*
X171343561Y-105616828D01*
X170859752Y-105326542D02*
X170738800Y-105665209D01*
X170617847Y-105326542D01*
X170472704Y-105157209D02*
X170158228Y-105157209D01*
X170327561Y-105350733D01*
X170254990Y-105350733D01*
X170206609Y-105374923D01*
X170182419Y-105399114D01*
X170158228Y-105447495D01*
X170158228Y-105568447D01*
X170182419Y-105616828D01*
X170206609Y-105641019D01*
X170254990Y-105665209D01*
X170400133Y-105665209D01*
X170448514Y-105641019D01*
X170472704Y-105616828D01*
X171303647Y-102690990D02*
X171279457Y-102666800D01*
X171231076Y-102642609D01*
X171110123Y-102642609D01*
X171061742Y-102666800D01*
X171037552Y-102690990D01*
X171013361Y-102739371D01*
X171013361Y-102787752D01*
X171037552Y-102860323D01*
X171327838Y-103150609D01*
X171013361Y-103150609D01*
X170577933Y-102811942D02*
X170577933Y-103150609D01*
X170698885Y-102618419D02*
X170819838Y-102981276D01*
X170505361Y-102981276D01*
X171278247Y-100150990D02*
X171254057Y-100126800D01*
X171205676Y-100102609D01*
X171084723Y-100102609D01*
X171036342Y-100126800D01*
X171012152Y-100150990D01*
X170987961Y-100199371D01*
X170987961Y-100247752D01*
X171012152Y-100320323D01*
X171302438Y-100610609D01*
X170987961Y-100610609D01*
X170697676Y-100320323D02*
X170746057Y-100296133D01*
X170770247Y-100271942D01*
X170794438Y-100223561D01*
X170794438Y-100199371D01*
X170770247Y-100150990D01*
X170746057Y-100126800D01*
X170697676Y-100102609D01*
X170600914Y-100102609D01*
X170552533Y-100126800D01*
X170528342Y-100150990D01*
X170504152Y-100199371D01*
X170504152Y-100223561D01*
X170528342Y-100271942D01*
X170552533Y-100296133D01*
X170600914Y-100320323D01*
X170697676Y-100320323D01*
X170746057Y-100344514D01*
X170770247Y-100368704D01*
X170794438Y-100417085D01*
X170794438Y-100513847D01*
X170770247Y-100562228D01*
X170746057Y-100586419D01*
X170697676Y-100610609D01*
X170600914Y-100610609D01*
X170552533Y-100586419D01*
X170528342Y-100562228D01*
X170504152Y-100513847D01*
X170504152Y-100417085D01*
X170528342Y-100368704D01*
X170552533Y-100344514D01*
X170600914Y-100320323D01*
X171227447Y-97585590D02*
X171203257Y-97561400D01*
X171154876Y-97537209D01*
X171033923Y-97537209D01*
X170985542Y-97561400D01*
X170961352Y-97585590D01*
X170937161Y-97633971D01*
X170937161Y-97682352D01*
X170961352Y-97754923D01*
X171251638Y-98045209D01*
X170937161Y-98045209D01*
X170501733Y-97537209D02*
X170598495Y-97537209D01*
X170646876Y-97561400D01*
X170671066Y-97585590D01*
X170719447Y-97658161D01*
X170743638Y-97754923D01*
X170743638Y-97948447D01*
X170719447Y-97996828D01*
X170695257Y-98021019D01*
X170646876Y-98045209D01*
X170550114Y-98045209D01*
X170501733Y-98021019D01*
X170477542Y-97996828D01*
X170453352Y-97948447D01*
X170453352Y-97827495D01*
X170477542Y-97779114D01*
X170501733Y-97754923D01*
X170550114Y-97730733D01*
X170646876Y-97730733D01*
X170695257Y-97754923D01*
X170719447Y-97779114D01*
X170743638Y-97827495D01*
X171202047Y-95070990D02*
X171177857Y-95046800D01*
X171129476Y-95022609D01*
X171008523Y-95022609D01*
X170960142Y-95046800D01*
X170935952Y-95070990D01*
X170911761Y-95119371D01*
X170911761Y-95167752D01*
X170935952Y-95240323D01*
X171226238Y-95530609D01*
X170911761Y-95530609D01*
X170452142Y-95022609D02*
X170694047Y-95022609D01*
X170718238Y-95264514D01*
X170694047Y-95240323D01*
X170645666Y-95216133D01*
X170524714Y-95216133D01*
X170476333Y-95240323D01*
X170452142Y-95264514D01*
X170427952Y-95312895D01*
X170427952Y-95433847D01*
X170452142Y-95482228D01*
X170476333Y-95506419D01*
X170524714Y-95530609D01*
X170645666Y-95530609D01*
X170694047Y-95506419D01*
X170718238Y-95482228D01*
X171151247Y-92530990D02*
X171127057Y-92506800D01*
X171078676Y-92482609D01*
X170957723Y-92482609D01*
X170909342Y-92506800D01*
X170885152Y-92530990D01*
X170860961Y-92579371D01*
X170860961Y-92627752D01*
X170885152Y-92700323D01*
X171175438Y-92990609D01*
X170860961Y-92990609D01*
X170691628Y-92482609D02*
X170352961Y-92482609D01*
X170570676Y-92990609D01*
D10*
X169926000Y-92710000D02*
X170180000Y-92710000D01*
X169418000Y-92710000D02*
X169672000Y-92710000D01*
X168910000Y-92710000D02*
X169164000Y-92710000D01*
X168910000Y-110490000D02*
X168910000Y-104140000D01*
X168910000Y-95250000D02*
X168910000Y-101600000D01*
D12*
X168855571Y-101962857D02*
X168855571Y-102216857D01*
X169254714Y-102325714D02*
X169254714Y-101962857D01*
X168492714Y-101962857D01*
X168492714Y-102325714D01*
X169218428Y-102616000D02*
X169254714Y-102724857D01*
X169254714Y-102906285D01*
X169218428Y-102978857D01*
X169182142Y-103015142D01*
X169109571Y-103051428D01*
X169037000Y-103051428D01*
X168964428Y-103015142D01*
X168928142Y-102978857D01*
X168891857Y-102906285D01*
X168855571Y-102761142D01*
X168819285Y-102688571D01*
X168783000Y-102652285D01*
X168710428Y-102616000D01*
X168637857Y-102616000D01*
X168565285Y-102652285D01*
X168529000Y-102688571D01*
X168492714Y-102761142D01*
X168492714Y-102942571D01*
X168529000Y-103051428D01*
X169254714Y-103378000D02*
X168492714Y-103378000D01*
X168492714Y-103668285D01*
X168529000Y-103740857D01*
X168565285Y-103777142D01*
X168637857Y-103813428D01*
X168746714Y-103813428D01*
X168819285Y-103777142D01*
X168855571Y-103740857D01*
X168891857Y-103668285D01*
X168891857Y-103378000D01*
D10*
X171450000Y-110490000D02*
X171450000Y-95250000D01*
X168910000Y-110490000D02*
X169722800Y-110490000D01*
X168910000Y-88900000D02*
X168910000Y-95250000D01*
X168910000Y-80010000D02*
X168910000Y-86360000D01*
D12*
X168492714Y-86668428D02*
X169109571Y-86668428D01*
X169182142Y-86704714D01*
X169218428Y-86741000D01*
X169254714Y-86813571D01*
X169254714Y-86958714D01*
X169218428Y-87031285D01*
X169182142Y-87067571D01*
X169109571Y-87103857D01*
X168492714Y-87103857D01*
X169218428Y-87430428D02*
X169254714Y-87539285D01*
X169254714Y-87720714D01*
X169218428Y-87793285D01*
X169182142Y-87829571D01*
X169109571Y-87865857D01*
X169037000Y-87865857D01*
X168964428Y-87829571D01*
X168928142Y-87793285D01*
X168891857Y-87720714D01*
X168855571Y-87575571D01*
X168819285Y-87503000D01*
X168783000Y-87466714D01*
X168710428Y-87430428D01*
X168637857Y-87430428D01*
X168565285Y-87466714D01*
X168529000Y-87503000D01*
X168492714Y-87575571D01*
X168492714Y-87757000D01*
X168529000Y-87865857D01*
X168855571Y-88446428D02*
X168891857Y-88555285D01*
X168928142Y-88591571D01*
X169000714Y-88627857D01*
X169109571Y-88627857D01*
X169182142Y-88591571D01*
X169218428Y-88555285D01*
X169254714Y-88482714D01*
X169254714Y-88192428D01*
X168492714Y-88192428D01*
X168492714Y-88446428D01*
X168529000Y-88519000D01*
X168565285Y-88555285D01*
X168637857Y-88591571D01*
X168710428Y-88591571D01*
X168783000Y-88555285D01*
X168819285Y-88519000D01*
X168855571Y-88446428D01*
X168855571Y-88192428D01*
D10*
X151130000Y-100330000D02*
X151130000Y-91186000D01*
X150876000Y-100330000D02*
X151130000Y-100330000D01*
X151130000Y-80010000D02*
X151130000Y-89154000D01*
D13*
X150725238Y-90955714D02*
X150677619Y-90812857D01*
X150677619Y-90574761D01*
X150725238Y-90479523D01*
X150772857Y-90431904D01*
X150868095Y-90384285D01*
X150963333Y-90384285D01*
X151058571Y-90431904D01*
X151106190Y-90479523D01*
X151153809Y-90574761D01*
X151201428Y-90765238D01*
X151249047Y-90860476D01*
X151296666Y-90908095D01*
X151391904Y-90955714D01*
X151487142Y-90955714D01*
X151582380Y-90908095D01*
X151630000Y-90860476D01*
X151677619Y-90765238D01*
X151677619Y-90527142D01*
X151630000Y-90384285D01*
X150677619Y-89955714D02*
X151677619Y-89955714D01*
X151677619Y-89717619D01*
X151630000Y-89574761D01*
X151534761Y-89479523D01*
X151439523Y-89431904D01*
X151249047Y-89384285D01*
X151106190Y-89384285D01*
X150915714Y-89431904D01*
X150820476Y-89479523D01*
X150725238Y-89574761D01*
X150677619Y-89717619D01*
X150677619Y-89955714D01*
D10*
X170078400Y-95250000D02*
X168910000Y-95250000D01*
X171450000Y-80010000D02*
X171450000Y-95250000D01*
X168910000Y-80010000D02*
X171450000Y-80010000D01*
X148590000Y-80010000D02*
X151130000Y-80010000D01*
X148590000Y-100330000D02*
X148590000Y-80010000D01*
X150876000Y-100330000D02*
X150317200Y-100330000D01*
X166270882Y-114300000D02*
G75*
G03*
X166270882Y-114300000I-1170882J0D01*
G01*
X163764828Y-114300000D02*
G75*
G03*
X163764828Y-114300000I-1204828J0D01*
G01*
X161290000Y-114300000D02*
G75*
G03*
X161290000Y-114300000I-1270000J0D01*
G01*
X158565088Y-114300000D02*
G75*
G03*
X158565088Y-114300000I-1085088J0D01*
G01*
X156144828Y-114300000D02*
G75*
G03*
X156144828Y-114300000I-1204828J0D01*
G01*
X156144828Y-109220000D02*
G75*
G03*
X156144828Y-109220000I-1204828J0D01*
G01*
X158565088Y-109220000D02*
G75*
G03*
X158565088Y-109220000I-1085088J0D01*
G01*
X161290000Y-109220000D02*
G75*
G03*
X161290000Y-109220000I-1270000J0D01*
G01*
X163764828Y-109220000D02*
G75*
G03*
X163764828Y-109220000I-1204828J0D01*
G01*
X166270882Y-109220000D02*
G75*
G03*
X166270882Y-109220000I-1170882J0D01*
G01*
X166243000Y-106680000D02*
G75*
G03*
X166243000Y-106680000I-1143000J0D01*
G01*
X163583907Y-106553000D02*
G75*
G03*
X163583907Y-106553000I-1023907J0D01*
G01*
X161163000Y-106680000D02*
G75*
G03*
X161163000Y-106680000I-1143000J0D01*
G01*
X158623000Y-106680000D02*
G75*
G03*
X158623000Y-106680000I-1143000J0D01*
G01*
X156083000Y-106680000D02*
G75*
G03*
X156083000Y-106680000I-1143000J0D01*
G01*
X159885923Y-81915000D02*
G75*
G03*
X159885923Y-81915000I-1135923J0D01*
G01*
X162375088Y-81915000D02*
G75*
G03*
X162375088Y-81915000I-1085088J0D01*
G01*
X166395151Y-83820000D02*
G75*
G03*
X166395151Y-83820000I-1295151J0D01*
G01*
D14*
X166112371Y-111083876D02*
X166051895Y-111023400D01*
X165930942Y-110962923D01*
X165628561Y-110962923D01*
X165507609Y-111023400D01*
X165447133Y-111083876D01*
X165386657Y-111204828D01*
X165386657Y-111325780D01*
X165447133Y-111507209D01*
X166172847Y-112232923D01*
X165386657Y-112232923D01*
X164600466Y-110962923D02*
X164479514Y-110962923D01*
X164358561Y-111023400D01*
X164298085Y-111083876D01*
X164237609Y-111204828D01*
X164177133Y-111446733D01*
X164177133Y-111749114D01*
X164237609Y-111991019D01*
X164298085Y-112111971D01*
X164358561Y-112172447D01*
X164479514Y-112232923D01*
X164600466Y-112232923D01*
X164721419Y-112172447D01*
X164781895Y-112111971D01*
X164842371Y-111991019D01*
X164902847Y-111749114D01*
X164902847Y-111446733D01*
X164842371Y-111204828D01*
X164781895Y-111083876D01*
X164721419Y-111023400D01*
X164600466Y-110962923D01*
X162967609Y-112232923D02*
X163693323Y-112232923D01*
X163330466Y-112232923D02*
X163330466Y-110962923D01*
X163451419Y-111144352D01*
X163572371Y-111265304D01*
X163693323Y-111325780D01*
X162362847Y-112232923D02*
X162120942Y-112232923D01*
X161999990Y-112172447D01*
X161939514Y-112111971D01*
X161818561Y-111930542D01*
X161758085Y-111688638D01*
X161758085Y-111204828D01*
X161818561Y-111083876D01*
X161879038Y-111023400D01*
X161999990Y-110962923D01*
X162241895Y-110962923D01*
X162362847Y-111023400D01*
X162423323Y-111083876D01*
X162483800Y-111204828D01*
X162483800Y-111507209D01*
X162423323Y-111628161D01*
X162362847Y-111688638D01*
X162241895Y-111749114D01*
X161999990Y-111749114D01*
X161879038Y-111688638D01*
X161818561Y-111628161D01*
X161758085Y-111507209D01*
X161213800Y-111749114D02*
X160246180Y-111749114D01*
X158976180Y-112232923D02*
X159701895Y-112232923D01*
X159339038Y-112232923D02*
X159339038Y-110962923D01*
X159459990Y-111144352D01*
X159580942Y-111265304D01*
X159701895Y-111325780D01*
X158189990Y-110962923D02*
X158069038Y-110962923D01*
X157948085Y-111023400D01*
X157887609Y-111083876D01*
X157827133Y-111204828D01*
X157766657Y-111446733D01*
X157766657Y-111749114D01*
X157827133Y-111991019D01*
X157887609Y-112111971D01*
X157948085Y-112172447D01*
X158069038Y-112232923D01*
X158189990Y-112232923D01*
X158310942Y-112172447D01*
X158371419Y-112111971D01*
X158431895Y-111991019D01*
X158492371Y-111749114D01*
X158492371Y-111446733D01*
X158431895Y-111204828D01*
X158371419Y-111083876D01*
X158310942Y-111023400D01*
X158189990Y-110962923D01*
X157222371Y-111749114D02*
X156254752Y-111749114D01*
X155710466Y-111083876D02*
X155649990Y-111023400D01*
X155529038Y-110962923D01*
X155226657Y-110962923D01*
X155105704Y-111023400D01*
X155045228Y-111083876D01*
X154984752Y-111204828D01*
X154984752Y-111325780D01*
X155045228Y-111507209D01*
X155770942Y-112232923D01*
X154984752Y-112232923D01*
X153775228Y-112232923D02*
X154500942Y-112232923D01*
X154138085Y-112232923D02*
X154138085Y-110962923D01*
X154259038Y-111144352D01*
X154379990Y-111265304D01*
X154500942Y-111325780D01*
D15*
X163438885Y-83518971D02*
X162867457Y-83518971D01*
X163224600Y-83018971D02*
X163224600Y-84304685D01*
X163153171Y-84447542D01*
X163010314Y-84518971D01*
X162867457Y-84518971D01*
X161796028Y-84447542D02*
X161938885Y-84518971D01*
X162224600Y-84518971D01*
X162367457Y-84447542D01*
X162438885Y-84304685D01*
X162438885Y-83733257D01*
X162367457Y-83590400D01*
X162224600Y-83518971D01*
X161938885Y-83518971D01*
X161796028Y-83590400D01*
X161724600Y-83733257D01*
X161724600Y-83876114D01*
X162438885Y-84018971D01*
X160510314Y-84447542D02*
X160653171Y-84518971D01*
X160938885Y-84518971D01*
X161081742Y-84447542D01*
X161153171Y-84304685D01*
X161153171Y-83733257D01*
X161081742Y-83590400D01*
X160938885Y-83518971D01*
X160653171Y-83518971D01*
X160510314Y-83590400D01*
X160438885Y-83733257D01*
X160438885Y-83876114D01*
X161153171Y-84018971D01*
X159796028Y-83518971D02*
X159796028Y-84518971D01*
X159796028Y-83661828D02*
X159724600Y-83590400D01*
X159581742Y-83518971D01*
X159367457Y-83518971D01*
X159224600Y-83590400D01*
X159153171Y-83733257D01*
X159153171Y-84518971D01*
X158510314Y-84447542D02*
X158367457Y-84518971D01*
X158081742Y-84518971D01*
X157938885Y-84447542D01*
X157867457Y-84304685D01*
X157867457Y-84233257D01*
X157938885Y-84090400D01*
X158081742Y-84018971D01*
X158296028Y-84018971D01*
X158438885Y-83947542D01*
X158510314Y-83804685D01*
X158510314Y-83733257D01*
X158438885Y-83590400D01*
X158296028Y-83518971D01*
X158081742Y-83518971D01*
X157938885Y-83590400D01*
X157367457Y-83518971D02*
X157010314Y-84518971D01*
X156653171Y-83518971D02*
X157010314Y-84518971D01*
X157153171Y-84876114D01*
X157224600Y-84947542D01*
X157367457Y-85018971D01*
X154296028Y-83518971D02*
X154296028Y-84518971D01*
X154653171Y-82947542D02*
X155010314Y-84018971D01*
X154081742Y-84018971D01*
X163224600Y-87068971D02*
X163224600Y-85568971D01*
X163224600Y-86140400D02*
X163081742Y-86068971D01*
X162796028Y-86068971D01*
X162653171Y-86140400D01*
X162581742Y-86211828D01*
X162510314Y-86354685D01*
X162510314Y-86783257D01*
X162581742Y-86926114D01*
X162653171Y-86997542D01*
X162796028Y-87068971D01*
X163081742Y-87068971D01*
X163224600Y-86997542D01*
X161867457Y-87068971D02*
X161867457Y-86068971D01*
X161867457Y-86354685D02*
X161796028Y-86211828D01*
X161724600Y-86140400D01*
X161581742Y-86068971D01*
X161438885Y-86068971D01*
X160367457Y-86997542D02*
X160510314Y-87068971D01*
X160796028Y-87068971D01*
X160938885Y-86997542D01*
X161010314Y-86854685D01*
X161010314Y-86283257D01*
X160938885Y-86140400D01*
X160796028Y-86068971D01*
X160510314Y-86068971D01*
X160367457Y-86140400D01*
X160296028Y-86283257D01*
X160296028Y-86426114D01*
X161010314Y-86568971D01*
X159010314Y-87068971D02*
X159010314Y-86283257D01*
X159081742Y-86140400D01*
X159224600Y-86068971D01*
X159510314Y-86068971D01*
X159653171Y-86140400D01*
X159010314Y-86997542D02*
X159153171Y-87068971D01*
X159510314Y-87068971D01*
X159653171Y-86997542D01*
X159724600Y-86854685D01*
X159724600Y-86711828D01*
X159653171Y-86568971D01*
X159510314Y-86497542D01*
X159153171Y-86497542D01*
X159010314Y-86426114D01*
X158296028Y-87068971D02*
X158296028Y-85568971D01*
X158153171Y-86497542D02*
X157724600Y-87068971D01*
X157724600Y-86068971D02*
X158296028Y-86640400D01*
X156867457Y-87068971D02*
X157010314Y-86997542D01*
X157081742Y-86926114D01*
X157153171Y-86783257D01*
X157153171Y-86354685D01*
X157081742Y-86211828D01*
X157010314Y-86140400D01*
X156867457Y-86068971D01*
X156653171Y-86068971D01*
X156510314Y-86140400D01*
X156438885Y-86211828D01*
X156367457Y-86354685D01*
X156367457Y-86783257D01*
X156438885Y-86926114D01*
X156510314Y-86997542D01*
X156653171Y-87068971D01*
X156867457Y-87068971D01*
X155081742Y-86068971D02*
X155081742Y-87068971D01*
X155724600Y-86068971D02*
X155724600Y-86854685D01*
X155653171Y-86997542D01*
X155510314Y-87068971D01*
X155296028Y-87068971D01*
X155153171Y-86997542D01*
X155081742Y-86926114D01*
X154581742Y-86068971D02*
X154010314Y-86068971D01*
X154367457Y-85568971D02*
X154367457Y-86854685D01*
X154296028Y-86997542D01*
X154153171Y-87068971D01*
X154010314Y-87068971D01*
%LPC*%
D16*
X152400000Y-111760000D03*
X167640000Y-81280000D03*
X165100000Y-83820000D03*
X167640000Y-83820000D03*
X167640000Y-86360000D03*
X167640000Y-88900000D03*
X167640000Y-91440000D03*
X167640000Y-93980000D03*
X167640000Y-96520000D03*
X167640000Y-99060000D03*
X167640000Y-101600000D03*
X167640000Y-104140000D03*
X167640000Y-106680000D03*
X167640000Y-109220000D03*
X167640000Y-111760000D03*
X167640000Y-114300000D03*
X165100000Y-114300000D03*
X162560000Y-114300000D03*
X160020000Y-114300000D03*
X157480000Y-114300000D03*
X154940000Y-114300000D03*
X152400000Y-114300000D03*
X152400000Y-109220000D03*
X152400000Y-106680000D03*
X152400000Y-104140000D03*
X152400000Y-101600000D03*
X152400000Y-99060000D03*
X152400000Y-96520000D03*
X152400000Y-93980000D03*
X152400000Y-91440000D03*
X152400000Y-88900000D03*
X152400000Y-86360000D03*
D17*
X158750000Y-81915000D03*
X161290000Y-81915000D03*
D18*
X156520000Y-88418400D03*
X157520000Y-88418400D03*
X158520000Y-88418400D03*
X159520000Y-88418400D03*
X160520000Y-88418400D03*
X161520000Y-88418400D03*
X162520000Y-88418400D03*
X163520000Y-88418400D03*
D17*
X154940000Y-106680000D03*
X154940000Y-109220000D03*
X157480000Y-106680000D03*
X157480000Y-109220000D03*
X160020000Y-106680000D03*
X160020000Y-109220000D03*
X162560000Y-106680000D03*
X162560000Y-109220000D03*
X165100000Y-106680000D03*
X165100000Y-109220000D03*
D16*
X152400000Y-83820000D03*
X152400000Y-81280000D03*
D19*
X170180000Y-81280000D03*
X170180000Y-83820000D03*
X170180000Y-86360000D03*
X170180000Y-88900000D03*
X170180000Y-91440000D03*
X170180000Y-93980000D03*
X170180000Y-96520000D03*
X170180000Y-99060000D03*
X170180000Y-101600000D03*
X170180000Y-104140000D03*
X170180000Y-106680000D03*
X170180000Y-109220000D03*
X170180000Y-111760000D03*
D20*
X170180000Y-114300000D03*
D19*
X149860000Y-114300000D03*
X149860000Y-111760000D03*
X149860000Y-109220000D03*
X149860000Y-106680000D03*
X149860000Y-104140000D03*
X149860000Y-101600000D03*
X149860000Y-99060000D03*
X149860000Y-96520000D03*
X149860000Y-93980000D03*
X149860000Y-91440000D03*
X149860000Y-88900000D03*
X149860000Y-86360000D03*
X149860000Y-83820000D03*
D20*
X149860000Y-81280000D03*
M02*
