M48
; DRILL file {KiCad (5.1.10)-1} date 03/14/22 22:22:42
; FORMAT={-:-/ absolute / metric / decimal}
; #@! TF.CreationDate,2022-03-14T22:22:42+09:00
; #@! TF.GenerationSoftware,Kicad,Pcbnew,(5.1.10)-1
; #@! TF.FileFunction,Plated,1,2,PTH
FMAT,2
METRIC
T1C0.330
T2C0.500
T3C1.000
T4C1.100
%
G90
G05
T1
X150.876Y-107.823
X153.035Y-107.823
X153.047Y-90.433
X153.416Y-97.917
X153.416Y-102.87
X153.543Y-100.33
X153.785Y-90.025
X154.051Y-86.233
X154.559Y-112.141
X154.94Y-81.534
X155.067Y-83.439
X155.956Y-86.233
X157.226Y-83.312
X157.48Y-112.141
X157.734Y-86.233
X158.75Y-110.617
X159.385Y-85.725
X159.893Y-83.693
X160.02Y-112.014
X160.528Y-86.868
X161.29Y-105.664
X162.56Y-83.82
X162.56Y-112.014
X163.449Y-85.725
X164.211Y-81.026
X165.1Y-112.014
X165.735Y-86.36
X165.862Y-81.153
X166.316Y-111.22
X166.497Y-90.17
X166.497Y-92.71
X166.497Y-95.25
X166.522Y-110.388
X167.208Y-102.87
X167.208Y-105.435
X167.234Y-100.381
T2
X156.52Y-88.418
X157.52Y-88.418
X158.52Y-88.418
X159.52Y-88.418
X160.52Y-88.418
X161.52Y-88.418
X162.52Y-88.418
X163.52Y-88.418
T3
X149.86Y-81.28
X149.86Y-83.82
X149.86Y-86.36
X149.86Y-88.9
X149.86Y-91.44
X149.86Y-93.98
X149.86Y-96.52
X149.86Y-99.06
X149.86Y-101.6
X149.86Y-104.14
X149.86Y-106.68
X149.86Y-109.22
X149.86Y-111.76
X149.86Y-114.3
X154.94Y-106.68
X154.94Y-109.22
X157.48Y-106.68
X157.48Y-109.22
X158.75Y-81.915
X160.02Y-106.68
X160.02Y-109.22
X161.29Y-81.915
X162.56Y-106.68
X162.56Y-109.22
X165.1Y-106.68
X165.1Y-109.22
X170.18Y-81.28
X170.18Y-83.82
X170.18Y-86.36
X170.18Y-88.9
X170.18Y-91.44
X170.18Y-93.98
X170.18Y-96.52
X170.18Y-99.06
X170.18Y-101.6
X170.18Y-104.14
X170.18Y-106.68
X170.18Y-109.22
X170.18Y-111.76
X170.18Y-114.3
T4
X152.4Y-81.28
X152.4Y-83.82
X152.4Y-86.36
X152.4Y-88.9
X152.4Y-91.44
X152.4Y-93.98
X152.4Y-96.52
X152.4Y-99.06
X152.4Y-101.6
X152.4Y-104.14
X152.4Y-106.68
X152.4Y-109.22
X152.4Y-111.76
X152.4Y-114.3
X154.94Y-114.3
X157.48Y-114.3
X160.02Y-114.3
X162.56Y-114.3
X165.1Y-83.82
X165.1Y-114.3
X167.64Y-81.28
X167.64Y-83.82
X167.64Y-86.36
X167.64Y-88.9
X167.64Y-91.44
X167.64Y-93.98
X167.64Y-96.52
X167.64Y-99.06
X167.64Y-101.6
X167.64Y-104.14
X167.64Y-106.68
X167.64Y-109.22
X167.64Y-111.76
X167.64Y-114.3
T0
M30
