G04 #@! TF.GenerationSoftware,KiCad,Pcbnew,(5.1.10)-1*
G04 #@! TF.CreationDate,2022-03-14T22:22:12+09:00*
G04 #@! TF.ProjectId,teensy4_header_breakout,7465656e-7379-4345-9f68-65616465725f,rev?*
G04 #@! TF.SameCoordinates,Original*
G04 #@! TF.FileFunction,Copper,L1,Top*
G04 #@! TF.FilePolarity,Positive*
%FSLAX46Y46*%
G04 Gerber Fmt 4.6, Leading zero omitted, Abs format (unit mm)*
G04 Created by KiCad (PCBNEW (5.1.10)-1) date 2022-03-14 22:22:12*
%MOMM*%
%LPD*%
G01*
G04 APERTURE LIST*
G04 #@! TA.AperFunction,ComponentPad*
%ADD10C,1.404000*%
G04 #@! TD*
G04 #@! TA.AperFunction,ComponentPad*
%ADD11C,1.304000*%
G04 #@! TD*
G04 #@! TA.AperFunction,ComponentPad*
%ADD12C,0.804000*%
G04 #@! TD*
G04 #@! TA.AperFunction,ComponentPad*
%ADD13O,1.700000X1.700000*%
G04 #@! TD*
G04 #@! TA.AperFunction,ComponentPad*
%ADD14C,1.700000*%
G04 #@! TD*
G04 #@! TA.AperFunction,ViaPad*
%ADD15C,0.685800*%
G04 #@! TD*
G04 #@! TA.AperFunction,Conductor*
%ADD16C,0.152400*%
G04 #@! TD*
G04 #@! TA.AperFunction,Conductor*
%ADD17C,0.457200*%
G04 #@! TD*
G04 #@! TA.AperFunction,Conductor*
%ADD18C,0.304800*%
G04 #@! TD*
G04 #@! TA.AperFunction,Conductor*
%ADD19C,0.254000*%
G04 #@! TD*
G04 #@! TA.AperFunction,Conductor*
%ADD20C,0.100000*%
G04 #@! TD*
G04 APERTURE END LIST*
D10*
X152400000Y-111760000D03*
X167640000Y-81280000D03*
X165100000Y-83820000D03*
X167640000Y-83820000D03*
X167640000Y-86360000D03*
X167640000Y-88900000D03*
X167640000Y-91440000D03*
X167640000Y-93980000D03*
X167640000Y-96520000D03*
X167640000Y-99060000D03*
X167640000Y-101600000D03*
X167640000Y-104140000D03*
X167640000Y-106680000D03*
X167640000Y-109220000D03*
X167640000Y-111760000D03*
X167640000Y-114300000D03*
X165100000Y-114300000D03*
X162560000Y-114300000D03*
X160020000Y-114300000D03*
X157480000Y-114300000D03*
X154940000Y-114300000D03*
X152400000Y-114300000D03*
X152400000Y-109220000D03*
X152400000Y-106680000D03*
X152400000Y-104140000D03*
X152400000Y-101600000D03*
X152400000Y-99060000D03*
X152400000Y-96520000D03*
X152400000Y-93980000D03*
X152400000Y-91440000D03*
X152400000Y-88900000D03*
X152400000Y-86360000D03*
D11*
X158750000Y-81915000D03*
X161290000Y-81915000D03*
D12*
X156520000Y-88418400D03*
X157520000Y-88418400D03*
X158520000Y-88418400D03*
X159520000Y-88418400D03*
X160520000Y-88418400D03*
X161520000Y-88418400D03*
X162520000Y-88418400D03*
X163520000Y-88418400D03*
D11*
X154940000Y-106680000D03*
X154940000Y-109220000D03*
X157480000Y-106680000D03*
X157480000Y-109220000D03*
X160020000Y-106680000D03*
X160020000Y-109220000D03*
X162560000Y-106680000D03*
X162560000Y-109220000D03*
X165100000Y-106680000D03*
X165100000Y-109220000D03*
D10*
X152400000Y-83820000D03*
X152400000Y-81280000D03*
D13*
X170180000Y-81280000D03*
X170180000Y-83820000D03*
X170180000Y-86360000D03*
X170180000Y-88900000D03*
X170180000Y-91440000D03*
X170180000Y-93980000D03*
X170180000Y-96520000D03*
X170180000Y-99060000D03*
X170180000Y-101600000D03*
X170180000Y-104140000D03*
X170180000Y-106680000D03*
X170180000Y-109220000D03*
X170180000Y-111760000D03*
D14*
X170180000Y-114300000D03*
D13*
X149860000Y-114300000D03*
X149860000Y-111760000D03*
X149860000Y-109220000D03*
X149860000Y-106680000D03*
X149860000Y-104140000D03*
X149860000Y-101600000D03*
X149860000Y-99060000D03*
X149860000Y-96520000D03*
X149860000Y-93980000D03*
X149860000Y-91440000D03*
X149860000Y-88900000D03*
X149860000Y-86360000D03*
X149860000Y-83820000D03*
D14*
X149860000Y-81280000D03*
D15*
X153047383Y-90432813D03*
X153784690Y-90025336D03*
X166316146Y-111220054D03*
X166522400Y-110388400D03*
X153416000Y-102870000D03*
X153416000Y-97917000D03*
X154559000Y-112141000D03*
X162560000Y-112014000D03*
X165100000Y-112014000D03*
X153035000Y-107823000D03*
X150876000Y-107823000D03*
X154051000Y-86233000D03*
X155956000Y-86233000D03*
X157734000Y-86233000D03*
X159385000Y-85725000D03*
X160528000Y-86868000D03*
X164211000Y-81026000D03*
X157480000Y-112141000D03*
X166497000Y-90170000D03*
X166497000Y-92710000D03*
X166497000Y-95250000D03*
X153543000Y-100330000D03*
X154940000Y-81534000D03*
X155067000Y-83439000D03*
X157226000Y-83312000D03*
X159893000Y-83693000D03*
X162560000Y-83820000D03*
X165735000Y-86360000D03*
X163449000Y-85725000D03*
X165862000Y-81153000D03*
X161290000Y-105664000D03*
X160020000Y-112014000D03*
X158750000Y-110617000D03*
X167208200Y-102870000D03*
X167233600Y-100380800D03*
X167208200Y-105435400D03*
D16*
X154009399Y-113369399D02*
X154686390Y-114046390D01*
X150790601Y-113369399D02*
X154009399Y-113369399D01*
X149860000Y-114300000D02*
X150790601Y-113369399D01*
D17*
X153856999Y-113216999D02*
X154533990Y-113893990D01*
X150943001Y-113216999D02*
X153856999Y-113216999D01*
X149860000Y-114300000D02*
X150943001Y-113216999D01*
D16*
X154009399Y-110150601D02*
X154686390Y-109473610D01*
X151992682Y-110150601D02*
X154009399Y-110150601D01*
X151062081Y-109220000D02*
X151992682Y-110150601D01*
X149860000Y-109220000D02*
X151062081Y-109220000D01*
X150790601Y-110829399D02*
X155870601Y-110829399D01*
X155870601Y-110829399D02*
X157226390Y-109473610D01*
X149860000Y-111760000D02*
X150790601Y-110829399D01*
X154009399Y-105749399D02*
X154686390Y-106426390D01*
X150790601Y-105749399D02*
X154009399Y-105749399D01*
X149860000Y-106680000D02*
X150790601Y-105749399D01*
X151164588Y-105444588D02*
X156244588Y-105444588D01*
X149860000Y-104140000D02*
X151164588Y-105444588D01*
X156244588Y-105444588D02*
X157226390Y-106426390D01*
X158410601Y-105070601D02*
X159766390Y-106426390D01*
X151155400Y-104546400D02*
X151679601Y-105070601D01*
X151679601Y-105070601D02*
X158410601Y-105070601D01*
X151155400Y-102895400D02*
X151155400Y-104546400D01*
X149860000Y-101600000D02*
X151155400Y-102895400D01*
X163398590Y-88138390D02*
X163520000Y-88138390D01*
X151422100Y-83654900D02*
X151422100Y-84219390D01*
X160010801Y-84750601D02*
X163398590Y-88138390D01*
X151953311Y-84750601D02*
X160010801Y-84750601D01*
X151422100Y-84219390D02*
X151953311Y-84750601D01*
X149860000Y-82092800D02*
X151422100Y-83654900D01*
X149860000Y-81280000D02*
X149860000Y-82092800D01*
X159562800Y-85064600D02*
X162520000Y-88021800D01*
X162520000Y-88021800D02*
X162520000Y-88138390D01*
X151104600Y-85064600D02*
X159562800Y-85064600D01*
X149860000Y-83820000D02*
X151104600Y-85064600D01*
X158174999Y-85429399D02*
X160520000Y-87774400D01*
X150709999Y-87378010D02*
X151282400Y-86805609D01*
X151282400Y-86100310D02*
X151953311Y-85429399D01*
X160520000Y-87774400D02*
X160520000Y-88138390D01*
X151953311Y-85429399D02*
X158174999Y-85429399D01*
X151282400Y-86805609D02*
X151282400Y-86100310D01*
X150709999Y-88050001D02*
X150709999Y-87378010D01*
X149860000Y-88900000D02*
X150709999Y-88050001D01*
D17*
X158998611Y-87330589D02*
X159520000Y-87851978D01*
X154198011Y-87330589D02*
X158998611Y-87330589D01*
X149860000Y-91440000D02*
X151091001Y-90208999D01*
X151091001Y-88606157D02*
X152254157Y-87443001D01*
X154085599Y-87443001D02*
X154198011Y-87330589D01*
X152254157Y-87443001D02*
X154085599Y-87443001D01*
X151091001Y-90208999D02*
X151091001Y-88606157D01*
D18*
X159520000Y-87851978D02*
X159520000Y-88087590D01*
D16*
X153785417Y-87960209D02*
X153810817Y-87985609D01*
X158349000Y-87787800D02*
X158520000Y-87958800D01*
X155764383Y-87985609D02*
X155962192Y-87787800D01*
X153810817Y-87985609D02*
X155764383Y-87985609D01*
X155962192Y-87787800D02*
X158349000Y-87787800D01*
X158520000Y-87958800D02*
X158520000Y-88138390D01*
X151469399Y-90993311D02*
X151953311Y-90509399D01*
X153517600Y-88214200D02*
X153746191Y-87985609D01*
X153013488Y-89861312D02*
X153517600Y-89357200D01*
X152773062Y-89861312D02*
X153013488Y-89861312D01*
X152552400Y-89865200D02*
X152769174Y-89865200D01*
X153517600Y-89357200D02*
X153517600Y-88214200D01*
X152769174Y-89865200D02*
X152773062Y-89861312D01*
X151953311Y-90509399D02*
X151953311Y-90464289D01*
X151469399Y-92370601D02*
X151469399Y-90993311D01*
X151953311Y-90464289D02*
X152552400Y-89865200D01*
X153746191Y-87985609D02*
X153810817Y-87985609D01*
X149860000Y-93980000D02*
X151469399Y-92370601D01*
X151953311Y-92370601D02*
X152846689Y-92370601D01*
X152846689Y-92370601D02*
X153390282Y-91827008D01*
X150938601Y-93385311D02*
X151953311Y-92370601D01*
X150938601Y-95441399D02*
X150938601Y-93385311D01*
X153390282Y-91827008D02*
X153390282Y-90775712D01*
X149860000Y-96520000D02*
X150938601Y-95441399D01*
X153390282Y-90775712D02*
X153047383Y-90432813D01*
X153784690Y-90510269D02*
X153784690Y-90025336D01*
X153784690Y-94551110D02*
X153784690Y-90510269D01*
X151892000Y-95224600D02*
X153111200Y-95224600D01*
X149860000Y-99060000D02*
X151307800Y-97612200D01*
X151307800Y-97612200D02*
X151307800Y-95808800D01*
X151307800Y-95808800D02*
X151892000Y-95224600D01*
X153111200Y-95224600D02*
X153784690Y-94551110D01*
X170180000Y-83820000D02*
X168850790Y-82490790D01*
X168850790Y-82490790D02*
X161865790Y-82490790D01*
X161865790Y-82490790D02*
X161543610Y-82168610D01*
X158750000Y-82550000D02*
X158750000Y-82168610D01*
X168910000Y-83712710D02*
X167992891Y-82795601D01*
X167992891Y-82795601D02*
X158995601Y-82795601D01*
X170180000Y-86360000D02*
X168910000Y-85090000D01*
X168910000Y-85090000D02*
X168910000Y-83712710D01*
X158995601Y-82795601D02*
X158750000Y-82550000D01*
X166522400Y-98800310D02*
X166522400Y-105257600D01*
X167304110Y-98018600D02*
X166522400Y-98800310D01*
X166522400Y-105257600D02*
X165353610Y-106426390D01*
X168757600Y-98018600D02*
X167304110Y-98018600D01*
X170180000Y-96596200D02*
X168757600Y-98018600D01*
X170180000Y-96520000D02*
X170180000Y-96596200D01*
X166217600Y-105054400D02*
X165633400Y-105638600D01*
X163601400Y-105638600D02*
X162813610Y-106426390D01*
X166217600Y-98552000D02*
X166217600Y-105054400D01*
X167055800Y-97713800D02*
X166217600Y-98552000D01*
X168960800Y-97231200D02*
X168478200Y-97713800D01*
X165633400Y-105638600D02*
X163601400Y-105638600D01*
X168960800Y-95199200D02*
X168960800Y-97231200D01*
X168478200Y-97713800D02*
X167055800Y-97713800D01*
X170180000Y-93980000D02*
X168960800Y-95199200D01*
X165831213Y-111220054D02*
X166316146Y-111220054D01*
X162020054Y-111220054D02*
X165831213Y-111220054D01*
X160273610Y-109473610D02*
X162020054Y-111220054D01*
X166037467Y-110388400D02*
X166522400Y-110388400D01*
X163474790Y-110388400D02*
X166037467Y-110388400D01*
X162560000Y-109473610D02*
X163474790Y-110388400D01*
X168570601Y-107805487D02*
X168086689Y-108289399D01*
X170180000Y-104140000D02*
X168570601Y-105749399D01*
X168570601Y-105749399D02*
X168570601Y-107805487D01*
X167193311Y-108289399D02*
X166709399Y-108773311D01*
X166707592Y-109473610D02*
X165353610Y-109473610D01*
X168086689Y-108289399D02*
X167193311Y-108289399D01*
X166709399Y-109471803D02*
X166707592Y-109473610D01*
X166709399Y-108773311D02*
X166709399Y-109471803D01*
X163490601Y-113369399D02*
X162813610Y-114046390D01*
X168570601Y-113369399D02*
X163490601Y-113369399D01*
X170180000Y-111760000D02*
X168570601Y-113369399D01*
D17*
X168159841Y-112843001D02*
X158936999Y-112843001D01*
X168948999Y-112053843D02*
X168159841Y-112843001D01*
X168948999Y-108629119D02*
X168948999Y-112053843D01*
X170180000Y-106680000D02*
X169330001Y-107529999D01*
X169330001Y-108248117D02*
X168948999Y-108629119D01*
X169330001Y-107529999D02*
X169330001Y-108248117D01*
X158936999Y-112843001D02*
X157886010Y-113893990D01*
D18*
X149860000Y-86360000D02*
X149910800Y-86360000D01*
X160528000Y-86868000D02*
X161518600Y-87858600D01*
X161518600Y-87858600D02*
X161518600Y-88087590D01*
D19*
X159194604Y-109661184D02*
X159296534Y-109813733D01*
X159426267Y-109943466D01*
X159578816Y-110045396D01*
X159748321Y-110115607D01*
X159928265Y-110151400D01*
X160111735Y-110151400D01*
X160291679Y-110115607D01*
X160377264Y-110080157D01*
X161756260Y-111459154D01*
X161767391Y-111472717D01*
X161821538Y-111517155D01*
X161883314Y-111550175D01*
X161950344Y-111570508D01*
X162002591Y-111575654D01*
X162002599Y-111575654D01*
X162020054Y-111577373D01*
X162037509Y-111575654D01*
X165805316Y-111575654D01*
X165832774Y-111616747D01*
X165919453Y-111703426D01*
X166021376Y-111771529D01*
X166134628Y-111818439D01*
X166254855Y-111842354D01*
X166377437Y-111842354D01*
X166497664Y-111818439D01*
X166610916Y-111771529D01*
X166658600Y-111739667D01*
X166658600Y-111856660D01*
X166696314Y-112046264D01*
X166770294Y-112224867D01*
X166843884Y-112335001D01*
X158961943Y-112335001D01*
X158936999Y-112332544D01*
X158912055Y-112335001D01*
X158912052Y-112335001D01*
X158837414Y-112342352D01*
X158741656Y-112371400D01*
X158715079Y-112385606D01*
X158653403Y-112418572D01*
X158625287Y-112441647D01*
X158576051Y-112482053D01*
X158560144Y-112501436D01*
X157715386Y-113346194D01*
X157576660Y-113318600D01*
X157383340Y-113318600D01*
X157193736Y-113356314D01*
X157015133Y-113430294D01*
X156854394Y-113537697D01*
X156717697Y-113674394D01*
X156610294Y-113835133D01*
X156543826Y-113995600D01*
X155876174Y-113995600D01*
X155809706Y-113835133D01*
X155702303Y-113674394D01*
X155565606Y-113537697D01*
X155404867Y-113430294D01*
X155226264Y-113356314D01*
X155036660Y-113318600D01*
X154843340Y-113318600D01*
X154704614Y-113346194D01*
X154233854Y-112875434D01*
X154217947Y-112856051D01*
X154140594Y-112792570D01*
X154052342Y-112745398D01*
X153956584Y-112716350D01*
X153881946Y-112708999D01*
X153881943Y-112708999D01*
X153856999Y-112706542D01*
X153832055Y-112708999D01*
X152659553Y-112708999D01*
X152686264Y-112703686D01*
X152864867Y-112629706D01*
X153025606Y-112522303D01*
X153162303Y-112385606D01*
X153269706Y-112224867D01*
X153343686Y-112046264D01*
X153381400Y-111856660D01*
X153381400Y-111663340D01*
X153343686Y-111473736D01*
X153269706Y-111295133D01*
X153196116Y-111184999D01*
X155853146Y-111184999D01*
X155870601Y-111186718D01*
X155888056Y-111184999D01*
X155888064Y-111184999D01*
X155940311Y-111179853D01*
X156007341Y-111159520D01*
X156069117Y-111126500D01*
X156123264Y-111082062D01*
X156134400Y-111068493D01*
X157122737Y-110080157D01*
X157208321Y-110115607D01*
X157388265Y-110151400D01*
X157571735Y-110151400D01*
X157751679Y-110115607D01*
X157921184Y-110045396D01*
X158073733Y-109943466D01*
X158203466Y-109813733D01*
X158305396Y-109661184D01*
X158362054Y-109524400D01*
X159137946Y-109524400D01*
X159194604Y-109661184D01*
G04 #@! TA.AperFunction,Conductor*
D20*
G36*
X159194604Y-109661184D02*
G01*
X159296534Y-109813733D01*
X159426267Y-109943466D01*
X159578816Y-110045396D01*
X159748321Y-110115607D01*
X159928265Y-110151400D01*
X160111735Y-110151400D01*
X160291679Y-110115607D01*
X160377264Y-110080157D01*
X161756260Y-111459154D01*
X161767391Y-111472717D01*
X161821538Y-111517155D01*
X161883314Y-111550175D01*
X161950344Y-111570508D01*
X162002591Y-111575654D01*
X162002599Y-111575654D01*
X162020054Y-111577373D01*
X162037509Y-111575654D01*
X165805316Y-111575654D01*
X165832774Y-111616747D01*
X165919453Y-111703426D01*
X166021376Y-111771529D01*
X166134628Y-111818439D01*
X166254855Y-111842354D01*
X166377437Y-111842354D01*
X166497664Y-111818439D01*
X166610916Y-111771529D01*
X166658600Y-111739667D01*
X166658600Y-111856660D01*
X166696314Y-112046264D01*
X166770294Y-112224867D01*
X166843884Y-112335001D01*
X158961943Y-112335001D01*
X158936999Y-112332544D01*
X158912055Y-112335001D01*
X158912052Y-112335001D01*
X158837414Y-112342352D01*
X158741656Y-112371400D01*
X158715079Y-112385606D01*
X158653403Y-112418572D01*
X158625287Y-112441647D01*
X158576051Y-112482053D01*
X158560144Y-112501436D01*
X157715386Y-113346194D01*
X157576660Y-113318600D01*
X157383340Y-113318600D01*
X157193736Y-113356314D01*
X157015133Y-113430294D01*
X156854394Y-113537697D01*
X156717697Y-113674394D01*
X156610294Y-113835133D01*
X156543826Y-113995600D01*
X155876174Y-113995600D01*
X155809706Y-113835133D01*
X155702303Y-113674394D01*
X155565606Y-113537697D01*
X155404867Y-113430294D01*
X155226264Y-113356314D01*
X155036660Y-113318600D01*
X154843340Y-113318600D01*
X154704614Y-113346194D01*
X154233854Y-112875434D01*
X154217947Y-112856051D01*
X154140594Y-112792570D01*
X154052342Y-112745398D01*
X153956584Y-112716350D01*
X153881946Y-112708999D01*
X153881943Y-112708999D01*
X153856999Y-112706542D01*
X153832055Y-112708999D01*
X152659553Y-112708999D01*
X152686264Y-112703686D01*
X152864867Y-112629706D01*
X153025606Y-112522303D01*
X153162303Y-112385606D01*
X153269706Y-112224867D01*
X153343686Y-112046264D01*
X153381400Y-111856660D01*
X153381400Y-111663340D01*
X153343686Y-111473736D01*
X153269706Y-111295133D01*
X153196116Y-111184999D01*
X155853146Y-111184999D01*
X155870601Y-111186718D01*
X155888056Y-111184999D01*
X155888064Y-111184999D01*
X155940311Y-111179853D01*
X156007341Y-111159520D01*
X156069117Y-111126500D01*
X156123264Y-111082062D01*
X156134400Y-111068493D01*
X157122737Y-110080157D01*
X157208321Y-110115607D01*
X157388265Y-110151400D01*
X157571735Y-110151400D01*
X157751679Y-110115607D01*
X157921184Y-110045396D01*
X158073733Y-109943466D01*
X158203466Y-109813733D01*
X158305396Y-109661184D01*
X158362054Y-109524400D01*
X159137946Y-109524400D01*
X159194604Y-109661184D01*
G37*
G04 #@! TD.AperFunction*
D19*
X170281600Y-109118400D02*
X170301600Y-109118400D01*
X170301600Y-109321600D01*
X170281600Y-109321600D01*
X170281600Y-109341600D01*
X170078400Y-109341600D01*
X170078400Y-109321600D01*
X170058400Y-109321600D01*
X170058400Y-109118400D01*
X170078400Y-109118400D01*
X170078400Y-109098400D01*
X170281600Y-109098400D01*
X170281600Y-109118400D01*
G04 #@! TA.AperFunction,Conductor*
D20*
G36*
X170281600Y-109118400D02*
G01*
X170301600Y-109118400D01*
X170301600Y-109321600D01*
X170281600Y-109321600D01*
X170281600Y-109341600D01*
X170078400Y-109341600D01*
X170078400Y-109321600D01*
X170058400Y-109321600D01*
X170058400Y-109118400D01*
X170078400Y-109118400D01*
X170078400Y-109098400D01*
X170281600Y-109098400D01*
X170281600Y-109118400D01*
G37*
G04 #@! TD.AperFunction*
D19*
X151530294Y-106215133D02*
X151456314Y-106393736D01*
X151418600Y-106583340D01*
X151418600Y-106776660D01*
X151456314Y-106966264D01*
X151530294Y-107144867D01*
X151637697Y-107305606D01*
X151774394Y-107442303D01*
X151935133Y-107549706D01*
X152113736Y-107623686D01*
X152303340Y-107661400D01*
X152496660Y-107661400D01*
X152686264Y-107623686D01*
X152864867Y-107549706D01*
X153025606Y-107442303D01*
X153162303Y-107305606D01*
X153269706Y-107144867D01*
X153343686Y-106966264D01*
X153365600Y-106856093D01*
X153365601Y-109043911D01*
X153343686Y-108933736D01*
X153269706Y-108755133D01*
X153162303Y-108594394D01*
X153025606Y-108457697D01*
X152864867Y-108350294D01*
X152686264Y-108276314D01*
X152496660Y-108238600D01*
X152303340Y-108238600D01*
X152113736Y-108276314D01*
X151935133Y-108350294D01*
X151774394Y-108457697D01*
X151637697Y-108594394D01*
X151530294Y-108755133D01*
X151456314Y-108933736D01*
X151426848Y-109081874D01*
X151325880Y-108980906D01*
X151314744Y-108967337D01*
X151260597Y-108922899D01*
X151198821Y-108889879D01*
X151131791Y-108869546D01*
X151079544Y-108864400D01*
X151079536Y-108864400D01*
X151062081Y-108862681D01*
X151044626Y-108864400D01*
X150935160Y-108864400D01*
X150860862Y-108685028D01*
X150737263Y-108500049D01*
X150579951Y-108342737D01*
X150394972Y-108219138D01*
X150189434Y-108134002D01*
X149971236Y-108090600D01*
X149748764Y-108090600D01*
X149530566Y-108134002D01*
X149325028Y-108219138D01*
X149140049Y-108342737D01*
X148982737Y-108500049D01*
X148894400Y-108632255D01*
X148894400Y-107267745D01*
X148982737Y-107399951D01*
X149140049Y-107557263D01*
X149325028Y-107680862D01*
X149530566Y-107765998D01*
X149748764Y-107809400D01*
X149971236Y-107809400D01*
X150189434Y-107765998D01*
X150394972Y-107680862D01*
X150579951Y-107557263D01*
X150737263Y-107399951D01*
X150860862Y-107214972D01*
X150945998Y-107009434D01*
X150989400Y-106791236D01*
X150989400Y-106568764D01*
X150945998Y-106350566D01*
X150871700Y-106171194D01*
X150937895Y-106104999D01*
X151603884Y-106104999D01*
X151530294Y-106215133D01*
G04 #@! TA.AperFunction,Conductor*
D20*
G36*
X151530294Y-106215133D02*
G01*
X151456314Y-106393736D01*
X151418600Y-106583340D01*
X151418600Y-106776660D01*
X151456314Y-106966264D01*
X151530294Y-107144867D01*
X151637697Y-107305606D01*
X151774394Y-107442303D01*
X151935133Y-107549706D01*
X152113736Y-107623686D01*
X152303340Y-107661400D01*
X152496660Y-107661400D01*
X152686264Y-107623686D01*
X152864867Y-107549706D01*
X153025606Y-107442303D01*
X153162303Y-107305606D01*
X153269706Y-107144867D01*
X153343686Y-106966264D01*
X153365600Y-106856093D01*
X153365601Y-109043911D01*
X153343686Y-108933736D01*
X153269706Y-108755133D01*
X153162303Y-108594394D01*
X153025606Y-108457697D01*
X152864867Y-108350294D01*
X152686264Y-108276314D01*
X152496660Y-108238600D01*
X152303340Y-108238600D01*
X152113736Y-108276314D01*
X151935133Y-108350294D01*
X151774394Y-108457697D01*
X151637697Y-108594394D01*
X151530294Y-108755133D01*
X151456314Y-108933736D01*
X151426848Y-109081874D01*
X151325880Y-108980906D01*
X151314744Y-108967337D01*
X151260597Y-108922899D01*
X151198821Y-108889879D01*
X151131791Y-108869546D01*
X151079544Y-108864400D01*
X151079536Y-108864400D01*
X151062081Y-108862681D01*
X151044626Y-108864400D01*
X150935160Y-108864400D01*
X150860862Y-108685028D01*
X150737263Y-108500049D01*
X150579951Y-108342737D01*
X150394972Y-108219138D01*
X150189434Y-108134002D01*
X149971236Y-108090600D01*
X149748764Y-108090600D01*
X149530566Y-108134002D01*
X149325028Y-108219138D01*
X149140049Y-108342737D01*
X148982737Y-108500049D01*
X148894400Y-108632255D01*
X148894400Y-107267745D01*
X148982737Y-107399951D01*
X149140049Y-107557263D01*
X149325028Y-107680862D01*
X149530566Y-107765998D01*
X149748764Y-107809400D01*
X149971236Y-107809400D01*
X150189434Y-107765998D01*
X150394972Y-107680862D01*
X150579951Y-107557263D01*
X150737263Y-107399951D01*
X150860862Y-107214972D01*
X150945998Y-107009434D01*
X150989400Y-106791236D01*
X150989400Y-106568764D01*
X150945998Y-106350566D01*
X150871700Y-106171194D01*
X150937895Y-106104999D01*
X151603884Y-106104999D01*
X151530294Y-106215133D01*
G37*
G04 #@! TD.AperFunction*
D19*
X171145601Y-98472255D02*
X171057263Y-98340049D01*
X170899951Y-98182737D01*
X170714972Y-98059138D01*
X170509434Y-97974002D01*
X170291236Y-97930600D01*
X170068764Y-97930600D01*
X169850566Y-97974002D01*
X169645028Y-98059138D01*
X169460049Y-98182737D01*
X169302737Y-98340049D01*
X169179138Y-98525028D01*
X169094002Y-98730566D01*
X169050600Y-98948764D01*
X169050600Y-99171236D01*
X169094002Y-99389434D01*
X169179138Y-99594972D01*
X169302737Y-99779951D01*
X169460049Y-99937263D01*
X169645028Y-100060862D01*
X169850566Y-100145998D01*
X170068764Y-100189400D01*
X170291236Y-100189400D01*
X170509434Y-100145998D01*
X170714972Y-100060862D01*
X170899951Y-99937263D01*
X171057263Y-99779951D01*
X171145601Y-99647744D01*
X171145601Y-101012256D01*
X171057263Y-100880049D01*
X170899951Y-100722737D01*
X170714972Y-100599138D01*
X170509434Y-100514002D01*
X170291236Y-100470600D01*
X170068764Y-100470600D01*
X169850566Y-100514002D01*
X169645028Y-100599138D01*
X169460049Y-100722737D01*
X169302737Y-100880049D01*
X169179138Y-101065028D01*
X169094002Y-101270566D01*
X169050600Y-101488764D01*
X169050600Y-101711236D01*
X169094002Y-101929434D01*
X169179138Y-102134972D01*
X169302737Y-102319951D01*
X169460049Y-102477263D01*
X169645028Y-102600862D01*
X169850566Y-102685998D01*
X170068764Y-102729400D01*
X170291236Y-102729400D01*
X170509434Y-102685998D01*
X170714972Y-102600862D01*
X170899951Y-102477263D01*
X171057263Y-102319951D01*
X171145601Y-102187744D01*
X171145601Y-103552256D01*
X171057263Y-103420049D01*
X170899951Y-103262737D01*
X170714972Y-103139138D01*
X170509434Y-103054002D01*
X170291236Y-103010600D01*
X170068764Y-103010600D01*
X169850566Y-103054002D01*
X169645028Y-103139138D01*
X169460049Y-103262737D01*
X169302737Y-103420049D01*
X169179138Y-103605028D01*
X169094002Y-103810566D01*
X169050600Y-104028764D01*
X169050600Y-104251236D01*
X169094002Y-104469434D01*
X169168300Y-104648806D01*
X168331503Y-105485604D01*
X168317938Y-105496737D01*
X168273500Y-105550884D01*
X168240480Y-105612660D01*
X168220147Y-105679690D01*
X168215001Y-105731937D01*
X168215001Y-105731944D01*
X168213282Y-105749399D01*
X168215001Y-105766855D01*
X168215001Y-105883884D01*
X168104867Y-105810294D01*
X167926264Y-105736314D01*
X167736660Y-105698600D01*
X167543340Y-105698600D01*
X167353736Y-105736314D01*
X167175133Y-105810294D01*
X167014394Y-105917697D01*
X166877697Y-106054394D01*
X166770294Y-106215133D01*
X166696314Y-106393736D01*
X166658669Y-106582992D01*
X166652589Y-106562948D01*
X166624323Y-106510067D01*
X166586284Y-106463716D01*
X166539933Y-106425677D01*
X166487052Y-106397411D01*
X166429673Y-106380005D01*
X166384946Y-106375600D01*
X166370000Y-106374128D01*
X166355054Y-106375600D01*
X165982054Y-106375600D01*
X165960157Y-106322736D01*
X166761500Y-105521394D01*
X166775063Y-105510263D01*
X166795301Y-105485604D01*
X166819501Y-105456116D01*
X166835491Y-105426201D01*
X166852521Y-105394340D01*
X166872854Y-105327310D01*
X166878000Y-105275063D01*
X166878000Y-105275055D01*
X166879719Y-105257600D01*
X166878000Y-105240145D01*
X166878000Y-104765909D01*
X167014394Y-104902303D01*
X167175133Y-105009706D01*
X167353736Y-105083686D01*
X167543340Y-105121400D01*
X167736660Y-105121400D01*
X167926264Y-105083686D01*
X168104867Y-105009706D01*
X168265606Y-104902303D01*
X168402303Y-104765606D01*
X168509706Y-104604867D01*
X168583686Y-104426264D01*
X168621400Y-104236660D01*
X168621400Y-104043340D01*
X168583686Y-103853736D01*
X168509706Y-103675133D01*
X168402303Y-103514394D01*
X168265606Y-103377697D01*
X168104867Y-103270294D01*
X167926264Y-103196314D01*
X167736660Y-103158600D01*
X167543340Y-103158600D01*
X167353736Y-103196314D01*
X167175133Y-103270294D01*
X167014394Y-103377697D01*
X166878000Y-103514091D01*
X166878000Y-102225909D01*
X167014394Y-102362303D01*
X167175133Y-102469706D01*
X167353736Y-102543686D01*
X167543340Y-102581400D01*
X167736660Y-102581400D01*
X167926264Y-102543686D01*
X168104867Y-102469706D01*
X168265606Y-102362303D01*
X168402303Y-102225606D01*
X168509706Y-102064867D01*
X168583686Y-101886264D01*
X168621400Y-101696660D01*
X168621400Y-101503340D01*
X168583686Y-101313736D01*
X168509706Y-101135133D01*
X168402303Y-100974394D01*
X168265606Y-100837697D01*
X168104867Y-100730294D01*
X167926264Y-100656314D01*
X167736660Y-100618600D01*
X167543340Y-100618600D01*
X167353736Y-100656314D01*
X167175133Y-100730294D01*
X167014394Y-100837697D01*
X166878000Y-100974091D01*
X166878000Y-99685909D01*
X167014394Y-99822303D01*
X167175133Y-99929706D01*
X167353736Y-100003686D01*
X167543340Y-100041400D01*
X167736660Y-100041400D01*
X167926264Y-100003686D01*
X168104867Y-99929706D01*
X168265606Y-99822303D01*
X168402303Y-99685606D01*
X168509706Y-99524867D01*
X168583686Y-99346264D01*
X168621400Y-99156660D01*
X168621400Y-98963340D01*
X168583686Y-98773736D01*
X168509706Y-98595133D01*
X168402303Y-98434394D01*
X168342109Y-98374200D01*
X168740145Y-98374200D01*
X168757600Y-98375919D01*
X168775055Y-98374200D01*
X168775063Y-98374200D01*
X168827310Y-98369054D01*
X168894340Y-98348721D01*
X168956116Y-98315701D01*
X169010263Y-98271263D01*
X169021399Y-98257694D01*
X169725075Y-97554019D01*
X169850566Y-97605998D01*
X170068764Y-97649400D01*
X170291236Y-97649400D01*
X170509434Y-97605998D01*
X170714972Y-97520862D01*
X170899951Y-97397263D01*
X171057263Y-97239951D01*
X171145600Y-97107745D01*
X171145601Y-98472255D01*
G04 #@! TA.AperFunction,Conductor*
D20*
G36*
X171145601Y-98472255D02*
G01*
X171057263Y-98340049D01*
X170899951Y-98182737D01*
X170714972Y-98059138D01*
X170509434Y-97974002D01*
X170291236Y-97930600D01*
X170068764Y-97930600D01*
X169850566Y-97974002D01*
X169645028Y-98059138D01*
X169460049Y-98182737D01*
X169302737Y-98340049D01*
X169179138Y-98525028D01*
X169094002Y-98730566D01*
X169050600Y-98948764D01*
X169050600Y-99171236D01*
X169094002Y-99389434D01*
X169179138Y-99594972D01*
X169302737Y-99779951D01*
X169460049Y-99937263D01*
X169645028Y-100060862D01*
X169850566Y-100145998D01*
X170068764Y-100189400D01*
X170291236Y-100189400D01*
X170509434Y-100145998D01*
X170714972Y-100060862D01*
X170899951Y-99937263D01*
X171057263Y-99779951D01*
X171145601Y-99647744D01*
X171145601Y-101012256D01*
X171057263Y-100880049D01*
X170899951Y-100722737D01*
X170714972Y-100599138D01*
X170509434Y-100514002D01*
X170291236Y-100470600D01*
X170068764Y-100470600D01*
X169850566Y-100514002D01*
X169645028Y-100599138D01*
X169460049Y-100722737D01*
X169302737Y-100880049D01*
X169179138Y-101065028D01*
X169094002Y-101270566D01*
X169050600Y-101488764D01*
X169050600Y-101711236D01*
X169094002Y-101929434D01*
X169179138Y-102134972D01*
X169302737Y-102319951D01*
X169460049Y-102477263D01*
X169645028Y-102600862D01*
X169850566Y-102685998D01*
X170068764Y-102729400D01*
X170291236Y-102729400D01*
X170509434Y-102685998D01*
X170714972Y-102600862D01*
X170899951Y-102477263D01*
X171057263Y-102319951D01*
X171145601Y-102187744D01*
X171145601Y-103552256D01*
X171057263Y-103420049D01*
X170899951Y-103262737D01*
X170714972Y-103139138D01*
X170509434Y-103054002D01*
X170291236Y-103010600D01*
X170068764Y-103010600D01*
X169850566Y-103054002D01*
X169645028Y-103139138D01*
X169460049Y-103262737D01*
X169302737Y-103420049D01*
X169179138Y-103605028D01*
X169094002Y-103810566D01*
X169050600Y-104028764D01*
X169050600Y-104251236D01*
X169094002Y-104469434D01*
X169168300Y-104648806D01*
X168331503Y-105485604D01*
X168317938Y-105496737D01*
X168273500Y-105550884D01*
X168240480Y-105612660D01*
X168220147Y-105679690D01*
X168215001Y-105731937D01*
X168215001Y-105731944D01*
X168213282Y-105749399D01*
X168215001Y-105766855D01*
X168215001Y-105883884D01*
X168104867Y-105810294D01*
X167926264Y-105736314D01*
X167736660Y-105698600D01*
X167543340Y-105698600D01*
X167353736Y-105736314D01*
X167175133Y-105810294D01*
X167014394Y-105917697D01*
X166877697Y-106054394D01*
X166770294Y-106215133D01*
X166696314Y-106393736D01*
X166658669Y-106582992D01*
X166652589Y-106562948D01*
X166624323Y-106510067D01*
X166586284Y-106463716D01*
X166539933Y-106425677D01*
X166487052Y-106397411D01*
X166429673Y-106380005D01*
X166384946Y-106375600D01*
X166370000Y-106374128D01*
X166355054Y-106375600D01*
X165982054Y-106375600D01*
X165960157Y-106322736D01*
X166761500Y-105521394D01*
X166775063Y-105510263D01*
X166795301Y-105485604D01*
X166819501Y-105456116D01*
X166835491Y-105426201D01*
X166852521Y-105394340D01*
X166872854Y-105327310D01*
X166878000Y-105275063D01*
X166878000Y-105275055D01*
X166879719Y-105257600D01*
X166878000Y-105240145D01*
X166878000Y-104765909D01*
X167014394Y-104902303D01*
X167175133Y-105009706D01*
X167353736Y-105083686D01*
X167543340Y-105121400D01*
X167736660Y-105121400D01*
X167926264Y-105083686D01*
X168104867Y-105009706D01*
X168265606Y-104902303D01*
X168402303Y-104765606D01*
X168509706Y-104604867D01*
X168583686Y-104426264D01*
X168621400Y-104236660D01*
X168621400Y-104043340D01*
X168583686Y-103853736D01*
X168509706Y-103675133D01*
X168402303Y-103514394D01*
X168265606Y-103377697D01*
X168104867Y-103270294D01*
X167926264Y-103196314D01*
X167736660Y-103158600D01*
X167543340Y-103158600D01*
X167353736Y-103196314D01*
X167175133Y-103270294D01*
X167014394Y-103377697D01*
X166878000Y-103514091D01*
X166878000Y-102225909D01*
X167014394Y-102362303D01*
X167175133Y-102469706D01*
X167353736Y-102543686D01*
X167543340Y-102581400D01*
X167736660Y-102581400D01*
X167926264Y-102543686D01*
X168104867Y-102469706D01*
X168265606Y-102362303D01*
X168402303Y-102225606D01*
X168509706Y-102064867D01*
X168583686Y-101886264D01*
X168621400Y-101696660D01*
X168621400Y-101503340D01*
X168583686Y-101313736D01*
X168509706Y-101135133D01*
X168402303Y-100974394D01*
X168265606Y-100837697D01*
X168104867Y-100730294D01*
X167926264Y-100656314D01*
X167736660Y-100618600D01*
X167543340Y-100618600D01*
X167353736Y-100656314D01*
X167175133Y-100730294D01*
X167014394Y-100837697D01*
X166878000Y-100974091D01*
X166878000Y-99685909D01*
X167014394Y-99822303D01*
X167175133Y-99929706D01*
X167353736Y-100003686D01*
X167543340Y-100041400D01*
X167736660Y-100041400D01*
X167926264Y-100003686D01*
X168104867Y-99929706D01*
X168265606Y-99822303D01*
X168402303Y-99685606D01*
X168509706Y-99524867D01*
X168583686Y-99346264D01*
X168621400Y-99156660D01*
X168621400Y-98963340D01*
X168583686Y-98773736D01*
X168509706Y-98595133D01*
X168402303Y-98434394D01*
X168342109Y-98374200D01*
X168740145Y-98374200D01*
X168757600Y-98375919D01*
X168775055Y-98374200D01*
X168775063Y-98374200D01*
X168827310Y-98369054D01*
X168894340Y-98348721D01*
X168956116Y-98315701D01*
X169010263Y-98271263D01*
X169021399Y-98257694D01*
X169725075Y-97554019D01*
X169850566Y-97605998D01*
X170068764Y-97649400D01*
X170291236Y-97649400D01*
X170509434Y-97605998D01*
X170714972Y-97520862D01*
X170899951Y-97397263D01*
X171057263Y-97239951D01*
X171145600Y-97107745D01*
X171145601Y-98472255D01*
G37*
G04 #@! TD.AperFunction*
D19*
X165486107Y-105283000D02*
X163618852Y-105283000D01*
X163601399Y-105281281D01*
X163583946Y-105283000D01*
X163583937Y-105283000D01*
X163531690Y-105288146D01*
X163464660Y-105308479D01*
X163464658Y-105308480D01*
X163456681Y-105312744D01*
X163402884Y-105341499D01*
X163402882Y-105341500D01*
X163402883Y-105341500D01*
X163362300Y-105374805D01*
X163362295Y-105374810D01*
X163348737Y-105385937D01*
X163337610Y-105399495D01*
X162917263Y-105819843D01*
X162831679Y-105784393D01*
X162651735Y-105748600D01*
X162468265Y-105748600D01*
X162288321Y-105784393D01*
X162118816Y-105854604D01*
X161966267Y-105956534D01*
X161836534Y-106086267D01*
X161734604Y-106238816D01*
X161677946Y-106375600D01*
X160902054Y-106375600D01*
X160845396Y-106238816D01*
X160743466Y-106086267D01*
X160613733Y-105956534D01*
X160461184Y-105854604D01*
X160291679Y-105784393D01*
X160111735Y-105748600D01*
X159928265Y-105748600D01*
X159748321Y-105784393D01*
X159662737Y-105819843D01*
X158922293Y-105079400D01*
X165689706Y-105079400D01*
X165486107Y-105283000D01*
G04 #@! TA.AperFunction,Conductor*
D20*
G36*
X165486107Y-105283000D02*
G01*
X163618852Y-105283000D01*
X163601399Y-105281281D01*
X163583946Y-105283000D01*
X163583937Y-105283000D01*
X163531690Y-105288146D01*
X163464660Y-105308479D01*
X163464658Y-105308480D01*
X163456681Y-105312744D01*
X163402884Y-105341499D01*
X163402882Y-105341500D01*
X163402883Y-105341500D01*
X163362300Y-105374805D01*
X163362295Y-105374810D01*
X163348737Y-105385937D01*
X163337610Y-105399495D01*
X162917263Y-105819843D01*
X162831679Y-105784393D01*
X162651735Y-105748600D01*
X162468265Y-105748600D01*
X162288321Y-105784393D01*
X162118816Y-105854604D01*
X161966267Y-105956534D01*
X161836534Y-106086267D01*
X161734604Y-106238816D01*
X161677946Y-106375600D01*
X160902054Y-106375600D01*
X160845396Y-106238816D01*
X160743466Y-106086267D01*
X160613733Y-105956534D01*
X160461184Y-105854604D01*
X160291679Y-105784393D01*
X160111735Y-105748600D01*
X159928265Y-105748600D01*
X159748321Y-105784393D01*
X159662737Y-105819843D01*
X158922293Y-105079400D01*
X165689706Y-105079400D01*
X165486107Y-105283000D01*
G37*
G04 #@! TD.AperFunction*
D19*
X154000600Y-104715001D02*
X153196116Y-104715001D01*
X153269706Y-104604867D01*
X153343686Y-104426264D01*
X153381400Y-104236660D01*
X153381400Y-104043340D01*
X153343686Y-103853736D01*
X153269706Y-103675133D01*
X153162303Y-103514394D01*
X153025606Y-103377697D01*
X152864867Y-103270294D01*
X152686264Y-103196314D01*
X152496660Y-103158600D01*
X152303340Y-103158600D01*
X152113736Y-103196314D01*
X151935133Y-103270294D01*
X151774394Y-103377697D01*
X151637697Y-103514394D01*
X151530294Y-103675133D01*
X151511000Y-103721713D01*
X151511000Y-102912852D01*
X151512719Y-102895399D01*
X151511000Y-102877946D01*
X151511000Y-102877937D01*
X151505854Y-102825690D01*
X151485521Y-102758660D01*
X151452501Y-102696884D01*
X151443567Y-102685998D01*
X151419195Y-102656300D01*
X151419185Y-102656290D01*
X151408062Y-102642737D01*
X151394510Y-102631615D01*
X150871700Y-102108806D01*
X150945998Y-101929434D01*
X150989400Y-101711236D01*
X150989400Y-101503340D01*
X151418600Y-101503340D01*
X151418600Y-101696660D01*
X151456314Y-101886264D01*
X151530294Y-102064867D01*
X151637697Y-102225606D01*
X151774394Y-102362303D01*
X151935133Y-102469706D01*
X152113736Y-102543686D01*
X152303340Y-102581400D01*
X152496660Y-102581400D01*
X152686264Y-102543686D01*
X152864867Y-102469706D01*
X153025606Y-102362303D01*
X153162303Y-102225606D01*
X153269706Y-102064867D01*
X153343686Y-101886264D01*
X153381400Y-101696660D01*
X153381400Y-101503340D01*
X153343686Y-101313736D01*
X153269706Y-101135133D01*
X153162303Y-100974394D01*
X153025606Y-100837697D01*
X152864867Y-100730294D01*
X152686264Y-100656314D01*
X152496660Y-100618600D01*
X152303340Y-100618600D01*
X152113736Y-100656314D01*
X151935133Y-100730294D01*
X151774394Y-100837697D01*
X151637697Y-100974394D01*
X151530294Y-101135133D01*
X151456314Y-101313736D01*
X151418600Y-101503340D01*
X150989400Y-101503340D01*
X150989400Y-101488764D01*
X150945998Y-101270566D01*
X150860862Y-101065028D01*
X150737263Y-100880049D01*
X150579951Y-100722737D01*
X150394972Y-100599138D01*
X150189434Y-100514002D01*
X149971236Y-100470600D01*
X149748764Y-100470600D01*
X149530566Y-100514002D01*
X149325028Y-100599138D01*
X149140049Y-100722737D01*
X148982737Y-100880049D01*
X148894400Y-101012255D01*
X148894400Y-99647745D01*
X148982737Y-99779951D01*
X149140049Y-99937263D01*
X149325028Y-100060862D01*
X149530566Y-100145998D01*
X149748764Y-100189400D01*
X149971236Y-100189400D01*
X150189434Y-100145998D01*
X150394972Y-100060862D01*
X150579951Y-99937263D01*
X150737263Y-99779951D01*
X150860862Y-99594972D01*
X150945998Y-99389434D01*
X150989400Y-99171236D01*
X150989400Y-98963340D01*
X151418600Y-98963340D01*
X151418600Y-99156660D01*
X151456314Y-99346264D01*
X151530294Y-99524867D01*
X151637697Y-99685606D01*
X151774394Y-99822303D01*
X151935133Y-99929706D01*
X152113736Y-100003686D01*
X152303340Y-100041400D01*
X152496660Y-100041400D01*
X152686264Y-100003686D01*
X152864867Y-99929706D01*
X153025606Y-99822303D01*
X153162303Y-99685606D01*
X153269706Y-99524867D01*
X153343686Y-99346264D01*
X153381400Y-99156660D01*
X153381400Y-98963340D01*
X153343686Y-98773736D01*
X153269706Y-98595133D01*
X153162303Y-98434394D01*
X153025606Y-98297697D01*
X152864867Y-98190294D01*
X152686264Y-98116314D01*
X152496660Y-98078600D01*
X152303340Y-98078600D01*
X152113736Y-98116314D01*
X151935133Y-98190294D01*
X151774394Y-98297697D01*
X151637697Y-98434394D01*
X151530294Y-98595133D01*
X151456314Y-98773736D01*
X151418600Y-98963340D01*
X150989400Y-98963340D01*
X150989400Y-98948764D01*
X150945998Y-98730566D01*
X150871700Y-98551194D01*
X151546910Y-97875985D01*
X151560462Y-97864863D01*
X151571585Y-97851310D01*
X151571595Y-97851300D01*
X151604900Y-97810717D01*
X151604902Y-97810715D01*
X151637921Y-97748940D01*
X151658254Y-97681910D01*
X151663400Y-97629663D01*
X151663400Y-97629654D01*
X151665119Y-97612201D01*
X151663400Y-97594748D01*
X151663400Y-97171309D01*
X151774394Y-97282303D01*
X151935133Y-97389706D01*
X152113736Y-97463686D01*
X152303340Y-97501400D01*
X152496660Y-97501400D01*
X152686264Y-97463686D01*
X152864867Y-97389706D01*
X153025606Y-97282303D01*
X153162303Y-97145606D01*
X153269706Y-96984867D01*
X153343686Y-96806264D01*
X153381400Y-96616660D01*
X153381400Y-96423340D01*
X153343686Y-96233736D01*
X153269706Y-96055133D01*
X153162303Y-95894394D01*
X153025606Y-95757697D01*
X152864867Y-95650294D01*
X152695646Y-95580200D01*
X153093745Y-95580200D01*
X153111200Y-95581919D01*
X153128655Y-95580200D01*
X153128663Y-95580200D01*
X153180910Y-95575054D01*
X153247940Y-95554721D01*
X153309716Y-95521701D01*
X153363863Y-95477263D01*
X153374999Y-95463694D01*
X154000601Y-94838093D01*
X154000600Y-104715001D01*
G04 #@! TA.AperFunction,Conductor*
D20*
G36*
X154000600Y-104715001D02*
G01*
X153196116Y-104715001D01*
X153269706Y-104604867D01*
X153343686Y-104426264D01*
X153381400Y-104236660D01*
X153381400Y-104043340D01*
X153343686Y-103853736D01*
X153269706Y-103675133D01*
X153162303Y-103514394D01*
X153025606Y-103377697D01*
X152864867Y-103270294D01*
X152686264Y-103196314D01*
X152496660Y-103158600D01*
X152303340Y-103158600D01*
X152113736Y-103196314D01*
X151935133Y-103270294D01*
X151774394Y-103377697D01*
X151637697Y-103514394D01*
X151530294Y-103675133D01*
X151511000Y-103721713D01*
X151511000Y-102912852D01*
X151512719Y-102895399D01*
X151511000Y-102877946D01*
X151511000Y-102877937D01*
X151505854Y-102825690D01*
X151485521Y-102758660D01*
X151452501Y-102696884D01*
X151443567Y-102685998D01*
X151419195Y-102656300D01*
X151419185Y-102656290D01*
X151408062Y-102642737D01*
X151394510Y-102631615D01*
X150871700Y-102108806D01*
X150945998Y-101929434D01*
X150989400Y-101711236D01*
X150989400Y-101503340D01*
X151418600Y-101503340D01*
X151418600Y-101696660D01*
X151456314Y-101886264D01*
X151530294Y-102064867D01*
X151637697Y-102225606D01*
X151774394Y-102362303D01*
X151935133Y-102469706D01*
X152113736Y-102543686D01*
X152303340Y-102581400D01*
X152496660Y-102581400D01*
X152686264Y-102543686D01*
X152864867Y-102469706D01*
X153025606Y-102362303D01*
X153162303Y-102225606D01*
X153269706Y-102064867D01*
X153343686Y-101886264D01*
X153381400Y-101696660D01*
X153381400Y-101503340D01*
X153343686Y-101313736D01*
X153269706Y-101135133D01*
X153162303Y-100974394D01*
X153025606Y-100837697D01*
X152864867Y-100730294D01*
X152686264Y-100656314D01*
X152496660Y-100618600D01*
X152303340Y-100618600D01*
X152113736Y-100656314D01*
X151935133Y-100730294D01*
X151774394Y-100837697D01*
X151637697Y-100974394D01*
X151530294Y-101135133D01*
X151456314Y-101313736D01*
X151418600Y-101503340D01*
X150989400Y-101503340D01*
X150989400Y-101488764D01*
X150945998Y-101270566D01*
X150860862Y-101065028D01*
X150737263Y-100880049D01*
X150579951Y-100722737D01*
X150394972Y-100599138D01*
X150189434Y-100514002D01*
X149971236Y-100470600D01*
X149748764Y-100470600D01*
X149530566Y-100514002D01*
X149325028Y-100599138D01*
X149140049Y-100722737D01*
X148982737Y-100880049D01*
X148894400Y-101012255D01*
X148894400Y-99647745D01*
X148982737Y-99779951D01*
X149140049Y-99937263D01*
X149325028Y-100060862D01*
X149530566Y-100145998D01*
X149748764Y-100189400D01*
X149971236Y-100189400D01*
X150189434Y-100145998D01*
X150394972Y-100060862D01*
X150579951Y-99937263D01*
X150737263Y-99779951D01*
X150860862Y-99594972D01*
X150945998Y-99389434D01*
X150989400Y-99171236D01*
X150989400Y-98963340D01*
X151418600Y-98963340D01*
X151418600Y-99156660D01*
X151456314Y-99346264D01*
X151530294Y-99524867D01*
X151637697Y-99685606D01*
X151774394Y-99822303D01*
X151935133Y-99929706D01*
X152113736Y-100003686D01*
X152303340Y-100041400D01*
X152496660Y-100041400D01*
X152686264Y-100003686D01*
X152864867Y-99929706D01*
X153025606Y-99822303D01*
X153162303Y-99685606D01*
X153269706Y-99524867D01*
X153343686Y-99346264D01*
X153381400Y-99156660D01*
X153381400Y-98963340D01*
X153343686Y-98773736D01*
X153269706Y-98595133D01*
X153162303Y-98434394D01*
X153025606Y-98297697D01*
X152864867Y-98190294D01*
X152686264Y-98116314D01*
X152496660Y-98078600D01*
X152303340Y-98078600D01*
X152113736Y-98116314D01*
X151935133Y-98190294D01*
X151774394Y-98297697D01*
X151637697Y-98434394D01*
X151530294Y-98595133D01*
X151456314Y-98773736D01*
X151418600Y-98963340D01*
X150989400Y-98963340D01*
X150989400Y-98948764D01*
X150945998Y-98730566D01*
X150871700Y-98551194D01*
X151546910Y-97875985D01*
X151560462Y-97864863D01*
X151571585Y-97851310D01*
X151571595Y-97851300D01*
X151604900Y-97810717D01*
X151604902Y-97810715D01*
X151637921Y-97748940D01*
X151658254Y-97681910D01*
X151663400Y-97629663D01*
X151663400Y-97629654D01*
X151665119Y-97612201D01*
X151663400Y-97594748D01*
X151663400Y-97171309D01*
X151774394Y-97282303D01*
X151935133Y-97389706D01*
X152113736Y-97463686D01*
X152303340Y-97501400D01*
X152496660Y-97501400D01*
X152686264Y-97463686D01*
X152864867Y-97389706D01*
X153025606Y-97282303D01*
X153162303Y-97145606D01*
X153269706Y-96984867D01*
X153343686Y-96806264D01*
X153381400Y-96616660D01*
X153381400Y-96423340D01*
X153343686Y-96233736D01*
X153269706Y-96055133D01*
X153162303Y-95894394D01*
X153025606Y-95757697D01*
X152864867Y-95650294D01*
X152695646Y-95580200D01*
X153093745Y-95580200D01*
X153111200Y-95581919D01*
X153128655Y-95580200D01*
X153128663Y-95580200D01*
X153180910Y-95575054D01*
X153247940Y-95554721D01*
X153309716Y-95521701D01*
X153363863Y-95477263D01*
X153374999Y-95463694D01*
X154000601Y-94838093D01*
X154000600Y-104715001D01*
G37*
G04 #@! TD.AperFunction*
D19*
X151664424Y-80400740D02*
X152400000Y-81136316D01*
X153135576Y-80400740D01*
X153112150Y-80314400D01*
X156540601Y-80314400D01*
X156540600Y-81900054D01*
X156539128Y-81915000D01*
X156545005Y-81974673D01*
X156562411Y-82032052D01*
X156590677Y-82084933D01*
X156611465Y-82110263D01*
X156628716Y-82131284D01*
X156675067Y-82169323D01*
X156727948Y-82197589D01*
X156785327Y-82214995D01*
X156845000Y-82220872D01*
X156859946Y-82219400D01*
X157867946Y-82219400D01*
X157924604Y-82356184D01*
X158026534Y-82508733D01*
X158156267Y-82638466D01*
X158308816Y-82740396D01*
X158478321Y-82810607D01*
X158515012Y-82817905D01*
X158731811Y-83034705D01*
X158742938Y-83048264D01*
X158756496Y-83059391D01*
X158756501Y-83059396D01*
X158786998Y-83084424D01*
X158797085Y-83092702D01*
X158858861Y-83125722D01*
X158925891Y-83146055D01*
X158978138Y-83151201D01*
X158978147Y-83151201D01*
X158995600Y-83152920D01*
X159013053Y-83151201D01*
X164380890Y-83151201D01*
X164337697Y-83194394D01*
X164230294Y-83355133D01*
X164156314Y-83533736D01*
X164118600Y-83723340D01*
X164118600Y-83916660D01*
X164156314Y-84106264D01*
X164230294Y-84284867D01*
X164337697Y-84445606D01*
X164474394Y-84582303D01*
X164635133Y-84689706D01*
X164813736Y-84763686D01*
X165003340Y-84801400D01*
X165196660Y-84801400D01*
X165386264Y-84763686D01*
X165541801Y-84699260D01*
X166904424Y-84699260D01*
X166964880Y-84922075D01*
X167192857Y-85032609D01*
X167438017Y-85096542D01*
X167690939Y-85111418D01*
X167941903Y-85076666D01*
X168181265Y-84993621D01*
X168315120Y-84922075D01*
X168375576Y-84699260D01*
X167640000Y-83963684D01*
X166904424Y-84699260D01*
X165541801Y-84699260D01*
X165564867Y-84689706D01*
X165725606Y-84582303D01*
X165862303Y-84445606D01*
X165969706Y-84284867D01*
X166043686Y-84106264D01*
X166081400Y-83916660D01*
X166081400Y-83723340D01*
X166043686Y-83533736D01*
X165969706Y-83355133D01*
X165862303Y-83194394D01*
X165819110Y-83151201D01*
X166534860Y-83151201D01*
X166427391Y-83372857D01*
X166363458Y-83618017D01*
X166348582Y-83870939D01*
X166383334Y-84121903D01*
X166466379Y-84361265D01*
X166537925Y-84495120D01*
X166760740Y-84555576D01*
X167496316Y-83820000D01*
X167482174Y-83805858D01*
X167625858Y-83662174D01*
X167640000Y-83676316D01*
X167654143Y-83662174D01*
X167797827Y-83805858D01*
X167783684Y-83820000D01*
X168519260Y-84555576D01*
X168554400Y-84546041D01*
X168554400Y-85072544D01*
X168552681Y-85090000D01*
X168554400Y-85107455D01*
X168554400Y-85107462D01*
X168559546Y-85159709D01*
X168579879Y-85226739D01*
X168612899Y-85288515D01*
X168657337Y-85342662D01*
X168670901Y-85353794D01*
X169168300Y-85851194D01*
X169094002Y-86030566D01*
X169050600Y-86248764D01*
X169050600Y-86471236D01*
X169094002Y-86689434D01*
X169179138Y-86894972D01*
X169302737Y-87079951D01*
X169460049Y-87237263D01*
X169645028Y-87360862D01*
X169850566Y-87445998D01*
X170068764Y-87489400D01*
X170078398Y-87489400D01*
X170078398Y-87615448D01*
X169855856Y-87502906D01*
X169589525Y-87592988D01*
X169345885Y-87733298D01*
X169134300Y-87918444D01*
X168962901Y-88141310D01*
X168838274Y-88393332D01*
X168782910Y-88575856D01*
X168895863Y-88798400D01*
X170078400Y-88798400D01*
X170078400Y-88778400D01*
X170281600Y-88778400D01*
X170281600Y-88798400D01*
X170301600Y-88798400D01*
X170301600Y-89001600D01*
X170281600Y-89001600D01*
X170281600Y-91338400D01*
X170301600Y-91338400D01*
X170301600Y-91541600D01*
X170281600Y-91541600D01*
X170281600Y-91561600D01*
X170078400Y-91561600D01*
X170078400Y-91541600D01*
X168895863Y-91541600D01*
X168782910Y-91764144D01*
X168838274Y-91946668D01*
X168962901Y-92198690D01*
X169134300Y-92421556D01*
X169345885Y-92606702D01*
X169589525Y-92747012D01*
X169855856Y-92837094D01*
X170078398Y-92724552D01*
X170078398Y-92850600D01*
X170068764Y-92850600D01*
X169850566Y-92894002D01*
X169645028Y-92979138D01*
X169460049Y-93102737D01*
X169302737Y-93260049D01*
X169179138Y-93445028D01*
X169094002Y-93650566D01*
X169050600Y-93868764D01*
X169050600Y-94091236D01*
X169094002Y-94309434D01*
X169168300Y-94488806D01*
X168721701Y-94935406D01*
X168708137Y-94946538D01*
X168663699Y-95000685D01*
X168630679Y-95062461D01*
X168610346Y-95129491D01*
X168605200Y-95181738D01*
X168605200Y-95181745D01*
X168603481Y-95199200D01*
X168605200Y-95216656D01*
X168605201Y-96341899D01*
X168583686Y-96233736D01*
X168509706Y-96055133D01*
X168402303Y-95894394D01*
X168265606Y-95757697D01*
X168104867Y-95650294D01*
X167926264Y-95576314D01*
X167736660Y-95538600D01*
X167543340Y-95538600D01*
X167353736Y-95576314D01*
X167175133Y-95650294D01*
X167014394Y-95757697D01*
X166877697Y-95894394D01*
X166770294Y-96055133D01*
X166696314Y-96233736D01*
X166658600Y-96423340D01*
X166658600Y-96616660D01*
X166696314Y-96806264D01*
X166770294Y-96984867D01*
X166877697Y-97145606D01*
X167014394Y-97282303D01*
X167127981Y-97358200D01*
X167073255Y-97358200D01*
X167055800Y-97356481D01*
X167038345Y-97358200D01*
X167038337Y-97358200D01*
X166986090Y-97363346D01*
X166919060Y-97383679D01*
X166857284Y-97416699D01*
X166803137Y-97461137D01*
X166792006Y-97474700D01*
X166039400Y-98227307D01*
X166039400Y-93883340D01*
X166658600Y-93883340D01*
X166658600Y-94076660D01*
X166696314Y-94266264D01*
X166770294Y-94444867D01*
X166877697Y-94605606D01*
X167014394Y-94742303D01*
X167175133Y-94849706D01*
X167353736Y-94923686D01*
X167543340Y-94961400D01*
X167736660Y-94961400D01*
X167926264Y-94923686D01*
X168104867Y-94849706D01*
X168265606Y-94742303D01*
X168402303Y-94605606D01*
X168509706Y-94444867D01*
X168583686Y-94266264D01*
X168621400Y-94076660D01*
X168621400Y-93883340D01*
X168583686Y-93693736D01*
X168509706Y-93515133D01*
X168402303Y-93354394D01*
X168265606Y-93217697D01*
X168104867Y-93110294D01*
X167926264Y-93036314D01*
X167736660Y-92998600D01*
X167543340Y-92998600D01*
X167353736Y-93036314D01*
X167175133Y-93110294D01*
X167014394Y-93217697D01*
X166877697Y-93354394D01*
X166770294Y-93515133D01*
X166696314Y-93693736D01*
X166658600Y-93883340D01*
X166039400Y-93883340D01*
X166039400Y-91343340D01*
X166658600Y-91343340D01*
X166658600Y-91536660D01*
X166696314Y-91726264D01*
X166770294Y-91904867D01*
X166877697Y-92065606D01*
X167014394Y-92202303D01*
X167175133Y-92309706D01*
X167353736Y-92383686D01*
X167543340Y-92421400D01*
X167736660Y-92421400D01*
X167926264Y-92383686D01*
X168104867Y-92309706D01*
X168265606Y-92202303D01*
X168402303Y-92065606D01*
X168509706Y-91904867D01*
X168583686Y-91726264D01*
X168621400Y-91536660D01*
X168621400Y-91343340D01*
X168583686Y-91153736D01*
X168509706Y-90975133D01*
X168402303Y-90814394D01*
X168265606Y-90677697D01*
X168104867Y-90570294D01*
X167926264Y-90496314D01*
X167736660Y-90458600D01*
X167543340Y-90458600D01*
X167353736Y-90496314D01*
X167175133Y-90570294D01*
X167014394Y-90677697D01*
X166877697Y-90814394D01*
X166770294Y-90975133D01*
X166696314Y-91153736D01*
X166658600Y-91343340D01*
X166039400Y-91343340D01*
X166039400Y-88803340D01*
X166658600Y-88803340D01*
X166658600Y-88996660D01*
X166696314Y-89186264D01*
X166770294Y-89364867D01*
X166877697Y-89525606D01*
X167014394Y-89662303D01*
X167175133Y-89769706D01*
X167353736Y-89843686D01*
X167543340Y-89881400D01*
X167736660Y-89881400D01*
X167926264Y-89843686D01*
X168104867Y-89769706D01*
X168265606Y-89662303D01*
X168402303Y-89525606D01*
X168509706Y-89364867D01*
X168567995Y-89224144D01*
X168782910Y-89224144D01*
X168838274Y-89406668D01*
X168962901Y-89658690D01*
X169134300Y-89881556D01*
X169345885Y-90066702D01*
X169525256Y-90170000D01*
X169345885Y-90273298D01*
X169134300Y-90458444D01*
X168962901Y-90681310D01*
X168838274Y-90933332D01*
X168782910Y-91115856D01*
X168895863Y-91338400D01*
X170078400Y-91338400D01*
X170078400Y-89001600D01*
X168895863Y-89001600D01*
X168782910Y-89224144D01*
X168567995Y-89224144D01*
X168583686Y-89186264D01*
X168621400Y-88996660D01*
X168621400Y-88803340D01*
X168583686Y-88613736D01*
X168509706Y-88435133D01*
X168402303Y-88274394D01*
X168265606Y-88137697D01*
X168104867Y-88030294D01*
X167926264Y-87956314D01*
X167736660Y-87918600D01*
X167543340Y-87918600D01*
X167353736Y-87956314D01*
X167175133Y-88030294D01*
X167014394Y-88137697D01*
X166877697Y-88274394D01*
X166770294Y-88435133D01*
X166696314Y-88613736D01*
X166658600Y-88803340D01*
X166039400Y-88803340D01*
X166039400Y-88432346D01*
X166040872Y-88417400D01*
X166034995Y-88357727D01*
X166017589Y-88300348D01*
X165989323Y-88247467D01*
X165951284Y-88201116D01*
X165904933Y-88163077D01*
X165852052Y-88134811D01*
X165794673Y-88117405D01*
X165749946Y-88113000D01*
X165735000Y-88111528D01*
X165720054Y-88113000D01*
X164131041Y-88113000D01*
X164123849Y-88095636D01*
X164049278Y-87984033D01*
X163954367Y-87889122D01*
X163842764Y-87814551D01*
X163718757Y-87763186D01*
X163587112Y-87737000D01*
X163500095Y-87737000D01*
X162026435Y-86263340D01*
X166658600Y-86263340D01*
X166658600Y-86456660D01*
X166696314Y-86646264D01*
X166770294Y-86824867D01*
X166877697Y-86985606D01*
X167014394Y-87122303D01*
X167175133Y-87229706D01*
X167353736Y-87303686D01*
X167543340Y-87341400D01*
X167736660Y-87341400D01*
X167926264Y-87303686D01*
X168104867Y-87229706D01*
X168265606Y-87122303D01*
X168402303Y-86985606D01*
X168509706Y-86824867D01*
X168583686Y-86646264D01*
X168621400Y-86456660D01*
X168621400Y-86263340D01*
X168583686Y-86073736D01*
X168509706Y-85895133D01*
X168402303Y-85734394D01*
X168265606Y-85597697D01*
X168104867Y-85490294D01*
X167926264Y-85416314D01*
X167736660Y-85378600D01*
X167543340Y-85378600D01*
X167353736Y-85416314D01*
X167175133Y-85490294D01*
X167014394Y-85597697D01*
X166877697Y-85734394D01*
X166770294Y-85895133D01*
X166696314Y-86073736D01*
X166658600Y-86263340D01*
X162026435Y-86263340D01*
X160274600Y-84511507D01*
X160263464Y-84497938D01*
X160209317Y-84453500D01*
X160147541Y-84420480D01*
X160080511Y-84400147D01*
X160028264Y-84395001D01*
X160028256Y-84395001D01*
X160010801Y-84393282D01*
X159993346Y-84395001D01*
X153196116Y-84395001D01*
X153269706Y-84284867D01*
X153343686Y-84106264D01*
X153381400Y-83916660D01*
X153381400Y-83723340D01*
X153343686Y-83533736D01*
X153269706Y-83355133D01*
X153162303Y-83194394D01*
X153025606Y-83057697D01*
X152864867Y-82950294D01*
X152686264Y-82876314D01*
X152496660Y-82838600D01*
X152303340Y-82838600D01*
X152113736Y-82876314D01*
X151935133Y-82950294D01*
X151774394Y-83057697D01*
X151637697Y-83194394D01*
X151568319Y-83298225D01*
X150488477Y-82218384D01*
X150576962Y-82159260D01*
X151664424Y-82159260D01*
X151724880Y-82382075D01*
X151952857Y-82492609D01*
X152198017Y-82556542D01*
X152450939Y-82571418D01*
X152701903Y-82536666D01*
X152941265Y-82453621D01*
X153075120Y-82382075D01*
X153135576Y-82159260D01*
X152400000Y-81423684D01*
X151664424Y-82159260D01*
X150576962Y-82159260D01*
X150579951Y-82157263D01*
X150737263Y-81999951D01*
X150860862Y-81814972D01*
X150945998Y-81609434D01*
X150989400Y-81391236D01*
X150989400Y-81330939D01*
X151108582Y-81330939D01*
X151143334Y-81581903D01*
X151226379Y-81821265D01*
X151297925Y-81955120D01*
X151520740Y-82015576D01*
X152256316Y-81280000D01*
X152543684Y-81280000D01*
X153279260Y-82015576D01*
X153502075Y-81955120D01*
X153612609Y-81727143D01*
X153676542Y-81481983D01*
X153691418Y-81229061D01*
X153656666Y-80978097D01*
X153573621Y-80738735D01*
X153502075Y-80604880D01*
X153279260Y-80544424D01*
X152543684Y-81280000D01*
X152256316Y-81280000D01*
X151520740Y-80544424D01*
X151297925Y-80604880D01*
X151187391Y-80832857D01*
X151123458Y-81078017D01*
X151108582Y-81330939D01*
X150989400Y-81330939D01*
X150989400Y-81168764D01*
X150945998Y-80950566D01*
X150860862Y-80745028D01*
X150737263Y-80560049D01*
X150579951Y-80402737D01*
X150447745Y-80314400D01*
X151687850Y-80314400D01*
X151664424Y-80400740D01*
G04 #@! TA.AperFunction,Conductor*
D20*
G36*
X151664424Y-80400740D02*
G01*
X152400000Y-81136316D01*
X153135576Y-80400740D01*
X153112150Y-80314400D01*
X156540601Y-80314400D01*
X156540600Y-81900054D01*
X156539128Y-81915000D01*
X156545005Y-81974673D01*
X156562411Y-82032052D01*
X156590677Y-82084933D01*
X156611465Y-82110263D01*
X156628716Y-82131284D01*
X156675067Y-82169323D01*
X156727948Y-82197589D01*
X156785327Y-82214995D01*
X156845000Y-82220872D01*
X156859946Y-82219400D01*
X157867946Y-82219400D01*
X157924604Y-82356184D01*
X158026534Y-82508733D01*
X158156267Y-82638466D01*
X158308816Y-82740396D01*
X158478321Y-82810607D01*
X158515012Y-82817905D01*
X158731811Y-83034705D01*
X158742938Y-83048264D01*
X158756496Y-83059391D01*
X158756501Y-83059396D01*
X158786998Y-83084424D01*
X158797085Y-83092702D01*
X158858861Y-83125722D01*
X158925891Y-83146055D01*
X158978138Y-83151201D01*
X158978147Y-83151201D01*
X158995600Y-83152920D01*
X159013053Y-83151201D01*
X164380890Y-83151201D01*
X164337697Y-83194394D01*
X164230294Y-83355133D01*
X164156314Y-83533736D01*
X164118600Y-83723340D01*
X164118600Y-83916660D01*
X164156314Y-84106264D01*
X164230294Y-84284867D01*
X164337697Y-84445606D01*
X164474394Y-84582303D01*
X164635133Y-84689706D01*
X164813736Y-84763686D01*
X165003340Y-84801400D01*
X165196660Y-84801400D01*
X165386264Y-84763686D01*
X165541801Y-84699260D01*
X166904424Y-84699260D01*
X166964880Y-84922075D01*
X167192857Y-85032609D01*
X167438017Y-85096542D01*
X167690939Y-85111418D01*
X167941903Y-85076666D01*
X168181265Y-84993621D01*
X168315120Y-84922075D01*
X168375576Y-84699260D01*
X167640000Y-83963684D01*
X166904424Y-84699260D01*
X165541801Y-84699260D01*
X165564867Y-84689706D01*
X165725606Y-84582303D01*
X165862303Y-84445606D01*
X165969706Y-84284867D01*
X166043686Y-84106264D01*
X166081400Y-83916660D01*
X166081400Y-83723340D01*
X166043686Y-83533736D01*
X165969706Y-83355133D01*
X165862303Y-83194394D01*
X165819110Y-83151201D01*
X166534860Y-83151201D01*
X166427391Y-83372857D01*
X166363458Y-83618017D01*
X166348582Y-83870939D01*
X166383334Y-84121903D01*
X166466379Y-84361265D01*
X166537925Y-84495120D01*
X166760740Y-84555576D01*
X167496316Y-83820000D01*
X167482174Y-83805858D01*
X167625858Y-83662174D01*
X167640000Y-83676316D01*
X167654143Y-83662174D01*
X167797827Y-83805858D01*
X167783684Y-83820000D01*
X168519260Y-84555576D01*
X168554400Y-84546041D01*
X168554400Y-85072544D01*
X168552681Y-85090000D01*
X168554400Y-85107455D01*
X168554400Y-85107462D01*
X168559546Y-85159709D01*
X168579879Y-85226739D01*
X168612899Y-85288515D01*
X168657337Y-85342662D01*
X168670901Y-85353794D01*
X169168300Y-85851194D01*
X169094002Y-86030566D01*
X169050600Y-86248764D01*
X169050600Y-86471236D01*
X169094002Y-86689434D01*
X169179138Y-86894972D01*
X169302737Y-87079951D01*
X169460049Y-87237263D01*
X169645028Y-87360862D01*
X169850566Y-87445998D01*
X170068764Y-87489400D01*
X170078398Y-87489400D01*
X170078398Y-87615448D01*
X169855856Y-87502906D01*
X169589525Y-87592988D01*
X169345885Y-87733298D01*
X169134300Y-87918444D01*
X168962901Y-88141310D01*
X168838274Y-88393332D01*
X168782910Y-88575856D01*
X168895863Y-88798400D01*
X170078400Y-88798400D01*
X170078400Y-88778400D01*
X170281600Y-88778400D01*
X170281600Y-88798400D01*
X170301600Y-88798400D01*
X170301600Y-89001600D01*
X170281600Y-89001600D01*
X170281600Y-91338400D01*
X170301600Y-91338400D01*
X170301600Y-91541600D01*
X170281600Y-91541600D01*
X170281600Y-91561600D01*
X170078400Y-91561600D01*
X170078400Y-91541600D01*
X168895863Y-91541600D01*
X168782910Y-91764144D01*
X168838274Y-91946668D01*
X168962901Y-92198690D01*
X169134300Y-92421556D01*
X169345885Y-92606702D01*
X169589525Y-92747012D01*
X169855856Y-92837094D01*
X170078398Y-92724552D01*
X170078398Y-92850600D01*
X170068764Y-92850600D01*
X169850566Y-92894002D01*
X169645028Y-92979138D01*
X169460049Y-93102737D01*
X169302737Y-93260049D01*
X169179138Y-93445028D01*
X169094002Y-93650566D01*
X169050600Y-93868764D01*
X169050600Y-94091236D01*
X169094002Y-94309434D01*
X169168300Y-94488806D01*
X168721701Y-94935406D01*
X168708137Y-94946538D01*
X168663699Y-95000685D01*
X168630679Y-95062461D01*
X168610346Y-95129491D01*
X168605200Y-95181738D01*
X168605200Y-95181745D01*
X168603481Y-95199200D01*
X168605200Y-95216656D01*
X168605201Y-96341899D01*
X168583686Y-96233736D01*
X168509706Y-96055133D01*
X168402303Y-95894394D01*
X168265606Y-95757697D01*
X168104867Y-95650294D01*
X167926264Y-95576314D01*
X167736660Y-95538600D01*
X167543340Y-95538600D01*
X167353736Y-95576314D01*
X167175133Y-95650294D01*
X167014394Y-95757697D01*
X166877697Y-95894394D01*
X166770294Y-96055133D01*
X166696314Y-96233736D01*
X166658600Y-96423340D01*
X166658600Y-96616660D01*
X166696314Y-96806264D01*
X166770294Y-96984867D01*
X166877697Y-97145606D01*
X167014394Y-97282303D01*
X167127981Y-97358200D01*
X167073255Y-97358200D01*
X167055800Y-97356481D01*
X167038345Y-97358200D01*
X167038337Y-97358200D01*
X166986090Y-97363346D01*
X166919060Y-97383679D01*
X166857284Y-97416699D01*
X166803137Y-97461137D01*
X166792006Y-97474700D01*
X166039400Y-98227307D01*
X166039400Y-93883340D01*
X166658600Y-93883340D01*
X166658600Y-94076660D01*
X166696314Y-94266264D01*
X166770294Y-94444867D01*
X166877697Y-94605606D01*
X167014394Y-94742303D01*
X167175133Y-94849706D01*
X167353736Y-94923686D01*
X167543340Y-94961400D01*
X167736660Y-94961400D01*
X167926264Y-94923686D01*
X168104867Y-94849706D01*
X168265606Y-94742303D01*
X168402303Y-94605606D01*
X168509706Y-94444867D01*
X168583686Y-94266264D01*
X168621400Y-94076660D01*
X168621400Y-93883340D01*
X168583686Y-93693736D01*
X168509706Y-93515133D01*
X168402303Y-93354394D01*
X168265606Y-93217697D01*
X168104867Y-93110294D01*
X167926264Y-93036314D01*
X167736660Y-92998600D01*
X167543340Y-92998600D01*
X167353736Y-93036314D01*
X167175133Y-93110294D01*
X167014394Y-93217697D01*
X166877697Y-93354394D01*
X166770294Y-93515133D01*
X166696314Y-93693736D01*
X166658600Y-93883340D01*
X166039400Y-93883340D01*
X166039400Y-91343340D01*
X166658600Y-91343340D01*
X166658600Y-91536660D01*
X166696314Y-91726264D01*
X166770294Y-91904867D01*
X166877697Y-92065606D01*
X167014394Y-92202303D01*
X167175133Y-92309706D01*
X167353736Y-92383686D01*
X167543340Y-92421400D01*
X167736660Y-92421400D01*
X167926264Y-92383686D01*
X168104867Y-92309706D01*
X168265606Y-92202303D01*
X168402303Y-92065606D01*
X168509706Y-91904867D01*
X168583686Y-91726264D01*
X168621400Y-91536660D01*
X168621400Y-91343340D01*
X168583686Y-91153736D01*
X168509706Y-90975133D01*
X168402303Y-90814394D01*
X168265606Y-90677697D01*
X168104867Y-90570294D01*
X167926264Y-90496314D01*
X167736660Y-90458600D01*
X167543340Y-90458600D01*
X167353736Y-90496314D01*
X167175133Y-90570294D01*
X167014394Y-90677697D01*
X166877697Y-90814394D01*
X166770294Y-90975133D01*
X166696314Y-91153736D01*
X166658600Y-91343340D01*
X166039400Y-91343340D01*
X166039400Y-88803340D01*
X166658600Y-88803340D01*
X166658600Y-88996660D01*
X166696314Y-89186264D01*
X166770294Y-89364867D01*
X166877697Y-89525606D01*
X167014394Y-89662303D01*
X167175133Y-89769706D01*
X167353736Y-89843686D01*
X167543340Y-89881400D01*
X167736660Y-89881400D01*
X167926264Y-89843686D01*
X168104867Y-89769706D01*
X168265606Y-89662303D01*
X168402303Y-89525606D01*
X168509706Y-89364867D01*
X168567995Y-89224144D01*
X168782910Y-89224144D01*
X168838274Y-89406668D01*
X168962901Y-89658690D01*
X169134300Y-89881556D01*
X169345885Y-90066702D01*
X169525256Y-90170000D01*
X169345885Y-90273298D01*
X169134300Y-90458444D01*
X168962901Y-90681310D01*
X168838274Y-90933332D01*
X168782910Y-91115856D01*
X168895863Y-91338400D01*
X170078400Y-91338400D01*
X170078400Y-89001600D01*
X168895863Y-89001600D01*
X168782910Y-89224144D01*
X168567995Y-89224144D01*
X168583686Y-89186264D01*
X168621400Y-88996660D01*
X168621400Y-88803340D01*
X168583686Y-88613736D01*
X168509706Y-88435133D01*
X168402303Y-88274394D01*
X168265606Y-88137697D01*
X168104867Y-88030294D01*
X167926264Y-87956314D01*
X167736660Y-87918600D01*
X167543340Y-87918600D01*
X167353736Y-87956314D01*
X167175133Y-88030294D01*
X167014394Y-88137697D01*
X166877697Y-88274394D01*
X166770294Y-88435133D01*
X166696314Y-88613736D01*
X166658600Y-88803340D01*
X166039400Y-88803340D01*
X166039400Y-88432346D01*
X166040872Y-88417400D01*
X166034995Y-88357727D01*
X166017589Y-88300348D01*
X165989323Y-88247467D01*
X165951284Y-88201116D01*
X165904933Y-88163077D01*
X165852052Y-88134811D01*
X165794673Y-88117405D01*
X165749946Y-88113000D01*
X165735000Y-88111528D01*
X165720054Y-88113000D01*
X164131041Y-88113000D01*
X164123849Y-88095636D01*
X164049278Y-87984033D01*
X163954367Y-87889122D01*
X163842764Y-87814551D01*
X163718757Y-87763186D01*
X163587112Y-87737000D01*
X163500095Y-87737000D01*
X162026435Y-86263340D01*
X166658600Y-86263340D01*
X166658600Y-86456660D01*
X166696314Y-86646264D01*
X166770294Y-86824867D01*
X166877697Y-86985606D01*
X167014394Y-87122303D01*
X167175133Y-87229706D01*
X167353736Y-87303686D01*
X167543340Y-87341400D01*
X167736660Y-87341400D01*
X167926264Y-87303686D01*
X168104867Y-87229706D01*
X168265606Y-87122303D01*
X168402303Y-86985606D01*
X168509706Y-86824867D01*
X168583686Y-86646264D01*
X168621400Y-86456660D01*
X168621400Y-86263340D01*
X168583686Y-86073736D01*
X168509706Y-85895133D01*
X168402303Y-85734394D01*
X168265606Y-85597697D01*
X168104867Y-85490294D01*
X167926264Y-85416314D01*
X167736660Y-85378600D01*
X167543340Y-85378600D01*
X167353736Y-85416314D01*
X167175133Y-85490294D01*
X167014394Y-85597697D01*
X166877697Y-85734394D01*
X166770294Y-85895133D01*
X166696314Y-86073736D01*
X166658600Y-86263340D01*
X162026435Y-86263340D01*
X160274600Y-84511507D01*
X160263464Y-84497938D01*
X160209317Y-84453500D01*
X160147541Y-84420480D01*
X160080511Y-84400147D01*
X160028264Y-84395001D01*
X160028256Y-84395001D01*
X160010801Y-84393282D01*
X159993346Y-84395001D01*
X153196116Y-84395001D01*
X153269706Y-84284867D01*
X153343686Y-84106264D01*
X153381400Y-83916660D01*
X153381400Y-83723340D01*
X153343686Y-83533736D01*
X153269706Y-83355133D01*
X153162303Y-83194394D01*
X153025606Y-83057697D01*
X152864867Y-82950294D01*
X152686264Y-82876314D01*
X152496660Y-82838600D01*
X152303340Y-82838600D01*
X152113736Y-82876314D01*
X151935133Y-82950294D01*
X151774394Y-83057697D01*
X151637697Y-83194394D01*
X151568319Y-83298225D01*
X150488477Y-82218384D01*
X150576962Y-82159260D01*
X151664424Y-82159260D01*
X151724880Y-82382075D01*
X151952857Y-82492609D01*
X152198017Y-82556542D01*
X152450939Y-82571418D01*
X152701903Y-82536666D01*
X152941265Y-82453621D01*
X153075120Y-82382075D01*
X153135576Y-82159260D01*
X152400000Y-81423684D01*
X151664424Y-82159260D01*
X150576962Y-82159260D01*
X150579951Y-82157263D01*
X150737263Y-81999951D01*
X150860862Y-81814972D01*
X150945998Y-81609434D01*
X150989400Y-81391236D01*
X150989400Y-81330939D01*
X151108582Y-81330939D01*
X151143334Y-81581903D01*
X151226379Y-81821265D01*
X151297925Y-81955120D01*
X151520740Y-82015576D01*
X152256316Y-81280000D01*
X152543684Y-81280000D01*
X153279260Y-82015576D01*
X153502075Y-81955120D01*
X153612609Y-81727143D01*
X153676542Y-81481983D01*
X153691418Y-81229061D01*
X153656666Y-80978097D01*
X153573621Y-80738735D01*
X153502075Y-80604880D01*
X153279260Y-80544424D01*
X152543684Y-81280000D01*
X152256316Y-81280000D01*
X151520740Y-80544424D01*
X151297925Y-80604880D01*
X151187391Y-80832857D01*
X151123458Y-81078017D01*
X151108582Y-81330939D01*
X150989400Y-81330939D01*
X150989400Y-81168764D01*
X150945998Y-80950566D01*
X150860862Y-80745028D01*
X150737263Y-80560049D01*
X150579951Y-80402737D01*
X150447745Y-80314400D01*
X151687850Y-80314400D01*
X151664424Y-80400740D01*
G37*
G04 #@! TD.AperFunction*
D19*
X161429276Y-87433970D02*
X161265446Y-87460679D01*
X161083494Y-87528742D01*
X161022787Y-87561193D01*
X160998727Y-87753440D01*
X160891555Y-87646268D01*
X160861768Y-87676055D01*
X160850121Y-87637660D01*
X160817101Y-87575884D01*
X160805044Y-87561193D01*
X160783795Y-87535300D01*
X160783785Y-87535290D01*
X160772662Y-87521737D01*
X160759110Y-87510615D01*
X158668693Y-85420200D01*
X159415507Y-85420200D01*
X161429276Y-87433970D01*
G04 #@! TA.AperFunction,Conductor*
D20*
G36*
X161429276Y-87433970D02*
G01*
X161265446Y-87460679D01*
X161083494Y-87528742D01*
X161022787Y-87561193D01*
X160998727Y-87753440D01*
X160891555Y-87646268D01*
X160861768Y-87676055D01*
X160850121Y-87637660D01*
X160817101Y-87575884D01*
X160805044Y-87561193D01*
X160783795Y-87535300D01*
X160783785Y-87535290D01*
X160772662Y-87521737D01*
X160759110Y-87510615D01*
X158668693Y-85420200D01*
X159415507Y-85420200D01*
X161429276Y-87433970D01*
G37*
G04 #@! TD.AperFunction*
D19*
X159069855Y-86827149D02*
X159023558Y-86822589D01*
X159023555Y-86822589D01*
X158998611Y-86820132D01*
X158973667Y-86822589D01*
X154222955Y-86822589D01*
X154198011Y-86820132D01*
X154173067Y-86822589D01*
X154173064Y-86822589D01*
X154098426Y-86829940D01*
X154002668Y-86858988D01*
X153914416Y-86906160D01*
X153879273Y-86935001D01*
X153196116Y-86935001D01*
X153269706Y-86824867D01*
X153343686Y-86646264D01*
X153381400Y-86456660D01*
X153381400Y-86263340D01*
X153343686Y-86073736D01*
X153269706Y-85895133D01*
X153196116Y-85784999D01*
X158027706Y-85784999D01*
X159069855Y-86827149D01*
G04 #@! TA.AperFunction,Conductor*
D20*
G36*
X159069855Y-86827149D02*
G01*
X159023558Y-86822589D01*
X159023555Y-86822589D01*
X158998611Y-86820132D01*
X158973667Y-86822589D01*
X154222955Y-86822589D01*
X154198011Y-86820132D01*
X154173067Y-86822589D01*
X154173064Y-86822589D01*
X154098426Y-86829940D01*
X154002668Y-86858988D01*
X153914416Y-86906160D01*
X153879273Y-86935001D01*
X153196116Y-86935001D01*
X153269706Y-86824867D01*
X153343686Y-86646264D01*
X153381400Y-86456660D01*
X153381400Y-86263340D01*
X153343686Y-86073736D01*
X153269706Y-85895133D01*
X153196116Y-85784999D01*
X158027706Y-85784999D01*
X159069855Y-86827149D01*
G37*
G04 #@! TD.AperFunction*
D19*
X149961600Y-86258400D02*
X149981600Y-86258400D01*
X149981600Y-86461600D01*
X149961600Y-86461600D01*
X149961600Y-86481600D01*
X149758400Y-86481600D01*
X149758400Y-86461600D01*
X149738400Y-86461600D01*
X149738400Y-86258400D01*
X149758400Y-86258400D01*
X149758400Y-86238400D01*
X149961600Y-86238400D01*
X149961600Y-86258400D01*
G04 #@! TA.AperFunction,Conductor*
D20*
G36*
X149961600Y-86258400D02*
G01*
X149981600Y-86258400D01*
X149981600Y-86461600D01*
X149961600Y-86461600D01*
X149961600Y-86481600D01*
X149758400Y-86481600D01*
X149758400Y-86461600D01*
X149738400Y-86461600D01*
X149738400Y-86258400D01*
X149758400Y-86258400D01*
X149758400Y-86238400D01*
X149961600Y-86238400D01*
X149961600Y-86258400D01*
G37*
G04 #@! TD.AperFunction*
D19*
X167353736Y-80336314D02*
X167175133Y-80410294D01*
X167014394Y-80517697D01*
X166877697Y-80654394D01*
X166770294Y-80815133D01*
X166696314Y-80993736D01*
X166658600Y-81183340D01*
X166658600Y-81376660D01*
X166696314Y-81566264D01*
X166770294Y-81744867D01*
X166877697Y-81905606D01*
X167014394Y-82042303D01*
X167153408Y-82135190D01*
X163406524Y-82135190D01*
X163411284Y-82131284D01*
X163449323Y-82084933D01*
X163477589Y-82032052D01*
X163494995Y-81974673D01*
X163500872Y-81915000D01*
X163499400Y-81900054D01*
X163499400Y-80314400D01*
X167463907Y-80314400D01*
X167353736Y-80336314D01*
G04 #@! TA.AperFunction,Conductor*
D20*
G36*
X167353736Y-80336314D02*
G01*
X167175133Y-80410294D01*
X167014394Y-80517697D01*
X166877697Y-80654394D01*
X166770294Y-80815133D01*
X166696314Y-80993736D01*
X166658600Y-81183340D01*
X166658600Y-81376660D01*
X166696314Y-81566264D01*
X166770294Y-81744867D01*
X166877697Y-81905606D01*
X167014394Y-82042303D01*
X167153408Y-82135190D01*
X163406524Y-82135190D01*
X163411284Y-82131284D01*
X163449323Y-82084933D01*
X163477589Y-82032052D01*
X163494995Y-81974673D01*
X163500872Y-81915000D01*
X163499400Y-81900054D01*
X163499400Y-80314400D01*
X167463907Y-80314400D01*
X167353736Y-80336314D01*
G37*
G04 #@! TD.AperFunction*
M02*
