%FSLAX45Y45*%
G04 Gerber Fmt 4.5, Leading zero omitted, Abs format (unit mm)*
G04 Created by KiCad (PCBNEW (5.1.10)-1) date 2022-03-14 22:22:43*
%MOMM*%
%LPD*%
G01*
G04 APERTURE LIST*
%TA.AperFunction,Profile*%
%ADD10C,0.050000*%
%TD*%
%ADD11C,0.200000*%
%ADD12C,0.300000*%
G04 APERTURE END LIST*
D10*
X15367000Y-11557000D02*
X14859000Y-11557000D01*
X15367000Y-11430000D02*
X15367000Y-11557000D01*
X16637000Y-11430000D02*
X15367000Y-11430000D01*
X16637000Y-11557000D02*
X16637000Y-11430000D01*
X17145000Y-11557000D02*
X16637000Y-11557000D01*
X16637000Y-10922000D02*
X16637000Y-10668000D01*
X15367000Y-10922000D02*
X16637000Y-10922000D01*
X15367000Y-10668000D02*
X15367000Y-10922000D01*
X15430500Y-10477500D02*
X15430500Y-8841740D01*
X16573500Y-10477500D02*
X15430500Y-10477500D01*
X16573500Y-8841740D02*
X16573500Y-10477500D01*
X15430500Y-8841740D02*
X16573500Y-8841740D01*
X16637000Y-10668000D02*
X15367000Y-10668000D01*
X15684500Y-8001000D02*
X14859000Y-8001000D01*
X15684500Y-8191500D02*
X15684500Y-8001000D01*
X16319500Y-8191500D02*
X15684500Y-8191500D01*
X16319500Y-8001000D02*
X16319500Y-8191500D01*
X17145000Y-8001000D02*
X16319500Y-8001000D01*
X14859000Y-11557000D02*
X14859000Y-8001000D01*
X17145000Y-8001000D02*
X17145000Y-11557000D01*
D11*
D12*
X15142928Y-12025214D02*
X15142928Y-11725214D01*
X15214357Y-11725214D01*
X15257214Y-11739500D01*
X15285786Y-11768071D01*
X15300071Y-11796643D01*
X15314357Y-11853786D01*
X15314357Y-11896643D01*
X15300071Y-11953786D01*
X15285786Y-11982357D01*
X15257214Y-12010929D01*
X15214357Y-12025214D01*
X15142928Y-12025214D01*
X15442928Y-12025214D02*
X15442928Y-11825214D01*
X15442928Y-11882357D02*
X15457214Y-11853786D01*
X15471500Y-11839500D01*
X15500071Y-11825214D01*
X15528643Y-11825214D01*
X15628643Y-12025214D02*
X15628643Y-11825214D01*
X15628643Y-11725214D02*
X15614357Y-11739500D01*
X15628643Y-11753786D01*
X15642928Y-11739500D01*
X15628643Y-11725214D01*
X15628643Y-11753786D01*
X15814357Y-12025214D02*
X15785786Y-12010929D01*
X15771500Y-11982357D01*
X15771500Y-11725214D01*
X15971500Y-12025214D02*
X15942928Y-12010929D01*
X15928643Y-11982357D01*
X15928643Y-11725214D01*
X16314357Y-12025214D02*
X16314357Y-11725214D01*
X16414357Y-11939500D01*
X16514357Y-11725214D01*
X16514357Y-12025214D01*
X16785786Y-12025214D02*
X16785786Y-11868071D01*
X16771500Y-11839500D01*
X16742928Y-11825214D01*
X16685786Y-11825214D01*
X16657214Y-11839500D01*
X16785786Y-12010929D02*
X16757214Y-12025214D01*
X16685786Y-12025214D01*
X16657214Y-12010929D01*
X16642928Y-11982357D01*
X16642928Y-11953786D01*
X16657214Y-11925214D01*
X16685786Y-11910929D01*
X16757214Y-11910929D01*
X16785786Y-11896643D01*
X16928643Y-11825214D02*
X16928643Y-12125214D01*
X16928643Y-11839500D02*
X16957214Y-11825214D01*
X17014357Y-11825214D01*
X17042928Y-11839500D01*
X17057214Y-11853786D01*
X17071500Y-11882357D01*
X17071500Y-11968071D01*
X17057214Y-11996643D01*
X17042928Y-12010929D01*
X17014357Y-12025214D01*
X16957214Y-12025214D01*
X16928643Y-12010929D01*
X17200071Y-11996643D02*
X17214357Y-12010929D01*
X17200071Y-12025214D01*
X17185786Y-12010929D01*
X17200071Y-11996643D01*
X17200071Y-12025214D01*
X17200071Y-11839500D02*
X17214357Y-11853786D01*
X17200071Y-11868071D01*
X17185786Y-11853786D01*
X17200071Y-11839500D01*
X17200071Y-11868071D01*
M02*
