M48
; DRILL file {KiCad (5.1.10)-1} date 02/14/22 20:24:34
; FORMAT={-:-/ absolute / metric / decimal}
; #@! TF.CreationDate,2022-02-14T20:24:34+09:00
; #@! TF.GenerationSoftware,Kicad,Pcbnew,(5.1.10)-1
; #@! TF.FileFunction,Plated,1,2,PTH
FMAT,2
METRIC
T1C0.400
T2C0.500
T3C0.600
T4C0.800
T5C1.000
T6C1.090
T7C1.100
T8C1.200
T9C1.600
T10C1.700
%
G90
G05
T1
X133.694Y-113.12
X142.759Y-109.717
X144.94Y-89.891
X148.463Y-98.933
X149.52Y-89.891
X154.443Y-109.717
X157.353Y-99.441
X158.282Y-80.732
X158.704Y-78.532
X164.603Y-109.717
X164.632Y-84.074
X165.735Y-81.915
X175.26Y-97.028
X175.26Y-107.696
T3
X171.52Y-94.916
X172.72Y-89.916
T4
X129.667Y-84.455
X129.667Y-92.075
X132.461Y-93.599
X132.461Y-96.139
X132.461Y-98.679
X132.461Y-101.219
X135.001Y-97.409
X137.501Y-97.409
X138.049Y-104.521
X138.049Y-107.315
X140.081Y-93.599
X140.081Y-96.139
X140.081Y-98.679
X143.591Y-85.909
X145.669Y-104.521
X145.669Y-107.315
X147.701Y-104.521
X148.591Y-85.909
X150.703Y-85.909
X155.321Y-104.521
X155.703Y-85.909
X158.877Y-82.931
X158.877Y-85.471
X158.877Y-88.011
X159.893Y-91.567
X159.893Y-99.187
T5
X124.569Y-90.315
X126.365Y-88.519
X136.779Y-80.518
X136.779Y-87.249
X139.279Y-80.518
X139.279Y-87.249
X164.632Y-87.884
X164.632Y-94.488
X167.132Y-87.884
X167.132Y-94.488
T6
X134.493Y-106.553
X134.493Y-109.093
T7
X132.715Y-81.661
X132.715Y-89.281
T8
X146.852Y-75.732
X146.852Y-80.732
X149.352Y-73.232
X149.352Y-78.232
X151.852Y-75.732
X151.852Y-80.732
T9
X129.159Y-102.616
X129.159Y-115.316
T10
X125.095Y-95.885
X125.095Y-99.845
T2
X123.025Y-104.005G85X124.625Y-104.005
G05
X123.025Y-107.705G85X124.625Y-107.705
G05
X123.025Y-112.005G85X124.625Y-112.005
G05
X123.025Y-115.705G85X124.625Y-115.705
G05
T5
X170.545Y-107.95G85X168.545Y-107.95
G05
X170.545Y-113.95G85X168.545Y-113.95
G05
T0
M30
