G04 #@! TF.GenerationSoftware,KiCad,Pcbnew,(5.1.10)-1*
G04 #@! TF.CreationDate,2022-02-14T20:21:52+09:00*
G04 #@! TF.ProjectId,Integrated_Power_Board,496e7465-6772-4617-9465-645f506f7765,rev?*
G04 #@! TF.SameCoordinates,Original*
G04 #@! TF.FileFunction,Legend,Top*
G04 #@! TF.FilePolarity,Positive*
%FSLAX46Y46*%
G04 Gerber Fmt 4.6, Leading zero omitted, Abs format (unit mm)*
G04 Created by KiCad (PCBNEW (5.1.10)-1) date 2022-02-14 20:21:52*
%MOMM*%
%LPD*%
G01*
G04 APERTURE LIST*
%ADD10C,0.120000*%
%ADD11C,0.200000*%
%ADD12C,0.100000*%
%ADD13C,0.127000*%
%ADD14C,0.150000*%
%ADD15C,0.254000*%
%ADD16O,1.700000X2.000000*%
%ADD17O,2.700000X1.500000*%
%ADD18O,1.600000X1.600000*%
%ADD19C,1.635000*%
%ADD20C,1.600000*%
%ADD21C,1.800000*%
%ADD22R,1.800000X1.800000*%
%ADD23O,4.000000X2.000000*%
%ADD24C,1.440000*%
%ADD25R,2.200000X2.200000*%
%ADD26O,2.200000X2.200000*%
%ADD27R,3.200000X3.200000*%
%ADD28O,3.200000X3.200000*%
%ADD29C,2.700000*%
G04 APERTURE END LIST*
D10*
X126365000Y-86638096D02*
X127305452Y-87578548D01*
X125424548Y-87578548D02*
X126365000Y-86638096D01*
X124526522Y-88476574D02*
X126407426Y-90357478D01*
X126407426Y-90357478D02*
X124568949Y-92195955D01*
X124526522Y-88476574D02*
X122688045Y-90315051D01*
X122688045Y-90315051D02*
X124568949Y-92195955D01*
X134219000Y-78058000D02*
X134219000Y-84028000D01*
X134219000Y-84028000D02*
X141839000Y-84028000D01*
X141839000Y-84028000D02*
X141839000Y-78058000D01*
X141839000Y-78058000D02*
X134219000Y-78058000D01*
X137529000Y-78068000D02*
X137529000Y-78818000D01*
X137529000Y-78818000D02*
X138529000Y-78818000D01*
X138529000Y-78818000D02*
X138529000Y-78068000D01*
X138529000Y-78068000D02*
X137529000Y-78068000D01*
X134229000Y-78068000D02*
X134229000Y-78818000D01*
X134229000Y-78818000D02*
X136029000Y-78818000D01*
X136029000Y-78818000D02*
X136029000Y-78068000D01*
X136029000Y-78068000D02*
X134229000Y-78068000D01*
X140029000Y-78068000D02*
X140029000Y-78818000D01*
X140029000Y-78818000D02*
X141829000Y-78818000D01*
X141829000Y-78818000D02*
X141829000Y-78068000D01*
X141829000Y-78068000D02*
X140029000Y-78068000D01*
X134229000Y-80318000D02*
X134979000Y-80318000D01*
X134979000Y-80318000D02*
X134979000Y-83268000D01*
X134979000Y-83268000D02*
X138029000Y-83268000D01*
X141829000Y-80318000D02*
X141079000Y-80318000D01*
X141079000Y-80318000D02*
X141079000Y-83268000D01*
X141079000Y-83268000D02*
X138029000Y-83268000D01*
X135179000Y-77768000D02*
X133929000Y-77768000D01*
X133929000Y-77768000D02*
X133929000Y-79018000D01*
X121285000Y-109855000D02*
X121285000Y-117475000D01*
X121285000Y-117475000D02*
X126365000Y-117475000D01*
X126365000Y-117475000D02*
X126365000Y-109855000D01*
X126365000Y-109855000D02*
X126365000Y-102235000D01*
X126365000Y-102235000D02*
X121285000Y-102235000D01*
X121285000Y-102235000D02*
X121285000Y-109855000D01*
X137271000Y-102549000D02*
X138921000Y-102549000D01*
X138921000Y-102549000D02*
X138921000Y-92269000D01*
X138921000Y-92269000D02*
X133621000Y-92269000D01*
X133621000Y-92269000D02*
X133621000Y-102549000D01*
X133621000Y-102549000D02*
X135271000Y-102549000D01*
X135271000Y-102549000D02*
G75*
G02*
X137271000Y-102549000I1000000J0D01*
G01*
X149225000Y-111544000D02*
X160655000Y-111544000D01*
X160655000Y-111544000D02*
X160655000Y-121704000D01*
X160655000Y-121704000D02*
X149225000Y-121704000D01*
X149225000Y-121704000D02*
X137795000Y-121704000D01*
X137795000Y-121704000D02*
X137795000Y-111544000D01*
X137795000Y-111544000D02*
X149225000Y-111544000D01*
D11*
X131393000Y-109093000D02*
X131393000Y-109093000D01*
X131493000Y-109093000D02*
X131493000Y-109093000D01*
X131393000Y-109093000D02*
X131393000Y-109093000D01*
D12*
X131953000Y-102488000D02*
X131953000Y-110618000D01*
X137033000Y-102488000D02*
X131953000Y-102488000D01*
X137033000Y-110618000D02*
X137033000Y-102488000D01*
X131953000Y-110618000D02*
X137033000Y-110618000D01*
D11*
X131493000Y-109093000D02*
G75*
G02*
X131393000Y-109093000I-50000J0D01*
G01*
X131393000Y-109093000D02*
G75*
G02*
X131493000Y-109093000I50000J0D01*
G01*
X131493000Y-109093000D02*
G75*
G02*
X131393000Y-109093000I-50000J0D01*
G01*
D10*
X138589000Y-103481000D02*
X138589000Y-103151000D01*
X138589000Y-103151000D02*
X145129000Y-103151000D01*
X145129000Y-103151000D02*
X145129000Y-103481000D01*
X138589000Y-105561000D02*
X138589000Y-105891000D01*
X138589000Y-105891000D02*
X145129000Y-105891000D01*
X145129000Y-105891000D02*
X145129000Y-105561000D01*
D13*
X154952000Y-84332000D02*
X143752000Y-84332000D01*
X143752000Y-84332000D02*
X143752000Y-72132000D01*
X154952000Y-72132000D02*
X154952000Y-84332000D01*
X143752000Y-72132000D02*
X148822000Y-72132000D01*
X149882000Y-72132000D02*
X154952000Y-72132000D01*
D11*
X143352000Y-75732000D02*
G75*
G03*
X143352000Y-75732000I-100000J0D01*
G01*
D10*
X150933000Y-84854000D02*
X150933000Y-84839000D01*
X150933000Y-86979000D02*
X150933000Y-86964000D01*
X155473000Y-84854000D02*
X155473000Y-84839000D01*
X155473000Y-86979000D02*
X155473000Y-86964000D01*
X155473000Y-84839000D02*
X150933000Y-84839000D01*
X155473000Y-86979000D02*
X150933000Y-86979000D01*
X148361000Y-86964000D02*
X148361000Y-86979000D01*
X148361000Y-84839000D02*
X148361000Y-84854000D01*
X143821000Y-86964000D02*
X143821000Y-86979000D01*
X143821000Y-84839000D02*
X143821000Y-84854000D01*
X143821000Y-86979000D02*
X148361000Y-86979000D01*
X143821000Y-84839000D02*
X148361000Y-84839000D01*
X169545000Y-97450000D02*
X162045000Y-97450000D01*
X162045000Y-97450000D02*
X162045000Y-118450000D01*
X162045000Y-118450000D02*
X177045000Y-118450000D01*
X177045000Y-118450000D02*
X177045000Y-97450000D01*
X177045000Y-97450000D02*
X169545000Y-97450000D01*
X169545000Y-100450000D02*
X164845000Y-100450000D01*
X164845000Y-100450000D02*
X164845000Y-115450000D01*
X164845000Y-115450000D02*
X174245000Y-115450000D01*
X174245000Y-115450000D02*
X174245000Y-100450000D01*
X174245000Y-100450000D02*
X169545000Y-100450000D01*
X156347000Y-90356000D02*
X156347000Y-80586000D01*
X161417000Y-90356000D02*
X161417000Y-80586000D01*
X156347000Y-90356000D02*
X161417000Y-90356000D01*
X156347000Y-80586000D02*
X161417000Y-80586000D01*
D14*
X170470000Y-87916000D02*
X170470000Y-96916000D01*
X173770000Y-87916000D02*
X173770000Y-96916000D01*
X173770000Y-96916000D02*
X170470000Y-96916000D01*
X173770000Y-87916000D02*
X170470000Y-87916000D01*
D10*
X128297000Y-91535000D02*
X128627000Y-91535000D01*
X128297000Y-84995000D02*
X128297000Y-91535000D01*
X128627000Y-84995000D02*
X128297000Y-84995000D01*
X131037000Y-91535000D02*
X130707000Y-91535000D01*
X131037000Y-84995000D02*
X131037000Y-91535000D01*
X130707000Y-84995000D02*
X131037000Y-84995000D01*
X160933000Y-92107000D02*
X161263000Y-92107000D01*
X161263000Y-92107000D02*
X161263000Y-98647000D01*
X161263000Y-98647000D02*
X160933000Y-98647000D01*
X158853000Y-92107000D02*
X158523000Y-92107000D01*
X158523000Y-92107000D02*
X158523000Y-98647000D01*
X158523000Y-98647000D02*
X158853000Y-98647000D01*
X154781000Y-105561000D02*
X154781000Y-105891000D01*
X154781000Y-105891000D02*
X148241000Y-105891000D01*
X148241000Y-105891000D02*
X148241000Y-105561000D01*
X154781000Y-103481000D02*
X154781000Y-103151000D01*
X154781000Y-103151000D02*
X148241000Y-103151000D01*
X148241000Y-103151000D02*
X148241000Y-103481000D01*
X145129000Y-108355000D02*
X145129000Y-108685000D01*
X145129000Y-108685000D02*
X138589000Y-108685000D01*
X138589000Y-108685000D02*
X138589000Y-108355000D01*
X145129000Y-106275000D02*
X145129000Y-105945000D01*
X145129000Y-105945000D02*
X138589000Y-105945000D01*
X138589000Y-105945000D02*
X138589000Y-106275000D01*
X134219000Y-84789000D02*
X134219000Y-90759000D01*
X134219000Y-90759000D02*
X141839000Y-90759000D01*
X141839000Y-90759000D02*
X141839000Y-84789000D01*
X141839000Y-84789000D02*
X134219000Y-84789000D01*
X137529000Y-84799000D02*
X137529000Y-85549000D01*
X137529000Y-85549000D02*
X138529000Y-85549000D01*
X138529000Y-85549000D02*
X138529000Y-84799000D01*
X138529000Y-84799000D02*
X137529000Y-84799000D01*
X134229000Y-84799000D02*
X134229000Y-85549000D01*
X134229000Y-85549000D02*
X136029000Y-85549000D01*
X136029000Y-85549000D02*
X136029000Y-84799000D01*
X136029000Y-84799000D02*
X134229000Y-84799000D01*
X140029000Y-84799000D02*
X140029000Y-85549000D01*
X140029000Y-85549000D02*
X141829000Y-85549000D01*
X141829000Y-85549000D02*
X141829000Y-84799000D01*
X141829000Y-84799000D02*
X140029000Y-84799000D01*
X134229000Y-87049000D02*
X134979000Y-87049000D01*
X134979000Y-87049000D02*
X134979000Y-89999000D01*
X134979000Y-89999000D02*
X138029000Y-89999000D01*
X141829000Y-87049000D02*
X141079000Y-87049000D01*
X141079000Y-87049000D02*
X141079000Y-89999000D01*
X141079000Y-89999000D02*
X138029000Y-89999000D01*
X135179000Y-84499000D02*
X133929000Y-84499000D01*
X133929000Y-84499000D02*
X133929000Y-85749000D01*
X169982000Y-90634000D02*
X169982000Y-89384000D01*
X168732000Y-90634000D02*
X169982000Y-90634000D01*
X162832000Y-85134000D02*
X165882000Y-85134000D01*
X162832000Y-88084000D02*
X162832000Y-85134000D01*
X162082000Y-88084000D02*
X162832000Y-88084000D01*
X168932000Y-85134000D02*
X165882000Y-85134000D01*
X168932000Y-88084000D02*
X168932000Y-85134000D01*
X169682000Y-88084000D02*
X168932000Y-88084000D01*
X162082000Y-90334000D02*
X163882000Y-90334000D01*
X162082000Y-89584000D02*
X162082000Y-90334000D01*
X163882000Y-89584000D02*
X162082000Y-89584000D01*
X163882000Y-90334000D02*
X163882000Y-89584000D01*
X167882000Y-90334000D02*
X169682000Y-90334000D01*
X167882000Y-89584000D02*
X167882000Y-90334000D01*
X169682000Y-89584000D02*
X167882000Y-89584000D01*
X169682000Y-90334000D02*
X169682000Y-89584000D01*
X165382000Y-90334000D02*
X166382000Y-90334000D01*
X165382000Y-89584000D02*
X165382000Y-90334000D01*
X166382000Y-89584000D02*
X165382000Y-89584000D01*
X166382000Y-90334000D02*
X166382000Y-89584000D01*
X162072000Y-90344000D02*
X169692000Y-90344000D01*
X162072000Y-84374000D02*
X162072000Y-90344000D01*
X169692000Y-84374000D02*
X162072000Y-84374000D01*
X169692000Y-90344000D02*
X169692000Y-84374000D01*
X169982000Y-97238000D02*
X169982000Y-95988000D01*
X168732000Y-97238000D02*
X169982000Y-97238000D01*
X162832000Y-91738000D02*
X165882000Y-91738000D01*
X162832000Y-94688000D02*
X162832000Y-91738000D01*
X162082000Y-94688000D02*
X162832000Y-94688000D01*
X168932000Y-91738000D02*
X165882000Y-91738000D01*
X168932000Y-94688000D02*
X168932000Y-91738000D01*
X169682000Y-94688000D02*
X168932000Y-94688000D01*
X162082000Y-96938000D02*
X163882000Y-96938000D01*
X162082000Y-96188000D02*
X162082000Y-96938000D01*
X163882000Y-96188000D02*
X162082000Y-96188000D01*
X163882000Y-96938000D02*
X163882000Y-96188000D01*
X167882000Y-96938000D02*
X169682000Y-96938000D01*
X167882000Y-96188000D02*
X167882000Y-96938000D01*
X169682000Y-96188000D02*
X167882000Y-96188000D01*
X169682000Y-96938000D02*
X169682000Y-96188000D01*
X165382000Y-96938000D02*
X166382000Y-96938000D01*
X165382000Y-96188000D02*
X165382000Y-96938000D01*
X166382000Y-96188000D02*
X165382000Y-96188000D01*
X166382000Y-96938000D02*
X166382000Y-96188000D01*
X162072000Y-96948000D02*
X169692000Y-96948000D01*
X162072000Y-90978000D02*
X162072000Y-96948000D01*
X169692000Y-90978000D02*
X162072000Y-90978000D01*
X169692000Y-96948000D02*
X169692000Y-90978000D01*
X131375000Y-88191000D02*
X131245000Y-88191000D01*
X131245000Y-88191000D02*
X131245000Y-82751000D01*
X131245000Y-82751000D02*
X131375000Y-82751000D01*
X134055000Y-88191000D02*
X134185000Y-88191000D01*
X134185000Y-88191000D02*
X134185000Y-82751000D01*
X134185000Y-82751000D02*
X134055000Y-82751000D01*
X131245000Y-87291000D02*
X134185000Y-87291000D01*
X131245000Y-87171000D02*
X134185000Y-87171000D01*
X131245000Y-87411000D02*
X134185000Y-87411000D01*
X127319000Y-113836000D02*
X126439000Y-113836000D01*
X126439000Y-113836000D02*
X126439000Y-104096000D01*
X126439000Y-104096000D02*
X127319000Y-104096000D01*
X130999000Y-113836000D02*
X131879000Y-113836000D01*
X131879000Y-113836000D02*
X131879000Y-104096000D01*
X131879000Y-104096000D02*
X130999000Y-104096000D01*
X126439000Y-112291000D02*
X131879000Y-112291000D01*
X126439000Y-112171000D02*
X131879000Y-112171000D01*
X126439000Y-112411000D02*
X131879000Y-112411000D01*
X120185000Y-93825000D02*
X127205000Y-93825000D01*
X127205000Y-93825000D02*
X127205000Y-95025000D01*
X127205000Y-95025000D02*
X128905000Y-95025000D01*
X128905000Y-95025000D02*
X128905000Y-100705000D01*
X128905000Y-100705000D02*
X127205000Y-100705000D01*
X127205000Y-100705000D02*
X127205000Y-101905000D01*
X127205000Y-101905000D02*
X120185000Y-101905000D01*
X120185000Y-101905000D02*
X120185000Y-93825000D01*
X125095000Y-93625000D02*
X124795000Y-93025000D01*
X124795000Y-93025000D02*
X125395000Y-93025000D01*
X125395000Y-93025000D02*
X125095000Y-93625000D01*
D14*
X129910635Y-86269726D02*
X129405559Y-86774802D01*
X129270872Y-86842146D01*
X129136185Y-86842146D01*
X129001498Y-86774802D01*
X128934155Y-86707459D01*
X129910635Y-87683940D02*
X129506574Y-87279879D01*
X129708605Y-87481909D02*
X130415712Y-86774802D01*
X130247353Y-86808474D01*
X130112666Y-86808474D01*
X130011651Y-86774802D01*
X137715666Y-81875380D02*
X137715666Y-82589666D01*
X137668047Y-82732523D01*
X137572809Y-82827761D01*
X137429952Y-82875380D01*
X137334714Y-82875380D01*
X138620428Y-81875380D02*
X138429952Y-81875380D01*
X138334714Y-81923000D01*
X138287095Y-81970619D01*
X138191857Y-82113476D01*
X138144238Y-82303952D01*
X138144238Y-82684904D01*
X138191857Y-82780142D01*
X138239476Y-82827761D01*
X138334714Y-82875380D01*
X138525190Y-82875380D01*
X138620428Y-82827761D01*
X138668047Y-82780142D01*
X138715666Y-82684904D01*
X138715666Y-82446809D01*
X138668047Y-82351571D01*
X138620428Y-82303952D01*
X138525190Y-82256333D01*
X138334714Y-82256333D01*
X138239476Y-82303952D01*
X138191857Y-82351571D01*
X138144238Y-82446809D01*
X123491666Y-109783571D02*
X123158333Y-109783571D01*
X123158333Y-110307380D02*
X123158333Y-109307380D01*
X123634523Y-109307380D01*
X124539285Y-110307380D02*
X123967857Y-110307380D01*
X124253571Y-110307380D02*
X124253571Y-109307380D01*
X124158333Y-109450238D01*
X124063095Y-109545476D01*
X123967857Y-109593095D01*
X135509095Y-93051380D02*
X135509095Y-93860904D01*
X135556714Y-93956142D01*
X135604333Y-94003761D01*
X135699571Y-94051380D01*
X135890047Y-94051380D01*
X135985285Y-94003761D01*
X136032904Y-93956142D01*
X136080523Y-93860904D01*
X136080523Y-93051380D01*
X137080523Y-94051380D02*
X136509095Y-94051380D01*
X136794809Y-94051380D02*
X136794809Y-93051380D01*
X136699571Y-93194238D01*
X136604333Y-93289476D01*
X136509095Y-93337095D01*
X147486904Y-113012380D02*
X147486904Y-112012380D01*
X147820238Y-112726666D01*
X148153571Y-112012380D01*
X148153571Y-113012380D01*
X148629761Y-112488571D02*
X148963095Y-112488571D01*
X149105952Y-113012380D02*
X148629761Y-113012380D01*
X148629761Y-112012380D01*
X149105952Y-112012380D01*
X149486904Y-112964761D02*
X149629761Y-113012380D01*
X149867857Y-113012380D01*
X149963095Y-112964761D01*
X150010714Y-112917142D01*
X150058333Y-112821904D01*
X150058333Y-112726666D01*
X150010714Y-112631428D01*
X149963095Y-112583809D01*
X149867857Y-112536190D01*
X149677380Y-112488571D01*
X149582142Y-112440952D01*
X149534523Y-112393333D01*
X149486904Y-112298095D01*
X149486904Y-112202857D01*
X149534523Y-112107619D01*
X149582142Y-112060000D01*
X149677380Y-112012380D01*
X149915476Y-112012380D01*
X150058333Y-112060000D01*
X151010714Y-113012380D02*
X150439285Y-113012380D01*
X150725000Y-113012380D02*
X150725000Y-112012380D01*
X150629761Y-112155238D01*
X150534523Y-112250476D01*
X150439285Y-112298095D01*
D15*
X133053666Y-104273047D02*
X133235095Y-104333523D01*
X133537476Y-104333523D01*
X133658428Y-104273047D01*
X133718904Y-104212571D01*
X133779380Y-104091619D01*
X133779380Y-103970666D01*
X133718904Y-103849714D01*
X133658428Y-103789238D01*
X133537476Y-103728761D01*
X133295571Y-103668285D01*
X133174619Y-103607809D01*
X133114142Y-103547333D01*
X133053666Y-103426380D01*
X133053666Y-103305428D01*
X133114142Y-103184476D01*
X133174619Y-103124000D01*
X133295571Y-103063523D01*
X133597952Y-103063523D01*
X133779380Y-103124000D01*
X134202714Y-103063523D02*
X134505095Y-104333523D01*
X134747000Y-103426380D01*
X134988904Y-104333523D01*
X135291285Y-103063523D01*
X135714619Y-103184476D02*
X135775095Y-103124000D01*
X135896047Y-103063523D01*
X136198428Y-103063523D01*
X136319380Y-103124000D01*
X136379857Y-103184476D01*
X136440333Y-103305428D01*
X136440333Y-103426380D01*
X136379857Y-103607809D01*
X135654142Y-104333523D01*
X136440333Y-104333523D01*
D14*
X141692333Y-104973380D02*
X141359000Y-104497190D01*
X141120904Y-104973380D02*
X141120904Y-103973380D01*
X141501857Y-103973380D01*
X141597095Y-104021000D01*
X141644714Y-104068619D01*
X141692333Y-104163857D01*
X141692333Y-104306714D01*
X141644714Y-104401952D01*
X141597095Y-104449571D01*
X141501857Y-104497190D01*
X141120904Y-104497190D01*
X142025666Y-103973380D02*
X142644714Y-103973380D01*
X142311380Y-104354333D01*
X142454238Y-104354333D01*
X142549476Y-104401952D01*
X142597095Y-104449571D01*
X142644714Y-104544809D01*
X142644714Y-104782904D01*
X142597095Y-104878142D01*
X142549476Y-104925761D01*
X142454238Y-104973380D01*
X142168523Y-104973380D01*
X142073285Y-104925761D01*
X142025666Y-104878142D01*
X148740904Y-82351571D02*
X148407571Y-82351571D01*
X148407571Y-82875380D02*
X148407571Y-81875380D01*
X148883761Y-81875380D01*
X149740904Y-82875380D02*
X149264714Y-82875380D01*
X149264714Y-81875380D01*
X150598047Y-82875380D02*
X150026619Y-82875380D01*
X150312333Y-82875380D02*
X150312333Y-81875380D01*
X150217095Y-82018238D01*
X150121857Y-82113476D01*
X150026619Y-82161095D01*
X147609095Y-94575380D02*
X147609095Y-95384904D01*
X147656714Y-95480142D01*
X147704333Y-95527761D01*
X147799571Y-95575380D01*
X147990047Y-95575380D01*
X148085285Y-95527761D01*
X148132904Y-95480142D01*
X148180523Y-95384904D01*
X148180523Y-94575380D01*
X148609095Y-94670619D02*
X148656714Y-94623000D01*
X148751952Y-94575380D01*
X148990047Y-94575380D01*
X149085285Y-94623000D01*
X149132904Y-94670619D01*
X149180523Y-94765857D01*
X149180523Y-94861095D01*
X149132904Y-95003952D01*
X148561476Y-95575380D01*
X149180523Y-95575380D01*
X153036333Y-86590142D02*
X152988714Y-86637761D01*
X152845857Y-86685380D01*
X152750619Y-86685380D01*
X152607761Y-86637761D01*
X152512523Y-86542523D01*
X152464904Y-86447285D01*
X152417285Y-86256809D01*
X152417285Y-86113952D01*
X152464904Y-85923476D01*
X152512523Y-85828238D01*
X152607761Y-85733000D01*
X152750619Y-85685380D01*
X152845857Y-85685380D01*
X152988714Y-85733000D01*
X153036333Y-85780619D01*
X153893476Y-86018714D02*
X153893476Y-86685380D01*
X153655380Y-85637761D02*
X153417285Y-86352047D01*
X154036333Y-86352047D01*
X145924333Y-86336142D02*
X145876714Y-86383761D01*
X145733857Y-86431380D01*
X145638619Y-86431380D01*
X145495761Y-86383761D01*
X145400523Y-86288523D01*
X145352904Y-86193285D01*
X145305285Y-86002809D01*
X145305285Y-85859952D01*
X145352904Y-85669476D01*
X145400523Y-85574238D01*
X145495761Y-85479000D01*
X145638619Y-85431380D01*
X145733857Y-85431380D01*
X145876714Y-85479000D01*
X145924333Y-85526619D01*
X146257666Y-85431380D02*
X146876714Y-85431380D01*
X146543380Y-85812333D01*
X146686238Y-85812333D01*
X146781476Y-85859952D01*
X146829095Y-85907571D01*
X146876714Y-86002809D01*
X146876714Y-86240904D01*
X146829095Y-86336142D01*
X146781476Y-86383761D01*
X146686238Y-86431380D01*
X146400523Y-86431380D01*
X146305285Y-86383761D01*
X146257666Y-86336142D01*
X169949761Y-112204333D02*
X169997380Y-112061476D01*
X169997380Y-111823380D01*
X169949761Y-111728142D01*
X169902142Y-111680523D01*
X169806904Y-111632904D01*
X169711666Y-111632904D01*
X169616428Y-111680523D01*
X169568809Y-111728142D01*
X169521190Y-111823380D01*
X169473571Y-112013857D01*
X169425952Y-112109095D01*
X169378333Y-112156714D01*
X169283095Y-112204333D01*
X169187857Y-112204333D01*
X169092619Y-112156714D01*
X169045000Y-112109095D01*
X168997380Y-112013857D01*
X168997380Y-111775761D01*
X169045000Y-111632904D01*
X168997380Y-111299571D02*
X169997380Y-111061476D01*
X169283095Y-110871000D01*
X169997380Y-110680523D01*
X168997380Y-110442428D01*
X169997380Y-109537666D02*
X169997380Y-110109095D01*
X169997380Y-109823380D02*
X168997380Y-109823380D01*
X169140238Y-109918619D01*
X169235476Y-110013857D01*
X169283095Y-110109095D01*
X168925952Y-101402380D02*
X169116428Y-101402380D01*
X169211666Y-101450000D01*
X169306904Y-101545238D01*
X169354523Y-101735714D01*
X169354523Y-102069047D01*
X169306904Y-102259523D01*
X169211666Y-102354761D01*
X169116428Y-102402380D01*
X168925952Y-102402380D01*
X168830714Y-102354761D01*
X168735476Y-102259523D01*
X168687857Y-102069047D01*
X168687857Y-101735714D01*
X168735476Y-101545238D01*
X168830714Y-101450000D01*
X168925952Y-101402380D01*
X169783095Y-102402380D02*
X169783095Y-101402380D01*
X170354523Y-102402380D01*
X170354523Y-101402380D01*
X155669380Y-86066238D02*
X155193190Y-86399571D01*
X155669380Y-86637666D02*
X154669380Y-86637666D01*
X154669380Y-86256714D01*
X154717000Y-86161476D01*
X154764619Y-86113857D01*
X154859857Y-86066238D01*
X155002714Y-86066238D01*
X155097952Y-86113857D01*
X155145571Y-86161476D01*
X155193190Y-86256714D01*
X155193190Y-86637666D01*
X154669380Y-85780523D02*
X155669380Y-85447190D01*
X154669380Y-85113857D01*
X154764619Y-84828142D02*
X154717000Y-84780523D01*
X154669380Y-84685285D01*
X154669380Y-84447190D01*
X154717000Y-84351952D01*
X154764619Y-84304333D01*
X154859857Y-84256714D01*
X154955095Y-84256714D01*
X155097952Y-84304333D01*
X155669380Y-84875761D01*
X155669380Y-84256714D01*
X172029380Y-93011238D02*
X171553190Y-93344571D01*
X172029380Y-93582666D02*
X171029380Y-93582666D01*
X171029380Y-93201714D01*
X171077000Y-93106476D01*
X171124619Y-93058857D01*
X171219857Y-93011238D01*
X171362714Y-93011238D01*
X171457952Y-93058857D01*
X171505571Y-93106476D01*
X171553190Y-93201714D01*
X171553190Y-93582666D01*
X171029380Y-92725523D02*
X172029380Y-92392190D01*
X171029380Y-92058857D01*
X172029380Y-91201714D02*
X172029380Y-91773142D01*
X172029380Y-91487428D02*
X171029380Y-91487428D01*
X171172238Y-91582666D01*
X171267476Y-91677904D01*
X171315095Y-91773142D01*
X130119380Y-88431666D02*
X129643190Y-88765000D01*
X130119380Y-89003095D02*
X129119380Y-89003095D01*
X129119380Y-88622142D01*
X129167000Y-88526904D01*
X129214619Y-88479285D01*
X129309857Y-88431666D01*
X129452714Y-88431666D01*
X129547952Y-88479285D01*
X129595571Y-88526904D01*
X129643190Y-88622142D01*
X129643190Y-89003095D01*
X129119380Y-87574523D02*
X129119380Y-87765000D01*
X129167000Y-87860238D01*
X129214619Y-87907857D01*
X129357476Y-88003095D01*
X129547952Y-88050714D01*
X129928904Y-88050714D01*
X130024142Y-88003095D01*
X130071761Y-87955476D01*
X130119380Y-87860238D01*
X130119380Y-87669761D01*
X130071761Y-87574523D01*
X130024142Y-87526904D01*
X129928904Y-87479285D01*
X129690809Y-87479285D01*
X129595571Y-87526904D01*
X129547952Y-87574523D01*
X129500333Y-87669761D01*
X129500333Y-87860238D01*
X129547952Y-87955476D01*
X129595571Y-88003095D01*
X129690809Y-88050714D01*
X160345380Y-95543666D02*
X159869190Y-95877000D01*
X160345380Y-96115095D02*
X159345380Y-96115095D01*
X159345380Y-95734142D01*
X159393000Y-95638904D01*
X159440619Y-95591285D01*
X159535857Y-95543666D01*
X159678714Y-95543666D01*
X159773952Y-95591285D01*
X159821571Y-95638904D01*
X159869190Y-95734142D01*
X159869190Y-96115095D01*
X159345380Y-94638904D02*
X159345380Y-95115095D01*
X159821571Y-95162714D01*
X159773952Y-95115095D01*
X159726333Y-95019857D01*
X159726333Y-94781761D01*
X159773952Y-94686523D01*
X159821571Y-94638904D01*
X159916809Y-94591285D01*
X160154904Y-94591285D01*
X160250142Y-94638904D01*
X160297761Y-94686523D01*
X160345380Y-94781761D01*
X160345380Y-95019857D01*
X160297761Y-95115095D01*
X160250142Y-95162714D01*
X151344333Y-104973380D02*
X151011000Y-104497190D01*
X150772904Y-104973380D02*
X150772904Y-103973380D01*
X151153857Y-103973380D01*
X151249095Y-104021000D01*
X151296714Y-104068619D01*
X151344333Y-104163857D01*
X151344333Y-104306714D01*
X151296714Y-104401952D01*
X151249095Y-104449571D01*
X151153857Y-104497190D01*
X150772904Y-104497190D01*
X152201476Y-104306714D02*
X152201476Y-104973380D01*
X151963380Y-103925761D02*
X151725285Y-104640047D01*
X152344333Y-104640047D01*
X141692333Y-107767380D02*
X141359000Y-107291190D01*
X141120904Y-107767380D02*
X141120904Y-106767380D01*
X141501857Y-106767380D01*
X141597095Y-106815000D01*
X141644714Y-106862619D01*
X141692333Y-106957857D01*
X141692333Y-107100714D01*
X141644714Y-107195952D01*
X141597095Y-107243571D01*
X141501857Y-107291190D01*
X141120904Y-107291190D01*
X142073285Y-106862619D02*
X142120904Y-106815000D01*
X142216142Y-106767380D01*
X142454238Y-106767380D01*
X142549476Y-106815000D01*
X142597095Y-106862619D01*
X142644714Y-106957857D01*
X142644714Y-107053095D01*
X142597095Y-107195952D01*
X142025666Y-107767380D01*
X142644714Y-107767380D01*
X137715666Y-88733380D02*
X137715666Y-89447666D01*
X137668047Y-89590523D01*
X137572809Y-89685761D01*
X137429952Y-89733380D01*
X137334714Y-89733380D01*
X138668047Y-88733380D02*
X138191857Y-88733380D01*
X138144238Y-89209571D01*
X138191857Y-89161952D01*
X138287095Y-89114333D01*
X138525190Y-89114333D01*
X138620428Y-89161952D01*
X138668047Y-89209571D01*
X138715666Y-89304809D01*
X138715666Y-89542904D01*
X138668047Y-89638142D01*
X138620428Y-89685761D01*
X138525190Y-89733380D01*
X138287095Y-89733380D01*
X138191857Y-89685761D01*
X138144238Y-89638142D01*
X165401666Y-85431380D02*
X165401666Y-86145666D01*
X165354047Y-86288523D01*
X165258809Y-86383761D01*
X165115952Y-86431380D01*
X165020714Y-86431380D01*
X165782619Y-85431380D02*
X166401666Y-85431380D01*
X166068333Y-85812333D01*
X166211190Y-85812333D01*
X166306428Y-85859952D01*
X166354047Y-85907571D01*
X166401666Y-86002809D01*
X166401666Y-86240904D01*
X166354047Y-86336142D01*
X166306428Y-86383761D01*
X166211190Y-86431380D01*
X165925476Y-86431380D01*
X165830238Y-86383761D01*
X165782619Y-86336142D01*
X165401666Y-92035380D02*
X165401666Y-92749666D01*
X165354047Y-92892523D01*
X165258809Y-92987761D01*
X165115952Y-93035380D01*
X165020714Y-93035380D01*
X165830238Y-92130619D02*
X165877857Y-92083000D01*
X165973095Y-92035380D01*
X166211190Y-92035380D01*
X166306428Y-92083000D01*
X166354047Y-92130619D01*
X166401666Y-92225857D01*
X166401666Y-92321095D01*
X166354047Y-92463952D01*
X165782619Y-93035380D01*
X166401666Y-93035380D01*
X133167380Y-85701095D02*
X132167380Y-85701095D01*
X132167380Y-85463000D01*
X132215000Y-85320142D01*
X132310238Y-85224904D01*
X132405476Y-85177285D01*
X132595952Y-85129666D01*
X132738809Y-85129666D01*
X132929285Y-85177285D01*
X133024523Y-85224904D01*
X133119761Y-85320142D01*
X133167380Y-85463000D01*
X133167380Y-85701095D01*
X132167380Y-84796333D02*
X132167380Y-84177285D01*
X132548333Y-84510619D01*
X132548333Y-84367761D01*
X132595952Y-84272523D01*
X132643571Y-84224904D01*
X132738809Y-84177285D01*
X132976904Y-84177285D01*
X133072142Y-84224904D01*
X133119761Y-84272523D01*
X133167380Y-84367761D01*
X133167380Y-84653476D01*
X133119761Y-84748714D01*
X133072142Y-84796333D01*
X131067380Y-89542904D02*
X130067380Y-89542904D01*
X131067380Y-88971476D02*
X130495952Y-89400047D01*
X130067380Y-88971476D02*
X130638809Y-89542904D01*
X129611380Y-109069095D02*
X128611380Y-109069095D01*
X128611380Y-108831000D01*
X128659000Y-108688142D01*
X128754238Y-108592904D01*
X128849476Y-108545285D01*
X129039952Y-108497666D01*
X129182809Y-108497666D01*
X129373285Y-108545285D01*
X129468523Y-108592904D01*
X129563761Y-108688142D01*
X129611380Y-108831000D01*
X129611380Y-109069095D01*
X129611380Y-107545285D02*
X129611380Y-108116714D01*
X129611380Y-107831000D02*
X128611380Y-107831000D01*
X128754238Y-107926238D01*
X128849476Y-108021476D01*
X128897095Y-108116714D01*
X127011380Y-115577904D02*
X126011380Y-115577904D01*
X127011380Y-115006476D02*
X126439952Y-115435047D01*
X126011380Y-115006476D02*
X126582809Y-115577904D01*
X122483571Y-98650714D02*
X122531190Y-98507857D01*
X122578809Y-98460238D01*
X122674047Y-98412619D01*
X122816904Y-98412619D01*
X122912142Y-98460238D01*
X122959761Y-98507857D01*
X123007380Y-98603095D01*
X123007380Y-98984047D01*
X122007380Y-98984047D01*
X122007380Y-98650714D01*
X122055000Y-98555476D01*
X122102619Y-98507857D01*
X122197857Y-98460238D01*
X122293095Y-98460238D01*
X122388333Y-98507857D01*
X122435952Y-98555476D01*
X122483571Y-98650714D01*
X122483571Y-98984047D01*
X122007380Y-98126904D02*
X122007380Y-97555476D01*
X123007380Y-97841190D02*
X122007380Y-97841190D01*
X123007380Y-96698333D02*
X123007380Y-97269761D01*
X123007380Y-96984047D02*
X122007380Y-96984047D01*
X122150238Y-97079285D01*
X122245476Y-97174523D01*
X122293095Y-97269761D01*
%LPC*%
G36*
G01*
X123967908Y-89714010D02*
X123967908Y-89714010D01*
G75*
G02*
X125169990Y-89714010I601041J-601041D01*
G01*
X125169990Y-89714010D01*
G75*
G02*
X125169990Y-90916092I-601041J-601041D01*
G01*
X125169990Y-90916092D01*
G75*
G02*
X123967908Y-90916092I-601041J601041D01*
G01*
X123967908Y-90916092D01*
G75*
G02*
X123967908Y-89714010I601041J601041D01*
G01*
G37*
D12*
G36*
X125162918Y-88519000D02*
G01*
X126365000Y-87316918D01*
X127567082Y-88519000D01*
X126365000Y-89721082D01*
X125162918Y-88519000D01*
G37*
G36*
G01*
X135929000Y-81268000D02*
X135929000Y-79768000D01*
G75*
G02*
X136179000Y-79518000I250000J0D01*
G01*
X137379000Y-79518000D01*
G75*
G02*
X137629000Y-79768000I0J-250000D01*
G01*
X137629000Y-81268000D01*
G75*
G02*
X137379000Y-81518000I-250000J0D01*
G01*
X136179000Y-81518000D01*
G75*
G02*
X135929000Y-81268000I0J250000D01*
G01*
G37*
D16*
X139279000Y-80518000D03*
D17*
X123825000Y-104005000D03*
X123825000Y-107705000D03*
X123825000Y-112005000D03*
X123825000Y-115705000D03*
D18*
X132461000Y-93599000D03*
X140081000Y-98679000D03*
X132461000Y-96139000D03*
X140081000Y-96139000D03*
X132461000Y-98679000D03*
X140081000Y-93599000D03*
X132461000Y-101219000D03*
D19*
X134493000Y-106553000D03*
X134493000Y-109093000D03*
D20*
X138049000Y-104521000D03*
D18*
X145669000Y-104521000D03*
D21*
X149352000Y-73232000D03*
X149352000Y-78232000D03*
X151852000Y-80732000D03*
X146852000Y-80732000D03*
X151852000Y-75732000D03*
D22*
X146852000Y-75732000D03*
D12*
G36*
X147485000Y-90776000D02*
G01*
X147485000Y-89006000D01*
X151555000Y-89006000D01*
X151555000Y-90776000D01*
X147485000Y-90776000D01*
G37*
G36*
X142905000Y-90776000D02*
G01*
X142905000Y-89006000D01*
X146975000Y-89006000D01*
X146975000Y-90776000D01*
X142905000Y-90776000D01*
G37*
G36*
X152090000Y-93071000D02*
G01*
X152090000Y-89001000D01*
X153860000Y-89001000D01*
X153860000Y-93071000D01*
X152090000Y-93071000D01*
G37*
G36*
X152475000Y-97361000D02*
G01*
X152475000Y-96161000D01*
X153475000Y-96161000D01*
X153475000Y-97361000D01*
X152475000Y-97361000D01*
G37*
G36*
X153975000Y-97361000D02*
G01*
X153975000Y-96161000D01*
X155475000Y-96161000D01*
X155475000Y-97361000D01*
X153975000Y-97361000D01*
G37*
G36*
X150065000Y-90371000D02*
G01*
X150065000Y-87371000D01*
X151265000Y-87371000D01*
X151265000Y-90371000D01*
X150065000Y-90371000D01*
G37*
G36*
X147775000Y-90371000D02*
G01*
X147775000Y-87371000D01*
X148975000Y-87371000D01*
X148975000Y-90371000D01*
X147775000Y-90371000D01*
G37*
G36*
X145485000Y-90371000D02*
G01*
X145485000Y-87371000D01*
X146685000Y-87371000D01*
X146685000Y-90371000D01*
X145485000Y-90371000D01*
G37*
G36*
X141275000Y-90491000D02*
G01*
X141275000Y-89291000D01*
X144275000Y-89291000D01*
X144275000Y-90491000D01*
X141275000Y-90491000D01*
G37*
G36*
X152475000Y-90491000D02*
G01*
X152475000Y-89291000D01*
X155475000Y-89291000D01*
X155475000Y-90491000D01*
X152475000Y-90491000D01*
G37*
G36*
X152475000Y-95071000D02*
G01*
X152475000Y-93871000D01*
X155475000Y-93871000D01*
X155475000Y-95071000D01*
X152475000Y-95071000D01*
G37*
G36*
X152475000Y-99651000D02*
G01*
X152475000Y-98451000D01*
X155475000Y-98451000D01*
X155475000Y-99651000D01*
X152475000Y-99651000D01*
G37*
G36*
X141275000Y-95071000D02*
G01*
X141275000Y-93871000D01*
X144275000Y-93871000D01*
X144275000Y-95071000D01*
X141275000Y-95071000D01*
G37*
G36*
X141275000Y-97361000D02*
G01*
X141275000Y-96161000D01*
X144275000Y-96161000D01*
X144275000Y-97361000D01*
X141275000Y-97361000D01*
G37*
G36*
X141275000Y-99651000D02*
G01*
X141275000Y-98451000D01*
X144275000Y-98451000D01*
X144275000Y-99651000D01*
X141275000Y-99651000D01*
G37*
G36*
X150065000Y-101571000D02*
G01*
X150065000Y-98571000D01*
X151265000Y-98571000D01*
X151265000Y-101571000D01*
X150065000Y-101571000D01*
G37*
G36*
X147775000Y-101571000D02*
G01*
X147775000Y-98571000D01*
X148975000Y-98571000D01*
X148975000Y-101571000D01*
X147775000Y-101571000D01*
G37*
G36*
X145485000Y-101571000D02*
G01*
X145485000Y-98571000D01*
X146685000Y-98571000D01*
X146685000Y-101571000D01*
X145485000Y-101571000D01*
G37*
D20*
X155703000Y-85909000D03*
X150703000Y-85909000D03*
X143591000Y-85909000D03*
X148591000Y-85909000D03*
X137501000Y-97409000D03*
X135001000Y-97409000D03*
D23*
X169545000Y-107950000D03*
X169545000Y-113950000D03*
D24*
X158877000Y-82931000D03*
X158877000Y-85471000D03*
X158877000Y-88011000D03*
D20*
X172720000Y-89916000D03*
X171520000Y-94916000D03*
D18*
X129667000Y-92075000D03*
D20*
X129667000Y-84455000D03*
X159893000Y-91567000D03*
D18*
X159893000Y-99187000D03*
D20*
X155321000Y-104521000D03*
D18*
X147701000Y-104521000D03*
D20*
X145669000Y-107315000D03*
D18*
X138049000Y-107315000D03*
G36*
G01*
X135929000Y-87999000D02*
X135929000Y-86499000D01*
G75*
G02*
X136179000Y-86249000I250000J0D01*
G01*
X137379000Y-86249000D01*
G75*
G02*
X137629000Y-86499000I0J-250000D01*
G01*
X137629000Y-87999000D01*
G75*
G02*
X137379000Y-88249000I-250000J0D01*
G01*
X136179000Y-88249000D01*
G75*
G02*
X135929000Y-87999000I0J250000D01*
G01*
G37*
D16*
X139279000Y-87249000D03*
X164632000Y-87884000D03*
G36*
G01*
X167982000Y-87134000D02*
X167982000Y-88634000D01*
G75*
G02*
X167732000Y-88884000I-250000J0D01*
G01*
X166532000Y-88884000D01*
G75*
G02*
X166282000Y-88634000I0J250000D01*
G01*
X166282000Y-87134000D01*
G75*
G02*
X166532000Y-86884000I250000J0D01*
G01*
X167732000Y-86884000D01*
G75*
G02*
X167982000Y-87134000I0J-250000D01*
G01*
G37*
X164632000Y-94488000D03*
G36*
G01*
X167982000Y-93738000D02*
X167982000Y-95238000D01*
G75*
G02*
X167732000Y-95488000I-250000J0D01*
G01*
X166532000Y-95488000D01*
G75*
G02*
X166282000Y-95238000I0J250000D01*
G01*
X166282000Y-93738000D01*
G75*
G02*
X166532000Y-93488000I250000J0D01*
G01*
X167732000Y-93488000D01*
G75*
G02*
X167982000Y-93738000I0J-250000D01*
G01*
G37*
D25*
X132715000Y-89281000D03*
D26*
X132715000Y-81661000D03*
D27*
X129159000Y-115316000D03*
D28*
X129159000Y-102616000D03*
G36*
G01*
X123995001Y-94535000D02*
X126194999Y-94535000D01*
G75*
G02*
X126445000Y-94785001I0J-250001D01*
G01*
X126445000Y-96984999D01*
G75*
G02*
X126194999Y-97235000I-250001J0D01*
G01*
X123995001Y-97235000D01*
G75*
G02*
X123745000Y-96984999I0J250001D01*
G01*
X123745000Y-94785001D01*
G75*
G02*
X123995001Y-94535000I250001J0D01*
G01*
G37*
D29*
X125095000Y-99845000D03*
M02*
