G04 #@! TF.GenerationSoftware,KiCad,Pcbnew,(5.1.10)-1*
G04 #@! TF.CreationDate,2022-02-14T20:21:52+09:00*
G04 #@! TF.ProjectId,Integrated_Power_Board,496e7465-6772-4617-9465-645f506f7765,rev?*
G04 #@! TF.SameCoordinates,Original*
G04 #@! TF.FileFunction,Paste,Top*
G04 #@! TF.FilePolarity,Positive*
%FSLAX46Y46*%
G04 Gerber Fmt 4.6, Leading zero omitted, Abs format (unit mm)*
G04 Created by KiCad (PCBNEW (5.1.10)-1) date 2022-02-14 20:21:52*
%MOMM*%
%LPD*%
G01*
G04 APERTURE LIST*
%ADD10C,0.100000*%
G04 APERTURE END LIST*
D10*
G36*
X147485000Y-90776000D02*
G01*
X147485000Y-89006000D01*
X151555000Y-89006000D01*
X151555000Y-90776000D01*
X147485000Y-90776000D01*
G37*
G36*
X142905000Y-90776000D02*
G01*
X142905000Y-89006000D01*
X146975000Y-89006000D01*
X146975000Y-90776000D01*
X142905000Y-90776000D01*
G37*
G36*
X152090000Y-93071000D02*
G01*
X152090000Y-89001000D01*
X153860000Y-89001000D01*
X153860000Y-93071000D01*
X152090000Y-93071000D01*
G37*
G36*
X152475000Y-97361000D02*
G01*
X152475000Y-96161000D01*
X153475000Y-96161000D01*
X153475000Y-97361000D01*
X152475000Y-97361000D01*
G37*
G36*
X153975000Y-97361000D02*
G01*
X153975000Y-96161000D01*
X155475000Y-96161000D01*
X155475000Y-97361000D01*
X153975000Y-97361000D01*
G37*
G36*
X150065000Y-90371000D02*
G01*
X150065000Y-87371000D01*
X151265000Y-87371000D01*
X151265000Y-90371000D01*
X150065000Y-90371000D01*
G37*
G36*
X147775000Y-90371000D02*
G01*
X147775000Y-87371000D01*
X148975000Y-87371000D01*
X148975000Y-90371000D01*
X147775000Y-90371000D01*
G37*
G36*
X145485000Y-90371000D02*
G01*
X145485000Y-87371000D01*
X146685000Y-87371000D01*
X146685000Y-90371000D01*
X145485000Y-90371000D01*
G37*
G36*
X141275000Y-90491000D02*
G01*
X141275000Y-89291000D01*
X144275000Y-89291000D01*
X144275000Y-90491000D01*
X141275000Y-90491000D01*
G37*
G36*
X152475000Y-90491000D02*
G01*
X152475000Y-89291000D01*
X155475000Y-89291000D01*
X155475000Y-90491000D01*
X152475000Y-90491000D01*
G37*
G36*
X152475000Y-95071000D02*
G01*
X152475000Y-93871000D01*
X155475000Y-93871000D01*
X155475000Y-95071000D01*
X152475000Y-95071000D01*
G37*
G36*
X152475000Y-99651000D02*
G01*
X152475000Y-98451000D01*
X155475000Y-98451000D01*
X155475000Y-99651000D01*
X152475000Y-99651000D01*
G37*
G36*
X141275000Y-95071000D02*
G01*
X141275000Y-93871000D01*
X144275000Y-93871000D01*
X144275000Y-95071000D01*
X141275000Y-95071000D01*
G37*
G36*
X141275000Y-97361000D02*
G01*
X141275000Y-96161000D01*
X144275000Y-96161000D01*
X144275000Y-97361000D01*
X141275000Y-97361000D01*
G37*
G36*
X141275000Y-99651000D02*
G01*
X141275000Y-98451000D01*
X144275000Y-98451000D01*
X144275000Y-99651000D01*
X141275000Y-99651000D01*
G37*
G36*
X150065000Y-101571000D02*
G01*
X150065000Y-98571000D01*
X151265000Y-98571000D01*
X151265000Y-101571000D01*
X150065000Y-101571000D01*
G37*
G36*
X147775000Y-101571000D02*
G01*
X147775000Y-98571000D01*
X148975000Y-98571000D01*
X148975000Y-101571000D01*
X147775000Y-101571000D01*
G37*
G36*
X145485000Y-101571000D02*
G01*
X145485000Y-98571000D01*
X146685000Y-98571000D01*
X146685000Y-101571000D01*
X145485000Y-101571000D01*
G37*
M02*
