%FSLAX45Y45*%
G04 Gerber Fmt 4.5, Leading zero omitted, Abs format (unit mm)*
G04 Created by KiCad (PCBNEW (5.1.10)-1) date 2022-02-14 20:25:47*
%MOMM*%
%LPD*%
G01*
G04 APERTURE LIST*
%TA.AperFunction,Profile*%
%ADD10C,0.150000*%
%TD*%
%TA.AperFunction,Profile*%
%ADD11C,0.200000*%
%TD*%
%ADD12C,0.200000*%
%ADD13C,0.300000*%
G04 APERTURE END LIST*
D10*
X15861687Y-7517693D02*
G75*
G03*
X15861687Y-7517693I-100000J0D01*
G01*
X14186110Y-7517693D02*
G75*
G03*
X14186110Y-7517693I-100000J0D01*
G01*
X17057297Y-12001500D02*
G75*
G03*
X17057297Y-12001500I-100000J0D01*
G01*
X12990500Y-12001500D02*
G75*
G03*
X12990500Y-12001500I-100000J0D01*
G01*
D11*
X15570345Y-7179633D02*
G75*
G02*
X15923899Y-7326080I0J-500000D01*
G01*
X14277452Y-7179633D02*
X15570345Y-7179633D01*
X12661020Y-12192824D02*
G75*
G02*
X12390500Y-12001500I137144J480824D01*
G01*
X17577452Y-8979633D02*
G75*
G02*
X17723899Y-9333187I-353553J-353553D01*
G01*
X12123899Y-9333187D02*
G75*
G02*
X12270345Y-8979633I500000J0D01*
G01*
X17186777Y-12192825D02*
G75*
G02*
X12661020Y-12192825I-2262879J7933592D01*
G01*
X17723899Y-11466605D02*
G75*
G02*
X17631563Y-11756104I-500000J0D01*
G01*
X16073899Y-11126666D02*
X13773899Y-11126666D01*
X12390500Y-12001500D02*
X12216234Y-11756104D01*
X13773899Y-12226666D02*
X16073899Y-12226666D01*
X12270345Y-8979633D02*
X13923899Y-7326080D01*
X13923899Y-7326080D02*
G75*
G02*
X14277452Y-7179633I353553J-353553D01*
G01*
X15923899Y-7326080D02*
X17577452Y-8979633D01*
X17631563Y-11756104D02*
X17457297Y-12001500D01*
X17723899Y-9333187D02*
X17723899Y-11466605D01*
X16073899Y-12226666D02*
X16073899Y-11126666D01*
X12123899Y-11466605D02*
X12123899Y-9333187D01*
X12216234Y-11756104D02*
G75*
G02*
X12123899Y-11466605I407664J289499D01*
G01*
X17457297Y-12001500D02*
G75*
G02*
X17186777Y-12192825I-407664J289499D01*
G01*
X13773899Y-11126666D02*
X13773899Y-12226666D01*
D12*
D13*
X12400327Y-12984947D02*
X12400327Y-12684947D01*
X12471756Y-12684947D01*
X12514613Y-12699233D01*
X12543184Y-12727804D01*
X12557470Y-12756376D01*
X12571756Y-12813518D01*
X12571756Y-12856376D01*
X12557470Y-12913518D01*
X12543184Y-12942090D01*
X12514613Y-12970661D01*
X12471756Y-12984947D01*
X12400327Y-12984947D01*
X12700327Y-12984947D02*
X12700327Y-12784947D01*
X12700327Y-12842090D02*
X12714613Y-12813518D01*
X12728899Y-12799233D01*
X12757470Y-12784947D01*
X12786041Y-12784947D01*
X12886041Y-12984947D02*
X12886041Y-12784947D01*
X12886041Y-12684947D02*
X12871756Y-12699233D01*
X12886041Y-12713518D01*
X12900327Y-12699233D01*
X12886041Y-12684947D01*
X12886041Y-12713518D01*
X13071756Y-12984947D02*
X13043184Y-12970661D01*
X13028899Y-12942090D01*
X13028899Y-12684947D01*
X13228899Y-12984947D02*
X13200327Y-12970661D01*
X13186041Y-12942090D01*
X13186041Y-12684947D01*
X13571756Y-12984947D02*
X13571756Y-12684947D01*
X13671756Y-12899233D01*
X13771756Y-12684947D01*
X13771756Y-12984947D01*
X14043184Y-12984947D02*
X14043184Y-12827804D01*
X14028899Y-12799233D01*
X14000327Y-12784947D01*
X13943184Y-12784947D01*
X13914613Y-12799233D01*
X14043184Y-12970661D02*
X14014613Y-12984947D01*
X13943184Y-12984947D01*
X13914613Y-12970661D01*
X13900327Y-12942090D01*
X13900327Y-12913518D01*
X13914613Y-12884947D01*
X13943184Y-12870661D01*
X14014613Y-12870661D01*
X14043184Y-12856376D01*
X14186041Y-12784947D02*
X14186041Y-13084947D01*
X14186041Y-12799233D02*
X14214613Y-12784947D01*
X14271756Y-12784947D01*
X14300327Y-12799233D01*
X14314613Y-12813518D01*
X14328899Y-12842090D01*
X14328899Y-12927804D01*
X14314613Y-12956376D01*
X14300327Y-12970661D01*
X14271756Y-12984947D01*
X14214613Y-12984947D01*
X14186041Y-12970661D01*
X14457470Y-12956376D02*
X14471756Y-12970661D01*
X14457470Y-12984947D01*
X14443184Y-12970661D01*
X14457470Y-12956376D01*
X14457470Y-12984947D01*
X14457470Y-12799233D02*
X14471756Y-12813518D01*
X14457470Y-12827804D01*
X14443184Y-12813518D01*
X14457470Y-12799233D01*
X14457470Y-12827804D01*
M02*
