G04 #@! TF.GenerationSoftware,KiCad,Pcbnew,(5.1.10)-1*
G04 #@! TF.CreationDate,2022-02-14T20:21:52+09:00*
G04 #@! TF.ProjectId,Integrated_Power_Board,496e7465-6772-4617-9465-645f506f7765,rev?*
G04 #@! TF.SameCoordinates,Original*
G04 #@! TF.FileFunction,Soldermask,Top*
G04 #@! TF.FilePolarity,Negative*
%FSLAX46Y46*%
G04 Gerber Fmt 4.6, Leading zero omitted, Abs format (unit mm)*
G04 Created by KiCad (PCBNEW (5.1.10)-1) date 2022-02-14 20:21:52*
%MOMM*%
%LPD*%
G01*
G04 APERTURE LIST*
%ADD10C,0.100000*%
%ADD11O,1.700000X2.000000*%
%ADD12O,2.700000X1.500000*%
%ADD13O,1.600000X1.600000*%
%ADD14C,1.635000*%
%ADD15C,1.600000*%
%ADD16C,1.800000*%
%ADD17R,1.800000X1.800000*%
%ADD18O,4.000000X2.000000*%
%ADD19C,1.440000*%
%ADD20R,2.200000X2.200000*%
%ADD21O,2.200000X2.200000*%
%ADD22R,3.200000X3.200000*%
%ADD23O,3.200000X3.200000*%
%ADD24C,2.700000*%
G04 APERTURE END LIST*
G36*
G01*
X123967908Y-89714010D02*
X123967908Y-89714010D01*
G75*
G02*
X125169990Y-89714010I601041J-601041D01*
G01*
X125169990Y-89714010D01*
G75*
G02*
X125169990Y-90916092I-601041J-601041D01*
G01*
X125169990Y-90916092D01*
G75*
G02*
X123967908Y-90916092I-601041J601041D01*
G01*
X123967908Y-90916092D01*
G75*
G02*
X123967908Y-89714010I601041J601041D01*
G01*
G37*
D10*
G36*
X125162918Y-88519000D02*
G01*
X126365000Y-87316918D01*
X127567082Y-88519000D01*
X126365000Y-89721082D01*
X125162918Y-88519000D01*
G37*
G36*
G01*
X135929000Y-81268000D02*
X135929000Y-79768000D01*
G75*
G02*
X136179000Y-79518000I250000J0D01*
G01*
X137379000Y-79518000D01*
G75*
G02*
X137629000Y-79768000I0J-250000D01*
G01*
X137629000Y-81268000D01*
G75*
G02*
X137379000Y-81518000I-250000J0D01*
G01*
X136179000Y-81518000D01*
G75*
G02*
X135929000Y-81268000I0J250000D01*
G01*
G37*
D11*
X139279000Y-80518000D03*
D12*
X123825000Y-104005000D03*
X123825000Y-107705000D03*
X123825000Y-112005000D03*
X123825000Y-115705000D03*
D13*
X132461000Y-93599000D03*
X140081000Y-98679000D03*
X132461000Y-96139000D03*
X140081000Y-96139000D03*
X132461000Y-98679000D03*
X140081000Y-93599000D03*
X132461000Y-101219000D03*
D14*
X134493000Y-106553000D03*
X134493000Y-109093000D03*
D15*
X138049000Y-104521000D03*
D13*
X145669000Y-104521000D03*
D16*
X149352000Y-73232000D03*
X149352000Y-78232000D03*
X151852000Y-80732000D03*
X146852000Y-80732000D03*
X151852000Y-75732000D03*
D17*
X146852000Y-75732000D03*
D10*
G36*
X147485000Y-90776000D02*
G01*
X147485000Y-89006000D01*
X151555000Y-89006000D01*
X151555000Y-90776000D01*
X147485000Y-90776000D01*
G37*
G36*
X142905000Y-90776000D02*
G01*
X142905000Y-89006000D01*
X146975000Y-89006000D01*
X146975000Y-90776000D01*
X142905000Y-90776000D01*
G37*
G36*
X152090000Y-93071000D02*
G01*
X152090000Y-89001000D01*
X153860000Y-89001000D01*
X153860000Y-93071000D01*
X152090000Y-93071000D01*
G37*
G36*
X152475000Y-97361000D02*
G01*
X152475000Y-96161000D01*
X153475000Y-96161000D01*
X153475000Y-97361000D01*
X152475000Y-97361000D01*
G37*
G36*
X153975000Y-97361000D02*
G01*
X153975000Y-96161000D01*
X155475000Y-96161000D01*
X155475000Y-97361000D01*
X153975000Y-97361000D01*
G37*
G36*
X150065000Y-90371000D02*
G01*
X150065000Y-87371000D01*
X151265000Y-87371000D01*
X151265000Y-90371000D01*
X150065000Y-90371000D01*
G37*
G36*
X147775000Y-90371000D02*
G01*
X147775000Y-87371000D01*
X148975000Y-87371000D01*
X148975000Y-90371000D01*
X147775000Y-90371000D01*
G37*
G36*
X145485000Y-90371000D02*
G01*
X145485000Y-87371000D01*
X146685000Y-87371000D01*
X146685000Y-90371000D01*
X145485000Y-90371000D01*
G37*
G36*
X141275000Y-90491000D02*
G01*
X141275000Y-89291000D01*
X144275000Y-89291000D01*
X144275000Y-90491000D01*
X141275000Y-90491000D01*
G37*
G36*
X152475000Y-90491000D02*
G01*
X152475000Y-89291000D01*
X155475000Y-89291000D01*
X155475000Y-90491000D01*
X152475000Y-90491000D01*
G37*
G36*
X152475000Y-95071000D02*
G01*
X152475000Y-93871000D01*
X155475000Y-93871000D01*
X155475000Y-95071000D01*
X152475000Y-95071000D01*
G37*
G36*
X152475000Y-99651000D02*
G01*
X152475000Y-98451000D01*
X155475000Y-98451000D01*
X155475000Y-99651000D01*
X152475000Y-99651000D01*
G37*
G36*
X141275000Y-95071000D02*
G01*
X141275000Y-93871000D01*
X144275000Y-93871000D01*
X144275000Y-95071000D01*
X141275000Y-95071000D01*
G37*
G36*
X141275000Y-97361000D02*
G01*
X141275000Y-96161000D01*
X144275000Y-96161000D01*
X144275000Y-97361000D01*
X141275000Y-97361000D01*
G37*
G36*
X141275000Y-99651000D02*
G01*
X141275000Y-98451000D01*
X144275000Y-98451000D01*
X144275000Y-99651000D01*
X141275000Y-99651000D01*
G37*
G36*
X150065000Y-101571000D02*
G01*
X150065000Y-98571000D01*
X151265000Y-98571000D01*
X151265000Y-101571000D01*
X150065000Y-101571000D01*
G37*
G36*
X147775000Y-101571000D02*
G01*
X147775000Y-98571000D01*
X148975000Y-98571000D01*
X148975000Y-101571000D01*
X147775000Y-101571000D01*
G37*
G36*
X145485000Y-101571000D02*
G01*
X145485000Y-98571000D01*
X146685000Y-98571000D01*
X146685000Y-101571000D01*
X145485000Y-101571000D01*
G37*
D15*
X155703000Y-85909000D03*
X150703000Y-85909000D03*
X143591000Y-85909000D03*
X148591000Y-85909000D03*
X137501000Y-97409000D03*
X135001000Y-97409000D03*
D18*
X169545000Y-107950000D03*
X169545000Y-113950000D03*
D19*
X158877000Y-82931000D03*
X158877000Y-85471000D03*
X158877000Y-88011000D03*
D15*
X172720000Y-89916000D03*
X171520000Y-94916000D03*
D13*
X129667000Y-92075000D03*
D15*
X129667000Y-84455000D03*
X159893000Y-91567000D03*
D13*
X159893000Y-99187000D03*
D15*
X155321000Y-104521000D03*
D13*
X147701000Y-104521000D03*
D15*
X145669000Y-107315000D03*
D13*
X138049000Y-107315000D03*
G36*
G01*
X135929000Y-87999000D02*
X135929000Y-86499000D01*
G75*
G02*
X136179000Y-86249000I250000J0D01*
G01*
X137379000Y-86249000D01*
G75*
G02*
X137629000Y-86499000I0J-250000D01*
G01*
X137629000Y-87999000D01*
G75*
G02*
X137379000Y-88249000I-250000J0D01*
G01*
X136179000Y-88249000D01*
G75*
G02*
X135929000Y-87999000I0J250000D01*
G01*
G37*
D11*
X139279000Y-87249000D03*
X164632000Y-87884000D03*
G36*
G01*
X167982000Y-87134000D02*
X167982000Y-88634000D01*
G75*
G02*
X167732000Y-88884000I-250000J0D01*
G01*
X166532000Y-88884000D01*
G75*
G02*
X166282000Y-88634000I0J250000D01*
G01*
X166282000Y-87134000D01*
G75*
G02*
X166532000Y-86884000I250000J0D01*
G01*
X167732000Y-86884000D01*
G75*
G02*
X167982000Y-87134000I0J-250000D01*
G01*
G37*
X164632000Y-94488000D03*
G36*
G01*
X167982000Y-93738000D02*
X167982000Y-95238000D01*
G75*
G02*
X167732000Y-95488000I-250000J0D01*
G01*
X166532000Y-95488000D01*
G75*
G02*
X166282000Y-95238000I0J250000D01*
G01*
X166282000Y-93738000D01*
G75*
G02*
X166532000Y-93488000I250000J0D01*
G01*
X167732000Y-93488000D01*
G75*
G02*
X167982000Y-93738000I0J-250000D01*
G01*
G37*
D20*
X132715000Y-89281000D03*
D21*
X132715000Y-81661000D03*
D22*
X129159000Y-115316000D03*
D23*
X129159000Y-102616000D03*
G36*
G01*
X123995001Y-94535000D02*
X126194999Y-94535000D01*
G75*
G02*
X126445000Y-94785001I0J-250001D01*
G01*
X126445000Y-96984999D01*
G75*
G02*
X126194999Y-97235000I-250001J0D01*
G01*
X123995001Y-97235000D01*
G75*
G02*
X123745000Y-96984999I0J250001D01*
G01*
X123745000Y-94785001D01*
G75*
G02*
X123995001Y-94535000I250001J0D01*
G01*
G37*
D24*
X125095000Y-99845000D03*
M02*
