0
SECTION
2
HEADER
9
$INSUNITS
70
4
9
$ACADVER
1
AC1014
9
$HANDSEED
5
FFFF
0
ENDSEC
0
SECTION
2
TABLES
0
TABLE
2
VPORT
5
8
100
AcDbSymbolTable
0
ENDTAB
0
TABLE
2
LTYPE
5
5
100
AcDbSymbolTable
0
LTYPE
5
14
100
AcDbSymbolTableRecord
100
AcDbLinetypeTableRecord
2
BYBLOCK
70
0
0
LTYPE
5
15
100
AcDbSymbolTableRecord
100
AcDbLinetypeTableRecord
2
BYLAYER
70
0
0
ENDTAB
0
TABLE
2
LAYER
5
2
100
AcDbSymbolTable
70
2
0
LAYER
5
50
100
AcDbSymbolTableRecord
100
AcDbLayerTableRecord
2
0
70
0
6
CONTINUOUS
0
ENDTAB
0
TABLE
2
STYLE
5
3
100
AcDbSymbolTable
70
1
0
STYLE
5
11
100
AcDbSymbolTableRecord
100
AcDbTextStyleTableRecord
2
STANDARD
70
0
0
ENDTAB
0
TABLE
2
VIEW
5
6
100
AcDbSymbolTable
70
0
0
ENDTAB
0
TABLE
2
UCS
5
7
100
AcDbSymbolTable
70
0
0
ENDTAB
0
TABLE
2
APPID
5
9
100
AcDbSymbolTable
70
2
0
APPID
5
12
100
AcDbSymbolTableRecord
100
AcDbRegAppTableRecord
2
ACAD
70
0
0
ENDTAB
0
TABLE
2
DIMSTYLE
5
A
100
AcDbSymbolTable
70
1
0
ENDTAB
0
TABLE
2
BLOCK_RECORD
5
1
100
AcDbSymbolTable
70
1
0
BLOCK_RECORD
5
1F
100
AcDbSymbolTableRecord
100
AcDbBlockTableRecord
2
*MODEL_SPACE
0
BLOCK_RECORD
5
1B
100
AcDbSymbolTableRecord
100
AcDbBlockTableRecord
2
*PAPER_SPACE
0
ENDTAB
0
ENDSEC
0
SECTION
2
BLOCKS
0
BLOCK
5
20
100
AcDbEntity
100
AcDbBlockBegin
2
*MODEL_SPACE
0
ENDBLK
5
21
100
AcDbEntity
100
AcDbBlockEnd
0
BLOCK
5
1C
100
AcDbEntity
100
AcDbBlockBegin
2
*PAPER_SPACE
0
ENDBLK
5
1D
100
AcDbEntity
100
AcDbBlockEnd
0
ENDSEC
0
SECTION
2
ENTITIES
0
LWPOLYLINE
5
100
100
AcDbEntity
8
0
100
AcDbPolyline
90
16
70
1
43
0.0
10
-59.121320343559645
20
-17.378679656440347
42
-0.19891236737965753
10
-60
20
-15.257359312880707
10
-60.000000000000014
20
43.98863489584555
42
-0.16581101724289862
10
-59.375000000000007
20
45.821494683172439
42
-0.15177606923667211
10
-22.952685723938014
20
71.401500110698876
42
-0.077913650408595464
10
-22.034578294980491
20
71.545440106270917
10
22.034578294980484
20
71.545440106270931
42
-0.077913650408596019
10
22.952685723938004
20
71.401500110698905
42
-0.15177606923667211
10
59.375
20
45.82149468317246
42
-0.16581101724289785
10
60
20
43.988634895845564
10
60
20
-15.257359312880702
42
-0.19891236737965776
10
59.121320343559645
20
-17.378679656440347
10
35.87867965644034
20
-40.621320343559645
42
-0.19891236737965742
10
33.757359312880702
20
-41.499999999999993
10
-33.757359312880709
20
-41.499999999999993
42
-0.19891236737965801
10
-35.878679656440355
20
-40.621320343559631
0
LWPOLYLINE
5
101
100
AcDbEntity
8
0
100
AcDbPolyline
90
8
70
1
43
0.0
10
30
20
-31.999999999999993
10
30
20
-27.999999999999993
42
0.41421356237309503
10
27
20
-24.999999999999996
10
-27
20
-24.999999999999996
42
0.41421356237309503
10
-30
20
-27.999999999999993
10
-30
20
-31.999999999999993
42
0.41421356237309503
10
-27
20
-34.999999999999993
10
27
20
-34.999999999999993
42
0.41421356237309503
0
LWPOLYLINE
5
102
100
AcDbEntity
8
0
100
AcDbPolyline
90
8
70
1
43
0.0
10
-18.000000000000004
20
54.999999999999993
10
18
20
54.999999999999993
42
0.41421356237309503
10
21
20
58
10
20.999999999999996
20
61.999999999999972
42
0.41421356237309503
10
18
20
64.999999999999986
10
-18.000000000000004
20
64.999999999999986
42
0.41421356237309503
10
-21.000000000000007
20
61.999999999999986
10
-21.000000000000007
20
57.999999999999986
42
0.41421356237309481
0
CIRCLE
5
103
100
AcDbEntity
8
0
100
AcDbCircle
10
21.56675682618971
20
33.092767393480855
30
4.163336342344337e-15
40
1.5000000000000036
210
-1.4802973661669071e-16
220
1.2325951644078359e-32
230
1
0
CIRCLE
5
104
100
AcDbEntity
8
0
100
AcDbCircle
10
-21.566756826189703
20
-10.040746258898521
30
-4.7184478546569153e-15
40
1.4999999999999991
210
-1.4802973661669071e-16
220
1.2325951644078359e-32
230
1
0
CIRCLE
5
105
100
AcDbEntity
8
0
100
AcDbCircle
10
-21.566756826189703
20
33.092767393480855
30
-4.7184478546569153e-15
40
1.4999999999999991
210
-1.4802973661669071e-16
220
1.2325951644078359e-32
230
1
0
CIRCLE
5
106
100
AcDbEntity
8
0
100
AcDbCircle
10
21.56675682618971
20
-10.040746258898521
30
4.163336342344337e-15
40
1.5000000000000036
210
-1.4802973661669071e-16
220
1.2325951644078359e-32
230
1
0
CIRCLE
5
107
100
AcDbEntity
8
0
100
AcDbCircle
10
-25.5
20
57.999999999999986
30
1.8041124150158876e-14
40
1.4999999999999991
210
3.1554436208840479e-30
220
2.465190328815663e-32
230
-1
0
CIRCLE
5
108
100
AcDbEntity
8
0
100
AcDbCircle
10
25.5
20
57.999999999999979
30
2.6922908347159967e-14
40
1.4999999999999991
210
3.1554436208840479e-30
220
2.465190328815663e-32
230
-1
0
CIRCLE
5
109
100
AcDbEntity
8
0
100
AcDbCircle
10
33.757359312880702
20
-38.5
30
3.3306690738754696e-15
40
1.4999999999999991
210
-3.1554436208840472e-30
220
1.2325951644078301e-32
230
1
0
CIRCLE
5
110
100
AcDbEntity
8
0
100
AcDbCircle
10
-33.757359312880709
20
-38.5
30
3.3306690738754696e-15
40
1.4999999999999991
210
-3.1554436208840472e-30
220
1.2325951644078301e-32
230
1
0
CIRCLE
5
111
100
AcDbEntity
8
0
100
AcDbCircle
10
24.5
20
-38.249999999999993
30
3.3306690738754696e-15
40
1.0000000000000009
210
-3.1554436208840472e-30
220
1.2325951644078301e-32
230
1
0
CIRCLE
5
112
100
AcDbEntity
8
0
100
AcDbCircle
10
-24.5
20
68.249999999999986
30
-6.9388939039072284e-15
40
0.99999999999999645
210
-3.1554436208840472e-30
220
1.2325951644078301e-32
230
1
0
CIRCLE
5
113
100
AcDbEntity
8
0
100
AcDbCircle
10
24.5
20
68.249999999999986
30
-6.9388939039072284e-15
40
1.0000000000000009
210
-3.1554436208840472e-30
220
1.2325951644078301e-32
230
1
0
CIRCLE
5
114
100
AcDbEntity
8
0
100
AcDbCircle
10
-24.5
20
-38.249999999999993
30
3.3306690738754696e-15
40
0.99999999999999645
210
-3.1554436208840472e-30
220
1.2325951644078301e-32
230
1
0
CIRCLE
5
115
100
AcDbEntity
8
0
100
AcDbCircle
10
45
20
49.999999999999993
30
-4.9960036108132044e-15
40
1.4999999999999947
210
-3.1554436208840472e-30
220
1.2325951644078301e-32
230
1
0
CIRCLE
5
116
100
AcDbEntity
8
0
100
AcDbCircle
10
-45
20
-19.999999999999996
30
1.6653345369377348e-15
40
1.4999999999999947
210
-3.1554436208840472e-30
220
1.2325951644078301e-32
230
1
0
CIRCLE
5
117
100
AcDbEntity
8
0
100
AcDbCircle
10
45
20
-19.999999999999996
30
1.6653345369377348e-15
40
1.5000000000000036
210
-3.1554436208840472e-30
220
1.2325951644078301e-32
230
1
0
CIRCLE
5
118
100
AcDbEntity
8
0
100
AcDbCircle
10
-45
20
49.999999999999993
30
-5.2735593669694936e-15
40
1.4999999999999947
210
-3.1554436208840472e-30
220
1.2325951644078301e-32
230
1
0
LWPOLYLINE
5
119
100
AcDbEntity
8
0
100
AcDbPolyline
90
4
70
1
43
0.0
10
46
20
-15.257359312880702
10
60
20
-15.257359312880702
10
60
20
29.742640687119298
10
46
20
29.742640687119298
0
CIRCLE
5
120
100
AcDbEntity
8
0
100
AcDbCircle
10
56.5
20
7.2426406871192972
30
-5.2003073954576773e-16
40
1.4999999999999993
210
0
220
0
230
1
0
LINE
5
121
100
AcDbEntity
8
0
100
AcDbLine
10
-2.2204460492503131e-15
20
54.999999999999993
30
-2.7755575615628914e-16
11
0
21
-24.999999999999996
31
9.7144514654701197e-16
0
LWPOLYLINE
5
122
100
AcDbEntity
8
0
100
AcDbPolyline
90
4
70
1
43
0.0
10
-46
20
-15.257359312880707
10
-60
20
-15.257359312880707
10
-60
20
29.742640687119291
10
-46
20
29.742640687119291
0
CIRCLE
5
123
100
AcDbEntity
8
0
100
AcDbCircle
10
-56.5
20
7.2426406871192928
30
-5.2003073954576773e-16
40
1.4999999999999993
210
0
220
0
230
1
0
LINE
5
124
100
AcDbEntity
8
0
100
AcDbLine
10
21.56675682618971
20
-10.040746258898521
30
4.163336342344337e-15
11
-21.566756826189703
21
33.092767393480855
31
-4.7184478546569153e-15
0
LINE
5
125
100
AcDbEntity
8
0
100
AcDbLine
10
21.56675682618971
20
33.092767393480855
30
4.163336342344337e-15
11
-21.566756826189703
21
-10.040746258898521
31
-4.7184478546569153e-15
0
CIRCLE
5
126
100
AcDbEntity
8
0
100
AcDbCircle
10
4.4408920985006262e-15
20
11.526010567291166
30
-2.7755575615628914e-16
40
34
210
0
220
0
230
1
0
ENDSEC
0
SECTION
2
OBJECTS
0
DICTIONARY
5
C
100
AcDbDictionary
3
ACAD_GROUP
350
D
3
ACAD_MLINESTYLE
350
17
0
DICTIONARY
5
D
100
AcDbDictionary
0
DICTIONARY
5
1A
330
C
100
AcDbDictionary
0
DICTIONARY
5
17
100
AcDbDictionary
0
ENDSEC
0
EOF
