0
SECTION
2
HEADER
9
$INSUNITS
70
4
9
$ACADVER
1
AC1014
9
$HANDSEED
5
FFFF
0
ENDSEC
0
SECTION
2
TABLES
0
TABLE
2
VPORT
5
8
100
AcDbSymbolTable
0
ENDTAB
0
TABLE
2
LTYPE
5
5
100
AcDbSymbolTable
0
LTYPE
5
14
100
AcDbSymbolTableRecord
100
AcDbLinetypeTableRecord
2
BYBLOCK
70
0
0
LTYPE
5
15
100
AcDbSymbolTableRecord
100
AcDbLinetypeTableRecord
2
BYLAYER
70
0
0
ENDTAB
0
TABLE
2
LAYER
5
2
100
AcDbSymbolTable
70
2
0
LAYER
5
50
100
AcDbSymbolTableRecord
100
AcDbLayerTableRecord
2
0
70
0
6
CONTINUOUS
0
ENDTAB
0
TABLE
2
STYLE
5
3
100
AcDbSymbolTable
70
1
0
STYLE
5
11
100
AcDbSymbolTableRecord
100
AcDbTextStyleTableRecord
2
STANDARD
70
0
0
ENDTAB
0
TABLE
2
VIEW
5
6
100
AcDbSymbolTable
70
0
0
ENDTAB
0
TABLE
2
UCS
5
7
100
AcDbSymbolTable
70
0
0
ENDTAB
0
TABLE
2
APPID
5
9
100
AcDbSymbolTable
70
2
0
APPID
5
12
100
AcDbSymbolTableRecord
100
AcDbRegAppTableRecord
2
ACAD
70
0
0
ENDTAB
0
TABLE
2
DIMSTYLE
5
A
100
AcDbSymbolTable
70
1
0
ENDTAB
0
TABLE
2
BLOCK_RECORD
5
1
100
AcDbSymbolTable
70
1
0
BLOCK_RECORD
5
1F
100
AcDbSymbolTableRecord
100
AcDbBlockTableRecord
2
*MODEL_SPACE
0
BLOCK_RECORD
5
1B
100
AcDbSymbolTableRecord
100
AcDbBlockTableRecord
2
*PAPER_SPACE
0
ENDTAB
0
ENDSEC
0
SECTION
2
BLOCKS
0
BLOCK
5
20
100
AcDbEntity
100
AcDbBlockBegin
2
*MODEL_SPACE
0
ENDBLK
5
21
100
AcDbEntity
100
AcDbBlockEnd
0
BLOCK
5
1C
100
AcDbEntity
100
AcDbBlockBegin
2
*PAPER_SPACE
0
ENDBLK
5
1D
100
AcDbEntity
100
AcDbBlockEnd
0
ENDSEC
0
SECTION
2
ENTITIES
0
CIRCLE
5
100
100
AcDbEntity
8
0
100
AcDbCircle
10
45
20
20
30
0
40
1.4999999999999947
210
0
220
-0
230
1
0
CIRCLE
5
101
100
AcDbEntity
8
0
100
AcDbCircle
10
33.757359312880709
20
38.5
30
0
40
1.4999999999999991
210
0
220
-0
230
1
0
CIRCLE
5
102
100
AcDbEntity
8
0
100
AcDbCircle
10
-25.500000000000004
20
-58
30
0
40
1.4999999999999991
210
0
220
0
230
1
0
CIRCLE
5
103
100
AcDbEntity
8
0
100
AcDbCircle
10
-45
20
-50
30
0
40
1.4999999999999947
210
0
220
-0
230
1
0
CIRCLE
5
104
100
AcDbEntity
8
0
100
AcDbCircle
10
24.5
20
38.249999999999993
30
0
40
0.99999999999999645
210
0
220
-0
230
1
0
CIRCLE
5
105
100
AcDbEntity
8
0
100
AcDbCircle
10
-26.413774815425374
20
3.7239894327088363
30
0
40
1.4999999999999991
210
0
220
-0
230
1
0
CIRCLE
5
106
100
AcDbEntity
8
0
100
AcDbCircle
10
24.5
20
-68.25
30
0
40
0.99999999999999645
210
0
220
-0
230
1
0
CIRCLE
5
107
100
AcDbEntity
8
0
100
AcDbCircle
10
-45
20
20
30
0
40
1.5000000000000036
210
0
220
-0
230
1
0
CIRCLE
5
108
100
AcDbEntity
8
0
100
AcDbCircle
10
25.500000000000004
20
-57.999999999999979
30
0
40
1.4999999999999991
210
0
220
0
230
1
0
CIRCLE
5
109
100
AcDbEntity
8
0
100
AcDbCircle
10
-33.757359312880702
20
38.5
30
0
40
1.4999999999999991
210
0
220
-0
230
1
0
CIRCLE
5
110
100
AcDbEntity
8
0
100
AcDbCircle
10
-24.5
20
38.249999999999993
30
0
40
1.0000000000000009
210
0
220
-0
230
1
0
CIRCLE
5
111
100
AcDbEntity
8
0
100
AcDbCircle
10
-56.5
20
-7.2426406871192972
30
0
40
1.5000000000000036
210
0
220
-0
230
1
0
CIRCLE
5
112
100
AcDbEntity
8
0
100
AcDbCircle
10
-24.5
20
-68.25
30
0
40
1.0000000000000009
210
0
220
-0
230
1
0
CIRCLE
5
113
100
AcDbEntity
8
0
100
AcDbCircle
10
45
20
-50
30
0
40
1.4999999999999947
210
0
220
-0
230
1
0
CIRCLE
5
114
100
AcDbEntity
8
0
100
AcDbCircle
10
56.5
20
-7.2426406871192928
30
0
40
1.5000000000000036
210
0
220
-0
230
1
0
CIRCLE
5
115
100
AcDbEntity
8
0
100
AcDbCircle
10
1.8603455045143926e-15
20
-42.026010567291159
30
0
40
1.5000000000000002
210
0
220
-0
230
1
0
LWPOLYLINE
5
116
100
AcDbEntity
8
0
100
AcDbPolyline
90
8
70
1
43
0.0
10
-21.000000000000014
20
-58.000000000000007
42
-0.4142135623730937
10
-18
20
-55
10
18.000000000000007
20
-55
42
-0.41421356237309243
10
21.000000000000011
20
-58
10
21.000000000000011
20
-61.999999999999993
42
-0.4142135623730922
10
18.000000000000004
20
-64.999999999999986
10
-18
20
-64.999999999999972
42
-0.4142135623730937
10
-21
20
-61.999999999999972
0
LWPOLYLINE
5
117
100
AcDbEntity
8
0
100
AcDbPolyline
90
8
70
1
43
0.0
10
-27
20
25
10
27
20
25
42
0.41421356237309503
10
30
20
28
10
30
20
31.999999999999996
42
0.41421356237309592
10
27
20
34.999999999999993
10
-27
20
34.999999999999993
42
0.41421356237309592
10
-30
20
31.999999999999996
10
-30
20
28
42
0.41421356237309503
0
CIRCLE
5
118
100
AcDbEntity
8
0
100
AcDbCircle
10
26.413774815425374
20
3.7239894327088296
30
0
40
1.4999999999999991
210
0
220
-0
230
1
0
LWPOLYLINE
5
119
100
AcDbEntity
8
0
100
AcDbPolyline
90
16
70
1
43
0.0
10
60
20
15.257359312880707
10
60.000000000000036
20
-43.988634895845564
42
-0.16581101724291017
10
59.374999999999986
20
-45.821494683172446
42
-0.15177606923667211
10
22.952685723938014
20
-71.40150011069889
42
-0.077913650408601945
10
22.034578294980477
20
-71.545440106270917
10
-22.034578294980488
20
-71.545440106270959
42
-0.077913650408590884
10
-22.952685723937989
20
-71.401500110698919
42
-0.15177606923667222
10
-59.374999999999993
20
-45.82149468317246
42
-0.16581101724289316
10
-59.999999999999993
20
-43.988634895845564
10
-60
20
15.257359312880702
42
-0.1989123673796617
10
-59.12132034355966
20
17.378679656440347
10
-35.878679656440347
20
40.621320343559645
42
-0.1989123673796579
10
-33.757359312880709
20
41.499999999999993
10
33.757359312880716
20
41.499999999999993
42
-0.1989123673796579
10
35.878679656440355
20
40.621320343559631
10
59.121320343559645
20
17.378679656440347
42
-0.19891236737966145
0
LINE
5
120
100
AcDbEntity
8
0
100
AcDbLine
10
0
20
25
30
0
11
2.2204460492503131e-15
21
-55
31
0
0
CIRCLE
5
121
100
AcDbEntity
8
0
100
AcDbCircle
10
2.2204460492503131e-15
20
-11.526010567291166
30
0
40
34
210
0
220
0
230
1
0
LWPOLYLINE
5
122
100
AcDbEntity
8
0
100
AcDbPolyline
90
4
70
1
43
0.0
10
46
20
15.257359312880707
10
60
20
15.257359312880707
10
60
20
-29.742640687119291
10
46
20
-29.742640687119291
0
LWPOLYLINE
5
123
100
AcDbEntity
8
0
100
AcDbPolyline
90
4
70
1
43
0.0
10
-46
20
15.257359312880705
10
-60
20
15.257359312880707
10
-60
20
-29.742640687119291
10
-46
20
-29.742640687119291
0
ENDSEC
0
SECTION
2
OBJECTS
0
DICTIONARY
5
C
100
AcDbDictionary
3
ACAD_GROUP
350
D
3
ACAD_MLINESTYLE
350
17
0
DICTIONARY
5
D
100
AcDbDictionary
0
DICTIONARY
5
1A
330
C
100
AcDbDictionary
0
DICTIONARY
5
17
100
AcDbDictionary
0
ENDSEC
0
EOF
